<?xml version="1.0" standalone="no"?>
<!DOCTYPE svg PUBLIC "-//W3C//DTD SVG 1.1//EN" "http://www.w3.org/Graphics/SVG/1.1/DTD/svg11.dtd" >
<svg xmlns="http://www.w3.org/2000/svg" xmlns:xlink="http://www.w3.org/1999/xlink" version="1.1">
<metadata></metadata>
<defs>
<font id="ccmonstermashoutlineregular" horiz-adv-x="2048" >
<font-face units-per-em="2048" ascent="1638" descent="-410" />
<missing-glyph horiz-adv-x="724" />
<glyph horiz-adv-x="0" />
<glyph horiz-adv-x="682" />
<glyph unicode="&#x9;" />
<glyph unicode="&#xa;" />
<glyph unicode="&#xd;" />
<glyph />
<glyph />
<glyph />
<glyph />
<glyph />
<glyph />
<glyph />
<glyph unicode=" "  horiz-adv-x="724" />
<glyph unicode="&#x09;" horiz-adv-x="724" />
<glyph unicode="&#xa0;" horiz-adv-x="724" />
<glyph unicode="!" horiz-adv-x="796" d="M342 270l-51 -30l4 73l-68 -63l-10 65l-31 -32l-22 22l-86 -86l16 139l-26 25q-101 -211 -138 -397l68 10l8 -45l64 106l22 -84l35 43l23 -84l36 27l37 -2q55 177 119 313zM348 332l80 45v69l-37 -38l2 32l-86 -41l4 21l-28 -8v32l-31 -30l10 -62l80 56zM1034 1665 l-14 45q-70 -32 -160 -111l-4 68l-84 -76l23 138l-164 -146l35 113l-74 -10q-295 -514 -449 -1076l23 -49l94 152l-39 -185l31 25l51 88l-2 -104l37 36l-2 -96l29 8q242 567 669 1180zM1128 1622l21 -61q-437 -627 -674 -1186l-26 -6q-16 -33 -44.5 -97t-31.5 -71l37 35 l-4 -80l63 37q-71 -144 -135 -349l-43 2l-45 -32l-21 77l-35 -41l-12 41l-76 -55l-10 45l-65 -26l-7 22l-43 -51l-20 111l-90 -13q52 281 184 541l99 -86l-5 -19l21 19l20 -21l60 68l2 55l-2 2l-105 -86l15 68l-66 141q161 595 471 1129l178 20l-4 -10l115 78l-2 -97l55 50 l4 -76q40 36 142 84l43 -127l-68 -101q48 42 104 66z" />
<glyph unicode="&#x22;" horiz-adv-x="790" d="M500 1196l170 449l-49 -29l-29 51l-53 -47l-68 70l-59 -56l-66 -405l31 -41l63 76zM807 1149l225 416l-63 -17l-21 70l-96 -53l-8 71l-84 -49l-113 -385l66 19l12 -66l53 25zM1077 1458l78 21l-244 -449l-32 35l-60 -27l-6 29l-51 -2l-21 43l-55 -27l-14 76l-39 -12 l-27 -72l-63 72l-64 -76l-41 55l8 54l-6 6l-65 -78l-82 111l69 444l111 100l68 -69l63 55l35 -61l109 30l-31 -92l168 96l10 -73l84 45l25 -82l131 35l-74 -134z" />
<glyph unicode="#" horiz-adv-x="1363" d="M629 854l190 8q-26 -82 -59 -217l-205 -10q12 32 35 106t39 113zM1278 993l100 74l-55 37l-176 -8q47 132 96 264l-76 -14l-37 100l-79 -55l-43 2q-25 -65 -113 -308q-32 -1 -95.5 -3t-94.5 -3q54 154 120 295l-22 29l-86 -86l-12 125l-74 -74l-51 23q-77 -160 -129 -328 q-30 -2 -87 -3.5t-103 -5t-87 -10.5l39 -63l-111 -74l56 -33l-19 -51l217 13q-13 -36 -33 -108t-32 -107q-87 -6 -187 -9l-67 -45l72 -63l-99 -74l53 -37l156 8q-7 -21 -26 -80.5t-31 -101t-21 -82.5l80 17l37 -101l80 56l41 -3q17 51 50.5 154t49.5 154q34 1 101.5 3 t101.5 3q-11 -31 -32.5 -91.5t-37.5 -108.5t-28 -93l24 -31l84 86l23 -123l65 74l49 -22q50 181 109 325q29 2 85 3.5t100.5 5t84.5 10.5l-34 63l112 74l-57 33l20 51l-215 -12q11 83 45 213q137 8 203 10l68 45zM1430 1012l69 -47l-102 -74l73 -64l-81 -53q-68 -2 -199 -10 l-10 -41l145 10l-33 -86l90 -51l-16 -10l-23 -60l64 -37l-117 -77l37 -66q-41 -8 -85.5 -12t-107 -6t-87.5 -4q-61 -154 -109 -330l-53 24l-74 -81l-23 120q-63 -60 -104 -108l-25 129l-57 -58l-74 95l-39 -121l-47 2l-88 -59l-37 96l-86 -58l-45 119l-108 -20 q20 111 55 227l-39 27l23 18l-68 -4l-129 88l107 78l-74 65l135 91q27 1 82 3t82 3l12 41l-39 -2l23 59l-17 8l-170 -10l33 86l-90 51l139 94l-51 82q93 20 320 33q52 160 143 346l63 -28l125 122l13 -122l51 51l78 -99q-52 -111 -60 -131l2 -14l80 80l11 -17l55 144l61 -2 l121 82l45 -119l121 22l-53 -147l8 -25l84 17l-41 -117l20 2l127 -88l-80 -59z" />
<glyph unicode="$" horiz-adv-x="950" d="M967 1272l45 26q-31 23 -49 35t-47.5 24.5t-57.5 14.5q111 258 143 324l-20 28q-50 -39 -125 -106l-37 106l-104 -141l-21 86l-28 -18q-53 -86 -119 -240q-100 -16 -180 -57q-53 -26 -95 -82t-63 -120.5t-21 -125.5q0 -53 20.5 -101t51.5 -81t67.5 -68.5t67.5 -64 t51.5 -66t20.5 -76.5t-25 -71.5t-63 -32.5q-36 0 -91 32.5t-86 58.5t-77 67l-16 -74l-68 16l8 -73l-55 -9l16 -59l-67 -25q82 -98 204 -170q-7 -22 -39.5 -110.5t-44.5 -138.5l43 -56l78 101l6 -127l82 63l13 -84l47 12q32 111 92 273h4q96 0 184 52.5t141.5 140t53.5 182.5 q0 80 -27 147.5t-65.5 111.5t-77 81t-65.5 72.5t-27 68.5q0 46 35.5 70t83.5 24q104 0 196 -63l-6 41l66 10l-9 88l64 8zM1133 1196l-54 -33l8 -78l-63 -10l8 -88l-63 -8l8 -55q-19 14 -51 32l4 -22q-49 37 -80.5 51t-83.5 14q-41 0 -71 -18t-36 -55q105 -87 146 -174 q4 -8 11 -27t11 -27q10 -19 34.5 -63.5t32.5 -63t17 -56.5t9 -81q0 -97 -55 -187t-145.5 -145t-187.5 -53q-64 -175 -90 -270l-63 -17l-12 78l-82 -65l-2 49l-39 -10l-4 30l-31 -39l-19 25l-45 -35l-4 90q-34 0 -71 25t-62 57q8 37 20.5 75.5t31.5 90.5t26 74 q-110 71 -229 215l92 33l-19 69l64 11l-10 98l86 -21l24 105q8 -7 40.5 -37.5t61.5 -55.5t63.5 -53.5t63 -45.5t44.5 -17q23 0 37 21.5t14 45.5q0 30 -21 61t-52.5 57t-68 60.5t-68 70t-52.5 88t-21 112.5q0 69 25 143.5t74 139t110 94.5q66 33 168 55q62 141 117 232 l100 63l10 -47l99 131l43 -127q71 60 112 90l68 -98q-24 -47 -64 -137q52 45 90 73l29 -43q-54 -112 -104 -229l94 -68l-64 -39q19 -10 50.5 -32.5t40.5 -28.5z" />
<glyph unicode="%" horiz-adv-x="1964" d="M1573 518q0 -40 -12.5 -96t-35 -112t-60.5 -95t-83 -39q-65 0 -65 90q0 52 27 128.5t77.5 141t104.5 64.5q47 0 47 -82zM770 1395q0 -41 -12.5 -96.5t-34.5 -111.5t-60 -95t-83 -39q-66 0 -66 90q0 52 27 128.5t77.5 141t104.5 64.5q47 0 47 -82zM1831 528q0 78 -28 157 t-83 114l-6 -56l-43 9v-70l-135 57l49 41l-29 19l17 39q-92 -3 -172.5 -38.5t-140.5 -95.5t-105 -133.5t-76 -160.5q-32 -91 -32 -174q0 -138 74.5 -228t209.5 -90q108 0 203.5 57t159 146.5t100.5 197t37 209.5zM1888 1540l-55 19l35 51l-76 2l-4 67q-237 -67 -475 -67 q-96 0 -223 22t-216 54l-51 -41l-71 26l18 41q-179 -6 -304.5 -125.5t-189.5 -302.5q-32 -91 -32 -174q0 -138 74.5 -226.5t209.5 -88.5q90 0 171 38.5t139 101.5t102 144.5t67.5 167.5t28.5 170q62 -6 123 -6q48 0 135.5 12.5t106.5 14.5q-327 -366 -678 -817 q-16 -21 -71.5 -92.5t-78 -100.5t-69 -91t-75 -102t-65 -94.5t-67.5 -103.5l2 -41q65 17 133 49l-18 -90l123 82l-9 -86l31 6q229 338 680 870q142 169 215.5 254.5t198.5 220t235 236.5zM1139 1214l71 86q-11 0 -61 5q-4 -62 -10 -91zM1952 1462l57 -20 q-35 -32 -72.5 -68.5t-66.5 -65.5t-70.5 -74t-63 -68.5t-67.5 -76t-61 -70t-67 -77.5t-62 -72q84 19 172 19l-31 -70q0 -3 1 -10t1 -10q0 -13 -8 -37l6 -2q49 46 68 110q117 -53 165 -184q44 -49 67.5 -119t23.5 -141q0 -104 -37.5 -213.5t-102.5 -200.5t-162.5 -149 t-207.5 -58q-122 0 -197 72q-79 20 -135 76t-81.5 128.5t-25.5 154.5q0 35 2 51q-203 -255 -329 -439l-50 -10l9 78l-125 -84l12 66l-45 -9l2 19q-14 -6 -42.5 -16t-50 -20t-38.5 -26l22 117l-110 -35l-6 125q29 47 59 93t67 98t62 87t71 94.5t65 84.5t73 93.5t68 86.5 q-40 -6 -80 -6q-124 0 -197 70q-79 20 -134.5 76t-81 128t-25.5 154q0 98 36 193q85 228 234 344t385 116l-23 -53l35 37q93 -36 224.5 -61t228.5 -25q109 0 259 25.5t261 60.5l6 -86l123 -4l-49 -74l72 -24l-43 -41l47 -2z" />
<glyph unicode="&#x26;" horiz-adv-x="1230" d="M635 551q-56 -42 -101.5 -96t-56.5 -109l8 -2q12 -1 24.5 2.5t18 6.5t21.5 13t18 11q28 83 68 174zM774 737q-87 -187 -164 -399q-18 -3 -54 -24t-77 -21q-55 0 -86 33t-31 88q0 63 39 121q65 96 161 149t212 53zM1243 1522l76 14v23q-150 96 -361 96q-157 0 -291.5 -63 t-230.5 -183q-112 -138 -112 -246q0 -84 79 -194q-164 -101 -285.5 -276t-121.5 -351q0 -92 36.5 -175t110.5 -138.5t168 -55.5q86 0 189 27q-9 -33 -33 -97.5t-33 -97.5l37 -59l78 92l14 -114q40 38 84 120l10 -104l45 43l9 -94l47 12q175 624 432 1153h-88l12 55h-84 l25 88q-373 0 -373 162q0 49 47 94.5t107.5 71t107.5 25.5q75 0 193 -58l-7 84l125 -6l-47 66l68 26zM1432 1460v-35l-70 -14l31 -57l-54 -19l23 -73h-119l8 -88q-128 63 -204 63q-66 0 -145.5 -46.5t-100.5 -105.5q118 -36 321 -36l-24 -88h80l-13 -56h107 q-47 -92 -55 -143h92q-269 -549 -441 -1172l-63 -16l-8 84h-2l-43 -41l-4 29l-70 -49l-29 65l-33 -31l-4 43l-41 -49l-10 19l-35 -39l-14 110l-49 -57l-84 139l18 64q-101 3 -178 71q-126 35 -200 154t-74 256q0 175 115 356t272 285q-62 94 -62 178q0 124 125 279 q104 129 247.5 196.5t309.5 67.5q230 0 418 -119v-90z" />
<glyph unicode="'" horiz-adv-x="522" d="M805 1569l-86 -25v49l-107 -108l-8 84l-41 -37l-10 86l-39 -19l-35 7q-48 -197 -217 -408l43 6l4 -33l86 78v-71l35 28l16 -24l103 82l-41 -148l22 -29q183 208 275 482zM831 1454l93 27q-43 -135 -121.5 -275t-169.5 -237l-35 43l35 121q-18 -16 -34.5 -35.5t-40 -50 t-30.5 -39.5l-71 90l-54 -51l-4 43l-55 -17v60l-76 -50l-8 62l-125 -19q102 119 190.5 268.5t112.5 270.5l68 -12l92 45l6 -62l41 35l8 -72l97 101l20 -88l92 10q-9 -58 -31 -121v-47z" />
<glyph unicode="(" horiz-adv-x="780" d="M831 1487l70 57l-141 -10l63 68l-71 8l41 53l-88 8l2 47q-79 -30 -172 -104t-150 -146q-155 -199 -248.5 -476.5t-93.5 -532.5q0 -97 17 -204.5t61 -219.5t106 -170l45 -2l-47 143l140 -51l-5 55l86 -24l-67 159l86 -4l-4 47q-38 63 -58 173t-20 202q0 115 53 283.5 t117 283.5q127 229 330 326zM889 1593l127 -28l-86 -78l84 -53l-62 -50l56 -32q-116 -55 -199 -135t-145 -195q-63 -114 -115.5 -281t-52.5 -280q0 -93 18.5 -201.5t56.5 -169.5l7 -61l-80 2l49 -142l-72 5l4 -58l-135 51l47 -139l-65 6l-50 58l-69 4q-106 96 -160.5 283 t-54.5 362q0 262 96.5 547t255.5 491q72 93 189 174.5t229 116.5l-4 -72l131 -14l-43 -55l86 -11z" />
<glyph unicode=")" horiz-adv-x="835" d="M772 1165q0 51 -7 115t-25 142.5t-45.5 142t-74 106.5t-104.5 43q-15 0 -47 -4l29 -96h-54l45 -96l-102 20l10 -47l-100 -6q87 -76 110 -137t23 -185q0 -94 -36 -242.5t-95 -299t-147.5 -269.5t-180.5 -143l-16 -23l78 -30l-76 -60l129 -39l-199 -77l109 -37l-64 -43 l13 -13q132 17 219 60.5t190 138.5q59 55 143.5 193t127.5 235q62 139 104.5 323t42.5 328zM885 1063q0 -145 -43 -329t-105 -326q-43 -98 -128 -238t-144 -195q-104 -97 -194 -140t-228 -60l-27 22l60 39l-41 14q-66 -11 -107 -16l-82 70l35 22l-104 49l153 76l-82 25 l82 65l-53 21l64 92q37 9 66.5 25t55 43.5t40.5 48t42 61.5q81 124 157.5 357.5t76.5 371.5q0 49 -2.5 84t-12 64.5t-17.5 47.5t-29.5 41.5t-36 36.5t-49 43t-58.5 52l162 8l-14 68l77 -17l-34 74h63l-27 90q86 14 115 14q35 0 64.5 -10.5t49 -24.5t40.5 -40.5t31.5 -45.5 t29.5 -54t29 -52q7 -14 23.5 -39t23.5 -39q78 -155 78 -399z" />
<glyph unicode="*" horiz-adv-x="786" d="M899 1329l47 49l-88 13l43 55l-41 14l-176 -57q55 107 78 145h-47l2 84l-90 -69l6 59l-45 -12q-7 -14 -70 -154l-86 103l-16 -72l-97 88v-66l-51 -41l113 -161l-188 -90l18 -43l-64 -54l105 -6l-43 -57l41 -15l123 64q-4 -11 -20 -57.5t-23 -71.5l41 8l-13 -92l76 51 l19 -61l26 14q8 18 70 178l102 -129l17 45l84 -57l-7 86l41 24l-112 168l241 76zM981 1296l88 -12l-55 -59l18 -45l-227 -72l53 -82l-10 -6l55 -82l-45 -27l-12 -80l-35 17v-17l-41 29l-14 -37l-70 88l-8 -32l-37 39q-34 -92 -51 -132l-41 -20l-19 59l-81 -57l8 59l-37 -18 l-14 53l-115 -78l20 136l-51 -11q4 17 12.5 48t12.5 47l-31 -17l-131 45l29 37l-93 29l91 90l-23 53l178 86l-106 152l69 55v137l117 -88l21 86l100 -117l47 101l119 57l18 -33l82 43l-4 -121l90 -2l-49 -94l51 10l125 -43l-31 -40l97 -13l-56 -61l25 -8z" />
<glyph unicode="+" horiz-adv-x="1124" d="M940 692l115 35l-6 29l-115 28l100 62l-49 33q-29 0 -199 -5q69 203 125 322l-69 -10l-8 49l-80 -105l-9 80l-49 -34l-6 67l-39 -41l-37 19q-94 -215 -137 -359q-171 -12 -252 -28l39 -48l-82 -34l-10 -23l102 -10l-114 -88l51 -31l-18 -45l198 10q-69 -191 -92 -311 l68 8l8 -43l63 107l23 -84l35 43l22 -84l37 26l37 -2q66 217 125 357q159 8 231 10l62 41zM1161 662l8 -44l-106 -32l65 -58l-73 -49q-156 -4 -230 -8q-63 -150 -123 -358l-43 2l-45 -35l-20 80l-35 -43l-12 41l-76 -49l-10 41l-35 -33l-8 35l-72 -60l-20 113l-90 -12 q28 148 59 249l-55 -2l20 54l-24 14l-119 -10l30 80l-79 47l71 55l-41 4l43 109l39 14l-49 59q156 31 307 43q46 138 152 379l49 -24l88 94l10 -90l49 35l5 -41l75 98l19 -117l112 17q-37 -76 -53 -115l8 -49l78 10q-42 -88 -76 -176h47l125 -86l-63 -39l102 -60l-86 -63z " />
<glyph unicode="," horiz-adv-x="614" d="M418 281l-86 -25v49l-107 -108l-8 88l-43 -25l-8 70l-39 -19l-35 6q-49 -204 -217 -409l39 2v-41l94 94v-74l35 29l16 -24l101 79l-31 -131l18 -41q178 202 271 480zM444 166l93 27q-43 -135 -121.5 -275t-169.5 -237l-25 59l25 104q-27 -24 -117 -135l-45 111l-80 -60 l2 58l-49 -35v55l-98 -55l2 72l-107 -11q99 116 186 264.5t111 268.5l68 -12l92 45l6 -66l43 25l6 -58l96 101l21 -88l113 30q-7 -23 -52 -141v-47z" />
<glyph unicode="-" horiz-adv-x="890" d="M702 684l115 35l-6 29l-115 28l101 62l-49 32h-62q-272 0 -461 -36l39 -48l-82 -34l-10 -23l102 -10l-114 -88l51 -31l-18 -45q188 17 518 29l61 41zM825 797l113 -62l-96 -61l82 -21l8 -43l-107 -32l66 -58l-74 -49q-344 -12 -536 -31l20 54l-27 16q-106 -8 -159 -14 l32 82l-79 47l71 55l-41 4l43 109l39 14l-49 59q260 56 582 56h51l125 -86z" />
<glyph unicode="." horiz-adv-x="614" d="M397 270l-51 -30l4 73l-67 -63l-11 65l-30 -32l-23 22l-86 -86l17 139l-27 25q-100 -207 -137 -397l67 10l8 -45l64 106l22 -84l35 43l23 -84l37 27l37 -2q57 183 118 313zM461 156l63 37q-71 -144 -135 -349l-43 2l-45 -32l-20 77l-35 -41l-13 41l-75 -71l-11 61 l-41 -39l-30 35l-43 -51l-21 111l-90 -13q52 281 184 541q92 -92 136 -107l43 52l32 -58l72 64l14 -84l97 45q-16 -32 -39.5 -94t-32.5 -82l37 35z" />
<glyph unicode="/" horiz-adv-x="1009" d="M1358 1587l-27 64l-86 -54l27 99l-58 -23l-71 -69l18 108l-53 -14l12 74h-49q-93 -105 -182 -217.5t-187.5 -254t-154.5 -225t-168 -254.5q-8 -13 -61 -93.5t-66 -100.5t-59.5 -92t-64.5 -101t-58 -93t-62.5 -103t-55 -94.5t-59 -105t-51.5 -99.5l6 -41q63 21 138 71 l-11 -71l80 32l-10 -90l115 94v-86l30 9q218 392 619 987q129 192 182 269.5t162 222.5t205 251zM1438 1563l35 -80q-42 -46 -82 -93t-86 -107t-72.5 -94.5t-80 -112t-68 -98t-77 -113.5t-69.5 -103q-428 -637 -639 -1016l-49 -14l2 78l-117 -95l8 74l-73 -33l-2 37l-66 -49 l-12 55l-47 -20l-6 47l-23 -10l8 57q-36 -21 -115 -49l-18 123q73 146 177.5 320.5t168.5 273.5t201 307q116 177 173 261.5t159 230.5t193.5 261t187.5 222h133l-11 -54l54 15l-8 -55l112 34v-53l25 16l63 -149l-49 -57z" />
<glyph unicode="0" horiz-adv-x="1216" d="M887 1163q0 21 -2 31q-93 -31 -170 -182q-65 -130 -130.5 -283t-78.5 -237q-9 -58 -12 -117q116 -2 268 389q125 318 125 399zM938 1163q0 -90 -129 -418q-165 -421 -313 -421q-115 0 -115 145q0 217 221 649q102 195 221 195q57 0 86 -44.5t29 -105.5zM1282 1288 q0 146 -57.5 235t-194.5 117l-53 -24l65 -60l-88 -8l19 -75q-37 21 -90 30t-99 4l41 62l-110 26l37 41q-62 -6 -140 -54.5t-127 -102.5q-168 -183 -279 -441t-165 -538q-16 -78 -16 -150q0 -258 186 -332q118 -49 231 -49q185 0 383 168q50 43 124 154t118 194 q79 154 147 399.5t68 403.5zM1395 1186q0 -160 -67.5 -406.5t-147.5 -400.5q-43 -82 -119.5 -195.5t-126.5 -156.5q-201 -170 -389 -170q-80 0 -178 28t-148 76q-244 81 -244 391q0 78 15 158q57 291 169.5 551.5t286.5 451.5q68 74 167 121t196 47q29 0 43 -2l-45 -53 q11 -3 35.5 -11t43.5 -12.5t36 -5.5l-35 31l137 66q114 -23 184.5 -76.5t102.5 -157.5q84 -91 84 -274z" />
<glyph unicode="1" horiz-adv-x="696" d="M907 1571l-41 -15l-16 48l-80 -62l-8 119q-319 -137 -498 -264l53 -31l-71 -82l96 4l-27 -53l82 -18q-119 -222 -243 -560q-127 -346 -181 -583l31 -47l105 137l-5 -160l31 23l47 79l21 -81l39 20l8 -90l47 12q100 363 319 916q158 406 291 688zM975 1466l55 19 q-121 -248 -321 -760q-209 -536 -301 -868l-64 -17l-8 86l-37 -20l-2 8l-84 -23l-16 -12l2 84l-29 -16l-8 33l-56 -74l-14 22l-41 -32l2 110l-51 -67l-84 124q61 269 167.5 566t233.5 553l-77 18l16 33l-111 12l91 107l-66 37q228 174 637 346l6 -93l59 46l23 -68l90 16 l-53 -135l22 17z" />
<glyph unicode="2" horiz-adv-x="1026" d="M1087 1280q0 153 -118 260t-273 107q-119 0 -241.5 -51t-223.5 -134l70 -28l-41 -66l53 -16l-24 -78l108 31l-12 -62q100 66 203 66q54 0 94.5 -26t40.5 -77q0 -59 -103 -216.5t-242.5 -329.5t-267 -318t-190.5 -209l53 -8l-24 -70l88 19l-10 -70q187 -20 397 -20 q231 0 381 30l41 45l-133 27q22 48 86 100l-80 9l41 49l-21 16l23 33q-102 -10 -182 -10q-62 0 -123 6q211 251 293 358q337 438 337 633zM1200 1178q0 -48 -21 -111.5t-50.5 -123t-79.5 -137t-88 -132t-97.5 -131t-87.5 -110.5t-76 -93q84 6 170 18l-61 -88l25 -20l-15 -14 l90 -11q-33 -30 -53 -65l21 -17l-27 -32l92 -17l-92 -108l117 -23l-54 -61q-157 -31 -387 -31q-213 0 -407 23l6 53q-14 2 -41 2q-14 0 -49 -10l6 14l-72 6l6 49l-106 -24l35 98l-101 14q90 81 287.5 305.5t380.5 467.5t199 327q-100 -8 -197 -78l14 70l-110 -31l6 19 l-74 -48l23 105l-119 -33l37 117l-70 20l45 72l-92 37q130 111 276.5 181.5t290.5 70.5q139 0 257.5 -83t162.5 -214q80 -99 80 -223z" />
<glyph unicode="3" horiz-adv-x="1032" d="M1104 1341q0 95 -30.5 161t-88.5 101.5t-127.5 50.5t-161.5 15q-245 0 -391 -100l45 -47l-53 -45l72 -45l-45 -48l51 -41l-49 -63l98 4q52 38 87 50t97 12t108 -28.5t46 -86.5q0 -43 -29 -84.5t-70.5 -71.5t-97 -57.5t-99.5 -43.5t-87 -28l57 -61l-82 -27l21 -57l-53 -33 q37 -17 54.5 -26t49 -26.5t48 -34t35 -39.5t26.5 -51t8 -61q0 -67 -39.5 -119.5t-101.5 -81.5t-127.5 -43t-127.5 -14q-65 0 -145 17l21 -80l-123 -19l57 -55l-63 -37l43 -53l-72 -29l4 -18q213 -39 332 -39q361 0 563 260q119 150 119 340q0 152 -76 258q133 96 215 233.5 t82 290.5zM1217 1239q0 -153 -81 -292t-212 -234q71 -100 71 -254q0 -196 -121 -348q-209 -265 -571 -265q-139 0 -340 41l-6 33l18 8q-81 13 -151 27l-17 94l46 19l-35 45l55 32l-84 82l170 25l-31 108q122 -32 232 -32q50 0 103.5 10t107 31.5t87.5 63t34 95.5 q0 92 -89 136l5 2q-27 17 -58 32.5t-73 35t-60 28.5l96 59l-26 70l57 18l-59 66q45 13 86 25.5t108 39t114 53.5t83 64.5t35 75.5q-59 0 -94 -12.5t-87 -49.5l-124 -6l57 74l-6 6l-15 -12l-225 -10l86 112l-55 45l41 41l-76 49l63 56l-49 51q200 141 482 141q63 0 113 -5 t102 -21t90 -42t70.5 -70.5t50.5 -104.5q82 -91 82 -236z" />
<glyph unicode="4" horiz-adv-x="1232" d="M1354 1587l-72 -47l-27 41l-51 -76l-20 121l-90 -123l-25 53l-61 -59l-21 39q-91 -198 -227 -578q-212 -18 -281 -30q37 100 95 218t95 184t117 206l-79 -35l-25 60l-90 -117l-4 174l-88 -96l-31 61q-237 -410 -401 -833l71 -17l-16 -65l65 16l-20 -86q303 37 491 53 q-18 -61 -94 -282.5t-104 -345.5l31 -27l90 117l16 -99l37 29l29 -51l47 28l14 -24l43 84l31 -86q64 263 200 670l179 30l-72 49l51 37l-55 37l119 45l-54 47l25 52l-94 -9q146 403 256 635zM852 1348q-129 -232 -182 -344l53 4q55 153 129 340zM1386 1452l95 41 q-126 -249 -244 -578l84 -71l-39 -35l61 -53l-108 -39l55 -51l-63 -25l80 -55l-197 -35q-5 -14 -36.5 -109t-39.5 -119.5t-32.5 -102.5t-36.5 -120t-28.5 -105t-29.5 -120l-39 76q-19 -34 -37.5 -62t-26.5 -39l-9 -12l-56 78l-45 -55l-30 55l-68 -37l-45 37l2 68l-53 -62 l-97 82q53 225 158 514q-50 -6 -151.5 -17.5t-151.5 -17.5l16 76l-172 -20l19 75l-64 2l21 78l-80 21q181 481 475 975l39 -78l104 92l23 -115l57 72l37 -92l135 35l-69 -152l14 -39l80 35q87 195 92 207l37 -74l63 61l19 -38l88 106l41 -72l22 35l41 -61l168 82 q-50 -100 -98 -209z" />
<glyph unicode="5" horiz-adv-x="940" d="M1032 1446l76 39l-102 39l57 39l-27 18l25 45q-118 4 -180 4q-308 0 -504 -39l14 -45l94 -45l-155 -37l37 -32l-9 -39l99 -21l-86 -47q-27 -41 -54 -93.5t-43 -87t-45.5 -102t-40.5 -92.5h76l-33 -59l52 -23l-41 -51q103 -16 171 -83.5t68 -168.5q0 -106 -79.5 -186 t-186.5 -80q-58 0 -113 25l13 -31l-64 -8l39 -92l-127 26l27 -63l-49 -15l18 -69l-76 -9l17 -26q128 -86 299 -86q130 0 248 53t202.5 141t134.5 207t50 248q0 83 -24 162.5t-73 134.5q-9 10 -19 19.5t-22.5 19t-21 16t-24 16t-22.5 14t-25 15t-23 13.5q117 265 133 305 q176 39 342 39l26 32zM1130 1423l87 -45l-66 -39l45 -55l-35 -43q-174 0 -338 -37q-53 -129 -98 -225q92 -74 129 -184q92 -108 92 -297q0 -175 -85.5 -327t-234.5 -242.5t-325 -90.5q-175 0 -305 88l-6 11q-74 26 -127 63l-68 106l101 11l-17 61l41 10l-18 101l104 -27 l-26 64l63 10l-43 100q105 -57 203 -57q89 0 156 53.5t67 140.5q0 48 -26.5 86.5t-70 61.5t-89.5 36.5t-95 18.5l56 72l-41 16l18 35h-69q16 35 49 111.5t52.5 120.5t51 106t62.5 111l-27 6l12 59l-61 80l96 29l-33 108q238 49 604 49l228 -6l-29 -76l27 -24l-17 -37l86 -43 z" />
<glyph unicode="6" horiz-adv-x="1114" d="M698 575q0 48 -38.5 76t-90.5 31q-29 -56 -55.5 -137t-26.5 -133q0 -4 1 -13.5t1 -13.5q24 -18 56 -18q39 0 76 37t57 85t20 86zM750 592q0 -54 -25.5 -119.5t-75 -115.5t-106.5 -50q-73 0 -120.5 67.5t-47.5 143.5q0 69 37.5 166.5t83.5 165.5l26 -59l68 -7l-23 -43h31 q71 0 111.5 -39t40.5 -110zM1229 1419l55 6q-62 111 -157.5 173.5t-217.5 62.5q-126 0 -253.5 -64t-211.5 -163q-171 -204 -288 -493.5t-117 -539.5q0 -219 97.5 -326.5t314.5 -107.5q132 0 248.5 60t195 157.5t123.5 222t45 252.5q0 176 -109 273.5t-286 97.5 q-62 0 -121 -12q20 39 33 61.5t38 62t47 64t51 50.5t62 38.5t68 12.5q78 0 139 -101l31 43l67 -8l-57 152l123 -50v48l92 -31zM1403 1315l-60 -8l15 -64l-96 31v-47l-115 45l55 -146l-80 11l-35 -52q-27 47 -65 82l-39 -53l-53 78q-93 -10 -170 -117q120 -20 210 -89 t124 -179q82 -100 82 -250q0 -103 -28.5 -205.5t-84 -191.5t-130.5 -157.5t-173.5 -108t-206.5 -39.5q-84 0 -170 23.5t-137 72.5q-256 82 -256 450q0 261 119 555t297 510q88 107 225.5 176.5t271.5 69.5q164 0 278.5 -97.5t221.5 -299.5z" />
<glyph unicode="7" horiz-adv-x="1062" d="M1243 1497l-82 23l27 57l-74 8l27 51h-113q-340 0 -627 -43l15 -45l94 -45l-152 -35l48 -36l-21 -39l72 -21l-58 -67q150 20 275 20q30 0 92 -4q-162 -246 -266 -385l-84.5 -110.5t-92.5 -121t-81.5 -107.5t-91 -122t-79.5 -108.5t-89 -123.5l-80 -114l47 -6l-23 -66 l84 39l4 -76l80 15l-16 -72l108 66l7 -49q286 327 564 729t486 788zM1278 1425l82 -24q-219 -408 -514 -830q-282 -405 -559 -718l-6 57l-117 -70l-17 74l-137 -53v94l-47 -23v86l-115 -24l31 86q-1 3 -15 4t-38.5 1t-34.5 1q29 53 165 232t311.5 403.5t191.5 245.5 q107 141 170 239q-100 -8 -152 -16l64 74l-13 4q-64 -6 -258 -33l97 111l-56 16l29 55l-100 76l131 31l-35 112q343 50 725 50q83 0 162 -3l-29 -55l70 -6l-31 -70l84 -24l-23 -43h11z" />
<glyph unicode="8" horiz-adv-x="1220" d="M700 504q0 21 -16 67q-18 4 -47 17q-77 -41 -128.5 -101t-51.5 -135v-28q22 -11 51 -11q69 0 130.5 61t61.5 130zM883 1214q0 4 -1 11.5t-1 11.5q-57 -18 -101 -79t-49 -122q55 11 103.5 67t48.5 111zM752 502q0 -90 -77.5 -165t-168.5 -75q-74 0 -118 53.5t-44 128.5 q0 83 54.5 148.5t136.5 109.5q74 -31 145 -22q72 -99 72 -178zM932 1221q0 -84 -70 -161t-153 -77q-34 0 -56 24.5t-28.5 54t-6.5 62.5q0 77 60.5 154.5t134.5 77.5q53 0 86 -40t33 -95zM1266 1323q0 122 -62.5 225t-175.5 121l-35 -31l74 -69h-92l24 -66q-102 31 -206 31 l49 55l-109 27l35 41q-86 -1 -158.5 -33t-125 -87.5t-89 -125t-57.5 -151.5q-19 -78 -19 -125q0 -85 46 -197q-151 -70 -250 -207.5t-99 -296.5q0 -87 25 -172.5t83.5 -158t139.5 -95.5q135 -37 264 -37q152 0 272.5 69.5t223.5 199.5q104 129 104 282q0 177 -114 316 q120 91 186 215t66 270zM1378 1221q0 -141 -64.5 -268t-178.5 -216q5 -16 8 -20q52 -87 75 -150.5t23 -146.5q0 -158 -106 -289q-105 -131 -227 -201.5t-277 -70.5q-106 0 -213.5 23t-165.5 77q-71 18 -128 69t-90.5 120t-51 143t-17.5 145q0 165 92.5 304.5t243.5 224.5 q-33 87 -33 168q0 60 21 139q55 209 193 321.5t352 112.5h43l-52 -59q4 -1 31.5 -7.5t53.5 -13t28 -6.5l-20 20l94 82q98 -13 169.5 -76t106.5 -159q90 -106 90 -266z" />
<glyph unicode="9" horiz-adv-x="1089" d="M768 1157q0 32 -6 62q-80 -25 -129 -99t-55 -162q41 -14 90 -14q25 0 71 4q29 123 29 209zM819 1149q0 -60 -22.5 -180.5t-48.5 -149.5q-8 -9 -54 -28l-6 38l-65 23q37 18 53 37h-31q-75 0 -127.5 38.5t-52.5 110.5q0 66 28 133.5t83.5 116.5t123.5 49q44 0 72 -32.5 t37.5 -72t9.5 -83.5zM1163 1231q0 72 -14 138t-43.5 127t-83.5 103t-127 54q-49 8 -115 8q-177 0 -328 -101.5t-236 -262t-85 -334.5q0 -204 104 -301t310 -97q63 0 94 4q-149 -268 -317 -268q-54 0 -164 41l2 -55l-68 2v-49l-72 4l46 -74l-64 -23l53 -53l-59 -37 q113 -84 287 -84q110 0 216 40t191 112q133 115 243 310t170 406t60 390zM1276 1128q0 -182 -60 -394t-171 -407.5t-246 -312.5q-84 -73 -192.5 -113t-221.5 -40q-185 0 -305 100q-80 28 -174 105l67 38l-47 60l64 33l-47 96l98 2v47l65 -2l-2 82q172 -70 218 -70 q92 0 184 113q-95 19 -166 78q-141 48 -200.5 154.5t-59.5 265.5q0 141 55 277t147 240t223.5 168t274.5 64q134 0 225 -41t146 -149q5 -10 14.5 -32t14.5 -32q5 -9 16.5 -26.5t13.5 -20.5q66 -113 66 -283z" />
<glyph unicode=":" horiz-adv-x="614" d="M397 270l-51 -30l4 73l-67 -63l-11 65l-30 -32l-23 22l-86 -86l17 139l-27 25q-100 -207 -137 -397l67 10l8 -45l64 106l22 -84l35 43l23 -84l37 27l37 -2q57 183 118 313zM612 1036l-69 -10l-8 49l-80 -104l-9 80l-49 -35l-6 67l-39 -41l-37 19q-95 -198 -127 -320 l45 17l9 -53l73 67l11 -65l30 32l23 -24l63 41l4 -86l25 4q50 168 141 362zM461 156l63 37q-71 -144 -135 -349l-43 2l-45 -32l-20 77l-35 -41l-13 41l-75 -71l-11 61l-41 -39l-30 35l-43 -51l-21 111l-90 -13q52 281 184 541q92 -92 136 -107l43 52l32 -58l72 64l14 -84 l97 45q-16 -32 -39.5 -94t-32.5 -82l37 35zM653 936l78 10q-102 -216 -149 -385l-43 -4l-4 78l-56 -35l-20 21h-2l-35 -39l-27 55l-39 -35l-26 31l-37 -41l-14 78l-74 -47l-12 67l-74 -24q50 220 172 462l49 -24l88 74l10 -70l49 35l5 -41l75 57l19 -76l112 -4 q-38 -59 -53 -94z" />
<glyph unicode=";" horiz-adv-x="614" d="M418 281l-86 -25v49l-107 -108l-8 88l-43 -25l-8 70l-39 -19l-35 6q-49 -204 -217 -409l39 2v-41l94 94v-74l35 29l16 -24l101 79l-31 -131l18 -41q178 202 271 480zM608 1036l-69 -10l-9 49l-79 -104l-9 80l-49 -35l-6 67l-39 -41l-37 19q-95 -198 -127 -320l45 17 l9 -53l73 67l11 -65l30 32l23 -24l63 41l4 -86l25 4q50 168 141 362zM444 166l93 27q-43 -135 -121.5 -275t-169.5 -237l-25 59l25 104q-27 -24 -117 -135l-45 111l-80 -60l2 58l-49 -35v55l-98 -55l2 72l-107 -11q99 116 186 264.5t111 268.5l68 -12l92 45l6 -66l43 25 l6 -58l96 101l21 -88l113 30q-7 -23 -52 -141v-47zM653 936l78 10q-102 -216 -149 -385l-43 -4l-4 78l-56 -35l-20 21h-2l-35 -39l-27 55l-39 -35l-26 31l-37 -41l-14 78l-74 -47l-12 67l-74 -24q50 220 172 462l49 -24l88 74l10 -70l49 35l5 -41l75 57l19 -76l112 -4 q-38 -59 -53 -94z" />
<glyph unicode="&#x3c;" horiz-adv-x="966" d="M1325 1663l2 35q-66 -12 -184 -70l22 70l-49 -15l23 78l-154 -75l23 77l-31 -2q-95 -86 -367 -358q-318 -318 -481 -500l59 -53l-45 -31l45 -37l-55 -43q208 -567 320 -862l32 45l52 -26l4 90l80 -101l10 23l8 135l74 -76l43 4q-208 524 -303 869q410 405 493 485 q246 234 379 338zM1442 1610l-4 -56q-24 -18 -49 -38.5t-44.5 -36.5t-47.5 -41t-43 -38.5t-46 -42.5t-42.5 -39.5t-46 -43.5t-42.5 -41q-258 -246 -510 -498q108 -384 305 -876l-61 -4l-59 61l-31 -135l-62 65l-10 -69l-59 30l-37 -55l-35 96l-16 9l-62 -93 q-72 194 -207.5 559.5t-160.5 434.5l34 26l-47 37l47 35l-53 37q156 177 512 537q285 285 391 380l121 13l-12 -41l133 55l-8 -80l53 15l-18 -54q41 23 157 49l-8 -131l-112 -92q100 51 180 66z" />
<glyph unicode="=" horiz-adv-x="1064" d="M807 530l115 37l-7 27l-114 29l100 63l-49 31q-149 -1 -231 -3t-208.5 -12.5t-228.5 -29.5l39 -47l-82 -33l-10 -25l102 -10l-114 -88l51 -29l-18 -47q287 23 663 37l62 41zM903 1014l115 88l-51 31l18 47q-15 0 -45 1t-45 1q-284 0 -573 -41l-62 -39l70 -62l-115 -34 l4 -29l117 -29l-100 -61l47 -33q389 44 665 49l-35 43l82 35l11 25zM1081 1034l58 -33l-107 -81l90 -9l-16 -41l-74 -30l41 -49q-224 -2 -565 -35q178 12 360 12l125 -84l-63 -41l31 -6l2 -14l59 -41l-76 -62l82 -20l8 -43l-106 -33l65 -57l-73 -50q-365 -13 -682 -38l20 53 l-27 16l-157 -12l30 82l-79 45l71 55l-41 4l43 109l39 14l-49 60q123 26 289 40l-60 39l43 27l-92 -10l-129 88l64 39l-29 8l-20 104l71 23l-51 43l127 84q287 41 610 41q97 0 146 -2l-29 -74l80 -47z" />
<glyph unicode="&#x3e;" horiz-adv-x="983" d="M887 840l71 59q-6 18 -40 114.5t-44 126t-38 112t-41.5 126.5t-35 113t-38 128t-31.5 118l-37 -47l-49 41l10 -138l-59 52l-6 -46l-31 3l-8 -117l-104 139l-15 -18q30 -132 115.5 -375.5t114.5 -358.5q-40 -48 -79 -97t-82 -107t-72.5 -97.5t-78 -110t-69.5 -100.5 t-75.5 -111.5t-67.5 -101t-74.5 -112.5t-69.5 -105l70 -6l-5 -43l142 92l-6 -77l39 16l-21 -88l53 18l21 -22q123 226 282 442.5t367 462.5l-41 55l64 21zM1073 793l-69 -58l32 -43l-63 -20l37 -49q-214 -252 -376 -472.5t-284 -449.5l-26 27l-66 -23l-47 78l-113 -41 q13 51 15 70l-97 6l-55 -35l6 94l-104 10q36 54 130 196.5t143.5 216.5t129 188.5t151.5 210.5t146 186q-27 99 -111.5 346.5t-115.5 386.5l70 90l63 -82l2 33l35 -4l12 88l37 -29l20 92l70 -43l70 92q26 -108 61 -225l21 29q20 -85 43.5 -168.5t58 -189t52 -157t65 -187 t57.5 -164.5z" />
<glyph unicode="?" horiz-adv-x="1046" d="M571 342l-51 -31l4 64l-71 -101l-13 72l-30 -33l-21 23l-74 -76l4 129l-26 25q-105 -215 -146 -396l80 37l9 -49l59 80l20 -82l37 43l23 -84l35 27l39 -2q46 192 122 354zM1178 1305q0 163 -112.5 277t-274.5 114q-119 0 -241.5 -51t-223.5 -134l69 -28l-41 -66l54 -16 l-25 -78l109 31l-13 -62q106 68 209 68q58 0 100.5 -27t42.5 -82q0 -22 -6 -43q-68 -223 -432 -313l-74 -61l105 -43l-53 -39l82 -13l-95 -94h131l-26 -63q238 62 426.5 219.5t265.5 378.5q23 67 23 125zM1290 1204q0 -67 -22 -131q-79 -222 -263.5 -378.5t-422.5 -221.5 l-4 -70l98 29q-46 -94 -88 -196l51 71l10 -63l49 20q-90 -176 -139 -389l-43 2l-45 -33l-22 78l-35 -41l-11 39l-71 -43l-8 55l-54 -36l-28 32l-41 -34l-13 88l-112 -54q63 303 200 568l89 -66l6 -41l18 21l21 -21l63 70l10 -53l92 126h-104q-14 0 -94 -24l35 86l-140 20 l72 91l-68 14l43 59l-98 41l150 123q69 17 124.5 37t115.5 52.5t102.5 81.5t62.5 110q4 16 4 24q-107 -6 -213 -80l15 70q-20 -1 -41 -5t-37 -8t-46.5 -12t-54.5 -14l23 84l-119 -33l37 117l-70 20l45 72l-92 37q130 111 277 181.5t291 70.5q122 0 225.5 -63.5t157.5 -172.5 q5 -9 12 -28.5t12 -28.5t17.5 -25.5t17.5 -25.5q53 -86 53 -199z" />
<glyph unicode="@" horiz-adv-x="1685" d="M901 813q-89 -125 -102 -285l26 19q70 247 76 266zM1016 989q-21 -53 -42 -118.5t-34 -109.5t-36 -125.5t-32 -113.5q-23 -29 -59 -45t-74 -16q-30 0 -41.5 43t-11.5 86q0 41 15 106.5t40 133.5t66.5 116.5t87.5 48.5q21 0 61 -3t60 -3zM1694 1094q0 117 -55 234 t-154 202.5t-215 103.5q-86 13 -199 13q-186 0 -348 -60t-281.5 -166.5t-206 -248.5t-129.5 -309.5t-43 -346.5q0 -114 26 -217t78 -190.5t140 -148t203 -79.5l53 25l-63 59l86 6l-17 72l70 -6l-29 45q-66 11 -119 44t-87.5 79t-57.5 105t-33 119.5t-10 123.5q0 169 82 374 t201 310q96 84 222.5 133t252.5 49q169 0 280 -109.5t111 -277.5q0 -49 -26.5 -145.5t-67 -196t-97.5 -174t-110 -74.5q-29 0 -45 19q32 117 94.5 331.5t85.5 294.5l-57 -10l-15 58h-63l63 82q-65 53 -192 53q-46 0 -92 -6q-112 -18 -208 -99.5t-156 -193.5t-94 -234.5 t-34 -232.5q0 -59 13 -110.5t40 -94.5t74 -67.5t109 -24.5q79 0 219 104l-16 -65q18 -47 51.5 -64.5t87.5 -17.5q97 0 189.5 44.5t165.5 119t134.5 171t102.5 200t63.5 206t22.5 189.5zM1401 1026q0 75 -27.5 144.5t-81.5 117.5q-58 19 -149 19h-15q89 -22 154 -84l-27 -37 l7 -29q17 -5 34 -16l62 10l-33 -113l14 -51l60 10q2 10 2 29zM1806 991q0 -89 -22.5 -192.5t-63.5 -208.5t-103.5 -202t-136.5 -172t-168.5 -120t-193.5 -45q-100 0 -135 64q-45 3 -80 20q-70 -41 -127 -41q-103 0 -170 70q-57 12 -102.5 45.5t-71.5 83.5l17 -57 q69 -87 192 -107q54 -86 100 -186l-57 -13l18 -69l-77 -6l59 -54l-70 -34q-110 18 -176 59q-6 3 -20 14t-23 15q-13 7 -41 19.5t-41 19.5q-79 44 -138.5 114.5t-94 154.5t-51.5 172.5t-17 180.5q0 188 45.5 363t136 323.5t216.5 259.5t296 173.5t365 62.5q131 0 218 -15.5 t160.5 -59.5t128.5 -113t116 -185q4 -7 18.5 -35.5t19 -37t16.5 -34t16.5 -37t13.5 -34t12 -38t8 -36.5t6.5 -41t1.5 -41z" />
<glyph unicode="A" horiz-adv-x="1167" d="M776 1083h23q-59 -250 -80 -497q-32 4 -47 4q-37 0 -103 -11.5t-96 -13.5q31 53 90 165t109 196.5t104 156.5zM1151 1587l-31 21l-78 -92l-16 65l-63 -61l-23 92l-94 -113l-29 115l-26 22q-274 -333 -527 -762.5t-430 -848.5l90 38v-49l115 125l10 -78l45 43l8 -81l43 26 h43q20 36 59 108.5t58 108.5q34 3 149 20t179 17q42 0 65 -2q-4 -118 -4 -176q0 -53 2 -80l56 -43l43 111l32 -127l37 51l29 94l37 -98l31 51l34 -88l41 22q1 183 14 401t27 375.5t38.5 409.5t35.5 383zM1221 1520l43 -31q-11 -133 -35.5 -386t-38.5 -411.5t-27 -377.5 t-14 -404l-55 -33l-33 82l-31 -51l-16 39l-43 -25l-27 -43l-49 98l-37 -94l-74 62l-10 -25l-129 98q-2 55 -2 166q-153 -24 -229 -30q-20 -36 -59 -108.5t-58 -108.5h-45l-55 -35l-9 78l-45 -43l-6 47q-21 -10 -51 -35t-50 -45l-20 -19v60l-59 -23l-18 33l-86 -53l20 84 l-135 -60q192 462 472.5 946.5t573.5 835.5l78 -66l8 -32l97 92l24 -84l64 59l12 -51l43 51l94 -65l-12 -125z" />
<glyph unicode="B" horiz-adv-x="1183" d="M692 489q0 11 -4 31q-86 -24 -129 -26q-32 -72 -61 -156q68 5 131 47t63 104zM743 485q0 -61 -45.5 -108.5t-106.5 -69.5t-120 -22q-2 0 -137 6q65 198 117 315q99 3 208 53q84 -88 84 -174zM918 1233q0 -40 -35 -100q-125 -195 -299 -195q3 9 17 43.5t18.5 46t17.5 43 t19.5 46t18.5 42t21 45t20.5 41t23.5 44t24 40.5q28 4 43 4q49 0 80 -26t31 -74zM1247 1303q0 127 -62.5 226t-180.5 120q-59 10 -148 10q-198 0 -407 -55l40 -48l-51 -43l78 -55l-149 -45l22 -29l-57 -63l80 -29l-82 -41q-66 -128 -152 -360q-115 -313 -246 -739l50 -39 l77 139l29 -100l41 47l78 -88l-74 -35l47 -51l-69 -29l6 -19q166 -18 274 -18q197 0 349 59.5t266 200.5q104 129 104 283q0 174 -115 315q120 91 186 215.5t66 270.5zM1360 1200q0 -141 -65 -267.5t-179 -215.5q6 -18 8 -21q52 -88 75.5 -151t23.5 -146q0 -156 -107 -288 q-116 -144 -269 -204.5t-353 -60.5q-104 0 -283 19l-10 35l37 14q-62 5 -162 16l-25 93l-28 24l22 70l-2 4l-47 -86l-123 100q6 18 38 123.5t41.5 135t39.5 125.5t44.5 137t43 125t49 135t48.5 121t55.5 129t56.5 116l-47 16l80 88l-43 56l122 37l-49 32l64 52l-60 67 q279 80 506 80q80 0 139.5 -10t113.5 -36.5t93 -76.5t64 -125q88 -107 88 -262z" />
<glyph unicode="C" horiz-adv-x="987" d="M1219 1419l55 6q-62 111 -157.5 173.5t-217.5 62.5q-130 0 -267 -71.5t-218 -176.5q-180 -229 -287 -497t-107 -535q0 -201 100 -307.5t302 -106.5q189 0 414 185l30 53l-67 -19l14 68l-43 -12l23 88l-115 -68l35 96l-58 -14l9 27q-81 -70 -156 -70q-52 0 -85 37.5 t-43.5 83t-10.5 96.5q0 121 75.5 309t157.5 308q28 41 46 64t47.5 52t64 42.5t74.5 13.5q46 0 78.5 -27t62.5 -74l31 43l79 -6l-55 127l113 -53l10 57l78 -16zM1393 1315l-60 -8l15 -64l-84 17l-11 -62l-100 49l51 -119l-92 9l-35 -52q-31 53 -65 82l-39 -53l-53 80 q-64 -6 -131 -71.5t-120.5 -162t-97 -204.5t-67 -205.5t-23.5 -157.5q0 -18 23 -18q97 0 235 129l-4 -86l37 14v-55l82 41l-12 -105l20 11l4 -66l76 6q-8 -17 -22.5 -54t-22.5 -54l33 8l-15 -66l72 21l-41 -78q-226 -186 -422 -186q-81 0 -164.5 24t-136.5 72 q-254 84 -254 430q0 274 110 549.5t294 513.5q88 113 235 190.5t285 77.5q92 0 170 -31.5t138.5 -90t105 -124t86.5 -151.5z" />
<glyph unicode="D" horiz-adv-x="1202" d="M883 1178q0 37 -4 53l-13 -2q-39 -64 -79.5 -148.5t-60.5 -132.5t-65 -165t-55 -142q-18 -44 -100 -264q70 21 142 122.5t122 228t81.5 251.5t31.5 199zM934 1174q0 -67 -22.5 -172.5t-66.5 -223.5t-100 -221t-131 -170.5t-151 -67.5q-56 0 -109 56q81 224 140 373 q9 24 56 144t66.5 167t60.5 132t81 150q35 5 45 5q131 0 131 -172zM1280 1272q0 342 -221 383q-66 12 -205 12q-166 0 -395 -35l39 -45l-52 -41l78 -55l-149 -45l22 -31l-57 -63l76 -27l-78 -53q-203 -437 -406 -1061l33 -29l94 60l-10 -72l101 2l-56 -72l58 -32l-43 -39 q169 -58 299 -58q117 0 226 47.5t194.5 128.5t159.5 188.5t127 227.5t90.5 245.5t56 243.5t18.5 220zM1393 1169q0 -103 -18.5 -222t-57 -245.5t-92 -247.5t-128.5 -229t-162 -189.5t-197 -129t-228 -47.5q-146 0 -320 63l29 25q-46 10 -188 61l35 49l-48 29l11 33h-41l4 18 l-33 -20l-84 78q221 689 422 1112l6 4l-53 18l80 90l-41 54l121 36l-50 35l64 49l-64 76q280 49 504 49q53 0 83.5 -1t76.5 -5t74 -12.5t63 -25t58 -40t45 -59.5t36 -82q93 -105 93 -324z" />
<glyph unicode="E" horiz-adv-x="901" d="M1065 1466l70 27l-80 33l41 41l-29 20l25 45h-84q-337 0 -576 -47l14 -45l95 -45l-154 -37l35 -35l-8 -39l98 -20l-84 -47q-122 -192 -262 -535q-153 -372 -244 -704q36 -5 90 -27l-24 -76q147 -18 297 -18q218 0 374 45l39 47l-120 21l84 73l14 25l-115 10l70 47l-23 25 l23 26q-120 -10 -215 -10q-59 0 -90 6q47 138 155 392l340 22l35 41l-61 45l49 27l-68 45l121 35l-90 34l57 48l-33 24l-202 12q17 38 71 148t78 172q136 43 305 43l23 49zM1169 1530l64 -39l-57 -64l49 -36l-41 -31l35 -53l-27 -60q-176 0 -303 -41q-21 -51 -78 -168l39 -4 l98 -73l-41 -31l109 -60l-86 -55l61 -41l-69 -31l43 -49l-50 -26l60 -43l-45 -52l-340 -22q-63 -148 -96 -232q103 5 256 19l-72 -86l-8 -33l88 -6l-33 -66l45 -12l-55 -37l82 -14q-46 -76 -95 -111l119 -20l-53 -62q-165 -47 -381 -47q-156 0 -309 21l14 49q-84 6 -166 18 q4 19 23 88q-27 7 -94 7q87 321 254 743q148 370 272 569l-27 7l13 61l-64 78l98 28l-32 111q279 57 725 57h80l-41 -77l63 -41z" />
<glyph unicode="F" horiz-adv-x="878" d="M1094 1448l51 31l-90 37l61 43l-26 16l24 45q-16 0 -49 1t-49 1q-372 0 -602 -45l14 -43l94 -45l-153 -37l34 -35l-8 -39l99 -20l-84 -47q-135 -230 -278 -597.5t-202 -633.5l37 -66l92 148l-4 -158l84 76l11 -78l40 41l11 -90l43 31q47 264 217 657l342 23l35 41l-60 45 l45 26l-65 43l123 49l-80 35l43 35l-31 25l-203 12q125 284 144 330q170 40 352 43l22 49zM1178 1415l92 -37l-60 -37l31 -47l-27 -59q-175 0 -350 -41q-43 -102 -78 -178l45 -4l97 -72l-29 -22l94 -50l-69 -65l65 -37l-90 -45l47 -49l-47 -27l55 -41l-45 -53l-338 -23 q-170 -389 -215 -653l-61 -43l-8 86l-43 -39l-4 39l-78 -43l-15 57l-34 -24l-9 41l-34 -55l-21 32l-45 -28v79l-39 -61l-90 154q60 279 202 647t285 616l-26 6l12 62l-63 78l98 28l-37 107q289 57 721 57q86 0 129 -2l-39 -74l53 -30l-49 -35l96 -41z" />
<glyph unicode="G" horiz-adv-x="1183" d="M735 569q-41 3 -78 9l-94 71l35 29l-41 12q-2 -5 -12.5 -33t-14 -37t-12.5 -35t-12.5 -39t-10 -36t-9 -39t-5 -35.5t-2.5 -36.5q0 -27 2 -39q15 -6 33 -6q37 0 71 20.5t64 59t46.5 66t39.5 69.5zM1221 1419l55 6q-62 111 -157.5 173.5t-217.5 62.5q-121 0 -240.5 -54.5 t-195.5 -146.5q-172 -206 -308.5 -524t-136.5 -561q0 -289 199 -367q117 -45 223 -45q206 0 416 187q33 29 61.5 59.5t54 65t45.5 62.5t41.5 69t35 67.5t33.5 73.5t30 71.5t31 78t31 77.5l-21 12h-96l41 70l-62 -2l17 90l-412 -20l-35 -39l64 -41l-51 -31l69 -47l-110 -37 l80 -33l-60 -47l33 -24q55 -7 143 -7q-7 -13 -24.5 -45t-29 -52t-31 -51.5t-35.5 -52t-39 -45t-44.5 -38.5t-48 -23.5t-53.5 -9.5q-73 0 -111 61.5t-38 139.5q0 97 79 298.5t146 309.5q26 42 46 70t51.5 61t69 49.5t79.5 16.5q45 0 76.5 -27t62.5 -74l31 43l79 -6l-55 129 l107 -45l2 64l92 -31zM1395 1315l-60 -8l-6 -43l-76 10l-2 -64l-98 41l33 -102l-72 -12l-35 -52q-27 47 -65 82l-39 -53l-53 78q-39 -4 -75.5 -24.5t-66.5 -56t-51 -66t-43 -70.5l477 22l-18 -90l90 2l-33 -57l82 -59l-41 -99h62l30 -18q-11 -26 -40 -99.5t-41.5 -103 t-39.5 -91t-48.5 -96t-53 -82.5t-67.5 -87.5t-78 -77.5q-216 -189 -422 -189q-81 0 -174 26.5t-146 74.5q-256 87 -256 424q0 169 68 383.5t170.5 404.5t216.5 328q82 98 212.5 159.5t258.5 61.5q285 0 461 -330h-4q35 -50 43 -67z" />
<glyph unicode="H" horiz-adv-x="1198" d="M1458 1608l-78 -68l-30 43l-54 -61l-18 104l-109 -149l-8 75l-57 -55l-21 39q-91 -198 -227 -578q-65 -5 -287 -47q6 17 30.5 83.5t33 89t31 81.5t34.5 88t34 80.5t39 86.5t39 78.5t44 82.5v4l-100 -90l-25 64l-88 -113l-2 184l-129 -135l-31 61q-57 -100 -113.5 -224 t-91.5 -212t-90 -233q-197 -522 -290 -879l57 31l16 -39l82 133l12 -121l54 49l35 -45l61 86l16 -104l23 14q10 37 22 78t21 70.5t26 79.5t23.5 69.5t28.5 79t25.5 69.5t29.5 79t27 71q189 34 303 43q-15 -51 -88.5 -267t-100.5 -337l31 -18l92 104l12 -100l39 33l23 -37 l67 71l9 -84l39 29l24 -37q84 354 275 897q165 469 280 703zM1575 1530l2 -17q-54 -107 -109.5 -242t-87.5 -221.5t-90 -250.5q-200 -571 -280 -920l-31 49l-53 -53l-37 59l-25 -24l-22 37l-45 -37l-9 76l-20 4l-66 -76l-40 23l-9 77l-45 -49l-98 55q56 240 145 492l-94 -16 q-142 -375 -199 -592l-38 -25l-17 94l-55 -75l-29 36l-67 -45l-31 76l-55 -88l-45 55l-62 -36l-37 73l-110 -57q108 429 325 997q184 485 340 754l41 -80l146 152l22 -144l53 68l31 -76l100 88l37 -94q-37 -61 -67 -125l16 -41l101 88l8 -20q-102 -176 -215 -480l65 9 q127 356 262 647l37 -74l82 80l6 -47l84 119l39 -97l27 29l35 -49l90 74l37 -80l-58 -123l25 -35z" />
<glyph unicode="I" horiz-adv-x="641" d="M881 1612l-21 28q-56 -39 -137 -155l-10 90l-60 -55l-4 116l-98 -114l-21 63l-28 -18q-128 -218 -291 -645q-199 -527 -274 -848l30 -41l105 129l-6 -164q39 29 90 113l4 -103l45 41l8 -94l47 12q96 343 313 907l18 48q171 440 273 654q8 18 17 36zM965 1552l28 -43 q-20 -42 -41 -87.5t-37.5 -82.5t-38.5 -89.5t-35 -83.5t-36.5 -90.5t-33 -84.5t-35.5 -91.5t-34 -86.5q-235 -607 -331 -956l-64 -17l-8 86l-2 -2l-43 -41l-2 29l-96 -41l2 66l-45 -43l-2 71l-82 -65l-15 108l-47 -57l-86 110q69 316 283 879q56 147 90.5 232t93.5 212 t115 220l96 61l12 -39l103 103l26 -97l52 47l8 -65q35 49 112 100l68 -98l-80 -172q44 69 105 108z" />
<glyph unicode="J" horiz-adv-x="956" d="M1251 1604l-32 24l-76 -76l-13 50l-69 -80q0 4 1 13t1 13q0 62 -19 109l-104 -160l-10 150l-60 -33q-56 -124 -106 -252.5t-122.5 -330.5t-92.5 -257q-11 -30 -38 -107t-49 -131t-48 -102q-63 -121 -205 -121q-63 0 -129 29l12 -31l-63 -8l39 -92l-127 27l34 -111l-55 8 l17 -65l-76 -9l16 -26q137 -92 340 -92q111 0 210.5 34.5t166.5 108.5q43 48 86 130.5t72 160.5q294 780 499 1227zM1319 1538l47 -33q-202 -437 -504 -1233q-83 -212 -157 -295q-70 -75 -171.5 -111t-214.5 -36q-208 0 -346 94l-8 10q-67 24 -125 64l-47 86l80 31l-2 63 l31 12l-17 95l99 -4l-27 63l63 10l-22 80q103 -57 225 -57q99 0 144 78q22 39 45 94.5t55 145t37 102.5q23 61 95.5 262.5t124 333.5t107.5 258l144 80l4 -80l104 108l19 -114l55 63l14 -55l41 43l103 -76l-66 -145l2 -5z" />
<glyph unicode="K" horiz-adv-x="1163" d="M1503 1536l-6 33q-63 -12 -154 -49l5 51l-74 -31l41 100l-150 -77l31 73l-39 -2q-268 -237 -481 -450q16 36 55.5 130t70 160.5t62.5 127.5l-30 -15l-15 53l-82 -102l-28 68l-37 -41l-19 37l-75 -66l14 139l-41 -2q-195 -384 -365 -848q-169 -461 -245 -825l59 35l18 -58 l86 127l19 -92l35 35l18 -80l35 27l37 -2q41 157 60.5 228t63 195t89.5 218l266 -658l27 70l57 -59l16 47l62 -64l20 35l-4 129l70 -76l49 2q-150 491 -281 795q441 438 760 682zM1608 1479l10 -52q-356 -273 -760 -677q142 -335 283 -803l-68 -2l-53 59l2 -104l-29 -50 l-59 62l-16 -47l-58 59l-31 -39l-57 68l-47 -115l-215 539q-77 -203 -152 -498l-41 2l-45 -35l-18 78l-35 -37l-8 41l-92 -75l-27 63l-88 -53l-33 96l-104 -61q90 441 264.5 923.5t388.5 900.5l127 7l-6 -70l27 22l16 -28l43 47l25 -62l92 115l28 -84l68 -4 q-76 -154 -90 -199l76 95l14 -54q25 22 92.5 84.5t104.5 94.5l118 34l9 -49l133 58l-29 -95l37 15l-4 -56q53 21 137 39l21 -119l-101 -79v-2q103 38 150 47z" />
<glyph unicode="L" horiz-adv-x="819" d="M905 1626l-18 29q-56 -34 -135 -125l-9 72l-55 -43v94l-100 -133l-8 90l-35 -19q-34 -53 -65 -109t-64.5 -127t-51.5 -110.5t-57.5 -131t-50.5 -116.5q-126 -290 -210.5 -505.5t-147.5 -432.5l104 -18l-18 -92q120 -12 241 -12q230 0 391 47l41 53l-75 14q38 58 75 88 l-98 17l45 39l-55 16l47 39q-59 -6 -176 -6h-92q113 321 325 823q172 404 252 559zM991 1567l29 -43q-88 -172 -223 -488q-198 -465 -299 -739l241 4l-86 -68l56 -16l-33 -29l94 -16l-74 -68l107 -41q-81 -75 -101 -108l76 -14l-53 -70q-164 -47 -399 -47q-126 0 -252 12 l10 53q-41 2 -160 15l17 96l-109 16q65 232 155 464.5t220 533.5q8 19 37.5 87.5t41 94.5t37.5 85t43.5 93.5t42 83.5t49 90.5t50.5 81.5l117 58l2 -31l94 108l18 -100l45 35l7 -58q28 36 108 87l66 -101q-62 -123 -74 -147q46 53 100 86z" />
<glyph unicode="M" horiz-adv-x="1568" d="M1802 1587l-65 -33l-27 39l-68 -59l-8 82l-71 -113l-25 53l-84 -71l-6 55q-166 -152 -317 -324.5t-347 -416.5l27 786l-57 -76l-31 50l-92 -166l-25 235l-88 -133l-37 59q-147 -294 -344 -792q-179 -453 -266 -754l41 21l27 -39l90 141l14 -137l43 37l16 -27l68 100 l12 -104l25 14q90 312 276 699l21 4v-105q0 -340 33 -608l22 6q198 295 551 703l27 8q-144 -293 -197 -686l18 -23l99 127l2 -96l26 23l25 -50l57 68l9 -100l43 55l26 -37q181 546 273 819q13 37 62.5 185t72 211.5t65.5 173t84 196.5zM1843 1464l84 43q-27 -51 -51.5 -106 t-48.5 -119t-39.5 -107.5t-42 -121.5t-37.5 -111q-73 -208 -203.5 -603.5t-152.5 -459.5l-31 41l-51 -65l-33 73l-27 -32l-14 30l-57 -61l-13 92l-77 -49l-15 45l-24 -23l-2 64l-50 -64l-71 90q16 119 39 230q-157 -197 -258 -350l-37 -13l-13 119l-26 -39l-98 -33 q-21 159 -31 371q-101 -249 -144 -401l-43 -23l-10 92l-61 -90l-19 31l-49 -43l-8 80l-29 -41l-16 27l-59 -78l-25 57l-53 -33l-51 80l-105 -51q92 338 297 860q221 559 389 887l43 -70l103 146l43 -174l53 96l39 -60l90 103l10 -273l68 86l-17 -483q164 195 298.5 341 t279.5 271l8 -55l61 53l15 -30l80 119l32 -91l48 31l22 -49l127 22q-20 -39 -32 -78t-25 -69z" />
<glyph unicode="N" horiz-adv-x="1196" d="M1456 1597l-94 -53l-8 64l-41 -39l-17 67l-96 -127l-8 74l-43 -41l-31 31q-160 -387 -272 -774l-21 -8l-61 798l-64 -78l-28 48l-80 -132l-12 201l-111 -133l-31 61q-126 -225 -288 -655q-195 -516 -295 -893l57 31l14 -45l78 106l21 -108l43 39l24 -31l58 106l18 -108 l22 14q18 71 43 150.5t44 136t55 151t51.5 133.5t59.5 149.5t55 137.5l22 7q16 -471 86 -857l41 21l49 102l27 -112l31 37l26 -52l47 58l27 -29l33 53l33 -86q183 577 260 815q9 26 48 148.5t55 169.5t49 141.5t62.5 167t61.5 143.5zM1473 1458l108 62q-32 -64 -64 -144 t-50 -131t-52.5 -155.5t-46.5 -139.5q-68 -204 -179 -570t-147 -480l-55 73l-65 -104l-23 49l-18 -22l-27 51l-35 -41l-14 61l-35 -43l-10 29l-17 -33l-43 -16l-22 94l-111 -49q-41 219 -69 530q-8 -21 -35.5 -91.5t-38.5 -99.5t-33 -90.5t-35 -101t-28.5 -92.5t-26.5 -100 l-39 -25l-14 94l-51 -94l-27 35l-49 -43l-10 53l-21 -18l-14 33l-51 -68l-13 41l-20 -18l-21 34l-61 -45l-29 82l-104 -53q112 444 323 997q186 491 340 756l39 -78l125 133l29 -127l39 62l35 -56l100 82l18 -227l49 59l29 -368q108 307 197 518l51 -49l82 76l4 -48l84 109 l20 -84l54 49l8 -88l131 53q-21 -42 -36.5 -100.5t-29.5 -93.5z" />
<glyph unicode="O" horiz-adv-x="1177" d="M877 1163q0 16 -3 31q-91 -31 -169 -182q-62 -120 -129 -278.5t-80 -241.5q-11 -75 -11 -123q36 -2 79.5 44.5t82 121t63 128t42.5 101.5q125 318 125 399zM928 1163q0 -90 -129 -418q-17 -45 -36 -90t-52.5 -109.5t-67 -112t-76.5 -82t-84 -34.5q-60 0 -85 44t-25 110 q0 57 10 125q13 84 79 239t130 283q102 195 221 195q57 0 86 -44.5t29 -105.5zM1272 1288q0 146 -57.5 235t-194.5 117l-53 -24l71 -68h-92l17 -55q-85 15 -197 12l49 64l-80 24l13 39q-167 -41 -273 -153q-168 -180 -278.5 -432t-161.5 -523q-15 -74 -15 -151 q0 -193 103 -298.5t295 -105.5q198 0 397 168q50 41 123.5 152t118.5 196q79 154 147 399.5t68 403.5zM1384 1186q0 -160 -67.5 -406.5t-147.5 -400.5q-43 -83 -119 -196t-126 -156q-201 -170 -404 -170q-76 0 -160 25.5t-135 70.5q-139 50 -197.5 156.5t-58.5 263.5 q0 83 15 162q55 283 167 537t285 441q124 135 385 189l-22 -74q7 -2 32.5 -11t43.5 -13.5t34 -4.5l-30 31l135 64q114 -23 184.5 -76.5t101.5 -157.5q84 -91 84 -274z" />
<glyph unicode="P" horiz-adv-x="1177" d="M901 1249h-8q-30 -49 -82 -164q25 30 52.5 79t37.5 85zM954 1280q0 -53 -36 -123q-59 -113 -122 -149.5t-192 -36.5q89 223 138 315q20 39 42 74q30 6 62 6q108 0 108 -86zM1333 1341q0 121 -57.5 215t-169.5 113q-47 8 -148 8q-70 0 -144 -5t-174 -14.5t-144 -12.5 l39 -46l-54 -40l78 -56l-149 -45l22 -31l-57 -63l76 -27l-78 -53q-255 -547 -457 -1223l16 -24l103 133l18 -92l47 47l13 -131l59 72l21 -119l28 16q112 374 238 649h51q173 0 321 60q193 79 296.5 179.5t168.5 287.5q37 106 37 202zM1446 1237q0 -91 -39 -203 q-67 -190 -170.5 -291.5t-298.5 -181.5q-161 -68 -371 -61q-132 -288 -235 -645l-45 -27l-19 113l-61 -74l-2 29l-51 -29l-13 82l-49 -60l-29 68l-28 -39l-29 39l12 39l-12 53l-76 -98l-71 102q212 710 475 1266l4 4l-53 18l82 91l-43 53l120 37l-47 34l64 50l-72 82 q44 3 251 22t318 19q80 0 137 -8.5t111.5 -33t92.5 -72.5t61 -122q86 -102 86 -256z" />
<glyph unicode="Q" horiz-adv-x="1269" d="M489 377q-9 18 -20.5 38.5t-26 45.5t-22.5 39v-35q0 -88 69 -88zM618 799l25 90l-39 -88zM877 1165q0 18 -3 33q-37 -12 -71 -42.5t-60.5 -72t-45 -78.5t-38.5 -80q-1 -3 -2 -5t-2 -4.5t-2 -4.5q15 -22 88 -135q4 8 19.5 44t25 57.5t25 60t25.5 66t20.5 59.5t15.5 57.5 t5 44.5zM928 1165q0 -106 -168 -477q-7 -15 -10 -22q-75 119 -80 127l-15 -56l-61 15l61 -125l-73 26l10 -51l-27 -2l25 -102l-101 65l-16 -53q15 -27 44 -80t44 -80q-39 -24 -74 -24q-116 0 -116 145q0 224 221 651q102 195 221 195q57 0 86 -45.5t29 -106.5zM1280 1296 q0 146 -60.5 233.5t-199.5 115.5l-53 -27l71 -68h-92l25 -65q-90 33 -221 26l63 62l-84 26l16 39q-72 -11 -158.5 -58t-129.5 -103q-194 -246 -315.5 -540.5t-121.5 -576.5q0 -278 179 -348q113 -45 217 -45q149 0 315 111l143 -225l3 53l47 -37l12 65l88 -77q2 12 2 39 q0 18 -10 116l80 -57l47 8q-138 244 -193 352q12 18 36 53t36 54q107 166 182.5 421t75.5 453zM1393 1194q0 -145 -46.5 -345.5t-109.5 -338.5q-44 -93 -172 -299q27 -54 76.5 -143.5t84.5 -151.5l36 -63l-66 -11l-66 47l11 -147l-72 49l-4 -41l-27 25l-4 -27l-45 35l-8 -49 l-55 49l-13 -76l-145 217q-128 -69 -248 -69q-79 0 -169.5 26t-139.5 72q-70 23 -119 65t-74.5 99.5t-36 118t-10.5 135.5q0 289 122.5 584t322.5 552q61 79 180 131t229 58l-26 -64l110 -30l-30 30l135 66q117 -23 191 -79t106 -163q82 -89 82 -262z" />
<glyph unicode="R" horiz-adv-x="1155" d="M907 1260q0 -45 -37 -121q-96 -181 -305 -181q7 16 26 63t27.5 67.5t26 61t30.5 66.5t30.5 59t35.5 62q30 6 62 6q104 0 104 -83zM1274 1313q0 85 -25 148.5t-65.5 101t-102 60t-124.5 30.5t-144 8q-179 0 -367 -49l41 -45l-51 -39l76 -55l-145 -43l22 -29l-57 -62 l76 -26l-76 -51q-268 -607 -432 -1186l22 -37l90 137l17 -92l51 41l22 -86l48 39l18 -113l29 17q82 266 221 604q43 -197 172 -553l45 -15l8 97l111 -148l20 64l51 -70l35 66l90 -111l31 43q-137 332 -201 707q129 54 209 108t142.5 138.5t105.5 209.5q37 113 37 191z M1386 1210q0 -95 -36 -194q-65 -186 -164.5 -282.5t-290.5 -176.5q63 -372 201 -702l-43 -58l-68 82l-35 -45l-69 72l-21 -64l-67 76l-21 -61l-35 49l-39 6l-24 39l-125 41q-35 97 -98 291q-95 -251 -144 -410l-45 -25l-16 109l-117 -72l-14 97l-41 -33l-8 31l-41 -62 l-33 55l2 43l-12 13l-62 -84l-76 125q172 603 447 1224l-49 23l80 86l-41 53l116 37l-47 45l64 35l-60 69q255 68 471 68q57 0 103 -3.5t96.5 -12.5t90.5 -27.5t77.5 -46t65 -69.5t45.5 -97q83 -99 83 -244z" />
<glyph unicode="S" horiz-adv-x="845" d="M920 1579l38 47q-85 29 -165 29q-113 0 -221 -53.5t-185 -141.5q-108 -122 -108 -321q0 -80 24.5 -162t54 -139t54 -127t24.5 -129q0 -111 -66.5 -190t-174.5 -79q-63 0 -129 29l12 -29l-62 -8l54 -98l-146 33l23 -84l-43 -15l18 -69l-76 -9l17 -26q128 -86 299 -86 q115 0 227 45t197 121t137.5 184t52.5 225q0 70 -21.5 153t-48 147.5t-48 147t-21.5 152.5q0 99 50 157t147 58q25 0 75 -8l-16 60l57 34l-114 66l108 39zM1079 1528l-45 -51l27 -54l-94 -45l106 -51l-65 -41l16 -69q-58 12 -86 12q-92 0 -140 -55.5t-48 -149.5 q0 -70 21.5 -152.5t48 -147t48 -148t21.5 -154.5q0 -159 -90.5 -295t-234 -212.5t-300.5 -76.5q-175 0 -305 88l-6 11q-74 26 -127 63l-68 106l101 11l-17 59l43 14l-32 117l118 -26l-34 65l69 8l-43 101q111 -62 217 -62q90 0 148.5 52t58.5 141q0 50 -25 115t-55 121.5 t-55 143.5t-25 175q0 155 75.5 283t205 201t283.5 73q129 0 256 -51l-66 -74l10 -19q47 -9 88 -26z" />
<glyph unicode="T" horiz-adv-x="905" d="M1108 1503l80 47l-78 25l53 39l-28 39q-392 -9 -770 -49l4 -39l118 -58l-182 -41l-14 -28l119 -49l-134 -68l9 -43l235 8q-125 -264 -230.5 -546.5t-234.5 -667.5l21 -37l86 92v-139l55 39l51 86l11 -103l45 39l10 -94l45 12q221 789 498 1354l229 16l-25 60l64 53z M1235 1477l80 -27l-90 -51l37 -53l-66 -54l27 -67l-236 -17q-287 -587 -498 -1351l-63 -17l-8 86l-2 -2l-43 -37l-2 25l-117 -47l-23 108l-100 -86l-20 109l-45 -49l-66 121q220 652 410 1097h-31l-6 66l-131 -6l-21 125l66 34l-68 25l51 100l49 13l-10 127q480 49 852 57 l72 -102l-14 -11l94 -30l-51 -29l18 -25z" />
<glyph unicode="U" horiz-adv-x="1249" d="M1503 1575l-20 39l-80 -78l-21 37l-77 -82l-5 106l-12 29l-108 -147l2 133l-62 -31q-64 -155 -165.5 -451.5t-151.5 -424.5q-6 -16 -23.5 -61t-26.5 -67.5t-24.5 -58.5t-30 -66t-30.5 -57q-29 -47 -60 -74.5t-76 -27.5q-126 0 -126 158q0 51 10 116q16 101 166 478.5 t225 531.5l-39 -21l-14 58l-74 -105l-23 64l-32 -35l-23 23l-96 -93l16 146l-24 24q-64 -131 -110 -229t-113.5 -256t-110 -282.5t-74 -265t-31.5 -245.5q0 -65 8 -116.5t28.5 -102t60 -88.5t98.5 -63q118 -49 231 -49q191 0 377 168q52 47 96 112t79 147t58.5 146.5 t54 161.5t46.5 141q131 366 307 758zM1589 1528l29 -55q-177 -391 -309 -762q-17 -46 -47.5 -143t-54 -162.5t-58.5 -147.5t-79.5 -147.5t-98.5 -112.5q-192 -170 -383 -170q-80 0 -176 27.5t-150 74.5q-74 26 -125 68.5t-78.5 100t-39 120t-11.5 141.5q0 82 18 183.5 t44 194.5t70.5 213.5t80 206.5t92.5 208.5t87.5 185.5t82.5 170l92 -88l-4 -30l41 -5l68 74l16 -51l60 74l45 -66l80 21l-29 -90l25 -93l55 29q-59 -117 -182 -430q-15 -38 -58 -138t-70.5 -167t-56 -153.5t-37.5 -145.5q-10 -65 -10 -119h14q29 0 64 35q48 53 146 306 t204 559.5t135 375.5l152 76v-60l67 72l50 -94l45 47l22 -41l80 78l64 -121q-9 -21 -28 -62t-28 -61l2 -4z" />
<glyph unicode="V" horiz-adv-x="1073" d="M1421 1526l-47 -10l-14 57l-125 -113l8 92l-51 -30l8 90l-39 -19l-22 23q-201 -247 -467 -660q-24 -38 -76.5 -127t-83.5 -135h-23q37 331 129 658q37 128 64 190l-18 45l-115 -137l2 170q-34 -36 -78 -98l-14 80l-43 -43l-23 104l-37 -23q-98 -386 -155.5 -814.5 t-63.5 -825.5l15 -23l86 109l24 -82l49 39l31 -59l100 139l-8 -154l10 -12q381 782 977 1569zM1485 1425l63 15q-608 -800 -999 -1606l-23 31l6 121q-14 -18 -33.5 -50.5t-32.5 -55.5l-13 -23l-47 65l-64 -41l-31 49l-57 -71l-37 118l-67 -86l-64 93q6 410 64.5 849 t160.5 840l117 72l16 -84l48 47l12 -63l80 77l18 -129l76 93l59 -146q-25 -54 -49 -131l80 96l27 -65q-19 -43 -37.5 -97.5t-27 -85t-27.5 -106t-23 -90.5q264 397 455 631l36 -37l89 41l-7 -78l50 31l-7 -64l90 82l25 -90l115 8l-60 -84z" />
<glyph unicode="W" horiz-adv-x="1802" d="M2159 1528l-54 -10l-10 55l-123 -119l6 100l-63 -28l6 90l-39 -19l-22 25q-108 -133 -285 -381q-110 -152 -289 -477l-18 -33l-21 6q6 182 54 417.5t116 387.5l-14 47q-56 -21 -133 -108l30 145q-37 -19 -94 -76v62l-51 -25l-12 53q-46 -68 -142.5 -200t-142.5 -199 q-34 -51 -101.5 -145.5t-119.5 -173t-92 -152.5h-23q22 243 56 397q3 13 12 52.5t13 56.5t12.5 51.5t15 56t15.5 51t19 55t21 50.5l-27 45l-100 -137l-8 168q-36 -40 -86 -113l-14 96l-39 -36l-29 90l-23 -13q-98 -386 -155.5 -814.5t-63.5 -825.5l17 -18l61 75l23 -73 l86 141l30 -127l70 76l12 -111l6 -8q136 281 246.5 489.5t235.5 401.5h24q-75 -516 -80 -846l21 -18l88 108l18 -84l50 39l24 -59l113 155l-17 -174l11 -12q374 772 979 1573zM2216 1427l70 13q-617 -811 -1002 -1606l-22 27l12 141q-16 -19 -41 -54t-42 -60l-17 -25l-33 59 l-47 -37l-7 33l-26 -37l-17 43l-49 -61l-43 112l-57 -71l-74 78q3 182 27 436q-95 -173 -295 -584l-21 23l-10 92q-12 -10 -28 -31.5t-26 -37.5l-9 -17l-66 78l-51 -84l-25 77l-77 -71l-41 88l-41 -49l-68 80q6 410 64.5 850.5t160.5 840.5l99 58l22 -74l49 47l11 -74l98 99 l8 -136l64 86l77 -137q-35 -79 -53 -139l74 98l35 -61q-12 -26 -23.5 -56t-19 -51.5t-17.5 -59.5t-14 -54t-14 -61t-13 -56q94 133 117 168q57 84 174 247.5t174 247.5l27 -104l67 33v-35l97 55l-2 -92l82 41l39 -125l-31 -78q22 24 69 43l21 -63q-23 -48 -43.5 -113 t-29.5 -99.5t-29 -119.5q183 290 430 594l34 -41l84 39l-6 -92q26 -19 37 -45l96 90l41 -76l131 22l-73 -98z" />
<glyph unicode="X" horiz-adv-x="1275" d="M1616 1552l2 37q-63 -11 -184 -71l20 71l-47 -14l20 78l-153 -76l22 78l-28 -2q-294 -262 -518 -516q-93 206 -152 460l-37 -47l-49 41l10 -137l-59 51l-6 -45l-31 2l-8 -116l-105 139l-14 -19q24 -108 87.5 -306.5t86.5 -287.5q-251 -305 -602 -835l68 -6l-2 -43l141 92 l-6 -78l39 14l-23 -86l53 19l23 -23q206 386 438 615l213 -574l31 47l53 -28l4 90l80 -101l10 23l8 135l74 -76l43 4q-144 473 -264 779q20 20 140 141t162 162t136 130.5t169.5 153.5t154.5 125zM1731 1501l-5 -55q-97 -74 -206.5 -172.5t-177 -164.5t-196.5 -196.5 t-177 -177.5q128 -329 266 -786l-61 -4l-60 61l-8 -112l-19 -41l-65 84l-10 -70l-60 31l-37 -56l-51 105l-61 -92l-178 481q-204 -241 -357 -529l-26 27l-66 -22l10 36l-57 41l-113 -41q13 51 15 70l-66 -20l-26 30l-60 -39l6 95l-104 10q295 440 423 615q109 150 212 276 q-19 72 -83.5 276t-88.5 318l69 90l64 -82l2 33l35 -4l12 88l35 -29l12 111l80 -62l70 94q27 -117 57 -231l25 33q27 -124 75 -273q202 223 465 455l121 12l-10 -41l131 56l-6 -80l51 14l-16 -53q41 23 157 49l-8 -131q-28 -21 -113 -92v-2q103 53 179 67z" />
<glyph unicode="Y" horiz-adv-x="987" d="M1290 1632l-69 -30l-15 47l-123 -140l-8 86l-39 -34l-14 73l-47 -30l-33 12q-95 -251 -270 -526q-65 229 -82 528l-27 -25l-35 39l-41 -86l-55 111q-30 -43 -55 -144l-68 99l-24 -19q41 -524 139 -874q-211 -358 -455 -684l43 2v-41l101 98v-74l57 35l4 -30l96 77 l-26 -149l14 -29q297 352 575 812.5t457 895.5zM1329 1509l82 35q-179 -443 -464.5 -917t-588.5 -828l-22 43l20 123l-110 -133l-53 117l-89 -86v55l-47 -20l4 71l-108 -82l8 93l-100 -3q278 366 508 750q-99 378 -138 891l91 70l36 -56q7 21 26.5 53.5t35.5 54.5l16 23 l51 -98l29 61l51 -57l70 64q8 -141 14 -215l15 -17l34 31q5 -112 25 -250q122 222 186 406l60 -23l86 55l12 -61l45 39l8 -66l103 121l26 -80l133 56q-41 -102 -71 -170z" />
<glyph unicode="Z" horiz-adv-x="1024" d="M1303 1536l-70 6l14 55l-86 2l35 56q-37 2 -111 2q-339 0 -626 -43l14 -45l94 -45l-153 -37l35 -33l-9 -39l90 -20l-69 -70q158 21 270 21q15 0 92 -5q-181 -274 -299 -426q-137 -177 -212.5 -274t-196 -244.5t-224.5 -265.5l46 -6l-15 -47l78 18l-10 -92 q205 -35 411 -35q221 0 367 43l41 47l-107 27l-32 51l78 37l-78 19l49 49l-35 12l37 39q-102 -10 -182 -10t-119 6q537 606 883 1247zM1348 1448l73 -6q-313 -583 -751 -1102q54 5 166 20l-62 -86l39 -12l-41 -41l109 -28l-64 -41l23 -9l-31 -30l94 -23l-86 -100l113 -27 l-53 -61q-156 -45 -373 -45q-216 0 -422 37l4 47q-98 12 -152 20l7 68h-91l21 53l-84 10q116 127 246 284.5t220.5 272.5t229.5 297q48 63 201 281q-63 -5 -149 -19l77 80h-8q-44 0 -82 -5.5t-85.5 -15t-80.5 -14.5l72 113l-47 8l12 62l-63 80l98 28l-35 111q350 51 727 51 q56 0 166 -4l-35 -53l64 -4l-17 -58l86 -8l-41 -74l21 -2z" />
<glyph unicode="[" horiz-adv-x="819" d="M1024 1569l76 28l-76 56l20 49q-37 4 -112 4q-170 0 -342 -35q8 -57 57 -121l-102 -16q-28 -44 -52.5 -89.5t-52.5 -107t-41 -90.5t-46.5 -109.5t-39.5 -95.5q-89 -216 -142.5 -350t-122 -327t-114.5 -359q44 -6 93 -26l-25 -74q176 -21 252 -21q133 0 252 29l41 47 l-125 23q4 2 18.5 11t25 16t23.5 16t22 17t13 15l-71 19l28 55q-65 -10 -116 -10q-32 0 -62 6q112 333 236 649q67 173 192 432q12 25 37.5 77t44.5 92.5t35 78.5q107 24 194 29l21 26zM1139 1554l86 -61l-82 -31l35 -53l-27 -35q-104 -6 -193 -26q-15 -38 -33 -77 t-44 -91.5t-37 -75.5q-130 -270 -193 -432q-59 -152 -180 -488q17 3 53 9.5t54 9.5l-50 -90l86 -23l-43 -51l74 -43l-94 -109l117 -22l-54 -62q-110 -30 -258 -30q-119 0 -266 20l14 49q-69 5 -165 19q7 33 22 88q-23 6 -92 6q130 475 424 1167q5 12 24 57.5t26 61t24.5 56 t27 60t26 55t29.5 59t30 53t34 55.5l51 10q-5 6 -11.5 23.5t-11 32.5t-11 38t-7.5 27q225 45 410 45q101 0 186 -14l-33 -70l121 -88l-67 -24z" />
<glyph unicode="\" horiz-adv-x="1009" d="M922 -55l16 28q-104 364 -197 844q-112 578 -155 918l-64 26l-24 -98l-49 90l-25 -57l-2 -101l-64 91l-28 -50l-43 62l-33 -33q71 -498 205 -1157q2 -8 14.5 -71t15 -76t14.5 -69.5t16 -75.5t15.5 -69.5t17.5 -75t17 -68.5t20 -74.5t20 -68t22 -71.5l35 -25q32 71 49 142 l43 -56l33 78l55 -69l16 147zM1051 -131l-25 -45l-53 57l-17 -149l-61 75l-21 -79l-53 55q-18 -70 -49 -137l-47 35l-16 53l-21 -49l-100 73q-38 116 -75.5 265t-55.5 232.5t-56 270.5q-124 611 -202 1157l96 95l31 -45l28 47l31 -45l55 112l39 -45l6 29l148 -59l16 -111 l49 -21q38 -311 150 -888q98 -510 203 -883z" />
<glyph unicode="]" horiz-adv-x="819" d="M1069 1561q-47 16 -96 55l24 72q-151 18 -252 18q-134 0 -253 -29l-39 -45l125 -22q-86 -51 -103 -78l70 -16l-29 -56q65 10 117 10q35 0 65 -6q-104 -189 -194.5 -405.5t-195.5 -505t-158 -420.5q-94 -21 -195 -27l-18 -26l38 -55l-77 -31l77 -55l-22 -48q56 -6 115 -6 q158 0 340 37q-7 51 -56 119l101 18q85 271 229 623q218 535 387 879zM1188 1466q-198 -403 -393 -888q-160 -394 -232 -629l-92 -17q41 -58 53 -120q-183 -39 -356 -39q-70 0 -127 8l25 53l-5 2q-99 0 -182 14l33 72l-100 86l84 41l-23 33l55 74q110 7 185 22 q39 102 115 304.5t123.5 326t119.5 293.5t141 309l-26 6q-62 -7 -164 -26l47 90l-84 20l64 80l-95 16l111 127q121 33 280 33q121 0 314 -26l-25 -97l117 -24l-49 -105q51 -37 86 -39z" />
<glyph unicode="^" horiz-adv-x="1064" d="M907 782l107 13l-27 43l-414 204q-260 -101 -407 -168l43 -30l-66 -49l-2 -21l92 14l-81 -104l51 -14l-6 -41l370 153q167 -110 279 -161l63 10l-32 76l108 -17l6 23zM1024 877l109 -193l-99 -10l70 -60l-10 -39l-99 17l31 -74l-80 -10q-82 37 -289 158l-370 -156l6 51 l-57 17l16 18l-117 -49l10 86l-82 22l50 62l-43 10l36 109l-26 65l495 197z" />
<glyph unicode="_" horiz-adv-x="1290" d="M1001 143l115 35l-6 29l-115 29l101 61l-47 33q-294 -3 -637 -19q-285 -12 -424 -37l39 -47l-82 -34l-11 -23l103 -10l-115 -88l51 -31l-18 -45q740 38 1055 47l61 41zM1223 113l8 -43l-107 -33l66 -57l-74 -50q-232 -6 -1073 -49l20 53l-22 15l-162 -8l31 77l-80 48 l72 55l-41 4l43 108l39 15l-49 59q147 31 454 47q417 25 715 27l125 -86l-64 -39l93 -61l-76 -62z" />
<glyph unicode="`" horiz-adv-x="890" d="M791 1575l90 20l-27 37l-45 17q-197 71 -346 94l14 -45l-67 -6l-15 -13l72 -37l-109 -34l29 -37l-25 -29q204 -55 386 -117l55 15l-33 63l92 -4l4 25zM889 1556l65 -75l-86 -23l54 -37l-7 -35l-86 5l33 -60l-67 -18q-269 87 -400 119l29 34l-14 21q-119 30 -121 31l47 53 l-45 57l67 23l-28 12l59 72h33l-19 57q200 -27 439 -113l37 -12l67 -98z" />
<glyph unicode="a" horiz-adv-x="1024" d="M606 797h23l-68 -369h-164q60 135 209 369zM989 1171l-92 -55l-59 62l-142 -170l-30 155l-82 -53l-43 90q-373 -461 -695 -1163l127 45l13 -59l108 141l19 -135l34 32l50 -59l94 178h264l-25 -164l68 54l37 -56l61 144l64 -129l41 39l67 -39q1 179 21.5 397.5t39.5 351 t60 393.5zM1022 1040l82 50q-77 -493 -98 -696q-27 -265 -25 -486l-80 41l-43 -39l-51 74l-68 -93l-41 62l-57 -41l-55 84l-125 -98l26 170h-88l-98 -187l-53 64l-41 -39l-60 74l-65 -64l-14 49l-111 -61l-23 110l-184 -63q362 808 803 1343l51 -110l96 63l25 -125l109 131 l71 -71l150 90q-20 -127 -33 -232z" />
<glyph unicode="b" horiz-adv-x="1128" d="M586 360q-7 -1 -22.5 -3t-22.5 -3l-11 -24q37 11 56 30zM670 410q0 -58 -62.5 -98t-124.5 -40q-43 0 -125 4l72 191q57 4 166 20q74 -29 74 -77zM784 872q0 -52 -38 -87.5t-85.5 -48.5t-97.5 -13q-27 0 -41 2q35 122 84 199q58 20 92 20q86 0 86 -72zM1139 932 q0 140 -92 214.5t-236 74.5q-165 0 -324 -21l5 -67l-72 -3l29 -106l-103 -51l-55 63q-181 -376 -307 -880l65 18l12 -72l86 -10l-75 -76q137 -28 266 -28q66 0 121.5 3t121 12t118.5 24.5t107 42.5t94.5 62.5t74 88t51.5 117.5q6 21 6 43q0 61 -30.5 121t-77.5 106 q90 56 152.5 142.5t62.5 181.5zM1251 829q0 -91 -56.5 -176.5t-139.5 -140.5q11 -32 35.5 -70.5t39.5 -75t15 -85.5q0 -27 -6 -48q-18 -64 -49 -115t-66 -86t-85.5 -61.5t-95 -42t-108 -26.5t-111 -15.5t-116.5 -9.5q-23 -2 -68 -2q-151 0 -286 33l39 39q-34 4 -203 41 l47 65l-39 2l10 56l-94 -27q140 587 367 1046l77 -94l31 15l-35 127l84 4l-4 61q227 29 377 29q135 0 231.5 -57.5t131.5 -180.5q77 -83 77 -205z" />
<glyph unicode="c" horiz-adv-x="776" d="M864 1124l58 23q-111 90 -240 90q-118 0 -231.5 -67.5t-206.5 -170.5q-104 -114 -161.5 -284t-57.5 -334q0 -86 17.5 -157t55.5 -129.5t104 -91t156 -32.5q143 0 281 84l-51 51l30 39l-116 21l108 76l-63 12l39 70q-104 -37 -148 -37q-58 0 -78 40t-20 105q0 51 13.5 114 t40.5 129.5t63.5 121.5t88.5 90t109 35q36 0 72 -19l2 68l64 4l-41 115l135 -50zM1044 1040l-65 -24l4 -74l-113 29l39 -109l-67 -2l-2 -78q-39 27 -92 27q-65 0 -122.5 -51.5t-93 -127t-56.5 -153t-23 -137.5q100 12 221 57l-47 -106l112 -21l-59 -65l33 -27l-21 -24l47 -9 l-69 -49l69 -47l-34 -43l53 -55q-147 -92 -297 -92q-142 0 -230 82q-72 21 -124 66.5t-80 107t-41 128t-13 140.5q0 174 61.5 352t172.5 299q98 108 216.5 176t244.5 68q183 0 354 -150l-68 -24q36 -17 90 -64z" />
<glyph unicode="d" horiz-adv-x="1060" d="M694 782l-51 -2q-80 -148 -162 -420q57 15 107.5 97.5t77 172t28.5 152.5zM735 760q0 -52 -19.5 -127t-52.5 -149t-85.5 -125.5t-110.5 -51.5q-24 0 -71 2t-70 2q86 354 209 582q31 2 90 2q68 0 89 -30.5t21 -104.5zM1047 846q0 355 -291 373q-35 2 -105 2 q-141 0 -215 -17l19 -82h-74v-86l-66 -32l-47 40q-102 -198 -184.5 -437.5t-118.5 -450.5l76 18l18 -65h76l-74 -84q26 -5 56 -8.5t49.5 -5t59 -2.5t50 -1h59h52.5q128 0 238 50t186 133t130.5 192t80 226.5t25.5 236.5zM1159 743q0 -115 -25 -232t-78.5 -228t-128.5 -197 t-182.5 -138t-232.5 -52h-143q-152 0 -224 20l41 47q-131 11 -215 35l52 59h-3l-16 56l-100 -23q39 251 132.5 526t215.5 508l72 -59l6 2v107h61l-14 67q117 31 291 31q63 0 110.5 -5t96 -20t83.5 -40.5t65 -69t48 -103.5q88 -101 88 -291z" />
<glyph unicode="e" horiz-adv-x="872" d="M836 1051l180 28l-68 56l56 45q-120 6 -238 6q-182 0 -330 -19l27 -53l-90 -8l30 -94l-86 -51l-38 38q-223 -453 -291 -823l104 47l-8 -96l80 -31l-64 -92q121 -18 287 -18q181 0 275 24l28 51l-139 39l125 54l-41 22l65 88q-102 -10 -184 -10q-111 0 -180 14l51 187 l363 -4l18 30l-55 49l67 45l-86 54l101 59l-15 31l-311 -2l92 162q106 14 230 14q59 0 118 -6l-28 67l67 31zM1067 1032l76 -61l-174 -29l104 -59l-78 -37l33 -74q-60 8 -137 8q-12 0 -37.5 -1t-38.5 -1l47 -110l-69 -41h2h94l22 -45l-94 -56l84 -53l-70 -45l52 -45l-25 -45 l-360 4l-11 -37h17q52 0 146 2t143 2l-82 -116l43 -25l71 -14l-67 -80l43 -25l-76 -33l-14 -24l98 -27l-39 -65q-108 -27 -281 -27q-177 0 -305 23l33 47q-138 12 -205 24l68 107l-49 20l4 47l-115 -53q80 469 344 997l62 -61l16 10l-37 117l80 6l-27 51q206 27 414 27 q184 0 365 -12l-107 -88l109 -86z" />
<glyph unicode="f" horiz-adv-x="923" d="M901 1061l156 24l-60 43l56 50h-621l27 -52l-84 -8l61 -74l-71 -8l12 -59l-96 49q-257 -551 -351 -1006l99 82l16 -102l68 47l28 -33l78 123l29 -123l28 -22q86 317 136 452l360 2l10 39l-49 45l66 50l-103 53l138 53l-11 33l-329 -2l73 164h375l29 32l-62 43l84 43z M1079 1133l88 -68l-51 -39l49 -49l-135 -25l86 -55l-84 -45l55 -39l-38 -45h-187l33 -113l-74 -28h2h111l14 -49l-125 -50l99 -49l-70 -51l45 -43l-16 -51l-361 -2q-26 -68 -47.5 -140t-49.5 -179t-38 -142l-45 35l-6 65l-29 -67l-35 26l-24 -34l-33 34l-74 -49l-12 74 l-14 16l-95 -59l-26 92l-137 -113q100 565 403 1205l47 -25l31 12l-41 76l84 10l-29 60h813z" />
<glyph unicode="g" horiz-adv-x="1095" d="M596 436l-86 17q-23 -70 -27 -93q66 3 113 76zM1044 1096l54 20q-38 62 -117 91.5t-164 29.5q-123 0 -241 -47.5t-212 -130.5t-166.5 -188t-111.5 -227t-39 -241q0 -411 385 -411q109 0 200.5 32.5t156.5 86.5t118.5 134.5t88 164.5t63.5 188q-34 3 -76 16l29 78h-402 l-20 -16l137 -58l-145 -43l28 -34l-35 -49l97 -21q-28 -67 -80.5 -114.5t-116.5 -47.5q-51 0 -79.5 30t-28.5 81q0 79 50 196t132.5 215.5t159.5 114.5q20 4 61 4q91 0 152 -67v45h55l-76 137l148 -37zM1214 1008l-57 -21l6 -76l-135 35l70 -131h-64v-43l-61 39l-15 -23 q-18 18 -45.5 34t-48.5 16q-62 0 -104 -22.5t-86 -72.5h411l-34 -92l75 4l-28 -137q38 -10 69 -10h9q-28 -106 -63.5 -193.5t-89.5 -170.5t-121 -139.5t-161 -91t-206 -34.5q-85 0 -151 16.5t-118 63.5q-71 20 -125 66t-84.5 107.5t-45.5 129.5t-15 141q0 159 66 318.5 t174.5 284t261 202.5t313.5 78q116 0 212.5 -50t145.5 -149l-20 -6q44 -29 65 -73z" />
<glyph unicode="h" horiz-adv-x="1085" d="M1253 1196l-84 -86l-30 70l-119 -144l4 178l-63 -71l-39 55q-123 -252 -195 -455l-215 -18q21 75 56.5 161t63 142t77.5 152l-54 -29l-37 94l-126 -158v134l-84 -74l-29 67q-262 -537 -440 -1183l79 51l31 -59l115 198v-166l63 76v-139l33 8q11 37 30.5 108.5t32 116.5 t34 105.5t44.5 109.5l217 19q-78 -208 -141 -430l74 47l20 -80l72 137l14 -131l23 -22l98 184l8 -133l29 -31q68 282 176.5 567.5t261.5 628.5zM1360 1112l8 -16q-156 -346 -267 -641t-177 -578l-45 47l-7 90l-30 -120l-25 28l-33 -61l-34 35l-9 90l-71 -101l-33 66l-82 -76 l-35 119l-184 -103l-17 109l-59 -84l-4 31l-80 -23v19l-43 -33l-20 53l-64 -43l-49 88l-143 -94q203 777 524 1421l47 -104l96 82l19 -70l112 115l43 -125l115 51q-30 -78 -57 -129l10 -90l49 27q83 175 98 206l52 -73l112 90l-4 -133l78 92l35 -74l82 84l43 -86l-56 -127 l21 -45z" />
<glyph unicode="i" horiz-adv-x="575" d="M700 1157l-65 -43l-27 64l-90 -68l-14 139l-115 -129l-24 66q-242 -498 -435 -1172l84 66l45 -60l105 150l-2 -184l49 30l35 -47q158 523 454 1188zM741 1028l86 53q-326 -727 -475 -1237l-41 56l-43 -41l-69 90l-72 -66l-16 76l-76 -55l2 59l-33 45l-143 -90 q115 413 232.5 744t275.5 651l39 -96l114 135l37 -146l70 51l28 -67l142 84l-76 -199z" />
<glyph unicode="j" horiz-adv-x="796" d="M926 1208l-54 -30l-26 26l-107 -119l-12 185l-68 -80l-32 43q-78 -195 -213 -590q-8 -24 -25 -84.5t-33 -110t-32 -77.5q-31 -54 -170 -54q-29 0 -117 9l18 -35l-32 -31l122 -59l-143 -41l39 -56l-88 -24l53 -33l-33 -33q79 -10 193 -10q78 0 151 6q65 6 113.5 29.5 t82 64.5t55.5 86.5t42 110.5q9 28 46.5 148.5t51 162t47 143t55 160.5t53.5 140.5t63 152.5zM981 1083l76 45q-34 -73 -68 -158t-56 -143.5t-58 -168t-48 -146.5t-53 -170t-47 -152q-20 -66 -42.5 -113t-57.5 -89.5t-85 -66.5t-116 -30q-74 -6 -152 -6q-95 0 -217 17l39 37 l-26 16q-58 3 -215 25l65 59l-76 59l107 37l-21 47l66 31l-68 35l60 55l-25 76q3 0 24 -3.5t34.5 -5t38.5 -4.5t43 -4t42 -2t42 0.5t36 4t30 8.5t19 14q7 9 29.5 74.5t48.5 148t29 92.5q143 414 235 641l50 -67l88 106l32 -168l60 68l37 -37l145 78q-20 -44 -44.5 -114.5 t-33.5 -92.5z" />
<glyph unicode="k" horiz-adv-x="987" d="M676 530l538 605v41l-96 -58l-14 49l-160 -123l31 144l-84 -49l-29 61l-375 -430l162 381l-28 23l-62 -62l-31 55l-104 -155l14 202l-67 -69l-39 39q-244 -522 -418 -1141l84 66l16 -86l129 174v-162l47 26l25 -55l139 414l129 -438l47 43l68 -54l33 82l57 -28l19 125 l75 -101l19 -2zM1327 1092v-64l-536 -602l127 -492l-39 3l-45 57l-23 2l-12 -90l-60 31l-34 -84l-72 55l-53 -47l-23 78l-25 18l-75 -66l-62 209l-76 -225l-30 70l-49 -29l-17 -31l-51 92l-61 -61l-19 72l-106 -88l-23 116l-139 -108q194 736 493 1366l54 -55l88 94l28 -115 l48 70l36 -72l47 47l93 -78l-49 -118l212 245l39 -82l115 60l-6 -101l111 84l16 -57l96 51l21 -133l-47 -53l8 -29z" />
<glyph unicode="l" horiz-adv-x="802" d="M545 195l174 53l-31 39h-369q21 89 49.5 178t72.5 194t70 165t86.5 189.5t78.5 168.5l-74 -35l-20 59l-90 -106l-5 147l-96 -110l-33 55q-101 -212 -160 -342t-135 -320.5t-126 -355.5l18 -10l117 74l-13 -123l74 -17l-74 -90h596l33 43l-78 45l41 47zM795 195l45 -56 l-133 -41l84 -32l-62 -70l76 -45l-43 -55h-621l49 61h-217l64 104l-27 78l-55 -35l-78 46q56 186 142.5 404t150.5 358t182 388l47 -77l117 116l25 -102l77 49l13 -69l129 30l-66 -145l17 -43l88 41q-9 -20 -42.5 -92t-45 -97.5t-41 -90.5t-43.5 -98.5t-39 -91.5t-41 -99.5 t-35 -93t-35 -99.5h236l94 -119l-84 -24h72z" />
<glyph unicode="m" horiz-adv-x="1288" d="M1403 1159l-72 -29l-24 41l-90 -102l-11 145l-73 -79l-35 63q-257 -277 -439 -547q-46 183 -73 525l-56 -50l-22 37l-53 -168l-43 197l-54 -78l-43 62q-241 -589 -387 -1168l95 49l14 -37l78 130l22 -158l66 67l30 -49q86 261 144 391h22q11 -154 43 -331l58 43l39 -56 q13 17 114.5 155.5t161.5 205.5h25l-109 -404l4 2l96 111l9 -109l67 54l27 -109l55 80l51 -39q139 636 363 1155zM1438 1040l88 37q-230 -512 -377 -1192l-55 41l-62 -90l-28 115l-93 -111l-26 113l-68 -59l-26 108l-25 -29l-113 -47l-53 70l-61 -47l-50 90l-79 -59l-15 73 q-20 -56 -57 -168l-35 56l-72 -74l-8 65l-28 45l-84 -104l-17 53l-80 -41l-18 101l-146 -78q160 640 455 1356l53 -60l60 92l47 -102l31 76l47 -64l86 58q12 -135 20 -211l47 43q5 -74 27 -267q180 238 385 455l35 -61l86 94l31 -123l57 63l37 -63l129 43q-35 -107 -60 -170 z" />
<glyph unicode="n" horiz-adv-x="1044" d="M1202 1167l-26 23l-60 -51l-14 59l-109 -147l-2 145l-51 -29l-47 33q-8 -17 -38.5 -83t-41.5 -90t-35.5 -81t-37.5 -92t-29.5 -83.5t-28.5 -92.5h-23l-53 520l-26 -33l-33 62l-45 -164l-53 125l-41 -43l-35 51q-154 -337 -262.5 -616t-176.5 -551l56 34l22 -67l115 168 l6 -125l60 24l32 -45q3 9 17 48t18.5 51.5t17.5 47.5t20 51.5t19 46.5t22 50t22.5 45.5t25.5 47.5l16 -7l117 -413l15 8l47 127l36 -90l37 43l39 -74l39 57l37 -32q182 653 432 1142zM1278 1102l39 -35q-266 -517 -440 -1163l-39 35l-41 -41l-41 55l-51 -66l-37 58l-23 -60 l-29 -18l-32 115l-6 -21l-86 -57l-68 237q-10 -25 -94 -247l-39 55l-53 -39l-52 72l-75 -111l-25 74l-90 -62l-35 101l-104 -68q140 592 505 1382l52 -71l49 53l29 -63l36 124l60 -84l57 52l23 -197l16 -31l33 41l16 -159q52 122 139 315l70 -49l98 55l2 -80l82 94l21 -65 q8 -1 24.5 3t28.5 8l12 5q38 -51 56 -69l-47 -97l6 -28z" />
<glyph unicode="o" horiz-adv-x="983" d="M649 778q-90 -61 -153.5 -195.5t-73.5 -254.5q43 17 83.5 72.5t68.5 127t46.5 134.5t28.5 116zM690 809q0 -57 -21 -145t-56.5 -177.5t-93 -153t-120.5 -63.5q-50 0 -71 38.5t-21 92.5q0 56 24.5 142t64.5 170.5t100 144.5t122 60q72 0 72 -109zM987 825q0 206 -121 330 l-8 -88l-59 25v-86l-170 73l63 54l-39 22l23 55q-98 -2 -183.5 -36.5t-149 -88t-118 -130.5t-92 -153.5t-70.5 -168.5q-55 -150 -55 -283q0 -170 85 -266t253 -96q418 0 592 559q49 152 49 278zM1100 723q0 -128 -49 -283q-177 -565 -602 -565q-153 0 -240 78 q-87 23 -145 86t-81.5 141t-23.5 170q0 145 57 301q42 114 88 202t110 167t139.5 130.5t177.5 81.5t223 30l-37 -84q62 -22 96 -37l12 102q81 -44 138 -147q22 -45 24 -47q6 -9 20.5 -28t20.5 -28q72 -110 72 -270z" />
<glyph unicode="p" horiz-adv-x="1048" d="M768 870q0 -70 -100 -137q-29 -19 -65 -31.5t-56.5 -17t-71.5 -12.5l94 219q91 27 154 27q21 0 33 -13.5t12 -34.5zM1116 950q0 76 -31.5 132t-85.5 87t-116.5 45.5t-134.5 14.5q-101 0 -283 -31l27 -74h-82l8 -84l-92 -59l-58 57q-105 -208 -185.5 -452t-166.5 -561 l14 -5l97 136l16 -119l70 49l12 -94l72 76l47 -64q4 13 23 75.5t27 87.5t25.5 70t34.5 80q54 13 279 89q161 55 289.5 167t173.5 261q20 65 20 116zM1229 848q0 -53 -21 -121q-49 -152 -177 -265t-292 -169q-185 -64 -276 -86q-18 -36 -35 -81.5t-27 -78t-26 -87t-25 -81.5 l-53 72l-55 -64l-35 78l-117 -88l-12 86l-41 -57l-31 8l-12 106l-43 -59l-98 27q93 345 187 621.5t216 514.5l76 -77l33 20l-13 109h66l-23 61q11 2 49 8.5t52.5 9t47.5 7.5t53 7.5t48 5.5t53 4t50 1q70 0 131.5 -12t119 -39t99 -76t59.5 -117q72 -75 72 -188z" />
<glyph unicode="q" horiz-adv-x="983" d="M659 795q-85 -60 -145.5 -189.5t-73.5 -247.5q33 17 64.5 59t52.5 84t44 108t33 98.5t25 87.5zM696 844q0 -48 -12 -115.5t-38 -143.5t-60 -140.5t-84 -107t-105 -42.5q-71 0 -71 115q0 47 14.5 113.5t43 138.5t65.5 134t87.5 102t102.5 40q57 0 57 -94zM1004 856 q0 95 -28.5 190t-90.5 136l-8 -95l-60 25v-86l-170 74l64 53l-39 23l22 55q-98 -2 -183.5 -36.5t-148 -88t-117.5 -131t-92 -153.5t-71 -169q-55 -150 -55 -282q0 -186 96.5 -278t282.5 -83l73 -155l37 -5l23 52l65 -41l10 121l109 -119l16 61l56 -4l-82 221 q126 125 208.5 329.5t82.5 385.5zM1116 754q0 -179 -83 -386.5t-208 -330.5l88 -232l-63 7l-21 -52l-67 54l-17 -54l-26 29l-4 -49l-68 43l-22 -47l-50 6l-34 74l-35 -23l-60 14l-45 93q-105 10 -174 73q-87 23 -145 86.5t-81.5 141.5t-23.5 170q0 151 58 301 q43 114 89 201.5t109.5 167t139 130.5t177 81t222.5 30l-37 -84q79 -29 96 -37l9 99q57 -27 100.5 -75.5t69.5 -109.5q56 -49 81 -138.5t25 -182.5z" />
<glyph unicode="r" horiz-adv-x="1054" d="M741 827q0 -59 -49 -105t-111 -66.5t-118 -20.5l96 237q44 23 90 23q44 0 68 -14t24 -54zM1108 893q0 149 -101.5 237.5t-252.5 88.5q-145 0 -310 -33l5 -60l-54 -14l13 -90l-62 2l-24 -72l-60 66q-210 -468 -321 -991l16 -23l84 143l16 -127l45 35l27 -116l74 100 l55 -66q6 20 19 67t20.5 73t19.5 64.5t24.5 72t25.5 65.5l39 11l153 -342l23 65l82 -57l16 114l108 -137l11 92l82 -32l-154 370q73 32 140 82.5t121.5 113.5t87 141t32.5 157zM1221 791q0 -105 -56 -207t-140.5 -176t-182.5 -117l159 -383l-92 37l-10 -84l-63 59l-9 -61 l-49 41l-24 -50l-70 64l-20 -59l-50 110l-6 2l-43 -121l-121 271q-18 -51 -44.5 -146t-34.5 -121l-60 70l-59 -88l-47 102l-76 -98l-43 80l-19 -33l-45 45l-6 62l-47 -78l-78 102q116 560 363 1096l53 -59l8 26l39 -2l-8 76l55 14l-4 62q205 43 363 43q138 0 243.5 -67 t143.5 -193q80 -93 80 -219z" />
<glyph unicode="s" horiz-adv-x="907" d="M899 1106l45 27q-164 110 -319 110q-91 0 -173 -27.5t-145.5 -77.5t-101 -127.5t-37.5 -170.5q0 -63 28.5 -117.5t69.5 -94t82 -76.5t69.5 -80t28.5 -89q0 -39 -29 -78t-67 -39q-28 0 -72 26.5t-63 42t-61 52.5l-17 -74l-61 17l63 -131l-114 41l14 -52l-68 -24 q169 -199 381 -199q109 0 207.5 47.5t162.5 137.5t64 200q0 80 -27 147.5t-65.5 112t-77 81.5t-65.5 73t-27 70q0 44 40 71t87 27q78 0 166 -84l19 4l-29 78l61 2l-88 149l123 -30zM1067 1030l-53 -33l4 -61l-109 25l78 -140l-63 -4l28 -74l-34 -10q-51 48 -87 66l-26 -8 l-33 28h-18q-39 0 -74 -21.5t-41 -58.5q101 -83 143 -170q1 -2 10 -24t15 -33q9 -18 34 -63.5t32.5 -63.5t16.5 -56t9 -81q0 -86 -38.5 -161t-101 -125.5t-142 -79.5t-162.5 -29q-18 0 -35.5 1.5t-30.5 3t-30.5 7t-26.5 7t-27.5 10.5t-24.5 11t-27 13.5t-25 13.5t-28.5 16.5 t-27.5 16.5q-12 6 -33.5 17.5t-32.5 17.5q-113 66 -219 198l90 33l-26 100l88 -30l-14 94l73 -6l25 104q1 -1 31.5 -29.5t50.5 -45.5t50 -41.5t52 -37t35 -12.5q22 0 38.5 25.5t16.5 48.5q0 30 -21 61t-52 57t-68 60.5t-68 70t-52 88t-21 112.5q0 135 69 239.5t181 158.5 t245 54q201 0 428 -160l-67 -43q55 -27 96 -57z" />
<glyph unicode="t" horiz-adv-x="954" d="M965 1001l155 64l-92 43l49 63h-870l-10 -30l145 -64l-145 -35l34 -59l-110 -43l39 -41l-54 -59h261q-40 -94 -82 -209t-68.5 -197t-70 -219.5t-64.5 -202.5l12 -10l84 84l31 -57l67 59l31 -123l76 82l45 -41q7 24 35.5 118.5t39 128t36 114.5t42.5 126.5t42 112t50 123 t52 111.5h287l-23 49l60 45zM1147 1010l80 -47l-140 -66l80 -66l-63 -49l24 -55h-294q-24 -49 -48 -104.5t-41 -96.5t-41.5 -111.5t-35 -99t-36.5 -113t-31 -100.5t-34.5 -113.5t-31.5 -103.5l-50 45l-82 -67l-28 100l-96 -82l-21 66l-61 -62l-25 23l16 47l-22 45l-70 -70 l-73 66q23 71 72.5 228.5t89.5 276t81 226.5h-100l55 61h-207l76 109l-41 61l109 52l-39 67l61 15l-45 20l35 111h1010l-72 -97l119 -63l-66 -35z" />
<glyph unicode="u" horiz-adv-x="1044" d="M1186 1126l-49 -32l-31 55l-109 -170v160l-69 -76l-25 84l-14 12q-23 -46 -47.5 -100t-40.5 -89.5t-44.5 -107.5t-36 -91.5t-41 -108t-36.5 -95.5q-3 -8 -25.5 -71.5t-42 -112.5t-28.5 -59q-36 -41 -105 -41q-66 0 -86 43q51 303 316 817l-74 -29l-4 74l-70 -86l-30 43 l-99 -139l-14 188l-35 -10q-108 -217 -205.5 -495t-134.5 -494l84 20l-4 -74l74 27l24 -66l-49 -32l15 -29l-35 -29q113 -30 338 -30q84 0 125 6q64 10 110 30.5t78 56t53.5 77.5t42.5 106q5 14 29.5 86.5t31 91t29 84t31.5 90.5t30 84t33 90t32 83.5t35.5 89.5t34.5 82 t38 87zM1243 1006l70 49q-33 -71 -66.5 -152.5t-56.5 -139t-59.5 -160t-50 -141.5t-55.5 -161.5t-50 -146.5q-59 -169 -148 -227t-274 -58q-249 0 -356 37l43 35l-2 4q-139 18 -226 51l72 57l-16 27l-35 -12l4 82l-92 -21q39 251 141.5 554t224.5 544l115 35l8 -111l60 84 l32 -47l86 78l33 -80l113 33q-26 -74 -51 -123l4 -70l75 29q57 129 86 184l76 -63l2 -11l76 64l23 -76l63 74l43 -60l115 47q-25 -83 -56 -157z" />
<glyph unicode="v" horiz-adv-x="931" d="M1153 1159l-74 -18l-18 47l-111 -80l-16 55l-131 -104l26 155l-45 -10l-327 -485h-23l78 444l-20 -16l-56 -121l-33 104l-47 -49l-32 105l-62 -86l-37 61q-140 -591 -205 -1147l15 -16l74 74l22 -52l113 148l18 -131l66 35l43 -68q124 211 381 594q263 387 401 561z M1188 1051l94 24q-152 -188 -422 -590q-11 -17 -76 -113.5t-87 -130.5t-70.5 -108.5t-84 -132.5t-69.5 -117l-47 72l-53 -47l-62 94l-80 -104l-24 53l-70 -70l-45 103l-57 -60l-68 72q23 195 81 515t104 543l47 222l67 -82l70 84l43 -98l47 47l18 -60q19 20 53 46.5t59 42.5 l24 16l-48 -291l9 -29l71 148l13 -41l129 192l139 31l-19 -100l89 67l16 -57l104 76l27 -66l158 25q-60 -82 -99 -133z" />
<glyph unicode="w" horiz-adv-x="1552" d="M1817 1167l-13 19l-147 -88l-10 59l-148 -110l21 161l-95 -73l-26 59q-172 -214 -334 -508h-23l62 432l-64 -10l-36 53l-91 -182l-14 154l-70 -52l-26 70q-201 -223 -328 -477h-22q14 115 21.5 168.5t24 146t36.5 166.5l-19 21l-96 -136l-31 117l-59 -55l-17 86l-39 -49 l-28 30q-84 -233 -138 -545.5t-67 -588.5l65 57l25 -39l88 123l19 -123l61 45l45 -80q185 309 395 557h21q-16 -83 -26.5 -190t-13.5 -159.5t-9 -192.5l63 51l29 -45l88 63l20 -90l119 176v-172l10 -12q307 614 777 1163zM1911 1098l20 -35q-477 -560 -786 -1180l-23 27v139 l-86 -160l-49 95l-98 -97l-19 78l-67 -57l-41 100l-107 -86q2 64 17 316q-126 -175 -226 -342l-49 86l-53 -66l-55 94l-56 -78l-24 37l-76 -61l-37 106l-110 -96q13 347 73 705.5t166 640.5l45 -47l54 71l38 -86l56 49l24 -90l68 94l82 -88q-24 -83 -39 -168l63 91l33 -35 l-6 -25q71 98 178 217l33 -84l88 64l6 -64l49 78l66 -78l102 19l-22 -160l4 -6l61 10q72 105 203 266l35 -75l119 90v-148l114 88l15 -67l129 77l55 -96q-39 -45 -113 -139l2 -10z" />
<glyph unicode="x" horiz-adv-x="1017" d="M725 594l477 545v41l-108 -64l-11 64l-157 -123l26 114l-65 -22l-37 55l-238 -272l-65 276l-51 -39l-60 66l-24 -96l-50 28l-24 -157l-84 147l-18 -33l106 -501l-494 -574l11 -33l84 52l22 -72l158 108l-10 -92l61 21l27 -49l254 295l67 -304l47 41l52 -61l26 82l68 -41 l39 131l82 -102l8 6zM1315 1096v-64l-477 -543l118 -563l-18 -20l-66 82l-24 -27l-25 -84l-67 41l-29 -86l-55 68l-41 -37l-68 80l-71 -64l-37 162l-154 -178l-29 55l-82 -24l-28 53l-101 -70l-22 74l-84 -51l-43 90l-86 -51l-33 124l494 574l-105 496l72 129l55 -99l15 84 l55 -30l33 102l90 -80l78 59l45 -196l30 22l13 -51l186 215l53 -78l97 37l6 -59l106 84l14 -74l123 72v-152l-55 -61l6 -27z" />
<glyph unicode="y" horiz-adv-x="894" d="M598 508l528 608v43l-94 -61l-22 61l-142 -125l9 109l-70 -33l-35 72l-235 -271l-66 277l-41 -39l-61 39l-23 -60l-74 78l-18 -157l-92 100l-10 -16l131 -603l-185 -518l80 45l21 -53l102 133l21 -108l40 28l41 -71zM1239 1075v-63l-530 -613l-201 -540l-47 82l-47 -76 l-56 96l-59 -80l-25 60l-92 -54l-30 97l-148 -82l225 633l-133 606l58 92l61 -68l18 135l95 -79l18 43l78 -52l78 72l49 -207l29 27l12 -51l192 221l47 -96l101 47l-4 -70l104 92l25 -71l121 77v-155l-50 -56l11 -30z" />
<glyph unicode="z" horiz-adv-x="948" d="M1067 922l-43 26l-123 4q53 82 121 121l-61 41l32 60q-107 16 -282 16q-164 0 -449 -19l-10 -20l106 -53l-135 -39l33 -51l-66 -50l43 -32l-47 -56q139 11 230 11q124 0 202 -19q-329 -262 -638 -641l83 -20l-18 -80l100 -41l-96 -47l6 -23q92 -12 279 -12q219 0 360 14 l21 31l-101 41l140 74l-62 55l51 59q-88 -6 -180 -6q-90 0 -151 15q53 69 114.5 136.5t135.5 138t127.5 119.5t144.5 129t133 118zM1128 856l58 -35q-343 -305 -533 -502h203l-92 -102l84 -76l-39 -28l63 -60l-131 -69l90 -37l-28 -47q-151 -15 -367 -15q-184 0 -286 13 l-11 39l29 14q-75 3 -152 12l-28 98l30 15l-32 33l16 53l-113 28q233 294 541 578q-2 0 -166 -12l58 65l-9 6q-80 -4 -229 -18l76 109l-54 40l80 62l-43 70l76 20l-37 18l49 93q270 18 447 18q243 0 397 -27l-47 -82l86 -57l-37 -57l66 -45l-27 -21l35 -20l-80 -72z" />
<glyph unicode="{" horiz-adv-x="821" d="M975 1487l69 57l-141 -10l64 68l-72 8l41 53l-88 8l2 47q-73 -27 -176.5 -106.5t-145.5 -143.5q-6 -8 -10.5 -18t-7.5 -17.5t-5.5 -20.5t-3.5 -19t-2 -21.5t-1.5 -19.5t-1 -21.5t-0.5 -19.5q0 -3 -1 -27t-1 -31t-2 -27t-5 -30.5t-8 -25.5t-12 -27q-34 -56 -141 -107.5 t-203 -79.5l57 -61l-82 -27l21 -57l-53 -33q42 -19 58 -27t53.5 -31t55 -41.5t33 -48.5t15.5 -63q0 -38 -19 -78t-41.5 -69.5t-41.5 -70.5t-19 -79q0 -99 63.5 -213.5t147.5 -191.5l45 -2l-47 143l139 -51l-4 55l86 -24l-68 159l78 -4q-47 72 -47 119q0 16 25 62.5t50 110 t25 122.5q0 129 -102 272q22 15 66 42.5t70 46.5t56.5 48t45 65t14.5 81q0 7 -1 21.5t-1 21.5q0 77 53 160t123 119l49 24zM1032 1593l127 -28l-86 -78l64 -53l-41 -50l55 -32l-68 -31q-67 -31 -118.5 -113t-51.5 -157q0 -7 1 -21.5t1 -21.5q0 -39 -11 -71.5t-27 -55 t-43.5 -46t-50 -37.5t-57.5 -36t-56 -37q1 -1 2 -5t2 -5q9 -18 32 -61.5t32 -64t18.5 -58t9.5 -76.5q0 -59 -25 -124.5t-50 -112t-25 -60.5q0 -34 55 -129l-80 2l70 -162l-93 25l5 -58l-136 51l48 -139l-66 6q-15 13 -55 58l-64 4q-96 86 -168.5 213t-72.5 241 q0 45 18.5 90.5t41.5 75t41.5 65.5t18.5 66q0 34 -24 62t-58 45l5 2q-27 17 -58 32.5t-73 35t-60 28.5l96 59l-26 70l57 19l-59 65q65 18 135 41.5t155 66t105 78.5q6 11 9.5 24t5.5 30.5t3 29t1.5 32t0.5 26.5q4 130 43 186q61 87 186 172.5t232 118.5l-4 -72l131 -14 l-43 -55l86 -11z" />
<glyph unicode="|" horiz-adv-x="1007" d="M1155 1470l78 29l-76 53l10 54q-117 4 -348 4q-84 0 -130 -1t-116.5 -8.5t-126.5 -21.5l-40 -47l124 -23q-3 -2 -24 -14.5t-33 -21t-26.5 -20t-18.5 -19.5l72 -19l-29 -55q65 10 117 10q33 0 63 -6q-89 -161 -167 -344t-171.5 -434.5t-136.5 -358.5q-100 -22 -194 -28 l-19 -27l39 -55l-78 -29l78 -55l-20 -47q131 -6 391 -6q223 0 338 28l41 45l-125 23q92 59 102 78l-72 16l29 55q-65 -10 -117 -10q-31 0 -61 6q41 124 211 557q74 192 155 357q86 171 107 225q88 20 195 26l18 27zM1214 1575l125 -90l-67 -27l-2 -4l65 -61l-61 -31l37 -51 l-29 -37q-97 -6 -192 -27q-14 -34 -31 -70t-39 -80.5t-33 -68.5q-111 -228 -290 -702q-13 -33 -19 -50q17 3 52 9.5t52 9.5l-49 -90l86 -21l-43 -53l33 6l-21 -37l62 -12l-23 -25l23 -6q-20 -36 -94 -77l118 -21l-55 -63q-111 -29 -340 -29q-274 0 -411 6l24 53l-8 6 q-30 1 -91 3.5t-91 3.5l37 75l-121 88l104 39l-22 33l55 74q108 7 184 22q34 86 125 323.5t159.5 402t143.5 315.5q-109 -4 -192 -21l49 92l-86 21l63 78l-94 16l111 127q147 37 405 37q205 0 408 -6z" />
<glyph unicode="}" horiz-adv-x="829" d="M817 774l53 33q-42 19 -58 27t-53.5 31t-55 41.5t-33 48.5t-15.5 63q0 38 19 78t41.5 69t41.5 69.5t19 78.5q0 99 -63.5 213.5t-147.5 191.5l-45 4l49 -143l-141 51l4 -55l-86 22l68 -157l-78 2q47 -72 47 -117q0 -16 -24.5 -62.5t-49 -110t-24.5 -122.5q0 -134 100 -274 q-22 -16 -65.5 -42.5t-70 -45.5t-57 -47.5t-45 -64.5t-14.5 -81q0 -7 1 -22.5t1 -22.5q0 -79 -51.5 -163.5t-122.5 -114.5l-51 -23l51 -31l-70 -57l142 10l-64 -67l72 -11l-41 -51l88 -10l-2 -47q73 27 176.5 106.5t145.5 143.5q6 8 10.5 18t7.5 17.5t5.5 20.5t3.5 19 t2 21.5t1.5 19.5t1 21.5t0.5 19.5q0 3 1 27t1 31t2 27t5 30.5t8 25.5t12 27q34 56 141 107.5t203 79.5l-57 63l82 27zM993 705l-61 -39l22 -60l-77 -24l57 -64q-102 -29 -210.5 -79t-143.5 -107q-21 -35 -24 -98.5t-7.5 -127t-30.5 -100.5q-46 -68 -154.5 -151t-185.5 -107 l2 53l-94 15l-55 -21l4 72l-131 12l43 55l-84 13l41 43l-148 8l117 92l-70 43q23 12 67.5 33.5t66.5 32.5q58 28 102.5 97.5t44.5 133.5q0 7 -1 22.5t-1 22.5q0 43 11.5 80t29.5 63t47.5 52t56.5 44.5t65 42.5q3 2 5 3t5 3t5.5 3.5t5.5 3.5q-82 131 -82 258q0 59 35 158 q2 6 19 40.5t32 66t15 32.5q0 11 -6 28t-19 40.5t-21 37t-24.5 39.5t-17.5 27l90 -4l-55 160l96 -11l-6 64l116 -43l-39 115l140 -11q60 -54 102.5 -116t95.5 -156q38 -67 53 -95t33.5 -84.5t18.5 -105.5q0 -41 -18.5 -81.5t-40.5 -68.5t-41.5 -66t-20.5 -74 q30 -20 63 -37.5t78.5 -38.5t65.5 -31l-86 -55q95 -49 104 -53z" />
<glyph unicode="~" horiz-adv-x="1146" d="M1008 758l82 71l-15 21l-106 -19l59 89l-49 8q-19 -13 -54 -38t-52 -35.5t-46.5 -24.5t-60 -19.5t-68.5 -5.5q-31 0 -55.5 13t-41.5 31.5t-34.5 37.5t-44.5 32t-61 13q-45 0 -97 -19.5t-135 -65.5t-90 -50l45 -33l-65 -49l-4 -21l92 15l-80 -103l82 -20l-4 -51 q22 11 63.5 36t64.5 37.5t61.5 23.5t78.5 11q39 0 63.5 -10.5t38.5 -25.5t29.5 -30t46.5 -25.5t78 -10.5q67 0 116 13.5t101 49.5q11 8 32.5 25t39.5 29.5t35 21.5l34 53zM1116 778l90 -30l-76 -89l74 -22l-43 -68q-43 -21 -82.5 -50.5t-61 -47t-68.5 -30.5t-118 -13 q-58 0 -88.5 12.5t-68.5 53.5q-54 7 -94 36h-9q-49 0 -91 -15t-104.5 -52.5t-80.5 -46.5l6 59l-70 17l-88 -46l11 101l-117 28l49 64l-41 14l45 111l-35 51q12 6 87 46t116 60t102 41t101 21t72 -13t52 -31.5t37.5 -37.5t36 -32t39.5 -13q43 0 83.5 13t60.5 24.5t65.5 44.5 t61.5 43l145 -25l-35 -53l19 2l59 -82q-7 -5 -17.5 -16.5t-17.5 -20.5z" />
<glyph unicode="&#xa1;" horiz-adv-x="796" d="M717 938l-23 49l-92 -153l37 186l-29 -25l-51 -90l2 107l-37 -39l2 96l-30 -6q-241 -563 -670 -1180l16 -45q66 30 158 111l4 -68l86 74l-24 -135l165 145l-36 -112l73 8q295 513 449 1077zM578 1102l30 33l-10 61l-82 -76l62 17v-35zM932 1563l-70 -11l-6 43l-65 -104 l-21 82l-37 -41l-22 84l-35 -27h-39q-53 -171 -119 -311l51 31l-4 -74l70 63l10 -65l31 33l20 -23l86 84l-16 -137l27 -25q103 214 139 398zM973 1462l74 11q-39 -213 -148 -426l-41 36l12 115l-16 -16l-45 -101l-51 45l-17 -18l-8 43l-16 12l-62 -55l4 63l-45 -49v-57 l105 86l-14 -68l67 -141q-3 -10 -22 -66.5t-23 -87.5l72 119l32 -71q-155 -572 -454 -1086l-94 -12l28 92l-137 -119l-2 86l-31 -2l-45 -39v23l-86 -74l-8 51q-21 -19 -63 -37l-23 64l39 55v10q-39 -35 -143 -84l-43 127q446 639 690 1215l49 12l6 99l-96 -48 q100 201 182 473l59 -2l82 60l17 -60l35 41l16 -61l76 82l20 -92l90 12l-28 -121z" />
<glyph unicode="&#xa2;" horiz-adv-x="776" d="M977 1681l-68 -10l-8 47l-80 -102l-10 80l-47 -35l-8 68l-37 -41l-39 18q-81 -169 -121 -303q-160 -60 -279 -194t-177 -298.5t-58 -337.5q0 -184 80 -294q-64 -155 -92 -293l69 10l7 -45l65 106l21 -84l36 43l23 -84l35 27l39 -2q44 134 73 207q137 9 258 82l-51 53 l31 37l-117 22l109 76l-64 12l37 68q-98 -35 -145 -35q-58 0 -78.5 40.5t-20.5 105.5q0 64 22 146t60.5 159.5t101 130.5t132.5 53q34 0 72 -20l2 69l63 2l-41 117l135 -51l-22 86l57 20q-45 36 -82 54q52 154 117 290zM1020 1581l76 10q-57 -117 -99 -233l45 -39l-67 -25 q63 -38 90 -63l-66 -25l5 -73l-113 28l39 -108l-68 -2l-2 -78q-15 11 -43.5 19.5t-48.5 8.5q-65 0 -122.5 -52t-93 -128t-56.5 -153.5t-23 -137.5q96 11 221 58l-47 -105l113 -22l-25 -17l-35 -67l31 -6l-18 -25l47 -10l-70 -47l41 -43l29 -6l-35 -43l53 -56 q-127 -81 -268 -90q-46 -115 -72 -207l-43 2l-45 -32l-22 77l-35 -41l-10 41l-76 -71l-10 61l-62 -28l-12 24l-64 -51v111l-90 -13q34 174 99 346q-74 118 -74 303q0 133 35 264.5t99.5 247.5t164.5 210t223 145q36 118 141 334l50 -25l88 74l10 -70l47 35l6 -41l74 78 l18 -96l115 16q-37 -76 -53 -115z" />
<glyph unicode="&#xa3;" horiz-adv-x="1044" d="M1001 1583l39 45q-85 29 -166 29q-113 0 -219.5 -53t-183.5 -142q-111 -122 -111 -321q0 -107 39 -219q-133 -11 -215 -27l39 -47l-82 -35l-10 -25l102 -8l-114 -88l51 -30l-18 -48l145 11q-266 -338 -406 -494l43 -6l-12 -47l80 16l-10 -90q189 -35 409 -35 q221 0 367 43l41 47l-107 27l-32 51l78 37l-78 19l49 49l-35 12l37 37q-88 -8 -199 -8q-67 0 -102 6q202 232 299 356q31 1 93.5 4t94.5 4l62 41l-70 60l115 34l-4 29l-117 29l100 61l-49 33q-123 0 -186 -2q-39 119 -39 190q0 98 51 156.5t148 58.5q38 0 71 -8l-14 60 l57 35l-135 65l129 39zM1161 1530l-45 -51l27 -54q-45 -6 -94 -45l106 -51l-65 -41l16 -69q-58 12 -86 12q-93 0 -141 -55.5t-48 -149.5q0 -19 3 -37q22 0 64 1t63 1l126 -86l-63 -39l90 -61l-76 -62l82 -20l8 -43l-106 -33l65 -57l-73 -49l-189 -6q-79 -103 -157 -195 q122 12 188 20l-80 -84l37 -14l-41 -41l129 -28l-84 -41l23 -9l-31 -30l94 -23l-86 -100l113 -27l-53 -61q-156 -45 -373 -45q-216 0 -422 37l6 45q-79 9 -154 24l9 66l-93 -21l21 74l-84 10q190 210 399 473l-110 -6l30 80l-79 47l71 55l-41 4l45 107l37 16l-49 60 q150 30 242 39q-23 94 -23 174q0 217 123 354q86 97 202 155t240 58q107 0 254 -59l-65 -74l10 -19q47 -9 88 -26z" />
<glyph unicode="&#xa4;" horiz-adv-x="1325" d="M909 971q-90 -61 -153.5 -197t-73.5 -256q43 17 83.5 73t68.5 128t46.5 135.5t28.5 116.5zM950 1001q0 -57 -21 -145t-56.5 -177t-93 -152.5t-120.5 -63.5q-50 0 -71 37.5t-21 91.5q0 56 24.5 142t64.5 170t100.5 144t122.5 60q71 0 71 -107zM1245 1059l279 203l-64 6 l4 69l-104 -14l2 82l-78 -25l-96 -116q-33 53 -62 82l-8 -89l-57 25l10 -92l-182 80l63 53l-39 25l23 53q-169 -3 -303 -101l-80 238l-18 -51l-56 20l-12 -69l-96 10l-9 -80l136 -209q-94 -131 -161 -302t-67 -314q0 -65 11 -119l-256 -186l63 -7l-4 -69l104 14l-2 -82 l78 27l111 131q49 -41 103.5 -56.5t127.5 -15.5q151 0 283 78l67 -205l21 51l53 -20l12 72l97 -13l10 82l-115 172q96 131 158 319.5t53 342.5zM1513 1313l150 -15l-86 -61l-4 -61l82 -11l-297 -213q0 -9 1 -27.5t1 -27.5q0 -137 -59 -304.5t-144 -287.5l45 -67l-2 -19 l62 -94l-13 -94l-96 10l-12 -74l-58 23l-24 -70l-39 115l-14 4l-52 -139l-65 194q-74 -26 -180 -26q-150 0 -230 67l-106 -127l-94 -31l2 84q-55 -2 -146 -38l2 94l-108 -15l6 84l-150 15l340 245q-8 62 -8 95q0 144 63.5 314.5t155.5 305.5l-127 195l19 147l96 -10l14 84 l66 -25l53 140l86 -260l14 34l25 -75q121 63 332 63l-37 -86l22 -14v10l74 -31l12 121q10 -9 34.5 -31.5t41 -38.5t31.5 -34l61 73l160 54l-2 -95l109 15z" />
<glyph unicode="&#xa5;" horiz-adv-x="1245" d="M1352 1591l-70 -28l-14 45l-123 -133l-8 81l-39 -32l-15 69l-47 -28l-32 12q-87 -228 -271 -502q-64 205 -82 504l-26 -25l-35 37l-41 -82l-55 107q-28 -32 -56 -137l-67 94l-25 -19q19 -257 76 -555q-115 -9 -162 -14l-63 -35l75 -55l-129 -33l7 -22l131 -27l-111 -55 l49 -29l262 12l4 -20q-14 -22 -42.5 -67.5t-43.5 -67.5q-183 -8 -286 -23l43 -41l-95 -33l-8 -18l115 -10l-127 -80l55 -25l-20 -43l139 4q-87 -124 -184 -247l43 2v-39l100 94v-70l57 33l5 -29l96 74l-27 -143l14 -27q128 145 289 363l393 12l64 35l-76 55l127 33l-4 22 l-131 27l111 55l-52 29h-243q33 47 106 162q196 8 297 8l-39 37l92 33l11 18l-115 8l127 82l-55 25l20 43q-118 4 -182 4q179 315 293 575zM1391 1475l82 32q-77 -185 -216 -444l62 -2l-31 -68l94 -43l-47 -28l23 -2l-23 -48l64 -30l-117 -74l98 -6l-16 -37l-82 -29l45 -43 q-2 0 -272 -6l145 -82l-65 -33l18 -4l8 -32l56 -31l-43 -21l6 -18l-56 -14l99 -21l10 -39l-119 -28l72 -52l-80 -45l-389 -12q-156 -210 -297 -369l-23 41l21 115l-111 -125l-55 107l2 4l-88 -82v53l-53 -2l10 14v37l-100 -94v104l-101 -2q126 157 191 246l-119 -2l33 72 l-93 43l74 47l-35 2l54 106l32 13l-53 53q164 27 287 35l-43 24l53 27l-96 -4l-146 82l66 33l-18 4l-27 102l72 19q3 36 29.5 66.5t62.5 49.5q19 2 57 6.5t57 6.5q-45 258 -67 532l90 66l37 -54q3 10 18 34t36 55t24 36l51 -94l29 59l51 -55l69 62q6 -99 15 -205l14 -17 l35 31q6 -120 24 -240q125 217 187 388l59 -23l86 53l12 -57l46 37l8 -64l102 115l27 -76l133 53q-24 -58 -72 -163z" />
<glyph unicode="&#xa6;" horiz-adv-x="571" d="M455 580l-49 -5l-17 58l-115 -88l17 102l-25 -4l-55 -70l-35 50q-87 -175 -158 -435l-16 -59l18 -55l86 80l-4 -117l27 -14l64 100l38 -82l56 47q96 301 168 492zM766 1417l-49 -2l-10 60l-123 -76l26 98h-24l-62 -65l-30 53q-99 -155 -199 -416l-23 -57l13 -58l94 72 l-14 -119l24 -16l74 96l31 -86l59 41q139 327 213 475zM483 459l58 6q-63 -159 -172 -508l-68 -59l-39 79l-59 -94l-39 19l2 84l-86 -76l-29 125l-53 -51l-51 143l14 51q89 314 209 545l45 -64l23 35l116 13l-6 -41l72 53l24 -88l88 8q-19 -47 -57 -150zM760 1466l88 2 l-70 -143l6 -31h58q-79 -154 -221 -491l-72 -51l-31 82l-69 -89l-37 23l10 84l-92 -68l-17 127l-59 -45l-35 148l19 47q115 298 258 524l39 -67l26 32h117l-10 -39l77 48z" />
<glyph unicode="&#xa7;" horiz-adv-x="1183" d="M750 813q0 44 -27 90q-57 -29 -57 -100q0 -65 22 -92q62 39 62 102zM799 813q0 -60 -35 -103.5t-94 -62.5q-7 11 -30 45.5t-33.5 53t-25.5 48t-21.5 57t-6.5 54.5q0 57 36.5 89t96.5 40q3 -4 10 -12q35 -41 52 -64.5t34 -64t17 -80.5zM1137 1470l47 27l-144 49l127 33 l-30 35l32 33q-86 22 -168 22q-59 0 -120 -13t-118.5 -40t-102.5 -65.5t-72 -94t-27 -119.5q0 -33 6 -67q-68 -10 -131 -35t-118 -64t-88 -98.5t-33 -130.5q0 -70 25 -134t60.5 -112t70.5 -92t60 -92.5t25 -95.5q0 -84 -63 -129t-150 -45q-58 0 -123 20l17 -20l-62 -6 l68 -78l-150 24l33 -63l-41 -8l29 -56l-72 -6q30 -38 141 -61t185 -23q73 0 149 16.5t148 51.5t126.5 83.5t83.5 119.5t21 153q91 16 172.5 61t138 122.5t56.5 170.5q0 62 -23 126t-56.5 117.5t-66.5 105t-56 106t-23 102.5q0 69 48.5 100.5t121.5 31.5q40 0 69 -5z M1214 1430l99 -33l-60 -33l27 -53q-58 8 -88 8q-70 0 -116 -29t-46 -94q0 -28 6.5 -51.5t11.5 -33.5t23.5 -37.5t24.5 -37.5q17 -28 55 -102q4 -7 21.5 -39t22.5 -42t18.5 -37.5t18.5 -42.5t12.5 -39.5t10 -46.5t2.5 -46q0 -93 -55.5 -172.5t-137 -126.5t-171.5 -63v-33 q0 -76 -34.5 -142t-91 -111t-128 -77.5t-145 -47.5t-142.5 -15q-94 0 -198 24t-148 76q-27 8 -48 17t-33.5 15t-29.5 20.5t-24 21t-28.5 29.5t-32.5 34l106 10l-25 43l41 11l-51 96l113 -19l-37 43l68 9l-64 88q150 -58 254 -58q67 0 115.5 27t48.5 88q0 35 -24 77.5 t-58.5 87t-69 94.5t-58.5 117.5t-24 139.5q0 74 31 138t83.5 109t116 76t134.5 46q0 6 -1 18.5t-1 18.5q0 73 30.5 134.5t81 103t115.5 70.5t132.5 42.5t133.5 13.5q124 0 265 -41l-60 -61l43 -51l39 -91q-66 -15 -84 -20z" />
<glyph unicode="&#xa8;" horiz-adv-x="643" d="M682 1470l-41 25l-92 -45l-8 45l-103 -82l13 109l-23 18q-90 -160 -123 -313l39 -10l82 49l12 -52l64 46l33 -60l32 8q54 152 115 262zM1061 1454l-43 -22l4 69l-33 -2l-71 -59l-9 82l-80 -39l-16 51q-86 -158 -117 -297l58 6l26 -39l82 78l15 -86l43 37l38 -16 q51 140 103 237zM1130 1346l58 28q-66 -118 -121 -272l-43 16l-33 -24l-33 65l-100 -92l-41 63l-47 -6l-41 64l-18 -2q-24 -62 -33 -90l-47 -11l-31 58l-65 -49l-13 51l-92 -35l-37 76l-41 -23l-106 27q25 118 64 217.5t104 210.5l92 -74l-2 -14l74 59l10 -63l57 28l92 -59 q22 45 68 125l55 -66l92 48l6 -62l97 35l18 -57l74 -2q-24 -62 -49 -109l37 2z" />
<glyph unicode="&#xa9;" horiz-adv-x="1685" d="M700 158h19q-37 18 -66 47q-155 38 -209 209q13 -116 33 -156q28 -50 92.5 -75t130.5 -25zM1184 1227l49 18q-90 74 -203 74q-100 0 -196.5 -57t-176.5 -144q-88 -96 -137 -242t-49 -286q0 -73 15 -133.5t47 -110t88.5 -77t132.5 -27.5q121 0 237 69l-43 43l25 33 l-101 19l95 65l-54 10l31 56q-81 -29 -123 -29q-27 0 -45 10.5t-26 30.5t-10.5 39t-2.5 45q0 54 19 124.5t52 137.5t86.5 112.5t113.5 45.5q32 0 59 -15l2 58l53 2l-35 100l115 -43zM1348 977q0 68 -17 151l-33 -10l23 -82l-115 43l33 -94l-57 -2l-2 -65q-31 22 -70 22 q-56 0 -105 -40t-80.5 -100.5t-50.5 -122.5t-24 -114q25 5 54 13.5t47.5 15.5t54.5 20.5t49 18.5l-64 -113l103 -20l-93 -66h5l63 23l-16 -31l14 -4l-31 -35l58 -12l-54 -37l29 -31q115 96 197 303t82 369zM1323 1165q-5 23 -16 52l-45 -17q36 -16 61 -35zM1286 1264 q-17 36 -47 69q-12 2 -37 2q-7 0 -20.5 -1t-20.5 -1q62 -22 125 -69zM1399 979q0 -170 -84 -385t-203 -320q-190 -168 -407 -168q-97 0 -172 41t-118.5 110.5t-65 152.5t-21.5 176q0 130 34.5 256t102 235t159 192.5t213.5 131t257 47.5q80 0 142 -47t95.5 -120.5 t50.5 -150.5t17 -151zM1651 1032q0 434 -242 574q-78 46 -201 49l-53 -27l72 -84l-119 17l-47 -33l-49 41h-142l86 69l-28 33q-123 -6 -238 -59t-205.5 -138.5t-166.5 -196.5t-125.5 -232.5t-77 -246.5t-27.5 -239q0 -107 24.5 -210t73 -196t131.5 -161t189 -92 q125 -27 227 -27q267 0 531 221q119 99 209 263.5t134 339t44 335.5zM1763 930q0 -164 -44.5 -339.5t-135 -339.5t-211.5 -267q-263 -224 -536 -224q-105 0 -230 27q-30 6 -55 15.5t-39 16.5t-42.5 24t-45.5 26q-10 5 -34.5 16t-41.5 20t-33 19q-91 61 -155.5 171.5 t-93.5 228t-29 233.5q0 124 30 257.5t84 261.5t136 243t181 203t223.5 141.5t258.5 58.5l113 -131l33 23h4l-29 33l129 59q77 -4 131.5 -15t106.5 -42q117 -71 184 -201q3 -6 10 -25t13 -28q7 -13 23.5 -38.5t23.5 -39.5q37 -72 54 -179t17 -208z" />
<glyph unicode="&#xaa;" horiz-adv-x="933" d="M586 1116q-42 -59 -69.5 -135.5t-33.5 -149.5l27 19q70 247 76 266zM700 1292q-17 -44 -32.5 -88.5t-32 -99.5t-26 -86.5t-29 -101.5t-25.5 -91q-45 -57 -121 -57q-4 -2 -12 -2q-16 0 -27.5 14.5t-16.5 37.5t-7 41t-2 34q0 41 15 107t41 134t67.5 117t87.5 49q20 0 60 -4 t60 -4zM739 131l115 35l-6 29l-115 28l98 62l-47 32q-8 0 -82.5 -0.5t-89 -1t-80 -1t-89 -2t-80.5 -4t-89 -5.5t-79.5 -7.5t-88 -10.5t-81.5 -13l38 -47l-81 -35l-11 -22l103 -10l-115 -88l51 -31l-18 -45q410 26 756 37l61 39zM971 1391l-58 -9l-14 58h-63l63 80 q-65 53 -192 53q-47 0 -93 -6q-111 -17 -207 -98.5t-156 -193.5t-94 -235t-34 -231q0 -60 13 -111.5t39.5 -94.5t73.5 -68t109 -25q72 0 213 100l-18 -100l59 37l17 -53l63 51l41 -47q20 106 51 230.5t56.5 213t67.5 232t63 217.5zM961 100l8 -43l-107 -32l66 -58l-74 -49 q-290 -9 -774 -39l20 53l-24 15l-160 -10l31 79l-80 47l72 56l-41 4l43 106l39 17l-50 59q133 28 297 42.5t274.5 17.5t299.5 4l125 -86l-64 -39l31 -8l2 -15l59 -39l-45 -26l4 -25l-34 -10zM1022 1290l65 10q-21 -77 -64.5 -225t-69.5 -240.5t-58 -222t-53 -239.5l-47 55 l-68 -55l-18 55l-68 -43l12 61l-49 -38l-12 34q-76 -45 -131 -45q-103 0 -170 70q-60 13 -104 46.5t-68.5 80.5t-35.5 99.5t-11 113.5q0 106 26 218.5t79 219.5t125.5 191.5t174.5 136t217 51.5q175 0 273 -98l-29 -37l8 -29l35 -16l59 10l-30 -111z" />
<glyph unicode="&#xab;" horiz-adv-x="1589" d="M1165 1339l-4 23q-74 -15 -172 -57l12 45l-47 -13l13 49l-142 -59l13 51l-31 -4q-50 -36 -99 -74.5t-122 -98.5t-94 -77q-25 -20 -81.5 -67t-88 -73t-78 -65t-86 -74t-76.5 -69l65 -28l-41 -23l50 -18l-50 -31q286 -340 431 -510l26 31l53 -13l-8 56l92 -56l9 15l-11 84 l82 -41l43 6q-259 290 -413 514q133 110 424 340q213 165 331 237zM1749 1331l-2 21q-65 -12 -174 -58l14 45l-47 -12l12 51l-141 -59l10 49l-28 -4q-60 -43 -103 -78v-4q-21 -14 -37 -22q-29 -24 -88 -72.5t-88 -73.5q-35 -29 -102.5 -84t-109 -89.5t-98 -82.5t-101.5 -90 l67 -29l-41 -22l49 -21l-49 -30q71 -85 214 -255t214 -255l27 30l53 -12l-6 57l92 -57l6 14l-10 86l84 -43l41 7q-267 299 -412 516q242 197 424 338q189 149 330 239zM1872 1307l2 -35q-101 -62 -313 -228q-264 -203 -439 -348q159 -234 416 -518l-61 -8l-66 33l-12 -86 l-70 37l-2 -45l-61 14l-31 -37l-47 57l-17 4l-49 -61q-13 15 -493 586l30 20l-51 19l43 26l-55 17q-10 -8 -29.5 -23.5t-29.5 -23.5q150 -221 415 -521l-59 -6l-68 33l-12 -86l-70 37v-45l-63 14l-29 -37l-47 58l-16 4l-49 -64q-373 443 -494 588l31 18l-51 21l41 24l-58 19 q127 120 436 373q225 186 336 266l119 16l-8 -24l125 43l2 -49l51 12l-10 -35q35 16 149 43l9 -82l-101 -65q77 32 135 47q48 38 115 84l117 18l-6 -27l125 46l2 -52l51 15l-13 -35q47 19 150 43l8 -82l-98 -68q95 41 170 56z" />
<glyph unicode="&#xac;" horiz-adv-x="1579" d="M1534 891l-92 14l18 105q-203 14 -440 14q-174 0 -269.5 -2t-243.5 -15t-267 -40l-29 -29l82 -39l-160 -49l88 -31l-59 -37l65 -32q-10 -5 -40.5 -17t-47 -19.5t-39.5 -20.5t-39 -27l23 -27q524 70 969 70h86q-60 -175 -97 -250l54 30l-4 -57l51 29l-19 -99q35 24 109 41 l-12 -75l65 20q167 228 248 543zM1563 809l86 -12q-81 -324 -254 -559l-84 -27l12 76q-66 -13 -111 -45l7 30l-62 -20l12 76l-114 -60l18 94l-39 -20l4 55l-120 -69q75 146 124 266q-359 -5 -860 -70l-32 43q46 31 57 35l-146 -18l-71 94q8 6 27 20.5t29.5 22t27.5 17 t32 14.5l-51 24l49 31l-92 47l138 55l-29 15l94 88q122 28 272 42t254.5 16.5t274.5 2.5q282 0 506 -16q-13 -61 -21 -109q24 -3 96 -16q-10 -41 -34 -123z" />
<glyph unicode="&#xad;" horiz-adv-x="890" d="M702 684l115 35l-6 29l-115 28l101 62l-49 32h-62q-272 0 -461 -36l39 -48l-82 -34l-10 -23l102 -10l-114 -88l51 -31l-18 -45q188 17 518 29l61 41zM825 797l113 -62l-96 -61l82 -21l8 -43l-107 -32l66 -58l-74 -49q-344 -12 -536 -31l20 54l-27 16q-106 -8 -159 -14 l32 82l-79 47l71 55l-41 4l43 109l39 14l-49 59q260 56 582 56h51l125 -86z" />
<glyph unicode="&#xae;" horiz-adv-x="1685" d="M614 168l-4 57l-32 -20l-7 45l-39 -45q32 -23 82 -37zM838 178l-58 133q-19 -60 -45 -149l-51 59l-33 -37v-4h-2l-14 -16q34 -6 70 -6q61 0 133 20zM928 211l-19 39l-16 10l-27 -74q60 24 62 25zM1257 569q-58 -58 -129 -88l29 -78q50 68 100 166zM1348 1116l16 -18 q-32 136 -127 225q-24 6 -51 6q-42 0 -62 -2q84 -17 143 -72.5t81 -138.5zM1425 999q0 -170 -94.5 -392t-218.5 -333q-194 -168 -407 -168t-314 191l78 139l14 -112l33 22l6 -76l60 70l47 -55q41 144 80 233l34 8l105 -239l18 51l64 -41l20 55l76 -71l4 100l70 -29l-86 236 q124 55 209.5 179t85.5 257q0 121 -75.5 190.5t-197.5 69.5q-103 0 -235 -27l4 -51l-45 -12l8 -78l-53 2l-21 -61l-51 55q-167 -370 -256 -768l-20 -6q-39 101 -39 248q0 129 32.5 254t96.5 233.5t152.5 191t208 130t255.5 47.5q79 0 147 -41.5t111.5 -107t68.5 -143 t25 -151.5zM1032 948q0 -54 -42.5 -92.5t-96 -54t-105.5 -15.5l84 205q40 19 78 19q39 0 60.5 -13t21.5 -49zM1665 1044q0 92 -14.5 176t-49 163.5t-85.5 137.5t-130 94.5t-178 39.5l-53 -27l72 -84l-119 17l-47 -33l-49 41h-142l86 69l-28 33q-123 -6 -238 -59.5 t-205.5 -139t-166.5 -196.5t-125.5 -232.5t-77 -246t-27.5 -238.5q0 -85 14.5 -168t47.5 -163t80.5 -145t118.5 -114t157 -69q111 -27 225 -27q273 0 533 221q120 102 213 266.5t140.5 342.5t47.5 341zM1778 942q0 -165 -48 -344.5t-142 -345t-216 -268.5 q-264 -224 -536 -224q-119 0 -230 27q-20 5 -38.5 11t-39.5 16t-32.5 16t-37 20t-34.5 19t-51 25.5t-62 33.5q-89 58 -153.5 169.5t-92.5 229t-28 230.5q0 125 30 258.5t84 261.5t136 243t181 202.5t223.5 141t258.5 58.5l113 -131l33 23h4l-29 33l129 59q78 -4 117 -12 q113 -21 211.5 -112.5t132.5 -201.5q117 -142 117 -438z" />
<glyph unicode="&#xaf;" horiz-adv-x="794" d="M940 1501l115 35l-6 29l-115 28l100 62l-49 33q-194 -2 -268.5 -3t-225 -11.5t-266.5 -31.5l39 -47l-82 -34l-10 -23l102 -10l-114 -88l51 -31l-18 -45q410 26 755 37l62 41zM1161 1470l8 -43l-106 -32l65 -58l-73 -49q-290 -9 -774 -39l20 54l-25 14l-159 -10l30 79 l-79 48l71 55l-41 4l43 109l39 14l-49 59q133 28 296.5 42.5t274 17.5t299.5 4l125 -86l-63 -39l92 -62l-76 -61z" />
<glyph unicode="&#xb0;" horiz-adv-x="841" d="M610 1317q0 -41 -12.5 -96.5t-34.5 -111.5t-60 -95t-83 -39q-66 0 -66 90q0 52 27 128.5t77.5 141t104.5 64.5q47 0 47 -82zM868 1327q0 78 -27.5 156.5t-82.5 113.5l-6 -55l-43 8v-69l-136 57l50 41l-29 18l16 39q-178 -6 -302.5 -125t-190.5 -303q-33 -94 -33 -174 q0 -138 75 -227.5t210 -89.5q87 0 166.5 37.5t139 100t103.5 141t67 164.5t23 167zM981 1225q0 -104 -37.5 -213.5t-102.5 -200.5t-162.5 -149t-207.5 -58q-122 0 -197 72q-79 20 -134.5 76t-81 128t-25.5 154q0 95 37 193q86 229 234 345t384 116l-31 -70q0 -3 1 -10.5 t1 -10.5q0 -12 -8 -36l6 -2q49 46 68 110q58 -26 101 -74.5t65 -109.5q44 -49 67 -119t23 -141z" />
<glyph unicode="&#xb1;" horiz-adv-x="1017" d="M739 -6l115 35l-6 28l-115 29l101 61l-50 33q-184 -1 -266 -3t-229.5 -12.5t-263.5 -31.5l38 -45l-81 -35l-11 -24l103 -9l-115 -90l51 -28l-18 -47q378 24 756 36l61 41zM940 774l115 35l-6 29l-115 28l100 62l-49 33q-29 0 -199 -5q69 203 125 322l-69 -10l-8 49 l-80 -105l-9 80l-49 -35l-6 68l-39 -41l-37 19q-94 -215 -137 -359q-163 -12 -252 -29l39 -47l-82 -34l-10 -23l102 -10l-114 -88l51 -31l-18 -45l198 10q-69 -191 -92 -311l68 8l8 -43l63 107l23 -84l35 43l22 -84l37 26l37 -2q66 217 125 357q159 8 231 10l62 41z M1161 743l8 -43l-106 -32l65 -58l-73 -49q-156 -4 -230 -8q-52 -126 -112 -324l88 2l125 -86l-64 -39l31 -8l2 -14l59 -39l-45 -29l4 -22l-34 -10l82 -21l8 -43l-107 -33l66 -57l-74 -49q-290 -9 -774 -39l20 53l-24 15l-160 -11l31 80l-80 45l72 56l-41 4l43 108l39 17 l-50 57q157 34 406 49l-10 72l-90 -13q29 151 59 250l-14 -2l20 53l-25 15l-159 -10l30 79l-79 48l71 55l-41 4l43 108l39 15l-49 59q156 31 307 43q46 138 152 379l49 -24l88 94l10 -90l49 34l5 -41l75 99l19 -117l112 16q-40 -82 -53 -114l8 -49l78 10q-42 -88 -76 -176 h47l125 -86l-63 -39l31 -6l2 -15l59 -41l-45 -26l4 -25l-35 -10z" />
<glyph unicode="&#xb2;" horiz-adv-x="784" d="M758 1487q0 92 -71.5 155.5t-164.5 63.5q-72 0 -146 -30.5t-134 -80.5l43 -16l-25 -39l33 -10l-14 -47l63 18l-6 -37q63 39 121 39q32 0 57 -15t25 -46q0 -36 -62 -130t-147 -197.5t-160.5 -190t-114.5 -125.5l33 -4l-14 -43l53 12l-6 -43q120 -12 237 -12q132 0 230 18 l24 27l-80 16q16 30 52 59l-47 7l24 28l-12 10l12 19q-37 -4 -110 -4q-47 0 -72 2q6 7 40 47.5t50.5 61t53 65.5t58 75t53 73.5t50 77.5t37.5 71t28 68t9 57zM836 1425q0 -49 -29.5 -116.5t-84.5 -145.5t-89 -122t-86 -107q16 2 49.5 6t50.5 6l-43 -63l14 -13l-2 -4l56 -6 q-30 -26 -41 -43l14 -12l-12 -12l57 -13l-57 -63l72 -12l-48 -56q-100 -18 -237 -18q-136 0 -256 14l4 31q-2 0 -6 1t-6 1q-12 0 -47 -10l6 12l-41 6l4 25l-68 -17l23 66l-70 8q108 96 297.5 324.5t231.5 330.5q-48 -9 -119 -57l10 51l-68 -18v2l-41 -29l15 72l-72 -21 l25 78l-45 15l26 43l-59 24q191 164 362 164q50 0 107 -23q30 -13 51.5 -28t41 -40t27.5 -38.5t31 -54.5q4 -7 15.5 -26.5t15 -27.5t10 -23.5t9 -30t2.5 -30.5z" />
<glyph unicode="&#xb3;" horiz-adv-x="854" d="M784 1520q0 110 -64 153t-179 43q-145 0 -234 -59l27 -29l-33 -26l43 -27l-27 -29l31 -24l-31 -39l62 2q30 22 51 29.5t57 7.5q38 0 65.5 -16.5t27.5 -51.5q0 -32 -25 -61.5t-64 -50.5t-73.5 -35t-67.5 -23l35 -39l-49 -16l12 -33l-33 -20q30 -15 39.5 -19.5t33.5 -20 t33 -27.5t18.5 -32.5t9.5 -44.5q0 -41 -23.5 -72t-61.5 -48t-76.5 -25t-76.5 -8t-86 10l12 -49l-74 -11l33 -32l-37 -23l27 -33l-43 -16l2 -12q126 -23 199 -23q105 0 197.5 43t152 127.5t59.5 190.5q0 94 -45 155q79 59 127.5 141t48.5 173zM862 1458q0 -91 -47 -175 t-123 -142q39 -61 39 -150q0 -111 -61.5 -199t-158 -133t-206.5 -45q-88 0 -213 25l-4 27q-51 8 -80 14l-12 72l22 8l-20 24l33 21l-56 53l111 16l-20 72q87 -24 155 -24q39 0 78.5 9t74 35.5t34.5 65.5q0 32 -15 48t-49 32l4 2q-38 21 -117 57l68 41l-16 43l28 11l-35 39 q242 66 263 139q-45 0 -95 -37l-100 -4l33 41l-146 -6l60 78l-35 26l25 25l-48 28l41 37l-30 31q131 94 307 94q49 0 86.5 -6t73.5 -21.5t62 -46.5t40 -77q49 -57 49 -148z" />
<glyph unicode="&#xb4;" horiz-adv-x="890" d="M856 1493l29 43l-80 27l72 49l-17 18l-100 -4l49 64l-51 14l-45 -14q-200 -56 -332 -125l51 -25l-47 -41l2 -18l82 14l-47 -86l51 -10l6 -37q123 49 377 131zM944 1513l74 -26l-33 -49q-245 -79 -389 -138l-8 43l-27 5q-26 -10 -115 -43l-10 63l-82 16l31 56l-33 -6 l-16 84l24 18l-63 33q164 92 412 162l39 12l131 -35l-31 -41l113 -18l-46 -64l70 2l25 -28z" />
<glyph unicode="&#xb5;" horiz-adv-x="1093" d="M1229 1126l-49 -32l-31 55l-109 -170l-2 160l-67 -76l-27 84l-12 12q-27 -55 -53.5 -112.5t-54.5 -127.5t-45 -112t-50.5 -129.5t-44.5 -116.5q-73 -207 -96 -237q-31 -41 -103 -41q-66 0 -86 43q52 309 314 817l-72 -29l-4 74l-70 -86l-30 43l-99 -139l-16 188l-33 -10 q-47 -94 -93.5 -211t-72 -191.5t-75 -226.5t-66.5 -203q-98 -288 -184 -590l82 66l45 -59l104 149l-2 -184l49 30l37 -47q10 33 37.5 128.5t42.5 146.5q113 -10 203 -10q84 0 125 6q125 22 182.5 81.5t101.5 188.5q5 14 29.5 86.5t31 91t29 84t31.5 90.5t30 84t33 90 t32 83.5t35.5 89.5t34.5 82t38 87zM1286 1006l70 49q-25 -54 -50 -113t-44.5 -106.5t-45 -116t-40 -108t-42 -118t-38 -109t-40.5 -118.5t-38 -112q-59 -169 -148 -227t-274 -58q-107 0 -195 8q-2 -6 -82 -285l-43 56l-57 -33l-55 82l-4 -2l-33 -47l-14 18l-37 -20v61 l-94 -74l22 78l-33 45l-166 -131q91 325 230 742q14 43 67.5 208t78.5 237.5t74 195.5t97 219l117 35l8 -111l60 84l32 -47l88 112l31 -114l133 53q-1 -2 -73 -143l6 -70l75 29q57 129 86 184l74 -63l4 -11l76 84l21 -96l61 96l45 -82l137 88q-18 -39 -40.5 -102.5 t-35.5 -95.5z" />
<glyph unicode="&#xb6;" horiz-adv-x="1650" d="M893 1386q-129 -275 -258 -628q-61 0 -82 39.5t-21 105.5q0 52 13.5 115.5t41 129t65 120t90.5 89t112 34.5q9 0 39 -5zM1260 1374l188 -22q-59 -99 -117 -223.5t-93.5 -215t-88.5 -235.5l-166 24q160 433 277 672zM1851 1524l-96 6l31 78l-119 -9l41 76l-514 43 q-70 4 -102 4q-192 0 -364 -61.5t-292 -190.5q-102 -111 -160.5 -283.5t-58.5 -334.5q0 -380 307 -410q-96 -288 -123 -409l33 -41l105 129l-9 -164q46 34 93 113l4 -103l43 41l10 -94l45 12q61 222 135 445l189 4q-11 -36 -55.5 -155.5t-61.5 -186.5l31 -41l104 129 l-6 -164q45 32 92 113l2 -103l45 41l10 -94l45 12q100 356 312 908q178 471 284 690zM1872 1438l98 -8q-20 -41 -40.5 -86t-37 -81.5t-38.5 -89.5t-34 -83t-36 -90.5t-33 -83.5t-35 -91t-33 -86q-220 -569 -317 -923l-63 -17l-9 86l-2 -2l-43 -41l-2 29l-71 -18l-25 -23 l4 66l-47 -43l-2 71l-41 -51l-8 12l-53 -47l6 129l-47 -57l-74 94q-23 -79 -51 -188l-64 -17l-10 86v-2l-45 -41v29l-72 -18l-24 -23l2 66l-45 -43l-5 71l-38 -51l-11 12l-53 -47l6 129l-47 -57l-86 110q31 132 107 369l-25 19q-73 22 -125.5 67.5t-81.5 107t-42 128 t-13 141.5q0 172 62 354t171 299q128 137 309 203t384 66q18 0 106 -5l592 -51l-35 -61l111 6l-37 -86l102 -8q-26 -49 -59 -131z" />
<glyph unicode="&#xb7;" horiz-adv-x="509" d="M500 864l-51 -30l4 73l-68 -63l-10 65l-31 -32l-22 22l-86 -86l16 139l-27 25q-100 -207 -137 -397l68 10l8 -45l63 106l23 -84l35 43l22 -84l37 27l37 -2q55 177 119 313zM563 750l64 36q-72 -145 -135 -348l-43 2l-46 -32l-20 77l-35 -41l-12 41l-76 -71l-10 61 l-41 -39l-31 35l-43 -51l-20 110l-90 -12q52 281 184 541q92 -92 135 -107l43 52l33 -58l72 64l14 -84l96 45q-16 -32 -39.5 -94t-32.5 -82l37 34z" />
<glyph unicode="&#xb8;" horiz-adv-x="796" d="M559 193h-262l-80 -199q-3 -7 -8.5 -27t-11.5 -30q-11 -18 -38.5 -27t-43.5 -9.5t-49 -0.5q-58 0 -117 6l-23 -33l129 -57l-123 -31l37 -49l-59 -49q77 -9 156 -9q57 0 91 1.5t74 8.5t65 20.5t51.5 37t46.5 59.5t38 86q20 54 64.5 154.5t62.5 147.5zM575 100h101 q-19 -48 -64.5 -153t-66.5 -162q-23 -62 -50.5 -102.5t-55.5 -64t-73.5 -35t-86 -14.5t-111.5 -3q-106 0 -180 10l59 51q-53 0 -237 23l90 94l-56 74l54 12q-9 24 -33 41l57 90q85 -10 131 -10q21 0 53 4q28 4 40.5 17.5t23.5 41.5l92 230h371q-21 -56 -58 -144z" />
<glyph unicode="&#xb9;" horiz-adv-x="458" d="M565 1669l-26 -8l-9 29l-49 -37l-4 69q-202 -87 -299 -157l33 -19l-45 -49l59 4l-16 -33l49 -10q-168 -314 -254 -688l19 -29l61 84l-2 -96l18 14l29 48l12 -50l23 13l6 -54l29 7q132 473 366 962zM610 1620l47 14q-243 -495 -385 -1001l-55 -15l-4 48l-20 -11l-3 9 l-38 -11l-25 -20l2 53l-14 -6l-2 10l-29 -37l-10 15l-33 -25v55l-21 -26l-61 90q71 320 238 668l-47 10l8 16l-86 -6l73 86l-41 23q162 122 412 225l2 -51l31 22l16 -43l80 27l-43 -90z" />
<glyph unicode="&#xba;" horiz-adv-x="970" d="M797 1212q-90 -61 -154 -196t-74 -254q43 17 83.5 72.5t69 127t47 134.5t28.5 116zM838 1243q0 -57 -21 -145t-56.5 -177t-93 -152.5t-120.5 -63.5q-90 0 -90 131q0 56 24 142t63.5 170t99.5 144t122 60q72 0 72 -109zM739 131l115 35l-6 29l-115 28l98 62l-47 32 q-8 0 -82.5 -0.5t-89 -1t-80 -1t-89 -2t-80.5 -4t-89 -5.5t-79.5 -7.5t-88 -10.5t-81.5 -13l38 -47l-81 -35l-11 -22l103 -10l-115 -88l51 -31l-18 -45q410 26 756 37l61 39zM1135 1260q0 205 -121 329l-8 -88l-60 25v-88l-170 75l64 54l-39 22l22 56q-98 -2 -183.5 -36.5 t-148.5 -88t-118 -131t-92 -154t-70 -168.5q-55 -150 -55 -283q0 -170 85 -266t253 -96q418 0 591 557q50 155 50 281zM1247 1157q0 -141 -51 -301.5t-151.5 -301.5t-225.5 -198l107 -73l-64 -39l31 -8l2 -15l59 -39l-45 -26l4 -25l-34 -10l82 -21l8 -43l-107 -32l66 -58 l-74 -49q-290 -9 -774 -39l20 53l-24 15l-160 -10l31 79l-80 47l72 56l-41 4l43 106l39 17l-50 59q166 36 467 51l-41 31q-87 23 -145 86t-81.5 141t-23.5 170q0 142 58 301q42 114 88 202t109.5 167t139.5 130.5t177.5 81.5t222.5 30l-37 -84l31 -19v11l66 -29l12 123 q84 -78 137 -168q2 -4 10.5 -21.5t14.5 -25.5q5 -7 21.5 -28t23.5 -32q67 -107 67 -266z" />
<glyph unicode="&#xbb;" horiz-adv-x="1515" d="M891 854l70 43q-10 13 -72.5 94t-83 109t-66 90t-77 110t-60.5 97l-35 -31l-55 20l23 -83l-66 28l-2 -28l-33 -3l2 -73l-123 80l-14 -13q44 -80 155.5 -224t153.5 -214q-42 -37 -86 -79t-77.5 -74.5t-81.5 -82.5t-73 -76t-78 -83.5t-70.5 -76.5t-76 -84t-71.5 -79h74v-26 l139 67v-49l41 14l-15 -57l56 16l22 -12q106 146 250 289t348 321l-47 31l64 19zM1008 750l16 14l-27 -8zM1466 850l70 43q-9 12 -46.5 61t-49.5 64.5t-45 59.5t-48.5 65t-43 60t-45.5 66t-39.5 61t-40.5 65l-33 -33l-58 22l25 -86l-68 29l-2 -29l-32 -2l2 -71l-123 78 l-12 -13q44 -81 155 -225.5t152 -212.5q-48 -42 -93.5 -84.5t-97.5 -95.5t-83 -84.5t-91.5 -97t-79.5 -86t-89.5 -98.5t-80.5 -89h74v-27l141 68v-49l39 14l-12 -57l53 16l25 -12q107 147 252.5 292t345.5 318l-49 31l65 18zM1667 836l-68 -41l39 -25l-65 -16l43 -29 q-200 -172 -349.5 -321.5t-258.5 -301.5l-29 17l-68 -21l-57 45l-115 -32q11 26 11 43l-103 -2l-55 -27l-2 59h-101q-50 -67 -57 -78l-31 15l-65 -19l-57 45l-115 -32q9 33 8 43l-100 -2l-56 -27l-2 59l-110 -2q30 33 118 131.5t131.5 145.5t117.5 126t140.5 143t135.5 126 q-39 63 -150 210t-155 230l63 60l74 -45v20h37l4 56l43 -15l12 58l78 -21l63 62q52 -86 86 -136l19 21q24 -43 54.5 -91t53.5 -82t66.5 -91.5t61 -80.5t70.5 -90.5t65 -82.5l-70 -41l22 -15q26 22 78 70q-39 63 -150 210t-155 230l66 62l73 -47l-2 20h37l6 55l41 -14l13 60 l77 -23l66 63q35 -66 84 -137l18 21q29 -51 62 -102t77 -111.5t71 -96t85 -110t76 -98.5z" />
<glyph unicode="&#xbc;" horiz-adv-x="1697" d="M1481 1587l-27 64l-86 -54l27 99l-58 -23l-71 -69l18 108l-53 -14l12 74h-49q-93 -105 -182 -217.5t-187.5 -254t-154.5 -225t-168 -254.5q-8 -13 -61 -93.5t-66 -100.5t-59.5 -92t-64.5 -101t-58 -93t-62.5 -103t-55 -94.5t-59 -105t-51.5 -99.5l6 -41q63 21 138 71 l-11 -71l80 32l-10 -90l115 94v-86l30 9q218 392 619 987q129 192 182 269.5t162 222.5t205 251zM602 1669l-24 -8l-11 29l-49 -37l-2 69q-202 -87 -299 -157l31 -19l-43 -49l57 4l-14 -33l47 -10q-168 -314 -254 -688l18 -29l64 84l-2 -96l18 14l29 48l12 -50l23 13l6 -54 l27 7q132 473 366 962zM1612 805q0 110 -64.5 153t-179.5 43q-146 0 -235 -59l26 -29l-31 -26l43 -29l-28 -27l33 -24l-31 -39l59 2q29 22 51.5 29.5t59.5 7.5t64.5 -16.5t27.5 -51.5q0 -32 -25 -61.5t-63.5 -51t-73.5 -36t-67 -23.5l34 -37l-51 -16l15 -33l-33 -20 q29 -14 39 -19.5t33.5 -20.5t33 -27.5t18.5 -32.5t9 -44q0 -41 -23.5 -72t-61.5 -48t-76.5 -25t-76.5 -8q-40 0 -88 10l15 -49l-76 -10l35 -33l-37 -23l24 -32l-43 -17l2 -12q126 -23 201 -23q78 0 151 26t130.5 71.5t92 114.5t34.5 149q0 95 -45 156q80 59 129 140.5 t49 172.5zM649 1620l47 14q-243 -495 -385 -1001l-55 -15l-6 48l-21 -11l-2 9l-37 -11l-26 -20l2 53l-12 -6l-4 10l-29 -37l-10 15l-33 -25l2 55l-23 -26l-59 90q71 320 238 668l-50 10l9 16l-84 -6l73 86l-43 23q162 122 412 225l2 -51l33 22l14 -43l80 27l-43 -90z M1690 743q0 -91 -47.5 -175.5t-124.5 -141.5q38 -59 38 -150q0 -112 -61 -200t-156.5 -133t-205.5 -45q-85 0 -215 26l-5 25l-77 14l-13 74l23 8l-21 25l33 20l-55 53l108 17l-18 71q87 -24 156 -24q38 0 77.5 9t73 35.5t33.5 65.5q0 32 -15 49.5t-47 30.5l3 2 q-62 34 -115 58l65 41l-16 43l31 10l-37 39q241 66 262 139q-42 0 -92 -37l-101 -4l33 41l-145 -6l59 76l-20 16q-438 -640 -676 -1069l-49 -14l2 78l-117 -95l8 74l-37 -10v16l-41 -16l2 14l-86 -69l9 75l-47 -20l-7 47l-22 -10l8 57q-24 -15 -115 -49l-18 123 q27 53 54.5 106t62 112t58 100.5t66.5 109.5t61.5 99t69 108t63.5 97t70 106.5t66 99.5q113 173 166.5 252.5t152.5 221t187.5 252t181.5 212.5h134l-11 -54l54 15l-9 -55l134 55l-21 -74l25 16l63 -149l-49 -57l70 43l34 -80q-61 -66 -129.5 -153t-106.5 -140t-116 -164 q69 16 133 16q102 0 169.5 -32.5t94.5 -118.5q50 -59 50 -148z" />
<glyph unicode="&#xbd;" horiz-adv-x="1562" d="M1409 1587l-27 64l-86 -54l27 99l-57 -23l-72 -69l18 108l-53 -14l12 74h-49q-93 -105 -182 -217.5t-187.5 -254t-154.5 -225t-168 -254.5q-269 -411 -373 -587q-92 -155 -163 -295l6 -41q62 20 137 71l-10 -71l79 32l-10 -90l117 94l-2 -86l31 9q223 401 618 987 q129 192 182 269.5t162 222.5t205 251zM602 1669l-24 -8l-11 29l-49 -37l-2 69q-202 -87 -299 -157l31 -19l-43 -49l57 4l-14 -33l47 -10q-168 -314 -254 -688l18 -29l64 84l-2 -96l18 14l29 48l12 -50l23 13l6 -54l27 7q132 473 366 962zM1524 776q0 92 -71.5 155.5 t-164.5 63.5q-72 0 -146 -30.5t-134 -79.5l43 -17l-25 -41l33 -8l-15 -47l64 19l-6 -37q63 39 121 39q32 0 57 -15.5t25 -46.5q0 -46 -105 -190.5t-214 -271.5t-165 -183l33 -4l-14 -41l53 12l-6 -43q120 -12 237 -12q132 0 230 18l24 27l-80 16q16 32 52 60l-47 6l24 29 l-12 10l12 18q-37 -4 -110 -4q-47 0 -72 2q6 7 40 47.5t50.5 61t53 65.5t58 75t53 73.5t50 77.5t37.5 71t28 68t9 57zM1602 715q0 -142 -289 -492l100 13l-43 -64l14 -12l-2 -4l56 -6q-26 -23 -41 -46l14 -10l-12 -12l57 -12l-57 -64l71 -14l-47 -53q-106 -19 -237 -19 q-136 0 -256 14l4 31q-2 0 -6 1t-6 1q-13 0 -48 -10l7 12l-41 4l4 27l-68 -16l23 65l-70 8q107 95 297 325t231 331q-56 -10 -118 -58l10 52l-68 -21v4l-41 -28l15 71l-72 -20l23 73q-142 -211 -233 -348.5t-210.5 -330.5t-212.5 -361l-49 -14l2 78l-117 -95l9 74l-37 -10 v16l-41 -16l2 14l-86 -69l8 75l-47 -20l-6 47l-23 -10l8 57q-30 -17 -114 -49l-19 123q56 112 134.5 246t127 211.5t150.5 236.5l-2 25l-21 -11l-2 9l-37 -11l-26 -20l2 53l-12 -6l-4 10l-29 -37l-10 15l-33 -25l2 55l-23 -26l-59 90q71 320 238 668l-50 10l9 16l-84 -6 l73 86l-43 23q144 111 412 225l2 -51l33 22l14 -43l80 27l-43 -90l10 -29l47 14q-163 -334 -327 -815q122 187 177 270.5t161 236.5t200 270.5t193 226.5h133l-10 -54l53 15l-8 -55l133 55l-21 -74l25 16l65 -149l-51 -57l70 43l35 -80q-25 -27 -51 -57t-45.5 -53t-49 -61.5 t-42.5 -55.5t-46.5 -63.5t-41 -57t-45.5 -64.5t-42 -59q74 24 131 24q55 0 107 -22q40 -17 69 -44.5t40.5 -46.5t41.5 -71l13.5 -22.5l13.5 -22.5t9.5 -19t8.5 -23t4.5 -22.5t2.5 -27.5z" />
<glyph unicode="&#xbe;" horiz-adv-x="1966" d="M778 1520q0 110 -64 153t-179 43q-145 0 -234 -59l27 -29l-33 -26l43 -27l-27 -29l31 -24l-31 -39l62 2q30 22 51 29.5t57 7.5q37 0 64.5 -16.5t27.5 -51.5q0 -32 -24.5 -61.5t-63.5 -50.5t-73.5 -35t-67.5 -23l35 -39l-49 -16l12 -33l-33 -20q29 -14 39 -19.5 t33.5 -20.5t33 -27.5t18.5 -32.5t9 -44q0 -41 -23.5 -72t-61 -48t-76 -25t-76.5 -8t-86 10l12 -49l-74 -11l33 -32l-37 -23l25 -33l-41 -16l2 -12q127 -23 199 -23q105 0 197.5 43t152 127.5t59.5 190.5q0 94 -45 155q79 59 127.5 141t48.5 173zM1698 1587l-27 64l-88 -54 l29 99l-58 -23l-71 -69l18 108l-55 -14l14 74h-49q-94 -105 -184 -219t-185.5 -250.5t-157 -228.5t-167.5 -253q-138 -210 -197 -302t-162.5 -264.5t-175.5 -315.5l6 -41q63 21 138 71l-11 -71l80 32l-10 -90l115 94l-2 -86l30 9q218 392 619 987q91 136 134.5 199.5 t123 175t149.5 199t144 169.5zM1894 969l-43 -29l-14 25l-31 -45l-12 71l-55 -71l-15 30l-36 -35l-13 23q-62 -136 -135 -346q-106 -8 -168 -19q22 60 55.5 129.5t57 112.5t69.5 123l-47 -20l-14 34l-55 -69l-2 104l-54 -57l-18 37q-135 -236 -240 -500l43 -10l-10 -39l39 8 l-12 -51q219 27 295 33q-8 -28 -54.5 -164.5t-64.5 -212.5l18 -17l56 70l8 -59l22 18l17 -31l28 17l9 -15l26 49l19 -49q29 118 120 400l107 20l-43 29l31 22l-33 23l72 27l-33 26l14 33l-55 -6q100 275 151 381zM1593 825q-59 -102 -108 -207l33 3q8 23 23 64.5t27.5 75.5 t24.5 64zM1864 997l137 90q-35 -67 -86 -178l4 -6l80 51q-62 -123 -135 -313h6q-26 -49 -33 -72l25 -20l26 2l-8 -19l14 -12l-26 -10l-2 -6l43 -37l-62 -23l49 -34l-57 -11l55 -37l-137 -24q-84 -247 -129 -442l-24 67q-24 -43 -33 -94l-23 65l-12 -8l-8 19l-6 -13l-11 17 l-20 -15l-4 33l-23 -14v4l-22 -27l-39 33l6 23l-25 -31l-69 61q34 151 90 299l-180 -20l10 45l-102 -12l12 55q-22 22 -25 43l-51 12l10 25q-278 -426 -440 -717l-49 -14l2 78l-117 -95l8 74l-39 -10l2 16l-40 -16l2 14l-86 -69l8 75l-47 -20l-7 47l-22 -10l6 57 q-12 -8 -27.5 -15.5t-26.5 -12t-31 -11.5t-28 -10l-18 123q62 123 149.5 272t137.5 227.5t168 260.5q-112 -93 -285 -93q-88 0 -213 25l-4 27q-51 8 -80 14l-12 72l22 8l-20 24l33 21l-56 53l111 16l-21 72q87 -24 156 -24q39 0 78.5 9t73.5 35.5t34 65.5q0 32 -14.5 48 t-48.5 32l4 2q-38 21 -117 57l68 41l-17 43l29 11l-37 39q243 66 264 139q-44 0 -94 -37l-100 -4l33 41l-146 -6l60 78l-35 26l24 25l-47 28l41 37l-30 31q131 94 307 94q49 0 86.5 -6t73.5 -21.5t62 -46.5t40 -77q49 -57 49 -148t-47 -175t-123 -142q39 -61 39 -150 q0 -39 -10 -84q119 179 165 247.5t146.5 212t186 250t176.5 206.5h133l-11 -54l54 15l-11 -55l136 55l-21 -74l25 16l63 -149q-8 -9 -24.5 -28.5t-24.5 -28.5l70 43l34 -80q-58 -63 -122 -143.5t-103.5 -135t-109.5 -153.5v-52l26 35l27 -61l123 53l-80 -139l4 -8l35 14 q40 94 63 141l25 -51l37 37l10 -21l70 95l12 -66l8 12z" />
<glyph unicode="&#xbf;" horiz-adv-x="1046" d="M743 674l74 61l-104 45l53 37l-82 12l94 95h-131l27 65q-238 -62 -426.5 -219.5t-265.5 -378.5q-23 -67 -23 -127q0 -163 112 -276t275 -113q119 0 241.5 51t223.5 133l-70 29l41 66l-53 14l23 78l-109 -29l14 62q-109 -70 -208 -70q-58 0 -101 27.5t-43 82.5q0 22 6 43 q68 222 432 312zM989 1552l-80 -39l-8 52l-59 -80l-23 80l-35 -41l-22 84l-35 -27h-39q-44 -184 -123 -352l51 28l-4 -63l72 100l12 -69l29 32l23 -22l73 74l-4 -127l27 -25q104 213 145 395zM836 680l104 -43l-90 -74q-354 -86 -424 -301q4 0 13.5 -1t13.5 -1 q42 0 101.5 26.5t89 45.5t89.5 61l-22 -104l116 30l-34 -116l69 -21l-20 -30l28 8l-18 -62l57 -22l-51 -86l76 -29q-103 -89 -231.5 -144t-253.5 -55q-142 0 -246 82q-130 42 -212.5 161t-82.5 259q0 76 24 146q46 130 132 240t198 189.5t236.5 135t261.5 88.5l-37 -88 l141 -21l-71 -88l106 -16l-25 -19h33l-57 -55l65 -26l-32 -27h12zM1020 1427l86 39q-44 -211 -156 -428l-41 37l4 107l-6 -8q-14 -32 -47 -101l-51 45l-16 -20l-9 43l-12 12l-70 -94l5 78q-2 -1 -13 -7.5t-20 -12t-10 -7.5l-2 2l-19 -12l16 33l-6 32l-82 -102l-12 102 l-98 -26q69 133 112 246t74 249l64 -2l82 60l16 -60l35 41l20 -71l68 71l16 -84l113 53q-14 -73 -47 -180z" />
<glyph unicode="&#xc0;" horiz-adv-x="1167" d="M741 975h23q-48 -200 -64 -449q-32 4 -47 4q-36 0 -101 -10.5t-97 -11.5q29 49 84 149.5t102.5 177t99.5 140.5zM1102 1430l-33 18l-74 -84l-18 59l-62 -55l-26 82l-90 -100l-33 102l-27 21q-262 -298 -500.5 -685t-404.5 -765l88 34l2 -45l111 113l12 -70l43 39l12 -74 l41 25h43q19 33 55.5 97.5t55.5 97.5q36 3 149.5 17.5t176.5 14.5q42 0 65 -2q0 -104 2 -157q0 -22 4 -72l58 -39l39 100l36 -114l35 45l27 86l41 -90l28 47l37 -80l41 20q-4 166 2 363t15 337.5t25.5 369.5t23.5 344zM905 1667l90 21l-28 36l-43 17q-176 68 -346 94l14 -45 l-70 -4l-12 -14l72 -35l-109 -37l29 -37l-25 -29q154 -39 385 -114l56 14l-35 63l94 -4l4 23zM1174 1368l43 -29q-7 -117 -23.5 -347t-25.5 -371t-15 -339t-2 -364l-53 -29l-35 74l-31 -45l-16 35l-43 -23l-25 -39l-53 89l-33 -84l-76 55l-10 -23l-131 88q-8 98 -8 150 q-175 -23 -227 -27q-19 -33 -56 -98t-55 -98h-45l-53 -31l-13 70l-43 -39l-8 43q-21 -9 -50 -31t-48 -39l-19 -18l-2 53l-59 -21l-18 29l-84 -47l16 76l-133 -54q167 392 418.5 810t521.5 735q-116 34 -170 47l29 35l-15 18q-119 31 -121 31l48 53l-45 57l67 23l-29 14 l60 70h33l-19 59q229 -31 438 -112l37 -15l68 -98l-57 -12l65 -76l-86 -21l53 -36l-6 -35l27 28l96 -59l-8 -113z" />
<glyph unicode="&#xc1;" horiz-adv-x="1167" d="M741 975h23q-48 -200 -64 -449q-32 4 -47 4q-37 0 -103 -10t-95 -12q27 46 83.5 149.5t103.5 178.5t99 139zM1102 1430l-33 18l-74 -84l-18 59l-62 -55l-26 82l-90 -100l-33 102l-27 21q-263 -298 -502 -685.5t-403 -764.5l88 34l2 -45l111 113l12 -70l43 39l12 -74 l41 25h43q37 63 111 195q36 3 149.5 17.5t176.5 14.5q45 0 65 -2q0 -104 2 -157q0 -22 4 -72l58 -39l39 100l36 -114l35 45l27 86l41 -90l28 47l37 -80l41 20q-4 166 2 366t14 329.5t26 377.5t24 341zM1057 1509h2l-2 7l-27 4q-16 -6 -49 -18.5t-49 -18.5l8 -27l61 53 l15 -45zM1325 1665l29 43l-78 27l72 49l-19 18l-98 -4l49 64l-51 14l-47 -14q-205 -59 -330 -125l49 -25l-45 -41l2 -18l82 14l-49 -86l53 -10l4 -37q123 49 377 131zM1415 1686l74 -27l-33 -49q-232 -73 -360 -125l57 -35l-8 -113l29 31l43 -29q-7 -117 -23.5 -346.5 t-25.5 -370.5t-15 -339t-2 -365l-53 -29l-35 74l-31 -47l-16 37l-43 -23l-25 -39l-53 89l-33 -84l-76 55l-10 -23l-131 88q-4 46 -8 150q-191 -25 -227 -27q-69 -117 -111 -196h-45l-53 -31l-13 70l-43 -39l-8 43q-20 -9 -49 -31t-48 -39l-20 -18l-2 53l-59 -21l-18 29 l-84 -47l16 76l-133 -54q177 413 443 849.5t548 754.5l80 -59l8 -31l88 80l-2 12l-80 16l29 56l-33 -6l-14 86l22 18l-63 31q166 91 414 164l39 10l131 -35l-31 -41l111 -18l-46 -64l72 2l25 -26z" />
<glyph unicode="&#xc2;" horiz-adv-x="1167" d="M741 975h23q-48 -200 -64 -449q-32 4 -47 4q-37 0 -103 -10t-95 -12q27 46 83.5 149.5t103.5 178.5t99 139zM1102 1430l-33 18l-74 -84l-18 59l-62 -55l-26 82l-90 -100l-25 75l-106 -45l2 11q-243 -291 -462 -653t-374 -715l88 34l2 -45l111 113l12 -70l43 39l12 -74 l41 25h43q37 63 111 195q36 3 149.5 17.5t176.5 14.5q45 0 65 -2q0 -104 2 -157q0 -22 4 -72l58 -39l39 100l36 -114l35 45l27 86l41 -90l28 47l37 -80l41 20q-4 166 2 366t14 329.5t26 377.5t24 341zM1016 1464l28 31q-26 15 -43 27l-73 -31l12 -35l61 53zM1227 1626l96 10 l-25 39l-372 185q-264 -105 -367 -152l39 -27l-59 -45l-2 -18l84 14l-74 -94l45 -14l-6 -37l334 139q148 -100 251 -145l58 8l-31 70l98 -17l7 21zM1331 1710l99 -172l-89 -10l62 -53l-8 -35l-90 14l28 -65l-71 -11q-45 20 -109 56l-8 -97l29 31l43 -29 q-7 -117 -23.5 -346.5t-25.5 -370.5t-15 -339t-2 -365l-53 -29l-35 74l-31 -47l-16 37l-43 -23l-25 -39l-53 89l-33 -84l-76 55l-10 -23l-131 88q-4 46 -8 150q-191 -25 -227 -27q-69 -117 -111 -196h-45l-53 -31l-13 70l-43 -39l-8 43q-20 -9 -49 -31t-48 -39l-20 -18 l-2 53l-59 -21l-18 29l-84 -47l16 76l-133 -54q164 381 404 785t499 717l-20 6l14 16l-107 -45l11 78l-74 20l45 56l-39 10l33 96l-25 60l447 176z" />
<glyph unicode="&#xc3;" horiz-adv-x="1167" d="M741 975h23q-48 -200 -64 -449q-32 4 -47 4q-37 0 -103 -10t-95 -12q27 46 83.5 149.5t103.5 178.5t99 139zM1100 1421q-29 0 -47 6l-58 -63l-18 59l-62 -55l-26 82l-90 -100l-33 102l-6 6q-57 -35 -70 -41q-248 -295 -473.5 -665t-382.5 -729l88 34l2 -45l111 113 l12 -70l43 39l12 -74l41 25h43q37 63 111 195q36 3 149.5 17.5t176.5 14.5q45 0 65 -2q0 -104 2 -157q0 -22 4 -72l58 -39l39 100l36 -114l35 45l27 86l41 -90l28 47l37 -80l41 20q-4 165 1.5 362t14 333t25 369t23.5 341zM819 1448l62 55q-32 -2 -76 -20l6 -4zM940 1456 l27 23q-15 2 -39 14zM1251 1690l66 57l-10 16l-86 -14l47 72l-39 6q-13 -9 -52 -37t-54 -36t-48 -18t-71 -10q-24 0 -43.5 10.5t-33.5 26t-28 30.5t-35.5 25.5t-48.5 10.5q-29 0 -66.5 -13t-64.5 -27t-69.5 -37.5t-57.5 -31.5l37 -26l-53 -39l-4 -19l73 13l-63 -82l65 -17 l-2 -43q16 9 50.5 30t52.5 30.5t48.5 18.5t61.5 9q32 0 52 -8.5t31 -20.5t23 -24t36.5 -20.5t62.5 -8.5q101 0 174 52q12 7 40.5 29.5t45.5 31.5l27 43zM1339 1706l72 -25l-61 -71l59 -19l-35 -55q-32 -16 -61 -37.5t-44.5 -35.5t-45.5 -25.5t-72 -14.5l-6 -86l29 31l43 -29 q-7 -117 -23.5 -346.5t-25.5 -370.5t-15 -339t-2 -365l-53 -29l-35 74l-31 -47l-16 37l-43 -23l-25 -39l-53 89l-33 -84l-76 55l-10 -23l-131 88q-4 46 -8 150q-191 -25 -227 -27q-69 -117 -111 -196h-45l-53 -31l-13 70l-43 -39l-8 43q-20 -9 -49 -31t-48 -39l-20 -18 l-2 53l-59 -21l-18 29l-84 -47l16 76l-133 -54q166 389 414 802t514 728l-37 9l-70 -37l8 82l-94 22l39 53l-33 11l37 90l-29 41q13 6 71 37.5t92 48.5t82.5 34t80.5 17q39 0 69.5 -16.5t46 -36t35 -36t38.5 -16.5q35 0 67.5 10.5t48 20t52.5 37t49 35.5l116 -21l-28 -43 l14 2l49 -67q-6 -4 -14.5 -12.5t-13.5 -15.5z" />
<glyph unicode="&#xc4;" horiz-adv-x="1167" d="M741 975h23q-48 -200 -64 -449q-32 4 -47 4q-36 0 -101 -10.5t-97 -11.5q29 49 84 149.5t102.5 177t99.5 140.5zM1102 1427l-33 19l-74 -82l-18 59l-62 -55l-26 82l-90 -100l-33 102l-27 21q-262 -298 -500.5 -685t-404.5 -765l88 34l2 -45l111 113l12 -70l43 39l12 -74 l41 25h43q19 33 55.5 97.5t55.5 97.5q36 3 149.5 17.5t176.5 14.5q42 0 65 -2q0 -104 2 -157q0 -22 4 -72l58 -39l39 98l36 -112l35 45l27 86l39 -90l30 47l37 -80l41 20q-4 166 2 362.5t15 336.5t25.5 368.5t23.5 343.5zM819 1448l41 37l-8 14l-39 -29zM934 1827l-41 24 l-92 -45l-8 45l-103 -82l12 109l-22 18q-90 -160 -123 -313l39 -10l82 49l12 -51l64 45l32 -60l33 9q54 152 115 262zM1016 1464l16 19l-10 -2l-41 63l-18 -2q-17 -41 -27 -74l4 -12l61 53zM1313 1810l-43 -22l4 70l-33 -3l-72 -59l-8 82l-80 -39l-16 51q-86 -158 -117 -297 l58 6l26 -38l82 77l14 -86l43 37l39 -16q51 140 103 237zM1382 1702l58 29q-65 -116 -121 -273l-43 17l-33 -25l-33 66l-65 -60l8 -6l-8 -113l29 31l43 -29q-7 -117 -23.5 -347t-25.5 -371t-15 -339t-2 -364l-53 -29l-35 74l-31 -45l-16 35l-43 -23l-25 -39l-53 89l-33 -84 l-76 55l-10 -23l-131 88q-8 98 -8 150q-175 -23 -227 -27q-19 -33 -56 -98t-55 -98h-45l-53 -31l-13 70l-43 -39l-8 43q-21 -9 -50 -31t-48 -39l-19 -18l-2 53l-59 -21l-18 29l-84 -47l16 76l-133 -54q168 393 418.5 809.5t519.5 733.5l-33 65l-41 -22l-106 26 q25 118 64 217.5t104 210.5l92 -73l-2 -15l73 60l11 -64l57 29l92 -60q22 45 68 125l55 -65l92 47l6 -62l97 35l18 -57l74 -2q-24 -62 -49 -109l36 2z" />
<glyph unicode="&#xc5;" horiz-adv-x="1167" d="M741 975h23q-48 -200 -64 -449q-32 4 -47 4q-36 0 -101 -10.5t-97 -11.5q29 49 84 149.5t102.5 177t99.5 140.5zM1069 1612q0 -34 -63 -58.5t-125 -33.5t-99 -9q-28 0 -57 12.5t-29 37.5q0 30 33 51.5t83 31t89 13.5t70 4q98 0 98 -49zM1272 1612q0 54 -26.5 95t-70.5 63 t-91.5 33t-98.5 12l-27 -39l25 -52l-88 19l-98 -17l37 56l-23 14q-43 -9 -83.5 -20.5t-89.5 -33t-84 -47.5t-59 -65t-24 -84q0 -129 182 -174q-238 -289 -452 -644t-367 -705l88 34l2 -45l111 113l12 -70l43 39l12 -74l41 25h43q19 33 55.5 97.5t55.5 97.5q36 3 149.5 17.5 t176.5 14.5q42 0 65 -2q0 -104 2 -157q0 -22 4 -72l58 -39l39 100l36 -114l35 45l27 86l41 -90l28 47l37 -80l41 20q-4 164 1.5 361t14 333t25 370t23.5 341q172 75 172 191zM1384 1509q0 -122 -170 -196q-6 -103 -23 -338.5t-25 -368.5t-13.5 -328.5t-1.5 -359.5l-53 -29 l-35 74l-31 -45l-16 35l-43 -23l-25 -39l-53 89l-33 -84l-76 55l-10 -23l-131 88q-8 98 -8 150q-175 -23 -227 -27q-19 -33 -56 -98t-55 -98h-45l-53 -31l-13 70l-43 -39l-8 43q-21 -9 -50 -31t-48 -39l-19 -18l-2 53l-59 -21l-18 29l-84 -47l16 76l-133 -54 q152 355 371 731t460 681q-151 63 -151 196q0 226 401 309l84 -57h-2l4 -2l49 74q58 0 114 -10.5t110 -33.5t91.5 -67t47.5 -104q65 -59 65 -142z" />
<glyph unicode="&#xc6;" horiz-adv-x="1546" d="M776 1083h23q-59 -250 -80 -497q-32 4 -47 4q-35 0 -101 -12t-98 -13q31 54 89.5 165.5t108.5 196.5t105 156zM1602 1446l69 27l-80 32l41 41l-28 21l24 45q-53 2 -162 2q-264 0 -489 -25v-114l-84 67l-62 -102l-30 119l-27 22q-248 -300 -504 -721q-265 -433 -436 -835 l90 38v-49l115 125l10 -78l45 43l8 -81l43 26h43q20 36 59 108.5t58 108.5q43 3 154.5 20t173.5 17q42 0 65 -2q-4 -118 -4 -176q0 -55 2 -82l9 -14l57 67l33 -73l-19 -62q106 -12 162 -12q169 0 350 53l39 47l-121 21l84 73l13 25l-113 10l70 47l-23 25l23 26 q-168 -14 -218 -14q4 48 13 107t14 89t21 111.5t18 94.5l342 22l35 41l-62 45l50 27l-68 45l121 35l-90 34l57 48l-33 24h-67q-58 0 -263 -14q7 26 32.5 144t49.5 179q26 2 72.5 15t65.5 16q94 18 192 18q24 0 78 -4l22 50zM1667 1530l102 -60l-57 -63l49 -37l-41 -31 l35 -53l-26 -59q-54 4 -82 4q-172 0 -326 -49q-29 -79 -43 -150q94 4 143 4q40 0 58 -2l98 -73l-41 -31l109 -60l-50 -26l-36 -29l61 -41l-70 -31l43 -49l-49 -26l60 -43l-45 -52l-340 -22q-35 -190 -41 -229l200 16l-71 -86l-9 -33l88 -6l-32 -66l24 -26l-35 -23l82 -14 q-45 -76 -94 -111l119 -20l-55 -62q-192 -55 -355 -55q-76 0 -176 14l17 52q-77 3 -172 16l18 57l-25 -28l-57 78q-2 53 -2 159q-153 -24 -229 -30q-20 -36 -59 -108.5t-58 -108.5h-45l-55 -35l-9 78l-45 -43l-6 47q-80 -37 -121 -99v60l-69 -39l-8 49l-66 -74v105l-135 -60 q180 434 460 906t570 821l78 -66l4 -16l29 49l49 -39l-2 55q221 27 567 27q145 0 217 -2l-39 -78l33 -22z" />
<glyph unicode="&#xc7;" horiz-adv-x="987" d="M1219 1419l55 6q-62 111 -157.5 173.5t-217.5 62.5q-130 0 -267 -71.5t-218 -176.5q-180 -229 -287 -497t-107 -535q0 -290 201 -377l-4 -10q-3 -7 -8.5 -27t-11.5 -30q-11 -18 -38.5 -27t-43.5 -9.5t-49 -0.5q-58 0 -117 6l-23 -33l129 -57l-123 -31l37 -49l-59 -49 q77 -9 156 -9q57 0 91 1.5t74 8.5t65 20.5t51.5 37t46.5 59.5t38 86q5 14 15.5 39t15.5 39q173 17 373 183l30 53l-67 -19l14 68l-43 -12l23 88l-115 -68l35 96l-58 -14l9 27q-81 -70 -156 -70q-52 0 -85 37.5t-43.5 83t-10.5 96.5q0 121 75.5 309t157.5 308q28 41 46 64 t47.5 52t64 42.5t74.5 13.5q46 0 78.5 -27t62.5 -74l31 43l79 -6l-55 127l113 -53l10 57l78 -16zM1393 1315l-60 -8l15 -64l-84 17l-11 -62l-100 49l51 -119l-92 9l-35 -52q-31 53 -65 82l-39 -53l-53 80q-64 -6 -131 -71.5t-120.5 -162t-97 -204.5t-67 -205.5t-23.5 -157.5 q0 -18 23 -18q97 0 235 129l-4 -86l37 14v-55l82 41l-12 -105l20 11l4 -66l76 6q-8 -17 -22.5 -54t-22.5 -54l33 8l-15 -66l72 21l-41 -78q-197 -164 -373 -184q-25 -62 -28 -72q-23 -62 -50.5 -102.5t-55.5 -64t-73.5 -35t-86 -14.5t-111.5 -3q-106 0 -180 10l59 51 q-53 0 -237 23l90 94l-56 74l54 12q-9 24 -33 41l57 90q85 -10 131 -10q21 0 53 4q29 5 48 27q-185 105 -185 399q0 274 110 549.5t294 513.5q88 113 235 190.5t285 77.5q92 0 170 -31.5t138.5 -90t105 -124t86.5 -151.5z" />
<glyph unicode="&#xc8;" horiz-adv-x="901" d="M1018 1319l69 24l-79 29l39 37l-29 18l22 41h-84q-339 0 -573 -41l14 -41l97 -40l-152 -33l35 -33l-6 -35l98 -18l-82 -41q-123 -185 -246 -481q-145 -350 -221 -635q28 -4 90 -25l-22 -68q131 -16 299 -16q212 0 372 41l37 43l-121 18l82 66l13 23l-115 8l70 43l-25 22 l23 23q-144 -8 -215 -8q-60 0 -91 6q36 103 144 352l338 18l35 37l-64 41l49 25l-69 41l120 31l-92 30l56 43l-33 23l-203 10q13 28 64 130t75 159q129 39 303 39l21 43zM803 1688l90 20l-29 37l-43 16q-176 68 -346 94l14 -45l-69 -4l-12 -14l71 -35l-108 -37l28 -37 l-24 -28q139 -35 385 -115l55 14l-35 64l94 -4l5 22zM1122 1376l64 -35l-56 -57l52 -33l-41 -26l37 -49l-25 -54q-171 0 -303 -37q-28 -71 -72 -151l39 -2l101 -68l-39 -26l110 -54l-86 -51l64 -37l-68 -26l43 -45l-47 -25l59 -37l-43 -47l-338 -20q-53 -120 -90 -209 q11 1 256 18l-69 -78l-6 -30l88 -4l-31 -60l45 -12l-55 -33l84 -12q-44 -68 -93 -101l121 -18l-51 -55q-153 -41 -381 -41q-156 0 -309 18l12 43q-31 2 -166 17q7 33 21 79q-27 7 -94 7q80 308 229 667q138 333 254 514l-27 4l11 56l-66 71l98 25l-37 100q121 22 267 35 q-107 33 -176 49l28 35l-14 18q-119 31 -121 31l47 53l-45 58l68 22l-29 15l59 69h33l-18 60q225 -30 438 -113l37 -14l67 -99l-57 -12l66 -76l-86 -20l53 -37l-4 -23h110h80l-39 -69l66 -37z" />
<glyph unicode="&#xc9;" horiz-adv-x="901" d="M1018 1319l69 24l-79 29l39 37l-29 18l22 41h-84q-339 0 -573 -41l14 -41l97 -40l-152 -33l35 -33l-6 -35l98 -18l-82 -41q-123 -185 -246 -481q-145 -350 -221 -635q28 -4 90 -25l-22 -68q131 -16 299 -16q212 0 372 41l37 43l-121 18l82 66l13 23l-115 8l70 43l-25 22 l23 23q-144 -8 -215 -8q-60 0 -91 6q36 103 144 352l338 18l35 37l-64 41l49 25l-69 41l120 31l-92 30l56 43l-33 23l-203 10q13 28 64 130t75 159q129 39 303 39l21 43zM1122 1667l27 41l-78 27l72 49l-17 18l-100 -4l49 66l-51 12l-47 -14q-230 -70 -330 -123l51 -25 l-47 -43l2 -18l82 14l-47 -86l51 -10l6 -35q157 60 377 131zM1210 1686l74 -25l-33 -51q-207 -67 -288 -97h77h80l-39 -69q0 -3 2 -9.5t2 -9.5l-6 -30l27 -9h55l-8 -16l74 -29l-62 -20l2 -2l-37 -35l93 -33l-82 -26l37 -49l-25 -54q-171 0 -303 -37q-28 -71 -72 -151l39 -2 l101 -68l-39 -26l151 -54l-90 -24l-37 -27l105 -37l-109 -26l10 -8l-10 -11l43 -26l-47 -25l59 -37l-43 -47l-338 -20q-53 -120 -90 -209q11 1 256 18l-69 -78l-6 -30l88 -4l-17 -27l17 2l-31 -35l24 -24l-34 -21l84 -12l-7 -8l5 -2q-7 -21 -35.5 -47.5t-55.5 -43.5l121 -18 l-51 -55q-153 -41 -381 -41q-156 0 -309 18l12 43q-31 2 -166 17q7 33 21 79q-27 7 -94 7q80 308 229 667q133 326 254 514l-27 4l11 56l-86 71l118 25l-37 100q190 34 390 43l-7 37l-79 17l30 53l-33 -6l-16 86l23 18l-62 31q186 104 412 164l39 10l131 -33l-31 -41 l113 -20l-45 -64l69 4l25 -28z" />
<glyph unicode="&#xca;" horiz-adv-x="901" d="M1018 1319l69 24l-79 29l39 37l-29 18l22 41h-84q-339 0 -573 -41l14 -41l97 -40l-152 -33l35 -33l-6 -35l98 -18l-82 -41q-123 -185 -246 -481q-145 -350 -221 -635q28 -4 90 -25l-22 -68q131 -16 299 -16q212 0 372 41l37 43l-121 18l82 66l13 23l-115 8l70 43l-25 22 l23 23q-144 -8 -215 -8q-60 0 -91 6q36 103 144 352l338 18l35 37l-64 41l49 25l-69 41l120 31l-92 30l56 43l-33 23l-203 10q13 28 64 130t75 159q129 39 303 39l21 43zM961 1513q-13 8 -40.5 25t-41.5 25l-129 -56q105 6 211 6zM1104 1667l94 10l-22 39l-373 185 q-264 -105 -367 -152l39 -27l-59 -45l-2 -18l84 12l-74 -92l45 -14l-6 -37l334 139q140 -93 252 -145l57 8l-31 67l99 -14l6 21zM1208 1751l99 -172l-88 -10l61 -53l-8 -35l-90 14l28 -65l-71 -11q-9 4 -28 13.5t-28 13.5l-2 -2l66 -37l-25 -31l64 -35l-56 -57l52 -33 l-41 -26l37 -49l-25 -54q-171 0 -303 -37q-28 -71 -72 -151l39 -2l101 -68l-39 -26l110 -54l-86 -51l64 -37l-68 -26l43 -45l-47 -25l59 -37l-43 -47l-338 -20q-53 -120 -90 -209q11 1 256 18l-69 -78l-6 -30l88 -4l-31 -60l45 -12l-55 -33l84 -12q-44 -68 -93 -101l121 -18 l-51 -55q-153 -41 -381 -41q-156 0 -309 18l12 43q-31 2 -166 17q7 33 21 79q-27 7 -94 7q80 308 229 667q138 333 254 514l-27 4l11 56l-66 71l98 25l-37 100q42 8 95 15l6 55l-74 20l45 56l-39 10l33 96l-25 60l447 176z" />
<glyph unicode="&#xcb;" horiz-adv-x="901" d="M1018 1319l69 24l-79 29l39 37l-29 18l22 41h-84q-339 0 -573 -41l14 -41l97 -40l-152 -33l35 -33l-6 -35l98 -18l-82 -41q-123 -185 -246 -481q-145 -350 -221 -635q28 -4 90 -25l-22 -68q131 -16 299 -16q212 0 372 41l37 43l-121 18l82 66l13 23l-115 8l70 43l-25 22 l23 23q-144 -8 -215 -8q-60 0 -91 6q36 103 144 352l338 18l35 37l-64 41l49 25l-69 41l120 31l-92 30l56 43l-33 23l-203 10q13 28 64 130t75 159q129 39 303 39l21 43zM831 1806l-40 25l-93 -45l-8 45l-102 -82l12 109l-22 18q-90 -160 -123 -313l39 -11l81 50l13 -52 l63 45l33 -59l33 8q55 157 114 262zM1210 1790l-43 -23l4 70l-32 -2l-72 -59l-8 82l-80 -39l-16 51q-86 -158 -117 -297l57 6l27 -39l82 78l14 -86l43 37l39 -17q54 149 102 238zM1280 1681l57 29q-63 -113 -120 -272l-43 16l-33 -24l-31 63l-29 -49l66 -37l-25 -31l64 -35 l-56 -57l52 -33l-41 -26l37 -49l-25 -54q-171 0 -303 -37q-28 -71 -72 -151l39 -2l101 -68l-39 -26l110 -54l-86 -51l64 -37l-68 -26l43 -45l-47 -25l59 -37l-43 -47l-338 -20q-53 -120 -90 -209q11 1 256 18l-69 -78l-6 -30l88 -4l-31 -60l45 -12l-55 -33l84 -12 q-44 -68 -93 -101l121 -18l-51 -55q-153 -41 -381 -41q-156 0 -309 18l12 43q-31 2 -166 17q7 33 21 79q-27 7 -94 7q80 308 229 667q138 333 254 514l-27 4l11 56l-66 71l98 25l-37 100q120 21 240 33l-14 27l-41 -23l-107 27q25 118 64 217.5t104 210.5l92 -74l-2 -14 l74 59l10 -63l58 28l92 -59q28 56 67 125l56 -66l92 47l6 -61l96 35l19 -58l73 -2q-24 -61 -49 -108l37 2z" />
<glyph unicode="&#xcc;" horiz-adv-x="641" d="M827 1444l-55 -14l-14 6q-41 -44 -82 -99l-12 80l-58 -49l-8 105l-94 -103l-23 57l-28 -16q-52 -83 -105 -193t-84.5 -186t-81.5 -203q-189 -491 -248 -763l31 -37l103 116l-2 -147q45 33 86 102l8 -92l43 37l12 -86l47 12q86 311 285 815q170 437 280 658zM649 1468v2 v-2zM768 1692l90 20l-27 37l-45 16q-202 73 -346 95l15 -45l-68 -5l-14 -14l71 -35l-108 -37l29 -36l-25 -29q139 -35 385 -115l55 15l-32 61l92 -4l4 24zM915 1397l31 -39q-107 -209 -268 -627q-216 -540 -303 -860l-64 -14l-10 77l-2 -2l-41 -36l-4 24l-94 -37v60l-43 -39 l-4 65l-80 -59l-19 98l-45 -53l-90 100q63 298 256 791q157 407 277 598l94 55l14 -35l37 35q-83 25 -184 51l28 33l-14 21q-104 27 -121 30l47 54l-45 57l68 22l-29 15l60 69h32l-18 58q202 -24 438 -113l37 -12l68 -98l-58 -13l66 -76l-86 -20l53 -37l-6 -35l-45 2l41 -53 l-74 -154q45 66 100 97z" />
<glyph unicode="&#xcd;" horiz-adv-x="641" d="M829 1450l-20 27q-49 -30 -133 -140l-12 80l-58 -49l-8 105l-94 -103l-23 57l-28 -16q-52 -83 -105 -193t-84.5 -186t-81.5 -203q-189 -491 -248 -763l31 -37l103 116l-2 -147q45 33 86 102l8 -92l43 37l12 -86l47 12q86 311 285 815q167 438 282 664zM649 1468l23 21 l-8 43l-39 6zM752 1497q-40 -15 -47 -18l4 -27q16 21 43 45zM1085 1657l29 41l-80 26l72 50l-16 18l-101 -4l49 65l-51 13l-45 -15q-213 -60 -332 -122l52 -25l-48 -43l2 -19l82 15l-47 -86l51 -10l7 -35q162 62 376 131zM1174 1675l73 -24l-33 -52q-213 -67 -346 -118 l21 -27l-74 -154q45 66 100 97l31 -39q-107 -209 -268 -627q-216 -540 -303 -860l-64 -14l-10 77l-2 -2l-41 -36l-4 24l-94 -37v60l-43 -39l-4 65l-80 -59l-19 98l-45 -53l-90 100q63 298 256 791q157 407 277 598l94 55l14 -35l86 78l-22 4l30 56l-32 -7l-17 86l25 19 l-64 31q155 87 412 163l39 11l131 -33l-31 -41l113 -21l-45 -63l69 4l25 -29z" />
<glyph unicode="&#xce;" horiz-adv-x="641" d="M829 1450l-20 27q-49 -30 -133 -140l-12 80l-58 -49l-6 86l-35 -16l-61 -68l-15 33l-18 -10l2 28l-20 -10q-52 -83 -105 -193t-84.5 -186t-81.5 -203q-189 -491 -248 -763l31 -37l103 116l-2 -147q45 33 86 102l8 -92l43 37l12 -86l47 12q86 311 285 815q167 438 282 664 zM649 1468l21 19l-23 -10zM786 1524l-16 10l-70 -33l9 -49q28 40 77 72zM973 1638l86 11l-21 39l-336 184q-159 -67 -329 -150l35 -28l-54 -45l-2 -19l74 15l-66 -95l41 -12l-4 -37l301 137q130 -96 226 -145l51 8l-27 70l88 -15l4 19zM1067 1722l88 -172l-80 -10l58 -53 l-9 -35l-80 14l25 -65l-65 -10q-62 32 -117 67l2 -4l-74 -154q45 66 100 97l31 -39q-107 -209 -268 -627q-216 -540 -303 -860l-64 -14l-10 77l-2 -2l-41 -36l-4 24l-94 -37v60l-43 -39l-4 65l-80 -59l-19 98l-45 -53l-90 100q63 298 256 791q157 407 277 598l18 10h-2 l14 16l-94 -43l8 76l-67 21l41 55l-35 10l29 97l-21 59l402 178z" />
<glyph unicode="&#xcf;" horiz-adv-x="641" d="M829 1450l-20 27q-49 -30 -133 -140l-12 80l-58 -49l-8 96l-2 6l-92 -100l-23 57l-28 -16q-52 -83 -105 -193t-84.5 -186t-81.5 -203q-189 -491 -248 -763l31 -37l103 116l-2 -147q45 33 86 102l8 -92l43 37l12 -86l47 12q86 311 285 815q167 438 282 664zM520 1464z M649 1468l21 19v2l-23 -16zM752 1817l-41 24l-93 -45l-8 45l-102 -82l12 109l-22 18q-90 -160 -123 -313l39 -10l82 49l12 -51l63 45l33 -60l6 2l8 8l3 -6l16 4q55 155 115 263zM801 1532l-2 2l-19 -2q-1 -3 -3 -9.5t-3 -9.5q19 14 27 19zM1130 1800l-43 -22l5 69l-33 -2 l-72 -59l-8 82l-80 -39l-16 51q-86 -158 -117 -297l57 6l27 -39l82 78l14 -86l43 37l39 -16q53 146 102 237zM1200 1692l57 28q-63 -113 -120 -272l-43 16l-33 -24l-33 65l-100 -92l-41 64l-15 -2l17 -21l-74 -154q45 66 100 97l31 -39q-107 -209 -268 -627 q-216 -540 -303 -860l-64 -14l-10 77l-2 -2l-41 -36l-4 24l-94 -37v60l-43 -39l-4 65l-80 -59l-19 98l-45 -53l-90 100q63 298 256 791q157 407 277 598l73 43l-22 45l-41 -23l-107 27q25 118 64 217.5t104 210.5l92 -74l-2 -14l74 59l10 -63l58 29l92 -60q28 56 67 125 l56 -65l92 47l6 -62l96 35l19 -57l74 -2q-25 -62 -50 -109l37 2z" />
<glyph unicode="&#xd0;" horiz-adv-x="1345" d="M842 578q-19 -1 -59 -2.5t-60 -2.5q-12 -33 -36.5 -98t-37.5 -98q97 28 193 201zM983 934l-43 -27l29 -20q2 9 7.5 26t6.5 21zM1026 1178q0 37 -4 53l-12 -2q-57 -95 -109 -211l88 -62q37 133 37 222zM1077 1174q0 -67 -22.5 -172.5t-66.5 -223.5t-100 -221t-131 -170.5 t-151 -67.5q-55 0 -108 56q66 185 114 311q36 1 106.5 4t106.5 4l62 41l-70 60l115 34l-6 29l-115 29l100 61l-49 33h-135q84 215 174 360q35 5 45 5q131 0 131 -172zM1423 1272q0 342 -221 383q-66 12 -205 12q-166 0 -395 -35l39 -45l-51 -41l78 -55l-150 -45l23 -31 l-58 -63l76 -27l-78 -53q-43 -91 -133 -305q-113 -8 -246 -31l39 -47l-82 -35l-10 -23l103 -10l-115 -88l51 -31l-18 -45q26 2 80.5 5.5t80.5 5.5q-79 -220 -155 -457l33 -29l94 60l-10 -72l100 2l-55 -72l57 -32l-43 -39q169 -58 299 -58q117 0 226 47.5t194.5 128.5 t159.5 188.5t127 227.5t90.5 245.5t56 243.5t18.5 220zM1536 1169q0 -103 -18.5 -222t-57 -245.5t-92 -247.5t-128.5 -229t-162 -189.5t-197 -129t-228 -47.5q-145 0 -319 63l28 25q-98 22 -208 61l55 49l-47 29l10 14l-4 4l4 15h-41l4 18l-33 -20l-84 78q74 227 140 413 l-4 2l-160 -10l31 80l-80 47l71 55l-41 4l43 109l39 14l-49 60q150 30 303 45q69 166 129 293l6 4l-53 18l80 90l-41 54l121 36l-49 35l63 49l-63 76q280 49 504 49q53 0 83.5 -1t76.5 -5t74 -12.5t63 -25t58 -40t45 -59.5t36 -82q92 -104 92 -324z" />
<glyph unicode="&#xd1;" horiz-adv-x="1196" d="M1405 1438l-92 -47l-10 55l-39 -35l-19 62l-92 -115l-10 67l-43 -36l-31 26q-151 -358 -248 -696l-20 -8l-86 719l-62 -70l-30 43l-76 -119l-19 180l-106 -118l-33 55q-52 -88 -103.5 -197.5t-83 -186.5t-81.5 -206q-178 -460 -266 -803l55 27l16 -41l74 96l25 -98l43 35 l24 -27l53 96l23 -98l22 12q12 48 28 100t29.5 94t35 101t34 93t38.5 99.5t37 92t40.5 99t38.5 93.5l23 6q33 -432 112 -770l39 19l47 92l31 -102l29 34l28 -47l45 52l27 -25l31 47l37 -78q26 83 73 232.5t85.5 272t74.5 230.5q7 21 37 113.5t40.5 124t37 109.5t44 123 t43 107t50.5 116zM1016 1425q-10 8 -31 29q-40 6 -76 31h-6q-62 0 -139 -45l16 -131l47 53l39 -332q76 214 150 395zM1251 1669l66 57l-10 17l-86 -14l47 71l-39 6q-16 -11 -43.5 -31t-41.5 -28.5t-37.5 -20t-47.5 -16t-55 -4.5q-25 0 -44.5 10.5t-33 25.5t-27.5 30 t-35 25.5t-49 10.5t-66 -13t-64.5 -26t-70 -37.5t-57.5 -31.5l37 -27l-53 -39l-4 -18l73 12l-63 -82l65 -16l-2 -43q17 9 50.5 30t51.5 30.5t48.5 18.5t62.5 9t52 -8.5t31 -20.5t23 -24t36.5 -20.5t62.5 -8.5q99 0 174 51q7 5 37.5 29t48.5 33l27 43zM1427 1313l107 55 q-24 -47 -45.5 -95.5t-44.5 -110t-35 -95.5t-38.5 -111.5t-33.5 -99.5q-62 -181 -157.5 -505.5t-132.5 -440.5l-60 65l-61 -94l-25 45l-16 -20l-29 47l-35 -37l-14 55l-35 -39l-10 25l-17 -29l-43 -14l-24 84l-109 -43q-42 169 -86 477q-8 -21 -38.5 -98.5t-43 -111t-35 -95 t-37 -112.5t-26.5 -101l-37 -23l-18 84l-47 -84l-29 31l-47 -39l-12 49l-21 -16l-14 29l-49 -62l-15 37l-18 -16l-23 33l-59 -41l-31 73l-104 -49q102 409 293 899q86 220 156.5 377.5t158.5 302.5l43 -69l82 81l-37 9l39 53l-33 10l37 90l-29 41q13 6 71 37.5t92 48.5 t82.5 34t80.5 17q39 0 69.5 -16.5t46 -35.5t35 -35.5t38.5 -16.5q34 0 67 11t47 18.5t54 37t49 35.5l116 -20l-28 -43l14 2l49 -68l-33 -34l72 -25l-61 -72l59 -18l-35 -55q-6 -2 -14.5 -8t-11.5 -7l4 -35l129 47q-20 -38 -33 -91t-27 -85z" />
<glyph unicode="&#xd2;" horiz-adv-x="1177" d="M840 1047q0 18 -2 28q-91 -28 -166 -164q-61 -117 -121.5 -255.5t-71.5 -213.5q-6 -55 -6 -110q30 -2 64.5 28.5t61.5 70.5t56 97.5t43.5 91t28.5 68.5q115 282 113 359zM891 1047q1 -13 -1.5 -31t-8 -40.5t-11 -43t-15 -49t-16 -47t-18 -48.5t-17 -43.5t-16 -41 t-12.5 -31.5q-155 -385 -303 -385q-59 0 -86 39.5t-29 97.5q-3 52 7 113q11 77 72.5 219.5t119.5 249.5q37 72 91 124t124 52q57 0 87 -40.5t32 -94.5zM1231 1159q-5 132 -65 212.5t-197 105.5l-13 -7l17 -30l-29 -8l45 -39h-92l18 -50q-89 16 -196 13l47 55l-80 23l10 34 q-165 -37 -268 -137q-161 -163 -264 -389.5t-146 -470.5q-10 -54 -10 -135q6 -174 112 -269.5t298 -95.5q197 0 393 152q48 38 117.5 136.5t113.5 176.5q74 139 134.5 360t54.5 363zM850 1440q-16 5 -49.5 16.5t-50.5 16.5l-2 -7q68 -22 102 -26zM901 1683l90 21l-26 37 l-45 16q-196 71 -347 94l17 -45l-70 -4l-14 -14l72 -35l-107 -37l29 -37l-27 -28q154 -39 385 -117l57 16l-34 62l92 -4l4 24zM1348 1067q4 -144 -56 -366t-135 -359q-39 -74 -111.5 -177t-121.5 -140q-195 -154 -400 -154q-75 0 -159.5 23.5t-137.5 62.5q-141 45 -203 141 t-67 238q-3 70 10 145q44 252 149 482t273 399q88 91 258 141q-82 24 -141 37l29 35l-15 20q-119 30 -121 31l47 53l-45 58l68 22l-29 15l62 69h30l-18 58q213 -28 438 -113l37 -12l68 -99l-56 -12l64 -76l-86 -20l53 -39l-2 -21q84 -25 140 -70.5t85 -123.5q85 -74 93 -248 z" />
<glyph unicode="&#xd3;" horiz-adv-x="1177" d="M840 1047q0 18 -2 28q-91 -28 -166 -164q-61 -117 -121.5 -255.5t-71.5 -213.5q-6 -55 -6 -110q30 -2 64.5 28.5t61.5 70.5t56 97.5t43.5 91t28.5 68.5q115 282 113 359zM891 1047q1 -13 -1.5 -31t-8 -40.5t-11 -43t-15 -49t-16 -47t-18 -48.5t-17 -43.5t-16 -41 t-12.5 -31.5q-155 -385 -303 -385q-59 0 -86 39.5t-29 97.5q-3 52 7 113q11 77 72.5 219.5t119.5 249.5q37 72 91 124t124 52q57 0 87 -40.5t32 -94.5zM1231 1159q-5 132 -65 212.5t-197 105.5l-54 -23l74 -61h-92l18 -50q-89 16 -196 13l47 55l-80 23l10 34 q-165 -37 -268 -137q-161 -163 -264 -389.5t-146 -470.5q-10 -54 -10 -135q6 -174 112 -269.5t298 -95.5q197 0 393 152q48 38 117.5 136.5t113.5 176.5q74 139 134.5 360t54.5 363zM1262 1692l26 41l-78 26l72 49l-18 19l-99 -4l49 65l-51 13l-47 -15q-214 -61 -330 -123 l52 -24l-47 -43l2 -19l81 15l-49 -86l54 -11l6 -34q158 62 377 131zM1350 1710l73 -24l-32 -52q-246 -78 -363 -125q86 -24 141.5 -69.5t85.5 -124.5q85 -74 93 -248q4 -144 -56 -366t-135 -359q-39 -74 -111.5 -177t-121.5 -140q-195 -154 -400 -154q-75 0 -159.5 23.5 t-137.5 62.5q-141 45 -203 141t-67 238q-3 70 10 145q44 252 149 482t273 399q117 120 379 170l-20 -66q8 -2 26.5 -8t29.5 -9t26.5 -6t27.5 -3l-31 26l134 58l36 -6l-4 22l-28 6q-72 -27 -113 -45l-12 66l-80 16l28 53l-30 -6l-17 86l23 19l-62 30q159 89 412 164l39 10 l131 -32l-31 -41l113 -21l-47 -63l72 4l24 -29z" />
<glyph unicode="&#xd4;" horiz-adv-x="1177" d="M840 1047q0 18 -2 28q-91 -28 -166 -164q-61 -117 -121.5 -255.5t-71.5 -213.5q-6 -55 -6 -110q30 -2 64.5 28.5t61.5 70.5t56 97.5t43.5 91t28.5 68.5q115 282 113 359zM891 1047q1 -13 -1.5 -31t-8 -40.5t-11 -43t-15 -49t-16 -47t-18 -48.5t-17 -43.5t-16 -41 t-12.5 -31.5q-155 -385 -303 -385q-59 0 -86 39.5t-29 97.5q-3 52 7 113q11 77 72.5 219.5t119.5 249.5q37 72 91 124t124 52q57 0 87 -40.5t32 -94.5zM1231 1159q-5 132 -65 212.5t-197 105.5l-54 -23l74 -61h-92l18 -50q-89 16 -196 13l47 55l-43 12l-55 -22l6 47l-29 8 q-131 -42 -217 -125q-161 -163 -264 -389.5t-146 -470.5q-10 -54 -10 -135q6 -174 112 -269.5t298 -95.5q197 0 393 152q48 38 117.5 136.5t113.5 176.5q74 139 134.5 360t54.5 363zM827 1466l101 43l-137 -57q46 -12 67 -12zM1096 1485q-43 23 -95 57l-40 -18 q77 -12 135 -39zM1227 1647l96 10l-25 39l-372 184q-282 -112 -367 -151l39 -27l-59 -45l-2 -19l84 15l-74 -94l45 -15l-6 -37l334 140q153 -102 251 -146l58 8l-31 70l98 -16l7 20zM1331 1731l99 -172l-89 -11l62 -53l-8 -35l-90 15l28 -66l-71 -10q-52 24 -113 57 q69 -49 106 -141q85 -85 93 -248q4 -144 -56 -366t-135 -359q-39 -74 -111.5 -177t-121.5 -140q-195 -154 -400 -154q-75 0 -159.5 23.5t-137.5 62.5q-141 45 -203 141t-67 238q-3 70 10 145q44 252 149 482t273 399q51 53 146 100l6 49l-74 21l45 55l-39 10l33 97l-25 59 l447 176z" />
<glyph unicode="&#xd5;" horiz-adv-x="1177" d="M840 1047q0 18 -2 28q-91 -28 -166 -164q-61 -117 -121.5 -255.5t-71.5 -213.5q-6 -55 -6 -110q30 -2 64.5 28.5t61.5 70.5t56 97.5t43.5 91t28.5 68.5q115 282 113 359zM891 1047q1 -13 -1.5 -31t-8 -40.5t-11 -43t-15 -49t-16 -47t-18 -48.5t-17 -43.5t-16 -41 t-12.5 -31.5q-155 -385 -303 -385q-59 0 -86 39.5t-29 97.5q-3 52 7 113q11 77 72.5 219.5t119.5 249.5q37 72 91 124t124 52q57 0 87 -40.5t32 -94.5zM1231 1159q-5 132 -65 212.5t-197 105.5l-54 -23l74 -61h-92l18 -50q-89 16 -196 13l47 55l-80 23l4 18l2 16 q-165 -38 -264 -137q-161 -163 -264 -389.5t-146 -470.5q-10 -54 -10 -135q6 -174 112 -269.5t298 -95.5q197 0 393 152q48 38 117.5 136.5t113.5 176.5q74 139 134.5 360t54.5 363zM657 1505l-18 4l-57 -28q41 17 75 24zM827 1466l125 56q-20 7 -34 18h-7q-67 0 -157 -53 l-6 -21q8 -2 26.5 -8t29.5 -9t26.5 -6t27.5 -3zM1260 1716l65 56l-12 14l-84 -14l47 67l-39 8q-15 -10 -43.5 -29.5t-42 -28t-37 -19.5t-47.5 -15t-55 -4q-29 0 -53 15.5t-38 33.5t-39.5 33.5t-58.5 15.5q-28 0 -65.5 -12.5t-65 -25.5t-69.5 -35.5t-58 -30.5l37 -25l-53 -39 l-2 -14l74 10l-64 -78l66 -16l-5 -39q17 9 51 27.5t52.5 28t49.5 18t63 8.5q31 0 50.5 -8t30.5 -19.5t22.5 -23t36 -19.5t62.5 -8q55 0 94 10.5t80 38.5q9 6 38.5 28t47.5 30l27 41zM1346 1731l71 -23l-59 -68l59 -18l-35 -51q-33 -16 -63.5 -38t-46.5 -35.5t-49 -24 t-82 -11.5q76 -52 114 -147q85 -85 93 -248q4 -144 -56 -366t-135 -359q-39 -74 -111.5 -177t-121.5 -140q-195 -154 -400 -154q-75 0 -159.5 23.5t-137.5 62.5q-141 45 -203 141t-67 238q-3 70 10 145q44 252 149 482t273 399q68 70 180 115l9 75l-95 23l41 49l-32 10 l34 86l-26 39q13 6 70.5 36t91 45.5t81.5 31.5t80 16q38 0 68.5 -15t46.5 -33t35.5 -33t38.5 -15q28 0 51.5 4.5t47 16t37 20t41 27.5t40.5 28l117 -20l-29 -41l14 2l47 -64q-5 -4 -13 -12.5t-13 -14.5z" />
<glyph unicode="&#xd6;" horiz-adv-x="1177" d="M840 1047q0 18 -2 28q-91 -28 -166 -164q-57 -107 -119.5 -250.5t-73.5 -218.5q-9 -55 -6 -110q36 -2 77.5 39.5t78.5 109.5t58.5 115t39.5 92q115 282 113 359zM891 1047q0 -17 -3.5 -40.5t-13 -56t-17 -57t-22.5 -65t-21 -57.5t-21.5 -57t-16.5 -42 q-156 -387 -303 -387q-60 0 -86.5 40t-28.5 99q-3 52 7 113q11 77 72.5 219.5t119.5 249.5q93 176 215 176q57 0 87 -40.5t32 -94.5zM1231 1159q-5 132 -65 212.5t-197 105.5l-54 -23l74 -61h-92l18 -50q-80 15 -196 11l47 57l-80 23l10 34q-169 -38 -268 -137 q-161 -163 -264 -389.5t-146 -470.5q-13 -72 -10 -135q6 -173 112 -268t298 -95q103 0 205.5 41.5t187.5 108.5q49 37 120 138t111 175q74 138 133.5 359.5t55.5 363.5zM858 1440l-20 18l-13 -8l-12 51l-61 -22l-4 -13q8 -2 26.5 -8t29.5 -9t26.5 -6t27.5 -3zM973 1827 l-41 24l-92 -45l-9 45l-102 -82l12 109l-22 18q-90 -160 -123 -313l39 -10l82 49l12 -51l64 45l32 -60l33 9q54 152 115 262zM1047 1503l-27 41l-19 -2q-2 -4 -4 -12t-4 -12q34 -8 54 -15zM1352 1810l-43 -22l4 70l-33 -3l-72 -59l-8 82l-80 -39l-16 51q-86 -158 -117 -297 l57 6l27 -38l82 77l14 -86l43 37l39 -16q51 140 103 237zM1421 1702l58 29q-65 -116 -121 -273l-43 17l-33 -25l-33 66l-82 -74q60 -50 88 -127q89 -84 93 -248q4 -144 -56 -366t-135 -359q-38 -73 -111 -175.5t-122 -141.5q-200 -154 -400 -154q-76 0 -160 22.5t-137 63.5 q-140 45 -202.5 141t-67.5 238q-3 70 10 145q44 252 149 482t273 399q102 105 309 156l-14 24l-41 -22l-106 26q25 118 64 217.5t104 210.5l92 -73l-2 -15l73 60l11 -64l57 29l92 -60q22 45 68 125l55 -65l92 47l6 -62l97 35l18 -57l74 -2q-24 -62 -49 -109l36 2z" />
<glyph unicode="&#xd7;" horiz-adv-x="1169" d="M842 766l477 545v41l-109 -64l-10 64l-158 -123l27 114l-65 -22l-37 55l-238 -272l-65 276l-52 -39l-59 66l-25 -96l-49 28l-24 -157l-84 147l-19 -33l107 -501l-494 -574l10 -33l84 52l23 -72l158 108l-11 -92l62 21l26 -49l254 295l68 -304l47 41l51 -61l27 82l67 -41 l39 131l82 -102l9 6zM1432 1268v-64l-478 -542l119 -564l-18 -20l-66 82l-24 -27l-25 -84l-68 41l-28 -86l-56 68l-40 -37l-68 80l-72 -64l-37 162l-153 -178l-29 55l-82 -24l-28 53l-101 -70l-22 74l-84 -51l-43 90l-86 -51l-33 125l493 573l-104 496l72 129l55 -99l14 84 l56 -30l32 102l90 -80l78 59l45 -196l31 22l12 -51l187 215l53 -78l96 37l6 -59l107 84l14 -74l123 72v-152l-55 -61l6 -27z" />
<glyph unicode="&#xd8;" horiz-adv-x="1216" d="M842 829q-88 -234 -156 -345q-100 -161 -194 -162q-24 0 -56 14q137 171 406 493zM860 1309q-125 -143 -371 -437q7 16 24.5 58t29.5 70t33.5 71.5t39.5 73t44.5 63.5t52 54.5t57.5 34.5t66 14q16 0 24 -2zM1460 1518l-12 65l-78 -41l37 96l-45 -14l-72 -61l31 108 l-45 -6l22 72l-34 6q-58 -55 -134 -135q-54 28 -83 28q-30 0 -70 -20l72 -68h-93l17 -55q-85 15 -197 12l49 64l-80 24l13 39q-175 -44 -273 -153q-318 -350 -440 -955q-14 -69 -14 -149q0 -47 2 -72q-137 -180 -201 -283l-2 -40q41 8 121 51l-19 -72l68 21l-20 -84l106 73 l-16 -90l22 -2q12 17 105 148q127 -58 229 -58q194 0 399 170q49 40 125 153.5t117 194.5q85 168 153.5 425t59.5 421q93 103 180 187zM1559 1495l14 -84q-77 -72 -180 -186q0 -9 1 -28t1 -28q0 -158 -67 -395t-148 -395q-41 -81 -118.5 -196t-127.5 -156 q-207 -172 -406 -172q-108 0 -225 55q-38 -52 -102 -146l-41 3l14 77l-108 -75l14 57l-66 -6v37l-92 -45q2 49 2 88v4l-65 -19l14 54l-96 -29l4 127q17 28 35 55.5t42.5 61t38 51t45.5 59.5t40 53q-2 18 -2 56q0 88 14 162q124 615 452 978q120 134 385 189l-22 -74 q95 -31 111 -29l-31 31q7 3 28.5 13t34.5 15.5t32.5 13t36 11t30.5 3.5q33 0 67 -17q14 14 40 41t47.5 48.5t41.5 39.5l117 -22l-14 -50l45 7l-17 -50l97 33l-7 -65l19 8l20 -115l21 6l-37 -88z" />
<glyph unicode="&#xd9;" horiz-adv-x="1249" d="M1454 1417l-22 35l-78 -70l-21 33l-76 -74l-8 97l-12 26l-104 -133l-3 119l-59 -27q-60 -142 -154.5 -411.5t-136.5 -376.5q-3 -8 -21 -54.5t-25 -62.5t-22 -51t-28.5 -60.5t-28.5 -50.5q-27 -43 -56.5 -67.5t-74.5 -24.5q-129 0 -133 142q-2 34 6 104q12 92 151.5 433 t209.5 476l-39 -18l-17 51l-69 -94l-25 57l-33 -31l-22 21l-94 -84l12 131l-25 23q-76 -148 -132 -267t-126 -289.5t-107.5 -324t-33.5 -270.5q2 -59 12 -105t32 -91.5t63 -80.5t100 -57q124 -43 233 -43q98 0 194.5 42t176.5 109q51 42 93 100t74.5 132t53.5 132t48.5 146 t41.5 127q117 322 285 682zM1014 1417l-45 -10q-112 37 -150 47q-5 -19 -16 -49l26 -84l56 27q-23 -44 -48 -98.5t-40 -90.5t-42 -104t-38 -94q-13 -33 -70.5 -161t-91 -221.5t-41.5 -162.5q-8 -70 -6 -107h14q33 0 62 33q44 45 124 242t184 491t122 342zM750 1466l16 4 l-27 9zM965 1667l90 21l-27 36l-45 17q-206 75 -346 96l16 -47l-69 -4l-15 -14l72 -35l-106 -35l28 -37l-26 -31q137 -34 387 -114l55 14l-35 63l94 -4l2 23zM1030 1458l51 23l-75 4l20 -39zM1542 1374l29 -49q-184 -406 -285 -686q-15 -40 -42.5 -127.5t-49 -146.5 t-54 -133t-75 -132.5t-94.5 -101.5q-187 -154 -377 -154q-78 0 -176 26t-154 67q-75 24 -127 62.5t-81.5 90t-43 107.5t-16.5 127q-2 74 13 166t37.5 175t64.5 192t73.5 184.5t86 188.5t81.5 166.5t78 153.5l94 -80l-4 -26l41 -4l66 65l18 -45l33 37q-100 27 -109 29l31 35 l-14 18q-54 16 -121 33l45 53l-45 55l67 23l-28 14l61 70l33 2l-20 57q200 -26 440 -112l37 -15l67 -98l-57 -12l65 -76l-88 -21l56 -36l-6 -29l88 39l2 -53l65 65l51 -86l45 43l23 -37l78 70l67 -109q-31 -63 -51 -110l2 -4z" />
<glyph unicode="&#xda;" horiz-adv-x="1249" d="M1454 1417l-22 35l-78 -70l-21 33l-76 -74l-8 97l-12 26l-104 -133l-3 119l-59 -27q-60 -142 -154.5 -411.5t-136.5 -376.5q-3 -8 -21 -54.5t-25 -62.5t-22 -51t-28.5 -60.5t-28.5 -50.5q-27 -43 -56.5 -67.5t-74.5 -24.5q-129 0 -133 142q-2 34 6 104q12 92 151.5 433 t209.5 476l-39 -18l-17 51l-69 -94l-25 57l-33 -31l-22 21l-94 -84l12 131l-25 23q-76 -148 -132 -267t-126 -289.5t-107.5 -324t-33.5 -270.5q2 -59 12 -105t32 -91.5t63 -80.5t100 -57q124 -43 233 -43q98 0 194.5 42t176.5 109q51 42 93 100t74.5 132t53.5 132t48.5 146 t41.5 127q117 322 285 682zM1182 1473l43 43q-6 -2 -21 -7.5t-24 -7.5zM1298 1638l29 43l-80 27l72 49l-16 19l-99 -4l47 65l-51 12l-45 -14q-200 -56 -332 -125l51 -24l-47 -41l2 -19l82 14l-47 -86l51 -10l7 -37q127 51 376 131zM1542 1374l29 -49q-184 -406 -285 -686 q-15 -40 -42.5 -127.5t-49 -146.5t-54 -133t-75 -132.5t-94.5 -101.5q-187 -154 -377 -154q-78 0 -176 26t-154 67q-75 24 -127 62.5t-81.5 90t-43 107.5t-16.5 127q-2 74 13 166t37.5 175t64.5 192t73.5 184.5t86 188.5t81.5 166.5t78 153.5l94 -80l-4 -26l41 -4l66 65 l18 -45l57 66l48 -60l79 19q-15 -49 -26 -80l26 -84l56 27q-23 -44 -48 -98.5t-40 -90.5t-42 -104t-38 -94q-13 -33 -70.5 -161t-91 -221.5t-41.5 -162.5q-8 -70 -6 -107h14q33 0 62 33q46 47 136 274t187.5 504.5t122.5 337.5l4 2l-4 29l-26 4q-7 -2 -115 -43l-10 63 l-82 17l30 55l-32 -6l-17 86l25 18l-64 31q159 89 412 164l39 10l131 -35l-31 -41l113 -18l-45 -63l69 2l25 -27l-66 -47l76 -27l-35 -49q-115 -36 -174 -57l45 -74l45 43l23 -37l78 70l67 -109q-31 -63 -51 -110l2 -4z" />
<glyph unicode="&#xdb;" horiz-adv-x="1249" d="M1454 1417l-22 35l-78 -70l-13 23l-22 -4l-62 -60l-6 82q-5 3 -16 8.5t-16 8.5l-86 -109l-3 119l-59 -27q-60 -142 -154.5 -411.5t-136.5 -376.5q-3 -8 -21 -54.5t-25 -62.5t-22 -51t-28.5 -60.5t-28.5 -50.5q-27 -43 -56.5 -67.5t-74.5 -24.5q-129 0 -133 142 q-2 34 6 104q12 92 151.5 433t209.5 476l-39 -18v4l-10 -4l2 24l-6 25h-3l-69 -92l-25 57l-33 -31l-22 21l-94 -84l12 131l-25 23q-76 -148 -132 -267t-126 -289.5t-107.5 -324t-33.5 -270.5q2 -59 12 -105t32 -91.5t63 -80.5t100 -57q124 -43 233 -43q98 0 194.5 42 t176.5 109q51 42 93 100t74.5 132t53.5 132t48.5 146t41.5 127q117 322 285 682zM1030 1458l86 39q-30 17 -74 45l-225 -96q-2 -7 -7 -20.5t-7 -20.5l26 -84l56 27q-23 -44 -48 -98.5t-40 -90.5t-42 -104t-38 -94q-13 -33 -70.5 -161t-91 -221.5t-41.5 -162.5 q-8 -70 -6 -107h14q33 0 62 33q46 47 136 274t187.5 504.5t122.5 337.5zM645 1460l8 8l-10 -4zM1268 1647l96 10l-25 39l-372 184q-282 -112 -367 -151l39 -27l-59 -45l-2 -19l84 15l-74 -94l45 -15l-6 -37l334 140q130 -86 208 -125l11 4v-10q5 -2 15 -7.5t15 -7.5l37 37 l17 -29h6l-31 70l98 -16l6 20zM1366 1458l12 10l-22 5zM1542 1374l29 -49q-184 -406 -285 -686q-15 -40 -42.5 -127.5t-49 -146.5t-54 -133t-75 -132.5t-94.5 -101.5q-187 -154 -377 -154q-78 0 -176 26t-154 67q-75 24 -127 62.5t-81.5 90t-43 107.5t-16.5 127 q-2 74 13 166t37.5 175t64.5 192t73.5 184.5t86 188.5t81.5 166.5t78 153.5l94 -80l-4 -26l41 -4l12 12l9 59l-74 21l45 55l-39 10l33 97l-25 59l447 176l403 -198l98 -172l-88 -11l43 -37l19 17l67 -109q-31 -63 -51 -110l2 -4z" />
<glyph unicode="&#xdc;" horiz-adv-x="1249" d="M1454 1417l-22 35l-78 -70l-21 33l-76 -74l-8 97l-12 26l-104 -133l-3 119l-59 -27q-35 -81 -121 -323q-115 -326 -170 -465q-65 -168 -100 -236q-4 -8 -14 -24.5t-11 -18.5q-53 -92 -131 -92q-129 0 -133 142q-2 34 6 104q2 14 4.5 28t7 29.5t7.5 26t9.5 28.5t9.5 25.5 t11.5 28t10.5 26.5q25 67 75.5 189t67.5 166q88 220 158 362l-39 -18l-17 51l-69 -94l-25 57l-33 -31l-22 21l-94 -84l12 131l-25 23q-370 -731 -395 -1051q-5 -83 -4 -100q2 -59 12 -106t32 -92t63 -79t100 -55q120 -45 233 -45q183 0 371 151q52 42 116 143t89 173 q16 45 50.5 154t55.5 167q117 322 285 682zM1030 1458l57 27l-38 59l-19 -2q-24 -62 -33 -90l-47 -10l-30 57l-66 -49l-10 43q-7 -19 -70 -160l37 49l18 -61l56 27q-19 -36 -36.5 -73.5t-36.5 -82t-31 -72.5t-34 -83t-30 -76q-20 -51 -70.5 -170.5t-75.5 -184.5 q-48 -118 -57 -190q-6 -52 -6 -103v-4h14q32 0 62 33q11 11 26 37q22 38 23 41q45 92 100 231t170 465q86 245 127 342zM1001 1827l-40 24l-93 -45l-8 45l-102 -82l12 109l-22 18q-90 -160 -123 -313l39 -10l81 49l13 -51l63 45l33 -60l33 9q55 157 114 262zM1298 1452l9 8 l-29 56l-12 -11zM1380 1810l-43 -22l4 70l-32 -3l-72 -59l-8 82l-80 -39l-16 51q-86 -158 -117 -297l57 6l27 -38l82 77l14 -86l43 37l39 -16q53 146 102 237zM1542 1374l29 -49q-171 -371 -285 -686q-21 -58 -55.5 -167t-50.5 -155q-25 -71 -90 -173.5t-119 -145.5 q-187 -154 -377 -154q-115 0 -238 45q-46 15 -92 48q-2 0 -26 10q-69 24 -117.5 65t-74 94t-37 104.5t-13.5 113.5q-1 18 4 106q9 107 52.5 251.5t114 308.5t129 287t134.5 273l94 -80l-4 -26q21 0 41 -4l66 65l18 -45l49 72l-22 -12l-107 26q25 118 64 217.5t104 210.5 l92 -73l-2 -15l74 60l10 -64l58 29l92 -60q28 56 67 125l56 -65l92 47l6 -62l96 35l19 -57l73 -2q-24 -62 -49 -109l37 2l-4 -63l57 29q-62 -110 -112 -246l49 43l67 -109q-8 -19 -25.5 -55t-25.5 -55l2 -4z" />
<glyph unicode="&#xdd;" horiz-adv-x="987" d="M1290 1468l-69 -26l-15 41l-123 -125l-8 78l-39 -31l-14 65l-47 -26l-33 10q-92 -222 -270 -473q-65 205 -82 475l-27 -22l-35 34l-41 -77l-55 100q-31 -40 -55 -129l-68 88l-24 -16q41 -473 139 -787q-210 -321 -455 -616l43 2v-37l101 88v-66l57 31l4 -26l96 69 l-26 -135l14 -25q297 317 575 731t457 805zM1190 1642l29 41l-80 27l71 49l-16 19l-98 -4l47 65l-51 12l-45 -14q-14 -5 -56 -18t-60 -19t-53.5 -18t-57.5 -21t-50.5 -21.5t-52.5 -25.5l49 -24l-47 -43l2 -19l82 14l-47 -86l51 -10l6 -35q157 60 377 131zM1122 1468l72 76 q-14 -4 -39 -13t-39 -13zM1329 1358l82 33q-180 -399 -465 -825.5t-588 -745.5l-22 39l20 110q-93 -104 -110 -121l-33 60l-8 -4v20l-15 27l3 4l-89 -78v49l-53 -2l10 13v36l-100 -90v99l-100 -2q268 317 508 675q-99 341 -138 801l91 64l36 -52q6 14 16 31.5t18 28.5 t23.5 31.5t20.5 27.5l51 -88l29 55l51 -53l70 58q7 -117 14 -193l15 -14l34 26q5 -100 25 -225q107 175 176 342l-6 2q-22 -8 -61.5 -24t-53.5 -21l-10 66l-82 14l31 55l-33 -6l-16 86l24 19l-63 30q174 97 413 164l37 10l131 -32l-28 -41l110 -21l-45 -63l70 4l24 -29 l-65 -47l76 -25l-35 -51q-15 -5 -43 -14.5t-43 -14.5l18 -51l133 51q-46 -102 -71 -153z" />
<glyph unicode="&#xde;" horiz-adv-x="1048" d="M748 829q0 -69 -101 -137q-30 -19 -65 -31.5t-56 -17t-71 -12.5l94 219q91 27 153 27q21 0 33.5 -13.5t12.5 -34.5zM1092 893q0 78 -35.5 138.5t-93.5 94.5t-127 49.5t-142 10.5q126 305 187 430l-21 29q-52 -30 -137 -156l-10 88l-60 -53l-4 116l-98 -114l-21 63 l-28 -18q-47 -78 -88.5 -169.5t-88.5 -214t-71 -177.5q-213 -498 -358 -1026l14 -4l96 135l17 -119l69 49l12 -94l72 76l47 -64q5 15 19 61.5t21 68t19.5 58.5t25 66.5t26.5 58.5q628 147 741 517q17 56 17 100zM1206 793q0 -44 -18 -107q-113 -373 -746 -520 q-23 -47 -41 -97t-41 -129.5t-30 -101.5l-54 72l-26 -29l-8 -28l-9 10l-32 -37l-15 98l-69 -49l-2 10l-45 -49l-13 86l-41 -57l-30 8l10 41l-14 -8l-9 74l-43 -60l-98 27q153 566 375 1083q23 53 72.5 182t91.5 222t92 174l96 59l12 -39l123 146l6 -138l52 47l8 -65 q26 42 112 100l68 -98q-38 -74 -80 -174q55 80 105 110l28 -43q-33 -67 -127 -286q97 -24 169 -87.5t98 -154.5q73 -82 73 -192z" />
<glyph unicode="&#xdf;" horiz-adv-x="1798" d="M899 1106l45 27q-164 110 -319 110q-91 0 -173 -27.5t-145.5 -77.5t-101 -127.5t-37.5 -170.5q0 -63 28.5 -117.5t69.5 -94t82 -76.5t69.5 -80t28.5 -89q0 -39 -29 -78t-67 -39q-28 0 -72 26.5t-63 42t-61 52.5l-17 -74l-61 17l63 -131l-114 41l14 -52l-68 -24 q169 -199 381 -199q109 0 207.5 47.5t162.5 137.5t64 200q0 80 -27 147.5t-65.5 112t-77 81.5t-65.5 73t-27 70q0 44 40 71t87 27q78 0 166 -84l19 4l-29 78l61 2l-88 149l123 -30zM897 203l29 -6l-27 45q0 -27 -2 -39zM1235 369q0 10 -4 21t-8.5 18.5t-15.5 19t-15.5 15.5 t-18.5 16.5t-16 13.5q-172 149 -184 348l-49 -4l28 -74l-34 -10q-51 48 -87 66l-26 -8l-33 28h-18q-39 0 -74 -21.5t-41 -58.5q101 -83 143 -170q1 -2 10 -24t15 -33q10 -20 28 -53t26.5 -49.5t18 -42.5t13.5 -52l37 2l-25 64l101 29q98 -93 153 -93q24 0 50 14.5t26 37.5z M983 944l-74 17l45 -74h-6l25 -41v4q0 42 10 94zM1772 1012l67 24q-76 92 -173.5 145.5t-207.5 53.5q-109 0 -207.5 -47.5t-162.5 -137.5t-64 -200q0 -192 166 -338q28 -24 45 -40.5t34 -46t17 -56.5q0 -45 -40.5 -74t-86.5 -29q-76 0 -166 86l-18 -4l29 -78l-62 -2l88 -149 l-125 31l4 -56l-45 -26q166 -111 322 -111q133 0 278 74q79 39 128.5 136.5t49.5 192.5q0 43 -7 74t-26.5 59.5t-34.5 44.5t-52 50l-5 5t-5 4.5t-5 4.5q-143 137 -143 215q0 39 29 78t67 39q64 0 197 -121l16 74l62 -15l-64 129l115 -40zM1958 930l-72 -27l-4 -41l-88 19 l41 -107l-51 -2l-19 -80q-8 7 -21.5 19.5t-25 22.5t-22.5 18l-8 -33q-67 60 -119 102h-6q-35 0 -60.5 -35.5t-25.5 -70.5v-8q23 -27 76.5 -74.5t84.5 -89t45 -97.5q72 -72 72 -188q0 -98 -51 -197.5t-133 -140.5q-152 -76 -283 -76q-130 0 -268 76q-12 6 -32.5 19.5 t-31.5 19.5q-9 5 -29.5 15.5t-29.5 15.5q-11 5 -23 12.5t-25.5 16.5t-21.5 14q-62 -84 -163 -132t-209 -48q-18 0 -35.5 1.5t-30.5 3t-30.5 7t-26.5 7t-27.5 10.5t-24.5 11t-27 13.5t-25 13.5t-28.5 16.5t-27.5 16.5q-12 6 -33.5 17.5t-32.5 17.5q-113 66 -219 198l90 33 l-26 100l88 -30l-55 114l114 -26l25 104q1 -1 31.5 -29.5t50.5 -45.5t50 -41.5t52 -37t35 -12.5q22 0 38.5 25.5t16.5 48.5q0 30 -21 61t-52 57t-68 60.5t-68 70t-52 88t-21 112.5q0 135 69 239.5t181 158.5t245 54q201 0 428 -160l-67 -43q44 -22 59 -32q64 106 181 168.5 t247 62.5q72 0 138.5 -21t124.5 -61.5t105 -85t97 -104.5l-33 -13q42 -39 68 -71z" />
<glyph unicode="&#xe0;" horiz-adv-x="1024" d="M606 797h23l-68 -369h-164q60 135 209 369zM989 1171l-92 -55l-47 47l-31 -8l-123 -147l-30 155l-82 -53l-43 90q-373 -461 -695 -1163l127 45l13 -59l108 141l19 -135l34 32l50 -59l94 178h264l-25 -164l68 54l37 -56l61 144l64 -129l41 39l67 -39q1 179 21.5 397.5 t39.5 351t60 393.5zM604 1184l27 18q-6 2 -41 12zM725 1122l33 39l-43 15zM791 1411l90 21l-27 36l-45 17q-197 71 -346 94l14 -45l-67 -6l-15 -12l72 -37l-109 -35l29 -37l-25 -29q218 -59 386 -116l55 14l-33 63l92 -4l4 25zM1022 1040l82 50q-77 -493 -98 -696 q-27 -265 -25 -486l-80 41l-43 -39l-51 74l-68 -93l-41 62l-57 -41l-55 84l-125 -98l26 170h-88l-98 -187l-53 64l-41 -39l-60 74l-65 -64l-14 49l-111 -61l-23 110l-184 -63q352 777 758 1288q-85 23 -113 29l29 35l-14 20q-119 31 -121 31l47 53l-45 57l67 23l-28 12 l59 72h33l-19 57q205 -27 439 -112l37 -13l67 -98l-57 -12l65 -76l-86 -23l54 -37l-7 -34l-55 4l45 -45l150 90q-20 -127 -33 -232z" />
<glyph unicode="&#xe1;" horiz-adv-x="1024" d="M606 797h23l-68 -369h-164q60 135 209 369zM989 1171l-92 -55l-59 62l-142 -170l-30 155l-82 -53l-43 90q-373 -461 -695 -1163l127 45l13 -59l108 141l19 -135l34 32l50 -59l94 178h264l-25 -164l68 54l37 -56l61 144l64 -129l41 39l67 -39q1 179 21.5 397.5t39.5 351 t60 393.5zM834 1253l4 -4l-2 6l-27 7q-94 -37 -102 -41l18 -99zM1104 1407l29 41l-78 27l71 49l-18 18l-98 -4l49 66l-51 12l-47 -14q-214 -61 -330 -123l49 -25l-45 -43l2 -18l80 14l-47 -86l53 -10l4 -35q77 29 377 131zM1194 1425l74 -24l-35 -51q-296 -99 -369 -127 l41 -41l150 90q-20 -127 -33 -232l82 50q-77 -493 -98 -696q-27 -265 -25 -486l-80 41l-43 -39l-51 74l-68 -93l-41 62l-57 -41l-55 84l-125 -98l26 170h-88l-98 -187l-53 64l-41 -39l-60 74l-65 -64l-14 49l-111 -61l-23 110l-184 -63q362 808 803 1343l51 -110l86 57 l-6 41l-80 14l29 56l-33 -6l-14 86l22 18l-63 31q167 92 413 164l39 10l131 -33l-30 -41l110 -20l-45 -64l72 4l25 -28z" />
<glyph unicode="&#xe2;" horiz-adv-x="1024" d="M606 797h23l-68 -369h-164q60 135 209 369zM989 1171l-92 -55l-59 62l-142 -170l-30 155l-82 -53l-29 59l-2 -2l2 4l-14 29q-373 -461 -695 -1163l127 45l13 -59l108 141l19 -135l34 32l50 -59l94 178h264l-25 -164l68 54l37 -56l61 144l64 -129l41 39l67 -39 q1 179 21.5 397.5t39.5 351t60 393.5zM604 1184l37 24l-39 -18zM905 1182l74 45q-30 17 -125 80l-152 -70l23 -115l109 131zM1057 1413l86 10l-23 39l-334 185q-238 -105 -331 -152l34 -27l-51 -45l-2 -18l74 12l-66 -94l41 -12l-4 -37l299 139q132 -98 226 -145l51 8 l-25 67l86 -14l6 21zM1151 1497l88 -174l-80 -8l55 -53l-8 -35l-78 14l25 -65l-66 -11q-7 4 -22.5 12.5t-22.5 12.5q-3 -25 -10 -75.5t-10 -74.5l82 50q-77 -493 -98 -696q-27 -265 -25 -486l-80 41l-43 -39l-51 74l-68 -93l-41 62l-57 -41l-55 84l-125 -98l26 170h-88 l-98 -187l-53 64l-41 -39l-60 74l-65 -64l-14 49l-111 -61l-23 110l-184 -63q342 762 756 1284l-76 -35l8 78l-65 20l39 56l-35 8l31 98l-23 60l401 176z" />
<glyph unicode="&#xe3;" horiz-adv-x="1024" d="M606 797h23l-68 -369h-164q60 135 209 369zM989 1171l-92 -55l-59 62l-142 -170l-30 155l-82 -53l-27 55l-4 -2v11l-12 26q-373 -461 -695 -1163l127 45l13 -59l108 141l19 -135l34 32l50 -59l94 178h264l-25 -164l68 54l37 -56l61 144l64 -129l41 39l67 -39 q1 179 21.5 397.5t39.5 351t60 393.5zM604 1184l80 51q-25 -8 -84 -43zM725 1122l84 101q-33 7 -53 24h-6q-27 0 -48 -6zM1061 1417l57 53l-10 15l-76 -12l43 65l-35 6q-15 -10 -39.5 -28.5t-37 -26.5t-33 -18.5t-42 -14.5t-48.5 -4q-22 0 -39.5 9.5t-29.5 23.5t-24.5 28 t-31.5 23.5t-43 9.5q-25 0 -58.5 -12t-58.5 -25t-62 -34.5t-51 -28.5l31 -25l-45 -37l-4 -14l65 10l-57 -75l60 -15l-5 -39q21 11 60 37l6 6l2 -2q63 39 125 39q27 0 45 -8t27.5 -19t20.5 -22t33 -19t56 -8q87 0 154 48q12 8 36.5 28t39.5 29l26 39zM1139 1432l63 -23 l-53 -66l51 -16l-31 -49q-35 -18 -71 -48.5t-56 -39.5q-3 -23 -10 -73t-10 -77l82 50q-77 -493 -98 -696q-27 -265 -25 -486l-80 41l-43 -39l-51 74l-68 -93l-41 62l-57 -41l-55 84l-125 -98l26 170h-88l-98 -187l-53 64l-41 -39l-60 74l-65 -64l-14 49l-111 -61l-23 110 l-184 -63q339 749 731 1255l-37 -20l9 74l-84 22l34 47l-28 10l33 82l-27 39q15 8 64 35t81 43.5t74.5 31.5t71.5 15q34 0 61 -14.5t41 -32.5t31.5 -32.5t34.5 -14.5q25 0 45.5 4.5t41 15.5t33 19t36.5 26.5t36 26.5l105 -18l-25 -39h12l43 -60q-5 -4 -12 -12.5t-11 -15.5z " />
<glyph unicode="&#xe4;" horiz-adv-x="1024" d="M606 797h23l-68 -369h-164q60 135 209 369zM989 1171l-92 -55l-59 62l-142 -170l-30 155l-82 -53l-43 90q-373 -461 -695 -1163l127 45l13 -59l108 141l19 -135l34 32l50 -59l94 178h264l-25 -164l68 54l37 -56l61 144l64 -129l41 39l67 -39q1 179 21.5 397.5t39.5 351 t60 393.5zM604 1184l64 43l-4 18l-74 -28zM725 1122l53 64h-6l-31 57l-34 -26zM823 1571l-41 24l-92 -45l-8 45l-102 -82l12 109l-23 18q-85 -151 -123 -313l39 -10l82 49l13 -51l63 45l33 -60l33 9q51 144 114 262zM905 1182l62 37l-9 12l-47 -6l-41 63l-18 -2 q-9 -27 -14 -37zM1202 1554l-43 -22l4 70l-33 -3l-71 -59l-8 82l-80 -39l-17 51q-83 -153 -116 -297l57 6l27 -38l82 77l14 -86l43 37l39 -16q53 146 102 237zM1272 1446l57 29q-65 -116 -121 -273l-43 17l-32 -25l-33 66l-56 -52q-4 -29 -11 -85.5t-11 -82.5l82 50 q-77 -493 -98 -696q-27 -265 -25 -486l-80 41l-43 -39l-51 74l-68 -93l-41 62l-57 -41l-55 84l-125 -98l26 170h-88l-98 -187l-53 64l-41 -39l-60 74l-65 -64l-14 49l-111 -61l-23 110l-184 -63q359 798 789 1327l-4 8l-41 -22l-107 26q44 212 168 428l92 -73l-2 -15l74 60 l10 -64l57 29l93 -60q28 56 67 125l55 -65l93 47l6 -62l96 35l18 -57l74 -2q-24 -62 -49 -109l37 2z" />
<glyph unicode="&#xe5;" horiz-adv-x="1024" d="M606 797h23l-68 -369h-164q60 135 209 369zM1001 1509q0 -24 -31.5 -43.5t-76.5 -30t-83.5 -15.5t-61.5 -5q-24 0 -50 12t-26 35q0 28 29 48t73 28.5t78.5 12t62.5 3.5q86 0 86 -45zM989 1171l-92 -55l-49 51h-6h-13l-133 -159l-30 155l-82 -53l-43 90 q-373 -461 -695 -1163l127 45l13 -59l108 141l19 -135l34 32l50 -59l94 178h264l-25 -164l68 54l37 -56l61 144l64 -129l41 39l67 -39q1 179 21.5 397.5t39.5 351t60 393.5zM604 1184l41 26q-30 15 -51 39q-4 2 -12.5 5.5t-12.5 5.5zM725 1122l41 52q-37 5 -53 10z M1182 1509q0 50 -23.5 88.5t-62.5 59.5t-81 31t-87 10l-25 -35l23 -49l-78 18l-86 -16l33 51l-21 14q-51 -11 -95.5 -27t-95 -43t-80.5 -69t-30 -94q0 -49 28.5 -85.5t73.5 -55t89.5 -27t87.5 -8.5q53 0 121 12.5t140 38.5t120.5 75t48.5 111zM1280 1413q0 -78 -67 -131.5 t-169 -83.5q-4 -26 -11 -78.5t-11 -79.5l82 50q-77 -493 -98 -696q-27 -265 -25 -486l-80 41l-43 -39l-51 74l-68 -93l-41 62l-57 -41l-55 84l-125 -98l26 170h-88l-98 -187l-53 64l-41 -39l-60 74l-65 -64l-14 49l-111 -61l-23 110l-184 -63q360 798 787 1323 q-109 63 -109 170q0 66 34 118.5t91.5 85.5t112 52.5t116.5 32.5l76 -54h-2l2 -2l45 70q52 0 101 -10t97 -31.5t81 -62.5t41 -97q57 -54 57 -133z" />
<glyph unicode="&#xe6;" horiz-adv-x="1388" d="M606 797h23l-68 -369h-164q60 135 209 369zM1370 1051l180 28l-69 56l55 45q-125 8 -283 8q-155 0 -258 -12l-98 -60l-59 62l-142 -170l-30 155l-82 -53l-43 90q-191 -237 -370 -541.5t-325 -621.5l127 45l13 -59l108 141l19 -135l34 32l50 -59l94 178h266l-22 -139 l73 16l6 -59q115 -16 263 -16q201 0 317 28l31 51l-142 39l125 54l-39 22l66 88q-76 -6 -154 -6q-129 0 -211 14q3 31 12.5 92t12.5 91l389 -4l16 30l-55 49l68 45l-84 54l100 59l-16 31l-377 -2l33 162q119 14 311 14q109 0 162 -6l-29 67l70 31zM1599 1032l76 -61 l-174 -29l105 -59l-76 -37l31 -74q-59 8 -181 8h-39l56 -112l-70 -41h94l23 -45l-94 -56l84 -53l-70 -45l51 -45l-24 -45l-383 4l-4 -33h73q82 0 271 21l-103 -137l41 -25q11 1 24 -2.5t20 -7.5l7 -4l-45 -80l41 -25l-76 -33l-14 -24l98 -27l-38 -65q-122 -31 -324 -31 q-169 0 -272 16l-5 54h-14l-63 -15l2 21l-54 -4l-10 53l-92 -21l16 95h-88l-98 -187l-53 64l-41 -39v8l-2 -2l-58 68l-65 -84l-14 69l-111 -61l-23 110l-184 -63q368 816 803 1343l51 -110l96 63l25 -125l109 131l71 -71l74 45q106 12 266 12q142 0 424 -16l-106 -88 l108 -86q-62 -13 -72 -17z" />
<glyph unicode="&#xe7;" horiz-adv-x="776" d="M864 1124l58 23q-111 90 -240 90q-117 0 -231.5 -68t-206.5 -170q-104 -116 -161.5 -284.5t-57.5 -333.5q0 -275 163 -369q-6 -15 -14.5 -37t-12 -28.5t-11 -17t-19 -12.5t-29.5 -4.5t-47 -2.5q-55 0 -114 6l-21 -31l115 -51l-111 -27l35 -45l-55 -45q70 -6 141 -6 q65 0 106 2t76.5 16t53 24t41 47t35 62.5t38.5 91.5q5 13 8 19q117 11 236 82l-51 51l30 39l-116 21l108 76l-63 12l39 70q-97 -37 -148 -37q-58 0 -78 40t-20 105q0 51 13.5 114t40.5 129.5t63.5 121.5t88.5 90t109 35q36 0 72 -19l2 68l64 4l-41 115l135 -50zM1044 1040 l-65 -24l4 -74l-113 29l39 -109l-67 -2l-2 -78q-38 27 -92 27q-65 0 -122.5 -51.5t-93 -127t-56.5 -153t-23 -137.5q95 10 221 57l-47 -106l112 -21l-59 -65l33 -27l-21 -24l47 -9l-69 -49l69 -47l-34 -43l53 -55q-125 -78 -260 -90q-25 -62 -41 -96t-38.5 -67t-43 -46.5 t-56.5 -25.5t-76.5 -14.5t-105.5 -2.5q-74 0 -162 10l54 45q-64 0 -215 21l82 86l-50 65l48 10q-9 20 -29 37l51 82q98 -10 117 -10q77 0 96 35q-84 61 -120 166.5t-36 226.5q0 174 61.5 350.5t172.5 300.5q98 108 216.5 176t244.5 68q183 0 354 -150l-68 -24q44 -21 90 -64 z" />
<glyph unicode="&#xe8;" horiz-adv-x="872" d="M836 1051l180 28l-68 56l56 45q-120 6 -238 6q-182 0 -330 -19l27 -53l-90 -8l30 -94l-86 -51l-38 38q-223 -453 -291 -823l104 47l-8 -96l80 -31l-64 -92q121 -18 287 -18q181 0 275 24l28 51l-139 39l125 54l-41 22l65 88q-102 -10 -184 -10q-111 0 -180 14l51 187 l363 -4l18 30l-55 49l67 45l-86 54l101 59l-15 31l-311 -2l92 162q106 14 230 14q59 0 118 -6l-28 67l67 31zM791 1411l90 21l-29 36l-43 17q-176 68 -346 94l14 -45l-67 -6l-15 -12l72 -37l-109 -35l29 -37l-25 -29q129 -33 386 -116l55 14l-33 63l92 -4l4 25zM1067 1032 l76 -61l-174 -29l104 -59l-78 -37l33 -74q-60 8 -137 8q-12 0 -37.5 -1t-38.5 -1l47 -110l-69 -41h2h94l22 -45l-94 -56l84 -53l-70 -45l52 -45l-25 -45l-360 4l-11 -37h17q52 0 146 2t143 2l-82 -116l43 -25l71 -14l-67 -80l43 -25l-76 -33l-14 -24l98 -27l-39 -65 q-108 -27 -281 -27q-177 0 -305 23l33 47q-138 12 -205 24l68 107l-49 20l4 47l-115 -53q80 469 344 997l62 -61l16 10l-37 117l80 6l-27 51q103 14 189 19q-104 30 -152 41l29 35l-14 20q-119 31 -121 31l47 53l-45 57l67 23l-28 12l59 72h33l-19 57q165 -22 439 -112 l37 -13l67 -98l-57 -12l65 -76l-86 -23l54 -37l-4 -24q68 -2 219 -10l-107 -88l109 -86z" />
<glyph unicode="&#xe9;" horiz-adv-x="872" d="M836 1051l180 28l-68 56l56 45q-120 6 -238 6q-182 0 -330 -19l27 -53l-90 -8l30 -94l-86 -51l-38 38q-223 -453 -291 -823l104 47l-8 -96l80 -31l-64 -92q121 -18 287 -18q181 0 275 24l28 51l-139 39l125 54l-41 22l65 88q-102 -10 -184 -10q-111 0 -180 14l51 187 l363 -4l18 30l-55 49l67 45l-86 54l101 59l-15 31l-311 -2l92 162q106 14 230 14q59 0 118 -6l-28 67l67 31zM840 1235l-4 20l-27 7q-11 -4 -34 -13.5t-34 -13.5h31h68zM1104 1407l29 41l-78 27l71 49l-18 18l-98 -4l49 66l-51 12l-47 -14q-214 -61 -330 -123l49 -25 l-45 -43l2 -18l80 14l-47 -86l53 -10l4 -35q77 29 377 131zM1194 1425l74 -24l-35 -51q-232 -76 -338 -117q163 -4 242 -10l-107 -88l109 -86l-72 -17l76 -61l-174 -29l104 -59l-78 -37l33 -74q-60 8 -137 8q-12 0 -37.5 -1t-38.5 -1l47 -110l-69 -41h2h94l22 -45l-94 -56 l84 -53l-70 -45l52 -45l-25 -45l-360 4l-11 -37h17q52 0 146 2t143 2l-82 -116l43 -25l71 -14l-67 -80l43 -25l-76 -33l-14 -24l98 -27l-39 -65q-108 -27 -281 -27q-177 0 -305 23l33 47q-138 12 -205 24l68 107l-49 20l4 47l-115 -53q80 469 344 997l62 -61l16 10l-37 117 l80 6l-27 51q138 20 334 27l-8 47l-80 14l29 56l-33 -6l-14 86l22 18l-63 31q167 92 413 164l39 10l131 -33l-30 -41l110 -20l-45 -64l72 4l25 -28z" />
<glyph unicode="&#xea;" horiz-adv-x="872" d="M836 1051l180 28l-68 56l45 36q-3 2 -9 5.5t-9 5.5q-140 4 -209 4q-142 0 -283 -12l-12 -7v4q-5 -1 -17 -2t-18 -2l27 -53l-90 -8l30 -94l-86 -51l-38 38q-223 -453 -291 -823l104 47l-8 -96l80 -31l-64 -92q121 -18 287 -18q181 0 275 24l28 51l-139 39l125 54l-41 22 l65 88q-102 -10 -184 -10q-111 0 -180 14l51 187l363 -4l18 30l-55 49l67 45l-86 54l101 59l-15 31l-311 -2l92 162q106 14 230 14q59 0 118 -6l-28 67l67 31zM457 1221l-27 8l12 16l-73 -35q16 2 46 5.5t42 5.5zM885 1233q-19 12 -56.5 37t-56.5 37l-164 -76q110 4 164 4 q76 0 113 -2zM975 1413l86 10l-23 39l-333 185q-246 -109 -332 -152l35 -27l-52 -45l-2 -18l74 12l-66 -94l41 -12l-4 -37l299 139q132 -98 226 -145l51 8l-25 67l86 -14l6 21zM1069 1497l88 -174l-80 -8l56 -53l-9 -35l-77 14l4 -14q28 0 86 -4l-107 -88l109 -86l-72 -17 l76 -61l-174 -29l104 -59l-78 -37l33 -74q-60 8 -137 8q-12 0 -37.5 -1t-38.5 -1l47 -110l-69 -41h2h94l22 -45l-94 -56l84 -53l-70 -45l52 -45l-25 -45l-360 4l-11 -37h17q52 0 146 2t143 2l-82 -116l43 -25l71 -14l-67 -80l43 -25l-76 -33l-14 -24l98 -27l-39 -65 q-108 -27 -281 -27q-177 0 -305 23l33 47q-138 12 -205 24l68 107l-49 20l4 47l-115 -53q80 469 344 997l62 -61l16 10l-37 117l80 6l-25 49l-12 -6l8 78l-65 20l39 56l-35 8l31 98l-23 60l402 176z" />
<glyph unicode="&#xeb;" horiz-adv-x="872" d="M836 1051l180 28l-68 56l56 45q-8 0 -26 1t-26 1l-8 -8l-6 10q-57 2 -172 2q-182 0 -330 -19l27 -53l-90 -8l30 -94l-86 -51l-38 38q-223 -453 -291 -823l104 47l-8 -96l80 -31l-64 -92q121 -18 287 -18q181 0 275 24l28 51l-139 39l125 54l-41 22l65 88 q-102 -10 -184 -10q-111 0 -180 14l51 187l363 -4l18 30l-55 49l67 45l-86 54l101 59l-15 31l-311 -2l92 162q106 14 230 14q59 0 118 -6l-28 67l67 31zM612 1231l-4 20l-63 -24q46 4 67 4zM692 1235l-6 14l-22 -16q20 0 28 2zM768 1577l-41 25l-92 -46l-8 46l-103 -82 l13 108l-23 19q-89 -159 -123 -314l39 -10l82 49l12 -51l64 45l33 -59l32 8q54 152 115 262zM852 1235l-37 59l-18 -2q-16 -36 -23 -57h78zM879 1233h26l-2 4zM1063 1227l-19 39l-38 -37q37 0 57 -2zM1108 1225h2h-2zM1147 1561l-43 -23l4 70l-33 -2l-71 -60l-9 82l-80 -39 l-16 51q-82 -146 -117 -297l58 7l26 -39l82 78l15 -86l43 36l38 -16q42 126 103 238zM1217 1452l57 29q-73 -132 -121 -273l-23 9l-100 -82l109 -86l-72 -17l76 -61l-174 -29l104 -59l-78 -37l33 -74q-60 8 -137 8q-12 0 -37.5 -1t-38.5 -1l47 -110l-69 -41h2h94l22 -45 l-94 -56l84 -53l-70 -45l52 -45l-25 -45l-360 4l-11 -37h17q52 0 146 2t143 2l-82 -116l43 -25l71 -14l-67 -80l43 -25l-76 -33l-14 -24l98 -27l-39 -65q-108 -27 -281 -27q-177 0 -305 23l33 47q-138 12 -205 24l68 107l-49 20l4 47l-115 -53q80 469 344 997l62 -61l16 10 l-37 117l80 6l-27 51q127 15 152 17l-31 67l-41 -22l-106 26q25 118 64 217.5t104 210.5l92 -73l-2 -15l74 60l10 -64l57 29l92 -59q21 46 68 124l55 -65l92 47l6 -61l97 34l18 -57l74 -2q-26 -62 -49 -109l37 3z" />
<glyph unicode="&#xec;" horiz-adv-x="575" d="M700 1157l-65 -43l-27 64l-90 -68l-10 90l-27 25l-92 -105l-24 66q-242 -498 -435 -1172l84 66l45 -60l105 150l-2 -184l49 30l35 -47q158 523 454 1188zM586 1227l16 10l-16 8v-18zM623 1432l84 -13l-9 45l-30 31q-145 138 -256 209l-4 -49l-62 20l-16 -8l47 -57l-105 4 l11 -45l-33 -19q115 -94 254 -219l18 21l13 -45l47 -7l-4 72l77 -37l11 21zM741 1028l86 53q-326 -727 -475 -1237l-41 56l-43 -41l-69 90l-72 -66l-16 76l-76 -55l2 59l-33 45l-143 -90q115 413 232.5 744t275.5 651l39 -96l36 43q-150 130 -211 176l39 22l-4 25 q-15 12 -44.5 34.5t-45.5 34.5l60 35l-17 68l66 -2l-19 22l78 45l29 -10l6 62q165 -100 326 -261l26 -24l19 -115l-52 8l25 -94l-82 10l33 -53l-19 -31l-12 7l12 -29l142 84l-76 -199z" />
<glyph unicode="&#xed;" horiz-adv-x="575" d="M700 1157l-65 -43l-27 64l-90 -68l-14 139l-115 -129l-24 66q-242 -498 -435 -1172l84 66l45 -60l105 150l-2 -184l49 30l35 -47q158 523 454 1188zM545 1260l10 57l-20 -12zM657 1190l136 80l-15 22l-26 -2q-52 -43 -95 -80l-30 58l-80 -13l12 -49l70 51zM981 1524 l12 49h-82l52 69l-23 13l-92 -37l24 78l-53 -6l-39 -27q-169 -120 -270 -227l55 -9l-28 -55l8 -14l71 39l-16 -97l51 7l19 -31q126 109 311 248zM1059 1573h78l-15 -60q-229 -173 -321 -258l-6 9l-72 -189l18 -47l86 53q-326 -727 -475 -1237l-41 56l-43 -41l-69 90l-72 -66 l-16 76l-76 -55l2 59l-33 45l-143 -90q115 413 232.5 744t275.5 651l39 -96l100 116l-25 43l17 25l-70 8q132 149 334 291l33 24l135 11l-14 -47l110 18l-20 -76l65 27l33 -19z" />
<glyph unicode="&#xee;" horiz-adv-x="575" d="M700 1157l-65 -43l-27 64l-90 -68l-10 98l-74 -39l-45 -49l-8 23l-10 -6l2 24l-8 25q-242 -498 -435 -1172l84 66l45 -60l105 150l-2 -184l49 30l35 -47q158 523 454 1188zM657 1190l56 33q-13 9 -37 27.5t-37 27.5l-86 -45l6 -27l70 51zM819 1382l78 11l-20 39l-299 184 q-162 -78 -293 -150l30 -28l-47 -45l-2 -19l66 15l-58 -95l37 -12l-6 -37l39 19q4 8 12.5 24.5t12.5 24.5l12 -31l192 100q105 -87 183 -133l43 25l-13 -35l35 6l-24 70l80 -15l4 19zM903 1466l80 -172l-72 -10l50 -53l-7 -35l-71 14l22 -65l-57 -10q-32 18 -82 51l-43 -111 l18 -47l86 53q-326 -727 -475 -1237l-41 56l-43 -41l-69 90l-72 -66l-16 76l-76 -55l2 59l-33 45l-143 -90q110 391 213 691.5t239 588.5l-51 -27l6 76l-57 21l35 55l-31 10l27 97l-21 59l359 178z" />
<glyph unicode="&#xef;" horiz-adv-x="575" d="M700 1157l-65 -43l-27 64l-90 -68l-10 109l-6 -2l-4 24l-109 -121l-24 66q-242 -498 -435 -1172l84 66l45 -60l105 150l-2 -184l49 30l35 -47q158 523 454 1188zM408 1217l20 22l-20 -6l-33 76l-4 -4zM559 1206l23 17l-21 43l-14 -13zM657 1190l101 59l-2 4l-41 -6 l-37 64l-16 -2q-4 -12 -12.5 -36t-12.5 -36zM635 1593l-37 25l-82 -45l-8 45l-92 -82l10 109l-20 18q-75 -150 -111 -313l37 -11l74 50l10 -52l57 45l27 -57l22 27l6 -23l4 2q42 137 103 262zM977 1577l-39 -23l2 70l-29 -2l-63 -59l-8 82l-72 -39l-14 51 q-79 -159 -107 -297l53 6l23 -39l74 78l14 -86l37 37l37 -17q40 129 92 238zM1038 1468l52 29q-66 -134 -109 -272l-39 16l-29 -24l-28 65l-92 -92l-17 27l-53 -142l18 -47l86 53q-326 -727 -475 -1237l-41 56l-43 -41l-69 90l-72 -66l-16 76l-76 -55l2 59l-33 45l-143 -90 q117 415 231.5 740.5t269.5 641.5l-24 -14l-96 27q23 116 58 214.5t93 213.5l84 -74l-2 -14l66 59l10 -63l51 28l82 -59q31 65 61 125l50 -66l84 47l6 -61l86 35l16 -58l66 -2q-23 -61 -43 -108l32 2z" />
<glyph unicode="&#xf0;" horiz-adv-x="1183" d="M817 782l-51 -2q-1 -3 -4 -8t-4 -8l53 -43l-55 -39l39 -29q16 66 16 68q6 45 6 61zM858 760q0 -52 -19.5 -127t-52.5 -149t-85.5 -125.5t-110.5 -51.5q-24 0 -71 2t-70 2q17 70 40 150q29 1 84.5 4t83.5 4l54 41l-60 59l99 35l-7 29l-98 29l86 61l-41 33h-98 q36 85 65 137q41 2 123 2q78 0 78 -135zM1169 846q0 357 -290 373q-35 2 -105 2q-141 0 -215 -17l19 -82h-74v-86l-66 -32l-47 40q-78 -149 -135 -301q-115 -9 -217 -32l35 -47l-72 -35l-8 -23l88 -10l-98 -88l43 -31l-15 -45q23 2 71.5 5t72.5 5q-50 -168 -68 -286l76 18 l18 -65h76l-74 -84q83 -17 238 -17h133q119 6 221.5 60t173 138.5t121 192.5t74.5 221.5t24 225.5zM1282 743q0 -94 -17.5 -190.5t-51.5 -189.5t-87.5 -175t-120.5 -145.5t-157 -102.5t-191 -44h-69q-14 0 -59.5 -0.5t-70.5 0t-63 2t-69 6t-58 12.5l41 47q-131 11 -215 35 l51 59h-2l-16 56l-100 -23q22 145 61 291l-4 4l-137 -10l26 80l-69 47l61 55l-35 4l37 109l33 14l-41 59q126 29 264 45q72 181 152 336l71 -59l7 2v107h61l-14 67q117 31 291 31q81 0 138 -8.5t111.5 -33t92.5 -73t61 -123.5q88 -101 88 -291z" />
<glyph unicode="&#xf1;" horiz-adv-x="1044" d="M1202 1167l-26 23l-60 -51l-14 59l-109 -147l-2 145l-51 -29l-47 33q-8 -17 -38.5 -83t-41.5 -90t-35.5 -81t-37.5 -92t-29.5 -83.5t-28.5 -92.5h-23l-53 520l-26 -33l-33 62l-45 -164l-53 125l-41 -43l-35 51q-154 -337 -262.5 -616t-176.5 -551l56 34l22 -67l115 168 l6 -125l60 24l32 -45q3 9 17 48t18.5 51.5t17.5 47.5t20 51.5t19 46.5t22 50t22.5 45.5t25.5 47.5l16 -7l117 -413l15 8l47 127l36 -90l37 43l39 -74l39 57l37 -32q182 653 432 1142zM866 1262q-31 10 -49 26h-6q-28 0 -58.5 -11t-47 -21t-50.5 -33l13 -111l16 -31l33 41 l16 -159q63 147 133 299zM1042 1204l2 2h-2v-2zM1126 1473l58 57l-10 16l-76 -14l43 72l-37 6q-13 -10 -38.5 -31t-37.5 -29.5t-33 -20t-43 -16t-49 -4.5t-48.5 16.5t-34.5 36t-36 36t-53 16.5q-32 0 -70.5 -17t-94.5 -52.5t-66 -41.5l32 -26l-47 -39l-2 -17l66 11l-57 -82 l36 -11v2l2 -4l21 -4l-2 -20l10 -15q8 5 28 19t29 19.5t27 15.5t31 14.5t31 8t36 3.5q28 0 46 -8.5t28 -20.5t21 -24t33.5 -20.5t56.5 -8.5q87 0 155 52q8 7 23 20t28 23.5t25 17.5l27 43zM1278 1102l39 -35q-266 -517 -440 -1163l-39 35l-41 -41l-41 55l-51 -66l-37 58 l-23 -60l-29 -18l-32 115l-6 -21l-86 -57l-68 237q-10 -25 -94 -247l-39 55l-53 -39l-52 72l-75 -111l-25 74l-90 -62l-35 101l-104 -68q140 592 505 1382l52 -71l49 53l29 -63l16 55l2 28l-84 25l37 51l-31 10l33 91l-25 41q14 8 64 38t81.5 48t74 34.5t71.5 16.5t52 -10.5 t38 -25.5t27.5 -30.5t26 -26t28.5 -10.5q25 0 46 5t41.5 16.5t33.5 21t37 29t37 29.5l104 -21l-24 -43l12 2l43 -65q-5 -4 -12.5 -13.5t-12.5 -16.5l-4 -7l64 -25l-54 -71l54 -19l-31 -55q-21 -11 -38 -23.5t-35 -28.5t-23 -20l4 -14q8 -1 24.5 3t28.5 8l12 5q38 -51 56 -69 l-47 -97l6 -28z" />
<glyph unicode="&#xf2;" horiz-adv-x="983" d="M649 778q-90 -61 -153.5 -195.5t-73.5 -254.5q43 17 83.5 72.5t68.5 127t46.5 134.5t28.5 116zM690 809q0 -57 -21 -145t-56.5 -177.5t-93 -153t-120.5 -63.5q-50 0 -71 38.5t-21 92.5q0 56 24.5 142t64.5 170.5t100 144.5t122 60q72 0 72 -109zM987 825q0 206 -121 330 l-8 -88l-59 25v-86l-170 73l63 54l-39 22l23 55q-98 -2 -183.5 -36.5t-149 -88t-118 -130.5t-92 -153.5t-70.5 -168.5q-55 -150 -55 -283q0 -170 85 -266t253 -96q418 0 592 559q49 152 49 278zM813 1141l4 28h-2q-89 29 -90 29l-8 -20q62 -22 96 -37zM811 1432l90 20 l-27 37l-45 16q-197 71 -346 94l15 -45l-68 -6l-14 -12l71 -37l-108 -35l29 -37l-25 -28q199 -54 385 -117l55 14l-32 64l92 -4l4 24zM1100 723q0 -128 -49 -283q-177 -565 -602 -565q-153 0 -240 78q-87 23 -145 86t-81.5 141t-23.5 170q0 145 57 301q45 121 95 213 t117 172.5t154.5 133t195.5 75.5q-18 5 -50.5 14t-60 16.5t-51.5 12.5l28 35l-14 20q-119 31 -121 31l47 53l-45 58l68 22l-29 13l60 71h32l-18 58q199 -27 438 -113l37 -12l68 -99l-58 -12l66 -76l-86 -22l53 -37l-6 -35l-86 4l18 -33q52 -46 95 -118q22 -45 24 -47 q6 -9 20.5 -28t20.5 -28q72 -110 72 -270z" />
<glyph unicode="&#xf3;" horiz-adv-x="983" d="M649 778q-90 -61 -153.5 -195.5t-73.5 -254.5q43 17 83.5 72.5t68.5 127t46.5 134.5t28.5 116zM690 809q0 -57 -21 -145t-56.5 -177.5t-93 -153t-120.5 -63.5q-50 0 -71 38.5t-21 92.5q0 56 24.5 142t64.5 170.5t100 144.5t122 60q72 0 72 -109zM987 825q0 206 -121 330 l-8 -88l-59 25v-86l-170 73l63 54l-39 22l23 55q-98 -2 -183.5 -36.5t-149 -88t-118 -130.5t-92 -153.5t-70.5 -168.5q-55 -150 -55 -283q0 -170 85 -266t253 -96q418 0 592 559q49 152 49 278zM862 1219l-6 36l-27 7q-83 -32 -92 -35l-20 -49q62 -22 96 -37l12 102 q4 -2 37 -24zM1124 1407l29 41l-78 27l70 49l-17 18l-98 -4l47 66l-51 12l-45 -14q-209 -59 -330 -123l49 -25l-47 -43l2 -18l82 14l-47 -86l51 -10l7 -35q85 32 376 131zM1212 1425l76 -24l-35 -51q-275 -90 -387 -136q56 -47 97 -118q3 -5 10.5 -22t13.5 -25 q6 -9 20.5 -28t20.5 -28q72 -110 72 -270q0 -128 -49 -283q-177 -565 -602 -565q-153 0 -240 78q-87 23 -145 86t-81.5 141t-23.5 170q0 145 57 301q41 109 85 194.5t104.5 163.5t131 129.5t164.5 84t206 37.5l-2 22l-82 14l30 56l-32 -6l-15 86l23 18l-64 31 q160 90 414 164l37 10l133 -33l-31 -41l111 -20l-45 -64l69 4l25 -28z" />
<glyph unicode="&#xf4;" horiz-adv-x="983" d="M649 778q-90 -61 -153.5 -195.5t-73.5 -254.5q43 17 83.5 72.5t68.5 127t46.5 134.5t28.5 116zM690 809q0 -57 -21 -145t-56.5 -177.5t-93 -153t-120.5 -63.5q-50 0 -71 38.5t-21 92.5q0 56 24.5 142t64.5 170.5t100 144.5t122 60q72 0 72 -109zM987 825q0 206 -121 330 l-8 -88l-59 25v-86l-170 73l63 54l-39 22l23 55q-21 0 -31 -2l-133 -61l4 37q-286 -98 -453 -551q-55 -150 -55 -283q0 -170 85 -266t253 -96q418 0 592 559q49 152 49 278zM1016 1393l86 10l-23 39l-334 184q-254 -112 -331 -151l35 -27l-52 -45l-2 -19l74 13l-66 -94 l41 -13l-4 -37l299 140q136 -101 226 -146l51 8l-25 68l86 -14l6 20zM1110 1477l88 -174l-80 -9l56 -53l-9 -35l-78 15l25 -66l-65 -10q-75 38 -234 141l-61 -26l-35 -82q62 -22 96 -37l12 102q81 -44 138 -147q22 -45 24 -47q6 -9 20.5 -28t20.5 -28q72 -110 72 -270 q0 -128 -49 -283q-177 -565 -602 -565q-153 0 -240 78q-87 23 -145 86t-81.5 141t-23.5 170q0 145 57 301q80 217 189 359t272 204l6 11l-94 -45l8 77l-65 21l39 55l-35 8l31 99l-23 59l401 176z" />
<glyph unicode="&#xf5;" horiz-adv-x="983" d="M649 778q-90 -61 -153.5 -195.5t-73.5 -254.5q43 17 83.5 72.5t68.5 127t46.5 134.5t28.5 116zM690 809q0 -57 -21 -145t-56.5 -177.5t-93 -153t-120.5 -63.5q-50 0 -71 38.5t-21 92.5q0 56 24.5 142t64.5 170.5t100 144.5t122 60q72 0 72 -109zM987 825q0 206 -121 330 l-8 -88l-59 25v-86l-170 73l63 54l-39 22l23 55q-30 0 -80 -8q-19 -10 -45 -28l2 20q-93 -24 -171.5 -79.5t-137.5 -135t-101.5 -162.5t-79.5 -184q-55 -150 -55 -283q0 -170 85 -266t253 -96q418 0 592 559q49 152 49 278zM524 1231l-18 4l-60 -33q57 23 78 29zM813 1141 l12 96h-2q-40 6 -67 31h-6q-29 0 -48 -8q16 2 52 2l-37 -84q62 -22 96 -37zM1065 1452l57 57l-10 17l-76 -15l43 72l-37 6q-13 -10 -38.5 -30.5t-37.5 -29t-33 -20t-42.5 -16t-48.5 -4.5t-48.5 16.5t-34.5 35.5t-36 35.5t-53 16.5q-32 0 -70 -16.5t-96 -53t-66 -40.5l33 -27 l-47 -39l-2 -16l65 10l-57 -82l59 -16l-4 -43q15 9 46 30t47.5 30.5t44.5 18.5t57 9q28 0 46 -8.5t27.5 -20.5t20.5 -24t33.5 -20.5t56.5 -8.5q89 0 156 51q4 3 32 28t44 34l26 43zM1143 1468l63 -24l-53 -72l53 -18l-30 -56q-31 -17 -60 -41t-44.5 -38t-49 -24.5 t-84.5 -10.5q-21 0 -41 4q38 -42 66 -92q22 -45 24 -47q6 -9 20.5 -28t20.5 -28q72 -110 72 -270q0 -128 -49 -283q-177 -565 -602 -565q-153 0 -240 78q-87 23 -145 86t-81.5 141t-23.5 170q0 145 57 301q77 206 177.5 343.5t248.5 205.5l7 80l-84 25l36 51l-30 10l32 90 l-24 41q14 8 64 38t81.5 48t74 34.5t71.5 16.5t52 -10.5t38 -25.5t27.5 -30t26 -25.5t28.5 -10.5q31 0 59.5 10.5t42 18.5t48 36t44.5 35l105 -20l-25 -43l12 2l43 -66q-5 -4 -12 -13.5t-11 -16.5z" />
<glyph unicode="&#xf6;" horiz-adv-x="983" d="M649 778q-90 -61 -153.5 -195.5t-73.5 -254.5q43 17 83.5 72.5t68.5 127t46.5 134.5t28.5 116zM690 809q0 -57 -21 -145t-56.5 -177.5t-93 -153t-120.5 -63.5q-50 0 -71 38.5t-21 92.5q0 56 24.5 142t64.5 170.5t100 144.5t122 60q72 0 72 -109zM987 825q0 206 -121 330 l-8 -88l-59 25v-86l-170 73l63 54l-39 22l23 55h-14l-21 -14l-2 12q-91 -8 -170.5 -45t-138.5 -90t-111 -128.5t-87.5 -149t-68.5 -162.5q-55 -150 -55 -283q0 -170 85 -266t253 -96q418 0 592 559q49 152 49 278zM788 1573l-40 24l-93 -45l-8 45l-102 -81l12 108l-22 18 q-85 -151 -123 -313l39 -10l81 49l13 -51l63 45l33 -59l33 8q51 144 114 262zM1167 1556l-43 -22l4 70l-32 -2l-72 -60l-8 82l-80 -39l-16 51q-85 -156 -117 -297l57 7l27 -39l82 77l14 -86l43 37l39 -16q47 130 102 237zM1237 1448l57 29q-62 -111 -120 -273l-44 17 l-32 -25l-33 66l-100 -93l-41 64l-47 -6l-41 63l-19 -2q-18 -46 -33 -90l-47 -10l-8 16l-12 -26q62 -22 96 -37l12 102q81 -44 138 -147q22 -45 24 -47q6 -9 20.5 -28t20.5 -28q72 -110 72 -270q0 -128 -49 -283q-177 -565 -602 -565q-153 0 -240 78q-87 23 -145 86 t-81.5 141t-23.5 170q0 145 57 301q42 113 88.5 201t107.5 166t140.5 131.5t175.5 81.5l-28 57l-41 -22l-107 26q24 115 63 213t105 215l92 -73l-2 -15l74 60l10 -64l58 29l92 -60q28 56 67 125l56 -65l92 47l6 -62l96 35l19 -57l73 -2q-24 -62 -49 -109l37 2z" />
<glyph unicode="&#xf7;" horiz-adv-x="1124" d="M651 360l-53 -28l4 74l-67 -64l-11 66l-30 -33l-23 22l-84 -86l14 140l-26 24q-100 -207 -137 -397l69 10l6 -45l64 107l22 -84l35 43l23 -84l37 26l36 -2q49 159 121 311zM655 424l74 41l-72 -2zM940 692l115 35l-6 29l-115 28l100 62l-49 33q-8 0 -82.5 -0.5t-89.5 -1 t-80.5 -1t-89 -2t-80 -4t-89 -5.5t-80 -7.5t-88 -10.5t-81.5 -13l39 -48l-82 -34l-10 -23l102 -10l-114 -88l51 -31l-18 -45q410 26 755 37l62 41zM561 915l82 5l-2 18l-10 -2l6 22l-4 23zM662 920l24 2l-2 22zM723 924l47 2v2l-18 -2l-2 22zM860 928h29v18zM967 1348 l-70 -11l-8 49l-80 -104l-8 80l-49 -35l-7 68l-38 -41l-37 18q-96 -199 -127 -319l45 16l8 -53l74 67l10 -65l31 33l22 -25l64 41l4 -86l24 4q49 165 142 363zM1161 662l8 -44l-106 -32l65 -58l-73 -49q-49 -2 -147.5 -6t-147.5 -6q-38 -74 -80 -174l37 35l-4 -80l63 37 q-72 -145 -135 -348l-43 2l-45 -33l-21 78l-34 -41l-13 39l-59 -43v2l-16 -29l-11 61l-71 -10v6l-43 -30l-21 90l-90 -13q35 190 133 426l-26 -2l20 54l-25 14l-159 -10l30 80l-79 47l71 55l-41 4l43 109l39 14l-49 59q153 34 428 49l-12 86l-74 -24q51 222 172 463l49 -25 l88 94l11 -90l49 35l4 -41l76 78l18 -96l113 16q-4 -10 -24.5 -51t-29.5 -64l9 -49l77 10q-75 -156 -131 -327h47l125 -86l-63 -39l31 -6l2 -15l59 -41l-45 -26l4 -25l-35 -10z" />
<glyph unicode="&#xf8;" horiz-adv-x="1064" d="M756 670q-4 -20 -13 -78.5t-18 -89.5q-27 -92 -91 -160t-151 -76q106 162 273 404zM633 963q-137 -190 -297 -431q6 19 18 62t19.5 70t23 69t29 69.5t35.5 59.5t46 51.5t56.5 33.5t69.5 16zM1206 1264l-10 59l-80 -55l39 100q-48 -12 -121 -96l37 114l-47 -14l25 76h-35 q-83 -91 -248 -305l-55 33l22 55q-104 -1 -186.5 -24t-142.5 -62t-110.5 -103.5t-86 -135t-72.5 -169.5q-63 -166 -63 -360q0 -129 34 -203q-92 -149 -155 -258l-2 -39q13 5 25.5 11t26.5 14.5t23 14.5t25.5 18t22.5 16l-21 -74l68 33l-21 -86l107 92l-17 -88l21 6l113 180 q20 -2 61 -2q133 0 229.5 31.5t165 99t113.5 154t86 215.5q59 183 59 354q0 100 -22 162q110 145 192 236zM1307 1239l14 -82q-90 -98 -193 -233q21 -67 21 -158q0 -171 -59 -358q-44 -141 -95.5 -234t-128 -159.5t-183 -93t-253.5 -19.5l-113 -178l-41 -15l17 78l-90 -74 l2 66l-84 -31l6 35l-100 -62l16 97l-72 -35l17 55l-94 -45l6 137q47 84 149 248q-29 79 -29 197q0 202 68 379q56 149 115 244.5t143 161.5t195 94t268 28q103 130 182 217h127l-14 -49l45 14l-16 -49l118 55l-26 -65l10 6l20 -133l21 8q-7 -21 -37 -94z" />
<glyph unicode="&#xf9;" horiz-adv-x="1044" d="M1186 1126l-49 -32l-31 55l-109 -170v160l-69 -76l-25 84l-14 12q-23 -46 -47.5 -100t-40.5 -89.5t-44.5 -107.5t-36 -91.5t-41 -108t-36.5 -95.5q-3 -8 -25.5 -71.5t-42 -112.5t-28.5 -59q-36 -41 -105 -41q-66 0 -86 43q51 303 316 817l-74 -29l-4 74l-70 -86l-30 43 l-99 -139l-14 188l-35 -10q-108 -217 -205.5 -495t-134.5 -494l84 20l-4 -74l74 27l24 -66l-49 -32l15 -29l-35 -29q113 -30 338 -30q84 0 125 6q64 10 110 30.5t78 56t53.5 77.5t42.5 106q5 14 29.5 86.5t31 91t29 84t31.5 90.5t30 84t33 90t32 83.5t35.5 89.5t34.5 82 t38 87zM645 1186l64 18q-14 4 -41.5 12.5t-40.5 12.5zM842 1178l-27 -9q-11 4 -33 11.5t-34 11.5q-11 -29 -41 -96l4 -70l75 29q9 20 28 61t28 62zM811 1432l90 20l-27 37l-45 16q-197 71 -346 94l15 -45l-68 -6l-14 -12l71 -37l-108 -35l29 -37l-25 -28q199 -54 385 -117 l55 14l-32 64l92 -4l4 24zM1243 1006l70 49q-33 -71 -66.5 -152.5t-56.5 -139t-59.5 -160t-50 -141.5t-55.5 -161.5t-50 -146.5q-59 -169 -148 -227t-274 -58q-249 0 -356 37l43 35l-2 4q-139 18 -226 51l72 57l-16 27l-35 -12l4 82l-92 -21q39 251 141.5 554t224.5 544 l115 35l8 -111l60 84l32 -47l60 55q-72 21 -170 45l28 35l-14 20q-119 31 -121 31l47 53l-45 58l68 22l-29 13l60 71h32l-18 58q199 -27 438 -113l37 -12l68 -99l-58 -12l66 -76l-86 -22l53 -37l-6 -35l-86 4l14 -24l8 16l76 -63l2 -11l76 64l23 -76l63 74l43 -60l115 47 q-25 -83 -56 -157z" />
<glyph unicode="&#xfa;" horiz-adv-x="1044" d="M1186 1126l-49 -32l-31 55l-109 -170v160l-69 -76l-25 84l-14 12q-23 -46 -47.5 -100t-40.5 -89.5t-44.5 -107.5t-36 -91.5t-41 -108t-36.5 -95.5q-3 -8 -25.5 -71.5t-42 -112.5t-28.5 -59q-36 -41 -105 -41q-66 0 -86 43q51 303 316 817l-74 -29l-4 74l-70 -86l-30 43 l-99 -139l-14 188l-35 -10q-108 -217 -205.5 -495t-134.5 -494l84 20l-4 -74l74 27l24 -66l-49 -32l15 -29l-35 -29q113 -30 338 -30q84 0 125 6q64 10 110 30.5t78 56t53.5 77.5t42.5 106q5 14 29.5 86.5t31 91t29 84t31.5 90.5t30 84t33 90t32 83.5t35.5 89.5t34.5 82 t38 87zM1104 1407l29 41l-78 27l71 49l-18 18l-98 -4l49 66l-51 12l-47 -14q-214 -61 -330 -123l49 -25l-45 -43l2 -18l80 14l-47 -86l53 -10l4 -35q77 29 377 131zM1243 1006l70 49q-33 -71 -66.5 -152.5t-56.5 -139t-59.5 -160t-50 -141.5t-55.5 -161.5t-50 -146.5 q-59 -169 -148 -227t-274 -58q-249 0 -356 37l43 35l-2 4q-139 18 -226 51l72 57l-16 27l-35 -12l4 82l-92 -21q39 251 141.5 554t224.5 544l115 35l8 -111l60 84l32 -47l86 78l33 -80l113 33q-26 -74 -51 -123l4 -70l75 29q63 139 78 166l-20 -9l-8 43l-27 7 q-53 -19 -113 -45l-12 65l-80 14l29 56l-33 -6l-14 86l22 18l-63 31q167 92 413 164l39 10l131 -33l-30 -41l110 -20l-45 -64l72 4l25 -28l-66 -48l74 -24l-35 -51q-271 -90 -348 -121l63 -53l2 -11l76 64l23 -76l63 74l43 -60l115 47q-25 -83 -56 -157z" />
<glyph unicode="&#xfb;" horiz-adv-x="1044" d="M1186 1126l-49 -32l-31 53l-109 -168v160l-69 -76l-25 84l-14 12q-23 -46 -47.5 -100t-40.5 -89.5t-44.5 -107.5t-36 -91.5t-41 -108t-36.5 -95.5q-3 -8 -25.5 -71.5t-42 -112.5t-28.5 -59q-36 -41 -105 -41q-66 0 -86 43q51 303 316 817l-74 -29l-2 51l-31 -12l-41 -51 l-30 43l-99 -139l-14 188l-35 -10q-108 -217 -205.5 -495t-134.5 -494l84 20l-4 -74l74 27l24 -66l-49 -32l15 -29l-35 -29q113 -30 338 -30q84 0 125 6q64 10 110 30.5t78 56t53.5 77.5t42.5 106q5 14 29.5 86.5t31 91t29 84t31.5 90.5t30 84t33 90t32 83.5t35.5 89.5 t34.5 82t38 87zM434 1151l33 45l-35 -16zM432 1188l6 69l-12 5zM526 1188l13 12l-27 8zM512 1208l12 17l-16 -8zM950 1165l41 33q-11 7 -137 88l-211 -96l2 -4l113 33q-26 -74 -51 -123l4 -70l75 29q57 129 86 184l76 -63zM1049 1153l8 8l-13 6zM1057 1393l86 10l-23 39 l-334 184q-254 -112 -331 -151l34 -27l-51 -45l-2 -19l74 13l-66 -94l41 -13l-4 -37l299 140q136 -101 226 -146l51 8l-25 68l86 -14l6 20zM1243 1006l70 49q-33 -71 -66.5 -152.5t-56.5 -139t-59.5 -160t-50 -141.5t-55.5 -161.5t-50 -146.5q-59 -169 -148 -227t-274 -58 q-249 0 -356 37l43 35l-2 4q-139 18 -226 51l72 57l-16 27l-35 -12l4 82l-92 -21q39 251 141.5 554t224.5 544l115 35l-53 16l39 55l-35 8l31 99l-23 59l401 176l365 -198l88 -174l-80 -9l55 -53l-8 -35l-78 15l11 -31l16 -23l115 47q-25 -83 -56 -157z" />
<glyph unicode="&#xfc;" horiz-adv-x="1044" d="M1186 1126l-49 -32l-31 55l-109 -170v131l-10 16l-59 -63l-25 84l-14 12q-23 -46 -47.5 -100t-40.5 -89.5t-44.5 -107.5t-36 -91.5t-41 -108t-36.5 -95.5q-3 -8 -25.5 -71.5t-42 -112.5t-28.5 -59q-36 -41 -105 -41q-66 0 -86 43q51 303 316 817l-74 -29l-2 43l-25 -8 l-4 6l-43 -53l-30 43l-99 -139l-14 188l-35 -10q-108 -217 -205.5 -495t-134.5 -494l84 20l-4 -74l74 27l24 -66l-49 -32l15 -29l-35 -29q113 -30 338 -30q84 0 125 6q64 10 110 30.5t78 56t53.5 77.5t42.5 106q5 14 29.5 86.5t31 91t29 84t31.5 90.5t30 84t33 90t32 83.5 t35.5 89.5t34.5 82t38 87zM434 1151l39 55l-43 13zM526 1188l19 16l-10 21l-25 -15zM866 1227l-14 -2q-24 -61 -33 -90l-47 -11l-29 56q-22 -54 -36 -84l4 -70l75 29q47 107 80 172zM823 1509l-41 25l-92 -45l-8 45l-102 -82l12 109l-23 18q-85 -151 -123 -313l39 -11l82 50 l13 -52l63 45l33 -59l33 8q51 144 114 262zM950 1165l4 4l-4 -2v-2zM1202 1493l-43 -23l4 70l-33 -2l-71 -59l-8 82l-80 -39l-17 51q-84 -155 -116 -297l57 6l27 -39l82 78l14 -86l43 37l39 -17q54 149 102 238zM1272 1384l57 29q-53 -95 -100 -215l41 16q-25 -83 -56 -157 l29 -51l70 49q-33 -71 -66.5 -152.5t-56.5 -139t-59.5 -160t-50 -141.5t-55.5 -161.5t-50 -146.5q-59 -169 -148 -227t-274 -58q-249 0 -356 37l43 35l-2 4q-139 18 -226 51l72 57l-16 27l-35 -12l4 82l-92 -21q39 251 141.5 554t224.5 544l80 24q50 210 164 406l92 -74 l-2 -14l74 59l10 -63l57 28l93 -59q28 56 67 125l55 -66l93 47l6 -61l96 35l18 -58l74 -2q-24 -61 -49 -108l37 2z" />
<glyph unicode="&#xfd;" horiz-adv-x="894" d="M598 508l528 608v43l-94 -61l-22 61l-142 -125l9 109l-70 -33l-35 72l-235 -271l-66 277l-41 -39l-61 39l-23 -60l-74 78l-18 -157l-92 100l-10 -16l131 -603l-185 -518l80 45l21 -53l102 133l21 -108l40 28l41 -71zM1018 1405l29 43l-78 27l69 49l-16 18l-98 -4l47 64 l-51 12l-46 -12q-186 -49 -329 -125l49 -25l-47 -41l2 -18l82 14l-47 -86l51 -10l6 -37q157 60 377 131zM1239 1075v-63l-530 -613l-201 -540l-47 82l-27 -21l-20 -55l-56 96l-59 -80l-25 60l-92 -54l6 23l-4 -8l-32 82l-148 -82l225 633l-133 606l58 92l61 -68l18 156 l95 -100l18 43l78 -52l78 72l49 -207l29 27l12 -51l162 184l-4 16l-27 7q-26 -9 -115 -43l-10 63l-82 16l31 56l-33 -6l-14 84l22 18l-63 33q36 20 73.5 37.5t87.5 36.5t77 28.5t92 31t83 27.5l37 13l133 -35l-30 -41l110 -18l-45 -64l70 2l24 -29l-65 -45l76 -26l-35 -49 q-205 -66 -342 -119l26 -53l101 47l-4 -70l104 92l25 -71l121 77v-155l-50 -56l11 -30z" />
<glyph unicode="&#xfe;" horiz-adv-x="1048" d="M748 829q0 -69 -101 -137q-30 -19 -65 -31.5t-56 -17t-71 -12.5l94 219q91 27 153 27q21 0 33.5 -13.5t12.5 -34.5zM1092 893q0 78 -35.5 138.5t-93.5 94.5t-127 49.5t-142 10.5q126 305 187 430l-21 29q-52 -30 -137 -156l-10 88l-60 -53l-4 116l-98 -114l-21 63 l-28 -18q-47 -78 -88.5 -169.5t-88.5 -214t-71 -177.5q-213 -498 -358 -1026l14 -4l96 135l17 -119l69 49l12 -94l72 76l47 -64q5 15 19 61.5t21 68t19.5 58.5t25 66.5t26.5 58.5q628 147 741 517q17 56 17 100zM1206 793q0 -44 -18 -107q-113 -373 -746 -520 q-23 -47 -41 -97t-41 -129.5t-30 -101.5l-54 72l-26 -29l-8 -28l-9 10l-32 -37l-15 98l-69 -49l-2 10l-45 -49l-13 86l-41 -57l-30 8l10 41l-14 -8l-9 74l-43 -60l-98 27q153 566 375 1083q23 53 72.5 182t91.5 222t92 174l96 59l12 -39l123 146l6 -138l52 47l8 -65 q26 42 112 100l68 -98q-38 -74 -80 -174q55 80 105 110l28 -43q-33 -67 -127 -286q97 -24 169 -87.5t98 -154.5q73 -82 73 -192z" />
<glyph unicode="&#xff;" horiz-adv-x="894" d="M598 508l528 608v43l-94 -61l-22 61l-142 -125l9 109l-70 -33l-35 72l-235 -271l-66 277l-41 -39l-61 39l-23 -60l-74 78l-18 -157l-92 100l-10 -16l131 -603l-185 -518l80 45l21 -53l102 133l21 -108l40 28l41 -71zM424 1212l16 17l-18 39l-41 -23l-10 2zM592 1053 l106 123l-39 -9l-30 58l-66 -49l-12 51l-33 -13l33 -137l29 27zM711 1188l57 67l-10 15l-19 -2q-21 -58 -28 -80zM711 1552l-41 25l-92 -45l-9 45l-102 -82l12 109l-22 18q-90 -160 -123 -313l39 -11l82 50l12 -52l63 45l33 -59l33 8q54 152 115 262zM831 1178l29 12l-14 22 l-29 -4zM928 1155l71 64l-12 22l-57 -53zM1057 1176l22 14l-26 10l-4 -2zM1090 1536l-43 -23l4 70l-33 -2l-72 -59l-8 82l-80 -39l-16 51q-86 -158 -117 -297l57 6l27 -39l82 78l14 -86l43 37l39 -17q52 143 103 238zM1239 1075v-63l-530 -613l-201 -540l-47 82l-47 -76 l-56 96l-59 -80l-25 60l-92 -54l-30 97l-148 -82l225 633l-133 606l58 92l61 -68l18 135l95 -79l14 34l-68 17q25 118 64 217.5t104 210.5l93 -74l-3 -14l74 59l10 -63l58 28l92 -59q22 45 68 125l55 -66l92 47l6 -61l96 35l19 -58l74 -2q-25 -61 -50 -108l37 2l-4 -64 l58 29q-60 -107 -113 -250l74 47v-155l-50 -56l11 -30z" />
<glyph unicode="&#x152;" horiz-adv-x="1587" d="M887 1163q0 21 -2 31q-93 -31 -170 -182q-62 -120 -129 -278.5t-80 -241.5q-10 -68 -10 -123q36 -2 79 44.5t82 121.5t62.5 127.5t42.5 101.5q125 318 125 399zM938 1163q0 -90 -129 -418q-17 -45 -36 -89.5t-52.5 -109.5t-66.5 -112.5t-76 -82t-84 -34.5 q-60 0 -85.5 44.5t-25.5 109.5q0 57 10 125q13 84 79 239t130 283q102 195 221 195q57 0 86 -44.5t29 -105.5zM1741 1466l71 27l-79 33l41 41l-29 20l22 45h-77q-298 0 -535 -39q-53 34 -125 47l-53 -24l72 -68h-93l17 -55q-85 15 -197 12l49 64l-80 24l13 39 q-175 -44 -273 -153q-319 -354 -440 -955q-14 -69 -14 -151q0 -193 100 -298.5t291 -105.5q120 0 264 72l-20 -66q147 -18 295 -18q218 0 374 45l41 47l-121 21l84 73l13 25l-113 10l70 47l-23 25l23 26q-123 -10 -222 -10q-57 0 -86 6q35 104 158 392l340 22l35 41l-64 45 l50 27l-68 45l123 35l-92 34l59 48l-33 24l-194 12q15 33 45.5 99.5t53.5 119t42 101.5q136 43 303 43l23 49zM899 1554l-6 21l-14 -19q14 0 20 -2zM1806 1550l125 -59l-78 -64l48 -36l-41 -31l36 -53l-26 -60q-176 0 -303 -41q-26 -64 -74 -170l35 -2l96 -73l-39 -31 l109 -60l-52 -26l-36 -29l63 -41l-70 -31l43 -49l-49 -26l58 -43l-45 -52l-338 -22q-79 -187 -97 -232q99 5 254 19l-71 -86l-8 -33l88 -6l-31 -66l24 -26l-34 -23l82 -14q-48 -76 -95 -111l119 -20l-55 -62q-165 -47 -381 -47q-154 0 -307 21l14 49h-6q-111 -57 -234 -57 q-76 0 -159.5 25.5t-134.5 70.5q-139 50 -197.5 156.5t-58.5 263.5q0 88 14 162q122 611 452 978q120 134 385 189l-22 -74q95 -31 111 -29l-31 31l135 64q92 -19 143 -47q224 36 584 36q18 0 51 -1t49 -1l-41 -77l35 -19z" />
<glyph unicode="&#x153;" horiz-adv-x="1425" d="M649 799q-90 -61 -153.5 -196t-73.5 -255q43 17 83.5 72.5t68.5 127.5t46.5 135t28.5 116zM690 829q0 -57 -21 -145t-56.5 -177t-93 -152.5t-120.5 -63.5q-50 0 -71 38.5t-21 92.5q0 56 24.5 142t64.5 170t100 144t122 60q72 0 72 -109zM1395 1051l178 28l-68 56l56 45 q-120 6 -238 6q-180 0 -328 -19l27 -53l-100 -10q-18 29 -56 72l-8 -89l-59 25v-86l-170 74l63 53l-39 23l23 55q-98 -2 -184 -37t-148 -87.5t-117 -131t-92 -154t-72 -168.5q-55 -141 -55 -282q0 -170 85 -266.5t253 -96.5q186 0 324 109l51 -21l-64 -92q121 -18 287 -18 q181 0 275 24l30 51l-141 39l125 54l-39 22l63 88q-102 -10 -182 -10q-113 0 -182 14l51 187l363 -4l18 30l-55 49l67 45l-84 54l101 59l-17 31l-309 -2l90 162q106 14 230 14q60 0 118 -6l-28 67l69 31zM1624 1032l76 -61l-174 -29l104 -59l-76 -37l31 -74q-60 8 -137 8 q-14 0 -40 -1t-40 -1l53 -110l-69 -41h94l22 -45l-94 -56l84 -53l-69 -45l51 -45l-25 -45l-360 4l-11 -37h19q97 0 309 25l-104 -137l43 -25l51 -14l-45 -80l41 -25l-76 -33l-14 -24l98 -27l-39 -65q-108 -27 -280 -27q-176 0 -304 23l33 47q-56 4 -86 8q-110 -55 -241 -55 q-154 0 -240 77q-87 23 -145 86.5t-81.5 141.5t-23.5 170q0 153 57 301q44 115 89.5 202t109 166.5t138.5 130.5t176.5 81t224.5 30l-37 -84l31 -18v10l65 -29l33 103q30 -27 59 -58q218 29 424 29q183 0 365 -12l-107 -88l109 -86z" />
<glyph unicode="&#x178;" horiz-adv-x="987" d="M1278 1442l-29 10l-14 -4l-23 -18l-20 40l-109 -112l-4 47l-14 22l-29 -22l-12 59l-14 -2l-35 -18l-33 10q-92 -222 -270 -473q-65 205 -82 475l-27 -22l-35 34l-41 -75l-55 98q-31 -40 -55 -129l-68 88l-24 -16q41 -474 139 -787q-210 -321 -455 -616l43 2v-37l101 88 v-66l57 31l4 -26l96 69l-26 -135l14 -25q291 310 565 716t455 794zM487 1499l11 21l-27 6zM872 1425l-20 -4l-31 58l-65 -49l-13 51l-92 -35l-8 20q4 -64 8 -100l15 -14l34 26q5 -100 25 -225q84 138 147 272zM903 1806l-41 25l-92 -45l-8 45l-103 -82l13 109l-23 18 q-84 -146 -123 -313l39 -11l82 50l12 -52l64 45l33 -59l32 8q49 141 115 262zM928 1513l39 -14l-17 25l-18 -2zM1282 1790l-43 -23l4 70l-33 -2l-71 -59l-9 82l-79 -39l-17 51q-83 -149 -116 -297l57 6l26 -39l82 78l15 -86l43 37l39 -17q54 149 102 238zM1329 1358l82 33 q-179 -399 -464.5 -825t-588.5 -746l-22 39l20 110l-110 -121l-53 105l-89 -76v49l-47 -18l4 63l-108 -73l8 84l-100 -2q282 333 508 675q-99 341 -138 801l91 64l36 -52q7 19 26.5 49t35.5 50l16 20l33 -55q45 213 166 422l92 -74l-2 -14l74 59l10 -63l57 28l92 -59 q29 60 68 125l55 -66l93 47l6 -61l96 35l18 -58l74 -2q-24 -59 -49 -108l37 2l-4 -64l57 29q-35 -61 -84 -176l59 22q-31 -71 -71 -153z" />
<glyph unicode="&#x2c6;" horiz-adv-x="1425" d="M899 1360l96 10l-24 39l-373 184q-282 -112 -367 -151l39 -27l-59 -45l-2 -18l84 14l-74 -94l45 -15l-6 -36l334 139q151 -101 252 -146l57 9l-31 69l99 -16l6 20zM1004 1444l98 -172l-88 -10l61 -54l-8 -34l-90 14l29 -66l-72 -10q-98 45 -260 143l-334 -141l6 47 l-51 15l14 16l-106 -45l10 78l-74 20l45 55l-39 11l33 96l-24 59l446 176z" />
<glyph unicode="&#x2dc;" horiz-adv-x="1349" d="M1155 1563l66 65l-13 17l-86 -17l49 80l-41 8q-13 -10 -42.5 -34t-42 -32.5t-36.5 -21.5t-48 -17.5t-54 -4.5q-25 0 -44.5 11.5t-33 28t-28 33t-35.5 28t-49 11.5q-36 0 -78 -18t-106.5 -58t-73.5 -45l37 -28l-54 -45l-2 -19l74 13l-63 -93l65 -18l-4 -45q17 10 51 33 t52 34t49 21t63 10q31 0 51 -9.5t31 -23t23 -27t37 -23t63 -9.5q54 0 93.5 12.5t80.5 44.5q12 8 39.5 33t44.5 35l29 47zM1241 1581l72 -27l-60 -79l58 -21l-33 -61q-35 -19 -66.5 -45.5t-48.5 -42.5t-54.5 -27.5t-94.5 -11.5q-47 0 -71.5 11t-55.5 48q-42 6 -76 33h-6 q-30 0 -61.5 -11t-52.5 -23.5t-54.5 -35t-52.5 -33.5l6 54l-58 14l-69 -41l8 90l-94 27l41 57l-33 12l35 101l-27 45q16 9 71 42t90 52.5t83 38t80 18.5t58 -11.5t42 -28.5t30 -34t29 -28.5t31 -11.5q34 0 65.5 11.5t48 22t52.5 39.5t49 39l117 -22l-27 -47l15 2l47 -74 q-5 -4 -13.5 -14.5t-14.5 -18.5z" />
<glyph unicode="&#x2000;" horiz-adv-x="988" />
<glyph unicode="&#x2001;" horiz-adv-x="1976" />
<glyph unicode="&#x2002;" horiz-adv-x="988" />
<glyph unicode="&#x2003;" horiz-adv-x="1976" />
<glyph unicode="&#x2004;" horiz-adv-x="658" />
<glyph unicode="&#x2005;" horiz-adv-x="494" />
<glyph unicode="&#x2006;" horiz-adv-x="329" />
<glyph unicode="&#x2007;" horiz-adv-x="329" />
<glyph unicode="&#x2008;" horiz-adv-x="247" />
<glyph unicode="&#x2009;" horiz-adv-x="395" />
<glyph unicode="&#x200a;" horiz-adv-x="109" />
<glyph unicode="&#x2010;" horiz-adv-x="890" d="M702 684l115 35l-6 29l-115 28l101 62l-49 32h-62q-272 0 -461 -36l39 -48l-82 -34l-10 -23l102 -10l-114 -88l51 -31l-18 -45q188 17 518 29l61 41zM825 797l113 -62l-96 -61l82 -21l8 -43l-107 -32l66 -58l-74 -49q-344 -12 -536 -31l20 54l-27 16q-106 -8 -159 -14 l32 82l-79 47l71 55l-41 4l43 109l39 14l-49 59q260 56 582 56h51l125 -86z" />
<glyph unicode="&#x2011;" horiz-adv-x="890" d="M702 684l115 35l-6 29l-115 28l101 62l-49 32h-62q-272 0 -461 -36l39 -48l-82 -34l-10 -23l102 -10l-114 -88l51 -31l-18 -45q188 17 518 29l61 41zM825 797l113 -62l-96 -61l82 -21l8 -43l-107 -32l66 -58l-74 -49q-344 -12 -536 -31l20 54l-27 16q-106 -8 -159 -14 l32 82l-79 47l71 55l-41 4l43 109l39 14l-49 59q260 56 582 56h51l125 -86z" />
</font>
</defs>
</svg>
