<?xml version="1.0" standalone="no"?>
<!DOCTYPE svg PUBLIC "-//W3C//DTD SVG 1.1//EN" "http://www.w3.org/Graphics/SVG/1.1/DTD/svg11.dtd" >
<svg xmlns="http://www.w3.org/2000/svg" xmlns:xlink="http://www.w3.org/1999/xlink" version="1.1">
<metadata></metadata>
<defs>
<font id="ccscoundrelregular" horiz-adv-x="686" >
<font-face units-per-em="2048" ascent="1638" descent="-410" />
<missing-glyph horiz-adv-x="491" />
<glyph unicode="&#x2e;&#x20;&#x2e;&#x20;&#x2e;" horiz-adv-x="1155" d="M569 305q50 10 95 -39q24 -27 24 -57q0 -22 -12 -43q-37 -70 -135 -70q-31 0 -52.5 24.5t-21.5 59.5t33 77t69 48zM168 76q-49 -10 -94 39q-25 28 -25 57q0 22 12 43q37 70 136 70q31 0 52 -24.5t21 -59.5t-33 -77t-69 -48zM1004 53q-50 -10 -95 39q-24 27 -24 58 q0 22 12 43q37 69 135 69q31 0 52.5 -24.5t21.5 -59.5t-33 -77t-69 -48z" />
<glyph unicode="&#x7b;&#x7d;" horiz-adv-x="1562" d="M1448 829q-78 -32 -163 -98t-138 -125l29 -92l106 -321l10 -27.5t9.5 -27t3.5 -17.5q0 -95 -78 -103q-81 -13 -242 119q-44 38 -112 82t-91 47q-275 -141 -385 -280q-27 -39 -69 -29q-31 9 -45.5 19t-24.5 30q-18 31 -18.5 79.5t10.5 64.5q135 308 166 368 q-34 16 -110 54.5t-111 52.5q-72 27 -109 59.5t-37 81.5q0 19 15.5 34t44.5 25t49.5 15.5t52.5 11.5q186 33 334 51q51 155 80 223q16 36 42 100t41.5 97.5t24.5 42.5q-4 6 -4 23q0 40 26.5 69t57.5 29q21 0 36 -9.5t24.5 -28.5t16 -38t15.5 -49t17 -51q16 -46 51 -159 t55 -169q68 11 189.5 23t199.5 12q76 0 92 -60q12 -35 -5 -73.5t-56 -55.5z" />
<glyph unicode="[star]" horiz-adv-x="1562" d="M1448 829q-78 -32 -163 -98t-138 -125l29 -92l106 -321l10 -27.5t9.5 -27t3.5 -17.5q0 -95 -78 -103q-81 -13 -242 119q-44 38 -112 82t-91 47q-275 -141 -385 -280q-27 -39 -69 -29q-31 9 -45.5 19t-24.5 30q-18 31 -18.5 79.5t10.5 64.5q135 308 166 368 q-34 16 -110 54.5t-111 52.5q-72 27 -109 59.5t-37 81.5q0 19 15.5 34t44.5 25t49.5 15.5t52.5 11.5q186 33 334 51q51 155 80 223q16 36 42 100t41.5 97.5t24.5 42.5q-4 6 -4 23q0 40 26.5 69t57.5 29q21 0 36 -9.5t24.5 -28.5t16 -38t15.5 -49t17 -51q16 -46 51 -159 t55 -169q68 11 189.5 23t199.5 12q76 0 92 -60q12 -35 -5 -73.5t-56 -55.5zM1096 246q-14 49 -52.5 156t-52.5 161q-17 81 13 119q14 19 52.5 48.5t92.5 67t76 54.5q-31 -5 -240 -25q-59 -3 -98 60q-7 20 -15.5 52t-26 95.5t-38.5 136.5q-18 -37 -52 -134t-63 -163 q-2 -5 -7.5 -20.5t-9 -22.5t-10.5 -18.5t-17 -19.5t-23 -15q-14 -6 -32.5 -10.5t-28.5 -5.5t-37.5 -3.5t-32.5 -2.5q-186 -35 -207 -37l225 -92q56 -26 43 -113q-2 -16 -6.5 -32t-9 -27.5t-12.5 -30.5t-13 -33l-72 -176q267 209 373 209q55 0 125 -49t156 -129z" />
<glyph unicode="&#x3c;&#x3e;" horiz-adv-x="1384" d="M1335 1096q0 -66 -23.5 -132t-65.5 -127t-94.5 -123.5t-115 -133.5t-122.5 -143t-122.5 -167t-109.5 -192q18 -44 18 -76q0 -23 -8 -39q-15 -33 -44.5 -55.5t-57.5 -22.5q-38 0 -49 47q-17 66 -67.5 149.5t-112.5 165t-124 166t-112 178.5t-66 177q-10 41 -10 96 q0 90 28.5 180t79.5 165t132.5 122t177.5 47q80 0 166 -48t119 -107q76 73 164.5 121.5t160.5 48.5q113 0 185.5 -89.5t72.5 -207.5zM221 758q13 -48 58 -119.5t94.5 -134t118 -149.5t106.5 -140q46 94 125.5 204.5t156.5 202t148.5 178.5t115.5 161t44 122q0 78 -39.5 117 t-77.5 35q-42 -5 -79.5 -19.5t-61.5 -29.5t-50 -41.5t-37.5 -40.5t-31.5 -41q-52 -70 -76 -92.5t-51 -22.5q-30 0 -48 22.5t-18 43.5q0 34 33 88q-8 6 -20.5 21.5t-18.5 21.5q-6 5 -20.5 18t-21 19t-19.5 16.5t-21.5 15t-20 10.5t-22.5 8.5t-22 2.5q-124 0 -195 -88.5 t-71 -228.5q0 -74 22 -160z" />
<glyph unicode="&#x28;&#x29;" horiz-adv-x="1359" d="M1311 1096q0 -66 -23.5 -131.5t-65.5 -127t-94 -123.5t-115 -132.5t-123.5 -143t-123.5 -167t-111 -191.5q21 -54 21 -78q0 -23 -8 -39q-15 -33 -45 -55.5t-58 -22.5q-38 0 -49 47q-17 66 -65 149.5t-106 165t-116.5 166t-106 178.5t-63.5 177q-10 41 -10 96 q0 92 24.5 180.5t71 164.5t124 122.5t173.5 46.5q86 0 170 -59.5t115 -153.5q71 105 160 166.5t166 61.5q113 0 185.5 -89.5t72.5 -207.5z" />
<glyph unicode="N&#x31;" horiz-adv-x="653" d="M602 1386q-110 -526 -110 -1071q0 -73 4 -110q6 -12 6 -31q0 -51 -104 -133.5t-187 -97.5q-38 -6 -66 -6q-65 0 -105 26.5t-40 73.5q0 72 106 139.5t228 89.5q0 130 8 221q37 487 92 793q21 100 39 131q23 39 59 39q33 0 54.5 -18.5t15.5 -45.5z" />
<glyph unicode="N&#x32;" horiz-adv-x="817" d="M780 1053q3 -11 12 -29t9 -25q0 -39 -21.5 -58t-52.5 -19q-19 0 -29 4q-17 6 -29 17t-17 18t-12.5 23.5t-10.5 21.5q-41 97 -66 172q-71 -446 -71 -863q0 -73 4 -110q6 -12 6 -31q0 -51 -104 -133.5t-187 -97.5q-38 -6 -66 -6q-65 0 -105 26.5t-40 73.5q0 72 106 139.5 t228 89.5q0 130 8 221q37 487 92 793q21 100 39 131q23 39 59 39q29 0 50 -14q44 0 65 -47q9 -15 31 -89q20 -46 56 -135t46 -112z" />
<glyph unicode="N&#x33;" horiz-adv-x="1329" d="M1155 383q0 -74 4 -111q6 -12 6 -30q0 -51 -104 -134t-187 -98q-38 -6 -65 -6q-65 0 -105 26.5t-40 73.5q0 72 106 140t227 90q0 119 9 221q37 487 92 793q5 25 8 34q-3 -1 -7.5 -2t-6.5 -2q-76 -13 -256 -52.5t-256 -51.5q-88 -483 -88 -959q0 -73 4 -110q6 -12 6 -31 q0 -51 -104 -133.5t-187 -97.5q-38 -6 -66 -6q-65 0 -105 26.5t-40 73.5q0 72 106 139.5t228 89.5q0 130 8 221q37 487 92 793q21 100 39 131q23 39 59 39q41 0 62 -25h2q47 9 241 52t285 59q4 1 17 3.5t20 2.5q83 14 113 -35q0 -1 4 -8t4 -12q3 -20 -16 -39 q-109 -533 -109 -1065z" />
<glyph unicode="N&#x34;" horiz-adv-x="1329" d="M1272 1169q0 -1 4 -8t4 -12q2 -19 -15 -39t-48 -33l-15 -6q-47 -364 -47 -688q0 -74 4 -111q6 -12 6 -30q0 -51 -104 -134t-187 -98q-38 -6 -65 -6q-65 0 -105 26.5t-40 73.5q0 72 106 140t227 90q0 119 9 221q17 245 45 479q-41 -8 -216 -46.5t-255 -51.5q-28 -3 -50 0 q-38 -305 -38 -621q0 -73 4 -110q6 -12 6 -31q0 -51 -104 -133.5t-187 -97.5q-38 -6 -66 -6q-65 0 -105 26.5t-40 73.5q0 72 106 139.5t228 89.5q0 130 8 221q37 487 92 793q21 100 39 131q23 39 59 39q41 0 62 -25h2q47 9 241 52t285 59q4 1 17 3.5t20 2.5q83 14 113 -35 q0 -1 4 -8t4 -12q3 -20 -16 -39q-27 -136 -43 -244q34 -7 51 -35zM596 1087q64 13 230 50.5t245 52.5q13 88 27 158q5 25 8 34q-3 -1 -7.5 -2t-6.5 -2q-76 -13 -256 -52.5t-256 -51.5q-17 -94 -33 -199z" />
<glyph unicode="&#xfb01;" horiz-adv-x="1169" d="M309 -225q-45 3 -59 61q-8 34 -13.5 62.5t-8 65.5t-3.5 54.5t-2 73.5t-2 78q-3 108 4 236q2 40 3.5 69.5t2.5 42.5t1.5 20.5t0.5 14.5v12v26v44q-12 -7 -39 -24t-42.5 -26t-36.5 -17t-37 -7q-24 0 -38.5 18.5t-14.5 43.5q2 37 44.5 73.5t111.5 75.5t91 57 q23 146 61.5 281.5t97 261t130 217t166 144t199.5 47.5q78 -3 124.5 -53t43.5 -128q-7 -82 -95 -200q-33 -47 -75 -47q-28 2 -45.5 17.5t-16.5 39.5q1 10 21 55q10 22 26.5 49.5t24.5 45.5t10 36q0 27 -10 35t-31 10q-99 4 -203 -110t-174 -286t-80 -335q27 10 70 28 t64.5 26t53 17.5t60.5 14.5q31 8 45 4q45 -2 69 -20t21 -53q-1 -26 -18.5 -41t-44.5 -15q-40 -4 -81.5 -15t-67.5 -21.5t-72.5 -32t-71.5 -31.5q-34 -15 -52 -37.5t-24 -58.5q-28 -168 -28.5 -398t28.5 -378q13 -46 -17 -85.5t-71 -37.5zM1055 1094q-42 -4 -62.5 12.5 t-23.5 56.5q-6 51 10 82.5t51 34.5q67 6 88 -94q7 -38 -11.5 -64t-51.5 -28zM987 72q-36 -3 -59.5 20t-28.5 62t2 96q30 401 43 553q19 87 76 92q33 3 53.5 -14.5t20.5 -44.5q0 -32 -15 -154.5t-20 -232.5q-2 -72 -2 -216v-12q0 -11 4.5 -30t5.5 -29q2 -37 -19 -62t-61 -28z " />
<glyph unicode="&#xfb02;" horiz-adv-x="1239" d="M309 -225q-45 3 -59 61q-8 34 -13.5 62.5t-8 65.5t-3.5 54.5t-2 73.5t-2 78q-3 108 4 236q2 40 3.5 69.5t2.5 42.5t1.5 20.5t0.5 14.5v12v26v44q-12 -7 -39 -24t-42.5 -26t-36.5 -17t-37 -7q-24 0 -38.5 18.5t-14.5 43.5q2 37 44.5 73.5t111.5 75.5t91 57 q23 146 61.5 281.5t97 261t130 217t166 144t199.5 47.5q78 -3 124.5 -53t43.5 -128q-7 -82 -95 -200q-33 -47 -75 -47q-28 2 -45.5 17.5t-16.5 39.5q1 10 21 55q10 22 26.5 49.5t24.5 45.5t10 36q0 27 -10 35t-31 10q-99 4 -203 -110t-174 -286t-80 -335q27 10 70 28 t64.5 26t53 17.5t60.5 14.5q31 8 45 4q45 -2 69 -20t21 -53q-1 -26 -18.5 -41t-44.5 -15q-40 -4 -81.5 -15t-67.5 -21.5t-72.5 -32t-71.5 -31.5q-34 -15 -52 -37.5t-24 -58.5q-28 -168 -28.5 -398t28.5 -378q13 -46 -17 -85.5t-71 -37.5zM1061 27q-29 -3 -50.5 16.5 t-31.5 50.5q-8 39 -7.5 139.5t7.5 202.5q29 492 92 873q7 42 12.5 66.5t16.5 56.5t28.5 47.5t40.5 15.5q33 0 53.5 -19.5t16.5 -52.5q-111 -581 -111 -1173q0 -77 5 -131q10 -86 -72 -92z" />
<glyph unicode="&#x7b;&#x7b;" horiz-adv-x="514" d="M332 -354q-122 0 -202.5 87t-80.5 226q0 113 33 176q16 34 50 102.5t43.5 92t21.5 67t14 88.5q0 64 -27 119q-44 0 -82 6q-24 7 -38.5 24t-14.5 38q0 7 1.5 13.5t5.5 13t7.5 11t11.5 11t12.5 10t15.5 10.5t16 10t18.5 10.5t18.5 10.5q57 32 57 102q9 104 -41 203 q-57 107 -57 209q0 121 64.5 224.5t162.5 160.5q38 22 84 32.5t79.5 3t33.5 -33.5q0 -11 -3.5 -26t-17.5 -31.5t-35 -16.5q-84 0 -160 -100t-79 -190q0 -52 16 -101.5t51 -120.5q52 -116 43 -253q-3 -20 -11.5 -43t-23 -55t-22.5 -52q55 -80 55 -186q0 -56 -17.5 -114 t-58 -151t-59.5 -147q-21 -51 -24 -115q0 -84 27 -133t95 -63q91 -11 91 -66q0 -32 -20.5 -47.5t-53.5 -15.5z" />
<glyph unicode="&#x7d;&#x7d;" horiz-adv-x="542" d="M213 1724q122 0 202.5 -87t80.5 -226q0 -113 -33 -176q-16 -34 -50 -102.5t-43.5 -92t-21.5 -67t-14 -88.5q0 -66 26 -119q44 0 82 -6q25 -7 39.5 -24.5t14.5 -37.5q0 -7 -1.5 -13.5t-5.5 -13t-7.5 -11t-11.5 -11t-12.5 -10t-15.5 -10.5t-16 -10t-18.5 -10.5t-18.5 -10.5 q-57 -32 -57 -102q-9 -104 41 -203q57 -107 57 -209q0 -121 -64.5 -224.5t-162.5 -160.5q-38 -22 -84 -32.5t-79.5 -3t-33.5 33.5q0 11 3.5 26t17 31.5t34.5 16.5q84 0 160.5 100t79.5 190q0 51 -16.5 100.5t-51.5 121.5q-52 116 -43 254q3 20 11.5 42.5t23.5 54t23 52.5 q-55 80 -55 186q0 56 17.5 114t58 151t59.5 147q21 51 24 115q0 84 -27.5 133t-95.5 63q-90 11 -90 66q0 32 20.5 47.5t53.5 15.5z" />
<glyph unicode="&#x7c;&#x7c;" horiz-adv-x="385" d="M121 -231q-27 1 -43.5 18.5t-22 47.5t-7 70.5t0.5 86.5v20q7 201 45.5 631.5t75.5 642.5q16 88 39 129.5t72 40.5q64 -5 53 -88q-3 -48 -45 -406t-60 -614q-16 -195 -18 -266q0 -105 2 -148q-1 -10 -2 -28t-2 -27q-6 -116 -88 -110z" />
<glyph horiz-adv-x="0" />
<glyph horiz-adv-x="682" />
<glyph unicode=" "  horiz-adv-x="491" />
<glyph unicode="&#x09;" horiz-adv-x="491" />
<glyph unicode="&#xa0;" horiz-adv-x="491" />
<glyph unicode="!" horiz-adv-x="720" d="M207 375q-30 0 -47 14t-22 33t-1.5 51t8.5 54t15 55q44 177 63.5 252t57 198.5t80.5 225t104 223.5q18 33 30 52.5t30.5 44t38.5 36.5t42 12q27 0 48 -18t18 -39q-5 -29 -12.5 -55.5t-24.5 -67t-26.5 -60.5t-41 -84.5t-43.5 -89.5q-24 -50 -45 -98t-35.5 -82.5t-31.5 -88 t-24.5 -75.5t-24 -86.5t-20.5 -80t-23 -97.5t-23 -100q-33 -129 -90 -129zM100 -4q-46 0 -73 22.5t-27 61.5q0 38 57.5 84.5t124.5 46.5q28 0 50 -34t22 -56q0 -37 -56 -81t-98 -44z" />
<glyph unicode="&#x22;" horiz-adv-x="565" d="M428 1065q-41 0 -59.5 22t-16.5 56l17 157q4 26 10 78t10 78q15 82 76 82q76 0 76 -96q0 -8 -1 -23.5t-1 -23.5l-19 -199q-3 -13 -7 -27.5t-9 -31.5t-8 -27q-27 -45 -68 -45zM158 1020q-41 0 -59.5 22t-16.5 56l16 157q4 26 10.5 78.5t10.5 77.5q15 82 76 82q75 0 75 -96 q0 -8 -1 -23.5t-1 -23.5l-18 -199q-3 -17 -13 -47.5t-12 -38.5q-27 -45 -67 -45z" />
<glyph unicode="#" horiz-adv-x="1527" d="M838 -6q-84 0 -84 94q0 23 4 33q15 116 18 178l8 98l-186 -18q-18 -149 -20 -184q-6 -60 -23 -85.5t-53 -25.5q-49 0 -71.5 31.5t-22.5 111.5q0 61 6 125q-44 -2 -201 -20q-4 0 -15 -1t-16 -1q-47 0 -69 12.5t-29 44.5q-5 34 22 54.5t89 29.5q41 8 117.5 20.5t109.5 18.5 l22 195q-48 0 -79 -5q-48 -8 -102.5 -20t-110.5 -21q-8 -2 -29 -2q-49 0 -72 37q-2 8 -2 23q0 24 15 45t45 29q12 6 27.5 10.5t26 6.5t31.5 5.5t29 5.5q52 11 107.5 24t113.5 25q22 171 35 262q2 36 25 99q21 47 74 47q33 0 60 -24.5t24 -61.5q-5 -33 -16 -89t-15 -93 q-10 -89 -8 -105q39 8 112.5 20t102.5 17q1 8 4.5 30.5t3.5 35.5q0 175 23 252t85 77q25 0 43.5 -23t18.5 -55q0 -39 -4 -116t-4 -115v-12q0 -6 1 -21t1 -26q60 5 125 13t92 11q6 1 66 10t93 9q41 0 64 -19.5t23 -54.5q0 -59 -74 -76q-121 -20 -221 -31l-172 -22 q-6 -39 -16.5 -117t-14.5 -106q20 1 49.5 1t44.5 1q320 33 340 35q32 -4 51 -23t19 -45q0 -52 -70 -78q-17 -6 -36.5 -10t-53 -8.5t-62 -7.5t-89.5 -9.5t-109 -11.5q-2 0 -35.5 -4.5t-56.5 -9.5q-5 -45 -16.5 -135.5t-16.5 -135.5q-19 -149 -96 -149zM602 532l205 27l12 117 l6 104l-200 -39q0 -39 -10.5 -108t-12.5 -101z" />
<glyph unicode="$" horiz-adv-x="843" d="M229 -111q-25 0 -41 16.5t-16 43.5q2 81 21 258q-193 103 -193 309q0 41 10 86q24 76 78 76q30 0 43.5 -19t11.5 -47q-16 -48 -16 -80q0 -18 1.5 -32.5t6.5 -29.5t7 -21.5t11 -25.5t11 -24q21 -43 77.5 -64.5t112.5 -21.5q118 0 189 76.5t59 190.5q-3 57 -48 126.5 t-97 112.5q-139 116 -175 155q-58 63 -68 140q0 5 -1 10q-6 82 61 164q45 56 109 106t135 76q10 27 23 77t21.5 77t28.5 49.5t50 22.5q23 0 42 -12.5t19 -32.5q0 -13 -3 -25t-7 -22t-4 -11l-26 -108q45 -10 88 -23q118 -48 118 -116q0 -25 -20 -46.5t-45 -21.5q-20 0 -41 14 q-49 60 -111 58q-23 -39 -63 -39q-8 0 -62 14q-52 -21 -102.5 -77.5t-50.5 -108.5q0 -30 40 -73t96.5 -93.5t113.5 -110t97 -139.5t40 -164q0 -164 -125 -269.5t-320 -105.5q-8 -64 -16 -180q-7 -67 -17 -85q-17 -29 -53 -30z" />
<glyph unicode="%" horiz-adv-x="1355" d="M182 -193q-11 0 -37 13q-30 15 -30 49q0 18 20 63q50 102 206 422t262 534.5t210 420.5q30 59 69.5 127.5t69 117.5t78 127.5t72.5 118.5q40 62 98 98q16 13 39 13q29 0 50 -19t18 -49l-7 -13q-6 -14 -12 -20q-18 -20 -36 -42t-32 -40t-31.5 -45.5t-27.5 -42.5t-28 -47 t-25 -43.5t-26 -48t-23 -44t-24.5 -48t-22.5 -45.5q-118 -237 -330.5 -669t-286.5 -582q-62 -128 -133 -246q-38 -60 -80 -60zM238 788q-31 0 -58 9q-131 46 -131 231q0 248 174 459q84 98 191 98q13 0 45 -4q82 -18 116 -50.5t41 -107.5v-57q-23 -304 -208 -489 q-44 -42 -84 -65.5t-86 -23.5zM231 954q90 54 150.5 166.5t60.5 216.5q0 63 -24 107q-24 -8 -44.5 -22.5t-32 -25.5t-27 -37.5t-19 -35t-18.5 -42.5q-3 -7 -5 -11q-20 -48 -29.5 -73t-19.5 -67t-10 -77q0 -47 18 -99zM897 82q-23 0 -61 10q-52 17 -79.5 70.5t-19.5 122.5 q20 241 168 477q23 35 39 47q50 53 115 53q72 0 121 -67q26 -35 41.5 -91.5t15.5 -115.5q0 -250 -190 -434q-76 -72 -150 -72zM901 266q73 46 116.5 126.5t43.5 170.5q0 68 -25 125q-124 -216 -135 -422z" />
<glyph unicode="&#x26;" horiz-adv-x="1026" d="M100 -76q-50 5 -76.5 30t-23.5 69q8 92 49 184q144 278 283 483q-46 68 -79 198t-28 183q30 316 330 473q34 17 90.5 28t102.5 11q86 -7 124 -73t33 -160q-4 -47 -42.5 -121.5t-78.5 -126.5q-54 -83 -168.5 -237.5t-136.5 -192.5q4 -11 9 -22t13 -24.5t14 -24t17.5 -27.5 t17.5 -26t21 -30t21 -29.5t24.5 -33.5t24.5 -33l135 98q88 59 121 51q27 -3 42.5 -21.5t10.5 -35.5q0 -15 -15 -34t-28 -30t-45 -36q-17 -14 -54 -42t-56 -44l170 -162q28 -22 24 -60q0 -20 -25 -39t-59 -20q-32 0 -55 33q-25 24 -81.5 69.5t-90.5 79.5q-21 -15 -61 -45.5 t-56 -42.5q-22 -15 -110 -76.5t-138 -93.5q-81 -55 -170 -47zM420 840q44 59 110 144.5t95.5 125.5t65 92.5t50.5 89.5t19 72q2 28 -9 52t-40 24q-107 0 -179.5 -63t-128.5 -175q-33 -58 -36 -129q-12 -115 53 -233zM186 74q138 81 355 258l-138 186q-86 -120 -153.5 -257 t-63.5 -187z" />
<glyph unicode="'" horiz-adv-x="294" d="M158 1020q-41 0 -59.5 22t-16.5 56l16 157q4 26 10.5 78.5t10.5 77.5q15 82 76 82q75 0 75 -96q0 -8 -1 -23.5t-1 -23.5l-18 -199q-3 -17 -13 -47.5t-12 -38.5q-27 -45 -67 -45z" />
<glyph unicode="(" horiz-adv-x="651" d="M340 -106q-53 0 -145 137q-76 119 -111.5 266.5t-34.5 349.5q9 197 108 431t261 446q26 31 59 53t55 22q42 0 68.5 -19t26.5 -56q0 -30 -47 -68q-74 -74 -88 -90q-114 -134 -200.5 -344.5t-98.5 -405.5q-17 -311 151 -534l30 -34q30 -33 40 -52q4 -10 4 -27 q0 -32 -25.5 -53.5t-52.5 -21.5z" />
<glyph unicode=")" horiz-adv-x="759" d="M121 -156q-34 0 -53 23.5t-19 60.5q0 23 12 36.5t44.5 35t56.5 43.5q186 178 287.5 392.5t101.5 434.5q0 130 -34.5 239.5t-119.5 233.5q-39 60 -80.5 96t-105.5 48q-27 5 -35 18t-8 35q0 30 22.5 54.5t55.5 25.5q24 0 68.5 -23.5t68.5 -42.5q83 -55 131.5 -110 t91.5 -141q93 -204 105 -463q7 -200 -117.5 -455t-302.5 -428q-40 -40 -90.5 -76t-79.5 -37z" />
<glyph unicode="*" horiz-adv-x="776" d="M358 930q-31 0 -49 16.5t-18 46.5q0 63 12 140q-20 -2 -36 -10t-34 -23t-24 -19q-27 -18 -45 -32.5t-22.5 -19t-10.5 -7t-20 -2.5q-23 0 -42.5 16.5t-19.5 38.5q0 14 11.5 30.5t24 28t36.5 31.5q21 16 44 34t53.5 42t49.5 39q-5 4 -28 23t-30.5 24.5t-26 17t-35.5 16.5 t-37 7q-29 3 -44.5 16.5t-15.5 32.5q0 26 18.5 49t45.5 23q35 0 104 -25q8 -4 105 -65q7 84 10 153q5 62 10 78q12 45 62 45q27 0 42 -16.5t15 -40.5v-184l112 73q45 29 76 29q25 0 42.5 -16.5t17.5 -38.5q0 -30 -52 -76q-121 -79 -131 -86q27 -11 65.5 -24t43.5 -15 q90 -40 90 -90q0 -25 -17.5 -43.5t-43.5 -18.5q-18 0 -39 15q-56 34 -185 59q-1 -25 -6 -65.5t-6 -59.5q-1 -12 -2.5 -33.5t-3.5 -38t-6 -32.5q-19 -43 -60 -43z" />
<glyph unicode="+" horiz-adv-x="997" d="M526 207q-32 -3 -55.5 15.5t-32.5 53.5q-4 19 -4 80v256l-262 -41q-67 -10 -84 -10q-19 0 -43.5 12t-34.5 27q-10 10 -10 27q0 33 35 51q25 16 88 29q141 28 315 59q4 132 4 182q2 16 2 47q0 68 19.5 99.5t62.5 31.5q63 -3 72 -86q2 -23 2 -69v-68q0 -12 1 -41t1 -49 q37 6 107.5 20t105.5 19q62 9 121 6q25 -2 43 -16.5t18 -34.5q0 -22 -12 -45t-29 -35q-10 -6 -25 -10.5t-35 -8.5t-32 -8q-42 -8 -128 -23t-132 -24v-293q0 -50 -2 -77q-6 -64 -76 -76z" />
<glyph unicode="," horiz-adv-x="342" d="M66 -313q-32 0 -49 18.5t-17 46.5q0 25 27 70q38 74 54 108t30.5 82t19.5 99q-117 11 -117 82q0 35 37 57t80 22q38 0 71 -19.5t46 -53.5q24 -73 18 -142q-15 -132 -110 -305q-24 -35 -43.5 -50t-46.5 -15z" />
<glyph unicode="-" horiz-adv-x="587" d="M127 610q-32 0 -55 17t-23 49q0 35 27 52.5t82 27.5q2 0 252 41q27 6 45 6q60 0 82 -51q2 -6 2 -17q0 -25 -15 -44t-41 -23q-227 -58 -356 -58z" />
<glyph unicode="." horiz-adv-x="319" d="M168 76q-49 -10 -94 39q-25 28 -25 57q0 22 12 43q37 70 136 70q31 0 52 -24.5t21 -59.5t-33 -77t-69 -48z" />
<glyph unicode="/" horiz-adv-x="774" d="M72 -199q-36 0 -54 20.5t-18 53.5q0 34 27 121l366 1042q13 36 46 127t50.5 141.5t37 117t26.5 110.5l2 16q4 22 27 37t49 15q69 0 69 -86q0 -37 -32 -113q-88 -266 -254 -741q-28 -84 -75.5 -218.5t-88 -255.5t-76.5 -247q-1 -3 -10.5 -45t-20.5 -58q-9 -17 -29 -27 t-42 -10z" />
<glyph unicode="0" horiz-adv-x="1091" d="M317 23q-67 0 -123 35.5t-88 99.5q-60 113 -57 274q31 482 309 866q71 92 183 175q65 45 112 45q63 0 133 -82q8 -12 27 -31q229 -170 229 -444q0 -44 -12 -134q-86 -459 -534 -747q-48 -33 -107 -49q-33 -8 -72 -8zM324 186q26 0 71 25q444 286 469 729q12 143 -80 262 q-19 26 -32 40t-34 26t-44 12q-22 0 -45 -10q-12 -4 -23 -4q-8 0 -30 4.5t-37 5.5q-321 -444 -310 -918q0 -39 17 -92q12 -38 32.5 -59t45.5 -21z" />
<glyph unicode="1" horiz-adv-x="735" d="M137 -53q-38 0 -63 17.5t-25 47.5q-3 44 53 68q33 13 72 39t59 35l127 1034l-57 -21q-18 -6 -35 -6q-28 0 -55 27q-16 16 -16 41q-3 22 16 41q9 12 27.5 31t27.5 30l152 191q38 47 74 47q15 0 34 -8q56 -19 60 -84q1 -24 -2.5 -49t-11 -56.5t-9.5 -46.5 q-34 -197 -73 -501.5t-54 -495.5q-5 -34 -8 -86q149 63 184 63q32 0 52 -23.5t20 -48.5q2 -44 -84 -92q-43 -21 -114 -56t-112 -54.5t-91 -41.5t-86 -32t-62 -10z" />
<glyph unicode="2" horiz-adv-x="962" d="M82 -39q-33 0 -57.5 21t-24.5 49q3 58 35 98q292 483 516 838q119 194 154 260t36 110q4 18 -6.5 28t-46.5 13q-84 6 -195 -45t-182 -123q-38 -44 -78 -41q-33 1 -51 20.5t-18 49.5q9 33 20 47q32 63 137.5 126.5t230 101t212.5 32.5q85 -6 131.5 -52.5t42.5 -121.5 q-3 -113 -82 -233q-330 -487 -491 -787l358 54q10 1 49.5 8t61.5 6q35 -4 52.5 -25.5t14.5 -48.5q0 -23 -26.5 -42.5t-56.5 -30t-64 -17.5q-69 -17 -188.5 -38t-223.5 -54q-135 -53 -172 -137q-7 -23 -34 -45t-54 -21z" />
<glyph unicode="3" horiz-adv-x="1040" d="M727 973q120 0 192 -58t72 -151q0 -86 -63.5 -192t-151.5 -189q-181 -171 -467 -322q-80 -43 -147 -43q-51 0 -92 28t-58 75q-12 47 -12 86q0 76 43 143.5t100 67.5q28 0 49 -22t21 -50q0 -15 -7 -64.5t-5 -88.5q178 80 311 177t238 234q24 34 44.5 81.5t20.5 76.5 q0 53 -74 53q-97 0 -209 -33q-35 -10 -72.5 -25.5t-83.5 -36t-71 -30.5q-29 -16 -57 -16q-30 0 -55 22t-25 52q0 14 7.5 32t27.5 46.5t37 50.5t54 68.5t60 76.5q35 43 109 125q71 79 119 129q-48 -6 -117 -18t-88 -15q-7 -1 -49 -7.5t-66 -6.5q-34 0 -50.5 17.5t-16.5 43.5 q0 15 7 27t13.5 19t25.5 15t24.5 10t27.5 9q104 34 297 78.5t248 44.5q36 0 60 -21t24 -53q0 -45 -48 -90q-42 -43 -128.5 -127.5t-129.5 -128.5q-26 -24 -104 -117q96 17 215 17z" />
<glyph unicode="4" horiz-adv-x="960" d="M438 -66q-80 0 -90 115q-7 117 109 828q-223 -85 -258 -93q-18 -4 -31 -4q-46 0 -82 29t-37 68q-3 7 -0.5 25.5t4.5 26t6.5 26t6.5 26.5q37 114 110 309q24 73 86 221q30 82 86 82q19 0 29 -4q40 -15 43 -59q3 -30 -10 -62l-142 -395q-17 -55 -26 -112q32 12 92.5 34 t107.5 40t76 32q18 64 37 167t23 120q6 26 11 41t15 32.5t27.5 26t42.5 8.5t43.5 -16t21.5 -37q3 -44 -6 -74q-37 -189 -43 -213q95 35 162 68q10 5 28 17t33.5 18t34.5 6q32 0 56 -23t26 -45q1 -28 -29 -58t-69 -46q-16 -7 -97.5 -42.5t-129 -58.5t-64.5 -36 q-9 -50 -35.5 -190.5t-36 -198.5t-22 -164.5t-17.5 -208.5q-2 -53 -5.5 -87t-12.5 -69.5t-27.5 -52.5t-46.5 -17z" />
<glyph unicode="5" horiz-adv-x="1058" d="M223 29q-97 0 -156 60.5t-67 166.5q-5 85 27 180q20 48 66 88.5t81 40.5q30 0 52 -22.5t24 -44.5q2 -25 -20 -63t-43.5 -81t-18.5 -80q3 -51 14.5 -70t50.5 -18q138 0 314 121t256 262q26 39 41 93t12 90q-6 73 -62.5 112t-156.5 39q-71 0 -133 -12q-42 -6 -126 -48 t-85 -42q-18 -6 -35 -6q-37 0 -62 22t-28 57q-2 23 5 51.5t27.5 90.5t35.5 117q14 62 12 102q-3 60 51 86q115 58 324 130.5t245 72.5q30 0 50.5 -22t23.5 -48q2 -29 -12.5 -54.5t-40.5 -35.5q-17 -8 -51.5 -13.5t-42.5 -7.5q-17 -6 -163.5 -51.5t-197.5 -72.5 q-23 -29 -43.5 -91t-25.5 -108q158 45 249 45q161 0 273.5 -84t122.5 -229q6 -80 -22 -163.5t-75 -152.5q-118 -168 -317 -287.5t-373 -119.5z" />
<glyph unicode="6" horiz-adv-x="956" d="M727 915q79 0 129.5 -53.5t50.5 -136.5q-6 -204 -131.5 -375t-337.5 -262q-59 -29 -133 -29q-82 0 -143.5 49.5t-89.5 139.5q-27 90 -21 188q19 214 120.5 458.5t246.5 424.5q69 83 164 168q78 61 147 61q47 -3 77 -32t30 -62q0 -20 -6.5 -33t-13 -19.5t-25.5 -9.5 t-27 -3h-35q-29 0 -48 -12.5t-44 -39.5q-151 -154 -236 -317q-65 -120 -102 -210.5t-66 -209.5q-16 -82 -16 -213q49 133 147 263.5t201 201.5q94 63 162 63zM356 231q143 53 252 184t119 267q0 43 -2 63q-90 -37 -177.5 -125.5t-141.5 -195.5t-50 -193z" />
<glyph unicode="7" horiz-adv-x="1017" d="M360 -82q-46 0 -71.5 28t-20.5 72q8 105 46.5 262t115.5 425q-59 -22 -93 -36t-74.5 -40t-69.5 -58q-45 -39 -80 -39q-29 0 -47.5 22t-16.5 52q1 31 35 65t68 50q211 118 354 184q13 39 57.5 183.5t67.5 211.5q-187 -51 -336 -30q-21 -52 -60 -83.5t-73 -31.5 q-40 0 -60 25.5t-20.5 62.5t2.5 80q3 55 35.5 85t87.5 30q32 0 120.5 -8t178.5 -7q76 1 179.5 33.5t133.5 32.5q33 0 54 -20t20 -54q-3 -30 -37 -94.5t-80 -156.5t-71 -169q35 12 86 32.5t83.5 32t47.5 11.5q34 0 53.5 -23.5t17.5 -48.5q-8 -47 -112 -94q-172 -75 -244 -114 q-48 -113 -111.5 -363t-74.5 -399q-4 -52 -29 -81.5t-62 -29.5z" />
<glyph unicode="8" horiz-adv-x="1150" d="M860 973q252 -122 242 -459q-9 -188 -205 -344q-106 -84 -207.5 -123t-230.5 -39q-178 0 -294 76.5t-116 210.5q0 32 8 59q55 267 277 457q-64 17 -99.5 65t-35.5 121q0 25 6 52q43 236 178 385q44 49 121.5 84.5t138.5 35.5q92 0 178 -49q98 0 142.5 -59t33.5 -154 q-5 -65 -75 -174q-47 -64 -111 -125q18 -5 49 -20zM410 1217q-5 -18 -19.5 -59.5t-23.5 -76.5t-9 -65q0 -33 17 -50.5t47 -17.5q75 0 171 59.5t165.5 142t75.5 146.5q3 35 -36.5 57.5t-80.5 22.5q-18 0 -63.5 -24t-119 -67t-124.5 -68zM846 336q88 113 88 223 q0 96 -51.5 176t-137.5 125q-18 -6 -52 -15t-54.5 -16t-34.5 -16q-195 -105 -282 -230t-93 -276q0 -68 63 -99.5t161 -31.5q263 0 393 160z" />
<glyph unicode="9" horiz-adv-x="976" d="M125 -106q-28 0 -52 21t-24 46q-3 57 64 115q263 224 454 506q15 18 28 40t29 52t29 51q-8 -3 -33.5 -12t-33.5 -12t-30 -10.5t-30.5 -10t-27.5 -8.5t-28.5 -8t-25 -6t-26.5 -5.5t-23.5 -2.5t-23.5 -1q-115 0 -198 61t-95 160q-18 184 108 369.5t326 282.5q87 37 147 37 q59 0 108 -32t52 -81q0 -41 -4 -51q109 -170 111 -248q5 -54 -19 -135q-12 -30 -19 -88.5t-11 -75.5q-20 -90 -80 -199t-133 -205q-103 -140 -204.5 -252t-242.5 -245q-61 -53 -92 -53zM367 809q96 0 188.5 44t130.5 108q19 33 28.5 72.5t10.5 68t0 72.5q-2 42 -26.5 86.5 t-61.5 54.5q-17 5 -56 16.5t-65 20.5q-74 -52 -139 -131t-94 -162q-39 -105 -39 -158q3 -92 123 -92z" />
<glyph unicode=":" horiz-adv-x="344" d="M193 571q-50 -10 -95 39q-24 27 -24 58q0 22 12 43q37 69 135 69q31 0 52.5 -24.5t21.5 -59.5t-33 -77t-69 -48zM168 76q-49 -10 -94 39q-25 28 -25 57q0 22 12 43q37 70 136 70q31 0 52 -24.5t21 -59.5t-33 -77t-69 -48z" />
<glyph unicode=";" horiz-adv-x="368" d="M217 571q-49 -10 -94 39q-25 28 -25 58q0 20 13 43q37 69 135 69q31 0 52 -24.5t21 -59.5t-33 -77t-69 -48zM66 -313q-32 0 -49 18.5t-17 46.5q0 25 27 70q38 74 54 108t30.5 82t19.5 99q-117 11 -117 82q0 35 37 57t80 22q38 0 71 -19.5t46 -53.5q24 -73 18 -142 q-15 -132 -110 -305q-24 -35 -43.5 -50t-46.5 -15z" />
<glyph unicode="&#x3c;" horiz-adv-x="827" d="M725 1446q43 0 64.5 -23.5t11.5 -50.5q-8 -51 -53 -106q-194 -230 -261 -303q-43 -45 -131.5 -135t-136.5 -140q117 -144 123 -151q36 -44 109.5 -130.5t109.5 -130.5q43 -48 60.5 -84t13.5 -83q-3 -28 -22.5 -46t-51.5 -18q-56 0 -69 59q-3 17 -12 37t-26 43t-32.5 42.5 t-41.5 46.5t-42.5 43.5t-46 45.5t-41.5 41q-45 47 -70.5 76t-57.5 72.5t-52 83.5q-21 35 -21 70q0 53 49 102q186 186 404 414q27 29 70.5 83t62.5 76q40 66 90 66z" />
<glyph unicode="=" horiz-adv-x="782" d="M160 735q-59 -3 -78 39q-8 13 -8 31q0 33 39 57q42 18 71 23q47 6 201 31t225 32q24 4 31 4q69 4 86 -45q6 -18 6 -22q0 -19 -14.5 -37.5t-40.5 -28.5q-37 -13 -103 -24q-58 -6 -204.5 -30.5t-210.5 -29.5zM135 373q-59 -3 -78 39q-8 13 -8 30q0 34 39 58q38 17 72 22 q48 6 201.5 31.5t224.5 32.5q24 4 30 4q69 4 86 -45q7 -21 7 -23q0 -19 -15 -37t-41 -28q-44 -15 -102 -25q-58 -6 -204.5 -30t-211.5 -29z" />
<glyph unicode="&#x3e;" horiz-adv-x="802" d="M78 45q-43 0 -64.5 23.5t-11.5 50.5q8 51 53 106q205 243 260 303q43 45 132 135t137 140q-116 144 -123 151q-36 44 -109.5 130t-109.5 130q-43 48 -60.5 84t-13.5 84q3 28 22.5 46t51.5 18q56 0 69 -60q3 -17 12 -37t26 -43t32.5 -42.5t41.5 -46.5t42.5 -43.5t46 -45.5 t41.5 -41q46 -49 70.5 -76t57 -71t52.5 -84q21 -35 21 -70q0 -53 -49 -102q-186 -186 -404 -414q-27 -29 -70.5 -83t-62.5 -76q-40 -66 -90 -66z" />
<glyph unicode="?" horiz-adv-x="882" d="M223 356q-38 0 -73 39t-35 80q0 26 31 104.5t51 112.5q25 41 56.5 85.5t70 96.5t57.5 80q31 48 85 130t98.5 150t82.5 130q58 93 53 192q-18 -10 -54.5 -27t-53.5 -28q-122 -90 -200 -163t-144 -177q-2 -3 -7.5 -12t-7.5 -11.5t-7 -9t-8.5 -8.5t-9.5 -5.5t-12 -5 t-14.5 -2.5t-19.5 -1q-28 0 -46 17.5t-18 43.5q0 16 2 23.5t11 20t16 24.5q194 254 399 387q42 31 94.5 52.5t94.5 21.5q57 0 97 -35t46 -92q0 -86 -37 -182.5t-92 -178.5q-48 -78 -149.5 -223t-120.5 -172q-105 -158 -156 -246q-24 -35 -24 -71q0 -22 9 -43t9 -31 q0 -29 -24 -47.5t-50 -18.5zM168 -37q-43 -9 -81 25.5t-38 70.5q0 46 43.5 79.5t104.5 33.5q31 0 52 -24.5t21 -59.5t-33 -77t-69 -48z" />
<glyph unicode="@" horiz-adv-x="1302" d="M563 16q-20 -2 -55 -2q-193 0 -326 126t-133 317q0 404 236 684q262 302 518 313q351 9 422 -203q28 -87 28 -247q0 -57 -8 -86q-26 -170 -164 -336q-40 -45 -65 -71t-58.5 -53.5t-52.5 -29.5q-56 -5 -127 72q-12 -10 -36 -32.5t-37 -33.5q-77 -65 -166 -65 q-87 0 -138 82q-41 61 -41 161q0 131 66 240q85 155 254 270q58 39 121 39q52 0 87 -32t44 -91q2 -18 2 -51q0 -41 -8 -127q-6 -53 -6 -104q0 -66 16 -121q34 24 72 80.5t53 97.5q28 68 33 113q10 49 10 104q0 254 -279 254q-4 0 -13.5 1t-18 1t-15.5 -2 q-117 -10 -224.5 -87.5t-181 -190.5t-117.5 -248.5t-44 -263.5q0 -135 105.5 -223.5t244.5 -88.5q111 0 238 68q90 44 112 51q20 10 37 10h8q35 0 48 -39q2 -4 2 -16q0 -47 -58 -92q-142 -107 -313 -139q-52 -9 -72 -9zM580 545q37 0 63 33q92 88 109 186l39 231 q-16 -1 -29.5 0t-16.5 0q-75 -37 -144.5 -123t-82.5 -161q-2 -12 -2 -37q0 -47 21 -94q17 -35 43 -35z" />
<glyph unicode="A" horiz-adv-x="786" d="M705 238q0 -6 4 -19.5t4 -19.5q0 -36 -24.5 -59t-63.5 -23q-22 0 -37.5 10.5t-24.5 33.5t-13 37.5t-9 45.5q-7 43 -16.5 143t-20.5 158q-81 -24 -157.5 -72t-129.5 -104q-16 -40 -37.5 -161t-29.5 -206q-4 -34 -25 -52t-51 -18q-71 0 -74 82q0 47 4 70q52 252 81 384 t84 340t114 382q36 105 94 252q20 48 43 69t55 21q47 0 78 -30.5t37 -86.5q6 -47 10 -92t8 -107.5t6 -93.5l27 -356q35 -10 35 -61q0 -39 -23 -97q-2 -72 23 -206.5t29 -163.5zM279 608q13 7 90.5 46.5t111.5 58.5q-4 149 -24 522q-50 -89 -105 -288t-73 -339z" />
<glyph unicode="B" horiz-adv-x="913" d="M176 -37q-56 8 -92 46t-35 89q5 31 10 39q14 36 23 79.5t13 73t8.5 81.5t7.5 75l69 687q-24 -6 -43 -3q-27 3 -44 23t-15 47q0 36 28 68q214 265 533 268q10 -2 27 -2q23 -2 79 -21q58 -25 90 -68.5t29 -94.5q0 -24 -8 -52q-29 -82 -70 -137q-18 -25 -41 -53.5t-41 -48 t-46.5 -51t-43.5 -47.5l-69 -78l86 -11q93 -14 148.5 -69t56.5 -141q2 -14 2 -41q-2 -55 -25 -132q-39 -125 -166 -249q-156 -152 -311 -236q-10 -4 -30 -13t-37 -15.5t-33 -10.5q-46 -5 -60 -2zM315 887q163 132 269.5 265.5t120.5 221.5q-36 12 -62 12q-136 17 -291 -104 q-7 -26 -19.5 -160t-17.5 -235zM285 682l-41 -543q119 54 234 156.5t165 198.5q42 79 45 157q3 70 -74 76q-13 3 -28 -2q-28 1 -115 -8q-31 -5 -91.5 -17t-94.5 -18z" />
<glyph unicode="C" horiz-adv-x="806" d="M453 -68q-82 0 -150.5 40.5t-114.5 107.5t-78 154.5t-46.5 180.5t-14.5 187q0 118 22.5 242.5t67.5 239.5t105 206.5t141 146t170 54.5q63 0 134.5 -32.5t119 -80.5t47.5 -90q0 -33 -23 -57.5t-61 -24.5q-18 0 -28.5 5.5t-25 23.5t-18.5 22q-6 5 -24 21t-25 22t-22.5 18 t-25.5 16.5t-23.5 9t-26.5 4.5q-77 0 -144 -77.5t-109 -195t-65.5 -246t-23.5 -239.5q0 -88 15.5 -174t45 -161t81.5 -121t118 -46q36 0 70.5 21.5t65 43t57.5 21.5q22 0 36.5 -15.5t14.5 -39.5q0 -60 -91 -123.5t-171 -63.5z" />
<glyph unicode="D" horiz-adv-x="899" d="M106 23q-26 1 -41.5 20t-15.5 47q0 33 18 70t35 51q-6 15 -6 53q2 20 8.5 66t6.5 57q35 449 41 596q3 35 8 150q2 43 2 106q-26 -7 -41 -4q-56 3 -64 70q-4 32 38.5 63t109.5 53q120 38 207 47t215 -2q129 -12 200.5 -97.5t71.5 -225.5q0 -125 -51 -265t-139.5 -274.5 t-194 -256.5t-227.5 -234q-111 -95 -181 -90zM281 328q176 166 319.5 402.5t149.5 410.5q6 91 -34 127.5t-134 42.5q-109 10 -260 -15q-13 -111 -23 -274l-6 -137q-4 -82 -6 -174t-3.5 -206.5t-2.5 -176.5z" />
<glyph unicode="E" horiz-adv-x="765" d="M180 12q-53 0 -86 30.5t-37 88.5q-11 88 -8 188q0 31 4 89q15 169 82 720q-52 8 -49 70q1 32 37 68.5t75 60t85 45.5q118 57 272.5 110.5t230.5 53.5q39 0 60 -18t18 -50q0 -41 -53 -67q-25 -10 -71.5 -24.5t-63.5 -20.5q-40 -13 -74 -25.5t-60 -21.5t-51 -20 t-39.5 -16.5t-34 -16.5t-26.5 -14t-24.5 -14.5t-20 -13.5t-21 -15t-20.5 -15q-2 -21 -39 -375q132 56 248 98q48 19 72 21q32 0 52 -19t17 -45q0 -23 -12 -35q-40 -43 -98 -65q-243 -94 -301 -143q-21 -139 -27 -267q-7 -96 4 -161q127 50 238 167q10 9 28.5 28.5t27.5 28 t24 16t30 7.5q30 0 51 -25.5t19 -58.5q0 -9 -5 -21t-9 -20t-14.5 -24.5t-12.5 -20.5q-135 -150 -338 -241q-41 -17 -80 -17z" />
<glyph unicode="F" horiz-adv-x="817" d="M186 -92q-86 6 -86 127q3 60 14 237t11 244q-34 0 -55 19.5t-21 46.5q2 55 103 131q4 84 36 307q2 16 6.5 66t6.5 65q-21 -8 -43 -8q-31 0 -47.5 15.5t-16.5 41.5q0 17 8 33q17 45 218 169.5t337 190.5q43 20 107 36t104 16q52 0 82.5 -27.5t30.5 -67.5q0 -49 -51.5 -100 t-93.5 -51q-33 0 -49.5 24t-16.5 56q-84 -26 -207.5 -95.5t-173.5 -113.5q-20 -78 -34 -158.5t-20 -134.5t-18 -172q70 47 177.5 107t177.5 81q16 4 28 4q32 0 49 -19t17 -38q0 -27 -24 -48t-76 -44q-100 -44 -187 -102t-182 -148q-31 -250 -31 -389q-3 -47 6 -213 q5 -37 -18.5 -62.5t-67.5 -25.5z" />
<glyph unicode="G" horiz-adv-x="1001" d="M381 -29q-108 0 -184.5 56t-112 147.5t-35.5 208.5q0 24 4 74q25 214 147 479t304 453q38 42 114.5 89.5t118.5 47.5q57 0 100.5 -46t43.5 -106q0 -40 -21 -64t-53 -24q-12 0 -22.5 3.5t-17 7.5t-15.5 14t-13.5 16t-14.5 21t-15 22q-13 -11 -32.5 -27t-32 -27.5 t-21.5 -23.5q-363 -409 -402 -884q-5 -68 7 -128.5t51 -105.5t100 -45q46 0 88 23q112 54 211.5 212t99.5 283q0 17 -0.5 25t-2.5 23t-7.5 21.5t-15.5 6.5q-66 0 -136.5 -85t-91.5 -185q-26 -121 -90 -121q-46 0 -61.5 20.5t-18.5 67.5q0 35 2 53q17 97 82 193.5 t156.5 158.5t177.5 62q67 0 115.5 -45.5t58.5 -122.5q8 -61 4 -90q-12 -92 -47.5 -186t-90.5 -178.5t-121.5 -150.5t-147.5 -104.5t-162 -38.5z" />
<glyph unicode="H" horiz-adv-x="862" d="M592 -129q-33 0 -52 14.5t-26 40.5t-9 62t1 78q4 53 24.5 272.5t32.5 386.5q-140 -77 -196 -114t-129 -95q-25 -138 -25 -266q0 -22 3 -73.5t3 -76.5q0 -29 -2 -43q-6 -25 -25.5 -40t-44.5 -15q-52 0 -75 49.5t-23 120.5q2 90 9 199.5t14 189t22.5 245t24.5 263.5 q2 68 14.5 121t42 91t74.5 38q32 0 45.5 -23.5t13.5 -52.5q0 -64 -36 -270.5t-42 -253.5q24 13 88 47t91.5 49.5t71 40t68.5 41.5t40 31q9 82 19.5 154.5t28.5 185t24 149.5q6 35 22 76q25 45 76 45q33 0 55.5 -22.5t22.5 -55.5q0 -14 -2 -20q-3 -13 -14 -55t-13 -66 q-56 -435 -64 -512q-12 -126 -33.5 -387t-35.5 -408q-3 -32 -5 -47t-7.5 -37t-14 -32t-23 -17.5t-34.5 -7.5z" />
<glyph unicode="I" horiz-adv-x="385" d="M121 47q-29 1 -45.5 17t-21.5 42.5t-6 62t1 75.5q7 162 45.5 508t75.5 516q16 70 38.5 103t72.5 32q64 -3 53 -70q-3 -38 -45 -326t-60 -493q-16 -159 -18 -215q0 -84 2 -119q-1 -8 -2 -22t-2 -21q-6 -93 -88 -90z" />
<glyph unicode="J" horiz-adv-x="763" d="M293 -203q-106 7 -156 62q-57 61 -76 110q-61 158 -61 322q0 123 33 235q4 30 33 82q29 45 67 45q17 0 27 -4q39 -17 39 -55q0 -5 -4 -25q-3 -10 -7.5 -29.5t-7.5 -29.5q-33 -98 -33 -199q0 -122 39 -250q2 -20 19 -49q37 -75 86 -75q43 0 88 59q40 53 72 133 q71 180 77 393q6 144 12 405t9 357q2 68 14 209q4 72 62 80q12 4 26 4q28 0 45 -10q11 -9 17 -29.5t0 -32.5q-27 -58 -27 -149q0 -14 1 -42t1 -44q-2 -90 -3.5 -318t-4.5 -352q-3 -258 -76 -487q-50 -140 -117 -217q-90 -94 -194 -99z" />
<glyph unicode="K" horiz-adv-x="833" d="M125 -86q-32 0 -52.5 17.5t-23.5 45.5v43l62 898q15 222 26 356q11 61 33 100q20 39 63 39q17 0 27 -4q25 -13 31.5 -31t3.5 -47q-8 -87 -22.5 -273.5t-22.5 -273.5q8 11 48.5 71t53.5 78.5t51 74t57.5 82.5t56 78t63 86.5t62 82.5t70 91t70.5 88q28 41 70 77 q28 25 59 25q26 0 45 -16q25 -19 25 -50q0 -24 -14 -49q-12 -18 -43 -49q-36 -42 -70 -83t-70 -88t-60.5 -78.5t-63.5 -87t-55.5 -79t-60.5 -89.5l-55 -82.5t-62 -94t-60 -90.5q68 -87 182 -211q19 -22 44 -43t61.5 -48.5t50.5 -39.5q2 -1 14 -6.5t18 -11.5q29 -20 29 -52 t-20 -60t-46 -28q-6 0 -22 4q-69 26 -136 80.5t-159 159.5q-18 19 -54 67t-48 68q-43 -37 -50 -121q-8 -69 -14 -209t-10 -188q-3 -43 -12 -80q-9 -22 -28 -35.5t-42 -13.5z" />
<glyph unicode="L" horiz-adv-x="747" d="M174 -80q-19 0 -49 10q-52 21 -65 61.5t-9 100.5q17 429 31 606q10 152 61 580q4 37 8 60t11 56t17.5 53.5t25 41t36.5 30t50 9.5q76 0 76 -72q0 -17 -15 -44t-33 -68t-24 -89q-72 -552 -72 -1028q0 -18 8 -73l105 106q24 24 50.5 51t58 61t49.5 52q22 26 52 47t54 21 q28 0 51 -21t23 -47q0 -40 -60 -100q-189 -206 -305 -322q-26 -27 -41 -41t-41 -27.5t-53 -13.5z" />
<glyph unicode="M" horiz-adv-x="1101" d="M993 860q-3 -78 -6 -237.5t-4 -208.5q-1 -45 3.5 -97t11.5 -114t10 -97q0 -12 4 -32.5t4 -28.5q-4 -37 -21 -64.5t-51 -27.5q-103 0 -108 184q-9 181 -6 425t14 403q-113 -290 -189 -596l-55 -240q-8 -32 -25 -63q-33 -50 -88 -50t-77 52q-12 25 -17 54.5t-7 67t-5 58.5 q-17 105 -44 321t-40 303q-23 -64 -41.5 -136t-27.5 -120.5t-22 -124.5t-20 -112q-11 -48 -22.5 -147.5t-13.5 -116.5q-7 -29 -11.5 -43t-15.5 -33.5t-28 -28t-42 -8.5q-21 0 -35 17.5t-16 43.5q-6 39 8 136q10 95 33.5 239.5t52.5 251.5q8 27 62 242q82 285 104 352 q27 107 107 107q98 0 94 -136q-3 -62 -3.5 -123t1 -121t3 -107.5t6 -106.5t7 -91.5t8.5 -89t8 -73t8.5 -68.5t6.5 -53q58 228 135.5 471t147.5 412q9 23 21.5 58.5t20 53.5t20 38.5t29 29t40.5 8.5q54 0 81 -50.5t25 -115.5q-3 -91 -17.5 -231.5t-17.5 -235.5z" />
<glyph unicode="N" horiz-adv-x="851" d="M123 16q-43 0 -62 54q-12 25 -12 88q11 254 47 850q2 51 12.5 123.5t22.5 99.5q31 55 88 55q19 0 33 -8.5t21 -18t18 -30.5q20 -55 45 -116.5t56.5 -137.5t47.5 -115q40 -92 88.5 -223.5t49.5 -134.5q36 440 106 889q8 55 31 120q15 40 45 70q19 25 49 25q17 0 35 -11 q33 -21 33 -57q0 -13 -3 -25q-34 -105 -40 -131q-16 -56 -27 -153q-4 -35 -22 -176t-24.5 -205t-19 -187.5t-19 -240.5t-9.5 -248q0 -50 -25 -81.5t-59 -31.5q-33 0 -56 33q-17 24 -36 69.5t-31 84t-24.5 81t-14.5 48.5q-53 155 -225 547q-2 -59 -17 -296t-16 -354 q5 -112 8 -133v-22q0 -43 -41 -78q-20 -23 -53 -23z" />
<glyph unicode="O" horiz-adv-x="909" d="M367 0q-79 0 -143 46.5t-102.5 120t-57.5 161t-15 172.5q10 199 52 343t149 302q29 41 64 80t79 79t94 64.5t95 24.5q56 0 78.5 -25.5t19.5 -71.5q174 -165 180 -526q-2 -125 -37.5 -258.5t-97 -248.5t-156 -189t-202.5 -74zM379 147q70 1 139 91t111.5 204.5t54.5 212.5 q8 88 8 187q-2 126 -43.5 228t-124.5 142q-164 -131 -238 -331.5t-65 -434.5q3 -51 15.5 -102.5t32 -96t48.5 -72.5t62 -28z" />
<glyph unicode="P" horiz-adv-x="808" d="M121 -61q-34 1 -53 21t-19 52q4 120 12.5 241t28 335t29.5 330q5 44 18.5 162t22.5 194q-28 -11 -62 -8q-24 1 -32.5 12.5t-8.5 34.5q2 47 88.5 89.5t209 63.5t227.5 13q107 -9 168 -73.5t59 -154.5q-2 -102 -101 -269.5t-232 -309t-228 -180.5q-19 -127 -25 -328v-68 q-1 -37 -4 -61t-13 -49.5t-31 -37t-54 -9.5zM258 694q70 33 159.5 135.5t153.5 219.5t68 190q0 46 -18.5 67.5t-59.5 24.5q-132 9 -233 -26q-2 -13 -20 -160t-30 -252.5t-20 -198.5z" />
<glyph unicode="Q" horiz-adv-x="927" d="M664 256q13 -31 39.5 -98t41.5 -101q3 -11 12 -28.5t9 -24.5q0 -39 -21.5 -58.5t-52.5 -19.5q-18 0 -28 4q-17 6 -29 17t-17 18t-13.5 24l-10.5 21q-25 61 -57 152q-75 -37 -150 -37q-139 0 -237 127q-111 156 -99 358q28 439 381 805q53 53 115 53t110 -45 q69 -61 117 -145q105 -181 105 -475q0 -243 -127 -438q-42 -66 -88 -109zM467 295q14 9 16 10l-12 35q-4 16 -4 25q0 25 15 45t36 26q16 4 27 4q32 0 51 -22q45 61 74 147q45 128 45 264q0 190 -86 373q-8 17 -30 51.5t-32 51.5q-155 -112 -253.5 -325.5t-98.5 -420.5 q0 -125 57 -221q42 -66 115 -66q41 0 80 23z" />
<glyph unicode="R" horiz-adv-x="884" d="M150 -55q-47 0 -74 30t-27 68q0 73 10 213q29 445 66 842q-35 4 -51.5 26t-16.5 52q0 47 87 110.5t218 110.5t240 47q139 0 211 -71t72 -173q0 -37 -15.5 -81t-37.5 -84.5t-63 -94t-73.5 -92t-89 -98t-90 -93t-96 -95t-88.5 -87.5q170 -40 286 -65q41 -9 62 -14.5 t53.5 -16t48.5 -21.5t29 -29t14 -40q2 -33 -27 -60t-63 -20q-50 11 -137.5 38.5t-144.5 41.5q-156 34 -224 39q-8 -82 -8 -203q2 -28 -0.5 -74.5t-11.5 -58.5q-5 -6 -14 -18t-13 -16.5t-12.5 -8.5t-19.5 -4zM242 606q148 118 308.5 309.5t160.5 276.5q0 47 -36 73t-77 23 q-157 -16 -315 -133q-14 -256 -41 -549z" />
<glyph unicode="S" horiz-adv-x="849" d="M324 -66q-76 0 -150 35.5t-123 102.5q-26 40 -37 66t-12.5 39t-1.5 44q3 38 26 61t62 23q27 -4 42 -22.5t30 -55t26 -53.5q24 -39 61.5 -60.5t74.5 -21.5q38 0 96 33q66 40 102.5 99.5t36.5 125.5q0 38 -9 71t-35.5 74.5t-43 64t-61.5 79.5q-45 58 -98.5 121.5t-81 96 t-54.5 73t-37 78.5t-10 86q0 100 90 213q171 209 418 252q40 10 147 -7q39 -6 65.5 -44.5t26.5 -82.5q-3 -24 -24.5 -44.5t-48.5 -20.5q-26 0 -41 14.5t-30.5 30.5t-39.5 18q-11 0 -47 -8q-131 -38 -237.5 -134t-106.5 -187q0 -32 16.5 -66.5t35 -58.5t64.5 -78t74 -90 q16 -21 60 -75t72.5 -93t50.5 -80q55 -94 55 -197t-51 -196t-148 -156q-98 -70 -204 -70z" />
<glyph unicode="T" horiz-adv-x="792" d="M328 -63q-34 0 -56.5 19t-23.5 52q-2 36 2 101q68 764 98 1130q-42 -20 -115.5 -48.5t-101.5 -41.5q-43 -21 -70 -21t-44 22t-17 44q0 55 100 104l623 250q70 27 104 27q38 0 63 -28.5t25 -59.5q0 -39 -39.5 -78t-84.5 -39q-10 0 -27 7t-23 14q-89 0 -225 -84 q-96 -781 -96 -1127v-86q0 -157 -92 -157z" />
<glyph unicode="U" horiz-adv-x="833" d="M207 39q-48 0 -81.5 25.5t-50 70.5t-22.5 93t-4 104q7 187 45.5 468t79.5 470q10 47 40.5 67.5t68.5 14.5q15 -3 30 -20.5t15 -31.5q2 -45 -17 -116q-33 -177 -60.5 -421t-27.5 -394q0 -65 10 -95.5t35 -31.5q25 0 75.5 35t112 107.5t101.5 156.5q14 312 70 837 q3 50 23.5 82.5t60.5 32.5q31 0 52 -19t21 -49q0 -37 -6 -57q-15 -101 -31.5 -329t-23.5 -451q-8 -136 -8 -289q0 -28 1 -74.5t1 -66.5q0 -34 -23 -52t-57 -18q-11 0 -20.5 2.5t-17 5.5t-14 10.5t-11 12.5t-9 17t-7 18.5t-6 22t-5 23t-5 26t-5.5 26.5q-78 -89 -175.5 -151 t-154.5 -62z" />
<glyph unicode="V" d="M750 1595q34 -18 34 -55q0 -21 -8 -37l-6 -16q-234 -528 -375 -1313q-14 -79 -46.5 -127.5t-88.5 -42.5q-58 8 -78 56t-20 135q0 75 -4 150.5t-15.5 170t-16.5 136t-23 156t-19 124.5q-4 34 -12 70t-19 82t-16 67q0 3 -6 32t-6 46q0 31 25 60.5t52 29.5q53 0 68 -55 q30 -110 61 -254q60 -281 74 -537q134 632 311 1043q14 34 44.5 58.5t62.5 24.5q17 0 27 -4z" />
<glyph unicode="W" horiz-adv-x="1079" d="M1151 1669q27 -18 27 -47q0 -18 -9 -33q-206 -494 -280 -1194q-10 -134 -25 -231q-15 -68 -38.5 -96.5t-77.5 -28.5t-80.5 51t-32.5 121q-81 590 -103 690q-5 -16 -31.5 -107.5t-40 -138t-40 -145t-44 -172.5t-38 -173.5t-35.5 -191.5q-8 -55 -30.5 -83t-65.5 -29 q-21 1 -35 7t-22 21t-11.5 24.5t-7.5 32t-6 29.5q-4 49 -17.5 226.5t-19.5 273.5q-6 95 -18 247.5t-19 270.5q0 13 -1 46t-1 51q0 109 29 143q22 29 61 29q40 0 58 -37q2 -6 2 -15t-1 -20t-1 -16q0 -234 47 -687q37 113 63 203q33 109 93 313t87 293q3 8 10 27t9.5 25t9 20 t10.5 19t11.5 13t14.5 10.5t17.5 5t22.5 1.5q42 -6 59.5 -38.5t24.5 -96.5q6 -88 13 -163.5t16.5 -171.5t15.5 -165q3 -94 18 -209q14 59 31 162q37 245 209 799q23 65 58.5 108.5t72.5 43.5q24 0 41 -17z" />
<glyph unicode="X" horiz-adv-x="960" d="M41 -240q-14 5 -27.5 22t-13.5 30q-2 23 5.5 66.5t17.5 64.5q44 95 129 279.5t142.5 308t82.5 176.5q14 47 16 71q0 25 -10 58q-75 183 -137 364q-11 42 -33 143v21q0 41 41 61q20 17 45 17q27 -2 43 -18.5t16 -43.5q-1 -58 52 -217t86 -217q99 202 159 347t82 186 q57 110 119 110q26 -6 49 -22q31 -28 31 -72q0 -22 -14 -33q-40 -36 -97 -143.5t-133.5 -277t-99.5 -216.5q-13 -27 -17 -59q0 -31 15 -61q32 -83 88 -241t94 -255q2 -7 9 -27t10 -29.5t6 -25.5t2 -29q0 -19 -14.5 -33.5t-36.5 -19.5q-20 -4 -27 -4q-40 3 -57 35 q-23 38 -27 65q-24 56 -43 108t-40 114t-38 108l-41 86q-148 -253 -342 -739q-34 -73 -92 -58z" />
<glyph unicode="Y" horiz-adv-x="704" d="M100 -203q-71 0 -71 68q0 29 18 88q20 67 89 324.5t110 377.5q-39 78 -96.5 224t-81.5 254q-1 4 -3.5 17.5t-5 25.5t-2.5 16q0 50 15.5 69t56.5 19q26 0 45 -14.5t23 -44.5q24 -139 135 -359q10 23 22.5 55t18.5 44q28 66 79 186t93 218.5t80 186.5q28 58 52 84.5 t56 26.5q30 0 50 -14.5t20 -40.5q0 -24 -17 -58q-6 -14 -65.5 -153t-68.5 -160.5t-60.5 -145.5t-65 -159.5t-56.5 -147t-60 -164t-52 -154t-55 -174.5t-45.5 -167t-46.5 -186q-9 -66 -37.5 -104t-73.5 -38z" />
<glyph unicode="Z" horiz-adv-x="905" d="M63 -121q-28 0 -45.5 18t-17.5 46q0 44 29 104l317 678q16 36 57.5 129.5t72 159.5t61.5 127q21 44 137 258q-84 -21 -119 -29q-56 -16 -176.5 -61t-185.5 -62q-5 -1 -15.5 -4.5t-18.5 -5.5t-14 -2q-27 0 -47 24.5t-20 51.5q0 31 24 49q13 13 41 20l496 150q34 10 180 45 q18 6 33 6q35 0 59 -27q19 -25 19 -45q0 -24 -19 -51q-3 -9 -26 -37q-110 -113 -207 -315q-106 -219 -247 -527.5t-159 -373.5q16 6 39.5 16t28.5 12q43 20 174.5 85t206.5 100q27 10 45 10q31 0 52.5 -25.5t21.5 -48.5q0 -43 -76 -80q-32 -19 -98 -45q-151 -61 -264 -126.5 t-234 -172.5q-24 -21 -55 -36t-50 -15z" />
<glyph unicode="[" horiz-adv-x="690" d="M639 1520q2 -6 2 -17q0 -25 -14.5 -44t-40.5 -23q-155 -40 -254 -52q-3 -47 -44.5 -388.5t-58.5 -581.5q-16 -191 -18 -260q0 -101 2 -144v-10q139 22 201 33q27 6 45 6q60 0 82 -51q2 -6 2 -17q0 -25 -15 -44t-41 -23q-227 -58 -356 -58q-32 0 -55 17t-23 49v10 q-4 29 -4 166q7 195 45.5 612.5t75.5 622.5q7 41 14 66q-32 18 -32 55q0 35 26.5 52.5t81.5 27.5q2 0 252 41q27 6 45 6q60 0 82 -51z" />
<glyph unicode="\" horiz-adv-x="776" d="M637 -84q-79 0 -92 96q-3 27 -24.5 98.5t-48.5 152t-32 99.5q-35 109 -81 241t-75.5 214t-87.5 238.5t-75 204.5q-29 80 -88 129q-33 20 -33 61q0 36 29 61t69 25q25 0 47 -19t34.5 -41t30.5 -58q5 -10 7 -15q123 -302 193 -506q100 -288 196 -578.5t96 -318.5 q0 -33 -20.5 -58.5t-44.5 -25.5z" />
<glyph unicode="]" horiz-adv-x="724" d="M623 1540q62 -6 51 -84q-3 -47 -45 -394.5t-60 -594.5q-16 -191 -18 -260q0 -101 2 -144q-1 -9 -2 -26t-2 -25q-3 -42 -14 -63q-10 -39 -52 -45q-227 -58 -356 -58q-32 0 -55 17t-23 49q0 35 27 52.5t82 27.5l231 37q-1 16 -1 33.5t0.5 41t0.5 37.5q7 195 45.5 612.5 t75.5 622.5q2 18 10 45q-169 -43 -295 -43q-32 0 -55 17t-23 49q0 35 27 52.5t82 27.5q2 0 252 41q27 6 45 6q48 0 70 -31z" />
<glyph unicode="^" horiz-adv-x="790" d="M651 606h-8q-44 0 -68 37q-4 10 -11 31.5t-11 30.5q-20 36 -62 99.5t-47 72.5l-190 -236q-27 -39 -65 -70.5t-70 -31.5q-28 0 -49 19t-21 46q0 32 49 100t131.5 170.5t126.5 169.5q55 80 111 80q51 0 92 -71q19 -35 72.5 -116t75.5 -126q34 -66 34 -115q0 -32 -17.5 -54 t-47.5 -28q-6 -8 -25 -8z" />
<glyph unicode="_" horiz-adv-x="1437" d="M135 -121q-39 0 -62.5 19t-23.5 49q0 23 20.5 41.5t55.5 25.5q13 4 63 9q178 14 424.5 44t411.5 44q58 4 82 4q86 0 86 -76q0 -52 -49 -64q-76 -16 -107 -20q-62 -6 -162.5 -18.5t-181.5 -18.5q-86 -5 -198 -15.5t-179 -15.5q-19 -1 -82.5 -4.5t-97.5 -3.5z" />
<glyph unicode="`" horiz-adv-x="419" d="M336 1008q-18 2 -37.5 7.5t-44 14t-37.5 12.5q-97 21 -117 23q-56 6 -78.5 22.5t-19.5 47.5q2 34 36 59.5t75 22.5q87 -9 256 -78q25 -9 38 -25.5t11 -36.5q-2 -27 -25.5 -48.5t-56.5 -20.5z" />
<glyph unicode="a" d="M469 1141q71 0 119.5 -53t48.5 -119q0 -52 -19 -154q-39 -265 -43 -297q-5 -42 -12.5 -98.5t-11.5 -86t-8.5 -79.5t-3.5 -80t4 -86q0 -7 1 -20.5t1 -20.5q0 -31 -20.5 -47t-47.5 -18q-54 0 -74 41t-20 129q-95 -95 -199 -95q-74 0 -116.5 61.5t-42.5 153.5q0 172 180 359 q39 44 118 121.5t99 97.5q25 23 43 53.5t18 54.5q0 20 -10.5 33t-19.5 13q-48 0 -129.5 -67t-98.5 -124q-10 -43 -63 -43q-62 0 -62 76q0 67 80.5 144.5t177.5 125.5q55 25 111 25zM332 307q60 102 91 186.5t42 213.5q-98 -77 -240 -289q-26 -42 -40.5 -85.5t-14.5 -62.5 q0 -61 35 -61q28 -1 64.5 28t62.5 70z" />
<glyph unicode="b" horiz-adv-x="776" d="M94 72q-33 0 -52.5 25.5t-16.5 62.5q0 12 19 43.5t34 50.5q4 177 26 512t31 410q3 29 15 130.5t14 141.5q3 44 23.5 73.5t54.5 28.5q83 0 69 -116q-6 -65 -18 -195.5t-18.5 -203.5t-4.5 -77q83 49 195 37q125 -8 197.5 -100.5t62.5 -232.5q-6 -43 -32 -93t-48.5 -80 t-69.5 -88q-99 -107 -259 -221.5t-222 -107.5zM246 317q175 115 258 224q24 31 46.5 77.5t22.5 73.5q5 58 -31.5 109t-95.5 57q-75 5 -129 -26t-63 -97q-30 -225 -8 -418z" />
<glyph unicode="c" horiz-adv-x="679" d="M459 47q-120 0 -220.5 62t-157 165t-56.5 222q0 158 81.5 306t217.5 226q96 49 165 49q63 0 102.5 -40.5t39.5 -106.5q0 -63 -35.5 -134t-81.5 -71q-29 0 -48.5 19.5t-19.5 46.5q0 10 4.5 22.5t11 25t7.5 15.5q6 17 9.5 31.5t5.5 28.5t-1.5 22t-11.5 8 q-289 -156 -289 -436q0 -131 70 -217t188 -98q18 -2 65.5 8t55.5 10q27 0 45.5 -18t18.5 -43q0 -43 -51 -73t-115 -30z" />
<glyph unicode="d" horiz-adv-x="833" d="M741 -2q-19 0 -39.5 21t-32 40.5t-27.5 51.5q-2 3 -3 5.5t-2 4.5q-15 29 -22.5 51t-14.5 57.5t-12 55.5q-46 -53 -64 -66q-159 -117 -274 -117q-119 0 -191 105q-19 25 -28 72.5t-4 85.5q23 145 94.5 271t185 210t244.5 100q8 65 10 74q6 44 16.5 135t19.5 161.5 t19 133.5q9 47 35.5 87t63.5 40q67 -5 67 -98q2 -136 -6.5 -342t-25.5 -369q-5 -43 -20 -143t-17 -133q-6 -63 22.5 -200.5t61.5 -199.5q12 -24 12 -39q-10 -55 -68 -55zM246 242q26 0 59 8q110 31 183 130t73 200q0 21 -2.5 56t-3.5 46q-3 47 -13.5 69t-33.5 23 q-24 0 -78 -31q-102 -70 -181 -193.5t-79 -207.5q0 -100 76 -100z" />
<glyph unicode="e" horiz-adv-x="768" d="M340 86q-160 0 -237.5 79.5t-77.5 244.5q0 200 100 378q54 100 144 172t169 72q71 0 122.5 -32.5t51.5 -92.5q0 -139 -94 -258q-132 -171 -346 -248q0 -71 41.5 -114t124.5 -43q19 0 51 4q52 6 116 37.5t114.5 59.5t74.5 28q33 0 53.5 -20t20.5 -44q0 -41 -68 -94 q-56 -44 -170 -86.5t-190 -42.5zM195 571q81 34 169 131.5t101 178.5q-40 -1 -87 -25t-88 -63.5t-68 -98.5t-27 -123z" />
<glyph unicode="f" horiz-adv-x="847" d="M309 -225q-45 3 -59 61q-8 34 -13.5 62.5t-8 65.5t-3.5 54.5t-2 73.5t-2 78q-3 108 4 236q2 40 3.5 69.5t2.5 42.5t1.5 20.5t0.5 14.5v12v26v44q-12 -7 -39 -24t-42.5 -26t-36.5 -17t-37 -7q-24 0 -38.5 18.5t-14.5 43.5q2 37 44.5 73.5t111.5 75.5t91 57 q23 146 61.5 281.5t97 261t130 217t166 144t199.5 47.5q78 -3 124.5 -53t43.5 -128q-7 -82 -95 -200q-33 -47 -75 -47q-28 2 -45.5 17.5t-16.5 39.5q1 10 21 55q10 22 26.5 49.5t24.5 45.5t10 36q0 27 -10 35t-31 10q-99 4 -203 -110t-174 -286t-80 -335q27 10 70 28 t64.5 26t53 17.5t60.5 14.5q31 8 45 4q45 -2 69 -20t21 -53q-1 -26 -18.5 -41t-44.5 -15q-40 -4 -81.5 -15t-67.5 -21.5t-72.5 -32t-71.5 -31.5q-34 -15 -52 -37.5t-24 -58.5q-28 -168 -28.5 -398t28.5 -378q13 -46 -17 -85.5t-71 -37.5z" />
<glyph unicode="g" horiz-adv-x="813" d="M150 -406q-149 0 -235.5 57.5t-86.5 162.5q0 71 45 147q41 77 84.5 141t73.5 101.5t77.5 80.5t66 57.5t69.5 53.5q0 6 -13 17t-24 14q-72 22 -116 67t-44 101q0 19 4 39q14 69 53 134t91 114.5t97 82.5t89 58q36 45 47 72q35 67 113.5 112.5t179.5 59.5q37 7 64.5 -9.5 t27.5 -42.5q0 -15 -15 -32.5t-34 -26.5q-43 -20 -84 -29q-84 -28 -129 -92q96 -29 139 -73t43 -113q0 -18 -8 -68q-20 -87 -79 -154t-152 -126q-15 -9 -52 -21.5t-61 -25.5q38 -19 53 -21q137 -6 231.5 -82.5t116.5 -195.5q6 -30 6 -68q0 -130 -108 -250q-91 -104 -239 -173 t-291 -69zM254 555q21 0 45 6q164 50 250 187q26 50 26 83q0 64 -63 64q-44 0 -98 -35q-160 -76 -203 -227q-4 -10 -4 -33q0 -45 47 -45zM127 -254q200 0 352 109t160 254q3 60 -56 123t-126 63q-47 0 -114.5 -21t-92.5 -47q-109 -107 -187.5 -213.5t-78.5 -175.5 q0 -89 143 -92z" />
<glyph unicode="h" horiz-adv-x="692" d="M518 -115q-21 -2 -37 1.5t-26.5 13t-17.5 19.5t-11.5 28t-6.5 30t-4.5 34t-4.5 32q-14 109 1.5 384.5t53.5 453.5q-75 -67 -113 -107q-53 -44 -78.5 -74.5t-43 -83.5t-23.5 -137q-1 -65 -1 -79.5t6 -82.5t7 -84q0 -73 -67 -79q-44 -3 -68.5 32.5t-30.5 79.5 q-1 19 -1.5 78t-2.5 92q-4 71 4 191q5 94 30.5 272.5t27.5 198.5q10 56 32.5 173.5t32.5 178.5q10 45 40 83.5t67 39.5q36 1 54.5 -17t20.5 -45q1 -12 -4.5 -32t-13 -40t-8.5 -26q-4 -14 -12.5 -42t-11.5 -38t-8.5 -30t-7.5 -29t-6 -24.5t-6 -26.5t-4 -25.5t-4 -30.5 q-12 -81 -36 -290q27 20 155 131q81 71 133 73q53 5 87.5 -32t31.5 -95q-4 -57 -27 -157q-23 -97 -39 -231t-22.5 -252.5t-3.5 -212t16 -119.5q11 -18 11 -31q3 -27 -17 -45.5t-43 -20.5z" />
<glyph unicode="i" horiz-adv-x="321" d="M207 1094q-42 -4 -62.5 12.5t-23.5 56.5q-6 51 10 82.5t51 34.5q67 6 88 -94q7 -38 -11.5 -64t-51.5 -28zM139 72q-36 -3 -59.5 20t-28.5 62t2 96q30 401 43 553q19 87 76 92q33 3 53.5 -14.5t20.5 -44.5q0 -32 -15 -154.5t-20 -232.5q-2 -72 -2 -216v-12q0 -11 4.5 -30 t5.5 -29q2 -37 -19 -62t-61 -28z" />
<glyph unicode="j" horiz-adv-x="321" d="M188 1180q-30 0 -56 27t-26 59t22 51.5t56 19.5t61 -27.5t27 -56.5q0 -30 -25.5 -51.5t-58.5 -21.5zM-281 -410q-117 0 -194 84.5t-88 194.5q-2 23 -2 65q0 56 19 88.5t69 32.5q24 0 41 -14t18 -35q1 -6 1.5 -47t2.5 -65q7 -70 45 -125.5t99 -55.5q51 0 109.5 34 t107.5 83q64 71 108.5 178.5t53.5 208.5q16 197 16 295q0 154 -19 360q-5 46 15.5 85.5t60.5 39.5q35 0 54.5 -20t21.5 -51q0 -23 -2 -33q-10 -65 -8 -111q8 -104 8 -243q0 -357 -59 -525q-34 -91 -77.5 -164t-101.5 -133t-134.5 -93.5t-164.5 -33.5z" />
<glyph unicode="k" horiz-adv-x="851" d="M172 -25q-35 -2 -56.5 18.5t-28.5 45.5t-11 63q-2 27 -0.5 51t4 78t2.5 97q-51 22 -57 75q-3 40 71 132q12 36 25 131q11 97 34.5 389.5t41.5 427.5q8 69 35.5 116.5t70.5 51.5q36 0 63.5 -16t28.5 -42q5 -22 -20 -60t-27 -50q-58 -604 -67 -762l268 332q63 79 119 90 q33 0 55 -19t22 -41q6 -40 -55 -94q-70 -67 -196.5 -221t-133.5 -162q55 -48 128.5 -95.5t113.5 -68.5t113 -59q7 -4 37 -17t45 -24q6 -3 10.5 -7t7.5 -7t5 -9.5t3 -9t2.5 -10t1.5 -8.5q0 -62 -63 -68q-8 0 -16.5 0.5t-19 3.5t-18 5t-19.5 7.5t-18 8t-19.5 9.5t-17 8.5 t-17.5 9.5t-15 8q-219 118 -344 209q-38 -113 -35 -363q0 -12 9 -33t10 -30q3 -35 -16 -61.5t-56 -29.5z" />
<glyph unicode="l" horiz-adv-x="317" d="M139 68q-29 -3 -50.5 16.5t-31.5 50.5q-8 39 -7.5 139.5t7.5 202.5q29 482 93 873q7 42 12.5 66.5t16.5 56.5t28.5 47.5t40.5 15.5q33 0 53 -19.5t16 -52.5q-110 -575 -110 -1173q0 -88 4 -131q10 -86 -72 -92z" />
<glyph unicode="m" horiz-adv-x="1005" d="M922 772q-15 -110 -24 -243.5t-11.5 -220.5t-5.5 -245q-3 -21 2 -102q1 -36 -16 -56t-48 -22q-28 -1 -47.5 16t-29 46.5t-13.5 58t-4 59.5q0 33 5.5 169t12.5 305t9 237q-44 -87 -90.5 -221.5t-73.5 -269.5q-9 -47 -35 -78.5t-59 -30.5q-72 6 -72 102q0 77 -4 140 t-12 155t-13 177q-10 -21 -40.5 -78.5t-50.5 -100.5t-28 -73q-19 -61 -49.5 -176.5t-36.5 -137.5q-6 -53 -21.5 -75.5t-51.5 -22.5q-25 0 -44 19.5t-22 48.5q-1 23 1.5 67t2.5 60q12 131 49 593q7 44 21 86q19 49 65 52q28 6 55.5 -14.5t28.5 -49.5q0 -22 -10 -37 q-22 -46 -31 -237q95 216 101 227q52 106 106 109q26 2 46.5 -13t27.5 -45q7 -33 15 -167t14 -185q19 48 53.5 144t59 157t46.5 100q46 71 101 76q53 5 88 -27.5t41 -93.5q7 -69 -8 -182z" />
<glyph unicode="n" horiz-adv-x="684" d="M131 61q-33 -3 -57.5 15.5t-24.5 48.5v18q0 53 2 64q46 505 72 756q3 38 26 61t60 20q51 -8 51 -59q0 -32 -3 -106.5t-3 -96.5q86 99 137 148q29 32 41.5 44.5t37.5 28t50 17.5q107 0 115 -141q0 -34 -4 -50q-5 -33 -20.5 -129.5t-20.5 -135.5t-11 -110t-6 -135 q0 -57 5 -108q0 -39 -18.5 -60.5t-47.5 -21.5q-54 0 -78 41q-16 39 -16 94q0 278 61 537q-55 -43 -92.5 -78.5t-56 -57t-51.5 -63.5q-48 -59 -56 -125q-3 -74 -22 -330q-13 -55 -25 -68q-15 -17 -45 -18z" />
<glyph unicode="o" horiz-adv-x="673" d="M279 92q-65 -5 -120 26.5t-89 92.5q-31 44 -43 131q-5 45 2 111q27 184 145 335q26 33 35 62q8 50 43 82t84 35q30 3 67 -6q63 -26 109 -84q85 -110 111 -302q20 -210 -103 -344q-56 -65 -149 -112q-50 -24 -92 -27zM268 238q11 0 47 12q95 53 131 141q32 97 23 174 q-8 103 -80 230q-10 -5 -17 -8l-7 -3l-23 -18q-154 -161 -160 -377v-29q1 -8 17 -71q27 -56 69 -51z" />
<glyph unicode="p" horiz-adv-x="739" d="M143 -319q-70 -3 -82 49q-9 27 -12 73v41q26 498 29 574l37 395v16q-3 25 -19 41q-34 32 -37 58q-2 18 29 61q31 36 39 82t66 49l40 4q33 0 54 9q70 29 121 32q114 6 192.5 -62.5t87.5 -187.5q10 -129 -72 -290q-89 -185 -264 -365q-31 -33 -60 -49.5t-69 -15.5 q-20 -206 -14 -414q0 -48 -4 -60q-13 -36 -62 -40zM242 375q3 1 7.5 1.5t7 1t3.5 1.5q93 105 153.5 194t92.5 189q26 78 20 176q-4 44 -37 66.5t-83 17.5q-60 -3 -99.5 -32.5t-44.5 -71.5q-10 -273 -26 -490q0 -39 6 -53z" />
<glyph unicode="q" horiz-adv-x="774" d="M717 164q24 0 40.5 -19.5t16.5 -42.5q0 -34 -22 -71q-7 -12 -34.5 -54t-46 -73t-43.5 -87.5t-42 -117.5q-8 -23 -12 -33.5t-15.5 -32.5t-25.5 -32.5t-31 -10.5q-25 0 -41.5 7.5t-25 16.5t-12.5 31t-4.5 34.5t-0.5 43.5v19q0 286 47 551q-75 -43 -124 -62.5t-105 -19.5 q-101 0 -156 62.5t-55 166.5q0 155 114.5 308t294.5 262q70 39 131 39q59 0 96 -27t37 -80q0 -12 -23.5 -177t-25.5 -173q15 -18 15 -49q0 -56 -27 -80q-28 -201 -55 -422q67 123 135 123zM487 541q5 37 33 178t35 194q-179 -98 -282 -214.5t-103 -245.5q0 -46 23 -69.5 t63 -23.5q65 0 178 95q24 21 36.5 40t16.5 46z" />
<glyph unicode="r" horiz-adv-x="690" d="M137 125q-32 -5 -56 9.5t-28 43.5l-2 23q-2 20 -2 61q14 257 33 563q0 3 -0.5 11t-0.5 13t1 11.5t4 11.5q17 45 59 48q28 3 47 -10t25 -38q11 -88 14 -106q8 13 22.5 35t20.5 33q128 197 252 299q44 39 125 88q25 14 41 14q34 3 60 -27q12 -15 12 -32q3 -24 -27 -54 q-21 -21 -71 -61q-314 -272 -443 -707q-10 -31 -14 -125q-4 -35 -10 -53q-4 -22 -21.5 -35.5t-40.5 -15.5z" />
<glyph unicode="s" horiz-adv-x="684" d="M416 -51q-59 -10 -137 12q-162 56 -252 178q-11 15 -25 60q-10 73 43 120q22 22 53 31q22 3 41 -8q28 -14 35 -45q0 -23 -4 -33q-12 -19 -8 -43q9 -27 43 -51q6 -4 27.5 -19.5t31 -21.5t27 -15.5t33.5 -15.5q41 -13 67 -8q31 5 52.5 28.5t25.5 59.5q0 39 -4 55 q-3 23 -12 35q-18 39 -39.5 77.5t-56 93.5t-46.5 75q-16 26 -52 75.5t-48 67.5q-23 33 -39 95q-18 99 59 194q97 120 228 176q47 26 106 29q45 4 77 -20.5t38 -65.5q8 -24 2 -44t-31 -34q-12 -6 -16 -6q-27 -8 -57 14q-3 3 -10 7.5t-11.5 8t-7.5 7.5q-125 -52 -201 -158 q-31 -50 -24 -88q8 -24 18 -39q12 -17 53.5 -74t61.5 -90q102 -166 141 -241q15 -25 27 -74q6 -48 0 -96q-13 -82 -71.5 -139.5t-137.5 -69.5z" />
<glyph unicode="t" horiz-adv-x="720" d="M340 57q-47 0 -85.5 23t-57.5 63q-35 77 -35 236q0 49 3.5 111t6.5 102t9.5 111.5t8.5 91.5q-2 0 -47 -15.5t-59 -15.5q-59 0 -59 55q0 26 38 56.5t78 50t76 32.5q23 124 48 219t57 177t73.5 126.5t89.5 45.5q35 0 57.5 -20t22.5 -44q0 -23 -42.5 -55.5t-51.5 -52.5 q-70 -199 -90 -312q38 22 171 61.5t167 41.5q35 1 55.5 -17t20.5 -43q0 -22 -18.5 -42t-55.5 -31q-34 -10 -74 -24.5t-72 -27.5t-72.5 -30.5t-61.5 -27t-53.5 -24.5t-35.5 -16q-4 -22 -16 -94t-17.5 -109.5t-11.5 -94.5t-6 -101q0 -116 14 -187l3 -12q3 -12 4 -15.5t5.5 -13 t8.5 -13t12 -7.5t17 -4q7 0 17.5 14t20 31.5t27.5 32.5t39 16q30 0 51 -24.5t21 -47.5q0 -60 -65.5 -118t-135.5 -58z" />
<glyph unicode="u" horiz-adv-x="700" d="M514 53q-26 -1 -44 9t-27 31t-13 37.5t-8 45.5q-103 -68 -166 -74q-126 -15 -180 109q-30 104 -27 184q-2 132 70 453q4 25 23 53t44 29q31 6 56 -15t28 -53q6 -20 -4 -49q-25 -53 -43 -150.5t-24 -173.5q-2 -131 9.5 -185t41.5 -54q50 -2 104 64.5t64 148.5 q11 128 71 473q3 24 6.5 40t12.5 38.5t26 35t41 13.5q69 0 76 -49q0 -23 -2 -31q-73 -251 -86 -700q1 -13 9.5 -64t9.5 -76q0 -40 -19 -63.5t-49 -26.5z" />
<glyph unicode="v" d="M295 20q-37 -3 -59.5 15.5t-34.5 62.5q-26 126 -76 362t-66 312q-5 19 -10 88q-1 39 21.5 63.5t52.5 24.5q28 3 55.5 -16.5t28.5 -46.5q0 -3 -3.5 -45t1.5 -62q0 -1 2 -15t4 -22q14 -62 42.5 -219t41.5 -217q128 409 237 709q32 85 58.5 128t62.5 46q34 0 56 -15.5 t26 -44.5q0 -27 -8 -43q-67 -136 -154 -368.5t-157 -476.5q-3 -11 -12 -50t-17 -64t-18 -46q-23 -56 -74 -60z" />
<glyph unicode="w" horiz-adv-x="966" d="M889 1192q26 5 50.5 -13t27.5 -46q0 -25 -6 -37q-34 -121 -97 -322q-10 -35 -78.5 -249.5t-93.5 -325.5q-13 -59 -36 -90t-64 -35q-31 -3 -54.5 17t-29.5 56q-6 39 -15.5 116t-15.5 116q-4 35 -12 129t-12 127q-56 -151 -105 -326q-38 -137 -49 -168q-31 -99 -94 -104 q-38 -5 -63 13.5t-29 58.5q-5 49 -12.5 144.5t-12.5 143.5q-3 35 -17 211t-20 271q-4 45 0 65q9 32 30.5 48.5t49.5 13.5q54 -12 57 -70q38 -370 52 -444q10 30 35.5 109t41.5 126.5t35 99t31 70.5q1 2 5.5 10t6.5 10.5t6 9.5t7 10t7.5 8t8.5 7.5t10 5.5t12 4.5t13 2.5 q38 2 65 -20t33 -64q2 -16 29.5 -172t34.5 -217q38 103 95 312.5t72 258.5q17 57 39.5 91.5t61.5 37.5z" />
<glyph unicode="x" horiz-adv-x="749" d="M20 -88q-31 0 -49.5 16t-19.5 45q-4 29 12 56q39 87 66 142.5t65.5 130.5t69.5 138q86 159 94 172l-86 170q-18 36 -23 45t-13.5 29t-11.5 33t-5 31q-3 28 10.5 49t42.5 22q40 6 76 -49q15 -25 33.5 -60t41 -80t35.5 -69q105 213 260 445q10 13 26.5 35.5t30 40.5 t27.5 32q27 23 48 23q25 3 47.5 -16t25.5 -46q0 -17 -4.5 -30.5t-9 -20.5t-15 -20.5t-16.5 -22.5q-7 -11 -46.5 -67.5t-78 -113.5t-100.5 -159.5t-121 -212.5q130 -209 143 -231q64 -90 64 -140q6 -34 -23 -61.5t-61 -30.5q-20 -1 -35 12.5t-20 34.5q-8 29 -19.5 57 t-30.5 60.5t-30 50.5t-38 59.5t-36 55.5q-40 -63 -131 -234t-127 -251q-31 -67 -68 -70z" />
<glyph unicode="y" horiz-adv-x="757" d="M623 1075q48 0 69 -35.5t17 -76.5q-6 -77 -14 -237t-19 -288.5t-33 -247.5q-18 -94 -50 -179.5t-84 -163t-118.5 -134t-156 -90t-193.5 -33.5q-148 0 -238 80t-90 191q0 116 86 116q76 0 76 -83q0 -68 45 -111t139 -43q142 0 251 108.5t164.5 289t55.5 401.5 q-45 -59 -75.5 -95t-72 -76.5t-82.5 -59.5t-83 -19q-168 0 -168 278q3 98 20.5 185t55.5 209q16 48 34.5 70.5t59.5 25.5q30 0 53 -16.5t23 -41.5q0 -27 -10 -49q-35 -85 -55.5 -204.5t-20.5 -215.5q0 -54 12 -81q80 33 156 153q60 92 92.5 163.5t60.5 170.5q3 10 10 40 t11.5 41t14 28t23.5 23.5t34 6.5z" />
<glyph unicode="z" horiz-adv-x="655" d="M29 -8q-32 -6 -54 16q-20 15 -24 43q0 22 12 41q126 242 176 322q48 80 150 240t151 243q17 19 37 53q-193 -32 -295 -98q-27 -18 -45 -21q-30 3 -49 25q-13 16 -16 37q-3 27 28 55q7 7 47 27q168 89 406 133h16q35 0 49 -2q59 -14 62 -64q0 -16 -4 -26q-7 -25 -39 -78 l-393 -621q-25 -37 -27 -67l150 78q5 2 23 10t30.5 12t25.5 6q16 4 23 4q33 3 55 -28q8 -23 6 -27q3 -27 -22 -49q-13 -6 -34 -20t-30 -19q-259 -151 -350 -201l-24 -14q-15 -10 -41 -10z" />
<glyph unicode="{" horiz-adv-x="757" d="M508 1014q-18 2 -37.5 7.5t-43.5 14.5t-38 13q-88 19 -117 22q-56 6 -78.5 22.5t-19.5 47.5q2 34 36 59.5t75 22.5q87 -9 256 -78q25 -9 38 -25.5t11 -36.5q-2 -27 -25.5 -48.5t-56.5 -20.5zM135 578q-59 -3 -78 38q-8 13 -8 31q0 34 39 58q38 17 72 22q48 6 201.5 31.5 t224.5 32.5q24 4 30 4q69 4 86 -45q7 -21 7 -23q0 -19 -15 -37t-41 -28q-44 -15 -102 -25q-58 -6 -204.5 -30t-211.5 -29zM195 23q-37 4 -59.5 30.5t-20.5 61.5q3 44 51 80q274 185 364 178q32 -3 48 -22t14 -46q-2 -21 -16 -40t-37 -29q-31 -15 -78.5 -37.5t-70.5 -33.5 t-52.5 -29t-49 -37.5t-36.5 -45.5q-20 -33 -57 -30z" />
<glyph unicode="|" horiz-adv-x="860" d="M72 -41q-53 3 -68 45q-4 20 -4 27q3 34 47 57q19 10 55 25t50 22q16 4 45.5 17.5t44.5 19.5l104 1141q-6 -1 -28 -3t-35 -7q-14 -3 -38 -13.5t-34 -13.5q-35 -4 -43 -2q-42 0 -57 31q-12 20 -9 36q0 37 54 62q11 9 45 22l436 129q49 7 78 5q34 -2 53 -21.5t18 -52.5 q-3 -42 -51 -62q-67 -21 -117 -26q-103 -11 -112 -113q-2 -34 -5.5 -71.5t-9 -85t-8.5 -72.5l-61 -770q0 -5 3 -21.5t3 -32.5q29 13 79 33t66 27q14 5 40 19t36 18q38 15 64 12q32 0 53 -27q17 -27 12 -45q-3 -35 -43 -67q-83 -44 -125 -60q-136 -51 -477 -168q-5 -1 -15 -6 t-16 -6q-8 -2 -30 -2z" />
<glyph unicode="}" horiz-adv-x="757" d="M563 1323q37 -4 59.5 -30.5t20.5 -61.5q-3 -44 -51 -80q-274 -185 -365 -178q-32 3 -47.5 21.5t-13.5 45.5q2 21 16 40.5t37 29.5q31 16 78.5 37.5t70.5 33t52.5 29.5t49 37t36.5 45q21 34 57 31zM623 768q58 3 77 -39q9 -15 9 -31q0 -33 -39 -57q-42 -18 -72 -23 q-47 -6 -201 -31t-225 -32q-24 -4 -31 -4q-69 -4 -86 45q-6 18 -6 22q0 19 14.5 37.5t40.5 28.5q43 15 103 25q58 6 204.5 30t211.5 29zM250 332q18 -2 37.5 -7.5t43.5 -14.5t38 -13q98 -21 116 -23q57 -6 79.5 -22t19.5 -47q-2 -34 -36 -59.5t-75 -22.5q-87 9 -256 78 q-52 18 -49 61q2 28 26 49.5t56 20.5z" />
<glyph unicode="~" horiz-adv-x="1079" d="M125 516q-21 0 -41 14q-35 18 -35 52q0 19 12 34q93 135 195 187q50 26 96 26q49 0 107 -28q25 -13 64.5 -41.5t51.5 -36.5q65 -41 123 -41q91 0 150 109q3 5 12.5 24t16.5 27q26 45 69 45t65 -24.5t19 -65.5q-13 -110 -106.5 -187.5t-210.5 -77.5q-136 0 -234 70 q-16 12 -60.5 42t-72.5 52q-19 -18 -57.5 -52.5t-57.5 -53.5q-11 -8 -28 -27.5t-21 -23.5q-26 -23 -57 -23z" />
<glyph unicode="&#xa1;" horiz-adv-x="720" d="M571 1466q46 0 73.5 -22.5t27.5 -61.5q0 -38 -58 -84.5t-125 -46.5q-27 0 -49 34t-22 56q0 37 55.5 81t97.5 44zM465 1087q30 0 47 -14t22 -33t1.5 -50.5t-8.5 -53t-15 -55.5q-44 -177 -63.5 -252t-57 -198.5t-80.5 -225t-104 -223.5q-19 -34 -30.5 -53t-30.5 -44 t-38.5 -37t-41.5 -12q-27 0 -48 18.5t-18 39.5q4 24 11.5 50t14.5 46.5t23.5 56t26 56t34 70.5t37.5 77q22 44 40 83t34.5 83t27.5 70.5t25.5 76t20.5 67.5t20.5 77.5t18 73.5t20.5 87.5t21 89.5q33 129 90 129z" />
<glyph unicode="&#xa2;" horiz-adv-x="679" d="M561 369q27 0 45.5 -18.5t18.5 -43.5q0 -43 -51 -72.5t-115 -29.5q-56 0 -115 16l-57 -248q-2 -21 -11 -43q-21 -54 -77 -57q-9 0 -17 4q-24 9 -35.5 30.5t-5.5 45.5q21 190 70 332q-86 62 -136 159.5t-50 208.5q0 158 81.5 306.5t217.5 226.5l55 24q26 177 70 289 q11 30 36 45t54 4q33 -13 39.5 -47t-5.5 -84q-29 -124 -43 -188q46 -11 73.5 -49t27.5 -93q0 -63 -35.5 -133.5t-81.5 -70.5q-29 0 -48.5 19t-19.5 46q0 10 4.5 23t11 25.5t7.5 15.5q19 55 14 75q-17 -17 -55 -20q-8 0 -12 2q-234 -153 -234 -403q0 -131 70 -217.5 t188 -98.5q18 -2 65.5 8.5t55.5 10.5z" />
<glyph unicode="&#xa3;" horiz-adv-x="1314" d="M133 -172q-32 0 -58 24t-26 58q0 36 105.5 288t216.5 484q-129 -37 -174 -37q-36 0 -57 18t-21 52q0 24 27 48t73.5 44t88 35t92.5 30.5t65 20.5q82 169 252 434q60 89 176 186q36 36 91 61t101 25q65 0 117.5 -45.5t52.5 -109.5q0 -30 -19 -50t-48 -20q-22 0 -42.5 15 t-27.5 24.5t-26 36.5q-103 -31 -213.5 -166.5t-176.5 -314.5q142 46 290 82t202 36q30 0 51 -12t21 -35q0 -75 -156 -122q-438 -128 -516 -160q-55 -95 -138 -288.5t-116 -289.5q50 14 226 57t259 62q314 80 359 80q37 0 57.5 -20.5t20.5 -49.5q0 -25 -20 -47.5t-52.5 -37 t-64.5 -24t-64 -14.5q-58 -14 -170 -32.5t-158 -28.5q-138 -28 -229 -59q-176 -55 -283 -177q-11 -22 -38 -41.5t-50 -19.5z" />
<glyph unicode="&#xa4;" horiz-adv-x="1239" d="M1128 1243q32 -3 48 -22t14 -45q-2 -21 -16 -40.5t-37 -29.5q-30 -15 -75.5 -36t-68 -32t-51.5 -27.5t-48 -34t-36 -40.5q25 -77 37 -158q13 -130 -31 -231q80 -19 195 -68q52 -18 49 -61q-2 -28 -26 -49.5t-56 -20.5q-18 2 -37.5 7.5t-43.5 14.5t-38 13q-98 21 -116 23 q-4 0 -12 1t-11 1q-55 -52 -125 -86q-50 -24 -92 -27q-112 -9 -186 84q-73 -35 -112 -61.5t-67 -69.5q-21 -34 -57 -31q-37 4 -59.5 30.5t-20.5 61.5q3 44 51 80q115 77 203 125q-1 5 -2 15.5t-2 15.5q-5 44 2 110q17 125 84 246q-11 3 -33 11.5t-35 11.5q-89 19 -116 22 q-56 6 -79 22.5t-20 47.5q2 34 36 59.5t75 22.5q89 -9 254 -78q7 11 14 33q7 49 42 81t85 35q30 3 68 -6q62 -26 108 -84q259 171 344 164zM588 453q95 53 131 141q31 95 22 174q-8 103 -79 229q-10 -5 -18 -7l-7 -3l-23 -18q-153 -160 -159 -377v-25h10q32 -3 47.5 -21.5 t13.5 -45.5q-4 -29 -24 -49q18 -14 39 -11q8 0 47 13z" />
<glyph unicode="&#xa5;" horiz-adv-x="784" d="M883 1608q0 -24 -17 -58q-16 -38 -59.5 -140t-62.5 -146.5t-55.5 -132.5t-59.5 -145t-52.5 -132.5t-54.5 -144.5q96 0 137 -2h31q68 -7 78 -58q6 -17 4 -24q-3 -18 -20.5 -34t-44.5 -22q-23 -5 -105 -10q-39 2 -133 2q-44 -131 -66 -207q126 0 179 -2q20 0 30 -2 q68 -3 78 -57q5 -16 4 -23q-7 -41 -65 -57q-47 -8 -105 -8q-75 3 -166 0q-6 -21 -67 -266q-9 -66 -37.5 -104t-73.5 -38q-71 0 -71 68q0 29 18 88q36 119 70 252q-64 0 -93 2q-58 7 -71 51q-5 14 -2 31q3 33 47 51q34 9 74 12h84q41 148 59 207q-43 0 -113 4q-57 3 -71 49 q-5 14 -2 31q3 33 47 51q37 13 73 13h72q-117 266 -154 426q-1 3 -3.5 17t-4.5 26t-2 16q0 50 15.5 69t56.5 19q26 0 44.5 -14.5t22.5 -44.5q23 -136 136 -359q10 23 22.5 55t18.5 44q28 66 79 186t93 218.5t80 186.5q28 58 52 84.5t56 26.5q30 0 50 -14.5t20 -40.5z" />
<glyph unicode="&#xa6;" horiz-adv-x="344" d="M188 662q-36 -3 -59.5 19.5t-28.5 61.5t2 97q30 401 43 553q19 87 76 92q33 3 53.5 -15t20.5 -45q0 -32 -15 -154.5t-20 -232.5q-2 -72 -2 -215v-12q0 -11 4.5 -30t5.5 -29q2 -37 -19 -62t-61 -28zM139 -330q-36 -3 -59.5 20t-28.5 62t2 96q30 401 43 553q19 88 76 93 q33 3 53.5 -15t20.5 -45q0 -32 -15 -154.5t-20 -232.5q-2 -72 -2 -215v-12q0 -11 4.5 -30.5t5.5 -29.5q2 -37 -19 -62t-61 -28z" />
<glyph unicode="&#xa7;" horiz-adv-x="1007" d="M934 1305q3 -27 -17.5 -49t-50.5 -25q-37 -3 -75 35q-5 6 -18.5 28t-25.5 35.5t-44 24t-78 6.5q-127 -9 -117 -162q2 -25 18.5 -52t30 -41t43.5 -42q34 -33 81.5 -74t64.5 -58t36 -47t31 -69q5 -18 8 -41q6 -65 -28 -147q-95 -191 -258 -258q34 -47 51 -76q17 -24 32 -72 q11 -59 9 -96q-6 -82 -59 -144t-132 -81q-57 -16 -137 0q-164 41 -266 155q-17 17 -29 58q-17 72 31 123q22 24 51 36q24 3 41 -6q29 -10 39 -41q0 -27 -2 -32q-8 -19 -4 -46q11 -22 47 -47q87 -49 125 -59q42 -9 67 -4q31 8 51 33t21 63q-4 40 -10 53q-3 19 -15 35 q-52 87 -108 160q-71 43 -90 119q-9 10 -24 27.5t-28 32t-24 28.5q-29 33 -47 90q-27 96 41 199q88 131 211 194q-22 40 -33 76q-2 8 -4 24t-2 19q-10 126 72.5 217t210.5 102q131 11 218.5 -53.5t94.5 -150.5zM463 492q55 5 125 96.5t61 161.5q-3 28 -11 49t-25.5 40.5 t-32.5 32.5t-46.5 37.5t-52.5 42.5q-14 14 -16 17q-108 -58 -174 -168q-28 -55 -17 -90q6 -14 21 -37l42 -48t49 -56.5t38 -49.5l22 -31q8 0 17 3z" />
<glyph unicode="&#xa8;" horiz-adv-x="518" d="M420 1059q-47 0 -82 30.5t-35 73.5q0 45 30.5 78t72.5 33q44 0 78 -37.5t34 -83.5q0 -40 -28 -67t-70 -27zM66 995q-41 0 -66 26.5t-25 68.5q0 57 29 92t78 35q47 0 85 -32t38 -73q0 -40 -45 -78.5t-94 -38.5z" />
<glyph unicode="&#xa9;" horiz-adv-x="1335" d="M557 102q-92 0 -181 34.5t-162 96.5t-118.5 160.5t-46.5 216.5q-3 341 185 549.5t511 239.5q14 2 58 2q84 0 123 -27q330 -214 356 -497q4 -23 4 -66q0 -12 -2 -37.5t-2 -40.5q-13 -181 -115 -305q-128 -148 -288.5 -237t-321.5 -89zM532 223q192 0 325.5 81t248.5 233 q47 68 59 137q1 13 3.5 40t3 40.5t-0.5 38.5q3 14 -2 59q-9 129 -86 252q-29 45 -75 75t-87.5 42t-97 29.5t-90.5 35.5q-8 2 -18 2q-2 -1 -9 -2t-10 -2q-263 -60 -398.5 -232t-133.5 -417q0 -1 6 -86q6 -108 74 -182q134 -144 288 -144zM700 358q-162 0 -273.5 100 t-111.5 236q0 119 72 230t193 170q88 36 147 36q57 0 92 -30.5t35 -79.5q0 -47 -31.5 -100.5t-72.5 -53.5q-26 0 -43 14t-17 35q0 7 4 16.5t10 20.5l7 11q26 67 0 67q-256 -117 -256 -325q0 -99 62.5 -164t166.5 -74q15 -1 58 6.5t51 7.5q24 0 39.5 -13t15.5 -32 q0 -33 -45 -55.5t-103 -22.5z" />
<glyph unicode="&#xaa;" d="M469 1141q71 0 119.5 -53t48.5 -119q0 -52 -19 -154q-39 -265 -43 -297q-5 -42 -12.5 -98.5t-11.5 -86t-8.5 -79.5t-3.5 -80t4 -86q0 -7 1 -20.5t1 -20.5q0 -31 -20.5 -47t-47.5 -18q-54 0 -74 41t-20 129q-95 -95 -199 -95q-74 0 -116.5 61.5t-42.5 153.5q0 172 180 359 q39 44 118 121.5t99 97.5q25 23 43 53.5t18 54.5q0 20 -10.5 33t-19.5 13q-48 0 -129.5 -67t-98.5 -124q-10 -43 -63 -43q-62 0 -62 76q0 67 80.5 144.5t177.5 125.5q55 25 111 25zM332 307q60 102 91 186.5t42 213.5q-98 -77 -240 -289q-26 -42 -40.5 -85.5t-14.5 -62.5 q0 -61 35 -61q28 -1 64.5 28t62.5 70z" />
<glyph unicode="&#xab;" horiz-adv-x="1269" d="M725 1278q43 0 64.5 -18.5t11.5 -40.5q-9 -42 -53 -86q-182 -174 -261 -242q-39 -32 -127.5 -103.5t-140.5 -115.5q102 -102 123 -121q40 -40 115 -110.5t104 -98.5q42 -37 60 -66.5t14 -68.5q-3 -22 -22.5 -35.5t-51.5 -13.5q-57 0 -69 47q-4 19 -19.5 41.5t-47 52 t-51.5 46.5t-66 53.5t-58 45.5q-133 108 -180 185q-21 26 -21 55q0 44 49 82q278 225 404 332q27 23 70.5 66t62.5 61q40 53 90 53zM1167 1278q43 0 64.5 -18.5t11.5 -40.5q-9 -42 -53 -86q-192 -183 -260 -242q-39 -32 -127.5 -103.5t-140.5 -115.5q111 -111 122 -121 q40 -40 115 -110t105 -99q42 -37 59.5 -66.5t13.5 -68.5q-3 -22 -22 -35.5t-51 -13.5q-58 0 -70 47q-4 19 -19.5 41.5t-47 52t-51.5 46.5t-66 53.5t-58 45.5q-133 108 -180 185q-20 25 -20 55q0 44 49 82q255 207 403 332q27 23 70.5 66t62.5 61q40 53 90 53z" />
<glyph unicode="&#xac;" horiz-adv-x="1245" d="M1192 676q4 -24 4 -41q0 -8 -1 -23.5t-1 -23.5l-18 -199q-3 -17 -13 -47.5t-12 -38.5q-27 -45 -68 -45t-59 22t-16 56l16 158l12 92q-62 -6 -162.5 -18.5t-181.5 -18.5q-86 -5 -198 -15.5t-179 -15.5q-19 -1 -82.5 -4.5t-97.5 -3.5q-39 0 -62.5 19t-23.5 49 q0 23 20.5 41.5t55.5 25.5q9 3 63 8q178 14 424.5 44t411.5 44q58 4 82 4q83 0 86 -69z" />
<glyph unicode="&#xad;" horiz-adv-x="591" d="M127 610q-32 0 -55 17t-23 49q0 35 27 52.5t82 27.5q2 0 252 41q27 6 45 6q60 0 82 -51q2 -6 2 -17q0 -25 -15 -44t-41 -23q-227 -58 -356 -58z" />
<glyph unicode="&#xae;" horiz-adv-x="1327" d="M512 102q-94 0 -180 34.5t-153 97t-103 160.5t-27 216q29 341 238 549.5t534 239.5q14 2 60 2q82 0 118 -27q312 -211 312 -497q0 -43 -4 -66q-2 -25 -13 -78q-29 -180 -143 -305q-142 -148 -310.5 -237t-328.5 -89zM496 221q28 0 82 8q308 56 524 308q50 63 69 137 q2 10 11 54t10 67q2 16 2 57q0 141 -61 252q-21 37 -52 63t-67 40.5t-71 25t-76 24t-70 29.5q-6 4 -15 4q-2 -2 -20 -6q-270 -60 -420.5 -232t-171.5 -417q0 -1 -3 -35t-3 -51q0 -117 57 -184q124 -144 275 -144zM500 236q-28 0 -45 18t-17 41q0 25 2.5 67.5l3.5 59.5 q25 343 41 506q-41 3 -41 45q0 29 52 67.5t130.5 66.5t143.5 28q84 0 127 -42.5t43 -103.5q0 -25 -10 -54t-33.5 -63.5t-43 -61t-59 -68.5t-59.5 -63t-67 -67t-60 -59q125 -29 172 -39q32 -7 47.5 -11t36.5 -12.5t30.5 -20.5t10.5 -28q0 -21 -17 -37t-38 -12q-28 7 -80.5 24 t-87.5 25q-103 20 -135 23q-4 -41 -4 -121q0 -70 -8 -80q-2 -2 -6.5 -8.5t-6 -8.5t-5.5 -5.5t-8 -4.5t-9 -1zM555 633q88 70 184.5 184.5t96.5 165.5q0 29 -21.5 44.5t-46.5 12.5q-101 -10 -188 -79q-14 -212 -25 -328z" />
<glyph unicode="&#xaf;" horiz-adv-x="708" d="M182 1358q-33 -2 -57 13t-27 46q-3 35 22.5 54t80.5 34q177 45 245 64q14 5 46 10q58 6 86 -45q4 -8 4 -14q2 -25 -12 -46t-38 -28q-226 -77 -350 -88z" />
<glyph unicode="&#xb0;" horiz-adv-x="665" d="M238 788q-31 0 -58 9q-131 46 -131 231q0 248 174 459q84 98 191 98q13 0 45 -4q82 -18 116 -50.5t41 -107.5v-57q-23 -304 -208 -489q-44 -42 -84 -65.5t-86 -23.5zM231 954q90 54 150.5 166.5t60.5 216.5q0 63 -24 107q-24 -8 -44.5 -22.5t-32 -25.5t-27 -37.5t-19 -35 t-18.5 -42.5q-3 -7 -5 -11q-20 -48 -29.5 -73t-19.5 -67t-10 -77q0 -47 18 -99z" />
<glyph unicode="&#xb1;" horiz-adv-x="1095" d="M575 403q-32 -3 -55.5 16t-32.5 54q-4 19 -4 80v256l-262 -41q-67 -10 -84 -10q-19 0 -43.5 12t-34.5 27q-10 10 -10 26q0 33 35 51q25 16 88 29q204 40 315 60q5 165 5 182q2 16 2 47q0 68 19.5 99.5t61.5 31.5q63 -3 72 -86q2 -23 2 -70v-67q0 -12 1 -41t1 -49 q37 6 107.5 20t105.5 19q62 9 121 6q25 -2 43.5 -16.5t18.5 -34.5q0 -22 -12 -45t-29 -35q-10 -6 -25.5 -10.5t-35.5 -8.5t-32 -8q-42 -8 -128 -23t-132 -24v-293q0 -51 -2 -78q-6 -64 -76 -76zM348 45q-59 -3 -78 39q-8 13 -8 31q0 33 39 57q42 18 72 23q47 6 201 31 t225 32q24 4 30 4q69 4 86 -45q7 -21 7 -22q0 -19 -15 -37.5t-41 -28.5q-44 -15 -102 -25q-58 -6 -204.5 -30t-211.5 -29z" />
<glyph unicode="&#xb2;" horiz-adv-x="587" d="M49 608q-20 0 -34.5 12t-14.5 29q4 42 20 60q122 200 310 501q73 119 93.5 158.5t20.5 65.5q2 11 -3.5 17t-26.5 7q-51 3 -118.5 -27.5t-109.5 -72.5q-25 -28 -47 -25q-20 0 -30.5 11.5t-10.5 29.5q5 19 13 29q29 57 147.5 109t200.5 47q51 -3 79 -31.5t25 -73.5 q-3 -72 -49 -139q-196 -288 -295 -473l215 32q7 1 30 5.5t36 3.5q22 -3 32.5 -16t8.5 -29q0 -34 -88 -54q-42 -10 -113.5 -22.5t-134.5 -32.5q-80 -30 -103 -82q-5 -14 -21 -27t-32 -12z" />
<glyph unicode="&#xb3;" horiz-adv-x="643" d="M436 1214q72 0 115 -34t43 -90q0 -53 -38 -117t-91 -113q-105 -100 -279 -192q-52 -27 -90 -27q-30 0 -54.5 17t-33.5 44q-8 24 -8 54q0 45 26 85t60 40q17 0 29 -13t12 -30q0 -7 -4 -38t-2 -55q105 49 185.5 107.5t144.5 140.5q38 59 38 94q0 33 -45 33q-57 0 -125 -20 q-27 -7 -75.5 -29t-61.5 -27q-17 -10 -32 -10q-19 0 -34.5 13.5t-15.5 31.5q0 8 4.5 19t17 28t22.5 30t33 41.5t36 45.5q16 22 66 76q53 61 69 78l-123 -21q-4 0 -28 -4t-39 -4q-41 0 -41 37q0 14 11 24.5t19.5 13.5t28.5 9q61 20 177.5 47t148.5 27q22 0 36.5 -12t14.5 -31 q0 -30 -29 -56q-24 -25 -75.5 -75.5t-77.5 -77.5q-14 -13 -64 -70q55 10 129 10z" />
<glyph unicode="&#xb4;" horiz-adv-x="542" d="M119 1042q-36 4 -59 30.5t-21 62.5q3 43 51 79q276 186 365 179q32 -3 47.5 -22t13.5 -46q-2 -21 -16 -40.5t-37 -29.5q-31 -16 -78.5 -37.5t-70.5 -33t-52.5 -29.5t-49 -37t-36.5 -45q-21 -34 -57 -31z" />
<glyph unicode="&#xb5;" horiz-adv-x="765" d="M717 1329q0 -23 -2 -31q-73 -251 -86 -700q1 -13 9 -63.5t9 -75.5q0 -40 -18.5 -63.5t-48.5 -26.5q-26 -1 -44 9t-27.5 31t-13.5 37.5t-8 45.5q-103 -68 -165 -74q-57 -6 -99 14q-16 -243 -16 -438q0 -88 4 -131q10 -86 -72 -92q-29 -3 -50.5 16.5t-31.5 50.5 q-8 39 -7.5 139.5t7.5 202.5q29 482 93 873q8 48 14.5 77.5t22.5 62.5t38 42q13 10 27 10q31 6 56 -14.5t28 -52.5q6 -20 -4 -50q-25 -53 -44 -150.5t-24 -172.5q-2 -131 9.5 -185.5t41.5 -54.5q50 -2 104 64.5t64 148.5q10 117 72 473q3 24 6.5 40t12.5 38.5t26 35t41 13.5 q69 0 76 -49z" />
<glyph unicode="&#xb6;" horiz-adv-x="978" d="M928 1268q8 -171 -14.5 -517t-43.5 -507q-17 -112 -32 -145q-24 -51 -74 -52q-40 -2 -59 21.5t-13 68.5q0 7 1 21t1 22q17 76 25 119q4 33 18 215q12 134 18.5 281.5t10.5 285.5t6 185q-30 -3 -53 8q-5 -89 -13 -203t-10 -153q-12 -130 -28.5 -333t-29 -328.5 t-30.5 -244.5q-6 -32 -28 -52t-56 -21q-44 -3 -64 19.5t-18 59t7 78.5l12 68q30 216 33 328q-88 39 -196 180.5t-178 309t-54 269.5q14 90 85.5 154.5t180.5 73.5q125 9 260.5 -20.5t198.5 -78.5q17 20 51 23q21 1 36 -6t24 -17.5t14.5 -29.5t8 -37t3.5 -45zM518 694 q23 267 37 611q-93 35 -227 26q-43 -3 -65.5 -24.5t-29.5 -67.5q-9 -73 34.5 -190t115 -219.5t135.5 -135.5z" />
<glyph unicode="&#xb7;" horiz-adv-x="319" d="M168 526q-49 -10 -94 39q-25 28 -25 58q0 22 12 43q37 69 136 69q31 0 52 -24.5t21 -59.5t-33 -77t-69 -48z" />
<glyph unicode="&#xb8;" horiz-adv-x="884" d="M293 -180q-66 0 -110 50t-44 103q0 26 17.5 41t50.5 15q20 0 33.5 -7t20 -14t18.5 -26t20 -29q136 17 239 71.5t103 100.5q0 10 -3 17.5t-10.5 12t-12.5 7t-18.5 3.5t-19.5 1h-23h-3.5h-3.5h-4q-27 0 -70.5 -12.5t-62.5 -12.5q-30 0 -41 13.5t-11 44.5q0 10 6 44t7 44 q4 23 11 44t11 46q8 37 26.5 56.5t55.5 19.5q45 0 45 -47q0 -23 -1 -34.5t-4.5 -33.5t-6.5 -41h49q100 -6 163.5 -51.5t63.5 -112.5q0 -63 -98 -156q-68 -59 -173.5 -108t-219.5 -49z" />
<glyph unicode="&#xb9;" horiz-adv-x="481" d="M102 598q-22 0 -37.5 11.5t-15.5 29.5q0 26 33 39q20 8 43.5 24t34.5 21l78 620l-35 -12q-16 -4 -21 -4q-16 0 -35 16q-8 11 -8 25q-3 11 8 25q6 7 17.5 18.5t17.5 18.5l90 114q25 29 45 29q9 0 21 -6q35 -11 35 -49q1 -15 -1.5 -30.5t-6.5 -33.5t-5 -29 q-21 -117 -44.5 -299.5t-32.5 -298.5q-1 -8 -2 -25t-2 -26q93 37 110 37q20 0 31.5 -13.5t11.5 -29.5q3 -25 -51 -55q-26 -12 -68 -33t-67 -33t-55 -25.5t-51.5 -19.5t-37.5 -6z" />
<glyph unicode="&#xba;" horiz-adv-x="673" d="M279 92q-65 -5 -120 26.5t-89 92.5q-31 44 -43 131q-5 45 2 111q27 184 145 335q26 33 35 62q8 50 43 82t84 35q30 3 67 -6q63 -26 109 -84q85 -110 111 -302q20 -210 -103 -344q-56 -65 -149 -112q-50 -24 -92 -27zM268 238q11 0 47 12q95 53 131 141q32 97 23 174 q-8 103 -80 230q-10 -5 -17 -8l-7 -3l-23 -18q-154 -161 -160 -377v-29q1 -8 17 -71q27 -56 69 -51z" />
<glyph unicode="&#xbb;" horiz-adv-x="1269" d="M78 158q-43 0 -64.5 18.5t-11.5 40.5q9 42 53 86q192 183 260 242q39 32 128 104t141 115q-102 101 -123 121q-40 40 -115 110.5t-104 98.5q-42 37 -60 66.5t-14 68.5q3 22 22.5 35.5t51.5 13.5q57 0 69 -47q4 -19 19 -41.5t47.5 -52.5t51 -46t67 -54.5t57.5 -45.5 q65 -53 108 -95t72 -89q21 -26 21 -55q0 -44 -49 -82q-278 -225 -404 -332q-27 -23 -70.5 -66t-62.5 -61q-40 -53 -90 -53zM545 158q-43 0 -64.5 18.5t-11.5 40.5q9 42 53 86q192 183 260 242q39 32 128 104t141 115q-102 101 -123 121q-40 40 -115 110.5t-104 98.5 q-42 37 -60 66.5t-14 68.5q3 22 22.5 35.5t51.5 13.5q57 0 69 -47q4 -19 19 -41.5t47.5 -52.5t51 -46t67 -54.5t57.5 -45.5q65 -53 108 -95t72 -89q21 -26 21 -55q0 -43 -50 -82q-255 -207 -403 -332q-27 -23 -70.5 -66t-62.5 -61q-40 -53 -90 -53z" />
<glyph unicode="&#xbc;" horiz-adv-x="1286" d="M373 -199q-27 0 -40.5 20.5t-13.5 53.5q0 26 21 121l274 1042q7 24 34 124.5t39 145.5t27 113.5t21 112.5v16q4 23 21.5 37.5t36.5 14.5q53 0 53 -86q0 -23 -25 -113q-27 -110 -59 -234.5t-70.5 -273.5t-60.5 -233q-19 -76 -56.5 -217t-67 -259t-56.5 -245 q-2 -8 -9 -47.5t-14 -55.5q-16 -37 -55 -37zM102 598q-22 0 -37.5 11.5t-15.5 29.5q0 26 33 39q20 8 43.5 24t34.5 21l78 620l-35 -12q-16 -4 -21 -4q-16 0 -35 16q-8 11 -8 25q-3 11 8 25q6 7 17.5 18.5t17.5 18.5l90 114q25 29 45 29q9 0 21 -6q35 -11 35 -49 q1 -15 -1.5 -30.5t-6.5 -33.5t-5 -29q-21 -117 -44.5 -299.5t-32.5 -298.5q-1 -8 -2 -25t-2 -26q93 37 110 37q20 0 31.5 -13.5t11.5 -29.5q3 -25 -51 -55q-26 -12 -68 -33t-67 -33t-55 -25.5t-51.5 -19.5t-37.5 -6zM999 -39q-47 0 -53 68q-5 75 66 497q-147 -57 -174 -57 q-28 0 -49.5 16.5t-22.5 40.5q-1 8 10 62q28 84 68 186q8 25 51 133q17 49 51 49q11 0 17 -2q22 -10 26 -36q2 -13 -6 -37l-84 -238q-12 -35 -16 -68q26 11 86 34t80 32q10 38 21 100.5t13 71.5q5 21 9.5 32.5t17 21.5t31.5 10q33 0 41 -31q0 -33 -4 -45q0 -2 -10 -51.5 t-17 -75.5q58 22 98 41q6 2 16 9t20 11t22 4q20 0 33.5 -14t15.5 -27q0 -18 -18 -35.5t-42 -27.5q-160 -72 -174 -82q-5 -25 -17.5 -93t-17 -95.5t-12.5 -79t-12.5 -95.5t-7.5 -94q-2 -65 -13 -100t-43 -35z" />
<glyph unicode="&#xbd;" horiz-adv-x="1263" d="M373 -199q-27 0 -40.5 20.5t-13.5 53.5q0 26 21 121l274 1042q7 24 34 124.5t39 145.5t27 113.5t21 112.5v16q4 23 21.5 37.5t36.5 14.5q53 0 53 -86q0 -23 -25 -113q-27 -110 -59 -234.5t-70.5 -273.5t-60.5 -233q-19 -76 -56.5 -217t-67 -259t-56.5 -245 q-2 -8 -9 -47.5t-14 -55.5q-16 -37 -55 -37zM102 598q-22 0 -37.5 11.5t-15.5 29.5q0 26 33 39q20 8 43.5 24t34.5 21l78 620l-35 -12q-16 -4 -21 -4q-16 0 -35 16q-8 11 -8 25q-3 11 8 25q6 7 17.5 18.5t17.5 18.5l90 114q25 29 45 29q9 0 21 -6q35 -11 35 -49 q1 -15 -1.5 -30.5t-6.5 -33.5t-5 -29q-21 -117 -44.5 -299.5t-32.5 -298.5q-1 -8 -2 -25t-2 -26q93 37 110 37q20 0 31.5 -13.5t11.5 -29.5q3 -25 -51 -55q-26 -12 -68 -33t-67 -33t-55 -25.5t-51.5 -19.5t-37.5 -6zM725 -203q-20 0 -34.5 12t-14.5 29q4 42 20 60 q122 200 310 501q73 119 93.5 158.5t20.5 65.5q2 11 -3.5 17t-26.5 7q-51 3 -118.5 -27.5t-109.5 -72.5q-25 -28 -47 -25q-20 0 -30.5 11.5t-10.5 29.5q5 20 12 29q29 57 148 109t201 47q51 -3 79 -31.5t25 -73.5q-3 -72 -49 -139q-196 -288 -295 -473l215 32q7 1 30 5.5 t36 3.5q22 -3 32.5 -16t8.5 -29q0 -34 -89 -54q-42 -10 -113 -22.5t-134 -32.5q-80 -30 -103 -82q-5 -14 -21 -27t-32 -12z" />
<glyph unicode="&#xbe;" horiz-adv-x="1374" d="M934 1516q0 -23 -25 -113q-27 -110 -59 -234.5t-70.5 -273.5t-60.5 -233q-19 -76 -56.5 -217t-67 -259t-56.5 -245q-2 -8 -9 -47.5t-14 -55.5q-16 -37 -55 -37q-26 0 -39.5 20.5t-13.5 53.5q0 31 20 121l274 1042q7 24 34 124.5t39 145.5t27 113.5t21 112.5v16 q4 23 21.5 37.5t36.5 14.5q53 0 53 -86zM594 1090q0 -53 -38 -117t-91 -113q-105 -100 -279 -192q-52 -27 -90 -27q-30 0 -54.5 17t-33.5 44q-8 24 -8 54q0 45 26 85t60 40q17 0 29 -13t12 -30q0 -7 -4 -38t-2 -55q105 49 185.5 107.5t144.5 140.5q38 59 38 94q0 33 -45 33 q-57 0 -125 -20q-27 -7 -75.5 -29t-61.5 -27q-17 -10 -32 -10q-19 0 -34.5 13.5t-15.5 31.5q0 8 4.5 19t17 28t22.5 30t33 41.5t36 45.5q16 22 66 76q53 61 69 78l-123 -21q-4 0 -28 -4t-39 -4q-41 0 -41 37q0 14 11 24.5t19.5 13.5t28.5 9q61 20 177.5 47t148.5 27 q22 0 36.5 -12t14.5 -31q0 -30 -29 -56q-24 -25 -75.5 -75.5t-77.5 -77.5q-14 -13 -64 -70q55 10 129 10q72 0 115 -34t43 -90zM1395 739q20 0 33.5 -14t15.5 -27q0 -18 -18 -35.5t-42 -27.5q-160 -72 -174 -82q-5 -25 -17.5 -93t-17 -95.5t-12.5 -79t-12.5 -95.5t-7.5 -94 q-2 -65 -13 -100t-43 -35q-47 0 -53 68q-5 75 66 497q-147 -57 -174 -57q-28 0 -49.5 16.5t-22.5 40.5q-1 8 10 62q28 84 68 186q8 25 51 133q17 49 51 49q11 0 17 -2q22 -10 26 -36q2 -13 -6 -37l-84 -238q-12 -35 -16 -68q26 11 86 34t80 32q10 38 21 100.5t13 71.5 q5 21 9.5 32.5t17 21.5t31.5 10q33 0 41 -31q0 -33 -4 -45q0 -2 -10 -51.5t-17 -75.5q58 22 98 41q6 2 16 9t20 11t22 4z" />
<glyph unicode="&#xbf;" horiz-adv-x="858" d="M690 1434q43 9 81 -25.5t38 -71.5q0 -46 -43 -79t-104 -33q-31 0 -52.5 24.5t-21.5 59.5t33 77t69 48zM635 1040q38 0 73 -38.5t35 -79.5q0 -26 -30.5 -105t-50.5 -112q-25 -41 -56.5 -85.5t-70 -97t-58.5 -80.5q-18 -27 -116.5 -177t-149.5 -232q-58 -93 -53 -193 q18 10 54.5 27.5t53.5 28.5q122 90 200 163t144 177q2 3 7.5 12t7.5 11.5t7 9t8.5 8.5t9.5 5.5t12 5t14.5 2.5t19.5 1q28 0 46 -18t18 -44q0 -16 -2.5 -23t-11 -19.5t-15.5 -24.5q-194 -254 -399 -387q-42 -31 -94.5 -52.5t-94.5 -21.5q-57 0 -97 35t-46 92q0 86 37 182 t92 178q48 79 151.5 226t118.5 170q109 165 156 245q25 36 25 72q0 21 -9.5 43t-9.5 31q0 29 24 47t50 18z" />
<glyph unicode="&#xc0;" horiz-adv-x="786" d="M246 1583q-57 6 -79.5 21.5t-19.5 44.5q2 32 36 56t75 21q95 -9 256 -73q25 -7 38 -23.5t11 -34.5q-2 -26 -26 -47t-56 -20q-18 2 -37.5 7.5t-43.5 14.5t-38 13q-9 1 -51 9.5t-65 10.5zM705 225q0 -5 4 -18t4 -19q0 -35 -24.5 -56t-63.5 -21q-18 0 -32 8t-22 17.5 t-14.5 29t-9 31t-6.5 34.5q-7 41 -16.5 136t-20.5 151q-80 -22 -156.5 -68t-130.5 -100q-16 -39 -37.5 -153.5t-29.5 -194.5q-9 -65 -76 -65q-71 0 -74 77q0 46 4 66q52 239 81 364t84 323t114 363q36 100 94 240q21 45 43.5 65.5t54.5 20.5q47 0 78 -29.5t37 -83.5 q6 -44 10 -86.5t8 -101.5t6 -88q4 -61 14.5 -187.5t12.5 -152.5q35 -8 35 -57q0 -34 -23 -92q-2 -69 23 -196.5t29 -156.5zM279 578q20 11 94.5 46.5t107.5 53.5q-4 148 -24 496q-50 -85 -105 -274t-73 -322z" />
<glyph unicode="&#xc1;" horiz-adv-x="786" d="M717 1810q32 -3 47.5 -20.5t13.5 -42.5q-2 -21 -16 -39.5t-37 -28.5q-31 -15 -94 -42.5t-86 -39t-55 -36t-52 -54.5q-19 -31 -57 -28q-36 3 -59 27.5t-21 58.5q3 44 51 75q271 177 365 170zM653 578q-2 -69 23 -196.5t29 -156.5q0 -5 4 -18t4 -19q0 -35 -24.5 -56 t-63.5 -21q-18 0 -32 8t-22 17.5t-14.5 29t-9 31t-6.5 34.5q-7 41 -16.5 136t-20.5 151q-80 -22 -156.5 -68t-130.5 -100q-16 -39 -37.5 -153.5t-29.5 -194.5q-9 -65 -76 -65q-71 0 -74 77q0 46 4 66q52 239 81 364t84 323t114 363q36 100 94 240q21 45 43.5 65.5t54.5 20.5 q47 0 78 -29.5t37 -83.5q6 -44 10 -86.5t8 -101.5t6 -88q4 -61 14.5 -187.5t12.5 -152.5q35 -8 35 -57q0 -34 -23 -92zM279 578q20 11 94.5 46.5t107.5 53.5q-4 148 -24 496q-50 -85 -105 -274t-73 -322z" />
<glyph unicode="&#xc2;" horiz-adv-x="786" d="M723 1632q31 -53 31 -88q0 -24 -15.5 -41.5t-40.5 -23.5q-6 -4 -22 -4h-6q-38 0 -58 28q-1 3 -18 47q-17 27 -51.5 75t-40.5 58l-162 -182q-24 -31 -56 -55.5t-59 -24.5q-24 0 -41.5 15.5t-17.5 36.5q0 20 28 59t64.5 80t86.5 100t81 103q45 61 94 61q44 0 78 -55 q16 -27 61 -90t64 -99zM653 578q-2 -69 23 -196.5t29 -156.5q0 -5 4 -18t4 -19q0 -35 -24.5 -56t-63.5 -21q-18 0 -32 8t-22 17.5t-14.5 29t-9 31t-6.5 34.5q-7 41 -16.5 136t-20.5 151q-80 -22 -156.5 -68t-130.5 -100q-16 -39 -37.5 -153.5t-29.5 -194.5q-9 -65 -76 -65 q-71 0 -74 77q0 46 4 66q52 239 81 364t84 323t114 363q36 100 94 240q21 45 43.5 65.5t54.5 20.5q47 0 78 -29.5t37 -83.5q6 -44 10 -86.5t8 -101.5t6 -88q4 -61 14.5 -187.5t12.5 -152.5q35 -8 35 -57q0 -34 -23 -92zM279 578q20 11 94.5 46.5t107.5 53.5q-4 148 -24 496 q-50 -85 -105 -274t-73 -322z" />
<glyph unicode="&#xc3;" horiz-adv-x="786" d="M713 1778q30 0 54.5 -18.5t23.5 -43.5q-11 -77 -82.5 -140t-149.5 -63q-41 0 -94 23.5t-94 46.5t-52 23q-12 0 -23.5 -5.5t-18 -11t-20 -18.5t-17.5 -17q-8 -9 -18 -21.5t-15 -18t-13.5 -9.5t-21.5 -4q-17 0 -33 23t-16 43q0 41 74.5 105.5t121.5 64.5q53 0 117.5 -42 t110.5 -42q36 0 59 11.5t43 45.5q6 9 15.5 27t13.5 23.5t13 11.5t22 6zM653 578q-2 -69 23 -196.5t29 -156.5q0 -5 4 -18t4 -19q0 -35 -24.5 -56t-63.5 -21q-18 0 -32 8t-22 17.5t-14.5 29t-9 31t-6.5 34.5q-7 41 -16.5 136t-20.5 151q-80 -22 -156.5 -68t-130.5 -100 q-16 -39 -37.5 -153.5t-29.5 -194.5q-9 -65 -76 -65q-71 0 -74 77q0 46 4 66q52 239 81 364t84 323t114 363q36 100 94 240q21 45 43.5 65.5t54.5 20.5q47 0 78 -29.5t37 -83.5q6 -44 10 -86.5t8 -101.5t6 -88q4 -61 14.5 -187.5t12.5 -152.5q35 -8 35 -57q0 -34 -23 -92z M279 578q20 11 94.5 46.5t107.5 53.5q-4 148 -24 496q-50 -85 -105 -274t-73 -322z" />
<glyph unicode="&#xc4;" horiz-adv-x="786" d="M629 1755q44 0 78 -36t34 -79q0 -38 -28 -64t-70 -26q-47 0 -82 30t-35 71q0 42 30.5 73t72.5 31zM289 1491q-41 0 -65.5 24.5t-24.5 63.5q0 56 28.5 88.5t77.5 32.5q48 0 85.5 -29.5t37.5 -68.5t-45 -75t-94 -36zM653 578q-2 -69 23 -196.5t29 -156.5q0 -5 4 -18t4 -19 q0 -35 -24.5 -56t-63.5 -21q-18 0 -32 8t-22 17.5t-14.5 29t-9 31t-6.5 34.5q-7 41 -16.5 136t-20.5 151q-80 -22 -156.5 -68t-130.5 -100q-16 -39 -37.5 -153.5t-29.5 -194.5q-9 -65 -76 -65q-71 0 -74 77q0 46 4 66q52 239 81 364t84 323t114 363q36 100 94 240 q21 45 43.5 65.5t54.5 20.5q47 0 78 -29.5t37 -83.5q6 -44 10 -86.5t8 -101.5t6 -88q4 -61 14.5 -187.5t12.5 -152.5q35 -8 35 -57q0 -34 -23 -92zM279 578q20 11 94.5 46.5t107.5 53.5q-4 148 -24 496q-50 -85 -105 -274t-73 -322z" />
<glyph unicode="&#xc5;" horiz-adv-x="786" d="M623 1864q81 0 125.5 -36t44.5 -97q0 -57 -62 -119q-133 -131 -354 -144q-79 0 -119.5 39.5t-40.5 100.5q0 79 72 131q149 125 334 125zM410 1599q64 0 136 36.5t103 90.5q-32 11 -61 11q-17 0 -37 -3.5t-31 -7t-36 -12t-31 -10.5q-3 -1 -21 -9.5t-23 -11t-19 -11 t-20.5 -15.5t-14.5 -18.5t-13 -24.5q30 -15 68 -15zM653 578q-2 -69 23 -196.5t29 -156.5q0 -5 4 -18t4 -19q0 -35 -24.5 -56t-63.5 -21q-18 0 -32 8t-22 17.5t-14.5 29t-9 31t-6.5 34.5q-7 41 -16.5 136t-20.5 151q-80 -22 -156.5 -68t-130.5 -100q-16 -39 -37.5 -153.5 t-29.5 -194.5q-9 -65 -76 -65q-71 0 -74 77q0 46 4 66q52 239 81 364t84 323t114 363q36 100 94 240q21 45 43.5 65.5t54.5 20.5q47 0 78 -29.5t37 -83.5q6 -44 10 -86.5t8 -101.5t6 -88q4 -61 14.5 -187.5t12.5 -152.5q35 -8 35 -57q0 -34 -23 -92zM279 578 q20 11 94.5 46.5t107.5 53.5q-4 148 -24 496q-50 -85 -105 -274t-73 -322z" />
<glyph unicode="&#xc6;" horiz-adv-x="1224" d="M1323 1589q3 -38 -49 -69q-26 -12 -73 -29.5t-60 -22.5q-39 -15 -72.5 -29t-59 -24.5t-50 -22t-39.5 -18.5t-33 -18t-26 -15.5t-23 -16t-19.5 -14.5t-20.5 -16t-20 -16q-3 -94 -20 -375q164 79 243 109q42 22 70 24q32 2 53.5 -15.5t18.5 -43.5q4 -21 -10 -35 q-37 -47 -95 -72q-89 -40 -125 -56.5t-89.5 -46t-78.5 -52.5q5 -13 5 -39q-2 -16 -15 -51q-7 -97 -4 -179q-3 -96 10 -161q128 56 230 180q10 10 27 29t26 28.5t23.5 17.5t29.5 9q30 1 52 -23t22 -57q2 -23 -37 -88q-125 -155 -326 -258q-37 -18 -77 -21q-21 0 -31 2 q-21 -9 -49 -6q-22 3 -35.5 15t-20 36t-8.5 38t-4 46q-3 48 -1 147.5t-1 156.5q-82 -13 -164 -52.5t-141 -89.5q-21 -40 -57.5 -159.5t-51.5 -196.5q-18 -69 -84 -62q-69 9 -63 91q4 46 12 69q78 238 123 370t122.5 331.5t156.5 365.5q37 80 123 240q25 45 49.5 63t56.5 15 q65 -6 90 -64l15 8q112 62 265.5 123.5t229.5 65.5q38 2 59.5 -16t20.5 -50zM557 707q21 248 35 514l-4 2q-61 -88 -137.5 -277t-106.5 -319q1 0 88 32.5t125 47.5z" />
<glyph unicode="&#xc7;" horiz-adv-x="806" d="M616 57q101 -6 164.5 -48.5t63.5 -106.5q0 -60 -99 -148q-68 -57 -173.5 -104t-219.5 -47q-66 0 -109.5 48t-43.5 99t67 51q20 0 34 -6.5t20 -13t18 -24.5t20 -27q136 17 239 68.5t103 95.5q0 7 -1.5 12.5t-5.5 9.5t-7.5 7t-10.5 4.5t-11.5 2.5t-14.5 1.5t-14.5 0.5 h-16.5h-16q-27 0 -70.5 -11t-62.5 -11q-30 0 -40.5 12t-10.5 41q0 10 5.5 43.5t6.5 40.5q0 2 1 4.5t1 3.5q-96 6 -172 66t-120.5 153t-67.5 199.5t-23 216.5q0 141 36.5 289.5t100.5 273t161.5 204t207.5 79.5q63 0 134.5 -31.5t119 -77t47.5 -84.5q0 -31 -23 -54t-61 -23 q-18 0 -28.5 5t-25 21.5t-18.5 20.5q-4 3 -23.5 19.5t-25.5 21.5t-22 16.5t-25.5 16t-23.5 8.5t-27 4q-77 0 -144 -74t-109 -185t-65.5 -233t-23.5 -227q0 -84 15.5 -165.5t45 -153t81.5 -115t118 -43.5q36 0 70.5 20.5t65 41t57.5 20.5q22 0 36.5 -15.5t14.5 -38.5 q0 -37 -42 -77t-102 -68q0 -5 -4 -29h49z" />
<glyph unicode="&#xc8;" horiz-adv-x="765" d="M514 1479q-18 2 -37.5 7.5t-44 14t-37.5 12.5q-11 2 -52.5 10.5t-63.5 10.5q-57 6 -79.5 21t-19.5 44q2 32 36 56.5t75 21.5q95 -9 256 -73q25 -7 38 -23.5t11 -34.5q-2 -26 -26 -47t-56 -20zM180 12q-53 0 -86 29t-37 84q-11 83 -8 178q0 30 4 84q16 167 82 684 q-52 8 -49 68q2 74 197 166q119 54 273.5 104.5t229.5 50.5q39 0 60 -17.5t18 -47.5q0 -20 -15 -37.5t-38 -26.5q-25 -10 -70.5 -23t-64.5 -20q-127 -41 -202 -72t-96 -43.5t-73 -48.5q-1 -10 -39 -356q159 64 248 94q41 17 72 19q32 0 52 -17.5t17 -42.5q0 -21 -12 -33 q-37 -40 -98 -63q-239 -85 -301 -135q-21 -132 -27 -254q-7 -91 4 -154q124 46 238 160q10 9 28.5 27.5t27.5 26t24 15t30 7.5q30 0 51 -24.5t19 -55.5q0 -8 -4.5 -19.5t-9.5 -19.5t-14 -22.5t-13 -20.5q-135 -141 -338 -229q-44 -15 -80 -15z" />
<glyph unicode="&#xc9;" horiz-adv-x="765" d="M414 1427q-36 3 -59 27.5t-21 58.5q3 45 51 76q271 177 365 170q32 -3 47.5 -20.5t13.5 -42.5q-2 -21 -16 -39.5t-37 -28.5q-31 -15 -94 -42.5t-86 -39t-55 -36t-52 -54.5q-19 -32 -57 -29zM180 12q-53 0 -86 29t-37 84q-11 83 -8 178q0 30 4 84q16 167 82 684 q-52 8 -49 68q2 74 197 166q119 54 273.5 104.5t229.5 50.5q39 0 60 -17.5t18 -47.5q0 -20 -15 -37.5t-38 -26.5q-25 -10 -70.5 -23t-64.5 -20q-127 -41 -202 -72t-96 -43.5t-73 -48.5q-1 -10 -39 -356q159 64 248 94q41 17 72 19q32 0 52 -17.5t17 -42.5q0 -21 -12 -33 q-37 -40 -98 -63q-239 -85 -301 -135q-21 -132 -27 -254q-7 -91 4 -154q124 46 238 160q10 9 28.5 27.5t27.5 26t24 15t30 7.5q30 0 51 -24.5t19 -55.5q0 -8 -4.5 -19.5t-9.5 -19.5t-14 -22.5t-13 -20.5q-135 -141 -338 -229q-44 -15 -80 -15z" />
<glyph unicode="&#xca;" horiz-adv-x="765" d="M786 1460q39 0 60 -17.5t18 -47.5q0 -20 -15 -37.5t-38 -26.5q-25 -10 -70.5 -23t-64.5 -20q-127 -41 -202 -72t-96 -43.5t-73 -48.5q-1 -10 -39 -356q159 64 248 94q41 17 72 19q32 0 52 -17.5t17 -42.5q0 -21 -12 -33q-37 -40 -98 -63q-239 -85 -301 -135 q-21 -132 -27 -254q-7 -91 4 -154q124 46 238 160q10 9 28.5 27.5t27.5 26t24 15t30 7.5q30 0 51 -24.5t19 -55.5q0 -8 -4.5 -19.5t-9.5 -19.5t-14 -22.5t-13 -20.5q-135 -141 -338 -229q-44 -15 -80 -15q-53 0 -86 29t-37 84q-11 83 -8 178q0 30 4 84q16 167 82 684 q-52 8 -49 68q2 74 197 166q200 89 374 135q-6 3 -12 12q-1 3 -18 47q-17 27 -51.5 75t-40.5 58l-162 -182q-24 -31 -56 -55.5t-59 -24.5q-24 0 -41.5 15t-17.5 36q0 20 28 59t64.5 80t86.5 100t81 103q45 62 94 62q43 0 78 -56q16 -28 61 -90t64 -98q30 -52 30 -88 q0 -13 -8 -33h8z" />
<glyph unicode="&#xcb;" horiz-adv-x="765" d="M676 1499q-47 0 -82 29.5t-35 70.5q0 42 30.5 73.5t72.5 31.5q44 0 78 -36t34 -79q0 -38 -28 -64t-70 -26zM322 1440q-41 0 -66 24.5t-25 63.5q0 56 29 88.5t78 32.5q48 0 85.5 -30t37.5 -69q0 -38 -45 -74t-94 -36zM180 12q-53 0 -86 29t-37 84q-11 83 -8 178q0 30 4 84 q16 167 82 684q-52 8 -49 68q2 74 197 166q119 54 273.5 104.5t229.5 50.5q39 0 60 -17.5t18 -47.5q0 -20 -15 -37.5t-38 -26.5q-25 -10 -70.5 -23t-64.5 -20q-127 -41 -202 -72t-96 -43.5t-73 -48.5q-1 -10 -39 -356q159 64 248 94q41 17 72 19q32 0 52 -17.5t17 -42.5 q0 -21 -12 -33q-37 -40 -98 -63q-239 -85 -301 -135q-21 -132 -27 -254q-7 -91 4 -154q124 46 238 160q10 9 28.5 27.5t27.5 26t24 15t30 7.5q30 0 51 -24.5t19 -55.5q0 -8 -4.5 -19.5t-9.5 -19.5t-14 -22.5t-13 -20.5q-135 -141 -338 -229q-44 -15 -80 -15z" />
<glyph unicode="&#xcc;" horiz-adv-x="385" d="M334 1456q-18 2 -37.5 7.5t-43.5 14.5t-38 13q-8 1 -51 9.5t-66 10.5q-56 6 -78.5 21t-19.5 45q2 32 36 56.5t75 21.5q91 -9 256 -74q25 -7 38 -23t11 -34q-2 -26 -26 -47.5t-56 -20.5zM121 45q-29 1 -45.5 16t-21.5 40.5t-6 59t1 70.5q7 154 45.5 482t75.5 491 q16 67 39 98.5t72 30.5q63 -3 53 -67q-3 -34 -45 -308t-60 -471q-16 -151 -18 -202q0 -80 2 -113q-1 -7 -2 -21t-2 -20q-6 -89 -88 -86z" />
<glyph unicode="&#xcd;" horiz-adv-x="385" d="M233 1405q-36 3 -58.5 27.5t-20.5 58.5q3 45 51 76q270 177 364 170q32 -3 48 -21t14 -43q-2 -20 -16 -38.5t-37 -28.5q-31 -15 -94 -42.5t-86 -39t-55 -36t-52 -54.5q-20 -32 -58 -29zM121 45q-29 1 -45.5 16t-21.5 40.5t-6 59t1 70.5q7 154 45.5 482t75.5 491 q16 67 39 98.5t72 30.5q63 -3 53 -67q-3 -34 -45 -308t-60 -471q-16 -151 -18 -202q0 -80 2 -113q-1 -7 -2 -21t-2 -20q-6 -89 -88 -86z" />
<glyph unicode="&#xce;" horiz-adv-x="385" d="M528 1403h-6q-37 0 -57 29q-5 11 -19 47q-17 27 -51.5 75t-40.5 58l-161 -182q-24 -31 -56 -55.5t-59 -24.5q-24 0 -42 15t-18 36q0 25 42 78t111.5 131.5t107.5 132.5q45 61 94 61q44 0 78 -55q16 -27 60.5 -89.5t63.5 -98.5q31 -53 31 -88q0 -25 -15 -42.5t-40 -23.5 q-6 -4 -23 -4zM121 45q-29 1 -45.5 16t-21.5 40.5t-6 59t1 70.5q7 154 45.5 482t75.5 491q16 67 39 98.5t72 30.5q63 -3 53 -67q-3 -34 -45 -308t-60 -471q-16 -151 -18 -202q0 -80 2 -113q-1 -7 -2 -21t-2 -20q-6 -89 -88 -86z" />
<glyph unicode="&#xcf;" horiz-adv-x="385" d="M496 1479q-47 0 -82 29.5t-35 70.5q0 42 30 73t72 31q44 0 78.5 -35.5t34.5 -78.5q0 -38 -28 -64t-70 -26zM141 1419q-41 0 -65.5 24.5t-24.5 63.5q0 56 29 88.5t78 32.5q48 0 85.5 -29.5t37.5 -68.5q0 -38 -45.5 -74.5t-94.5 -36.5zM121 45q-29 1 -45.5 16t-21.5 40.5 t-6 59t1 70.5q7 154 45.5 482t75.5 491q16 67 39 98.5t72 30.5q63 -3 53 -67q-3 -34 -45 -308t-60 -471q-16 -151 -18 -202q0 -80 2 -113q-1 -7 -2 -21t-2 -20q-6 -89 -88 -86z" />
<glyph unicode="&#xd0;" horiz-adv-x="968" d="M696 1466q129 -12 201 -97.5t72 -225.5q0 -125 -51 -265t-139.5 -274.5t-194.5 -256.5t-228 -234q-111 -95 -180 -90q-26 1 -41.5 20t-15.5 47q0 33 18 70t35 51q-6 15 -6 53q2 18 8 65t6 58l23 301q-50 -4 -76 -4q-32 0 -55 17t-23 49q0 35 26.5 52t82.5 27 q9 1 27.5 4.5t27.5 4.5q4 46 8 145q3 35 8 150q2 43 2 106q-26 -7 -41 -4q-55 3 -63 70q-4 32 38 63t109 53q120 38 207 47t215 -2zM819 1141q6 91 -34 127.5t-134 42.5q-109 10 -260 -15q-10 -91 -22 -274l-7 -137v-23q6 1 22.5 4t25.5 4q31 7 45 7q60 0 82 -52q2 -6 2 -16 q0 -25 -15 -44.5t-41 -23.5q-86 -20 -127 -28l-6 -385q176 166 319.5 402.5t149.5 410.5z" />
<glyph unicode="&#xd1;" horiz-adv-x="851" d="M844 1516q33 -21 33 -56q0 -10 -3 -22q-34 -100 -40 -125q-17 -54 -27 -146q-4 -33 -22 -167t-24.5 -194.5t-19 -177.5t-19 -228.5t-9.5 -235.5q0 -48 -25 -77.5t-59 -29.5t-56 31q-17 23 -35.5 66t-31 79.5t-25 76.5t-14.5 46q-53 148 -225 521q-2 -56 -17 -282 t-16 -337q5 -104 8 -125v-22q0 -41 -41 -74q-18 -21 -53 -21q-44 0 -62 50q-12 25 -12 84q11 249 47 806q2 49 12.5 118t22.5 95q33 54 88 54q19 0 33.5 -9t20.5 -17.5t18 -29.5q20 -52 45 -110.5t56.5 -130t47.5 -109.5q29 -64 55.5 -129t49 -125t33.5 -86q35 415 106 844 q8 48 27 104q-63 -47 -129 -47q-41 0 -94 23t-94 46t-52 23q-9 0 -18 -2.5t-18 -9t-14 -11t-15.5 -14.5t-14.5 -14q-9 -9 -18.5 -21.5t-14 -18t-13.5 -9.5t-21 -4q-17 0 -33.5 23t-16.5 43q0 41 75 105.5t122 64.5q44 0 81 -21t72 -42t74 -21q36 0 59.5 11.5t43.5 45.5 q6 10 15 27t13 23t13 11.5t22 5.5q31 0 55 -18t23 -43q-3 -31 -18 -57q4 2 14 2q18 0 35 -10z" />
<glyph unicode="&#xd2;" horiz-adv-x="909" d="M530 1397q-18 2 -37.5 7.5t-43 14.5t-37.5 13q-8 1 -51 9.5t-66 10.5q-56 6 -78.5 21t-19.5 45q2 32 35.5 56t74.5 21q95 -9 256 -73q25 -7 38 -23.5t11 -34.5q-2 -26 -26 -47t-56 -20zM367 0q-104 0 -180.5 75.5t-109.5 182t-28 217.5q10 189 52 325t149 287 q40 54 88 103t116.5 91t127.5 42q56 0 78.5 -24t19.5 -68q174 -155 180 -500q-2 -118 -37.5 -245t-97 -236t-156 -179.5t-202.5 -70.5zM379 139q70 1 139 87t111.5 195t54.5 202q8 81 8 176q-2 120 -43.5 217.5t-124.5 134.5q-164 -124 -238 -314t-65 -413q7 -105 50.5 -195 t107.5 -90z" />
<glyph unicode="&#xd3;" horiz-adv-x="909" d="M430 1346q-36 3 -59 27.5t-21 58.5q3 44 51 75q271 177 365 170q32 -3 47.5 -20.5t13.5 -42.5q-2 -21 -16 -39.5t-37 -28.5q-31 -15 -94 -42.5t-86 -39t-55 -36t-52 -54.5q-19 -31 -57 -28zM367 0q-104 0 -180.5 75.5t-109.5 182t-28 217.5q10 189 52 325t149 287 q40 54 88 103t116.5 91t127.5 42q56 0 78.5 -24t19.5 -68q174 -155 180 -500q-2 -118 -37.5 -245t-97 -236t-156 -179.5t-202.5 -70.5zM379 139q70 1 139 87t111.5 195t54.5 202q8 81 8 176q-2 120 -43.5 217.5t-124.5 134.5q-164 -124 -238 -314t-65 -413q7 -105 50.5 -195 t107.5 -90z" />
<glyph unicode="&#xd4;" horiz-adv-x="909" d="M725 1341h-6q-37 0 -57 29q-6 11 -19 47q-17 27 -51.5 75t-40.5 58l-162 -182q-24 -31 -56 -55.5t-59 -24.5q-24 0 -41.5 15t-17.5 36q0 20 28 59t64.5 80t86.5 100t81 103q45 62 94 62q44 0 78 -55q16 -27 61 -90t64 -99q31 -53 31 -88q0 -24 -15 -41.5t-40 -23.5 q-8 -5 -23 -5zM367 0q-104 0 -180.5 75.5t-109.5 182t-28 217.5q10 189 52 325t149 287q40 54 88 103t116.5 91t127.5 42q56 0 78.5 -24t19.5 -68q174 -155 180 -500q-2 -118 -37.5 -245t-97 -236t-156 -179.5t-202.5 -70.5zM379 139q70 1 139 87t111.5 195t54.5 202 q8 81 8 176q-2 120 -43.5 217.5t-124.5 134.5q-164 -124 -238 -314t-65 -413q7 -105 50.5 -195t107.5 -90z" />
<glyph unicode="&#xd5;" horiz-adv-x="909" d="M221 1370q-17 0 -33 23t-16 43q0 41 75 105.5t122 64.5q44 0 81 -21t72 -42t74 -21q36 0 59 11.5t43 45.5q6 9 15.5 27t13.5 23.5t13 11.5t22 6q30 0 54.5 -18.5t23.5 -43.5q-11 -77 -82.5 -140t-149.5 -63q-41 0 -94 23t-93.5 46.5t-51.5 23.5q-12 0 -24 -6t-18 -10.5 t-20.5 -19t-17.5 -16.5q-8 -9 -18 -21.5t-15 -18t-13.5 -9.5t-21.5 -4zM367 0q-104 0 -180.5 75.5t-109.5 182t-28 217.5q10 189 52 325t149 287q40 54 88 103t116.5 91t127.5 42q56 0 78.5 -24t19.5 -68q174 -155 180 -500q-2 -118 -37.5 -245t-97 -236t-156 -179.5 t-202.5 -70.5zM379 139q70 1 139 87t111.5 195t54.5 202q8 81 8 176q-2 120 -43.5 217.5t-124.5 134.5q-164 -124 -238 -314t-65 -413q7 -105 50.5 -195t107.5 -90z" />
<glyph unicode="&#xd6;" horiz-adv-x="909" d="M692 1417q-47 0 -82 30t-35 71q0 42 30.5 73t72.5 31q44 0 78.5 -36t34.5 -79q0 -38 -28 -64t-71 -26zM338 1358q-41 0 -65.5 24.5t-24.5 63.5q0 56 28.5 88.5t77.5 32.5q48 0 85.5 -30t37.5 -69q0 -38 -45 -74t-94 -36zM367 0q-104 0 -180.5 75.5t-109.5 182t-28 217.5 q10 189 52 325t149 287q40 54 88 103t116.5 91t127.5 42q56 0 78.5 -24t19.5 -68q174 -155 180 -500q-2 -118 -37.5 -245t-97 -236t-156 -179.5t-202.5 -70.5zM379 139q70 1 139 87t111.5 195t54.5 202q8 81 8 176q-2 120 -43.5 217.5t-124.5 134.5q-164 -124 -238 -314 t-65 -413q7 -105 50.5 -195t107.5 -90z" />
<glyph unicode="&#xd7;" horiz-adv-x="749" d="M20 -88q-31 0 -49.5 16t-19.5 45q-4 29 12 56q39 87 66 142.5t65.5 130.5t69.5 138q86 159 94 172l-86 170q-18 36 -23 45t-13.5 29t-11.5 33t-5 31q-3 28 10.5 49t42.5 22q40 6 76 -49q15 -25 33.5 -60t41 -80t35.5 -69q105 213 260 445q10 13 26.5 35.5t30 40.5 t27.5 32q27 23 48 23q25 3 47.5 -16t25.5 -46q0 -17 -4.5 -30.5t-9 -20.5t-15 -20.5t-16.5 -22.5q-7 -11 -46.5 -67.5t-78 -113.5t-100.5 -159.5t-121 -212.5q130 -209 143 -231q64 -90 64 -140q6 -34 -23 -61.5t-61 -30.5q-20 -1 -35 12.5t-20 34.5q-8 29 -19.5 57 t-30.5 60.5t-30 50.5t-38 59.5t-36 55.5q-40 -63 -131 -234t-127 -251q-31 -67 -68 -70z" />
<glyph unicode="&#xd8;" horiz-adv-x="909" d="M717 1257q137 -165 143 -487q-2 -125 -37.5 -258.5t-97 -248.5t-156 -189t-202.5 -74q-36 0 -74 10q-3 -10 -10.5 -33t-10.5 -36q-2 -5 -10.5 -46t-19.5 -57q-9 -17 -29.5 -27t-42.5 -10q-36 0 -54 20.5t-18 53.5q0 34 27 121l39 108q-60 73 -90 181t-25 215 q10 199 52 343t149 302q29 41 64 80t79 79t94 64.5t95 24.5q22 0 32 -2q31 103 37 143l2 16q4 22 27 37t49 15q70 0 70 -86q0 -34 -33 -113zM221 446q3 -58 21 -120l250 712q3 10 24.5 69t32.5 91q-6 5 -25 14q-164 -131 -238 -331.5t-65 -434.5zM379 147q70 1 139 91 t111.5 204.5t54.5 212.5q8 88 8 187q0 121 -41 221q-45 -135 -139 -401q-26 -79 -84 -244t-88 -260q22 -11 39 -11z" />
<glyph unicode="&#xd9;" horiz-adv-x="833" d="M496 1464q-18 2 -37.5 7.5t-43.5 14.5t-38 13q-11 2 -52.5 10.5t-64.5 10.5q-57 6 -79 21t-19 44q2 32 35.5 56.5t74.5 21.5q91 -9 256 -74q25 -7 38.5 -23t11.5 -34q-2 -26 -26 -47.5t-56 -20.5zM207 37q-48 0 -81.5 24t-50 66.5t-22.5 88t-4 99.5q7 178 45.5 445 t79.5 446q10 44 41 64t68 14q15 -3 30 -19.5t15 -29.5q2 -43 -17 -111q-33 -169 -60.5 -400t-27.5 -374q0 -61 10 -90.5t35 -30.5q43 0 137 83.5t152 201.5q14 306 70 795q3 48 23.5 79t60.5 31q31 0 52 -18t21 -47q0 -36 -6 -54q-15 -96 -31.5 -313t-23.5 -428 q-8 -131 -8 -274q0 -27 1 -71.5t1 -63.5q0 -32 -23 -49t-57 -17q-11 0 -20.5 2.5t-17 5t-14 9.5t-11 12t-9 16.5t-7 17.5t-6 21t-5 22t-5 25t-5.5 25q-78 -85 -175.5 -144t-154.5 -59z" />
<glyph unicode="&#xda;" horiz-adv-x="833" d="M395 1413q-36 3 -59 27.5t-21 58.5q3 44 52 76q270 177 364 170q32 -3 48 -21t14 -43q-3 -44 -54 -67q-30 -14 -94 -42t-86 -39.5t-54 -36t-52 -54.5q-20 -32 -58 -29zM207 37q-48 0 -81.5 24t-50 66.5t-22.5 88t-4 99.5q7 178 45.5 445t79.5 446q10 44 41 64t68 14 q15 -3 30 -19.5t15 -29.5q2 -43 -17 -111q-33 -169 -60.5 -400t-27.5 -374q0 -61 10 -90.5t35 -30.5q43 0 137 83.5t152 201.5q14 306 70 795q3 48 23.5 79t60.5 31q31 0 52 -18t21 -47q0 -36 -6 -54q-15 -96 -31.5 -313t-23.5 -428q-8 -131 -8 -274q0 -27 1 -71.5t1 -63.5 q0 -32 -23 -49t-57 -17q-11 0 -20.5 2.5t-17 5t-14 9.5t-11 12t-9 16.5t-7 17.5t-6 21t-5 22t-5 25t-5.5 25q-78 -85 -175.5 -144t-154.5 -59z" />
<glyph unicode="&#xdb;" horiz-adv-x="833" d="M727 1417q25 -5 41 -22t16 -41q0 -36 -6 -54q-15 -96 -31.5 -313t-23.5 -428q-8 -131 -8 -274q0 -27 1 -71.5t1 -63.5q0 -32 -23 -49t-57 -17q-11 0 -20.5 2.5t-17 5t-14 9.5t-11 12t-9 16.5t-7 17.5t-6 21t-5 22t-5 25t-5.5 25q-78 -85 -175.5 -144t-154.5 -59 q-48 0 -81.5 24t-50 66.5t-22.5 88t-4 99.5q7 178 45.5 445t79.5 446q10 44 41 64t68 14q15 -3 30 -19.5t15 -29.5q2 -43 -17 -111q-33 -169 -60.5 -400t-27.5 -374q0 -61 10 -90.5t35 -30.5q43 0 137 83.5t152 201.5q14 306 70 795q4 78 47 100q-28 3 -47 29q-5 11 -19 47 q-17 27 -51.5 75t-40.5 58l-162 -182q-24 -31 -55.5 -55.5t-58.5 -24.5q-24 0 -42 15t-18 36q0 20 28 59t64.5 80t86.5 100t81 103q45 61 95 61q43 0 77 -55q16 -28 61 -90t64 -98q31 -53 31 -88q0 -42 -41 -62z" />
<glyph unicode="&#xdc;" horiz-adv-x="833" d="M657 1487q-47 0 -81.5 29.5t-34.5 70.5q0 42 30 73.5t72 31.5q44 0 78.5 -36t34.5 -79q0 -38 -28 -64t-71 -26zM303 1427q-41 0 -65.5 25t-24.5 64q0 56 28.5 88t77.5 32q48 0 85.5 -29.5t37.5 -68.5t-45 -75t-94 -36zM207 37q-48 0 -81.5 24t-50 66.5t-22.5 88t-4 99.5 q7 178 45.5 445t79.5 446q10 44 41 64t68 14q15 -3 30 -19.5t15 -29.5q2 -43 -17 -111q-33 -169 -60.5 -400t-27.5 -374q0 -61 10 -90.5t35 -30.5q43 0 137 83.5t152 201.5q14 306 70 795q3 48 23.5 79t60.5 31q31 0 52 -18t21 -47q0 -36 -6 -54q-15 -96 -31.5 -313 t-23.5 -428q-8 -131 -8 -274q0 -27 1 -71.5t1 -63.5q0 -32 -23 -49t-57 -17q-11 0 -20.5 2.5t-17 5t-14 9.5t-11 12t-9 16.5t-7 17.5t-6 21t-5 22t-5 25t-5.5 25q-78 -85 -175.5 -144t-154.5 -59z" />
<glyph unicode="&#xdd;" horiz-adv-x="704" d="M303 1456q-36 3 -59 27.5t-21 58.5q3 45 51 76q271 177 365 170q32 -3 47.5 -21t13.5 -43q-2 -20 -16 -38.5t-37 -28.5q-31 -15 -94 -42.5t-86 -39t-55 -36t-52 -54.5q-19 -32 -57 -29zM100 -193q-71 0 -71 64q0 28 18 84q20 64 89 309t110 359q-39 75 -96.5 212 t-81.5 240q0 2 -5.5 27t-5.5 31q0 46 15.5 65t56.5 19q25 0 44.5 -14.5t23.5 -43.5q24 -129 135 -340q11 23 23 52.5t18 41.5q32 71 118 264t134 298q28 55 52 79.5t56 24.5q30 0 50 -13t20 -38q0 -21 -17 -55q-220 -492 -292 -667q-181 -445 -283 -865q-9 -62 -37.5 -98 t-73.5 -36z" />
<glyph unicode="&#xde;" horiz-adv-x="821" d="M582 1233q107 -7 168 -61.5t59 -129.5q-2 -82 -95 -216t-220.5 -250.5t-225.5 -157.5q-5 -37 -6 -39q-6 -48 -29 -68q-7 -64 -10 -174v-57q-1 -31 -4 -50.5t-13 -41t-31 -31t-54 -8.5t-52.5 18t-19.5 43q4 99 12.5 200t28 280t29.5 274q5 34 18 129t23 168q-31 -9 -62 -6 q-25 1 -33 10.5t-8 28.5q3 52 156 98q39 210 70 317q10 35 18 55t21 40t32 28t45 6q64 -5 50 -71q-4 -36 -66 -342q115 14 199 8zM279 586q71 36 154.5 120t142.5 176t63 150q0 38 -18.5 56.5t-59.5 21.5q-109 4 -203 -14q-43 -255 -55 -342q-14 -82 -24 -168z" />
<glyph unicode="&#xdf;" horiz-adv-x="1226" d="M1227 164q0 -80 -64.5 -141t-146.5 -74q-60 -11 -139 12q-160 57 -250 178q-18 22 -25 60q-13 72 41 120q25 22 55 31q22 3 41 -8q28 -14 35 -45q0 -23 -4 -33q-12 -19 -8 -43q5 -23 41 -51q10 -7 29 -20t30 -20.5t28.5 -16.5t33.5 -15q41 -13 67 -8q33 5 57 29t21 59 q-5 58 -13.5 90.5t-18.5 50.5t-49.5 76t-76.5 119q-33 54 -69.5 106.5t-54 77t-33.5 56.5t-25 69q-14 73 37 203q29 68 84 173t87 174.5t32 103.5q0 25 -9.5 33t-29.5 12q-152 6 -268 -161.5t-168 -451.5q-10 -62 -28.5 -140t-21.5 -95q-28 -168 -28.5 -398t28.5 -378 q13 -46 -17 -85.5t-71 -37.5q-45 3 -59 61q-8 34 -13.5 62.5t-8 65.5t-3.5 54.5t-2 73.5t-2 78q-3 108 4 236l11 184q0 3 -1 17t-1 28q-24 -15 -59.5 -38t-49.5 -32q-9 -7 -21.5 -19t-19.5 -17t-20.5 -9.5t-32.5 -3.5q-24 0 -38.5 18.5t-14.5 43.5q1 29 38.5 67t81 67.5 t99 65t75.5 51.5q23 145 59 269t91 231.5t123.5 182t160 114.5t197.5 35q78 -3 124.5 -53t43.5 -127q-3 -39 -35 -118t-65 -142q-76 -141 -121 -285q-10 -23 -3.5 -76t30.5 -88q75 -105 133 -203q49 -80 60.5 -99.5t43 -76.5t39.5 -82.5t17.5 -66.5t9.5 -80z" />
<glyph unicode="&#xe0;" d="M147 1270q-56 6 -78.5 22t-19.5 47q2 34 36 59.5t75 22.5q87 -9 256 -78q52 -18 49 -61q-2 -28 -26 -49.5t-56 -20.5q-18 2 -37.5 7.5t-43.5 14.5t-38 13q-97 21 -117 23zM469 1141q71 0 119.5 -53t48.5 -119q0 -52 -19 -154q-39 -265 -43 -297q-5 -42 -12.5 -98.5 t-11.5 -86t-8.5 -79.5t-3.5 -80t4 -86q0 -7 1 -20.5t1 -20.5q0 -31 -20.5 -47t-47.5 -18q-54 0 -74 41t-20 129q-95 -95 -199 -95q-74 0 -116.5 61.5t-42.5 153.5q0 172 180 359q39 44 118 121.5t99 97.5q25 23 43 53.5t18 54.5q0 20 -10.5 33t-19.5 13q-48 0 -129.5 -67 t-98.5 -124q-10 -43 -63 -43q-62 0 -62 76q0 67 80.5 144.5t177.5 125.5q55 25 111 25zM332 307q60 102 91 186.5t42 213.5q-98 -77 -240 -289q-26 -42 -40.5 -85.5t-14.5 -62.5q0 -61 35 -61q28 -1 64.5 28t62.5 70z" />
<glyph unicode="&#xe1;" d="M618 1507q32 -3 48 -22t14 -45q-2 -21 -16 -40.5t-37 -29.5q-31 -16 -78.5 -37.5t-70.5 -33t-52.5 -29.5t-49 -37t-36.5 -45q-21 -34 -57 -31q-37 4 -59.5 30.5t-20.5 61.5q3 44 51 80q274 185 364 178zM469 1141q71 0 119.5 -53t48.5 -119q0 -52 -19 -154 q-39 -265 -43 -297q-5 -42 -12.5 -98.5t-11.5 -86t-8.5 -79.5t-3.5 -80t4 -86q0 -7 1 -20.5t1 -20.5q0 -31 -20.5 -47t-47.5 -18q-54 0 -74 41t-20 129q-95 -95 -199 -95q-74 0 -116.5 61.5t-42.5 153.5q0 172 180 359q39 44 118 121.5t99 97.5q25 23 43 53.5t18 54.5 q0 20 -10.5 33t-19.5 13q-48 0 -129.5 -67t-98.5 -124q-10 -43 -63 -43q-62 0 -62 76q0 67 80.5 144.5t177.5 125.5q55 25 111 25zM332 307q60 102 91 186.5t42 213.5q-98 -77 -240 -289q-26 -42 -40.5 -85.5t-14.5 -62.5q0 -61 35 -61q28 -1 64.5 28t62.5 70z" />
<glyph unicode="&#xe2;" d="M127 1098q-23 0 -41 15.5t-18 37.5q0 27 41.5 82.5t111.5 139t107 138.5q46 66 94 66q43 0 78 -59q17 -30 61.5 -95.5t63.5 -101.5q30 -55 30 -94q0 -26 -15 -44t-40 -24q-6 -6 -22 -6h-7q-35 0 -57 31q-4 8 -10 26.5t-8 22.5q-17 29 -52 80t-41 61l-161 -192 q-24 -32 -56 -58t-59 -26zM469 1141q71 0 119.5 -53t48.5 -119q0 -52 -19 -154q-39 -265 -43 -297q-5 -42 -12.5 -98.5t-11.5 -86t-8.5 -79.5t-3.5 -80t4 -86q0 -7 1 -20.5t1 -20.5q0 -31 -20.5 -47t-47.5 -18q-54 0 -74 41t-20 129q-95 -95 -199 -95q-74 0 -116.5 61.5 t-42.5 153.5q0 172 180 359q39 44 118 121.5t99 97.5q25 23 43 53.5t18 54.5q0 20 -10.5 33t-19.5 13q-48 0 -129.5 -67t-98.5 -124q-10 -43 -63 -43q-62 0 -62 76q0 67 80.5 144.5t177.5 125.5q55 25 111 25zM332 307q60 102 91 186.5t42 213.5q-98 -77 -240 -289 q-26 -42 -40.5 -85.5t-14.5 -62.5q0 -61 35 -61q28 -1 64.5 28t62.5 70z" />
<glyph unicode="&#xe3;" d="M614 1475q30 0 54.5 -19.5t23.5 -46.5q-11 -80 -82.5 -146.5t-148.5 -66.5q-41 0 -94 24.5t-94 49t-52 24.5q-9 0 -18 -3t-18 -10t-14 -11.5t-15.5 -15.5t-14.5 -15q-9 -10 -18.5 -23t-14 -18t-13 -9.5t-21.5 -4.5q-17 0 -33 23.5t-16 43.5q0 44 74.5 112.5t121.5 68.5 q35 0 66.5 -14t51.5 -30.5t49.5 -30.5t60.5 -14q35 0 58.5 12t43.5 48q6 11 15 28.5t13 24.5t13 13t22 6zM469 1141q71 0 119.5 -53t48.5 -119q0 -52 -19 -154q-39 -265 -43 -297q-5 -42 -12.5 -98.5t-11.5 -86t-8.5 -79.5t-3.5 -80t4 -86q0 -7 1 -20.5t1 -20.5 q0 -31 -20.5 -47t-47.5 -18q-54 0 -74 41t-20 129q-95 -95 -199 -95q-74 0 -116.5 61.5t-42.5 153.5q0 172 180 359q39 44 118 121.5t99 97.5q25 23 43 53.5t18 54.5q0 20 -10.5 33t-19.5 13q-48 0 -129.5 -67t-98.5 -124q-10 -43 -63 -43q-62 0 -62 76q0 67 80.5 144.5 t177.5 125.5q55 25 111 25zM332 307q60 102 91 186.5t42 213.5q-98 -77 -240 -289q-26 -42 -40.5 -85.5t-14.5 -62.5q0 -61 35 -61q28 -1 64.5 28t62.5 70z" />
<glyph unicode="&#xe4;" d="M545 1235q-47 0 -82 30.5t-35 73.5q0 45 30 78t72 33q44 0 78.5 -37.5t34.5 -83.5q0 -40 -28 -67t-70 -27zM190 1171q-41 0 -65.5 26.5t-24.5 68.5q0 57 29 92t78 35q47 0 85 -32t38 -73q0 -40 -45.5 -78.5t-94.5 -38.5zM469 1141q71 0 119.5 -53t48.5 -119 q0 -52 -19 -154q-39 -265 -43 -297q-5 -42 -12.5 -98.5t-11.5 -86t-8.5 -79.5t-3.5 -80t4 -86q0 -7 1 -20.5t1 -20.5q0 -31 -20.5 -47t-47.5 -18q-54 0 -74 41t-20 129q-95 -95 -199 -95q-74 0 -116.5 61.5t-42.5 153.5q0 172 180 359q39 44 118 121.5t99 97.5 q25 23 43 53.5t18 54.5q0 20 -10.5 33t-19.5 13q-48 0 -129.5 -67t-98.5 -124q-10 -43 -63 -43q-62 0 -62 76q0 67 80.5 144.5t177.5 125.5q55 25 111 25zM332 307q60 102 91 186.5t42 213.5q-98 -77 -240 -289q-26 -42 -40.5 -85.5t-14.5 -62.5q0 -61 35 -61q28 -1 64.5 28 t62.5 70z" />
<glyph unicode="&#xe5;" d="M279 1147q-79 0 -119.5 41.5t-40.5 105.5q0 84 71 138q149 131 334 131q80 0 125 -38t45 -102q0 -61 -61 -125q-132 -134 -354 -151zM354 1395q-1 0 -12.5 -5.5t-13.5 -6.5t-12.5 -6.5t-13.5 -7.5t-11.5 -7.5t-12 -9.5t-10 -10t-10 -12t-7.5 -14t-7 -16q28 -14 67 -14 q64 0 136.5 38.5t103.5 94.5q-32 11 -62 11q-12 0 -25 -2t-21.5 -3.5t-23.5 -6.5t-21 -6.5t-23.5 -8.5t-20.5 -8zM469 1141q71 0 119.5 -53t48.5 -119q0 -52 -19 -154q-39 -265 -43 -297q-5 -42 -12.5 -98.5t-11.5 -86t-8.5 -79.5t-3.5 -80t4 -86q0 -7 1 -20.5t1 -20.5 q0 -31 -20.5 -47t-47.5 -18q-54 0 -74 41t-20 129q-95 -95 -199 -95q-74 0 -116.5 61.5t-42.5 153.5q0 172 180 359q39 44 118 121.5t99 97.5q25 23 43 53.5t18 54.5q0 20 -10.5 33t-19.5 13q-48 0 -129.5 -67t-98.5 -124q-10 -43 -63 -43q-62 0 -62 76q0 67 80.5 144.5 t177.5 125.5q55 25 111 25zM332 307q60 102 91 186.5t42 213.5q-98 -77 -240 -289q-26 -42 -40.5 -85.5t-14.5 -62.5q0 -61 35 -61q28 -1 64.5 28t62.5 70z" />
<glyph unicode="&#xe6;" horiz-adv-x="1351" d="M1110 373q33 0 53.5 -20t20.5 -44q0 -41 -68 -94q-56 -44 -170 -86.5t-190 -42.5q-140 0 -217 59q0 -17 4 -57q0 -7 1 -20.5t1 -20.5q0 -31 -20.5 -47t-47.5 -18q-54 0 -74 41t-20 129q-95 -95 -199 -95q-74 0 -116.5 61.5t-42.5 153.5q0 172 180 359q39 44 118 121.5 t99 97.5q25 23 43 53.5t18 54.5q0 20 -10.5 33t-19.5 13q-48 0 -129.5 -67t-98.5 -124q-10 -43 -63 -43q-62 0 -62 76q0 67 80.5 144.5t177.5 125.5q55 25 111 25q71 0 119.5 -53t48.5 -119q0 -9 -1 -27.5t-1 -26.5q117 117 219 117q71 0 122.5 -32.5t51.5 -92.5 q0 -139 -94 -258q-132 -171 -346 -248q0 -71 41.5 -114t124.5 -43q19 0 51 4q52 6 116 37.5t114.5 59.5t74.5 28zM881 881q-40 -1 -87 -25t-88 -63.5t-68.5 -98.5t-27.5 -123q81 34 169.5 131.5t101.5 178.5zM332 307q60 102 91 186.5t42 213.5q-98 -77 -240 -289 q-26 -42 -40.5 -85.5t-14.5 -62.5q0 -61 35 -61q28 -1 64.5 28t62.5 70z" />
<glyph unicode="&#xe7;" horiz-adv-x="718" d="M442 76q101 -6 164.5 -49t63.5 -107q0 -59 -99 -147q-68 -57 -173.5 -104.5t-219.5 -47.5q-66 0 -109.5 48.5t-43.5 99.5t67 51q20 0 33.5 -6.5t20 -13t18.5 -24.5t20 -28q136 17 239 68.5t103 95.5q0 19 -14 28t-28 10t-44 1h-6.5h-5.5q-27 0 -70.5 -11.5t-62.5 -11.5 q-30 0 -40.5 12.5t-10.5 41.5q0 10 5.5 43.5t6.5 40.5q4 22 11.5 42t11.5 44l4 16q-111 53 -178.5 157t-67.5 226q0 150 81.5 291t217.5 215q100 47 166 47q63 0 102 -39t39 -102q0 -59 -35.5 -127t-81.5 -68q-29 0 -48 19t-19 44q0 9 4.5 21t10.5 23.5t7 15.5q6 16 9.5 30 t5.5 27.5t-1.5 21t-11.5 7.5q-288 -146 -288 -414q0 -125 70 -207t188 -94q18 -2 65 8.5t55 10.5q27 0 45.5 -17.5t18.5 -42.5q0 -40 -51 -68t-115 -28q-38 0 -68 6q-1 -5 -4.5 -22t-5.5 -33h49z" />
<glyph unicode="&#xe8;" horiz-adv-x="768" d="M410 1159q-18 2 -37.5 7.5t-43.5 14.5t-38 13q-97 21 -117 23q-56 6 -78.5 22t-19.5 47q2 34 35.5 59.5t74.5 22.5q87 -9 256 -78q53 -18 50 -61q-2 -28 -26 -49.5t-56 -20.5zM340 86q-160 0 -237.5 79.5t-77.5 244.5q0 200 100 378q54 100 144 172t169 72 q71 0 122.5 -32.5t51.5 -92.5q0 -139 -94 -258q-132 -171 -346 -248q0 -71 41.5 -114t124.5 -43q19 0 51 4q52 6 116 37.5t114.5 59.5t74.5 28q33 0 53.5 -20t20.5 -44q0 -41 -68 -94q-56 -44 -170 -86.5t-190 -42.5zM195 571q81 34 169 131.5t101 178.5q-40 -1 -87 -25 t-88 -63.5t-68 -98.5t-27 -123z" />
<glyph unicode="&#xe9;" horiz-adv-x="768" d="M309 1104q-37 4 -59.5 30.5t-20.5 61.5q3 44 52 80q274 185 364 178q32 -3 48 -22t14 -46q-2 -20 -16.5 -39.5t-37.5 -29.5q-31 -15 -78.5 -37t-70 -33.5t-52 -29.5t-49 -37t-36.5 -45q-21 -34 -58 -31zM340 86q-160 0 -237.5 79.5t-77.5 244.5q0 200 100 378 q54 100 144 172t169 72q71 0 122.5 -32.5t51.5 -92.5q0 -139 -94 -258q-132 -171 -346 -248q0 -71 41.5 -114t124.5 -43q19 0 51 4q52 6 116 37.5t114.5 59.5t74.5 28q33 0 53.5 -20t20.5 -44q0 -41 -68 -94q-56 -44 -170 -86.5t-190 -42.5zM195 571q81 34 169 131.5 t101 178.5q-40 -1 -87 -25t-88 -63.5t-68 -98.5t-27 -123z" />
<glyph unicode="&#xea;" horiz-adv-x="768" d="M604 1100h-6q-36 0 -57 30q-2 5 -19 50q-17 29 -51.5 80t-40.5 61l-162 -193q-24 -33 -55.5 -58.5t-58.5 -25.5q-23 0 -41.5 16t-18.5 38q0 27 41.5 82.5t111.5 139t107 138.5q46 66 95 66q42 0 77 -60q17 -30 61.5 -95t63.5 -101q31 -57 31 -94q0 -26 -15 -44t-40 -24 q-6 -6 -23 -6zM340 86q-160 0 -237.5 79.5t-77.5 244.5q0 200 100 378q54 100 144 172t169 72q71 0 122.5 -32.5t51.5 -92.5q0 -139 -94 -258q-132 -171 -346 -248q0 -71 41.5 -114t124.5 -43q19 0 51 4q52 6 116 37.5t114.5 59.5t74.5 28q33 0 53.5 -20t20.5 -44 q0 -41 -68 -94q-56 -44 -170 -86.5t-190 -42.5zM195 571q81 34 169 131.5t101 178.5q-40 -1 -87 -25t-88 -63.5t-68 -98.5t-27 -123z" />
<glyph unicode="&#xeb;" horiz-adv-x="768" d="M571 1182q-47 0 -81.5 30.5t-34.5 73.5q0 45 30 78t72 33q44 0 78.5 -37.5t34.5 -83.5q0 -40 -28 -67t-71 -27zM217 1118q-41 0 -65.5 26t-24.5 68q0 58 28.5 92.5t77.5 34.5q48 0 85.5 -31.5t37.5 -72.5q0 -40 -45 -78.5t-94 -38.5zM340 86q-160 0 -237.5 79.5 t-77.5 244.5q0 200 100 378q54 100 144 172t169 72q71 0 122.5 -32.5t51.5 -92.5q0 -139 -94 -258q-132 -171 -346 -248q0 -71 41.5 -114t124.5 -43q19 0 51 4q52 6 116 37.5t114.5 59.5t74.5 28q33 0 53.5 -20t20.5 -44q0 -41 -68 -94q-56 -44 -170 -86.5t-190 -42.5z M195 571q81 34 169 131.5t101 178.5q-40 -1 -87 -25t-88 -63.5t-68 -98.5t-27 -123z" />
<glyph unicode="&#xec;" horiz-adv-x="294" d="M262 1014q-18 2 -37.5 7.5t-43.5 14.5t-38 13q-89 19 -116 22q-56 6 -79 22.5t-20 47.5q2 34 36 59.5t75 22.5q87 -9 256 -78q25 -9 38 -25.5t11 -36.5q-2 -27 -25.5 -48.5t-56.5 -20.5zM139 72q-36 -3 -59.5 20t-28.5 62t2 96q30 401 43 553q19 87 76 92 q33 3 53.5 -14.5t20.5 -44.5q0 -32 -15 -154.5t-20 -232.5q-2 -72 -2 -216v-12q0 -11 4.5 -30t5.5 -29q2 -37 -19 -62t-61 -28z" />
<glyph unicode="&#xed;" horiz-adv-x="294" d="M162 958q-36 4 -59 30.5t-21 62.5q3 43 51 79q276 186 365 179q32 -3 47.5 -22t13.5 -46q-2 -21 -16 -40.5t-37 -29.5q-31 -16 -78.5 -37.5t-70.5 -33t-52.5 -29.5t-49 -37t-36.5 -45q-21 -34 -57 -31zM139 72q-36 -3 -59.5 20t-28.5 62t2 96q30 401 43 553q19 87 76 92 q33 3 53.5 -14.5t20.5 -44.5q0 -32 -15 -154.5t-20 -232.5q-2 -72 -2 -216v-12q0 -11 4.5 -30t5.5 -29q2 -37 -19 -62t-61 -28z" />
<glyph unicode="&#xee;" horiz-adv-x="294" d="M457 954h-6q-36 0 -58 31q-3 8 -10 26.5t-8 22.5q-17 29 -51.5 80.5t-40.5 61.5l-162 -193q-24 -32 -56 -58t-59 -26q-23 0 -41 15.5t-18 37.5q0 27 41.5 83t111.5 139.5t107 138.5q46 65 94 65q43 0 78 -59q17 -30 61.5 -95.5t63.5 -101.5q31 -57 31 -94q0 -53 -56 -67 q-7 -7 -22 -7zM139 72q-36 -3 -59.5 20t-28.5 62t2 96q30 401 43 553q19 87 76 92q33 3 53.5 -14.5t20.5 -44.5q0 -32 -15 -154.5t-20 -232.5q-2 -72 -2 -216v-12q0 -11 4.5 -30t5.5 -29q2 -37 -19 -62t-61 -28z" />
<glyph unicode="&#xef;" horiz-adv-x="294" d="M424 1036q-47 0 -82 31t-35 74q0 45 30.5 77.5t72.5 32.5q44 0 78 -37.5t34 -83.5q0 -40 -28 -67t-70 -27zM70 973q-41 0 -65.5 26t-24.5 68q0 58 28.5 92.5t77.5 34.5q48 0 85.5 -31.5t37.5 -72.5q0 -40 -45 -78.5t-94 -38.5zM139 72q-36 -3 -59.5 20t-28.5 62t2 96 q30 401 43 553q19 87 76 92q33 3 53.5 -14.5t20.5 -44.5q0 -32 -15 -154.5t-20 -232.5q-2 -72 -2 -216v-12q0 -11 4.5 -30t5.5 -29q2 -37 -19 -62t-61 -28z" />
<glyph unicode="&#xf0;" horiz-adv-x="813" d="M885 1378q2 -6 2 -16q0 -25 -15 -44.5t-41 -23.5q-10 -3 -31.5 -8t-31.5 -8q30 -102 45 -219q20 -165 -43.5 -382t-173.5 -392q-25 -67 -76 -121q-58 -67 -149 -113q-48 -23 -92 -26q-65 -5 -120.5 26t-88.5 92q-31 44 -43 131q-5 45 2 111q27 185 145 336q26 34 35 61 q8 50 43 82t84 35q30 3 67 -6q63 -26 109 -84q64 -85 96 -221q95 246 74 487q-9 96 -33 178q-98 -16 -174 -16q-32 0 -55 17t-23 49q0 35 26.5 52t82.5 27l84 13q-32 56 -70 108q-37 52 -73.5 82t-88.5 37q-23 3 -31 14t-10 31q-2 29 14.5 53t43.5 27q21 3 59 -16t58 -35 q70 -44 114.5 -92t85.5 -125q5 -10 14.5 -31t14.5 -31l37 6q31 7 45 7q60 0 82 -52zM268 170q11 0 47 12q94 52 131 142q32 97 23 174q-8 101 -80 229q-9 -5 -16 -7.5t-8 -2.5l-23 -19q-154 -161 -160 -376v-29q1 -10 17 -72q27 -56 69 -51z" />
<glyph unicode="&#xf1;" horiz-adv-x="684" d="M111 1130q-17 0 -33.5 24t-16.5 44q0 44 75 112t122 68q44 0 81 -22t72 -44t74 -22q36 0 59.5 12t43.5 48q6 10 15 28t13 24.5t13 12.5t22 6q31 0 55 -19t23 -46q-11 -80 -82.5 -146.5t-148.5 -66.5q-41 0 -94 24.5t-94 49t-52 24.5q-9 0 -18 -3t-18 -10t-14 -11.5 t-15.5 -15.5t-14.5 -15q-9 -10 -18.5 -23t-14 -18.5t-13 -10t-21.5 -4.5zM131 61q-33 -3 -57.5 15.5t-24.5 48.5v18q0 53 2 64q46 505 72 756q3 38 26 61t60 20q51 -8 51 -59q0 -32 -3 -106.5t-3 -96.5q86 99 137 148q29 32 41.5 44.5t37.5 28t50 17.5q107 0 115 -141 q0 -34 -4 -50q-5 -33 -20.5 -129.5t-20.5 -135.5t-11 -110t-6 -135q0 -57 5 -108q0 -39 -18.5 -60.5t-47.5 -21.5q-54 0 -78 41q-16 39 -16 94q0 278 61 537q-55 -43 -92.5 -78.5t-56 -57t-51.5 -63.5q-48 -59 -56 -125q-3 -74 -22 -330q-13 -55 -25 -68q-15 -17 -45 -18z " />
<glyph unicode="&#xf2;" horiz-adv-x="673" d="M403 1083q-18 2 -37.5 7.5t-43 14.5t-37.5 13q-97 21 -117 23q-56 6 -78.5 22t-19.5 47q2 34 35.5 59.5t74.5 22.5q87 -9 256 -78q52 -18 49 -61q-2 -28 -26 -49.5t-56 -20.5zM279 92q-65 -5 -120 26.5t-89 92.5q-31 44 -43 131q-5 45 2 111q27 184 145 335q26 33 35 62 q8 50 43 82t84 35q30 3 67 -6q63 -26 109 -84q85 -110 111 -302q20 -210 -103 -344q-56 -65 -149 -112q-50 -24 -92 -27zM268 238q11 0 47 12q95 53 131 141q32 97 23 174q-8 103 -80 230q-10 -5 -17 -8l-7 -3l-23 -18q-154 -161 -160 -377v-29q1 -8 17 -71q27 -56 69 -51z " />
<glyph unicode="&#xf3;" horiz-adv-x="673" d="M303 1028q-37 4 -59.5 30.5t-20.5 61.5q3 44 51 80q274 185 365 178q32 -3 47.5 -21.5t13.5 -45.5q-2 -21 -16 -40.5t-37 -29.5q-31 -16 -78.5 -37.5t-70.5 -33t-52.5 -29.5t-49 -37t-36.5 -45q-21 -34 -57 -31zM279 92q-65 -5 -120 26.5t-89 92.5q-31 44 -43 131 q-5 45 2 111q27 184 145 335q26 33 35 62q8 50 43 82t84 35q30 3 67 -6q63 -26 109 -84q85 -110 111 -302q20 -210 -103 -344q-56 -65 -149 -112q-50 -24 -92 -27zM268 238q11 0 47 12q95 53 131 141q32 97 23 174q-8 103 -80 230q-10 -5 -17 -8l-7 -3l-23 -18 q-154 -161 -160 -377v-29q1 -8 17 -71q27 -56 69 -51z" />
<glyph unicode="&#xf4;" horiz-adv-x="673" d="M598 1024h-6q-35 0 -57 31q-5 12 -19 49q-17 29 -51.5 80t-40.5 61l-162 -192q-24 -32 -56 -58t-59 -26q-23 0 -41 15.5t-18 37.5q0 27 41.5 82.5t111.5 139t107 138.5q46 66 94 66q43 0 78 -59q17 -30 61.5 -95.5t63.5 -101.5q31 -57 31 -94q0 -26 -15 -44t-40 -24 q-6 -6 -23 -6zM279 92q-65 -5 -120 26.5t-89 92.5q-31 44 -43 131q-5 45 2 111q27 184 145 335q26 33 35 62q8 50 43 82t84 35q30 3 67 -6q63 -26 109 -84q85 -110 111 -302q20 -210 -103 -344q-56 -65 -149 -112q-50 -24 -92 -27zM268 238q11 0 47 12q95 53 131 141 q32 97 23 174q-8 103 -80 230q-10 -5 -17 -8l-7 -3l-23 -18q-154 -161 -160 -377v-29q1 -8 17 -71q27 -56 69 -51z" />
<glyph unicode="&#xf5;" horiz-adv-x="673" d="M94 1055q-17 0 -33 23.5t-16 43.5q0 44 75 112.5t122 68.5q35 0 66 -14t51 -30.5t49.5 -30.5t60.5 -14q35 0 58.5 12t43.5 48q6 10 13 24t10.5 20.5t9.5 14t13.5 10.5t17.5 3q30 0 54.5 -19.5t23.5 -46.5q-11 -80 -82.5 -146.5t-149.5 -66.5q-41 0 -94 24.5t-93.5 49 t-51.5 24.5q-9 0 -18 -3t-18 -10t-14 -11.5t-15.5 -15.5t-14.5 -15q-8 -9 -18 -22.5t-15 -18.5t-13.5 -9.5t-21.5 -4.5zM279 92q-65 -5 -120 26.5t-89 92.5q-31 44 -43 131q-5 45 2 111q27 184 145 335q26 33 35 62q8 50 43 82t84 35q30 3 67 -6q63 -26 109 -84 q85 -110 111 -302q20 -210 -103 -344q-56 -65 -149 -112q-50 -24 -92 -27zM268 238q11 0 47 12q95 53 131 141q32 97 23 174q-8 103 -80 230q-10 -5 -17 -8l-7 -3l-23 -18q-154 -161 -160 -377v-29q1 -8 17 -71q27 -56 69 -51z" />
<glyph unicode="&#xf6;" horiz-adv-x="673" d="M565 1106q-47 0 -81.5 30.5t-34.5 73.5q0 45 30 78t72 33q44 0 78.5 -37.5t34.5 -83.5q0 -40 -28 -67t-71 -27zM211 1042q-41 0 -65.5 26.5t-24.5 68.5q0 58 28.5 92.5t77.5 34.5q47 0 85 -32t38 -73q0 -40 -45 -78.5t-94 -38.5zM279 92q-65 -5 -120 26.5t-89 92.5 q-31 44 -43 131q-5 45 2 111q27 184 145 335q26 33 35 62q8 50 43 82t84 35q30 3 67 -6q63 -26 109 -84q85 -110 111 -302q20 -210 -103 -344q-56 -65 -149 -112q-50 -24 -92 -27zM268 238q11 0 47 12q95 53 131 141q32 97 23 174q-8 103 -80 230q-10 -5 -17 -8l-7 -3 l-23 -18q-154 -161 -160 -377v-29q1 -8 17 -71q27 -56 69 -51z" />
<glyph unicode="&#xf7;" horiz-adv-x="757" d="M414 842q-50 -10 -95 39q-24 27 -24 57q0 22 12 43q37 70 135 70q31 0 52.5 -24.5t21.5 -59.5t-33 -77t-69 -48zM135 510q-59 -3 -78 39q-8 13 -8 31q0 33 39 57q38 17 72 22q48 6 201.5 31.5t224.5 32.5q24 4 30 4q69 4 86 -45q7 -21 7 -23q0 -19 -15 -37t-41 -28 q-44 -15 -102 -25q-58 -6 -204.5 -30t-211.5 -29zM367 143q-50 -10 -95 39q-24 27 -24 58q0 22 12 43q37 69 135 69q31 0 52.5 -24.5t21.5 -59.5t-33 -77t-69 -48z" />
<glyph unicode="&#xf8;" horiz-adv-x="673" d="M623 575q20 -210 -103 -344q-56 -65 -149 -112q-50 -24 -92 -27h-41q-2 -6 -17 -52t-22 -73q-1 -2 -9 -33t-16 -43q-13 -26 -55 -26q-28 0 -42 15t-14 40q0 16 21 90l47 127q-36 26 -61 74q-31 44 -43 131q-5 45 2 111q27 184 145 335q26 33 35 62q8 50 43 82t84 35 q30 3 67 -6l25 -13q51 136 64 207l2 12q3 18 20 28.5t37 10.5q55 0 55 -63q0 -26 -26 -84q-30 -92 -66 -187q83 -107 109 -297zM182 360q1 -7 11 -53l176 479q-2 -2 -4 -2l-23 -18q-154 -161 -160 -377v-29zM446 391q32 97 23 174q-2 41 -25 111l-61 -170 q-18 -53 -51.5 -145.5t-42.5 -118.5q16 4 26 8q95 53 131 141z" />
<glyph unicode="&#xf9;" horiz-adv-x="700" d="M428 1159q-18 2 -37.5 7.5t-43.5 14.5t-38 13q-98 21 -116 23q-57 6 -79.5 22t-19.5 47q2 34 36 59.5t75 22.5q87 -9 256 -78q52 -18 49 -61q-2 -28 -26 -49.5t-56 -20.5zM514 53q-26 -1 -44 9t-27 31t-13 37.5t-8 45.5q-103 -68 -166 -74q-126 -15 -180 109 q-30 104 -27 184q-2 132 70 453q4 25 23 53t44 29q31 6 56 -15t28 -53q6 -20 -4 -49q-25 -53 -43 -150.5t-24 -173.5q-2 -131 9.5 -185t41.5 -54q50 -2 104 64.5t64 148.5q11 128 71 473q3 24 6.5 40t12.5 38.5t26 35t41 13.5q69 0 76 -49q0 -23 -2 -31q-73 -251 -86 -700 q1 -13 9.5 -64t9.5 -76q0 -40 -19 -63.5t-49 -26.5z" />
<glyph unicode="&#xfa;" horiz-adv-x="700" d="M328 1104q-37 4 -59.5 30.5t-20.5 61.5q3 44 51 80q274 185 365 178q32 -3 47.5 -22t13.5 -46q-2 -21 -16 -40t-37 -29q-31 -16 -78.5 -37.5t-70.5 -33t-52.5 -29.5t-49 -37t-36.5 -45q-21 -34 -57 -31zM514 53q-26 -1 -44 9t-27 31t-13 37.5t-8 45.5q-103 -68 -166 -74 q-126 -15 -180 109q-30 104 -27 184q-2 132 70 453q4 25 23 53t44 29q31 6 56 -15t28 -53q6 -20 -4 -49q-25 -53 -43 -150.5t-24 -173.5q-2 -131 9.5 -185t41.5 -54q50 -2 104 64.5t64 148.5q11 128 71 473q3 24 6.5 40t12.5 38.5t26 35t41 13.5q69 0 76 -49q0 -23 -2 -31 q-73 -251 -86 -700q1 -13 9.5 -64t9.5 -76q0 -40 -19 -63.5t-49 -26.5z" />
<glyph unicode="&#xfb;" horiz-adv-x="700" d="M623 1100h-7q-36 0 -57 30q-3 8 -9.5 26.5t-8.5 23.5q-17 29 -51.5 80t-40.5 61l-162 -193q-24 -32 -56 -58t-59 -26q-23 0 -41 16t-18 38q0 27 41.5 82.5t111.5 139t107 138.5q46 66 94 66q43 0 78 -60q17 -30 61.5 -95t63.5 -101q30 -55 30 -94q0 -26 -15 -44t-40 -24 q-6 -6 -22 -6zM514 53q-26 -1 -44 9t-27 31t-13 37.5t-8 45.5q-103 -68 -166 -74q-126 -15 -180 109q-30 104 -27 184q-2 132 70 453q4 25 23 53t44 29q31 6 56 -15t28 -53q6 -20 -4 -49q-25 -53 -43 -150.5t-24 -173.5q-2 -131 9.5 -185t41.5 -54q50 -2 104 64.5t64 148.5 q11 128 71 473q3 24 6.5 40t12.5 38.5t26 35t41 13.5q69 0 76 -49q0 -23 -2 -31q-73 -251 -86 -700q1 -13 9.5 -64t9.5 -76q0 -40 -19 -63.5t-49 -26.5z" />
<glyph unicode="&#xfc;" horiz-adv-x="700" d="M590 1182q-47 0 -82 30.5t-35 73.5q0 45 30 78t72 33q44 0 78.5 -37.5t34.5 -83.5q0 -40 -28 -67t-70 -27zM236 1118q-41 0 -66 26t-25 68q0 57 29 92t78 35q48 0 85.5 -31.5t37.5 -72.5q0 -40 -45 -78.5t-94 -38.5zM514 53q-26 -1 -44 9t-27 31t-13 37.5t-8 45.5 q-103 -68 -166 -74q-126 -15 -180 109q-30 104 -27 184q-2 132 70 453q4 25 23 53t44 29q31 6 56 -15t28 -53q6 -20 -4 -49q-25 -53 -43 -150.5t-24 -173.5q-2 -131 9.5 -185t41.5 -54q50 -2 104 64.5t64 148.5q11 128 71 473q3 24 6.5 40t12.5 38.5t26 35t41 13.5 q69 0 76 -49q0 -23 -2 -31q-73 -251 -86 -700q1 -13 9.5 -64t9.5 -76q0 -40 -19 -63.5t-49 -26.5z" />
<glyph unicode="&#xfd;" horiz-adv-x="757" d="M715 1513q32 -3 47.5 -21.5t13.5 -45.5q-2 -21 -16 -40.5t-37 -29.5q-31 -16 -78.5 -37.5t-70.5 -33t-52.5 -29.5t-49 -37t-36.5 -45q-21 -34 -57 -31q-37 4 -59.5 30.5t-20.5 61.5q3 44 51 80q274 185 365 178zM623 1075q48 0 69 -35.5t17 -76.5q-6 -77 -14 -237 t-19 -288.5t-33 -247.5q-18 -94 -50 -179.5t-84 -163t-118.5 -134t-156 -90t-193.5 -33.5q-148 0 -238 80t-90 191q0 116 86 116q76 0 76 -83q0 -68 45 -111t139 -43q142 0 251 108.5t164.5 289t55.5 401.5q-45 -59 -75.5 -95t-72 -76.5t-82.5 -59.5t-83 -19 q-168 0 -168 278q3 98 20.5 185t55.5 209q16 48 34.5 70.5t59.5 25.5q30 0 53 -16.5t23 -41.5q0 -27 -10 -49q-35 -85 -55.5 -204.5t-20.5 -215.5q0 -54 12 -81q80 33 156 153q60 92 92.5 163.5t60.5 170.5q3 10 10 40t11.5 41t14 28t23.5 23.5t34 6.5z" />
<glyph unicode="&#xfe;" horiz-adv-x="739" d="M688 762q10 -105 -72 -242q-88 -154 -264 -303q-63 -55 -121 -55l-2 -15q-3 -30 -12 -47q-14 -136 -8 -282q0 -40 -4 -49q-14 -31 -62 -35q-70 -3 -82 41q-9 21 -12 61v35q3 55 10.5 163t10.5 163q0 8 1 28.5t1 32.5q0 13 4 49q0 6 1 20t1 21l37 330v12q-3 21 -19 35 q-34 25 -37 47q-2 16 29 51q31 31 39 70q6 20 25 33q44 260 65 354q17 69 41 101.5t74 29.5q62 -3 51 -70q-3 -32 -11.5 -86t-25.5 -147t-27 -154q57 15 89 17q114 5 192.5 -52.5t87.5 -156.5zM506 635q26 66 20 147q-4 36 -37 54.5t-83 15.5q-64 -3 -109 -33 q-29 -194 -39 -295l-8 -64t-8.5 -71t-5.5 -57l6 -21q3 1 7.5 1.5t7 1t3.5 1.5q93 88 153.5 162t92.5 158z" />
<glyph unicode="&#xff;" horiz-adv-x="757" d="M627 1456q44 0 78 -37.5t34 -83.5q0 -40 -28 -67t-70 -27q-47 0 -82 31t-35 74q0 45 30.5 77.5t72.5 32.5zM287 1178q-41 0 -65.5 26t-24.5 68q0 58 28.5 92.5t77.5 34.5q47 0 85 -32t38 -73q0 -40 -45 -78t-94 -38zM623 1075q48 0 69 -35.5t17 -76.5q-6 -77 -14 -237 t-19 -288.5t-33 -247.5q-18 -94 -50 -179.5t-84 -163t-118.5 -134t-156 -90t-193.5 -33.5q-148 0 -238 80t-90 191q0 116 86 116q76 0 76 -83q0 -68 45 -111t139 -43q142 0 251 108.5t164.5 289t55.5 401.5q-45 -59 -75.5 -95t-72 -76.5t-82.5 -59.5t-83 -19 q-168 0 -168 278q3 98 20.5 185t55.5 209q16 48 34.5 70.5t59.5 25.5q30 0 53 -16.5t23 -41.5q0 -27 -10 -49q-35 -85 -55.5 -204.5t-20.5 -215.5q0 -54 12 -81q80 33 156 153q60 92 92.5 163.5t60.5 170.5q3 10 10 40t11.5 41t14 28t23.5 23.5t34 6.5z" />
<glyph unicode="&#x152;" horiz-adv-x="1380" d="M1401 1536q39 0 60 -18t18 -50q0 -41 -54 -67q-25 -10 -71.5 -24.5t-63.5 -20.5q-44 -15 -80 -27.5t-67 -25t-51 -20t-43 -19.5t-32 -15.5t-28.5 -16.5t-22 -14.5t-24 -17t-22.5 -16.5q-2 -21 -39 -375q138 58 247 98q48 19 72 21q32 0 52.5 -19t17.5 -45q0 -22 -13 -35 q-40 -43 -98 -65q-243 -94 -301 -143q-21 -139 -27 -267q-6 -92 5 -161q126 49 237 167q9 9 28.5 29t28 27.5t24 15.5t30.5 8q30 0 50.5 -25.5t18.5 -58.5q0 -9 -5 -21t-9 -20t-14.5 -24.5t-12.5 -20.5q-135 -150 -338 -241q-41 -17 -79 -17q-53 0 -86 30.5t-37 88.5 q-4 28 -4 43q-134 -174 -301 -174q-79 0 -143 46.5t-102.5 120t-57.5 161t-15 172.5q10 199 52 343t149 302q29 41 64 80t79 79t94 64.5t95 24.5q56 0 78.5 -25.5t19.5 -71.5q29 -29 43 -45q46 58 174 121q117 56 272.5 110t231.5 54zM379 147q70 1 139 91t111.5 204.5 t54.5 212.5q8 88 8 187q-2 126 -43.5 228t-124.5 142q-164 -131 -238 -331.5t-65 -434.5q3 -51 15.5 -102.5t32 -96t48.5 -72.5t62 -28z" />
<glyph unicode="&#x153;" horiz-adv-x="1116" d="M1145 373q33 0 53.5 -20t20.5 -44q0 -41 -68 -94q-56 -44 -170 -86.5t-190 -42.5q-211 0 -279 137q-54 -60 -141 -104q-50 -24 -92 -27q-65 -5 -120 26.5t-89 92.5q-31 44 -43 131q-5 45 2 111q27 184 145 335q26 33 35 62q8 50 43 82t84 35q30 3 67 -6q63 -26 109 -84 q32 -41 57 -101l6 12q54 100 144 172t170 72q71 0 122.5 -32.5t51.5 -92.5q0 -139 -94 -258q-132 -171 -346 -248q0 -71 41 -114t124 -43q20 0 52 4q52 6 116 37.5t114.5 59.5t74.5 28zM915 881q-40 -1 -87 -25t-88 -63.5t-68 -98.5t-27 -123q81 34 169 131.5t101 178.5z M446 391q32 97 23 174q-8 103 -80 230q-10 -5 -17 -8l-7 -3l-23 -18q-154 -161 -160 -377v-29q1 -8 17 -71q27 -56 69 -51q11 0 47 12q95 53 131 141z" />
<glyph unicode="&#x178;" horiz-adv-x="704" d="M565 1530q-47 0 -81.5 29.5t-34.5 70.5q0 42 30 73.5t72 31.5q44 0 78.5 -36t34.5 -79q0 -38 -28 -64t-71 -26zM211 1470q-41 0 -65.5 25t-24.5 64q0 56 28.5 88t77.5 32q48 0 85.5 -29.5t37.5 -68.5t-45 -75t-94 -36zM100 -193q-71 0 -71 64q0 28 18 84q20 64 89 309 t110 359q-39 75 -96.5 212t-81.5 240q0 2 -5.5 27t-5.5 31q0 46 15.5 65t56.5 19q25 0 44.5 -14.5t23.5 -43.5q24 -129 135 -340q11 23 23 52.5t18 41.5q32 71 118 264t134 298q28 55 52 79.5t56 24.5q30 0 50 -13t20 -38q0 -21 -17 -55q-220 -492 -292 -667 q-181 -445 -283 -865q-9 -62 -37.5 -98t-73.5 -36z" />
<glyph unicode="&#x2c6;" horiz-adv-x="673" d="M532 1135h-6q-36 0 -57 30q-3 8 -9.5 26.5t-8.5 22.5q-17 29 -52 80.5t-41 61.5l-161 -193q-24 -32 -56 -58t-59 -26q-23 0 -41 16t-18 38q0 27 41.5 82.5t111.5 139t107 138.5q46 66 94 66q43 0 78 -60q17 -30 61.5 -95t63.5 -101q30 -55 30 -95q0 -26 -15 -43.5 t-40 -23.5q-6 -6 -23 -6z" />
<glyph unicode="&#x2dc;" horiz-adv-x="980" d="M182 1223q-17 0 -33 23.5t-16 43.5q0 44 75 112t122 68q44 0 81 -22t72 -44t74 -22q35 0 58.5 12t43.5 48q6 10 15.5 28.5t13.5 24.5t13 12t22 6q31 0 55 -19t23 -46q-11 -80 -82.5 -146.5t-149.5 -66.5q-41 0 -94 24.5t-93.5 49t-51.5 24.5q-9 0 -18 -3t-18 -10 t-14 -11.5t-15.5 -15.5t-14.5 -15q-8 -9 -18 -22.5t-15 -18.5t-13.5 -9.5t-21.5 -4.5z" />
<glyph unicode="&#x2000;" horiz-adv-x="955" />
<glyph unicode="&#x2001;" horiz-adv-x="1911" />
<glyph unicode="&#x2002;" horiz-adv-x="955" />
<glyph unicode="&#x2003;" horiz-adv-x="1911" />
<glyph unicode="&#x2004;" horiz-adv-x="637" />
<glyph unicode="&#x2005;" horiz-adv-x="477" />
<glyph unicode="&#x2006;" horiz-adv-x="318" />
<glyph unicode="&#x2007;" horiz-adv-x="318" />
<glyph unicode="&#x2008;" horiz-adv-x="238" />
<glyph unicode="&#x2009;" horiz-adv-x="382" />
<glyph unicode="&#x200a;" horiz-adv-x="106" />
<glyph unicode="&#x2010;" horiz-adv-x="587" d="M127 610q-32 0 -55 17t-23 49q0 35 27 52.5t82 27.5q2 0 252 41q27 6 45 6q60 0 82 -51q2 -6 2 -17q0 -25 -15 -44t-41 -23q-227 -58 -356 -58z" />
<glyph unicode="&#x2011;" horiz-adv-x="587" d="M127 610q-32 0 -55 17t-23 49q0 35 27 52.5t82 27.5q2 0 252 41q27 6 45 6q60 0 82 -51q2 -6 2 -17q0 -25 -15 -44t-41 -23q-227 -58 -356 -58z" />
<glyph unicode="&#x2012;" horiz-adv-x="587" d="M127 610q-32 0 -55 17t-23 49q0 35 27 52.5t82 27.5q2 0 252 41q27 6 45 6q60 0 82 -51q2 -6 2 -17q0 -25 -15 -44t-41 -23q-227 -58 -356 -58z" />
<glyph unicode="&#x2013;" horiz-adv-x="757" d="M135 510q-59 -3 -78 39q-8 13 -8 31q0 33 39 57q38 17 72 22q48 6 201.5 31.5t224.5 32.5q24 4 30 4q69 4 86 -45q7 -21 7 -23q0 -19 -15 -37t-41 -28q-44 -15 -102 -25q-58 -6 -204.5 -30t-211.5 -29z" />
<glyph unicode="&#x2014;" horiz-adv-x="1241" d="M135 510q-39 0 -62.5 19t-23.5 49q0 23 20.5 41.5t55.5 25.5q9 3 63 8q178 14 424.5 44t411.5 44q58 4 82 4q86 0 86 -75q0 -52 -49 -64q-76 -16 -107 -20q-62 -6 -162.5 -18.5t-181.5 -18.5q-86 -5 -198 -15.5t-179 -15.5q-19 -1 -82.5 -4.5t-97.5 -3.5z" />
<glyph unicode="&#x2018;" horiz-adv-x="405" d="M307 981q-18 0 -28 4q-17 6 -29 17t-17 18t-13.5 24l-10.5 21q-12 31 -123 330q-4 16 -4 24q0 25 15 45.5t36 26.5q16 4 27 4q47 0 67 -47q10 -16 31 -88q20 -46 55.5 -133.5t46.5 -114.5q3 -11 12 -28.5t9 -24.5q0 -39 -21.5 -58.5t-52.5 -19.5z" />
<glyph unicode="&#x2019;" horiz-adv-x="366" d="M143 1079q-9 0 -28 13q-38 19 -31 61q0 14 8 27q40 82 74 141q15 27 34 64t32 61t26 45q36 67 94 57q9 0 17 -4q49 -21 37 -78q-3 -13 -13 -34q-6 -22 -20 -46l-105 -210q-33 -45 -59 -74t-66 -23z" />
<glyph unicode="&#x201a;" horiz-adv-x="399" d="M61 -182q-10 0 -28 12q-38 19 -31 61q0 14 8 27q40 82 74 141q15 27 34 64t32 61t26 45q17 32 42 47.5t52 10.5q9 0 17 -4q49 -21 37 -78q-3 -15 -13 -35q-6 -20 -20 -45l-105 -211q-33 -45 -59 -74q-25 -29 -66 -22z" />
<glyph unicode="&#x201c;" horiz-adv-x="684" d="M332 975q-17 0 -33 8q-23 7 -39 24.5t-21 29t-14 36.5q-50 114 -139 373q-4 20 -4 24q0 29 16.5 52.5t40.5 29.5q8 4 25 4q34 0 63 -53q8 -15 19 -52t16 -48l111 -279q3 -8 14.5 -30.5t11.5 -32.5q0 -43 -18.5 -64.5t-48.5 -21.5zM588 1083q-37 0 -60 23 q-132 185 -176 338q-2 6 -2 20q0 36 22.5 63t61.5 27q45 0 70 -63q20 -45 59 -128t51 -108q4 -9 16.5 -30.5t19 -37t7.5 -30.5q0 -1 1 -4.5t1 -5.5q0 -15 -10.5 -31t-23.5 -22q-17 -11 -37 -11z" />
<glyph unicode="&#x201d;" horiz-adv-x="622" d="M133 1040q-54 19 -51 78q2 26 22 76q25 60 72.5 171t54.5 126q33 75 99 57q53 -19 47 -75q0 -15 -4 -25q-9 -33 -34 -96.5t-28 -71.5q-9 -20 -36 -89.5t-46 -105.5q-11 -30 -39.5 -41.5t-56.5 -3.5zM401 1051q-21 0 -39 12q-22 17 -22 53q1 10 5 22t8.5 21t12.5 26t13 27 q123 213 135 236q18 36 37.5 51t46.5 12q35 -1 52 -29t14 -67q-3 -41 -25 -72q-40 -74 -129 -219q-56 -81 -109 -73z" />
<glyph unicode="&#x201e;" horiz-adv-x="655" d="M51 -221q-54 19 -51 78q2 22 23 75q25 60 72.5 171t54.5 126q33 76 98 58q53 -19 47 -76q0 -15 -4 -25q-9 -33 -34 -96.5t-28 -71.5q-8 -19 -35.5 -88.5t-46.5 -105.5q-11 -30 -39.5 -41.5t-56.5 -3.5zM319 -211q-20 0 -38 12q-23 18 -23 54q1 10 5 22t8.5 21t12.5 26 t13 27q14 24 43 73.5t51.5 88t40.5 73.5q18 36 37.5 51.5t46.5 12.5q35 -1 52 -29t14 -67q-3 -41 -25 -72q-40 -74 -129 -219q-57 -82 -109 -74z" />
<glyph unicode="&#x2022;" horiz-adv-x="430" d="M227 565q-72 -14 -141 58q-37 43 -37 86q0 29 19 65q27 51 80.5 78t121.5 27q46 0 78.5 -36.5t32.5 -90.5q0 -53 -50 -115.5t-104 -71.5z" />
<glyph unicode="&#x202f;" horiz-adv-x="382" />
<glyph unicode="&#x2039;" horiz-adv-x="827" d="M725 1278q43 0 64.5 -18.5t11.5 -40.5q-9 -42 -53 -86q-182 -174 -261 -242q-39 -32 -127.5 -103.5t-140.5 -115.5q102 -102 123 -121q40 -40 115 -110.5t104 -98.5q42 -37 60 -66.5t14 -68.5q-3 -22 -22.5 -35.5t-51.5 -13.5q-57 0 -69 47q-4 19 -19.5 41.5t-47 52 t-51.5 46.5t-66 53.5t-58 45.5q-133 108 -180 185q-21 26 -21 55q0 44 49 82q278 225 404 332q27 23 70.5 66t62.5 61q40 53 90 53z" />
<glyph unicode="&#x203a;" horiz-adv-x="802" d="M78 158q-43 0 -64.5 18.5t-11.5 40.5q9 42 53 86q192 183 260 242q39 32 128 104t141 115q-102 101 -123 121q-40 40 -115 110.5t-104 98.5q-42 37 -60 66.5t-14 68.5q3 22 22.5 35.5t51.5 13.5q57 0 69 -47q4 -19 19 -41.5t47.5 -52.5t51 -46t67 -54.5t57.5 -45.5 q65 -53 108 -95t72 -89q21 -26 21 -55q0 -44 -49 -82q-278 -225 -404 -332q-27 -23 -70.5 -66t-62.5 -61q-40 -53 -90 -53z" />
<glyph unicode="&#x205f;" horiz-adv-x="477" />
<glyph unicode="&#x20ac;" horiz-adv-x="978" d="M727 1491q63 0 134.5 -32.5t119 -80.5t47.5 -90q0 -33 -23 -57.5t-61 -24.5q-18 0 -28.5 5.5t-25 23.5t-18.5 22q-6 5 -24 21t-25 22t-22.5 18t-25.5 16.5t-23.5 9t-26.5 4.5q-90 0 -162.5 -99t-118.5 -256q108 18 166 23q24 4 31 4q69 4 86 -45q6 -18 6 -23 q0 -19 -14.5 -37t-40.5 -28q-43 -15 -103 -25q-47 -4 -167 -24q-22 -117 -25 -213q113 19 203 28q24 4 30 4q69 4 86 -45q7 -21 7 -22q0 -19 -15 -37.5t-41 -28.5q-38 -13 -102 -24q-22 -2 -48.5 -5.5t-60 -9t-53.5 -8.5q11 -104 40 -188.5t85 -142.5t129 -58 q36 0 70.5 21.5t65 43t57.5 21.5q22 0 36.5 -15.5t14.5 -39.5q0 -60 -91 -123.5t-171 -63.5q-86 0 -156.5 43.5t-118 118.5t-77 165.5t-42.5 193.5q-62 -11 -96 -13q-59 -3 -78 39q-8 13 -8 31q0 33 39 57q42 18 72 23q8 1 29 4t32 4v4q0 90 17 209q-14 -1 -40 -4t-38 -4 q-59 -3 -78 39q-8 13 -8 30q0 34 39 58q39 17 71 22l88 13q30 109 74.5 202t101.5 166.5t129 115.5t150 42z" />
<glyph unicode="&#x2122;" horiz-adv-x="1134" d="M524 1470q-19 0 -30 11q-47 0 -136 -43q-57 -372 -57 -564v-43q0 -77 -55 -77q-47 0 -47 34q-1 8 -1 17t0.5 19.5t0.5 15.5q4 37 27 252.5t32 312.5q-27 -10 -72 -25t-59 -20q-20 -10 -41 -10q-16 0 -26.5 11t-10.5 21q0 28 60 52l374 125q42 14 62 14q24 0 38.5 -14.5 t14.5 -30.5q0 -19 -23.5 -38.5t-50.5 -19.5zM1065 1180q-2 -40 -4 -128.5t-2 -95.5q-1 -30 6 -86.5t8 -66.5q0 -5 3 -15.5t3 -15.5q-10 -45 -43 -45q-36 0 -50.5 27.5t-14.5 64.5q-5 88 -3 216t9 200q-69 -143 -115 -301l-33 -119q-7 -22 -14 -33q-21 -24 -53 -24 q-33 0 -47 26q-7 13 -10 27t-4 33t-3 30q-9 43 -17.5 96t-18.5 118.5t-15 97.5q-14 -32 -25 -68.5t-16 -59.5t-13 -63.5t-11 -54.5q-7 -24 -23 -133q-5 -19 -9.5 -28.5t-16.5 -18t-31 -8.5q-13 0 -22 9t-9 21q-6 18 4 68q18 140 51 246q11 32 37 121q37 109 64 176 q17 53 63 53q58 0 58 -68q-10 -187 26 -415q82 266 170 440q5 11 12.5 29t12 27t12 19t17.5 14.5t24 4.5q33 0 49 -25.5t14 -58.5q-2 -46 -10 -116t-10 -117z" />
<glyph unicode="&#x25fc;" horiz-adv-x="1310" d="M0 1311h1311v-1311h-1311v1311z" />
<glyph horiz-adv-x="704" d="M618 442q13 -212 13 -292q0 -37 -0.5 -55t-2.5 -45.5t-7 -40t-14 -27t-23.5 -20t-34.5 -5.5q-40 0 -66 34t-26 85q0 53 1 116.5t1 116.5q0 103 -4 121q-154 -40 -291 -143v-66q0 -37 -4 -49q-3 -30 -22 -48t-54 -18q-42 1 -63 36.5t-21 82.5q0 13 4 37q144 733 307 1137 q35 85 73.5 129.5t90.5 44.5q13 0 24 -3.5t19 -11.5t14 -16.5t10 -23.5t7 -26.5t5 -32t3 -34t3 -37.5t3 -38q6 -110 26.5 -428.5t28.5 -479.5zM219 489q31 20 120 59t118 54q-6 60 -24 309.5t-30 331.5q-137 -448 -184 -754z" />
<glyph horiz-adv-x="911" d="M137 -6q-39 3 -64 29.5t-24 62.5q0 13 20 63t25 103q0 1 6 86q26 333 52 797q-41 32 -41 86q1 18 19 40t38 35q249 199 555 177q68 -6 105.5 -41.5t33.5 -90.5q-11 -47 -18 -63q-33 -63 -127 -182q-14 -18 -34 -39t-34 -35.5t-42.5 -42.5t-41.5 -41q160 -12 229.5 -73.5 t57.5 -188.5q-11 -157 -127 -295q-111 -130 -297.5 -260.5t-290.5 -126.5zM285 877q108 79 247 236.5t156 219.5q-90 7 -203.5 -31.5t-165.5 -87.5q-18 -68 -32 -161q-5 -75 -2 -176zM256 193q110 57 197 124q111 93 165 173t68 194q8 84 -86 94q-10 3 -32.5 0.5t-26.5 -1 t-24.5 -3t-26.5 -6t-31.5 -9.5t-41 -13t-54.5 -17.5t-72 -23.5q-33 -300 -35 -512z" />
<glyph horiz-adv-x="907" d="M516 0q-82 -1 -162 37t-141 106q-164 193 -164 539q0 190 64 379q55 163 193 286t272 123q68 0 120.5 -28t85 -78t51 -112t23.5 -136q1 -35 -26 -59.5t-58 -24.5q-20 0 -36.5 12.5t-20.5 34.5q-19 118 -53.5 172t-98.5 54q-86 0 -160 -62t-124 -164q-34 -75 -55 -185.5 t-21 -225.5q0 -233 86 -363q91 -145 203 -145q32 0 58 14.5t39.5 31.5t32.5 31.5t40 14.5q22 0 40.5 -18t18.5 -41q0 -61 -68.5 -126.5t-138.5 -66.5z" />
<glyph horiz-adv-x="948" d="M160 4q-62 4 -62 55q0 7 2 19.5t10 33t21 31.5q2 31 4 93t4 94q7 93 29.5 348t32.5 395q0 15 2 46t2 48q-7 -3 -23 -10t-22.5 -9.5t-18 -6t-21.5 -5t-22 -1.5q-49 5 -49 57q0 50 39 86q67 60 187 96.5t249 26.5q177 -15 276 -118t99 -267q0 -79 -32.5 -188.5t-86 -223.5 t-128 -225t-154.5 -196.5t-169.5 -135t-168.5 -43.5zM295 201q105 101 198 224.5t162.5 276.5t69.5 279q0 249 -221 264q-77 3 -139 -8q-6 -183 -34.5 -529.5t-35.5 -506.5z" />
<glyph horiz-adv-x="765" d="M170 -31q-58 0 -88.5 43t-32.5 111v45q49 663 90 1057q9 80 72 80q27 0 74 -13q130 85 291 165.5t212 80.5q33 0 54.5 -22.5t21.5 -49.5q0 -45 -35 -72t-102 -51q-77 -29 -211.5 -102.5t-216.5 -136.5q-35 -90 -51 -369l280 172q32 19 60 19q31 0 53 -20t23 -50 q1 -22 -7 -38t-17.5 -23.5t-30 -21.5t-31.5 -23q-114 -67 -328 -207q-14 -55 -21.5 -172t-5.5 -199q50 29 64 41q4 3 215 176q7 5 19 14.5t18.5 14t18 8.5t24.5 4q27 0 54.5 -22t27.5 -48q1 -20 -18.5 -52t-41.5 -54q-101 -97 -234 -191t-200 -94z" />
<glyph horiz-adv-x="745" d="M129 -35q-40 0 -61 39.5t-19 89.5q16 450 90 1088q-42 0 -65 21t-19 57q1 16 13.5 34t39.5 39.5t36 28.5t38 27q126 89 221.5 140.5t219.5 86.5q102 27 174 22q50 -4 81 -37t31 -71q-3 -30 -23.5 -49t-45.5 -17q-23 0 -50 14.5t-42 14.5q-70 0 -203 -71t-234 -148 q-10 -48 -21 -127.5t-17.5 -135.5t-16 -149t-10.5 -104q93 48 205.5 85.5t148.5 37.5q28 1 44 -16.5t11 -41.5q-3 -50 -67 -75q-209 -86 -357 -189q-22 -194 -22 -414q0 -8 11 -42.5t11 -53.5q0 -32 -29 -58t-73 -26z" />
<glyph horiz-adv-x="937" d="M291 -14q-111 0 -172.5 89t-69.5 234q-6 452 254 830q102 144 210 244.5t194 103.5q116 3 116 -72q0 -26 -14.5 -49t-40.5 -33q-49 -18 -78.5 -30.5t-64.5 -35t-56 -48.5q-340 -403 -360 -869q-3 -52 4.5 -98t33 -77.5t64.5 -24.5q34 6 53.5 14.5t55.5 34.5 q112 89 208.5 226.5t96.5 225.5q0 41 -16 54q-42 -16 -77.5 -47t-55 -57.5t-46.5 -70.5q-34 -65 -38 -71q-25 -35 -72 -35q-74 0 -74 88q0 15 4 47q41 103 148 203t186 100q5 1 19.5 3.5t21.5 2.5q80 0 122 -57.5t42 -140.5q0 -144 -117 -325t-268 -288q-44 -30 -103 -50.5 t-110 -20.5z" />
<glyph horiz-adv-x="886" d="M602 8q-45 0 -61.5 26t-10.5 87l60 518q2 13 2.5 27.5t0.5 35.5t1 37q-199 -80 -328 -192q-18 -13 -28 -82q-15 -251 -17 -309q-7 -77 -24 -110.5t-66 -33.5q-82 0 -82 107q22 561 86 991q8 64 33.5 100.5t67.5 36.5q33 0 51 -18t18 -49q0 -17 -2 -25 q-24 -101 -38.5 -226t-8.5 -194q28 14 170.5 88t204.5 103q39 176 74 575l6 51q10 62 71 62q52 0 67.5 -39.5t10.5 -118.5q-11 -94 -30 -282.5t-31 -282.5q-9 -78 -41 -328.5t-47 -386.5q-3 -14 -6.5 -43t-4.5 -37q-15 -40 -42 -64t-56 -24z" />
<glyph horiz-adv-x="339" d="M111 2q-28 0 -45 26.5t-17 75.5q0 56 33 469.5t33 479.5q0 70 4 90q6 67 31.5 97t74.5 20q35 -3 53 -37.5t13 -79.5q-30 -231 -50 -515.5t-20 -465.5q0 -86 -22.5 -123t-87.5 -37z" />
<glyph horiz-adv-x="851" d="M295 -176q-61 0 -111 21.5t-83.5 59t-56.5 88t-33.5 107.5t-10.5 119q0 191 119 369q37 57 76 57q24 0 44.5 -16.5t20.5 -40.5q0 -30 -22 -70q-93 -171 -93 -297q0 -46 7.5 -89.5t22.5 -82.5t42.5 -62.5t63.5 -23.5q53 0 97.5 22.5t77 65t56.5 92.5t42 118t29 127t21 132 q12 99 23.5 453.5t19.5 437.5q3 47 37.5 74.5t69.5 21.5q17 -1 33 -24t16 -45q0 -15 -4 -39q-15 -76 -23 -168t-9 -151.5t-1 -166.5q0 -165 -2 -243q-6 -97 -16.5 -182.5t-29 -173t-43.5 -158.5t-61.5 -134t-81.5 -106t-105.5 -67.5t-131.5 -24.5z" />
<glyph horiz-adv-x="856" d="M125 -76q-43 3 -61 40.5t-13 88.5q14 196 58 621q6 93 16.5 199t24 233t20.5 199q8 69 24.5 101t53.5 32q32 0 49.5 -16t17.5 -44q0 -19 -6 -43q-4 -51 -18 -198t-22.5 -255.5t-8.5 -158.5q13 17 94 132t117 163q54 72 155 213t150 207q21 32 51 58t58 26q27 -3 48 -22 t21 -42q0 -17 -17 -48t-32 -50q-104 -126 -253 -330.5t-236 -345.5q116 -167 252 -309q17 -15 30 -43t13 -58q0 -25 -15 -44t-41 -19q-28 0 -58.5 20.5t-47.5 42.5q-27 34 -78 91.5t-76 87.5q-9 12 -36 52t-42 58q-10 -9 -18.5 -17t-14.5 -14t-12.5 -13.5t-9.5 -10.5 t-8.5 -11t-7 -10t-8 -12t-7.5 -12q-19 -99 -22.5 -269.5t-11.5 -213.5q-12 -56 -72 -56z" />
<glyph horiz-adv-x="722" d="M170 37q-90 0 -111 94q-10 43 -10 162q0 110 21 377q29 439 92 721q8 48 36.5 84t69.5 36q36 0 64 -22t28 -53t-26.5 -72.5t-30.5 -63.5q-64 -359 -82 -628q-14 -191 -14 -271q0 -98 10 -172q200 192 242 230q12 11 30.5 30t27.5 27t23 15.5t29 7.5q28 0 54 -22.5 t26 -49.5q0 -18 -24 -57t-39 -54q-19 -18 -291 -268q-58 -51 -125 -51z" />
<glyph horiz-adv-x="1034" d="M985 1413q0 -7 -8 -78t-8 -75q-28 -303 -43 -615.5t-15 -425.5q0 -36 5.5 -108t5.5 -109v-14q0 -53 -18.5 -83t-69.5 -30q-48 0 -66 36t-23 109q-4 50 5 213q1 22 13.5 201t20.5 336.5t11 296.5q-96 -255 -131 -367q-45 -142 -69 -230t-46 -204q-21 -100 -41.5 -141 t-61.5 -41q-38 0 -52 21t-21 65q0 4 -8.5 81t-10.5 116q-5 76 -18 173t-32 222.5t-25 171.5q-13 -79 -44.5 -253t-35.5 -194q-9 -64 -17.5 -191t-17.5 -190q-12 -81 -82 -81q-23 0 -38.5 8t-24 19.5t-13 31t-5.5 34.5t-1 38q0 53 8 94q2 14 15.5 117t16.5 125t16 111.5 t19.5 124.5t20 112t24.5 126.5t27 115.5t33 128q14 58 43 97t74 39q50 0 83.5 -41.5t33.5 -96.5q0 -67 4 -138.5t12 -143.5t14 -120t16 -117.5t13 -88.5q73 240 107 347t85.5 247.5t100.5 241.5q10 17 23.5 43t21 38t20 25.5t29 19t39.5 5.5q25 0 42 -8t25.5 -18.5t13 -34.5 t5 -40.5t0.5 -52.5z" />
<glyph horiz-adv-x="872" d="M748 1495q82 0 75 -121q-15 -187 -44 -516.5t-44 -517.5q-6 -49 -30 -147q-9 -40 -37.5 -64.5t-69.5 -24.5q-26 0 -47.5 15.5t-32.5 38.5l-201 377q-17 34 -73 120q-13 -137 -13 -166q-22 -211 -22 -419q0 -8 8 -47t8 -54q0 -47 -23.5 -63.5t-70.5 -16.5 q-35 1 -58.5 36.5t-23.5 82.5q0 65 18 360t19 416q0 40 6.5 113t7.5 90q5 48 35 84.5t66 36.5q48 0 61 -49q50 -141 146 -353t163 -313q3 30 16 144t15 163q9 154 28 395.5t23 293.5q0 18 6 36q14 70 89 70z" />
<glyph horiz-adv-x="927" d="M387 125q-139 0 -237 127q-111 156 -99 358q28 439 381 805q53 53 115 53t110 -45q69 -61 117 -145q105 -181 105 -475q0 -243 -127 -438q-79 -123 -199 -193q-81 -47 -166 -47zM387 272q41 0 80 23q144 93 203 270q45 128 45 264q0 190 -86 373q-8 17 -30 51.5t-32 51.5 q-155 -112 -253.5 -325.5t-98.5 -420.5q0 -125 57 -221q42 -66 115 -66z" />
<glyph horiz-adv-x="825" d="M145 2q-45 0 -69.5 29.5t-26.5 62.5q1 7 2 22t2 21q59 548 109 1110q-33 3 -44 28t-5 54q14 70 104.5 135t212.5 88q76 12 135 7q68 -10 113 -26.5t81.5 -48t52.5 -85t13 -131.5q-2 -74 -56 -171t-135 -185.5t-178 -166t-184 -120.5q-38 -246 -47 -494q-1 -26 -2 -40.5 t-5.5 -34t-12.5 -30t-23.5 -18t-36.5 -6.5zM279 807q71 32 152.5 103t149 170t74.5 186q6 61 -26 100t-88 47q-17 0 -26.5 2t-26 -2.5t-26 -6t-26 -9t-24.5 -11t-23.5 -11.5t-22 -12t-20 -11.5t-18.5 -10.5q-6 -63 -18.5 -181.5t-20 -203t-10.5 -149.5z" />
<glyph horiz-adv-x="909" d="M655 158q16 -41 52 -127q3 -11 11.5 -29t8.5 -25q0 -38 -21.5 -57.5t-52.5 -19.5q-18 0 -28 4q-17 6 -29 17t-17 18t-13.5 24l-10.5 21l-25 63q-74 -47 -163 -47q-79 0 -143 46.5t-102.5 120t-57.5 161t-15 172.5q10 199 52 343t149 302q29 41 64 80t79 79t94 64.5 t95 24.5q56 0 78.5 -25.5t19.5 -71.5q174 -165 180 -526q-2 -156 -57 -325.5t-148 -286.5zM379 147q46 0 98 46q-32 82 -45 120q-4 16 -4 25q0 25 15 45.5t36 26.5q16 4 27 4q47 0 67 -47q8 -13 11 -23q82 155 100 311q8 88 8 187q-2 126 -43.5 228t-124.5 142 q-164 -131 -238 -331.5t-65 -434.5q3 -51 15.5 -102.5t32 -96t48.5 -72.5t62 -28z" />
<glyph horiz-adv-x="815" d="M121 -51q-35 0 -53.5 37.5t-18.5 89.5q8 241 39.5 618t46.5 504q-18 0 -32.5 13t-14.5 28q3 53 68.5 99.5t166.5 73t207 26.5q285 -6 285 -269q0 -41 -14 -82.5t-43.5 -85.5t-58 -80t-74.5 -90q-4 -5 -6.5 -7.5t-6 -7t-6.5 -7.5q-44 -53 -95.5 -105t-75.5 -75t-82 -74 t-60 -53q26 -11 139.5 -59.5t184 -79t96.5 -44.5q24 -12 41.5 -33t17.5 -44q-2 -33 -19.5 -52.5t-50.5 -19.5q-26 0 -67 12q-40 15 -205.5 82t-206.5 78q-10 -52 -10 -109q0 -27 3 -102t1 -106q-11 -76 -96 -76zM258 694q93 76 229 221.5t160 210.5q12 46 12 60 q0 100 -157 100q-108 0 -185 -51q-28 -209 -59 -541z" />
<glyph horiz-adv-x="813" d="M352 59q-93 0 -170 60q-57 44 -86 98t-45 129q-5 29 7.5 58t39.5 40q25 5 27 5q35 0 59 -31q26 -30 39.5 -72t22.5 -57q19 -32 50.5 -53t57.5 -19q72 7 133.5 90t61.5 166q0 107 -105 195q-31 27 -127.5 89t-107.5 70q-121 93 -121 215q0 55 31 115q116 259 368 406 q24 14 62 25t65 11q55 0 85.5 -22t48.5 -70q16 -39 16 -92q0 -63 -64 -72q-53 -3 -75 48q-16 29 -31 65q-222 -142 -315 -348q-19 -43 -19 -66q0 -52 64 -98q13 -9 65.5 -43t102 -68.5t75.5 -58.5q148 -133 148 -315q0 -108 -59.5 -204t-172.5 -161q-60 -35 -131 -35z" />
<glyph horiz-adv-x="798" d="M303 -39q-33 2 -55 25.5t-23 64.5q-3 33 2 125.5t12 178.5t16.5 191t10.5 124q10 121 30.5 307.5t27.5 255.5q-27 -7 -70.5 -21.5t-60.5 -19.5q-16 -6 -41 -20.5t-45 -21.5t-44 -7q-31 0 -47 16t-16 37q0 34 33 66.5t97.5 62.5t125.5 52t152 50q8 3 121.5 41.5t191 59 t125.5 20.5q31 0 53.5 -20.5t22.5 -48.5q0 -46 -41 -70q-17 -9 -57 -11.5t-54 -6.5q-136 -40 -289 -103q-67 -479 -80 -1073q-1 -20 3 -60t4 -57q-1 -58 -32 -97.5t-73 -39.5z" />
<glyph horiz-adv-x="808" d="M219 -20q-85 0 -123 102q-47 126 -47 348q0 273 76 694q12 64 39 123q11 26 44 50t52 24q38 0 58.5 -30.5t11.5 -55.5q-123 -408 -123 -727q0 -51 0.5 -77.5t1.5 -69.5t4 -65.5t8 -47.5t13.5 -36t19.5 -11q42 0 117 109.5t106 197.5q8 70 22.5 237t30 291.5t37.5 208.5 q3 10 8.5 29.5t8.5 29t8.5 26t9.5 25.5t10.5 21t12.5 18.5t14.5 13t18 9t20.5 2.5q36 0 59 -23t23 -55q0 -30 -21.5 -78t-27.5 -92q-52 -373 -60 -471q60 -10 60 -79q0 -21 -3.5 -43t-12 -50t-13 -42t-18 -48t-15.5 -39q0 -40 7.5 -112t17.5 -103q16 -50 16 -73 q0 -32 -23.5 -50t-52.5 -18q-35 0 -64 47.5t-46 132.5q-16 -16 -82.5 -99.5t-89.5 -100.5q-58 -43 -113 -43z" />
<glyph horiz-adv-x="663" d="M684 1620q35 0 56.5 -18.5t21.5 -51.5q0 -27 -8 -43q-99 -231 -185 -630q-11 -50 -40 -174.5t-43 -194.5t-28 -181t-14 -210q0 -81 -22 -119t-92 -39q-31 -1 -55.5 9t-41 32.5t-28 44.5t-19 58.5t-11.5 60t-9 62.5q-1 11 -2 16q-35 223 -45 385q-1 9 -7.5 79t-8.5 87 t-8.5 76.5t-11.5 87.5t-13.5 75.5t-18.5 86t-22 77.5q-4 24 -4 29q0 45 45 61q12 4 24 4q11 0 20.5 -2.5t17 -5.5t15 -10t12.5 -11.5t11 -15.5t8.5 -16t7.5 -19t6.5 -18t6.5 -20t6 -19q33 -132 52 -275.5t30 -275t22 -194.5q7 33 32 164.5t38 183.5q75 309 172 686 q50 178 133 178z" />
<glyph horiz-adv-x="1019" d="M1042 1559q30 0 53 -19.5t23 -46.5q0 -25 -22 -61q-16 -26 -30 -55.5t-24.5 -53t-22 -59t-17.5 -55t-16 -60.5t-13.5 -56t-13.5 -61t-13 -57q-46 -216 -158 -811q-12 -83 -34 -120.5t-74 -37.5q-13 0 -23 3.5t-16.5 7.5t-12.5 14.5t-9 17.5t-6.5 22.5t-4.5 24t-4 29 t-4 29.5q-18 117 -52.5 424.5t-41.5 361.5q-17 -68 -109 -446q-12 -57 -25.5 -178t-27.5 -183q-12 -49 -41 -88t-67 -39q-36 0 -59.5 19t-29.5 49q-7 34 -10 59l-76 844q-9 95 -12 188q0 129 82 129q38 0 58 -19t18 -52q0 -9 -1 -26t-1 -26q0 -119 14 -326.5t35 -324.5 q58 200 168 651q5 20 10 52.5t9.5 53.5t13.5 43t26.5 33t44.5 11q29 0 53.5 -18t34.5 -50q19 -47 23 -127q26 -379 68 -637q16 77 45 247t32 188q50 260 103 413q26 74 66 126.5t91 52.5z" />
<glyph horiz-adv-x="868" d="M780 1571q70 -7 62 -92q-2 -37 -43 -109q-114 -266 -271 -612q186 -688 183 -742q-3 -31 -26.5 -53t-47.5 -20q-79 6 -82 98q-1 34 -37 184t-37 154q-21 85 -45 174q-20 -46 -61 -137t-66 -147t-61 -142.5t-68 -169.5q-4 -10 -10.5 -32.5t-13 -39.5t-15.5 -28 q-10 -15 -31.5 -24t-43.5 -7q-35 3 -51 25t-13 55q2 36 37 119l338 747q-27 94 -74.5 258.5t-62.5 216.5q-20 77 -76 127q-30 24 -27 62q3 33 34 53.5t71 17.5q25 -2 46 -23.5t29 -37.5t25 -60q2 -3 2.5 -5t1.5 -4.5t2 -4.5q62 -185 121 -395l25 53q13 29 45 97.5t50.5 109 t42.5 96t39.5 99.5t24.5 79l4 15q6 22 30 35t50 10z" />
<glyph horiz-adv-x="673" d="M94 -330q-25 0 -45 19t-20 45q0 21 7.5 52.5t18 65.5t35.5 112.5t47 154.5q27 85 70 219.5t72.5 227.5t44.5 141q-16 30 -100.5 154.5t-110.5 168.5q-43 83 -43 119q0 28 22 43.5t45 15.5q20 0 36.5 -10.5t24 -20.5t23.5 -34q25 -39 53.5 -78t65.5 -88t61 -82 q27 69 63 168t79 221t63 176q2 5 12.5 37.5t16.5 42.5q12 43 57 43q34 0 57 -16t23 -39q0 -39 -20 -109q-33 -96 -109.5 -294.5t-110.5 -299.5q-15 -44 -54 -163.5t-55.5 -169t-48.5 -149.5t-51.5 -163.5t-44.5 -149.5t-47 -165q-5 -16 -22 -111q-22 -84 -115 -84z" />
<glyph horiz-adv-x="899" d="M82 -113q-38 0 -58.5 24t-13.5 64q9 93 51 181q47 96 140 271t143 261q196 326 342 535l-46 -13q-47 -12 -57 -14.5t-54.5 -15.5t-65 -20.5t-64 -22t-74.5 -27.5t-73 -31.5t-82 -38.5q-65 -26 -107 -26q-28 0 -45.5 16.5t-17.5 44.5q0 30 41 55q74 45 198.5 93t306 107.5 t206.5 68.5q52 22 100 22q34 0 53 -17t19 -48q0 -49 -37 -103q-52 -82 -161 -232.5t-163 -236.5q-93 -146 -204 -369t-128 -300l97 55q29 14 78 38.5t71 35t51 24t43.5 18.5t22.5 5q30 0 50 -22t20 -44q0 -18 -17.5 -37t-30 -27t-43.5 -26q-72 -41 -366 -203 q-88 -45 -125 -45z" />
<glyph horiz-adv-x="733" d="M664 981q20 -23 20 -63q0 -14 -8 -29t-15.5 -24t-24 -25.5l-20.5 -20.5q-13 -111 -24 -221q-2 -29 -9.5 -126t-9.5 -150q0 -41 9 -142q4 -8 4 -22q0 -34 -23 -52t-51 -18q-32 0 -56.5 27.5t-37.5 68.5q-6 -4 -31 -20.5t-31 -20t-27 -16t-28.5 -16t-24.5 -11.5t-28 -10.5 t-25 -5t-28 -2.5q-67 0 -118.5 48t-51.5 114q0 69 33.5 150t77.5 146.5t113 143t113 121t103 98.5q12 48 12 66q0 22 -12 22q-50 0 -110.5 -36.5t-108.5 -86.5q-2 -3 -8 -12.5t-8 -12.5t-7 -9.5t-9 -9t-10 -6t-13.5 -4.5t-16.5 -1q-27 0 -46 17t-19 47q0 13 8.5 34.5 t19.5 34.5q75 88 189.5 147.5t210.5 59.5q120 0 127 -172zM418 469q36 138 49 250q-102 -93 -167 -186t-103 -203q-9 -32 -9 -39q0 -39 37 -39q50 0 110 62t83 155z" />
<glyph horiz-adv-x="798" d="M248 1665q11 0 20 -2t15.5 -4t13 -8t10 -8.5t7.5 -12t5.5 -12t4.5 -14.5t3 -14t2.5 -15t2.5 -14v-5q0 -3 -13 -55q-15 -109 -33.5 -353t-29.5 -317q145 89 260 89q103 0 168.5 -64t65.5 -168q0 -75 -23 -131q-118 -313 -412 -510q-71 -43 -135 -43q-125 0 -131 105 q0 48 8 100l29 276q-12 9 -23.5 33.5t-11.5 52.5q0 55 39 99q15 58 22.5 112t9.5 93t5 120t8 150q6 70 12 228t15 206q7 33 29.5 59.5t56.5 26.5zM293 670q-43 -38 -49 -88q-11 -105 -22 -187.5t-29 -253.5q169 99 291 252.5t122 282.5q0 46 -32 70t-78 24q-36 0 -100 -32 t-103 -68z" />
<glyph horiz-adv-x="665" d="M410 119q-68 -10 -135.5 13t-117 66.5t-83 100t-41.5 111.5q-21 88 12 209t112.5 237.5t182.5 183.5q53 35 102 45q66 9 115.5 -16t56.5 -74q2 -8 2 -32q-11 -106 -43 -172q-13 -26 -40 -36.5t-46 -6.5q-55 19 -55 75q0 19 12.5 72t12.5 68q-121 -90 -209.5 -248.5 t-65.5 -259.5q11 -68 58.5 -132.5t115.5 -68.5q33 -1 82.5 26t57.5 29q38 8 59.5 -9t26.5 -46q7 -44 -47 -84t-125 -51z" />
<glyph horiz-adv-x="831" d="M260 90q-97 0 -166 68t-69 174v20q0 238 148 411t400 222q7 196 56 473q9 50 45.5 82.5t75.5 32.5q25 0 37 -22.5t12 -51.5q0 -25 -22 -84t-25 -72q-22 -113 -31 -344q86 -27 86 -69q0 -26 -26.5 -57.5t-51.5 -34.5q-11 -208 -18 -291q-5 -54 -8 -136t-3.5 -151t-1.5 -78 q-5 -39 -20.5 -57.5t-46.5 -18.5q-22 0 -37 11.5t-22.5 36t-10.5 44t-6 54.5q-166 -162 -295 -162zM299 252q58 0 122 67.5t105 165.5t41 183q0 88 6 168q-169 -36 -273.5 -160t-115.5 -291q-6 -133 115 -133z" />
<glyph horiz-adv-x="782" d="M358 96q-150 0 -222 79.5t-70 219.5q-41 23 -41 70q0 22 16.5 45.5t36.5 34.5q14 111 92.5 249t173.5 216q38 31 86.5 53t89.5 22q63 0 98 -37.5t35 -111.5q0 -90 -33.5 -177.5t-89.5 -150.5q-34 -43 -74 -75.5t-86.5 -54t-78 -33t-80.5 -25.5q0 -74 32.5 -119t100.5 -45 q85 0 149 23.5t138 85.5q22 19 31.5 27t23 14t27.5 6q26 0 47.5 -20.5t21.5 -47.5q0 -23 -28.5 -63t-53.5 -60q-159 -125 -342 -125zM246 594q123 28 184.5 116.5t61.5 204.5q-84 -41 -154.5 -128.5t-91.5 -192.5z" />
<glyph horiz-adv-x="784" d="M293 -291q-27 0 -45 29.5t-23.5 61.5t-5.5 61q-3 99 -4 238.5t-2 232.5t-4 121q-21 -15 -42 -32t-30.5 -24t-21.5 -12.5t-25 -5.5q-25 0 -45 17t-20 42q0 56 63 105q15 13 47 40.5t55 46.5t43 34q41 410 211 743q94 186 228 299q63 56 125 86.5t139 30.5q61 0 98 -36 t37 -93q0 -31 -14 -53.5t-39 -26.5q-20 -4 -27 -4q-45 0 -67 51q-1 2 -3 3.5t-6.5 5.5t-9.5 9q-70 -18 -153 -98q-40 -38 -78 -90.5t-60.5 -91.5t-56.5 -103q-110 -240 -166 -553q43 19 129.5 68.5t141.5 67.5q97 33 126 -25q17 -31 -3.5 -55t-71.5 -51q-52 -22 -173 -98.5 t-171 -98.5q-7 -68 -7 -161.5t3.5 -202t3.5 -150.5q0 -39 9 -129t7 -137q0 -20 -22.5 -36.5t-51.5 -23.5q-6 -2 -18 -2z" />
<glyph horiz-adv-x="931" d="M233 -358q-115 0 -217.5 52t-113.5 132q-10 139 78 280.5t233 253.5q42 34 57.5 67t3.5 77q-14 9 -61 18q-58 24 -94.5 64t-40.5 90q-13 88 57 189.5t182 187.5q46 36 116 63t132 33l17 43q31 75 99.5 130.5t158.5 78.5q35 11 63.5 -2.5t28.5 -48.5q0 -8 -2.5 -15.5 t-9.5 -15t-13 -13t-18 -13l-20 -12.5t-23.5 -14t-24.5 -14q-121 -62 -112 -125q3 -34 43 -71q70 -64 79 -139q7 -67 -30 -130q-104 -188 -363 -264q-1 -3 -3 -7.5t-3 -6.5t-2 -5t-1.5 -5l-1 -4t-0.5 -5.5t-0.5 -5.5t-0.5 -7.5v-9v-11.5q62 -32 78 -50.5t35 -76.5 q79 -12 127 -25q149 -43 161 -170q11 -122 -77 -233q-94 -114 -241.5 -187t-275.5 -73zM348 649q73 14 148 52.5t126.5 92t51.5 103.5q-6 45 -49.5 82t-85.5 25q-96 -17 -150 -66q-64 -47 -110 -115t-46 -127q6 -56 115 -47zM219 -211q127 0 237 57t181 158q16 25 26.5 68 t10.5 67q-8 37 -72 52.5t-133 11.5q-47 -2 -113 -31q-28 -17 -57 -20q-46 0 -78 30q-48 -42 -79 -77.5t-58 -99t-27 -136.5q0 -34 48.5 -57t113.5 -23z" />
<glyph horiz-adv-x="714" d="M666 885q0 -51 -17 -107q-40 -154 -66 -332.5t-26 -295.5q0 -27 4 -86t4 -82q0 -35 -22 -60.5t-60 -25.5q-51 0 -66.5 43.5t-15.5 142.5q0 67 36.5 321.5t70.5 440.5q-28 -32 -197 -207q-69 -75 -69 -166q-3 -69 -21 -307q-1 -28 -3 -44t-7.5 -37t-14 -32.5t-24.5 -19.5 t-39 -8q-30 0 -55.5 26.5t-24.5 59.5q4 39 25 260q6 29 0 63q-29 19 -29 76q0 71 47 115q16 110 33 234.5t36 273.5t30 233q10 91 14 106q3 31 23 48.5t49 17.5q28 0 45.5 -18t17.5 -50q0 -36 -3 -79t-6.5 -73.5t-10 -83t-9.5 -77.5q-5 -46 -17 -134.5t-17 -129.5 q0 -3 -2.5 -27t-4.5 -41q71 63 95 84q9 8 42.5 38.5t45 38.5t38 20.5t54.5 15.5q47 6 79.5 -20.5t35.5 -73.5q2 -12 2 -41z" />
<glyph horiz-adv-x="311" d="M197 1085q-35 0 -69 30t-40 63q-1 32 22.5 55.5t57.5 23.5q37 0 64.5 -22t29.5 -51q4 -43 -15 -71t-50 -28zM49 248q0 240 49 577q3 35 22.5 57.5t53.5 22.5q71 0 68 -69q-29 -372 -29 -557q0 -52 -18.5 -86.5t-59.5 -34.5q-34 0 -60 23.5t-26 66.5z" />
<glyph horiz-adv-x="292" d="M158 1298q-44 -8 -76 33q-21 21 -21 47q0 21 11 35q29 57 110 57q25 0 43.5 -19.5t18.5 -47.5q0 -30 -28 -64.5t-58 -40.5zM-303 -410q-77 0 -139 44t-92.5 105t-30.5 122q0 63 26.5 110t81.5 47q29 0 45.5 -15.5t16.5 -41.5q0 -14 -7.5 -39.5t-7.5 -54.5 q0 -55 36 -106.5t81 -51.5q50 0 117 65.5t106 129.5q116 182 142 538q12 218 12 338q0 29 -1 68t-1 47q-4 26 -0.5 59.5t11 63t27.5 49.5t48 20q57 0 57 -90q0 -22 -2.5 -78t-1.5 -85q2 -29 2 -97q0 -113 -12 -266q-28 -364 -86 -502q-34 -81 -72.5 -144.5t-90.5 -119 t-119.5 -85.5t-145.5 -30z" />
<glyph horiz-adv-x="696" d="M111 39q-74 -6 -84 67q-2 8 -2 29q8 82 16 125q0 10 2.5 36.5t1.5 41.5q-8 30 -16 45q-4 4 -4 12q0 7 4 31q19 32 29 73.5t12 70t3.5 80t2.5 71.5q11 128 27.5 395.5t17.5 286.5q2 40 24 96q9 45 68 49q27 3 49 -12t25 -37q0 -14 -2 -20q-17 -46 -24 -108.5t-9 -146 t-4 -108.5q-1 -42 -4 -113.5t-5 -130.5t-3 -112l14 -10q9 11 23 30.5t20 26.5l287 348q28 36 61 59q22 16 45 19q27 2 62 -21q17 -24 22 -41q0 -23 -18 -47l-35 -39q-114 -126 -237.5 -283.5t-198.5 -246.5q-1 -6 -8.5 -16t-10.5 -15q16 -8 147.5 -82.5t206.5 -97.5 q16 -2 35 -10q34 -13 37 -47q2 -30 -11.5 -49.5t-41.5 -20.5q-63 -4 -109 12q-32 14 -64 30.5t-76 41.5t-62 35q-17 9 -52 30.5t-55 32.5l-10 -47q-13 -114 -21 -200q0 -2 -2 -15t-4 -20q-12 -72 -69 -78z" />
<glyph horiz-adv-x="335" d="M139 92q-42 0 -66 25t-24 63q0 175 17 322q28 369 90 960q12 114 31.5 163t70.5 56q38 0 58 -18t20 -43q0 -23 -4 -37q-3 -7 -12 -28.5t-14 -36.5t-7 -31q-5 -54 -34.5 -346t-42 -483.5t-13.5 -385.5v-96q0 -32 -23 -58t-47 -26z" />
<glyph horiz-adv-x="980" d="M907 901q0 -25 -3 -73t-3 -72q0 -102 -11 -304t-13 -315q7 -34 4 -65q-26 -80 -86 -80q-68 0 -68 102q-1 61 14.5 297t16.5 328l-72 -125q-100 -176 -158 -299q-22 -49 -38 -67.5t-50 -18.5q-19 0 -31 10.5t-16.5 36t-5.5 43.5t0.5 58.5t1.5 54.5q0 41 -1 95t-2.5 123 t-2.5 107q-86 -139 -102 -178q-6 -13 -26 -56t-27 -61t-15 -56t-8 -79q0 -39 -30.5 -71.5t-68.5 -32.5q-14 0 -24.5 4t-16.5 14t-10 18t-5 24t-1.5 25t0 27.5t0.5 24.5q4 79 25 268q6 50 16 151t16 150q0 31 9 66q12 26 34 39.5t46 11.5q64 -9 55 -82q0 -6 -3 -40.5 t-6.5 -82t-4.5 -84.5q45 70 83 140q74 110 121 110q37 0 59 -30t25 -72q2 -40 2 -271q39 59 107.5 179.5t99.5 169.5q11 19 32.5 28.5t47.5 3.5q37 0 65.5 -27.5t28.5 -66.5z" />
<glyph horiz-adv-x="669" d="M590 678q-24 -229 -27 -301v-82q1 -11 4.5 -42.5t3.5 -47.5q2 -33 -16 -54t-51 -22q-41 -3 -66 32.5t-30 86.5q0 8 2 25t2 22q4 53 22 256t21 287q-98 -76 -156 -144.5t-78 -161.5q-24 -112 -24 -262q0 -44 -18 -65t-48 -21q-91 0 -82 135l49 572q1 18 -1 52t-1 50 q0 33 17.5 54t46.5 24q29 2 50.5 -16t25.5 -51q7 -27 10 -140q64 60 125 95.5t102 35.5q78 6 113 -19t35 -91q0 -22 -14.5 -106t-16.5 -101z" />
<glyph horiz-adv-x="710" d="M295 158q-104 0 -178 70.5t-88 179.5q-4 20 -4 65q0 70 22 141q76 223 232 363q47 50 124 76q10 4 35 4q53 0 95 -43.5t42 -100.5q0 -20 -2 -30q-4 -8 -4 -23q0 -32 21 -67q72 -113 72 -232q0 -88 -48 -186q-94 -204 -319 -217zM287 311q98 0 163 76.5t66 200.5 q0 91 -113 213q-37 26 -51 26q-24 0 -55 -36q-88 -121 -121 -254q-12 -46 -12 -70q0 -39 18 -80q27 -76 105 -76z" />
<glyph horiz-adv-x="772" d="M121 -383q-26 -2 -48.5 17.5t-23.5 50.5q-1 20 4 108q5 60 14.5 160t14.5 164v20q2 9 -8 33q-17 20 -17 45q0 35 21 70q21 28 24 65q33 236 33 432q0 44 -2 60q-8 18 -12 49q-3 65 76 102q51 23 84.5 36t82.5 24.5t95 11.5q63 0 104 -10q70 -15 112 -58.5t48 -103.5 q5 -118 -86 -242q-87 -100 -191 -207q-64 -70 -131 -125q-71 -60 -77 -157q-5 -98 -18 -254.5t-15 -190.5q-4 -15 -8 -49q-17 -44 -76 -51zM279 518l14 -4q63 59 93.5 89t74.5 85t69 107q8 16 21 55q0 5 1.5 16t0.5 15q-1 28 -24 38t-72 7q-90 -3 -158 -43z" />
<glyph horiz-adv-x="688" d="M616 156q28 0 48.5 -18t23.5 -38q0 -24 -9.5 -44t-35.5 -52q-129 -159 -186 -344q-20 -70 -88 -70q-22 0 -42.5 19.5t-23.5 52.5q0 106 17 246.5t65 453.5q-70 -39 -101.5 -50t-74.5 -11q-79 0 -131.5 60t-52.5 159q0 160 116.5 309.5t296.5 235.5q76 37 140 37 q30 0 47.5 -15.5t17.5 -42.5q0 -4 -8 -32q-8 -11 -9 -25.5t2 -31t3 -19.5q0 -30 -19 -49q-28 -28 -32 -113q-12 -108 -51.5 -373t-51.5 -378q82 133 139 133zM225 453q46 0 100.5 68.5t89 164t25.5 166.5q0 20 -6 35q-115 -46 -182.5 -144.5t-67.5 -218.5q0 -32 12.5 -51.5 t28.5 -19.5z" />
<glyph horiz-adv-x="710" d="M135 4q-20 -1 -34.5 5t-22.5 15.5t-13.5 25.5t-7.5 30.5t-5 35.5q-1 6 -1 9q-2 29 -2 92q0 166 20 332.5t58 394.5q0 28 21.5 53t50.5 29q59 0 59 -61q0 -28 -5 -93.5t-5 -121.5q25 44 112.5 140.5t163.5 170.5q36 38 95 77.5t96 45.5q30 0 49.5 -19.5t19.5 -40.5 q3 -35 -43 -69q-78 -55 -161 -137.5t-129.5 -137.5t-133.5 -164q-59 -57 -89.5 -149.5t-30.5 -175.5q0 -31 1 -96t1 -97q0 -43 -16.5 -68t-47.5 -26z" />
<glyph horiz-adv-x="759" d="M295 12q-131 0 -213 72.5t-82 159.5q0 29 22 48t52 19q38 0 73 -41q5 -6 16.5 -29t22 -37.5t41 -28t76.5 -13.5q131 0 131 151q0 25 -14.5 53.5t-26.5 44t-39 46.5q-32 36 -75 80.5t-58.5 62.5t-32 49.5t-24.5 71.5q-4 28 -4 43q0 66 41 143q57 95 142 162.5t183 83.5 q77 7 127 -27q107 -63 107 -190q0 -25 -21 -40t-43 -15q-14 0 -26 4t-19 8t-15 15.5t-11.5 17t-11.5 22.5t-11 23q-21 49 -61 43q-55 0 -132.5 -85t-76.5 -157q1 -28 7 -49.5t22.5 -43.5t29 -35.5t43.5 -42t49 -46.5q98 -101 119 -205q2 -14 2 -43q0 -126 -90.5 -210.5 t-218.5 -84.5z" />
<glyph horiz-adv-x="802" d="M369 -31q-51 0 -90 26t-58 73q-22 65 -22 229q0 152 28 371q3 13 11 100q-33 -24 -81 -48t-71 -24q-31 0 -46 19.5t-15 44.5q0 28 30 59t66.5 53.5t87.5 53t76 49.5q9 52 19.5 103.5t25 110.5t24 96.5t28.5 109.5t26 100q14 63 45 101t71 38q28 0 44 -15.5t16 -41.5 q0 -13 -19 -64q-28 -70 -66 -216.5t-53 -243.5q78 30 167 69.5t131 55.5t69 16q30 0 47 -18.5t17 -42.5q0 -37 -45.5 -72t-112.5 -53q-18 -5 -37 -12t-39.5 -15.5t-36.5 -15.5t-39 -18.5l-35 -17.5t-35.5 -19t-31 -17t-31.5 -18t-26 -15q-58 -313 -58 -571q0 -52 1 -77 t6 -53.5t16 -41.5q36 17 55 34.5t35 41.5q22 28 67 28q30 0 47 -19.5t17 -41.5q0 -59 -76 -125t-149 -66z" />
<glyph horiz-adv-x="710" d="M541 84q-50 -3 -78 41q-20 46 -23 59q0 30 -8 54q-22 -5 -105 -35.5t-126 -32.5q-75 -4 -112.5 41.5t-39.5 130.5q-1 37 2 83.5t6 76.5t10 89.5t9 80.5q2 20 4.5 39.5t5 34.5t7 33.5t7 28.5t8 28.5t7.5 24.5t8.5 25t7.5 23q6 34 31 62q23 26 59 26q32 3 58 -20 q20 -14 20 -39q3 -12 -16 -51q-28 -37 -33 -53q-12 -58 -19 -96.5t-16.5 -98.5t-13 -106.5t-3.5 -101t7 -101.5q137 3 215 84q20 22 24 84l48 376q1 8 16 72q14 32 35 53q27 27 49 27q11 0 35 -8q35 -15 35 -49q0 -11 -7 -21q-20 -69 -33 -163t-17 -148t-9 -180t-6 -148 q-1 -26 7.5 -78t8.5 -75q-3 -46 -41 -66q-12 -6 -24 -6z" />
<glyph horiz-adv-x="708" d="M315 -47q-49 -3 -76 19t-32 59q-11 41 -51 245q-17 106 -58 340q-2 9 -41 134q-3 8 -8 36q-3 41 39 56q9 6 23 6q23 2 43 -10.5t30 -36.5q38 -86 64 -193q10 -43 19.5 -91.5t19.5 -108.5t16 -91q1 -7 6 -20t6 -18l13 4q14 43 16 59q27 95 82.5 278.5t87.5 299.5 q16 61 74 196q12 29 59 76q19 16 39 16q19 3 39 -10q36 -17 33 -63q-2 -5 -4 -16.5t-4 -16.5q-48 -102 -87 -212.5t-58 -177t-60 -220.5q-15 -52 -30.5 -111.5t-34.5 -132t-29 -111.5q-13 -46 -50 -121q-29 -60 -86 -63z" />
<glyph horiz-adv-x="931" d="M647 76q-71 -3 -96 55q-56 113 -70 174q-12 39 -27 110.5t-24 102.5q-1 6 -5.5 23t-6.5 34q-23 -52 -33 -71l-88 -277l-16 -47q-36 -73 -93 -67q-31 4 -47.5 23t-27.5 50q-38 145 -54 312q-17 190 -2 399q0 27 15 64q19 45 63 45q28 3 51.5 -14.5t24.5 -43.5 q0 -16 -2 -24q-27 -97 -14 -217q3 -35 13 -100.5t13 -94.5q1 4 8 14t9 15l90 254q5 26 24 65q23 47 78 53q74 6 94 -61q4 -19 13.5 -53.5t13.5 -53.5l47 -272q2 -11 9 -35t9 -35q1 0 6 -1t7 -1q24 155 26 162q19 89 53 258t50 244q6 28 28 78q23 42 70 45q15 2 31 -4 q42 -19 45 -56q0 -22 -6 -34q-27 -97 -53 -216t-38.5 -189t-38 -225t-32.5 -198q-2 -19 -6.5 -39.5t-12 -45.5t-10.5 -38q-20 -58 -88 -67z" />
<glyph horiz-adv-x="692" d="M25 -113q-15 -3 -27 2q-44 14 -47 52q0 20 4 32q4 15 9.5 30t13.5 34.5t12 28.5q61 130 194 385q18 40 15 73l-6 35q-87 230 -115 311q-2 5 -6 35q-2 32 13.5 51.5t45.5 20.5q24 5 44 -7.5t26 -39.5q17 -35 39.5 -103t27.5 -82q1 -3 31 -83l41 63q49 79 98 176.5 t86 161.5q52 87 88 129q8 14 41 47q33 14 43 14q22 3 43 -12q24 -16 27 -43q0 -19 -4 -29q-3 -13 -23 -43q-57 -69 -107 -155t-113.5 -210t-110.5 -204q-17 -35 -17 -63q3 -24 15 -48q28 -43 74 -126t59 -105q13 -31 22 -68q2 -20 -9.5 -34t-43.5 -31q-18 -6 -19 -6 q-16 -1 -37.5 20t-48.5 65t-51 88.5t-57 110.5l-41 -69l-168 -357q-20 -44 -61 -47z" />
<glyph horiz-adv-x="808" d="M758 1036q2 -241 -123 -712q-31 -117 -67 -218t-84 -197.5t-102 -164.5t-122.5 -110t-142.5 -44q-73 -1 -116.5 51t-45.5 121q-3 60 15.5 104.5t64.5 45.5q33 1 51 -14.5t18 -42.5q0 -6 0.5 -17.5t0.5 -19t0.5 -18t1.5 -17.5t2.5 -15.5t3 -14t4 -10t6.5 -7t8 -2.5 q19 2 55 27t56 51q109 146 163 275t89 292q-108 -89 -236 -94q-148 -3 -192 166q-15 75 -17 124q-3 117 35 265q5 29 29.5 55t54.5 27q26 0 47.5 -16.5t22.5 -41.5q0 -9 -7 -30q-35 -97 -32 -222q0 -184 69 -184q68 0 167 97t126 182q41 125 57 321q3 35 20 53.5t54 18.5 q32 1 49 -17t17 -47z" />
<glyph horiz-adv-x="759" d="M20 -80q-28 0 -48.5 18.5t-20.5 43.5q0 12 5 24t15.5 29t12.5 22q213 355 522 795l45 57q-58 -4 -383 -135q-24 -6 -41 -6q-25 0 -40 18.5t-15 36.5q0 20 22 41.5t41 30.5q333 126 518 190q20 9 49 9q36 0 59 -21t23 -51q0 -5 -1 -10t-2.5 -9.5t-4.5 -10.5l-5 -10t-7 -11 t-7 -10.5t-7.5 -10.5t-7.5 -9.5t-8 -9.5t-7 -9q-245 -321 -461 -666q-20 -32 -30 -59q44 20 247 135q10 4 31 13.5t36.5 14.5t27.5 5q27 0 43 -17.5t16 -38.5q0 -39 -78 -84q-4 -3 -6 -4l-469 -280q-7 -3 -20 -9.5t-22.5 -9t-21.5 -2.5z" />
<glyph horiz-adv-x="665" d="M199 537q-45 3 -62.5 24.5t-11.5 75.5q3 24 9.5 55.5t18.5 76t20 72.5t25.5 86.5t22.5 76.5q87 327 240 649q19 40 39 57t47 16q35 -1 53 -19.5t16 -49.5q-1 -9 -12.5 -26t-13.5 -23q-121 -329 -197 -559q-93 -292 -98 -371q-5 -62 -28.5 -102t-67.5 -39zM78 14 q-34 0 -58 23.5t-18 56.5q7 59 58 110.5t94 51.5q33 0 57.5 -24.5t24.5 -59.5q0 -48 -57.5 -103t-100.5 -55z" />
<glyph horiz-adv-x="991" d="M307 504q-38 0 -60 24t-22 62q0 87 68 188q176 245 403 533q16 22 55.5 68t61.5 75q-14 2 -30 6.5t-26 6.5t-18 1q-292 -36 -471 -221q-82 -90 -82 -162q0 -4 5.5 -25t5.5 -42q0 -22 -19.5 -37.5t-52.5 -15.5q-41 0 -58.5 40.5t-17.5 92.5q0 59 46 135.5t102 132.5 q116 113 278 179.5t316 66.5q78 0 127 -38.5t49 -96.5q0 -25 -7.5 -48t-26.5 -51t-35.5 -49t-52.5 -63.5t-61 -73.5q-129 -170 -368 -494q31 0 51 -18.5t20 -44.5q0 -39 -65.5 -85t-114.5 -46zM285 72q-38 0 -70.5 28.5t-32.5 61.5q0 39 51 78t97 39q29 0 50 -21.5t21 -50.5 q0 -47 -37.5 -91t-78.5 -44z" />
<glyph horiz-adv-x="528" d="M260 598q-2 0 -2 2q-80 -12 -127 -14q-76 0 -82 59q-3 27 13.5 48t50.5 28q205 37 268 43q40 5 66 -9.5t32 -43.5q6 -67 -59 -82q-55 -15 -160 -31z" />
</font>
</defs>
</svg>
