<svg width="256" height="256" viewBox="0 0 256 256" fill="none" xmlns="http://www.w3.org/2000/svg">
<rect width="256" height="256" fill="#001219"/>
<path d="M43.416 24.4H212.184C214.296 24.4 216.12 25.168 217.656 26.704C219.192 28.24 219.96 30.064 219.96 32.176V78.544C219.96 80.656 219.192 82.48 217.656 84.016C216.12 85.552 214.296 86.32 212.184 86.32H164.376V218.224C164.376 220.336 163.608 222.16 162.072 223.696C160.536 225.232 158.712 226 156.6 226H99C96.888 226 95.064 225.232 93.528 223.696C91.992 222.16 91.224 220.336 91.224 218.224V86.32H43.416C41.304 86.32 39.48 85.552 37.944 84.016C36.408 82.48 35.64 80.656 35.64 78.544V32.176C35.64 30.064 36.408 28.24 37.944 26.704C39.48 25.168 41.304 24.4 43.416 24.4Z" fill="#FF6663"/>
</svg>
