<?xml version="1.0" standalone="no"?>
<!DOCTYPE svg PUBLIC "-//W3C//DTD SVG 1.1//EN" "http://www.w3.org/Graphics/SVG/1.1/DTD/svg11.dtd" >
<svg xmlns="http://www.w3.org/2000/svg" xmlns:xlink="http://www.w3.org/1999/xlink" version="1.1">
<metadata></metadata>
<defs>
<font id="ccscoundrelbold" horiz-adv-x="727" >
<font-face units-per-em="2048" ascent="1638" descent="-410" />
<missing-glyph horiz-adv-x="532" />
<glyph unicode="&#x2e;&#x20;&#x2e;&#x20;&#x2e;" horiz-adv-x="1196" d="M584 336q68 12 123 -49q32 -35 32 -78q0 -28 -16 -57q-22 -40 -64.5 -63t-97.5 -23q-43 0 -73.5 33.5t-30.5 80.5t41.5 97.5t85.5 58.5zM195 45q-68 -12 -123 49q-33 36 -33 78q0 28 16 57q22 40 64.5 63t97.5 23q43 0 74 -33.5t31 -80.5t-41.5 -97.5t-85.5 -58.5z M1030 23q-68 -12 -123 49q-33 36 -33 78q0 26 17 57q22 40 64.5 63t97.5 23q43 0 73.5 -34t30.5 -81t-41.5 -97t-85.5 -58z" />
<glyph unicode="&#x7b;&#x7d;" horiz-adv-x="1603" d="M1481 801q-71 -30 -148 -88t-131 -115q17 -54 23 -74l106 -321q1 -4 4.5 -13.5t5.5 -13.5q15 -43 15 -55q0 -58 -27.5 -93t-77.5 -40q-92 -15 -266 125q-38 34 -95.5 72t-82.5 48q-263 -137 -365 -266q-39 -54 -102 -39q-37 11 -56 24.5t-32 39.5q-20 32 -22.5 86 t12.5 84q114 261 153 342q-14 6 -73 37q-61 33 -117 55q-87 32 -126.5 72.5t-39.5 97.5q0 46 46 72t140 45q244 39 318 49q50 153 73 207q38 83 46 102q37 94 59 131q-2 6 -2 17q0 51 35 90t80 39t69.5 -30.5t44.5 -101.5q3 -7 23 -65q9 -27 26 -79.5t21 -65.5 q7 -24 51 -158q227 31 369 31q101 0 121 -80q17 -47 -6 -96.5t-72 -71.5z" />
<glyph unicode="[star]" horiz-adv-x="1603" d="M1559 969q17 -47 -6 -96.5t-72 -71.5q-71 -30 -148 -88t-131 -115q17 -54 23 -74l106 -321q1 -4 4.5 -13.5t5.5 -13.5q15 -43 15 -55q0 -58 -27.5 -93t-77.5 -40q-92 -15 -266 125q-38 34 -95.5 72t-82.5 48q-263 -137 -365 -266q-39 -54 -102 -39q-37 11 -56 24.5 t-32 39.5q-20 32 -22.5 86t12.5 84q114 261 153 342q-14 6 -73 37q-61 33 -117 55q-87 32 -126.5 72.5t-39.5 97.5q0 46 46 72t140 45q244 39 318 49q50 153 73 207q38 83 46 102q37 94 59 131q-2 6 -2 17q0 51 35 90t80 39t69.5 -30.5t44.5 -101.5q3 -7 23 -65 q9 -27 26 -79.5t21 -65.5q7 -24 51 -158q227 31 369 31q101 0 121 -80zM836 455q81 0 217 -113q-3 7 -8.5 21.5t-8.5 21.5q-2 7 -24.5 72.5t-30.5 99.5q-20 95 18 143q24 35 131 107q-11 -1 -32 -2t-31 -2l-59 -6q-37 -2 -72 19t-57 58q-5 14 -14 47t-13 46q-4 19 -31 110 q-13 -37 -14 -41q-27 -82 -66 -174l-6 -16q-10 -23 -15 -34t-22.5 -31t-40.5 -31q-44 -19 -116 -23q-4 0 -11.5 -1t-11.5 -1q-4 -1 -12.5 -2t-13.5 -2q-3 -1 -30 -5.5t-42 -8.5l125 -52q76 -37 61 -145q-6 -37 -28 -94q-1 -3 -7 -15.5t-8 -19.5l-31 -76q207 150 304 150z " />
<glyph unicode="&#x3c;&#x3e;" horiz-adv-x="1425" d="M1386 1096q0 -55 -16.5 -110.5t-38 -98.5t-65.5 -103t-74 -95.5t-90 -102.5q-88 -99 -132.5 -152t-116 -156t-118.5 -202q17 -46 17 -74q0 -25 -11 -51q-19 -41 -56.5 -68.5t-74.5 -27.5q-29 0 -50 18.5t-30 50.5q-10 38 -28.5 78.5t-53 92.5t-57.5 83.5t-72 97.5 q-75 101 -116.5 161t-89.5 153.5t-64 171.5q-10 52 -10 102q0 147 59.5 272.5t162.5 199t226 73.5q77 0 159.5 -40.5t129.5 -98.5q78 67 166 110t156 43q120 0 204 -96t84 -231zM614 272q92 169 320 437q86 103 127.5 156t79 116.5t37.5 101.5q0 52 -25.5 88t-56.5 33 q-39 -5 -73 -18t-55.5 -26t-46 -38t-34.5 -38t-31 -40q-57 -77 -86.5 -101.5t-64.5 -24.5q-38 0 -67.5 29t-29.5 67q0 36 25 84q-5 3 -8 8q-6 9 -13 16q-6 5 -23 20.5t-23 20.5t-19.5 15.5t-21.5 14.5t-19 7.5t-21 3.5q-108 0 -171.5 -77t-63.5 -209q0 -76 22 -152 q8 -30 25.5 -64.5t55.5 -88t56.5 -78t75.5 -96.5l21 -27q40 -48 108 -140z" />
<glyph unicode="&#x28;&#x29;" horiz-adv-x="1400" d="M1362 1096q0 -55 -16.5 -110.5t-38.5 -99.5t-66 -103t-76 -96.5t-90 -102.5q-82 -93 -130 -150.5t-117.5 -157.5t-118.5 -198q18 -42 18 -76q0 -28 -10 -51q-19 -41 -56.5 -68.5t-74.5 -27.5q-29 0 -50 18.5t-30 50.5q-13 50 -47 114.5t-63 108t-89 129.5 q-74 105 -111 162t-84 151.5t-63 172.5q-10 52 -10 102q0 154 54.5 278.5t151.5 195.5t218 71q87 0 167.5 -51t123.5 -131q72 91 157.5 143.5t161.5 52.5q120 0 204.5 -96t84.5 -231z" />
<glyph unicode="N&#x31;" horiz-adv-x="694" d="M653 1380q-110 -528 -110 -1065q0 -69 4 -102q6 -18 6 -39q0 -62 -110 -152.5t-205 -109.5q-44 -6 -72 -6q-80 0 -128 35.5t-48 95.5q0 77 98.5 150.5t235.5 103.5q0 119 8 198q37 490 92 797q22 105 45 143q32 52 84 52q48 0 78.5 -30t21.5 -71z" />
<glyph unicode="N&#x32;" horiz-adv-x="858" d="M840 1038q12 -24 12 -39q0 -47 -29 -77.5t-75 -30.5q-26 0 -41 6q-22 8 -38.5 23.5t-23 26t-14.5 28.5q-1 3 -4 8t-4 8l-2 2l-25 60q-53 -376 -53 -738q0 -69 4 -102q6 -18 6 -39q0 -62 -110 -152.5t-205 -109.5q-44 -6 -72 -6q-80 0 -128 35.5t-48 95.5q0 77 98.5 150.5 t235.5 103.5q0 119 8 198q37 490 92 797q22 105 45 143q32 52 84 52q29 0 59 -15q27 -5 49.5 -21.5t32.5 -41.5q8 -13 29 -74q0 -6 4 -18q39 -87 66 -158l36 -90q1 -5 5 -13z" />
<glyph unicode="N&#x33;" horiz-adv-x="1370" d="M1206 383q0 -69 4 -102q7 -21 7 -39q0 -62 -110.5 -152.5t-205.5 -109.5q-51 -7 -72 -7q-80 0 -128 35.5t-48 95.5q0 77 98.5 150.5t235.5 103.5q0 120 8 199q37 474 90 786q-11 -2 -204 -45q-230 -47 -252 -51q-86 -474 -86 -932q0 -69 4 -102q6 -18 6 -39 q0 -62 -110 -152.5t-205 -109.5q-44 -6 -72 -6q-80 0 -128 35.5t-48 95.5q0 77 98.5 150.5t235.5 103.5q0 119 8 198q37 490 92 797q22 105 45 143q32 52 84 52q40 0 70 -23q27 5 94 20.5t104 22.5q191 45 314 66h8q30 6 35 6q112 16 149 -51q2 -2 2 -4q1 -2 3.5 -8 t4.5 -11.5t2 -9.5q3 -33 -26 -62q-107 -522 -107 -1044z" />
<glyph unicode="N&#x34;" horiz-adv-x="1370" d="M1329 1180q1 -2 3.5 -8t4.5 -11.5t2 -9.5q3 -28 -21 -55.5t-65 -46.5q-2 0 -2 -2q-45 -346 -45 -664q0 -69 4 -102q7 -21 7 -39q0 -62 -110.5 -152.5t-205.5 -109.5q-51 -7 -72 -7q-80 0 -128 35.5t-48 95.5q0 77 98.5 150.5t235.5 103.5q0 120 8 199q19 249 41 438 q-49 -10 -155 -34q-236 -49 -277 -56q-4 0 -13 -1t-13 -1q-35 -303 -35 -588q0 -69 4 -102q6 -18 6 -39q0 -62 -110 -152.5t-205 -109.5q-44 -6 -72 -6q-80 0 -128 35.5t-48 95.5q0 77 98.5 150.5t235.5 103.5q0 119 8 198q37 490 92 797q22 105 45 143q32 52 84 52 q40 0 70 -23q27 5 94 20.5t104 22.5q191 45 314 66h8q30 6 35 6q112 16 149 -51q2 -2 2 -4q1 -2 3.5 -8t4.5 -11.5t2 -9.5q3 -33 -26 -62q-14 -67 -37 -200q36 -12 51 -43q2 -2 2 -4zM821 1163l244 54q10 74 20 126q-11 -2 -204 -45q-230 -47 -252 -51q-20 -107 -23 -129h2 q28 5 62.5 12.5t79 17t71.5 15.5z" />
<glyph unicode="&#xfb01;" horiz-adv-x="1210" d="M764 1030q59 -3 90 -31t27 -75q-1 -37 -28 -60.5t-65 -23.5q-38 -4 -78.5 -15.5t-59 -19.5t-70.5 -31q-12 -5 -36.5 -16.5t-37.5 -16.5q-28 -12 -40 -27.5t-17 -43.5q-28 -169 -28.5 -395.5t28.5 -368.5q15 -60 -23 -111.5t-98 -50.5q-67 6 -88 84q-12 47 -18 96t-7 76 t-2 98q0 11 -1 34.5t-1 37.5q-3 110 4 238q8 164 8 172q-85 -52 -125 -50q-35 0 -59.5 27.5t-24.5 65.5q1 43 40 81t136 95q61 38 74 47q49 299 148 519.5t237.5 336.5t298.5 108q90 -3 145 -62.5t52 -150.5q-9 -91 -101 -217q-43 -59 -100 -59q-42 2 -68.5 28t-23.5 64 q3 18 22 64q7 14 18.5 34.5t14.5 26.5q25 46 27 59v6q1 5 -3 6q-2 0 -7 1h-2q-80 3 -171.5 -93.5t-160.5 -250.5t-88 -310q27 11 28 11q105 45 179 59q37 7 55 4zM1049 1311q44 4 75 -26.5t45 -92.5q9 -51 -18 -88.5t-74 -40.5q-110 -12 -119 98q-8 63 17 104.5t74 45.5z M1038 926q44 4 75.5 -22.5t31.5 -67.5q0 -52 -12 -129q-22 -241 -23 -261q-2 -70 -2 -213v-12l4 -24l6 -33q2 -53 -27.5 -86.5t-80.5 -36.5q-47 -5 -81 26t-40 83q-5 37 2 102q2 22 5 66.5t5 64.5q7 109 23 305q0 229 114 238z" />
<glyph unicode="&#xfb02;" horiz-adv-x="1280" d="M907 1538q25 46 27 59v6q1 5 -3 6q-2 0 -7 1h-2q-80 3 -171.5 -93.5t-160.5 -250.5t-88 -310q27 11 28 11q105 45 179 59q37 7 55 4q59 -3 90 -31t27 -75q-1 -37 -28 -60.5t-65 -23.5q-38 -4 -78.5 -15.5t-59 -19.5t-70.5 -31q-12 -5 -36.5 -16.5t-37.5 -16.5 q-28 -12 -40 -27.5t-17 -43.5q-28 -169 -28.5 -395.5t28.5 -368.5q15 -60 -23 -111.5t-98 -50.5q-67 6 -88 84q-12 47 -18 96t-7 76t-2 98q0 11 -1 34.5t-1 37.5q-3 110 4 238q8 164 8 172q-85 -52 -125 -50q-35 0 -59.5 27.5t-24.5 65.5q1 43 40 81t136 95q61 38 74 47 q49 299 148 519.5t237.5 336.5t298.5 108q90 -3 145 -62.5t52 -150.5q-9 -91 -101 -217q-43 -59 -100 -59q-42 2 -68.5 28t-23.5 64q3 18 22 64q7 14 18.5 34.5t14.5 26.5zM1190 1526q49 0 77.5 -30.5t22.5 -76.5q-110 -580 -110 -1169q0 -86 4 -127q6 -56 -20.5 -89.5 t-80.5 -37.5q-37 -3 -68 21t-44 67q-10 45 -9.5 147.5t7.5 206.5q29 499 92 875q7 43 13.5 71t21 65.5t38 57t56.5 19.5z" />
<glyph unicode="&#x7b;&#x7b;" horiz-adv-x="555" d="M352 -385q-136 0 -224.5 97.5t-88.5 246.5q0 124 37 191q28 61 45 94q32 66 43.5 91t23 66t13.5 84q0 42 -17 88q-4 0 -13 1t-13 1q-49 -1 -84 28t-35 69q0 37 26 61.5t97 65.5q29 16 37 41q21 116 -33 223q-62 115 -62 223q0 122 66.5 234.5t175.5 177.5q51 30 108 40 t96.5 -7t39.5 -58q0 -44 -24 -74t-62 -30q-66 0 -136 -87.5t-73 -172.5q0 -43 14 -88.5t51 -120.5q55 -122 46 -271q-1 -12 -5.5 -25.5t-8 -22.5t-11.5 -26.5t-10 -23.5l-19 -43q51 -85 51 -190q0 -43 -12.5 -94.5t-25 -85t-39.5 -99.5q-32 -69 -60 -143q-19 -45 -22 -105 q0 -79 22.5 -117.5t75.5 -48.5q115 -16 115 -96q0 -43 -29 -68.5t-76 -25.5z" />
<glyph unicode="&#x7d;&#x7d;" horiz-adv-x="583" d="M233 1755q136 0 225 -97.5t89 -246.5q0 -123 -37 -190q-32 -69 -45 -95q-32 -66 -43.5 -91t-23 -66t-13.5 -84q0 -45 16 -88q4 0 13.5 -1t13.5 -1q49 1 84 -28t35 -69q0 -37 -26 -61.5t-97 -65.5q-29 -16 -37 -41q-21 -116 33 -223q61 -113 61 -223q0 -123 -66 -235 t-175 -177q-51 -30 -108 -40t-96.5 7t-39.5 58q0 44 24 74t62 30q66 0 136 87.5t73 172.5q0 42 -14.5 87.5t-51.5 121.5q-54 120 -45 271q1 12 5.5 25.5t8 22.5t11.5 26.5t10 23.5l18 43q-51 85 -51 190q0 43 13 95t25 83.5t40 100.5q27 57 59 143q20 48 23 105 q0 79 -22.5 117.5t-75.5 48.5q-115 16 -115 96q0 43 28.5 68.5t75.5 25.5z" />
<glyph unicode="&#x7c;&#x7c;" horiz-adv-x="425" d="M141 -270q-40 1 -64 27t-30.5 66.5t-8.5 90.5t1 98q7 203 45.5 636t75.5 646q7 35 13.5 60.5t18.5 54t26 46t36 28.5t49 10q44 -2 66.5 -37t15.5 -92q-2 -26 -31 -279q-57 -499 -73 -739q-18 -218 -19 -264q0 -109 2 -152q0 -5 -1 -13t-1 -13q0 -4 -1 -14t-1 -15 q-5 -71 -36 -108.5t-83 -36.5z" />
<glyph horiz-adv-x="0" />
<glyph horiz-adv-x="682" />
<glyph unicode=" "  horiz-adv-x="532" />
<glyph unicode="&#x09;" horiz-adv-x="532" />
<glyph unicode="&#xa0;" horiz-adv-x="532" />
<glyph unicode="!" horiz-adv-x="761" d="M227 344q-30 0 -51 9.5t-32 23.5t-15 37t-4 42.5t5.5 48t10 44.5t11.5 41q40 167 62 251t58.5 203t80.5 223.5t106 227.5q19 36 31.5 56t35 49t48 43t53.5 14q40 0 70 -28.5t26 -63.5q-7 -42 -25 -92t-33.5 -83.5t-54.5 -113.5l-39 -78q-24 -49 -44.5 -96t-35 -82 t-30.5 -85t-24 -76t-23 -85t-20.5 -81t-22.5 -96t-23 -101q-40 -152 -121 -152zM121 -35q-60 0 -95.5 31t-35.5 84q0 56 70 109t143 53q36 0 69 -40t33 -81q0 -49 -63.5 -102.5t-120.5 -53.5z" />
<glyph unicode="&#x22;" horiz-adv-x="606" d="M449 1034q-52 0 -81 30t-26 81l16 160q10 69 11 79q2 14 5 40t5 38q11 51 38 79t68 28q52 0 79.5 -32.5t27.5 -94.5q0 -19 -2 -25v-22v-2l-19 -201q-5 -29 -16 -62q-2 -4 -5 -14t-5 -14l-2 -8q-38 -60 -94 -60zM178 989q-52 0 -80.5 30t-25.5 81l16 160q8 56 10 79 q2 11 11 78q11 51 38 79t68 28q52 0 79.5 -32.5t27.5 -94.5q0 -16 -3 -25v-22v-2l-18 -201q-5 -29 -16 -62q-1 -2 -5 -12.5t-6 -15.5l-2 -8q-38 -60 -94 -60z" />
<glyph unicode="#" horiz-adv-x="1568" d="M1352 643q73 23 125.5 -5t52.5 -85q0 -72 -90 -107q-54 -18 -232 -36q-42 -2 -125 -13q-4 -1 -13 -2t-13 -2q-40 -6 -41 -6q-8 -51 -15 -113q-12 -90 -16 -135q-21 -176 -127 -176q-54 0 -84.5 33t-30.5 92q0 14 5 39q15 115 18 174l6 61l-127 -12q0 -10 -2 -16 q-6 -51 -14 -141q-8 -73 -33 -106.5t-74 -33.5q-66 0 -95.5 42t-29.5 132q0 30 4 92q-28 -2 -112 -12l-53 -6h-13q-8 -2 -20 -2q-59 0 -89 19t-40 63v2q-6 49 28 78.5t107 40.5q41 8 123 20q44 6 82 15l16 137q-15 0 -39 -4q-27 -4 -58.5 -10.5t-41.5 -8.5q-69 -14 -113 -22 q-8 -2 -35 -2q-64 0 -98 51l-4 8q0 4 -1 15t-1 16q0 36 22 64t58 38q37 18 92 25l27 6q60 12 106 22l94 23q1 12 4 37t4 37q4 28 11.5 83.5t11.5 82.5q3 38 20 88q10 38 40.5 61t68.5 23q50 0 84 -36t31 -85q-2 -18 -7.5 -47t-7.5 -39q-13 -66 -16 -96q0 -2 -1 -8t-1 -9 q-6 -27 -6 -47q25 6 82 14l75 13v6q5 30 5 33q0 196 31.5 278t107.5 82q38 0 65 -33t27 -76q0 -40 -4 -118t-4 -113v-12v-15q12 1 98 13q14 1 42.5 4.5t43.5 5.5l51 6q74 12 113 12q54 0 85.5 -27.5t31.5 -76.5q0 -38 -26.5 -66.5t-72.5 -40.5q-104 -18 -223 -30l-149 -19 q-2 -16 -7.5 -50t-7.5 -52q-5 -48 -8 -64q6 2 17 2h40q41 4 117.5 12.5t104.5 10.5q32 4 43 4zM809 680q1 9 2 30.5t2 32.5l-137 -26q-3 -51 -12 -94l-7 -56l142 19q0 3 1 7.5t1 6.5q4 52 8 80z" />
<glyph unicode="$" horiz-adv-x="884" d="M778 1491h2q66 -26 103 -64t37 -81q0 -37 -30 -68t-67 -31q-31 0 -61 23q-38 46 -74 49q-31 -39 -80 -39q-13 0 -53 10q-1 0 -3 1t-3 1q-46 -22 -85.5 -70t-39.5 -83q0 -15 23.5 -43t89.5 -88q45 -40 74 -67.5t71 -76t67 -91t43.5 -99.5t18.5 -115q0 -171 -126 -283.5 t-323 -121.5q0 -2 -12 -152q-10 -81 -29 -112t-71 -31q-38 0 -63 26t-25 64q2 68 18 241q-190 109 -190 326q0 40 10 92l2 4q13 46 41.5 71.5t65.5 25.5q42 0 66.5 -29t19.5 -74l-14 -50q-3 -15 -3 -24q0 -25 5 -46.5t9.5 -31t20.5 -42.5q14 -29 59.5 -48.5t102.5 -19.5 q104 0 165.5 66.5t51.5 167.5q-2 46 -41.5 110t-93.5 107l-1 1l-1 1l-1 1h-1l-1 1l-1 1l-1 1l-1 1l-1 1l-1 1h-1l-1 1l-1 1l-1 1l-2 1q-130 110 -168 154q-60 70 -70 160q-6 93 67 185q51 63 115.5 112t128.5 74l18 66q8 31 13 48.5t16.5 43.5t23.5 40t32 24.5t45 10.5 q36 0 64 -22t28 -53q0 -32 -15 -62q-2 -4 0 -4q-10 -42 -20 -78q23 -4 59 -16zM195 606v-2v2z" />
<glyph unicode="%" horiz-adv-x="1396" d="M203 -223q-22 0 -51 16q-48 22 -48 76q0 23 23 76q34 68 199 405q259 535 481 973q63 123 225 387q11 20 33.5 56.5t30.5 50.5q40 64 106 106q25 19 58 19q43 0 72.5 -30t25.5 -71l-6 -14q2 0 0 -4q-14 -29 -21 -33q-52 -58 -104 -137t-76.5 -124.5t-77.5 -151.5 q-3 -6 -5 -9.5t-4.5 -8.5l-4.5 -9q-210 -422 -359 -729q-14 -29 -110 -224.5t-148 -298.5q-68 -139 -133 -248q-48 -73 -106 -73zM258 758q-35 0 -68 10q-151 52 -151 260q0 258 182 479q92 109 213 109q17 0 49 -4h2q94 -20 134 -61t49 -124q1 -6 1 -13.5t-0.5 -16 t-0.5 -13.5v-18v-2q-24 -318 -219 -510q-100 -96 -191 -96zM270 1004q70 58 116 151.5t46 181.5q0 35 -10 68q-9 -5 -16.5 -10.5t-14.5 -13t-12 -13t-11.5 -17t-10 -16t-10 -19t-8 -18.5t-9 -21t-8.5 -20t-8.5 -20.5t-9 -21.5t-7.5 -19.5t-8 -21t-7 -19t-6.5 -21t-4.5 -19.5 t-4 -21t-2 -20t-1 -21q0 -22 6 -49zM918 51q-26 0 -70 12q-63 20 -96.5 82t-24.5 142q21 249 172 491l6 9t6 9.5t6 9t7.5 9t8.5 8t11 8.5q59 62 135 62q88 0 146 -80q29 -39 46 -100.5t17 -124.5q0 -262 -201 -457q-83 -80 -169 -80zM958 336q93 96 93 227q0 31 -2 43 q-71 -142 -91 -270z" />
<glyph unicode="&#x26;" horiz-adv-x="1067" d="M119 -106q-64 6 -98 40.5t-31 90.5q3 39 18 96t33 98q138 264 274 471q-44 77 -74.5 204.5t-25.5 178.5q35 336 346 498q38 19 97 31t110 12h2q93 -7 142.5 -79t43.5 -187q-4 -51 -44.5 -131t-82.5 -134q-30 -47 -178 -249q-102 -142 -116 -164q11 -26 34.5 -63t39 -59.5 t59.5 -82.5l110 80q96 66 144 57q38 -4 61.5 -32.5t17.5 -59.5q-1 -28 -24 -54t-76 -67q-29 -22 -51 -41q-14 -8 -31 -22l144 -138q37 -30 34 -84q-1 -33 -36 -59.5t-78 -28.5q-49 0 -78 43q-37 34 -72 62q-39 29 -80 67q-35 -25 -41 -30q-39 -30 -55 -41 q-18 -11 -48.5 -33.5t-39.5 -28.5q-40 -28 -162 -110q-89 -60 -188 -51zM446 899l93 121q79 103 113.5 150t63.5 101.5t34 94.5q3 43 -19 43q-88 0 -155 -53t-125 -168q-30 -62 -33 -117q-9 -87 28 -172zM250 137q112 70 268 201l-94 127q-122 -185 -174 -328z" />
<glyph unicode="'" horiz-adv-x="335" d="M178 989q-52 0 -80.5 30t-25.5 81l16 160q8 56 10 79q2 11 11 78q11 51 38 79t68 28q52 0 79.5 -32.5t27.5 -94.5q0 -16 -3 -25v-22v-2l-18 -201q-5 -29 -16 -62q-1 -2 -5 -12.5t-6 -15.5l-2 -8q-38 -60 -94 -60z" />
<glyph unicode="(" horiz-adv-x="692" d="M360 -137q-38 0 -78.5 36t-93.5 115q-78 123 -114 276t-35 357q9 201 109 439.5t266 455.5q33 39 71.5 63.5t67.5 24.5q57 0 91 -28.5t34 -77.5q0 -45 -57 -90l-21 -21q-52 -52 -65 -67q-116 -135 -198.5 -342t-92.5 -390q-15 -301 145 -514q2 -3 19 -20q34 -34 53 -68 q8 -16 8 -43q0 -41 -33.5 -73.5t-75.5 -32.5z" />
<glyph unicode=")" horiz-adv-x="800" d="M141 -186q-46 0 -74 31.5t-28 82.5q0 29 14 48.5t49 41.5q35 26 60 48q183 175 281 383t98 421q0 129 -34 234.5t-114 222.5q-40 61 -78 90.5t-90 38.5q-67 15 -67 84q0 43 32 76.5t76 34.5q30 0 78 -25t78 -47q85 -57 136 -115t97 -149q95 -210 107 -473 q7 -199 -116.5 -461t-311.5 -447q-53 -52 -106.5 -85.5t-86.5 -34.5z" />
<glyph unicode="*" horiz-adv-x="817" d="M379 899q-44 0 -71 25.5t-27 68.5q0 41 6 94q-9 -6 -19 -16q-18 -12 -22 -14q-46 -32 -60 -47q-24 -21 -55 -21q-35 0 -63.5 26t-28.5 60q0 27 20 53t64 62q43 32 92 72l25 18q-60 50 -113 57q-39 5 -62.5 26.5t-23.5 53.5q0 40 28 71.5t66 31.5q43 0 117 -27l63 -39 l2 -2q3 31 7 102q0 11 2 17q0 38 10 67q15 68 90 68q38 0 63 -25t25 -63v-127l66 43q54 33 92 33q36 0 63 -26t27 -60q0 -46 -64 -101l-47 -30q-33 -22 -35 -23q8 -4 13 -4q7 -2 20.5 -7t20.5 -7q108 -51 108 -119q0 -38 -27 -65t-65 -27q-28 0 -55 18q-44 28 -139 49 q-5 -30 -5 -35q-6 -27 -6 -55q-2 -12 -2 -35q-4 -50 -12 -77q-25 -64 -88 -64z" />
<glyph unicode="+" horiz-adv-x="1038" d="M553 176h-4q-43 -5 -76 21t-45 73q-4 27 -4 72v14v219l-227 -34q-2 0 -8 -1t-9 -1q-52 -9 -71 -9q-26 0 -57 15t-46 35q-16 19 -16 47q0 23 13.5 44.5t35.5 33.5q31 18 98 32q95 19 248 47q23 3 43 9q4 110 4 157q2 14 2 45q0 162 113 162q90 -3 102 -115q2 -23 2 -71 v-68v-37q2 -6 2 -16l70 12q65 14 108 21q65 9 127 6q37 -3 64 -26.5t27 -55.5q0 -28 -16 -58t-40 -47q-16 -12 -65 -22q-5 -2 -17.5 -5t-17.5 -5q-22 -4 -65 -11.5t-64 -11.5l-109 -18v-269q0 -52 -2 -79q-5 -43 -30.5 -70.5t-69.5 -34.5z" />
<glyph unicode="," horiz-adv-x="382" d="M86 -344q-43 0 -69.5 26.5t-26.5 69.5q0 37 30 84q34 65 48.5 95.5t28.5 71.5t20 81q-113 21 -113 109q0 45 44 77.5t104 32.5q49 0 88.5 -25.5t56.5 -68.5q26 -75 20 -154q-14 -137 -114 -317l-2 -2q-28 -43 -54.5 -61.5t-60.5 -18.5z" />
<glyph unicode="-" horiz-adv-x="628" d="M147 580q-47 0 -77.5 26.5t-30.5 69.5q0 46 32 72t103 38q40 6 250 41q35 7 51 7q81 0 111 -70v-2q4 -12 4 -27q0 -36 -22 -63t-58 -35q-223 -57 -363 -57z" />
<glyph unicode="." horiz-adv-x="360" d="M195 45q-68 -12 -123 49q-33 36 -33 78q0 28 16 57q22 40 64.5 63t97.5 23q43 0 74 -33.5t31 -80.5t-41.5 -97.5t-85.5 -58.5z" />
<glyph unicode="/" horiz-adv-x="815" d="M92 -229q-47 0 -74.5 28.5t-27.5 75.5q0 43 28 131l367 1043l37 104q105 291 121 385l2 16q6 33 36.5 55.5t69.5 22.5q49 0 75 -30t26 -86q0 -43 -35 -123q-94 -285 -254 -742q-9 -30 -82 -239q-109 -314 -158 -480q-5 -25 -8 -34q-9 -49 -25 -76q-13 -23 -40.5 -37 t-57.5 -14z" />
<glyph unicode="0" horiz-adv-x="1132" d="M338 -8q-75 0 -139 40.5t-99 110.5q-64 117 -61 291q30 488 315 883q83 103 189 180q73 51 131 51q78 0 157 -94q6 -10 23 -27q240 -178 240 -466q0 -41 -13 -138q-89 -474 -549 -768q-43 -34 -114 -55q-36 -8 -80 -8zM344 217q18 0 55 21q431 274 455 704 q12 129 -74 242q-29 38 -47 51.5t-39 13.5q-13 0 -28 -6q-16 -8 -39 -8q-3 0 -35 4q-12 4 -19 4q-304 -428 -292 -885q0 -39 14 -82q18 -59 49 -59z" />
<glyph unicode="1" horiz-adv-x="776" d="M158 -84q-53 0 -86 26.5t-33 69.5q-3 62 72 97q26 10 73 38q39 26 41 27l119 969l-10 -4q-21 -9 -45 -9q-40 0 -78 35q-25 29 -25 62q-3 35 25 63q20 23 29 31l24 29l152 190q50 59 98 59q18 0 45 -10q35 -12 56 -41t24 -69q2 -46 -14 -117q-6 -20 -9 -43 q-34 -195 -73 -499.5t-54 -495.5q-4 -24 -4 -35q112 47 150 47q41 0 71.5 -31t30.5 -72q3 -63 -100 -118l-127 -64q-94 -47 -142.5 -69.5t-110 -44t-99.5 -21.5z" />
<glyph unicode="2" horiz-adv-x="1003" d="M102 -70q-46 0 -79 30t-33 71q3 68 41 116q376 618 514 836q115 189 148.5 249.5t37.5 96.5q0 5 -0.5 8t0.5 5t0.5 3.5t0 2t-2 0.5h-4.5h-7h-11q-74 6 -178.5 -41t-174.5 -117q-48 -54 -102 -51q-44 2 -71.5 31t-26.5 73q12 43 24 60q35 66 142 132.5t237.5 107 t228.5 34.5q98 -7 153 -63t50 -144q-3 -125 -88 -248q-324 -485 -459 -731l297 45l41 6q3 1 9.5 2t9.5 2q67 17 113 -15.5t40 -86.5q-3 -79 -172 -119q-76 -18 -176 -35q-130 -23 -231 -55q-120 -47 -154 -119q-10 -35 -46.5 -61.5t-70.5 -24.5z" />
<glyph unicode="3" horiz-adv-x="1081" d="M748 1004q131 0 212.5 -66.5t81.5 -173.5q0 -86 -62.5 -197t-162.5 -207q-185 -173 -473 -325q-89 -47 -162 -47q-62 0 -110.5 34t-67.5 91q-14 46 -14 94q0 93 53.5 167.5t120.5 74.5q39 0 69.5 -31.5t30.5 -71.5q0 -9 -1 -18.5t-2.5 -21.5t-2.5 -19l-6 -47 q164 80 282.5 171.5t210.5 211.5q24 34 42 76t18 63q0 12 -8.5 17t-34.5 5q-96 0 -201 -30q-49 -14 -147 -60q-10 -4 -35.5 -15t-40.5 -17q-36 -19 -70 -19q-44 0 -77 32t-33 73q0 33 29 78t96 128l67 86q37 45 111 127l31 35q12 15 28 31q-8 -1 -29.5 -4.5t-31.5 -5.5 q-8 -2 -28 -5.5t-30 -5.5l-39 -6q-50 -8 -79 -8q-43 0 -71 25.5t-28 66.5t27.5 64t91.5 45q109 34 303.5 79.5t251.5 45.5q49 0 82 -30.5t33 -74.5q0 -60 -58 -112q-18 -19 -39 -40t-47.5 -47t-40.5 -40q-64 -62 -129 -129q-24 -24 -51 -54q62 7 140 7z" />
<glyph unicode="4" horiz-adv-x="1001" d="M1081 1165q1 -37 -31 -74.5t-85 -60.5q-4 -2 -30.5 -13.5t-43.5 -17.5q-175 -79 -201 -96q-7 -35 -26 -141q-24 -130 -37 -203t-26 -183t-19 -218q-2 -54 -6.5 -91.5t-16.5 -78.5t-37 -62.5t-63 -21.5q-109 0 -121 143q-8 123 100 782q-118 -46 -169.5 -62.5t-80.5 -16.5 q-59 0 -102.5 36t-46.5 88q-3 23 12 95q4 12 4 18l2 4q31 95 111 309q29 87 86 224q40 100 115 100q26 0 41 -6q55 -21 61 -86q3 -36 -12 -74l-142 -395q-7 -20 -14 -53q18 5 47 16q145 56 162 64q24 91 37 178q8 39 18 94q6 26 12.5 44.5t20.5 40.5t37.5 34t56.5 12 q36 0 64.5 -23t32.5 -57q3 -45 -7 -86l-12 -57q-2 -9 -7.5 -44t-10.5 -55q46 19 104 46l25 14q44 31 86 31q41 0 75 -30t37 -67z" />
<glyph unicode="5" horiz-adv-x="1099" d="M244 -2q-109 0 -177 68.5t-77 187.5q-6 94 28 192q25 58 79 104t98 46q38 0 70.5 -29.5t35.5 -66.5q4 -37 -41 -111t-41 -113q3 -43 8 -51t27 -8q126 0 295.5 115t247.5 254q23 35 37.5 83.5t11.5 80.5q-9 122 -189 122q-69 0 -127 -12q-49 -7 -155 -63q-46 -24 -51 -25 q-21 -8 -45 -8q-49 0 -82.5 30.5t-38.5 77.5q-2 39 28 138q19 52 39 131q15 65 13 92q-3 81 67 115q117 60 330.5 133t253.5 73q38 0 68 -28t36 -68v-2q2 -39 -18 -72.5t-53 -48.5q-6 -3 -66 -16q-13 0 -33 -4q-64 -23 -121 -41q-163 -48 -227 -80q-30 -45 -51 -131 q126 33 211 33q179 0 297.5 -95t128.5 -247q6 -78 -21.5 -168t-81.5 -168q-123 -177 -330 -298.5t-384 -121.5z" />
<glyph unicode="6" horiz-adv-x="997" d="M748 946q92 0 151 -62t59 -159q-6 -215 -136.5 -393.5t-350.5 -272.5q-65 -30 -145 -30q-94 0 -164 56.5t-99 154.5q-28 86 -22 198q19 218 122 467t251 432q49 60 123 131q45 50 104 80.5t109 30.5q57 -3 97 -40t40 -85q0 -56 -31 -76t-106 -20q-20 0 -33 -8t-37 -33 q-141 -144 -231 -311q-65 -120 -100.5 -207.5t-63.5 -204.5q-6 -25 -9 -53q58 101 135.5 190.5t157.5 145.5q100 69 179 69zM717 684v12q-109 -59 -199.5 -183t-107.5 -234q123 61 210.5 175t96.5 230z" />
<glyph unicode="7" horiz-adv-x="1058" d="M381 -113q-60 0 -94.5 37.5t-28.5 95.5q14 168 145 635q-97 -41 -141 -80q-70 -73 -129 -73q-41 0 -68.5 31.5t-25.5 74.5q1 35 36 76t83 64q202 114 344 180q5 20 20.5 68t22.5 75q32 99 59 186q-160 -32 -270 -20q-25 -49 -68 -81t-84 -32t-67 20t-33.5 50t-10 65 t2.5 66q3 66 44 104.5t109 38.5q53 0 103 -6q119 -10 196 -8q76 2 193 39q83 27 121 27q42 0 70.5 -24.5t33.5 -63.5q7 -43 -72 -185q-69 -132 -96 -200q26 11 43 16q93 39 123 39q37 0 65.5 -23t34.5 -57q10 -38 -24.5 -76t-104.5 -69q-151 -65 -231 -109 q-48 -118 -108.5 -358t-71.5 -383q-6 -64 -38.5 -102t-82.5 -38z" />
<glyph unicode="8" horiz-adv-x="1191" d="M895 999q270 -130 258 -487q-9 -202 -217 -367q-113 -89 -220 -128.5t-237 -39.5q-197 0 -318.5 87t-121.5 231q0 36 8 67q52 252 248 439q-107 58 -107 196q0 23 7 58q47 248 186 399q47 53 131.5 92t151.5 39q95 0 186 -49q104 -3 157.5 -70t41.5 -176q-5 -76 -82 -188 q-38 -53 -80 -98q3 0 8 -5zM442 1151q-32 -94 -32 -135q0 -20 7.5 -28.5t24.5 -8.5q64 0 153.5 54.5t156 130.5t71.5 134q2 15 -26.5 31.5t-59.5 16.5q-15 0 -133 -68q-91 -54 -147 -82q-6 -15 -15 -45zM842 354q82 107 82 205q0 83 -42.5 153.5t-119.5 114.5l-43 -12 q-56 -14 -78 -27l-2 -2q-180 -97 -266 -212.5t-92 -266.5q0 -48 49 -74t143 -26q249 0 369 147z" />
<glyph unicode="9" horiz-adv-x="1017" d="M977 1149q6 -63 -21 -148q-11 -31 -18 -94q-2 -18 -10 -65q-21 -94 -83.5 -206.5t-135.5 -209.5q-103 -142 -206.5 -256t-244.5 -246q-69 -61 -113 -61q-40 0 -73 30t-33 68q-3 69 74 137q262 224 450 502q24 34 45 70q-147 -52 -217 -52q-129 0 -219 69.5t-104 178.5 q-12 126 42 258.5t161.5 244.5t248.5 181q98 39 160 39q74 0 130.5 -42t59.5 -101q0 -31 -2 -45q107 -162 109 -252zM680 977q25 41 31 85.5t4 108.5q-1 38 -21.5 72.5t-44.5 42.5q-10 2 -27.5 7t-23.5 7q-15 5 -55 17q-70 -51 -127.5 -124t-83.5 -144q-15 -38 -26 -82.5 t-11 -65.5q3 -61 92 -61t174 40t119 97z" />
<glyph unicode=":" horiz-adv-x="385" d="M219 541q-68 -12 -123 49q-33 36 -33 78q0 26 17 57q22 40 64.5 63t97.5 23q43 0 73.5 -34t30.5 -81t-41.5 -97t-85.5 -58zM195 45q-68 -12 -123 49q-33 36 -33 78q0 28 16 57q22 40 64.5 63t97.5 23q43 0 74 -33.5t31 -80.5t-41.5 -97.5t-85.5 -58.5z" />
<glyph unicode=";" horiz-adv-x="409" d="M244 541q-68 -12 -123 49q-33 36 -33 78q0 28 16 57q22 40 64.5 63t97.5 23q43 0 74 -34t31 -81t-41.5 -97t-85.5 -58zM86 -344q-43 0 -69.5 26.5t-26.5 69.5q0 37 30 84q34 65 48.5 95.5t28.5 71.5t20 81q-113 21 -113 109q0 45 44 77.5t104 32.5q49 0 88.5 -25.5 t56.5 -68.5q26 -75 20 -154q-14 -137 -114 -317l-2 -2q-28 -43 -54.5 -61.5t-60.5 -18.5z" />
<glyph unicode="&#x3c;" horiz-adv-x="868" d="M745 1477q55 0 88 -34.5t19 -78.5q-12 -56 -59 -119q-8 -8 -48 -53q-149 -179 -215 -250q-86 -90 -131 -135q-56 -56 -118 -121l22 -29q8 -10 36.5 -45.5t45.5 -54.5q37 -45 111 -131q56 -64 108 -129q50 -56 68 -99t14 -94q-5 -40 -33.5 -65t-70.5 -25q-83 0 -101 84 q-2 15 -10.5 33t-25 40t-30 39t-40 44.5t-40.5 42t-45 45t-42 41.5q-47 49 -71.5 77t-58.5 73.5t-55 87.5q-24 41 -24 84q0 64 57 124q229 229 404 412q15 16 39.5 46.5t33.5 41.5q14 19 58 70q47 78 114 78z" />
<glyph unicode="=" horiz-adv-x="823" d="M182 705q-79 -3 -106 55q-13 20 -13 45q0 50 56 84q48 21 82 26q26 3 172 27q178 29 254 37h6q16 4 29 4q90 6 114 -65q2 -3 2 -5q6 -18 6 -28q0 -29 -20.5 -54.5t-54.5 -39.5q-40 -15 -109 -27q-64 -7 -194 -29q-156 -24 -224 -30zM158 342q-80 -3 -107 55 q-12 18 -12 45q0 51 55 84q51 23 82 27q26 3 172 27q161 26 254 36h6q20 5 29 5q90 6 115 -66q2 -2 2 -4q6 -18 6 -29q0 -29 -21 -54.5t-55 -39.5q-40 -15 -109 -27q-79 -8 -194 -28q-173 -27 -223 -31z" />
<glyph unicode="&#x3e;" horiz-adv-x="843" d="M98 14q-55 0 -87.5 34.5t-18.5 78.5q12 56 59 119q7 7 15 16t17.5 20t14.5 17q149 179 215 250q86 90 131 135q78 78 119 121l-22 29q-8 10 -36.5 45.5t-45.5 54.5q-37 45 -111 131q-56 65 -108 129q-50 56 -68 98.5t-14 93.5q5 40 33.5 65.5t70.5 25.5q82 0 100 -84 q2 -15 10.5 -33t25 -39.5t31 -39.5t40 -44.5t40.5 -42t45 -45t42 -41.5q45 -48 71 -77t59 -74t54 -87q25 -42 25 -84q0 -64 -57 -124q-229 -229 -404 -412q-15 -17 -40.5 -48t-33.5 -40q-19 -26 -57 -70q-47 -78 -115 -78z" />
<glyph unicode="?" horiz-adv-x="923" d="M244 326q-51 0 -95.5 47.5t-44.5 101.5q0 29 32.5 112.5t53.5 121.5q43 65 129 184q10 15 31 42t27 36q40 66 96 149q125 189 168 260q41 64 47 125q-2 0 -4 -2q-42 -18 -53 -26q-122 -90 -197 -160t-139 -172q-1 -1 -9.5 -15t-11 -17.5t-13 -13.5t-19.5 -13.5t-25 -7 t-35 -3.5q-40 0 -67 27t-27 65q0 34 18 60l15 22l2 4q196 258 405 394q49 36 105.5 57.5t101.5 21.5q69 0 118 -43t56 -110v-4q0 -83 -35.5 -182.5t-97.5 -194.5q-36 -58 -172 -252l-100 -143q-105 -159 -154 -246q-20 -26 -20 -55q0 -11 8 -35q10 -20 10 -39 q0 -39 -31 -67.5t-73 -28.5zM195 -68q-55 -10 -105.5 31.5t-50.5 95.5q0 60 52 102t126 42q43 0 74 -34t31 -81t-41.5 -97.5t-85.5 -58.5z" />
<glyph unicode="@" horiz-adv-x="1343" d="M1274 1262q31 -94 31 -258q0 -56 -9 -93q-30 -176 -172 -350q-80 -88 -123 -124.5t-73 -39.5q-62 -6 -131 60l-15 -13q-7 -7 -37 -32q-87 -74 -186 -74q-103 0 -164 96q-45 70 -45 178q0 141 70 256q88 163 264 279q64 45 137 45q64 0 107.5 -40.5t54.5 -109.5 q2 -20 2 -55q0 -41 -8 -131q-6 -50 -6 -100q0 -24 4 -60q55 62 78 129q27 67 30 105q11 61 11 100q0 114 -61 168.5t-187 54.5h-17q-16 3 -22 0h-6q-137 -12 -262 -123.5t-201 -283.5t-76 -352q0 -117 93.5 -199t226.5 -82q106 0 223 63q12 6 37 19t42.5 21.5t35.5 13.5 q27 12 49 12h8q26 0 46.5 -15.5t29.5 -43.5q4 -12 4 -27q0 -63 -70 -117q-145 -109 -325 -145q-41 -8 -76 -8q-23 -2 -58 -2q-209 0 -349 136t-140 337q0 417 244 704q268 312 538 324q378 9 453 -223zM741 770l33 195q-69 -37 -131 -115t-74 -145q-2 -8 -2 -31 q0 -42 19 -82q7 -17 14 -17q22 0 39 23l4 2q83 80 98 170z" />
<glyph unicode="A" horiz-adv-x="827" d="M758 227q6 -15 6 -28q0 -50 -33.5 -81.5t-85.5 -31.5q-50 0 -75.5 36t-39.5 116q-8 43 -16 137q-10 107 -14 129q-136 -49 -236 -152q-14 -44 -35 -158t-28 -196q-6 -44 -35 -70t-72 -26q-48 0 -75.5 29t-28.5 83q0 49 4 76q42 204 61 290.5t57.5 252.5t77 299.5 t84.5 267.5q22 64 95 254q46 109 127 109q60 0 98.5 -39t46.5 -105q11 -78 18 -205l7 -90q6 -95 16 -209q2 -30 5 -79t3 -50q37 -24 37 -81q0 -40 -22 -103q-2 -64 26 -219q22 -126 25 -150q2 0 2 -6zM350 668q87 44 121 63q-8 224 -18 373q-76 -222 -115 -440q2 1 6 2t6 2z " />
<glyph unicode="B" horiz-adv-x="954" d="M190 -68q-68 11 -111 59t-40 109q8 40 12 50q29 75 41 225q4 28 8 76q9 94 32 314t34 333q-4 2 -12 2q-38 5 -62.5 33.5t-23.5 66.5q0 49 36 88q225 279 560 279l8 -2q37 0 104 -23q67 -28 104.5 -80t34.5 -112q0 -30 -10 -60v-2q-30 -86 -74 -145q-53 -73 -141 -168 q-5 -6 -16.5 -17.5t-16.5 -17.5l-30 -35l28 -2q105 -17 167 -80.5t65 -158.5q2 -16 2 -43q-3 -67 -27 -140q-39 -132 -174 -264q-161 -158 -319 -242q-15 -4 -29 -12q-55 -24 -80 -29h-10q-36 -5 -60 -2zM371 956q123 106 208.5 213.5t108.5 184.5q-10 2 -24 2h-5 q-120 15 -260 -92q-14 -95 -28 -308zM334 655l-35 -465q105 58 200.5 147t137.5 171q38 74 41 145q1 22 -10 31.5t-39 11.5q-5 3 -19 -2q-30 2 -94 -6l-20 -2q-24 -3 -95 -16q-42 -11 -67 -15z" />
<glyph unicode="C" horiz-adv-x="847" d="M473 -98q-191 0 -312.5 196.5t-121.5 503.5q0 120 24 248t71 247.5t110 214.5t149.5 152.5t181.5 57.5q71 0 149.5 -36.5t130.5 -91.5t52 -106q0 -47 -33.5 -79.5t-80.5 -32.5q-43 0 -80 43q-6 9 -13 16q-6 5 -23 20.5t-23 20.5t-19.5 15.5t-21.5 14.5t-19 7.5t-21 3.5 q-77 0 -149.5 -105.5t-117 -275t-44.5 -346.5q0 -204 65 -337.5t165 -133.5q37 0 92 41q61 45 100 45q34 0 58 -25t24 -61q0 -47 -46.5 -98t-115.5 -85t-131 -34z" />
<glyph unicode="D" horiz-adv-x="940" d="M125 -8q-38 1 -62 29.5t-24 68.5q0 30 14.5 68t34.5 63q-2 12 -2 45q6 54 8 64q6 56 6 57v2q35 449 41 596q6 65 6 125q3 12 3 25q2 25 2 69h-15q-77 6 -90 96q-6 44 41 84t127 66q121 39 211.5 48.5t222.5 -1.5q141 -13 221 -107.5t80 -246.5q0 -228 -165 -506.5 t-457 -546.5q-120 -105 -203 -98zM334 403q159 166 279 375.5t126 364.5q5 74 -24 102.5t-115 34.5q-109 10 -229 -10q-8 -64 -21 -250l-6 -137q-8 -164 -8 -371q-2 -35 -2 -109z" />
<glyph unicode="E" horiz-adv-x="806" d="M201 -18q-66 0 -108 39t-46 106q-11 84 -8 192q0 33 4 91q11 128 66 591q6 37 14 107q-50 21 -47 92q1 49 57.5 101t157.5 100q118 57 277 111.5t239 54.5q52 0 81.5 -27.5t26.5 -73.5q0 -28 -19.5 -53.5t-51.5 -40.5q-8 -3 -80 -26l-57 -19q-119 -40 -188.5 -69t-96 -45 t-68.5 -46q-6 -81 -26 -264q-4 -32 -4 -45q153 62 200 78q13 6 27 10q62 27 111.5 -1.5t44.5 -82.5q0 -32 -21 -53q-47 -50 -111 -74q-81 -32 -119 -47.5t-88 -40t-75 -43.5q-19 -122 -25 -252q-6 -66 0 -114q101 48 189 145q12 10 26 27q20 20 31 30t32.5 20.5t43.5 10.5 q42 0 72 -35t28 -80q0 -10 -3 -21t-9 -23l-10 -20t-12.5 -21t-10.5 -17l-4 -4q-143 -159 -348 -250q-47 -18 -92 -18z" />
<glyph unicode="F" horiz-adv-x="858" d="M207 -123h-2q-115 9 -115 158l12 209q11 162 13 245q-34 7 -55 33t-21 60q3 67 102 147q7 92 37 295q2 14 6 68q2 8 2 20h-8q-42 0 -68 24.5t-26 63.5q0 25 10 45q24 52 228.5 181t343.5 196q49 22 115.5 37.5t107.5 15.5q63 0 103 -35.5t40 -89.5q0 -60 -59.5 -121 t-116.5 -61q-33 0 -57 19t-33 51q-78 -30 -178 -87.5t-152 -97.5q-38 -149 -61 -387q205 127 309 156q21 6 37 6q39 0 67.5 -26t28.5 -62t-28.5 -64.5t-90.5 -56.5q-182 -79 -352 -235q-29 -256 -29 -375q-3 -45 5 -168q0 -7 1 -21.5t1 -21.5q6 -53 -27 -87t-90 -34z" />
<glyph unicode="G" horiz-adv-x="1042" d="M997 723q8 -63 4 -98q-23 -176 -114.5 -334.5t-222.5 -254t-263 -95.5q-167 0 -264.5 119.5t-97.5 322.5q0 26 4 76q16 139 73 304t159 341t227 305q47 53 129 100t127 47q69 0 121.5 -55t52.5 -127q0 -52 -29.5 -85.5t-75.5 -33.5q-26 0 -46.5 11t-31 23.5t-26.5 35.5 l-8 -8q-32 -23 -47 -43l-2 -2q-356 -398 -394 -866q-9 -108 26.5 -177t100.5 -69q44 0 74 18l2 2q103 50 198 201t95 266q0 33 -6 45q-53 -8 -111.5 -84t-75.5 -162q-17 -74 -46 -109.5t-74 -35.5q-56 0 -81.5 27.5t-29.5 91.5q0 37 2 57q14 82 60 163t108 141.5t136.5 98.5 t142.5 38q80 0 136 -53.5t68 -141.5z" />
<glyph unicode="H" horiz-adv-x="903" d="M612 -160q-43 0 -69.5 19.5t-35.5 51.5t-12 73t1 84l18 215q16 153 35 387q-102 -57 -150 -88.5t-112 -81.5q-23 -135 -23 -250q0 -9 1 -33t1 -37q4 -54 4 -80v-14q3 -49 -27.5 -82t-74.5 -33q-61 0 -95 53.5t-34 147.5q4 186 45 633q19 199 25 266q5 133 46.5 206 t114.5 73q41 0 65.5 -30t24.5 -77q0 -83 -43 -309q-4 -29 -13.5 -84t-12.5 -76l24 14q211 110 267 154q14 126 49 344q2 17 9.5 63t10.5 72q9 36 15 54q9 41 41.5 67.5t72.5 26.5q46 0 77.5 -31.5t31.5 -77.5q0 -16 -2 -24l-13 -50q-12 -52 -14 -71q-3 -28 -10 -79t-10 -75 q-3 -27 -19.5 -155t-23.5 -201q-20 -212 -33 -365q-11 -146 -37 -430q-3 -33 -5.5 -51t-10 -44.5t-19 -40t-32 -24t-48.5 -10.5z" />
<glyph unicode="I" horiz-adv-x="425" d="M141 16q-40 1 -64 22t-30.5 54t-8.5 73t1 79q7 163 45.5 510.5t75.5 519.5q19 76 49 118.5t94 41.5q44 -2 66.5 -30.5t15.5 -74.5q-2 -24 -31 -223q-57 -404 -73 -594q-18 -179 -19 -213q0 -86 2 -121q0 -4 -1 -11t-1 -11q0 -3 -1 -11t-1 -12q-5 -57 -36 -87.5t-83 -29.5 z" />
<glyph unicode="J" horiz-adv-x="804" d="M315 -233h-4q-120 9 -176 71q-62 65 -82 121q-63 160 -63 332q0 129 33 241q6 42 36 93q41 59 95 59q24 0 39 -6q57 -25 57 -84q0 -5 -4 -25v-8q-4 -7 -8 -29q-5 -20 -9 -32q-30 -94 -30 -189q0 -117 37 -241l2 -4v-5q35 -94 73 -94q28 0 64 47q29 36 67 127 q70 179 76 383q0 2 12 434q3 162 9 326q2 71 14 211q3 45 25.5 74t60.5 35q20 4 33 4q25 0 43 -9q27 -3 43 -41t4 -65q-25 -51 -25 -137v-41q2 -14 2 -45q-2 -96 -2 -287q-6 -379 -6 -383q-3 -269 -78 -498q-51 -144 -123 -227q-96 -102 -215 -108z" />
<glyph unicode="K" horiz-adv-x="874" d="M995 1626q37 -26 37 -74q0 -35 -18 -65q-14 -20 -47 -53q-40 -46 -80 -95.5t-69 -86t-71.5 -95.5t-61.5 -85.5t-67 -97.5t-59.5 -89t-67.5 -102.5t-65 -98.5q34 -45 166 -192q25 -29 106 -93q20 -14 43 -34q3 0 9 -3q20 -10 26 -16q41 -30 41 -76q0 -45 -29 -81.5 t-67 -36.5q-7 0 -27 4h-4l-2 2q-74 27 -143.5 84t-163.5 164q-46 52 -80 102q-15 -27 -18 -72q-10 -88 -17 -227q-4 -112 -8 -168q-1 -7 -2 -22t-2 -21q-1 -48 -34 -81.5t-75 -33.5q-43 0 -72 25t-34 65v35v12l61 900q11 157 27 356v4q10 64 37 109q28 55 90 55q24 0 39 -6 l2 -2q60 -33 51 -109q-15 -159 -22 -272l-13 -160q257 379 467 639q41 53 74 82q38 33 80 33q37 0 63 -23z" />
<glyph unicode="L" horiz-adv-x="788" d="M195 -111q-19 0 -60 13q-35 14 -56.5 37.5t-28.5 49.5t-10 54t1 51q1 17 2 50.5t2 50.5q11 317 27 505q14 188 45 447q3 23 8 69t8 66q4 37 8 61.5t12.5 61.5t21 60.5t30.5 47t45 35t61 11.5q51 0 79 -27t28 -76q0 -26 -27 -76q-1 -3 -6.5 -14l-8 -16t-7.5 -15.5 t-7.5 -18.5t-6 -19t-5.5 -22.5t-4 -23.5q-72 -541 -72 -1024v-6l60 62q61 57 104 106l54 55q30 34 66 56t63 22q40 0 72 -30t32 -68q0 -25 -18.5 -58.5t-49.5 -62.5q-178 -194 -305 -321q-28 -29 -44 -44t-48.5 -32t-64.5 -17z" />
<glyph unicode="M" horiz-adv-x="1142" d="M1038 594q-1 -30 -2 -91t-2 -89q-2 -59 15 -201q8 -71 10 -104q0 -7 4 -31q4 -16 4 -33v-4q-6 -55 -32.5 -87t-69.5 -32q-64 0 -100.5 55.5t-39.5 157.5q-13 268 -2 627q-63 -183 -116 -400l-56 -241q-2 -7 -7 -21.5t-7 -21.5q-15 -41 -51 -66.5t-78 -25.5q-76 0 -107 69 q-20 48 -24 127q-1 7 -1.5 19.5t-1.5 23t-3 19.5q-22 154 -49 360q-2 24 -17 125q-15 -55 -49 -244l-18 -112q-14 -58 -25 -166l-12 -98q-8 -31 -13.5 -47.5t-19.5 -41.5t-37.5 -37t-56.5 -12t-56 26t-26 62q-7 44 8 144q30 285 88 495q23 86 39 158q5 16 13 47t10 37 q6 27 16 57q72 249 88 295q31 129 135 129q62 0 95 -44.5t30 -123.5q-11 -300 25 -669q130 461 243 733q6 14 15 37t10 26q10 30 15.5 44t18 37t24.5 34t32 20t45 9q63 0 101.5 -55.5t35.5 -141.5q-4 -92 -16 -233q-17 -150 -19 -236q-6 -120 -6 -264z" />
<glyph unicode="N" horiz-adv-x="892" d="M881 1622q47 -35 47 -84q0 -19 -4 -35q0 -1 -11 -28q-27 -93 -28 -101q-17 -54 -27 -149l-18 -146q-66 -514 -76 -907q0 -60 -33 -101.5t-82 -41.5t-80 45q-39 54 -100 254q-5 21 -10 37q-35 104 -172 426q-1 -18 -4 -55.5t-4 -57.5q-17 -294 -19 -406q0 -20 2 -32 q0 -50 6 -99v-24q0 -56 -51 -101q-27 -30 -74 -30q-30 0 -54 19t-36 52q-14 31 -14 101q11 256 47 852q2 53 12.5 128.5t24.5 104.5l2 4q44 70 115 70q34 0 54.5 -16.5t43.5 -57.5l2 -4q41 -108 100 -250l49 -117q48 -115 91 -231q34 374 94 754q9 61 33 127q18 47 51 80 q27 34 71 34q24 0 52 -14z" />
<glyph unicode="O" horiz-adv-x="950" d="M387 -31q-102 0 -185 72t-126.5 194.5t-36.5 266.5q10 201 53.5 350t153.5 311q84 120 179.5 190t176.5 70q62 0 95.5 -29.5t33.5 -84.5q174 -174 180 -539q-2 -127 -39.5 -265.5t-102.5 -259t-166 -198.5t-216 -78zM399 178q50 1 109 72.5t105.5 184t60.5 224.5 q8 84 8 183q-1 120 -36 208t-97 126q-144 -121 -215 -308t-62 -419q6 -108 45 -189.5t82 -81.5z" />
<glyph unicode="P" horiz-adv-x="849" d="M139 -92q-44 1 -72 30.5t-28 73.5q6 198 41 584q12 120 29 326q4 24 16 137l20 176h-28q-70 3 -70 78q2 57 87.5 106t215 74t254.5 16q115 -9 186.5 -81t69.5 -177q-1 -76 -59.5 -196t-142 -234.5t-183 -213t-178.5 -136.5q-17 -115 -23 -307v-68q-1 -30 -3 -53 t-10.5 -51t-22 -46t-39 -29t-60.5 -9zM315 754q101 76 205.5 235t108.5 250q0 34 -10 47t-39 14q-112 7 -203 -18q-41 -308 -62 -528z" />
<glyph unicode="Q" horiz-adv-x="968" d="M795 68q1 -4 2.5 -7.5t4 -8.5t3.5 -9q12 -24 12 -39q0 -47 -29 -77.5t-75 -30.5q-26 0 -41 6q-22 8 -38.5 23.5t-23 26t-14.5 28.5q-1 3 -4 8t-4 8l-2 2q-40 103 -47 123q-65 -27 -131 -27q-73 0 -141.5 36.5t-121.5 102.5q-116 161 -104 379q30 449 389 826 q64 61 137 61q75 0 131 -53q72 -64 123 -154q109 -186 109 -489q0 -249 -131 -455q-33 -53 -78 -98l37 -92q6 -15 18.5 -45t18.5 -45zM319 354q31 -51 89 -51q33 0 59 16q-1 2 -2 6.5t-2 6.5q-6 18 -6 33q0 34 20.5 62.5t52.5 37.5q18 6 35 6q20 0 43 -10q39 69 54 114 q43 125 43 254q0 182 -84 361q-3 8 -13.5 24.5t-13.5 22.5q-5 5 -14 23q-137 -111 -225.5 -308t-88.5 -393q0 -117 53 -205z" />
<glyph unicode="R" horiz-adv-x="925" d="M170 -86q-55 0 -93 37.5t-38 91.5q0 75 10 215q33 495 64 817q-31 11 -48.5 37.5t-17.5 63.5q0 60 94.5 131.5t231.5 119.5t250 48q141 0 227 -76t86 -199q0 -55 -30 -123t-75.5 -132t-112.5 -140t-127.5 -137.5t-134.5 -134.5q-10 -9 -15 -14l-13 -13l-14 -14l231 -52 q34 -8 53.5 -12.5t50.5 -14t49.5 -20t38 -25t29.5 -34t11 -43.5q3 -49 -38.5 -85.5t-88.5 -27.5q-38 8 -142 41q-134 37 -141 39q-133 30 -188 37q-7 -68 -7 -168q3 -43 -2 -90.5t-16 -63.5l-14 -16q-28 -43 -70 -43zM299 678q150 131 275.5 292t125.5 222q0 29 -23.5 48.5 t-55.5 16.5q-149 -16 -287 -118q-11 -176 -35 -461z" />
<glyph unicode="S" horiz-adv-x="890" d="M344 -96q-87 0 -166.5 40t-130.5 109q-29 45 -41 72q-33 91 -1.5 151t104.5 60h4q34 -4 54.5 -26t41.5 -70q19 -43 24 -50q39 -67 109 -67q32 0 80 29q60 35 92.5 87t32.5 111q0 34 -8 63t-34.5 70t-40 59.5t-61.5 78.5q-51 66 -131 159q-60 71 -86.5 106.5t-47.5 90 t-21 117.5q0 112 96 231q182 218 436 264q51 11 158 -6q42 -6 75 -42.5t42 -84.5q12 -45 -22.5 -86t-80.5 -41q-47 0 -80 41q-18 21 -32 23q-3 0 -6.5 -0.5t-10 -1.5t-12.5 -2q-1 -1 -4 -2.5t-4 -2.5q-125 -35 -223.5 -124t-98.5 -166q0 -26 15 -56t29 -47.5t59 -72.5 q42 -49 82 -99l49 -61q101 -127 135 -191q59 -100 59 -211q0 -113 -56.5 -212t-156.5 -164q-102 -76 -221 -76z" />
<glyph unicode="T" horiz-adv-x="833" d="M348 -94q-47 0 -77.5 28t-32.5 72q-2 39 2 105q4 52 22 241q49 553 72 838q-61 -25 -82 -33q-37 -14 -88 -37q-45 -22 -82 -22q-36 0 -64 29.5t-28 66.5q0 75 119 133l622 250q73 29 117 29q47 0 83 -36t36 -83q0 -53 -49.5 -100.5t-106.5 -47.5q-31 0 -59 21 q-75 -6 -187 -72q-94 -770 -94 -1108v-86q0 -91 -31.5 -139.5t-91.5 -48.5z" />
<glyph unicode="U" horiz-adv-x="874" d="M227 8q-96 0 -144.5 84t-43.5 242q7 188 45.5 471t79.5 471q12 57 52 86t93 20q26 -6 48 -31.5t22 -50.5q3 -45 -17 -122q-33 -177 -60.5 -419t-27.5 -390q0 -97 15 -97q35 0 119 80.5t139 196.5q15 337 69 831q5 68 34.5 106t80.5 38q45 0 75 -28t30 -71q0 -36 -7 -63 q-15 -103 -31.5 -329.5t-23.5 -446.5q-8 -136 -8 -287q0 -53 2 -78v-63q0 -44 -31 -72.5t-80 -28.5q-56 0 -80.5 34t-37.5 97q-79 -77 -167.5 -128.5t-144.5 -51.5z" />
<glyph unicode="V" d="M784 1624q52 -28 52 -84q0 -23 -11 -49l-6 -16q-232 -520 -373 -1307q-19 -100 -62.5 -150.5t-107.5 -44.5q-67 10 -95.5 62.5t-28.5 159.5q0 75 -4 150.5t-15 167t-17 136t-23 154.5t-19 125q-4 32 -33 157q-2 11 -7.5 32.5t-6.5 27.5q0 6 -4 26q-9 36 -9 58 q0 44 34.5 82.5t74.5 38.5q35 0 61 -20.5t35 -57.5q33 -110 64 -256q34 -165 57 -342q113 488 268 854q20 45 58 73.5t77 28.5q26 0 41 -6z" />
<glyph unicode="W" horiz-adv-x="1120" d="M1190 1694q39 -28 39 -72q0 -27 -10 -47q-207 -490 -279 -1182q-10 -137 -25 -235q-19 -82 -51.5 -116t-95.5 -34q-61 0 -98 52.5t-45 146.5q-2 19 -10 73t-11 85q-46 323 -59 403q-142 -489 -191 -799q-21 -136 -127 -139q-30 1 -51 11.5t-32 32t-15 34.5t-8 37l-6 22v6 l-13 177q-16 170 -24 323q-3 51 -9 126.5t-8 105.5q-13 137 -20 288v41q-2 16 -2 56q0 123 35 161q30 41 86 41q58 0 84 -53l2 -6q6 -11 2 -45v-14q0 -167 33 -539q10 31 18 63l96 324q45 155 84 283v2q3 8 11.5 30.5t12 31.5t12.5 26t17 24t20 16t27.5 11.5t34.5 1.5h2 q52 -7 77 -45t34 -119q7 -91 29 -338q7 -55 14 -143q39 214 201 741q28 79 71 125.5t88 46.5q38 0 60 -22z" />
<glyph unicode="X" horiz-adv-x="1001" d="M53 -268q-25 8 -44 31.5t-19 46.5q-2 31 6 77.5t18 69.5q50 103 115 246q110 241 240 514q11 41 14 63q0 21 -8 45q-75 183 -137 367q-6 21 -27 111q-5 25 -8 34l2 -4q-2 6 -2 27v4q0 60 55 88q28 21 61 21q41 -3 66 -29t25 -64q-1 -43 34 -157.5t72 -204.5 q70 141 152 334q31 85 63 141q67 130 150 127q13 -3 28 -10q34 -9 56 -42.5t22 -72.5q0 -34 -24 -55q-27 -25 -71 -103t-76.5 -147.5t-86.5 -188.5q-84 -179 -90 -190q-9 -21 -12 -47q0 -22 10 -45l2 -4q19 -48 48 -128.5t36 -99.5q50 -146 98 -268q5 -16 8 -20 q23 -71 21 -101q0 -29 -21.5 -52.5t-54.5 -31.5q-28 -4 -33 -4h-2q-59 6 -82 51q-23 38 -28 72q-23 54 -78 203q-5 15 -43 123l-14 33q-144 -262 -312 -687q-49 -97 -129 -73z" />
<glyph unicode="Y" horiz-adv-x="745" d="M754 1694q43 0 71.5 -24t28.5 -62q0 -28 -18 -70q-12 -29 -72.5 -170t-76 -178t-67 -161t-71 -176.5t-62 -164t-65 -184t-55 -175.5t-57.5 -199t-48 -198q-12 -78 -49 -121.5t-92 -43.5q-50 0 -76.5 25.5t-26.5 72.5q0 29 21 96q22 77 78 283q75 287 116 409 q-44 91 -98 229t-78 244q0 2 -1 8t-1 9q-8 46 -8 49q0 63 24.5 91t78.5 28q40 0 66 -23t32 -63q17 -109 102 -289q9 27 15 37l98 229l153 363q34 70 65.5 99.5t72.5 29.5z" />
<glyph unicode="Z" horiz-adv-x="946" d="M956 1573q25 -31 25 -64q0 -32 -23 -65q-7 -17 -22 -35q-4 -4 -6 -8h-2q-108 -111 -201 -309q-288 -597 -381 -832l2 2q105 51 125 60q103 53 256 124q33 13 57 13q40 0 72.5 -32.5t32.5 -72.5q0 -61 -92 -106q-23 -14 -101 -47q-151 -61 -260 -124t-229 -169 q-28 -25 -64 -42.5t-61 -17.5q-40 0 -67 27.5t-27 67.5q0 54 30 118l318 676q6 14 27.5 60t31.5 71q90 202 133 287q34 71 101 191q0 1 1 3t1 3l-49 -13q-49 -13 -166 -55q-125 -47 -197 -67q-1 0 -16 -5q-28 -8 -39 -8q-38 0 -68 33.5t-30 73.5q0 44 34 71q26 22 54 27 l495 150q38 12 131 34q39 10 49 11q21 8 41 8q48 0 84 -39z" />
<glyph unicode="[" horiz-adv-x="731" d="M688 1532v-2q4 -12 4 -27q0 -36 -22 -63t-58 -35q-137 -34 -231 -47q-3 -48 -27 -230q-58 -498 -73 -716q-18 -215 -19 -258v-117q115 17 166 26q35 7 51 7q81 0 111 -70v-2q4 -12 4 -27q0 -36 -22 -63t-58 -35q-202 -52 -342 -57q-8 -2 -31 -2q-40 0 -61 24 q-37 26 -37 74v12q-4 33 -4 164q7 196 45.5 615.5t75.5 627.5q2 7 5 22.5t5 22.5q-29 26 -29 68q0 46 32 72t103 38q40 6 250 41q35 7 52 7q80 0 110 -70z" />
<glyph unicode="\" horiz-adv-x="817" d="M657 -115q-107 0 -122 123q-5 51 -74 256q-29 88 -29 90q-99 306 -256 719q-11 33 -33 93.5l-30 82.5q-24 68 -78 115q-45 28 -45 86q0 49 37.5 83t91.5 34q13 0 25 -2.5t22.5 -10t19 -12.5t18 -18t14.5 -19t14 -23t12 -22t12 -23.5t10 -21.5q118 -291 193 -508 q295 -847 295 -907q0 -44 -29.5 -79.5t-67.5 -35.5z" />
<glyph unicode="]" horiz-adv-x="765" d="M651 1577q42 -6 61.5 -39.5t12.5 -87.5q-2 -30 -31 -268q-58 -496 -73 -717q-18 -215 -19 -258q0 -103 2 -146q0 -5 -1 -13t-1 -13q0 -4 -1 -14t-1 -15q-5 -67 -35 -103.5t-80 -35.5q-199 -51 -338 -51q-47 0 -77.5 26.5t-30.5 69.5q0 46 32.5 72.5t102.5 38.5 q158 24 205 32v86q7 193 45.5 610.5t75.5 626.5q-150 -30 -254 -30q-48 0 -78.5 27t-30.5 69q0 46 32 72t103 38q40 6 250 41q35 7 51 7q50 0 78 -25z" />
<glyph unicode="^" horiz-adv-x="831" d="M672 567h-8q-68 0 -99 60q-3 4 -18 45l-6 16q-10 18 -35 57t-35 56q-7 10 -8 14l-160 -197q-35 -53 -80.5 -85.5t-83.5 -32.5q-41 0 -73.5 31.5t-32.5 72.5q0 35 32.5 88t124.5 168q91 109 158 205q62 98 139 98q72 0 123 -92q14 -30 66 -106q56 -83 82 -136 q41 -75 41 -133q0 -41 -23 -72.5t-61 -45.5q-22 -11 -43 -11z" />
<glyph unicode="_" horiz-adv-x="1478" d="M156 -152q-51 0 -84 28t-33 71q0 35 27 61t71 37q27 6 53 6q6 2 17 2q192 15 428 45q265 31 407 43q58 4 84 4q56 0 86.5 -27.5t30.5 -78.5q0 -35 -19.5 -60t-54.5 -34q-86 -19 -108 -21q-33 -3 -82.5 -8.5t-69.5 -7.5q-106 -15 -194 -21q-143 -10 -211 -16l-166 -14 q-22 0 -72 -4q-92 -5 -110 -5z" />
<glyph unicode="`" horiz-adv-x="460" d="M354 977q-23 3 -88 22q-20 10 -37 13q-12 4 -16 4q-66 16 -96 18q-66 8 -97.5 33t-27.5 70q1 47 45.5 81t97.5 29q92 -8 264 -80q34 -12 53.5 -37t16.5 -55q-3 -41 -37.5 -70.5t-77.5 -27.5z" />
<glyph unicode="a" d="M489 1171q81 0 140 -60t59 -142q0 -63 -18 -160q-34 -227 -43 -295q-2 -16 -8.5 -60.5t-8.5 -66.5q-27 -181 -16 -297v-20q2 -6 2 -23q0 -40 -27.5 -66.5t-70.5 -29.5q-55 0 -84 33t-37 102q-79 -59 -172 -59q-84 0 -137.5 68.5t-53.5 176.5q0 184 189 379q58 64 135 137 l84 84q21 20 36 45.5t15 40.5v15q-40 0 -112.5 -61.5t-84.5 -106.5q-8 -31 -32.5 -48.5t-61.5 -17.5q-44 0 -68 28.5t-24 78.5q0 70 78.5 154t196.5 143q57 28 124 28zM326 324q49 82 76.5 148t41.5 155q-58 -61 -172 -226q-20 -32 -35.5 -72t-15.5 -59l4 -30q19 -2 49 23.5 t52 60.5z" />
<glyph unicode="b" horiz-adv-x="817" d="M113 41q-46 0 -75 35.5t-24 85.5v-2q0 34 54 104q5 183 27 514.5t30 401.5l12 108q1 12 8.5 74.5t8.5 87.5q4 61 34 97t74 34q55 0 81.5 -40t18.5 -111l-18 -197q-7 -69 -13 -140.5t-7 -84.5q77 27 163 18q138 -9 219.5 -112.5t69.5 -256.5q-7 -47 -34.5 -100t-51.5 -85 t-72 -91q-100 -110 -267 -228t-238 -112zM293 373q137 96 207 186q24 30 43.5 72t19.5 61v2q4 49 -25.5 88.5t-72.5 44.5q-69 5 -111.5 -20.5t-48.5 -75.5q-25 -182 -12 -358z" />
<glyph unicode="c" horiz-adv-x="720" d="M479 16q-126 0 -233 64.5t-169.5 175t-62.5 240.5q0 168 87.5 322.5t228.5 236.5q106 53 180 53q75 0 123.5 -50t48.5 -128q0 -86 -45.5 -161t-101.5 -75q-40 0 -69.5 28.5t-29.5 68.5q0 15 19 63q6 9 6 10l8 31q-236 -143 -236 -387q0 -120 63 -197t169 -88q12 -3 65 10 q44 9 52 9q38 0 66 -27t28 -65q0 -55 -58.5 -94.5t-138.5 -39.5z" />
<glyph unicode="d" horiz-adv-x="874" d="M844 106q16 -29 16 -53v-6q-8 -37 -34 -58.5t-64 -21.5q-37 0 -66.5 33.5t-64.5 105.5q-28 51 -39 113q-17 -17 -29 -24q-165 -123 -293 -123q-134 0 -215 116q-22 28 -33.5 82.5t-5.5 98.5q37 233 185.5 402.5t343.5 201.5q0 23 6 53l18 141q13 123 37 289 q14 68 49.5 110t79.5 42h2q97 -6 97 -129q2 -134 -7 -341.5t-26 -373.5q-2 -25 -10 -76t-9 -61q-17 -114 -18 -138q-6 -60 21.5 -193t58.5 -190zM317 279q95 28 164.5 117t69.5 184q0 19 -4 59q0 6 -1 20t-1 21q-5 63 -17 63q-16 0 -61 -26q-94 -64 -170 -180.5t-76 -194.5 q0 -38 10.5 -54t34.5 -16q7 0 51 7z" />
<glyph unicode="e" horiz-adv-x="808" d="M360 55q-346 0 -346 355q0 208 105 393q60 111 157 185.5t183 74.5q90 0 147.5 -43.5t57.5 -112.5q0 -148 -101 -276q-130 -169 -338 -250q9 -107 133 -107q8 0 48 5q10 1 20 3t21.5 5.5t19.5 6t22 8.5t19.5 8.5t21.5 10.5t19.5 9.5t21.5 11t19 10.5q85 51 125 51 q43 0 73.5 -28t30.5 -66q0 -57 -80 -119q-63 -50 -183 -92.5t-196 -42.5zM252 627q58 38 111.5 98.5t78.5 116.5q-64 -19 -117.5 -80t-72.5 -135z" />
<glyph unicode="f" horiz-adv-x="888" d="M948 1810q90 -3 145 -62.5t52 -150.5q-9 -91 -101 -217q-43 -59 -100 -59q-42 2 -68.5 28t-23.5 64q3 18 22 64q7 14 18.5 34.5t14.5 26.5q25 46 27 59v6q1 5 -3 6q-2 0 -7 1h-2q-80 3 -171.5 -93.5t-160.5 -250.5t-88 -310q27 11 28 11q105 45 179 59q37 7 55 4 q59 -3 90 -31t27 -75q-1 -37 -28 -60.5t-65 -23.5q-38 -4 -78.5 -15.5t-59 -19.5t-70.5 -31q-12 -5 -36.5 -16.5t-37.5 -16.5q-28 -12 -40 -27.5t-17 -43.5q-28 -169 -28.5 -395.5t28.5 -368.5q15 -60 -23 -111.5t-98 -50.5q-67 6 -88 84q-12 47 -18 96t-7 76t-2 98 q0 11 -1 34.5t-1 37.5q-3 110 4 238q8 164 8 172q-85 -52 -125 -50q-35 0 -59.5 27.5t-24.5 65.5q1 43 40 81t136 95q61 38 74 47q49 299 148 519.5t237.5 336.5t298.5 108z" />
<glyph unicode="g" horiz-adv-x="854" d="M500 459q130 -17 220.5 -97.5t113.5 -201.5q6 -30 6 -74q0 -141 -117 -270q-95 -110 -251 -181t-302 -71q-164 0 -258 66.5t-94 183.5q0 79 49 161q47 89 93.5 158.5t93.5 119t81 79t82 65.5q-82 25 -131 78t-49 119q0 13 4 45q12 58 42 114.5t66 99.5t81 83t80.5 65 t70.5 46q30 39 39 59l2 2q37 72 121.5 122.5t193.5 65.5q48 9 87.5 -16t39.5 -66q0 -24 -19 -49t-46 -37q-41 -21 -90 -30q-56 -21 -84 -49q159 -63 159 -201q0 -24 -8 -74q-39 -167 -246 -301q-10 -6 -30 -14zM260 623v-3q-1 -2 -1.5 -7.5t-0.5 -12.5q0 -9 3 -11.5t13 -2.5 q13 0 37 4q152 47 232 174q22 40 22 67q0 20 -6.5 26.5t-26.5 6.5q-36 0 -81 -28l-5 -5q-147 -69 -186 -208zM629 111q3 50 -48.5 101.5t-103.5 51.5q-46 0 -105.5 -18.5t-78.5 -38.5q-121 -118 -189.5 -217t-68.5 -152q0 -58 112 -61q186 0 330 100t152 234z" />
<glyph unicode="h" horiz-adv-x="733" d="M541 -145q-32 -3 -56.5 5t-37.5 19.5t-23 36.5t-13 39t-7 45t-5 39q-13 75 -2 324t41 434l-43 -43l-2 -4q-52 -43 -75 -70.5t-38.5 -75t-21.5 -127.5q-5 -66 6 -176l6 -65v-3q0 -47 -26 -76t-70 -34q-52 -3 -87.5 35t-43.5 106q0 45 -2 70q0 67 -2 100q-4 75 4 195 q5 86 39 334q10 68 18 139v2q15 82 33 168q4 24 15.5 86.5t17.5 97.5q15 62 53 104.5t82 43.5q45 1 75.5 -24.5t33.5 -66.5q2 -20 -21 -83l-6 -23l-2 -2q-47 -158 -57 -242q-24 -167 -29 -217q5 5 21 19t26 24q5 4 22 18t27 23q50 43 84.5 62t67.5 20q66 6 110 -41t41 -119 q-5 -68 -26 -161q-30 -127 -49 -310.5t-19 -308.5t14 -176q15 -22 15 -43q3 -37 -23.5 -66t-64.5 -32z" />
<glyph unicode="i" horiz-adv-x="362" d="M229 1063q-109 -12 -118 98q-8 64 16.5 105t73.5 45q44 5 76 -26.5t45 -92.5q9 -51 -18.5 -88.5t-74.5 -40.5zM162 41q-47 -5 -81 26t-40 83q-5 37 2 102q2 22 5 66.5t5 64.5q7 109 23 305q0 229 114 238q44 4 75.5 -22.5t31.5 -67.5q0 -52 -12 -129q-22 -241 -23 -261 q-2 -70 -2 -213v-12l4 -24l6 -33q2 -53 -27.5 -86.5t-80.5 -36.5z" />
<glyph unicode="j" horiz-adv-x="362" d="M209 1149q-43 0 -78 36.5t-35 80.5t31 73t78 29q45 0 82 -36t37 -79q0 -42 -34.5 -73t-80.5 -31zM-260 -440q-121 0 -210 87.5t-103 219.5q-2 23 -2 67q0 152 118 152q35 0 61 -22t29 -56q0 -16 2 -39q0 -35 3 -73q6 -66 38 -109t74 -43q40 0 93 28.5t102 77.5 q59 65 101.5 168t51.5 201q17 209 17 293q0 152 -19 356q-8 66 23.5 113t83.5 47q45 0 74 -28t32 -74q0 -29 -2 -39q-11 -59 -8 -103q8 -93 8 -245q0 -361 -61 -535q-82 -218 -210.5 -331t-295.5 -113z" />
<glyph unicode="k" horiz-adv-x="892" d="M834 369q20 -10 29.5 -26t15.5 -46v-6q0 -89 -93 -98q-55 -2 -176 63q-188 102 -311 186q-26 -106 -23 -313q0 -4 9 -25q7 -21 10 -36q4 -49 -24 -83.5t-76 -39.5q-114 -6 -129 153q-2 19 2 95q4 70 4 116q-52 31 -58 92q-3 48 76 148q7 25 19 98q0 4 1 11.5t1 11.5 q7 60 30 342q21 287 45 475q11 85 46.5 136.5t89.5 57.5h2q49 0 84 -23.5t38 -60.5q6 -37 -30 -90q-17 -25 -17 -28q-43 -428 -61 -664l207 256q70 88 137 103h6q43 0 75.5 -26t33.5 -63q6 -56 -66 -118q-62 -60 -231 -267q-13 -15 -38.5 -46t-37.5 -44q23 -19 47 -36.5 t52 -35.5t46 -29.5t51.5 -30t43.5 -24t47 -24.5t39 -20q16 -10 32 -15q30 -11 52 -26z" />
<glyph unicode="l" horiz-adv-x="358" d="M162 37q-37 -3 -68.5 21t-44.5 67q-10 45 -9.5 147.5t7.5 206.5q29 499 92 875q7 43 13.5 71t21 65.5t38 57t56.5 19.5q49 0 78 -30.5t23 -76.5q-111 -585 -111 -1169q0 -86 4 -127q6 -56 -20 -89.5t-80 -37.5z" />
<glyph unicode="m" horiz-adv-x="1046" d="M973 768q-15 -109 -24 -242t-11.5 -220t-5.5 -245q-4 -23 0 -77q2 -6 2 -21q2 -50 -23 -79.5t-69 -30.5q-60 -3 -93.5 53.5t-33.5 156.5q0 69 16 441q4 78 4 110q-64 -169 -96 -338q-12 -61 -47.5 -98t-79.5 -35q-100 9 -100 133q0 95 -15 275l-6 86q-56 -105 -67 -150 q-45 -158 -58 -208q-3 -13 -12.5 -48t-13.5 -55q-9 -65 -33.5 -94t-71.5 -29q-37 0 -64 28t-32 69q-2 27 2 77q0 9 1 26.5t1 25.5v2q18 208 33 401q3 33 8 97.5t8 97.5q10 56 23 92q25 65 90 71q42 8 80 -22t39 -72q0 -28 -15 -51q-3 -5 -6 -29q14 35 23 47q28 58 62 91 t69 34q38 3 66.5 -19.5t39.5 -62.5q10 -44 17 -182q0 -23 2 -35q0 5 4 13q73 201 108 264q55 84 125 90q66 6 110 -35t52 -113q8 -65 -8 -190z" />
<glyph unicode="n" horiz-adv-x="724" d="M154 31q-46 -5 -80.5 23t-34.5 71v18v15q0 43 2 53q46 503 72 754q4 52 37 82.5t81 27.5h2q36 -6 57 -30t21 -60q0 -37 -4 -115v-4q14 16 82 84q30 33 44.5 47.5t44.5 32.5t61 21h2q64 0 102 -45t43 -127q0 -36 -4 -56l-18 -108q-2 -12 -7.5 -50t-7.5 -51.5t-6 -46.5 l-6 -49.5t-5 -46t-4 -51t-2 -48.5t-1 -53q0 -65 4 -106v-2q0 -50 -27 -81.5t-70 -31.5q-73 0 -104 58q-20 44 -20 108q0 223 43 457q-28 -24 -52 -49t-35 -38.5t-40 -49.5q-42 -53 -50 -109q-5 -99 -16 -264l-6 -66v-6q-16 -61 -35 -84t-63 -24z" />
<glyph unicode="o" horiz-adv-x="714" d="M674 580q21 -225 -111 -369q-59 -71 -157 -119q-54 -28 -105 -31q-74 -5 -137 31t-101 103q-35 53 -47 143q-4 39 2 119q31 196 152 350q25 32 29 51q11 59 54 97.5t101 41.5q35 3 78 -6l4 -2q68 -29 121 -94q90 -116 117 -315zM438 401q29 93 21 162q-6 81 -62 191 l-14 -11q-144 -153 -150 -354v-27q2 -19 13 -51q0 -2 1 -6t1 -6q18 -34 39 -31q10 0 28 6q1 1 4.5 2.5t4.5 2.5q84 46 114 122z" />
<glyph unicode="p" horiz-adv-x="780" d="M739 918q12 -141 -75 -308q-85 -183 -269 -370q-63 -68 -123 -74q-18 -198 -12 -385v-12q0 -38 -6 -58q-21 -54 -88 -61q-45 -2 -75.5 16.5t-37.5 54.5q-10 30 -14 80v13q0 2 -0.5 8.5t-0.5 12.5t1 11q26 498 29 574l36 395v12q-3 16 -8 21q-44 42 -47 76q-2 34 35 86 q28 28 33 67q6 34 31 53t63 21l41 4q31 0 43 6q79 32 131 35q127 7 214.5 -71t98.5 -207zM498 772q24 71 18 164q-6 61 -88 55q-47 -3 -78.5 -24t-36.5 -52q-10 -267 -26 -483q79 91 131 171t80 169z" />
<glyph unicode="q" horiz-adv-x="815" d="M737 195q35 0 61.5 -28t26.5 -65q0 -41 -26 -88q-5 -8 -15 -23.5t-14 -21.5q-95 -141 -135 -280q-23 -66 -48.5 -97.5t-64.5 -31.5q-21 0 -37.5 3t-28 11t-20.5 14.5t-14 21t-8.5 22t-4.5 27.5t-1.5 26.5t0 29t0.5 27.5q0 240 36 494q-104 -56 -188 -56q-111 0 -176.5 70 t-65.5 190q0 156 114 316t310 280q79 43 148 43q75 0 119.5 -37t44.5 -100q0 -14 -52 -176t-59 -174l55 20q21 -28 21 -69q0 -52 -29 -94l-37 -275q0 -4 -1 -11t-1 -11q43 43 90 43zM477 545l7.5 42.5t12 61t11.5 58.5q5 30 15 82.5t12 64.5q-154 -92 -234 -194.5 t-80 -206.5q0 -32 13 -47t42 -15q52 0 158 86q38 33 43 68z" />
<glyph unicode="r" horiz-adv-x="731" d="M815 1178q3 -37 -35 -78q-38 -34 -55 -47l-18 -15q-305 -262 -435 -692q-8 -28 -12 -119q-4 -39 -12 -59q-6 -31 -29.5 -51t-56.5 -23q-45 -6 -79 16.5t-40 63.5l-2 25q-2 20 -2 63q14 262 33 563v9q-3 32 6 51q24 62 86 65q38 4 66.5 -15t37.5 -56q0 -4 1 -13t1 -14 q131 200 256 303q43 40 129 92q34 19 56 19q49 3 86 -37q18 -25 18 -51z" />
<glyph unicode="s" horiz-adv-x="724" d="M442 -82q-67 -11 -153 14q-165 57 -266 189q-18 22 -27 59q0 2 -1 5t-1 5l-2 5q-12 88 53 147q28 28 68 39q38 3 61 -12q41 -18 51 -68q0 -34 -6 -49l-2 -4q-7 -10 -4 -19q6 -15 31 -34l22 -17q67 -44 88 -51q39 -10 52 -6q22 3 36 18.5t17 40.5q0 35 -4 47q0 11 -6 23 l-5 6q-25 56 -100 180l-39 62q-6 12 -15 25t-21 29t-19 26q-36 51 -43 63q-26 35 -43 102l-2 2q-18 114 65 220q105 129 238 184q53 30 119 33q55 6 96.5 -25.5t50.5 -85.5q15 -72 -41 -108q-7 -7 -22 -11q-43 -15 -88 19q-6 3 -11 8q-1 0 -3 1t-3 1q-100 -46 -170 -137 q-23 -42 -18 -64q2 -10 12 -30q28 -40 47 -64q32 -43 70 -100q98 -160 141 -244q19 -32 31 -82q6 -51 0 -106q-15 -91 -80 -157t-154 -79z" />
<glyph unicode="t" horiz-adv-x="761" d="M737 1176q46 2 77.5 -24.5t31.5 -66.5q0 -34 -26 -62t-70 -40q-111 -35 -332 -133q-5 -3 -19 -8q-1 -9 -4 -28t-4 -28q-39 -236 -39 -323q0 -107 15 -180q8 -34 12 -37q1 1 3.5 4.5t4.5 5.5q42 76 102 80q39 0 71 -32t32 -71q0 -73 -75 -139.5t-157 -66.5 q-56 0 -102.5 28t-69.5 76q-36 79 -36 248q0 115 22 344q0 5 1 14.5t1 14.5q-50 -19 -72 -19q-40 0 -65 24t-25 62q0 42 54.5 85.5t142.5 76.5q56 296 126 434t169 141q44 0 77 -28t33 -66q0 -24 -13 -41.5t-44 -40.5q-33 -24 -39 -39q-55 -149 -78 -247q70 27 166.5 54 t128.5 28z" />
<glyph unicode="u" horiz-adv-x="741" d="M539 23h-4q-90 -2 -115 102q-78 -47 -139 -53q-72 -9 -127 24.5t-86 104.5q-32 106 -29 194q-2 138 70 459q6 39 33.5 71.5t60.5 35.5q42 7 77.5 -21.5t41.5 -71.5q6 -29 -7 -67q-24 -49 -42 -144t-23 -170q-1 -66 2 -115t8 -70t10 -21q39 -2 84 58t54 128q12 139 71 473 q20 152 117 154q45 0 73.5 -20.5t32.5 -57.5q0 -25 -4 -41q-71 -248 -84 -692q0 -5 3 -22.5t4 -27.5q8 -38 12 -90q0 -51 -25.5 -83t-68.5 -37z" />
<glyph unicode="v" d="M672 1219h2q46 0 77 -24t35 -65q0 -34 -12 -59q-66 -136 -152.5 -367.5t-156.5 -472.5q-2 -16 -10 -43q-19 -79 -37 -120q-15 -34 -42 -54.5t-59 -23.5q-97 -9 -124 100l-3 2q-8 41 -39 192t-49 234q-9 41 -26.5 124t-26.5 124q-8 33 -8 74q-2 6 -2 18q-1 51 29 86t73 35 q42 3 79 -25.5t38 -68.5q0 -6 -1 -17t-1 -16q-4 -39 0 -70q0 -8 2 -12q0 -12 4 -20q42 -223 43 -226l19 -96q123 388 200 596q39 104 71.5 148t76.5 47z" />
<glyph unicode="w" horiz-adv-x="1007" d="M905 1223q40 6 75 -21t38 -67q0 -34 -8 -50q-36 -128 -97 -319q-24 -86 -63 -203q-84 -271 -107 -370q-17 -71 -47.5 -107.5t-79.5 -42.5q-45 -5 -78 23t-40 77q-9 59 -15 117q-3 20 -8 58.5t-8 56.5q-2 17 -5.5 57t-4.5 55v9q-37 -113 -60 -195l-12 -49 q-28 -97 -37 -121q-39 -119 -119 -125q-52 -6 -86.5 20.5t-40.5 77.5l-12 148q0 3 -4 58.5t-8 84.5l-12 156q-2 28 -12 145.5t-13 180.5q-4 47 0 73l2 2q10 42 41.5 65.5t71.5 18.5h2q79 -19 82 -98q2 -16 5 -48t5 -48q8 -101 22 -215q73 231 105 286q29 45 48 62t52 20 q53 2 88.5 -28t42.5 -82l17 -99q10 -66 28 -163q33 107 64 227q38 140 63 221q22 75 51.5 111.5t73.5 40.5z" />
<glyph unicode="x" horiz-adv-x="790" d="M43 -119h-2q-43 0 -70 24.5t-30 65.5q-3 40 16 72q53 120 127 268q3 6 29.5 57t44.5 87q85 155 86 157l-78 156q-42 82 -50 113q-4 15 -7 34q-5 43 17.5 73.5t63.5 33.5q60 6 105 -64q13 -21 38 -70t36 -69q2 -6 10 -18q89 177 235 395q8 10 29 39q23 35 43 57 q13 18 37 31.5t45 15.5q37 4 69 -23t37 -65v-4q0 -47 -34 -90q-1 -2 -7 -8.5t-8 -11.5l-39 -56q-164 -234 -299 -479q12 -17 27 -43q30 -46 109 -174q63 -88 67 -154q6 -43 -28 -81t-84 -44q-31 -1 -56 19t-33 51q-25 91 -118 227q0 3 -4 7q-49 -86 -124 -229.5t-106 -211.5 q-37 -82 -94 -88z" />
<glyph unicode="y" horiz-adv-x="798" d="M643 1106q56 0 89.5 -42t27.5 -103q-9 -122 -15 -242q-16 -338 -51 -535q-56 -290 -224 -457t-409 -167q-154 0 -256 85.5t-102 215.5q0 70 30.5 108.5t86.5 38.5q50 0 78 -30t28 -84q0 -60 39.5 -91.5t114.5 -31.5q118 0 213.5 85.5t153.5 239t69 350.5 q-71 -88 -138 -138t-140 -50q-98 0 -148.5 79t-50.5 230q3 97 20.5 186t57.5 218q17 52 42.5 82t78.5 34h2q45 0 75.5 -25t30.5 -63q0 -33 -12 -61q-32 -76 -53 -192t-21 -216q0 -24 2 -36q52 35 109 124q59 89 90.5 158.5t60.5 167.5q1 6 4 18.5t4 18.5q18 68 42 96.5 t71 28.5z" />
<glyph unicode="z" horiz-adv-x="696" d="M731 1051q3 -17 -6 -45q-7 -29 -41 -84l-387 -613l6 8l72 39l16 6q4 1 19.5 8t27 11t23.5 6q20 4 26 4q53 3 86 -45q0 -2 1 -6t1 -6q7 -17 7 -29q3 -44 -37 -76q-20 -10 -35 -20q-19 -14 -31 -19l-73 -43q-145 -85 -277 -157l-23 -15q-21 -14 -55 -14q-44 -7 -76 25 q-31 24 -34 63q0 33 16 57q5 12 16.5 33t16.5 33q123 225 143 258q10 16 148 236q109 172 149 239q-134 -28 -211 -80q-35 -21 -61 -24q-47 3 -72 35q-19 21 -25 53q-6 41 39 82q8 10 43 26q8 4 11 4q185 97 417 138h19q37 0 53 -2h4q35 -9 57 -32t27 -54z" />
<glyph unicode="{" horiz-adv-x="798" d="M526 983q-18 2 -88 23q-18 9 -37 12q-12 4 -16 4q-66 16 -96 18q-66 8 -97.5 33t-27.5 70q1 47 45.5 81t97.5 29q95 -8 264 -79q34 -12 53.5 -37.5t16.5 -55.5q-3 -41 -37.5 -70.5t-77.5 -27.5zM158 547q-80 -3 -107 55q-12 18 -12 45q0 51 55 84q51 23 82 27 q47 6 172 26q178 29 254 37h6q16 4 29 4q91 6 115 -65q2 -2 2 -4q6 -18 6 -29q0 -29 -21 -54.5t-55 -39.5q-40 -15 -109 -27q-79 -8 -194 -28q-173 -27 -223 -31zM211 -8q-47 6 -78 42t-29 83q3 58 64 102q284 190 385 184q43 -5 68 -32t22 -68q-1 -29 -21.5 -55.5 t-50.5 -40.5q-43 -21 -84 -39q-48 -23 -66 -32t-46.5 -26.5t-45 -34t-30.5 -38.5q-29 -48 -88 -45z" />
<glyph unicode="|" horiz-adv-x="901" d="M498 590l-25 -305q0 -7 2 -9q7 3 22 9t19 8q41 14 68 26q16 5 41 21l32 16q43 18 78 15q48 0 76 -39q24 -40 18 -68q-6 -48 -57 -90q-84 -45 -131 -61q-121 -45 -367 -131q-19 -6 -57.5 -19.5t-58.5 -19.5q-2 -2 -4 -2q-11 -8 -25 -11q-8 -2 -37 -2q-35 1 -61 20t-35 48 q-2 2 -2 6q-4 24 -4 29q3 53 63 84q24 12 60 28q21 7 49 21q18 5 47 18q20 10 24 11l99 1085q10 0 14 2q-30 -4 -35 -6q-29 -9 -39 -14q-3 -1 -15 -7t-19 -8q-9 0 -13 -2q-22 -3 -41 0q-57 0 -80 47q-15 24 -12 53q3 55 68 87q7 5 51 24l440 131q53 6 86 4q47 -1 75 -30.5 t26 -75.5q-1 -28 -20 -51t-50 -37h-2q-66 -22 -123 -29q-43 -4 -63 -24t-23 -60q-5 -64 -16 -168l-6 -61q-6 -71 -18.5 -225.5t-18.5 -237.5z" />
<glyph unicode="}" horiz-adv-x="798" d="M588 1354q47 -6 77.5 -42t28.5 -83q-3 -59 -63 -103q-284 -190 -385 -184q-43 5 -68 32t-22 68q1 29 21.5 56t49.5 41q43 21 84 39q49 23 66 32t46.5 26.5t46 34t30.5 38.5q29 48 88 45zM641 799q80 3 107 -56q12 -18 12 -45q0 -51 -55 -84q-48 -21 -82 -26 q-26 -3 -172 -27q-178 -29 -254 -37h-7q-16 -4 -28 -4q-90 -6 -115 66q-2 2 -2 4q-6 18 -6 28q0 29 21 55t55 40q36 14 108 26q67 7 195 29q173 27 223 31zM272 362q23 -3 88 -22q18 -9 37 -12q12 -4 17 -4q72 -17 96 -19q66 -8 97.5 -32.5t27.5 -69.5q-1 -47 -45.5 -81.5 t-97.5 -29.5q-94 8 -265 80q-34 12 -53 37t-16 55q3 41 37 70.5t77 27.5z" />
<glyph unicode="~" horiz-adv-x="1120" d="M145 485q-29 0 -57 19q-49 28 -49 78q0 28 18 53q100 142 205 194q57 31 111 31q59 0 121 -33q15 -7 75 -49q24 -17 43 -28q58 -37 107 -37q73 0 123 94q2 2 10 18q13 27 20 35q36 58 95 58q57 0 88 -34t26 -91q-15 -121 -117 -206t-231 -85q-147 0 -252 76 q-7 5 -15.5 10.5t-19 12.5l-16.5 11q-35 27 -61 43q-30 -25 -35 -30q-31 -27 -62 -58l-28 -28q-6 -8 -21 -23q-36 -31 -78 -31z" />
<glyph unicode="&#xa1;" horiz-adv-x="761" d="M592 1497q60 0 95.5 -31t35.5 -84q0 -56 -70 -108.5t-143 -52.5q-36 0 -69 39.5t-33 80.5q0 49 63.5 102.5t120.5 53.5zM485 1118q30 0 51 -9.5t32 -23.5t15.5 -37t4 -42.5t-5.5 -47.5t-9.5 -44.5t-11.5 -41.5q-40 -167 -62 -251t-58.5 -203t-80.5 -223.5t-106 -227.5 q-19 -36 -31.5 -56t-35 -49t-48 -43t-53.5 -14q-40 0 -70 29t-26 64q7 42 24.5 91t33.5 84t54 113l39 78q24 49 44.5 96.5t35 81.5t31 86.5t24 74.5t23.5 85.5t20 80.5t22.5 97.5t23.5 100.5q40 151 120 151z" />
<glyph unicode="&#xa2;" horiz-adv-x="720" d="M582 399q38 0 66 -27t28 -65q0 -55 -58.5 -94t-138.5 -39q-42 0 -94 10q-7 -35 -47 -215q-1 -14 -12 -51q-30 -73 -107 -76h-2q-3 0 -27 6q-33 13 -49.5 44t-11.5 67q28 203 66 315q-84 68 -132.5 167t-48.5 212q0 168 87.5 322.5t228.5 236.5l41 19q28 178 69 280 q19 44 55 62.5t76 3.5q43 -19 55 -58.5t-3 -109.5l-37 -160q45 -20 70.5 -63t25.5 -99q0 -86 -45.5 -160.5t-101.5 -74.5q-40 0 -69.5 28.5t-29.5 67.5q0 16 19 64q6 9 6 10q4 12 4 16q-6 -2 -16 -2h-3h-2q-211 -141 -211 -370q0 -120 63 -197t169 -88q12 -3 65 10 q39 8 52 8z" />
<glyph unicode="&#xa3;" horiz-adv-x="1355" d="M154 -203q-46 0 -80.5 33.5t-34.5 79.5q0 37 92 263t203 462q-76 -21 -117 -21q-51 0 -79.5 27.5t-28.5 73.5q0 54 70.5 95.5t238.5 92.5l45 15q83 168 248 425q66 97 182 193q40 40 101 67t112 27q80 0 140.5 -55.5t60.5 -130.5q0 -43 -29 -72t-70 -29q-56 0 -108 70 q-85 -35 -173.5 -143.5t-150.5 -251.5q135 41 261 70.5t177 29.5q45 0 74 -21t29 -57q0 -101 -178 -151q-417 -124 -504 -156q-47 -85 -114.5 -239t-110.5 -269q270 71 430 105q91 24 215 52t149 28q47 0 78 -28.5t31 -72.5q0 -55 -61.5 -95t-164.5 -58q-69 -16 -186 -35 q-71 -12 -141 -27q-149 -30 -225 -57q-164 -52 -269 -166q-18 -30 -50.5 -52t-61.5 -22z" />
<glyph unicode="&#xa4;" horiz-adv-x="1280" d="M1151 1274q43 -5 68 -32t22 -68q-1 -29 -21.5 -56t-50.5 -41q-43 -21 -84 -39q-55 -26 -76 -37t-49.5 -30.5t-46.5 -40.5q21 -67 33 -148q11 -112 -20 -215q65 -17 164 -59q34 -12 53 -37t16 -55q-3 -41 -37.5 -71t-77.5 -28q-18 2 -88 23q-18 9 -36 12q-12 4 -17 4 q-72 17 -96 19h-8q-42 -40 -121 -80q-54 -28 -105 -31q-118 -6 -196 78q-58 -30 -89.5 -53t-54.5 -58q-29 -48 -88 -45q-47 6 -77.5 42t-28.5 83q3 59 63 103q57 39 189 116q0 1 -1 5t-1 6q-4 39 2 118q18 118 71 224q-18 7 -32 10q-12 4 -17 4q-66 16 -96 18 q-66 8 -97.5 33t-27.5 70q1 47 46 81t98 29q90 -9 235 -67q10 58 53.5 97t102.5 42q35 3 78 -6l4 -2q53 -22 102 -74q250 162 340 156zM596 481q85 46 115 123q29 91 20 162q-6 83 -61 190l-15 -10q-143 -152 -149 -352q36 -8 55.5 -34t16.5 -62q0 -11 -7 -25q5 0 17 4 q1 1 4 2t4 2z" />
<glyph unicode="&#xa5;" horiz-adv-x="825" d="M934 1608q0 -26 -19 -70q-245 -573 -329 -799q65 0 94 -2h6h29q92 -10 104 -82q2 -2 2 -4l2 -30q-4 -29 -29 -51t-61 -31q-32 -7 -110 -11q-33 2 -111 2q-45 -137 -47 -145q94 0 137 -2q4 0 6 -2q13 3 29 0q43 -3 70.5 -24.5t33.5 -57.5q2 -2 2 -4l2 -29q-4 -29 -29 -51 t-61 -31q-49 -10 -110 -10q-43 2 -142 2q-34 -119 -61 -244q-12 -78 -49 -121.5t-92 -43.5q-50 0 -76.5 25.5t-26.5 72.5q0 29 21 96q6 22 27 95.5t32 117.5q-37 0 -55 2q-76 9 -98 72q-9 18 -5 45q6 49 68 76q47 14 84 14h61q7 25 20.5 74t20.5 73q-50 0 -73 2 q-77 6 -99 70q-8 17 -4 47q3 23 21.5 43t46.5 31q47 14 84 14h26q-100 225 -139 389q0 2 -1 8t-1 9q-8 46 -8 49q0 63 24 91t78 28q40 0 66.5 -23t32.5 -63q17 -109 102 -289q10 31 14 37l99 229l153 363q34 70 65.5 99.5t72.5 29.5q43 0 71.5 -24t28.5 -62z" />
<glyph unicode="&#xa6;" horiz-adv-x="385" d="M211 631q-47 -5 -81 25.5t-40 82.5q-5 37 2 103q2 22 5 66.5t5 64.5q7 109 23 305q0 229 115 238q44 4 75 -22.5t31 -68.5q0 -53 -12 -129q-22 -243 -23 -260q-2 -70 -2 -213v-12q0 -1 4 -25l6 -32q2 -53 -27.5 -86.5t-80.5 -36.5zM162 -360q-47 -5 -81 25.5t-40 82.5 q-5 37 2 102q2 22 5 67t5 65q7 109 23 305q0 228 114 237q44 4 75.5 -22.5t31.5 -67.5q0 -52 -12 -129q-22 -243 -23 -260q-2 -70 -2 -213v-12q0 -1 4 -25l6 -33q2 -53 -27.5 -86t-80.5 -36z" />
<glyph unicode="&#xa7;" horiz-adv-x="1048" d="M985 1309q4 -41 -23.5 -72.5t-70.5 -36.5q-54 -3 -103 43l-20 31q-13 23 -21.5 33t-33 18t-64.5 4q-52 -4 -73.5 -35.5t-16.5 -93.5q2 -19 15.5 -40.5t26.5 -35t40 -39.5q21 -20 51.5 -47t38.5 -34q42 -36 60 -54t39 -50.5t34 -74.5q1 -7 4 -23t4 -26q6 -74 -30 -162 q-43 -86 -105.5 -153t-136.5 -105q13 -18 31 -47q24 -33 39 -80q11 -56 8 -104q-8 -93 -66 -163.5t-145 -92.5q-68 -17 -156 2q-171 43 -280 164q-19 19 -33 57q0 2 -1 5t-1 5l-2 2q-22 88 39 152q29 33 65 45q38 8 62 -6q44 -16 57 -64q3 -24 -2 -49l-2 -4q-5 -8 -2 -18 q7 -16 33 -33q2 -1 10.5 -6t13.5 -8q62 -34 92 -43q38 -7 52 -2q22 4 34.5 21t14.5 42q-4 35 -8 47q-2 8 -9 23l-6 6q-26 49 -100 151q-74 44 -98 127l-23 25q-37 41 -49 59q-31 38 -51 99l-2 2q-28 110 47 223q83 127 194 190q-13 30 -22 56l-6 49q-12 135 78.5 237.5 t232.5 114.5q133 12 235 -56.5t111 -174.5zM481 522q29 2 68.5 42.5t67.5 94.5t24 89q-6 44 -26 69t-76 68q-31 21 -58 45q-82 -49 -145 -144q-19 -46 -12 -63q6 -15 14 -31l53 -59q52 -60 78 -94z" />
<glyph unicode="&#xa8;" horiz-adv-x="559" d="M440 1028q-60 0 -103.5 40t-43.5 95q0 59 39 100.5t94 41.5q57 0 100 -46t43 -106q0 -54 -36.5 -89.5t-92.5 -35.5zM86 965q-54 0 -87.5 34.5t-33.5 90.5q0 70 37.5 113.5t99.5 43.5t108 -40.5t46 -94.5t-54.5 -100.5t-115.5 -46.5z" />
<glyph unicode="&#xa9;" horiz-adv-x="1376" d="M1333 881q4 -25 4 -70q0 -6 -1 -19.5t-1 -19.5q-2 -12 -2 -39v-2q-15 -195 -123 -323q-135 -157 -303 -246.5t-329 -89.5q-147 0 -270 70.5t-195 194t-74 273.5q-3 347 191 567.5t532 252.5q16 2 61 2q96 0 140 -33q343 -219 370 -518zM1159 717q4 56 2 78q3 10 0 43 q-2 4 -2 12q-9 121 -82 237q-14 23 -33.5 41t-35 28.5t-45 22t-43 16t-50.5 15.5q-86 24 -127 47h-4q-2 0 -4.5 -1t-3.5 -1h-4l-4 -2q-245 -56 -377 -215.5t-131 -400.5q4 -40 4 -57q0 -5 1 -14.5t1 -14.5q6 -98 66 -164q127 -133 266 -133q170 0 298.5 70.5t250.5 230.5 q44 63 53 123q0 15 4 39zM698 963q7 7 7 8l8 22q-211 -108 -211 -288q0 -90 56.5 -147.5t150.5 -65.5q7 -2 57 6q27 6 47 6q34 0 58 -20t24 -48q0 -41 -51.5 -70.5t-122.5 -29.5q-170 0 -292 105t-122 253q0 126 77.5 242.5t203.5 177.5q95 39 160 39q67 0 110 -37t43 -96 q0 -64 -40.5 -120t-90.5 -56q-36 0 -62 20.5t-26 50.5q0 12 16 48z" />
<glyph unicode="&#xaa;" d="M489 1171q81 0 140 -60t59 -142q0 -63 -18 -160q-34 -227 -43 -295q-2 -16 -8.5 -60.5t-8.5 -66.5q-27 -181 -16 -297v-20q2 -6 2 -23q0 -40 -27.5 -66.5t-70.5 -29.5q-55 0 -84 33t-37 102q-79 -59 -172 -59q-84 0 -137.5 68.5t-53.5 176.5q0 184 189 379q58 64 135 137 l84 84q21 20 36 45.5t15 40.5v15q-40 0 -112.5 -61.5t-84.5 -106.5q-8 -31 -32.5 -48.5t-61.5 -17.5q-44 0 -68 28.5t-24 78.5q0 70 78.5 154t196.5 143q57 28 124 28zM326 324q49 82 76.5 148t41.5 155q-58 -61 -172 -226q-20 -32 -35.5 -72t-15.5 -59l4 -30q19 -2 49 23.5 t52 60.5z" />
<glyph unicode="&#xab;" horiz-adv-x="1310" d="M745 1303q55 0 88 -28t19 -63q-12 -46 -59 -96q-8 -6 -48 -41q-139 -135 -215 -201q-8 -7 -131 -108q-80 -64 -118 -96l22 -23q67 -68 82 -80q19 -19 111 -106q46 -41 108 -103q50 -44 68 -78.5t14 -74.5q-5 -32 -33 -52t-71 -20q-83 0 -101 66q-2 12 -11 26.5 t-24.5 31.5t-30.5 31.5t-39.5 35.5t-40.5 34.5t-45 36t-42 33.5q-44 35 -71 59t-60 59.5t-54 69.5q-24 34 -24 68q0 52 57 100q332 269 404 330q15 13 39.5 37t33.5 33q28 31 58 55q48 64 114 64zM1188 1303q55 0 87.5 -28t18.5 -63q-12 -46 -59 -96q-1 -1 -47 -41 q-139 -135 -215 -201q-8 -7 -131 -108q-95 -76 -119 -96l22 -23q67 -68 82 -80q19 -19 111 -106q56 -49 109 -103q49 -44 67.5 -78.5t13.5 -74.5q-5 -32 -33 -52t-71 -20q-82 0 -100 66q-2 12 -11 26.5t-24.5 31.5t-31 32t-39.5 35.5t-41 34t-45 36t-42 33.5 q-65 53 -109.5 96t-74.5 92q-25 36 -25 68q0 51 58 100q309 250 403 330q15 13 40.5 37.5t33.5 32.5q30 34 57 55q48 64 115 64z" />
<glyph unicode="&#xac;" horiz-adv-x="1286" d="M1243 680q4 -28 4 -45q0 -19 -2 -25v-22v-2l-18 -201q-4 -21 -17 -61q-2 -4 -5 -14.5t-5 -14.5l-2 -8q-38 -60 -94 -60q-52 0 -81 30t-26 81l17 160q1 9 4 26.5t4 26.5q-52 -5 -113 -12q-106 -15 -194 -21q-143 -10 -211 -16l-166 -15q-22 0 -72 -4q-74 -4 -110 -4 q-51 0 -84 28t-33 71q0 35 27 61t71 37q27 6 53 6q6 2 17 2q192 15 428 45q265 31 407 43q58 4 84 4q53 0 83.5 -25t33.5 -71z" />
<glyph unicode="&#xad;" horiz-adv-x="632" d="M147 580q-47 0 -77.5 26.5t-30.5 69.5q0 46 32 72t103 38q40 6 250 41q35 7 51 7q81 0 111 -70v-2q4 -12 4 -27q0 -36 -22 -63t-58 -35q-223 -57 -363 -57z" />
<glyph unicode="&#xae;" horiz-adv-x="1368" d="M1038 1399q324 -219 324 -522q0 -45 -4 -70q-3 -36 -12 -80q-29 -184 -152 -319q-153 -159 -327 -247.5t-335 -88.5q-148 0 -265.5 70.5t-178 194.5t-49.5 275q29 346 243.5 566t555.5 252q16 2 63 2q93 0 137 -33zM803 1260l-2 2q0 -2 2 -2zM1182 797q2 14 2 55 q0 128 -58 238q-10 18 -22.5 33t-30.5 27t-29 19t-37.5 16.5t-35 12t-41.5 12.5q-73 20 -125 47q-2 0 -5.5 -1t-4.5 -1q-5 0 -7 -2q-252 -56 -399.5 -216.5t-167.5 -403.5q0 -5 -1 -15t-1 -14q-4 -40 -4 -55q0 -107 49 -164q88 -104 185 -125q-9 15 -9 35q0 26 2.5 69.5 t3.5 59.5q24 318 39 489q-39 12 -39 60q0 37 57 79.5t138.5 71.5t149.5 29q86 0 137 -45t51 -119q0 -55 -53.5 -135.5t-101 -131t-142.5 -143.5l-16 -16l139 -31q31 -7 49 -12t41.5 -15.5t35.5 -26t13 -36.5q0 -29 -18 -47q94 69 172 162q47 56 63 123q1 7 4 21.5t4 21.5 q13 58 13 74zM598 676q90 78 165 174t75 133q0 19 -14 30.5t-33 8.5q-92 -10 -173 -70zM571 256l23 4q169 30 305 119q-17 -7 -31 -4q-28 7 -86 24q-54 17 -84 25q-100 19 -112 20q-4 -30 -4 -100q4 -55 -11 -88z" />
<glyph unicode="&#xaf;" horiz-adv-x="749" d="M205 1327q-47 -3 -80 21t-37 67q-3 44 26.5 73t98.5 48q108 24 246 63q8 2 25.5 6t25.5 5q78 6 115 -60l2 -2l6 -26q3 -36 -17.5 -65t-54.5 -40q-215 -77 -356 -90z" />
<glyph unicode="&#xb0;" horiz-adv-x="706" d="M258 758q-35 0 -68 10q-151 52 -151 260q0 258 182 479q92 109 213 109q17 0 49 -4h2q94 -20 134 -61t49 -124q1 -6 1 -13.5t-0.5 -16t-0.5 -13.5v-18v-2q-24 -318 -219 -510q-100 -96 -191 -96zM270 1004q70 58 116 151.5t46 181.5q0 35 -10 68q-9 -5 -16.5 -10.5 t-14.5 -13t-12 -13t-11.5 -17t-10 -16t-10 -19t-8 -18.5t-9 -21t-8.5 -20t-8.5 -20.5t-9 -21.5t-7.5 -19.5t-8 -21t-7 -19t-6.5 -21t-4.5 -19.5t-4 -21t-2 -20t-1 -21q0 -22 6 -49z" />
<glyph unicode="&#xb1;" horiz-adv-x="1136" d="M602 373h-4q-43 -5 -76 21t-45 73q-4 27 -4 72v14v219l-227 -35q-2 0 -8 -1t-9 -1q-46 -8 -71 -8q-27 0 -57.5 14.5t-45.5 34.5q-16 19 -16 47q0 23 13.5 44.5t35.5 33.5q34 20 98 33q95 18 248 47q30 4 43 8q4 110 4 158q2 14 2 45q0 162 113 162q90 -3 102 -115 q2 -23 2 -72v-67v-37q2 -6 2 -16l70 12q43 9 109 20q65 9 127 6q37 -3 63.5 -26t26.5 -55q0 -28 -16 -58t-40 -47q-16 -12 -65 -22q-4 -1 -16.5 -5t-18.5 -6q-22 -4 -65 -11t-64 -11l-108 -19v-268q0 -39 -3 -80q-5 -43 -30.5 -70t-69.5 -34zM371 14q-80 -3 -107 56 q-12 18 -12 45q0 51 55 84q48 21 82 26q26 3 172 27q178 29 254 37h6q16 4 29 4q90 6 115 -66q2 -2 2 -4q6 -18 6 -28q0 -29 -21 -55t-55 -40q-35 -13 -109 -26q-64 -7 -194 -29q-173 -27 -223 -31z" />
<glyph unicode="&#xb2;" horiz-adv-x="628" d="M70 590q-28 0 -48 17t-20 42q3 45 25 70q173 284 309 502q69 114 88 149t22 57q0 4 1 8q0 4 -2 4h-3q-5 1 -10 1q-44 3 -107 -25t-104 -69q-27 -34 -61 -31q-28 0 -45 17.5t-15 43.5q6 25 15 37q32 60 153.5 115t210.5 49q60 -5 93 -38t30 -87q-3 -76 -53 -147 q-179 -264 -275 -439l179 27q4 0 24 4q6 0 10 2q40 9 68 -10.5t25 -50.5q-3 -47 -103 -72q-85 -18 -106 -21q-88 -17 -140 -32q-71 -29 -92 -72q-6 -22 -27.5 -37.5t-41.5 -13.5z" />
<glyph unicode="&#xb3;" horiz-adv-x="684" d="M457 1233q78 0 127 -39.5t49 -103.5q0 -52 -37 -118t-98 -124q-103 -100 -283 -197q-58 -28 -98 -28q-37 0 -67 20.5t-40 54.5q-8 27 -8 58q0 55 32 99t72 44q25 0 42.5 -18t17.5 -43q0 -6 -1 -17.5t-1 -17.5q-4 -16 -4 -29q183 88 295 230q37 60 37 83q0 15 -27 15 q-53 0 -121 -19q-21 -6 -88 -36l-45 -19q-21 -12 -41 -12q-28 0 -48 19t-20 44q0 14 12 35.5t23.5 37t40.5 52.5q5 6 18.5 23.5t22.5 27.5q16 22 66 76q9 12 18 21l16 18l-36 -6l-33 -6q-9 0 -25 -4q-28 -4 -47 -4q-26 0 -42.5 15t-16.5 40t16 38.5t55 26.5 q64 21 180.5 47.5t151.5 26.5q31 0 50.5 -17.5t19.5 -43.5q0 -41 -35 -68q-37 -39 -76 -76q-14 -12 -78 -77q-3 -3 -28 -33q31 4 82 4z" />
<glyph unicode="&#xb4;" horiz-adv-x="583" d="M135 1012q-47 6 -77.5 42t-28.5 83q3 58 63 102q284 190 385 184q43 -5 68 -32t22 -68q-1 -29 -21 -55.5t-50 -40.5q-44 -21 -84 -39q-49 -23 -66 -32t-46.5 -26.5t-46 -34t-30.5 -38.5q-29 -48 -88 -45z" />
<glyph unicode="&#xb5;" horiz-adv-x="806" d="M768 1331q0 -25 -4 -41q-71 -248 -84 -692q0 -5 2.5 -22.5t3.5 -26.5q8 -38 12 -90q0 -51 -25.5 -83.5t-68.5 -37.5h-4q-90 -2 -115 102q-78 -47 -139 -53q-34 -5 -74 2q-14 -189 -14 -395q0 -86 4 -127q6 -56 -20 -89.5t-80 -37.5q-37 -3 -68.5 21t-44.5 67 q-10 45 -9.5 147.5t7.5 206.5q29 499 92 875q8 49 15.5 81.5t28 71t48.5 52.5q12 10 37 14q42 7 77.5 -21t41.5 -71q7 -31 -6 -68q-24 -49 -42.5 -144.5t-23.5 -168.5q-1 -66 2.5 -115t8.5 -70.5t10 -21.5q39 -2 83.5 58t53.5 128q11 127 72 473q20 152 117 154 q45 0 73.5 -20.5t32.5 -57.5z" />
<glyph unicode="&#xb6;" horiz-adv-x="1019" d="M981 1274q7 -173 -15.5 -521.5t-43.5 -508.5q-17 -112 -34 -151q-34 -76 -110 -77q-52 -1 -77.5 29.5t-20.5 87.5q2 8 2 23q2 8 2 22q17 75 25 121q5 39 18 213q20 254 27 489q-4 -58 -4 -79q-24 -249 -29 -326q-29 -353 -62 -584q-7 -44 -40.5 -73t-77.5 -31 q-35 -2 -58.5 9t-34.5 28.5t-14 46t-1.5 51t5.5 53.5l13 68l5.5 38.5t5.5 37t4.5 31t4 33t3 29t3 33t2 30.5t2 37t0.5 38q-97 51 -204 197.5t-172.5 313.5t-49.5 269q17 105 101 177t200 81q128 9 254 -17.5t201 -74.5q24 17 53 17q28 1 48.5 -8t32.5 -23t20 -37t11 -43 t5 -49zM512 754q23 306 33 528q-88 25 -201 18q-29 -1 -41 -14t-18 -47q-12 -91 63.5 -250t163.5 -235z" />
<glyph unicode="&#xb7;" horiz-adv-x="360" d="M195 496q-68 -12 -123 49q-33 36 -33 78q0 28 16 57q22 40 64.5 63t97.5 23q43 0 74 -34t31 -81t-41.5 -97t-85.5 -58z" />
<glyph unicode="&#xb8;" horiz-adv-x="925" d="M313 -211q-72 0 -128 56.5t-56 127.5q0 38 27 62t71 24q27 0 48 -10.5t30 -21t21 -29.5l8 -12q107 17 202 62t95 77q0 3 -1.5 5t-8 3t-20 1.5t-38.5 0.5q-19 0 -65 -12q-40 -12 -68 -12q-82 0 -82 88q0 9 6 55q2 2 2 6q5 37 17 80q5 13 10 43q24 100 113 100 q34 0 54.5 -21t20.5 -56q0 -38 -6 -72q0 -4 -2 -6h15q115 -7 186.5 -61t71.5 -134q0 -77 -109 -178q-70 -61 -182.5 -113.5t-231.5 -52.5z" />
<glyph unicode="&#xb9;" horiz-adv-x="522" d="M123 580q-31 0 -51.5 16.5t-20.5 42.5q0 36 43 57q10 3 45 23q17 13 25 16l72 582l-7 -2q-12 -6 -26 -6q-24 0 -47 20q-15 19 -15 37q-3 24 15 39q11 15 16 18q8 8 14 17l93 114q27 37 59 37q5 0 14.5 -2.5t12.5 -3.5q44 -15 47 -67q1 -18 -9 -70q-4 -16 -4 -27 q-21 -116 -44.5 -298.5t-32.5 -297.5q0 -4 -1.5 -10.5t-1.5 -9.5q71 26 91 26q25 0 43 -17.5t18 -43.5q3 -38 -59 -70l-78 -38q-60 -30 -86 -42.5t-64 -26t-61 -13.5z" />
<glyph unicode="&#xba;" horiz-adv-x="714" d="M674 580q21 -225 -111 -369q-59 -71 -157 -119q-54 -28 -105 -31q-74 -5 -137 31t-101 103q-35 53 -47 143q-4 39 2 119q31 196 152 350q25 32 29 51q11 59 54 97.5t101 41.5q35 3 78 -6l4 -2q68 -29 121 -94q90 -116 117 -315zM438 401q29 93 21 162q-6 81 -62 191 l-14 -11q-144 -153 -150 -354v-27q2 -19 13 -51q0 -2 1 -6t1 -6q18 -34 39 -31q10 0 28 6q1 1 4.5 2.5t4.5 2.5q84 46 114 122z" />
<glyph unicode="&#xbb;" horiz-adv-x="1310" d="M98 133q-55 0 -87.5 27.5t-18.5 62.5q12 46 59 96q1 1 47 41q139 135 215 201q34 29 131 109q95 76 119 96l-22 22q-68 67 -82 80q-37 37 -111 107q-56 49 -108 102q-49 44 -68 79t-14 75q5 32 33 52t71 20q82 0 100 -66q2 -12 11 -26.5t24.5 -31.5t31 -32t39.5 -35.5 t41 -34t45 -36t42 -33.5q134 -109 184 -189q25 -36 25 -67q0 -53 -57 -101q-359 -291 -404 -329q-15 -13 -40.5 -37.5t-33.5 -32.5q-30 -34 -57 -55q-48 -64 -115 -64zM565 133q-55 0 -87.5 27.5t-18.5 62.5q12 46 59 96q1 1 47 41q139 135 215 201q34 29 131 109 q95 76 119 96l-22 22q-68 67 -82 80q-37 37 -111 107q-55 49 -108 102q-49 44 -68 79t-14 75q5 32 33 52t71 20q82 0 100 -66q2 -12 11 -26.5t24.5 -31.5t31 -32t39.5 -35.5t41 -34t45 -36t42 -33.5q134 -109 184 -189q25 -36 25 -67q0 -52 -58 -101q-336 -272 -403 -329 q-15 -13 -40.5 -37.5t-33.5 -32.5q-30 -34 -57 -55q-48 -64 -115 -64z" />
<glyph unicode="&#xbc;" horiz-adv-x="1327" d="M889 1516q0 -38 -27 -123q-100 -406 -190 -742q-12 -49 -34.5 -135t-27.5 -104q-55 -206 -118 -480q0 -13 -7 -34q-4 -50 -18 -76q-9 -23 -29.5 -37t-44.5 -14q-35 0 -55.5 28.5t-20.5 75.5q0 36 21 131l276 1043q4 17 13.5 51.5t13.5 52.5q76 276 90 385l2 16 q4 34 27.5 56t52.5 22q37 0 56.5 -30t19.5 -86zM412 700l-78 -38q-60 -30 -86 -42.5t-64 -26t-61 -13.5q-31 0 -51.5 16.5t-20.5 42.5q0 36 43 57q10 3 45 23q17 13 25 16l72 582l-7 -2q-12 -6 -26 -6q-24 0 -47 20q-15 19 -15 37q-3 24 15 39q11 15 16 18q8 8 14 17l93 114 q27 37 59 37q5 0 14.5 -2.5t12.5 -3.5q44 -15 47 -67q1 -18 -9 -70q-4 -16 -4 -27q-21 -116 -44.5 -298.5t-32.5 -297.5q0 -4 -1.5 -10.5t-1.5 -9.5q71 26 91 26q25 0 43 -17.5t18 -43.5q3 -38 -59 -70zM1327 758q25 0 46 -18.5t22 -41.5q0 -22 -19.5 -44t-50.5 -36 q-9 -4 -45 -18q-27 -13 -57.5 -27t-44 -20t-19.5 -10q-2 -11 -7.5 -41t-8.5 -45q-40 -216 -49 -363q-1 -33 -3.5 -55t-9.5 -46.5t-22 -37t-39 -12.5q-66 0 -72 86q-4 59 60 469q-118 -47 -150 -47q-35 0 -61 21t-29 52q-2 15 8 58q2 4 2 10l2 2q8 27 66 186q14 43 51 133 q25 62 70 62q12 0 24 -4q34 -12 37 -51q3 -21 -8 -46l-84 -237q-4 -9 -8 -31q8 2 28 10q32 11 97 37q5 17 22 107l10 57q4 16 8 26.5t12 24t22.5 20.5t33.5 7q22 0 39.5 -13.5t20.5 -33.5q0 -37 -4 -51q-1 -4 -4.5 -16t-4.5 -19q-2 -16 -10 -57q51 19 62 24l16 10 q28 19 51 19z" />
<glyph unicode="&#xbd;" horiz-adv-x="1304" d="M393 -229q-35 0 -55.5 28.5t-20.5 75.5q0 36 21 131l276 1043q4 17 13.5 51.5t13.5 52.5q76 276 90 385l2 16q4 34 27.5 56t52.5 22q37 0 56.5 -30t19.5 -86q0 -38 -27 -123q-100 -406 -190 -742q-12 -49 -34.5 -135t-27.5 -104q-55 -206 -118 -480q0 -13 -7 -34 q-4 -50 -18 -76q-9 -23 -29.5 -37t-44.5 -14zM123 580q-31 0 -51.5 16.5t-20.5 42.5q0 36 43 57q10 3 45 23q17 13 25 16l72 582l-7 -2q-12 -6 -26 -6q-24 0 -47 20q-15 19 -15 37q-3 24 15 39q11 15 16 18q8 8 14 17l93 114q27 37 59 37q5 0 14.5 -2.5t12.5 -3.5 q44 -15 47 -67q1 -18 -9 -70q-4 -16 -4 -27q-21 -116 -44.5 -298.5t-32.5 -297.5q0 -4 -1.5 -10.5t-1.5 -9.5q71 26 91 26q25 0 43 -17.5t18 -43.5q3 -38 -59 -70l-78 -38q-60 -30 -86 -42.5t-64 -26t-61 -13.5zM745 -221q-28 0 -47.5 17t-19.5 42q3 47 24 70 q141 233 310 502q69 114 88 149t22 57q0 4 1 8q0 4 -2 4h-3q-5 1 -10 1q-44 3 -107 -25t-104 -69q-27 -34 -61 -31q-28 0 -45 17.5t-15 43.5q6 25 15 37q32 60 153.5 115t210.5 49q60 -5 93 -38t30 -87q-3 -76 -53 -147q-179 -264 -275 -439l178 27q5 0 25 4q6 0 10 2 q40 9 67.5 -10t24.5 -51q-3 -48 -102 -72q-85 -18 -106 -21q-88 -17 -140 -32q-71 -29 -92 -72q-6 -21 -27.5 -37t-42.5 -14z" />
<glyph unicode="&#xbe;" horiz-adv-x="1415" d="M977 1516q0 -38 -27 -123q-100 -406 -190 -742q-12 -49 -34.5 -135t-27.5 -104q-55 -206 -118 -480q0 -13 -7 -34q-4 -50 -18 -76q-9 -23 -29.5 -37t-44.5 -14q-35 0 -55 28t-20 76q0 41 20 131l276 1043q4 17 13.5 51.5t13.5 52.5q76 276 90 385l2 16q4 34 27.5 56 t52.5 22q37 0 56.5 -30t19.5 -86zM633 1090q0 -52 -37 -118t-98 -124q-103 -100 -283 -197q-58 -28 -98 -28q-37 0 -67 20.5t-40 54.5q-8 27 -8 58q0 55 32 99t72 44q25 0 42.5 -18t17.5 -43q0 -6 -1 -17.5t-1 -17.5q-4 -16 -4 -29q183 88 295 230q37 60 37 83q0 15 -27 15 q-53 0 -121 -19q-21 -6 -88 -36l-45 -19q-21 -12 -41 -12q-28 0 -48 19t-20 44q0 14 12 35.5t23.5 37t40.5 52.5q5 6 18.5 23.5t22.5 27.5q16 22 66 76q9 12 18 21l16 18l-36 -6l-33 -6q-9 0 -25 -4q-28 -4 -47 -4q-26 0 -42.5 15t-16.5 40t16 38.5t55 26.5 q64 21 180.5 47.5t151.5 26.5q31 0 50.5 -17.5t19.5 -43.5q0 -41 -35 -68q-37 -39 -76 -76q-14 -12 -78 -77q-3 -3 -28 -33q31 4 82 4q78 0 127 -39.5t49 -103.5zM1415 758q25 0 46 -18.5t22 -41.5q0 -22 -19.5 -44t-50.5 -36q-9 -4 -45 -18q-27 -13 -57.5 -27t-44 -20 t-19.5 -10q-2 -11 -7.5 -41t-8.5 -45q-40 -216 -49 -363q-1 -33 -3.5 -55t-9.5 -46.5t-22 -37t-39 -12.5q-66 0 -72 86q-4 59 60 469q-118 -47 -150 -47q-35 0 -61 21t-29 52q-2 15 8 58q2 4 2 10l2 2q8 27 66 186q14 43 51 133q25 62 70 62q12 0 24 -4q34 -12 37 -51 q3 -21 -8 -46l-84 -237q-4 -9 -8 -31q8 2 28 10q32 11 97 37q5 17 22 107l11 57q4 17 7.5 27t12 23.5t22.5 20.5t33 7q22 0 39.5 -13.5t20.5 -33.5q0 -37 -4 -51q-1 -4 -4.5 -16t-4.5 -19q-2 -16 -10 -57q51 19 62 24l16 10q28 19 51 19z" />
<glyph unicode="&#xbf;" horiz-adv-x="899" d="M705 1464q55 10 105 -31.5t50 -95.5q0 -60 -52 -101.5t-126 -41.5q-43 0 -73.5 34t-30.5 81t41.5 97t85.5 58zM655 1071q51 0 95.5 -47.5t44.5 -101.5q0 -29 -32.5 -112.5t-53.5 -121.5q-43 -65 -129 -184q-10 -15 -31 -42t-27 -36q-46 -76 -96 -150q-125 -189 -168 -260 q-41 -64 -47 -125q1 0 4 3q42 18 53 26q122 90 197 160t139 172q1 1 9.5 15t11 17.5t13 13.5t19.5 13.5t25 7t35 3.5q39 0 66.5 -27t27.5 -66q0 -33 -18 -59l-15 -23l-2 -4q-195 -256 -405 -393q-49 -36 -105.5 -58t-101.5 -22q-69 0 -117.5 43t-56.5 111v4q0 83 35.5 182.5 t97.5 194.5q36 58 172 252l100 143q105 159 154 246q20 26 20 55q0 11 -8 35q-10 20 -10 39q0 39 31 67.5t73 28.5z" />
<glyph unicode="&#xc0;" horiz-adv-x="827" d="M262 1554q-66 8 -97.5 31.5t-27.5 65.5q1 45 46 77t98 29q86 -8 264 -76q34 -12 53 -35.5t16 -52.5q-3 -40 -37 -68t-77 -26q-18 2 -88 23q-23 8 -37 10q-12 4 -17 4q-66 16 -96 18zM758 215q6 -12 6 -27q0 -46 -33.5 -76t-85.5 -30q-50 0 -75.5 33.5t-39.5 109.5 q-8 41 -16 131q-10 102 -14 123q-142 -51 -236 -145q-14 -40 -35 -149t-28 -187q-6 -43 -35 -67.5t-72 -24.5q-48 0 -75.5 28t-28.5 80q0 45 4 72q56 254 82 369t82 317.5t116 368.5q18 50 95 241q46 103 127 103q60 0 98.5 -37t46.5 -100q11 -75 18 -195l7 -84 q6 -90 16 -199q2 -29 5 -74t3 -48q37 -24 37 -78q0 -36 -22 -99q-2 -60 26 -206q22 -119 25 -144q2 0 2 -6zM350 635q23 11 71 34.5t50 24.5q-9 215 -18 355q-76 -210 -115 -418q2 1 6 2t6 2z" />
<glyph unicode="&#xc1;" horiz-adv-x="827" d="M739 1839q43 -5 68 -30.5t22 -63.5q-1 -27 -21 -52.5t-50 -39.5q-17 -8 -48 -21.5t-36 -15.5q-64 -30 -86 -40.5t-53.5 -33.5t-49.5 -51q-4 -4 -4 -6h15q60 0 98.5 -37t46.5 -100q11 -75 18 -195l7 -84q6 -90 16 -199q2 -29 5 -74t3 -48q37 -24 37 -78q0 -36 -22 -99 q-2 -60 26 -206q22 -119 25 -144q2 0 2 -6q6 -12 6 -27q0 -46 -33.5 -76t-85.5 -30q-50 0 -75.5 33.5t-39.5 109.5q-8 41 -16 131q-10 102 -14 123q-142 -51 -236 -145q-14 -40 -35 -149t-28 -187q-6 -43 -35 -67.5t-72 -24.5q-48 0 -75.5 28t-28.5 80q0 45 4 72 q56 254 82 369t82 317.5t116 368.5q18 50 95 241q17 39 41 66h-13q-47 6 -77.5 40t-28.5 79q3 54 63 98q282 180 385 174zM350 635q23 11 71 34.5t50 24.5q-9 215 -18 355q-76 -210 -115 -418q2 1 6 2t6 2z" />
<glyph unicode="&#xc2;" horiz-adv-x="827" d="M770 1647q35 -57 35 -103q0 -32 -19.5 -56.5t-52.5 -35.5q-13 -8 -37 -8h-6q-56 0 -84 45l-14 35l-6 14q-8 14 -29.5 44t-30.5 44q-1 2 -3 4t-3 4l-135 -151q-31 -40 -69 -65t-70 -25q-35 0 -62.5 24t-27.5 56q0 27 27 66t106 130q80 90 133 160q53 76 119 76 q60 0 104 -72q9 -15 28 -42t27 -40q54 -72 70 -104zM756 221q2 0 2 -6q6 -12 6 -27q0 -46 -33.5 -76t-85.5 -30q-50 0 -75.5 33.5t-39.5 109.5q-8 41 -16 131q-10 102 -14 123q-142 -51 -236 -145q-14 -40 -35 -149t-28 -187q-6 -43 -35 -67.5t-72 -24.5q-48 0 -75.5 28 t-28.5 80q0 45 4 72q56 254 82 369t82 317.5t116 368.5q18 50 95 241q46 103 127 103q60 0 98.5 -37t46.5 -100q11 -75 18 -195l7 -84q6 -90 16 -199q2 -29 5 -74t3 -48q37 -24 37 -78q0 -36 -22 -99q-2 -60 26 -206q22 -119 25 -144zM350 635q23 11 71 34.5t50 24.5 q-9 215 -18 355q-76 -210 -115 -418q2 1 6 2t6 2z" />
<glyph unicode="&#xc3;" horiz-adv-x="827" d="M733 1806q44 0 77 -27.5t32 -64.5v-2q-12 -88 -92.5 -157.5t-169.5 -69.5q-76 0 -193 69l-47 23q-14 0 -45 -31l-12 -12q-3 -3 -9.5 -10.5t-9.5 -10.5q-18 -23 -32.5 -31.5t-38.5 -8.5q-29 0 -54.5 31t-25.5 63q0 54 82.5 126t144.5 72q29 0 58 -9t41 -15.5t38 -22.5 q21 -13 30 -18.5t26 -11t34 -5.5q31 0 46 7.5t30 31.5l14 27q15 31 32 44t44 13zM756 221q2 0 2 -6q6 -12 6 -27q0 -46 -33.5 -76t-85.5 -30q-50 0 -75.5 33.5t-39.5 109.5q-8 41 -16 131q-10 102 -14 123q-142 -51 -236 -145q-14 -40 -35 -149t-28 -187q-6 -43 -35 -67.5 t-72 -24.5q-48 0 -75.5 28t-28.5 80q0 45 4 72q56 254 82 369t82 317.5t116 368.5q18 50 95 241q46 103 127 103q60 0 98.5 -37t46.5 -100q11 -75 18 -195l7 -84q6 -90 16 -199q2 -29 5 -74t3 -48q37 -24 37 -78q0 -36 -22 -99q-2 -60 26 -206q22 -119 25 -144zM350 635 q23 11 71 34.5t50 24.5q-9 215 -18 355q-76 -210 -115 -418q2 1 6 2t6 2z" />
<glyph unicode="&#xc4;" horiz-adv-x="827" d="M664 1522q-60 0 -104 37.5t-44 91.5q0 55 39 94t94 39q57 0 100.5 -43.5t43.5 -100.5q0 -51 -36.5 -84.5t-92.5 -33.5zM309 1460q-54 0 -87.5 33t-33.5 86q0 68 38.5 110t99.5 42t107 -39t46 -90t-55 -96.5t-115 -45.5zM756 221q2 0 2 -6q6 -12 6 -27q0 -46 -33.5 -76 t-85.5 -30q-50 0 -75.5 33.5t-39.5 109.5q-8 41 -16 131q-10 102 -14 123q-142 -51 -236 -145q-14 -40 -35 -149t-28 -187q-6 -43 -35 -67.5t-72 -24.5q-48 0 -75.5 28t-28.5 80q0 45 4 72q56 254 82 369t82 317.5t116 368.5q18 50 95 241q46 103 127 103q60 0 98.5 -37 t46.5 -100q11 -75 18 -195l7 -84q6 -90 16 -199q2 -29 5 -74t3 -48q37 -24 37 -78q0 -36 -22 -99q-2 -60 26 -206q22 -119 25 -144zM350 635q23 11 71 34.5t50 24.5q-9 215 -18 355q-76 -210 -115 -418q2 1 6 2t6 2z" />
<glyph unicode="&#xc5;" horiz-adv-x="827" d="M643 1892q92 0 146.5 -43.5t54.5 -117.5q0 -71 -70 -138q-84 -84 -209 -125q67 -33 76 -120q11 -75 18 -195l7 -84q6 -90 16 -199q2 -29 5 -74t3 -48q37 -24 37 -78q0 -36 -22 -99q-2 -60 26 -206q22 -119 25 -144q2 0 2 -6q6 -12 6 -27q0 -46 -33.5 -76t-85.5 -30 q-50 0 -75.5 33.5t-39.5 109.5q-8 41 -16 131q-10 102 -14 123q-142 -51 -236 -145q-14 -40 -35 -149t-28 -187q-6 -43 -35 -67.5t-72 -24.5q-48 0 -75.5 28t-28.5 80q0 45 4 72q56 254 82 369t82 317.5t116 368.5q18 50 95 241q16 38 32 56h-2h-2q-87 0 -138.5 46.5 t-51.5 123.5q0 90 82 153q161 131 354 131zM430 1630q47 0 98.5 22t87.5 56h-8q-12 0 -24 -1.5t-27 -6t-21.5 -6.5t-27 -10t-23.5 -9q-53 -19 -77 -43q6 -2 22 -2zM350 635q23 11 71 34.5t50 24.5q-9 215 -18 355q-76 -210 -115 -418q2 1 6 2t6 2z" />
<glyph unicode="&#xc6;" horiz-adv-x="1265" d="M1374 1589q1 -28 -16.5 -54.5t-48.5 -43.5q-68 -25 -80 -29l-55 -22q-169 -65 -230 -97.5t-115 -78.5q-2 -84 -14 -265q-4 -31 -2 -45q178 79 197 86l26 13q61 29 111 3.5t47 -79.5q3 -32 -16 -55q-44 -51 -107 -78q-214 -97 -270 -142q3 -12 0 -28q-3 -22 -13 -49 q-6 -85 -6 -179q-3 -59 4 -114q93 46 183 153q10 8 24 29q20 21 30 31t31.5 22t43.5 13q42 1 73 -32.5t31 -78.5q1 -12 -3.5 -27.5t-9.5 -26t-14 -27.5t-12 -23l-4 -5q-130 -158 -336 -266q-50 -19 -92 -22h-26q-27 -7 -56 -4q-50 6 -70.5 43.5t-25.5 119.5q-2 22 -2 140 q2 25 2 73v21q0 23 -2 35q-138 -31 -250 -125q-19 -38 -52 -148t-52 -196q-10 -43 -42 -66t-75 -18q-46 6 -70 39t-20 86q3 31 12 73q90 271 127 380t118 317.5t161 374.5q6 13 120 241q57 103 140 94q61 -9 96 -53q114 62 266.5 121.5t231.5 62.5q52 3 83 -22.5t29 -71.5z M549 729q17 222 24 373q-103 -215 -163 -426q2 1 6 2t6 2q45 15 127 49z" />
<glyph unicode="&#xc7;" horiz-adv-x="847" d="M653 84q109 -11 175.5 -60.5t66.5 -121.5t-109 -170q-72 -59 -183 -108.5t-230 -49.5q-72 0 -128.5 54t-56.5 122q0 36 27.5 59t71.5 23q27 0 48 -10.5t29.5 -20t20.5 -28.5l8 -13q107 17 202 60t95 74q0 4 -1 5.5t-7.5 2.5t-20 1.5t-38.5 0.5q-16 0 -66 -13 q-40 -12 -68 -12q-81 0 -81 84q0 9 6 53q2 2 2 7v6q-169 29 -273 211t-104 450q0 95 17 196.5t48.5 199t79.5 184.5t106 152.5t132 104t153 38.5q71 0 149.5 -34.5t130.5 -87t52 -100.5q0 -46 -33.5 -77t-80.5 -31q-42 0 -80 41q-6 9 -13 16q-5 5 -22.5 19.5t-23.5 19.5 t-20 15t-21.5 13.5t-18.5 7t-21 3.5q-77 0 -149.5 -100t-117 -260.5t-44.5 -329.5q0 -195 65 -322t165 -127q6 0 11.5 0.5t11 2t9.5 3t10.5 4.5t9.5 4.5t10.5 6t9.5 5.5t10 6.5t10 6.5q58 43 100 43q34 0 58 -23.5t24 -58.5q0 -36 -31 -76t-82 -71z" />
<glyph unicode="&#xc8;" horiz-adv-x="806" d="M532 1450q-18 2 -88 23q-24 8 -36 10q-12 4 -17 4q-66 16 -96 18q-66 8 -97.5 31.5t-27.5 65.5q1 45 45.5 77t97.5 29q87 -8 265 -76q34 -12 53 -35.5t16 -52.5q-3 -40 -37.5 -68t-77.5 -26zM201 -18q-66 0 -108 37.5t-46 101.5q-11 79 -8 182q0 32 4 86q11 118 66 563 q6 35 14 101q-50 21 -47 88q1 45 57.5 94.5t157.5 95.5q121 54 279 106t237 52q53 0 82 -26t26 -70q0 -26 -19.5 -50.5t-51.5 -37.5q-28 -10 -80 -27q-43 -13 -57 -16q-118 -38 -189 -66.5t-95.5 -42.5t-68.5 -43q-6 -77 -26 -252q-4 -32 -4 -43q186 70 200 74q13 7 27 10 q61 26 111 -1.5t45 -78.5q0 -30 -21 -51q-46 -46 -111 -70q-231 -87 -282 -125q-19 -116 -25 -239q-6 -62 0 -109q100 44 189 140q13 8 26 24q1 1 9.5 9t10.5 9.5t10 8.5t11.5 9t11 7.5t12.5 7.5t12.5 4.5t14.5 3.5t15 1q42 0 72 -34t28 -77q0 -9 -2.5 -19.5t-9 -22.5 t-10.5 -18.5t-13 -20t-10 -15.5l-4 -4q-143 -152 -348 -238q-47 -18 -92 -18z" />
<glyph unicode="&#xc9;" horiz-adv-x="806" d="M807 1489q53 0 82 -26t26 -70q0 -26 -19.5 -50.5t-51.5 -37.5q-28 -10 -80 -27q-43 -13 -57 -16q-118 -38 -189 -66.5t-95.5 -42.5t-68.5 -43q-6 -77 -26 -252q-4 -32 -4 -43q186 70 200 74q13 7 27 10q61 26 111 -1.5t45 -78.5q0 -30 -21 -51q-46 -46 -111 -70 q-231 -87 -282 -125q-19 -116 -25 -239q-6 -62 0 -109q100 44 189 140q13 8 26 24q1 1 9.5 9t10.5 9.5t10 8.5t11.5 9t11 7.5t12.5 7.5t12.5 4.5t14.5 3.5t15 1q42 0 72 -34t28 -77q0 -9 -2.5 -19.5t-9 -22.5t-10.5 -18.5t-13 -20t-10 -15.5l-4 -4q-143 -152 -348 -238 q-47 -18 -92 -18q-66 0 -108 37.5t-46 101.5q-11 79 -8 182q0 32 4 86q11 118 66 563q6 35 14 101q-50 21 -47 88q1 45 57.5 94.5t157.5 95.5q31 14 166 68q-8 -2 -27 -2q-47 6 -77.5 40t-28.5 79q3 54 63 98q282 180 385 174q43 -5 68 -30.5t22 -63.5q-1 -27 -21 -52.5 t-50 -39.5q-17 -8 -48.5 -21.5t-35.5 -15.5q-64 -30 -86 -40.5t-53.5 -33.5t-49.5 -51q-8 -15 -33 -31q225 80 322 80z" />
<glyph unicode="&#xca;" horiz-adv-x="806" d="M838 1487q39 -8 59.5 -33t17.5 -61q0 -26 -19.5 -50.5t-51.5 -37.5q-28 -10 -80 -27q-43 -13 -57 -16q-118 -38 -189 -66.5t-95.5 -42.5t-68.5 -43q-6 -77 -26 -252q-4 -32 -4 -43q186 70 200 74q13 7 27 10q61 26 111 -1.5t45 -78.5q0 -30 -21 -51q-46 -46 -111 -70 q-231 -87 -282 -125q-19 -116 -25 -239q-6 -62 0 -109q100 44 189 140q13 8 26 24q1 1 9.5 9t10.5 9.5t10 8.5t11.5 9t11 7.5t12.5 7.5t12.5 4.5t14.5 3.5t15 1q42 0 72 -34t28 -77q0 -9 -2.5 -19.5t-9 -22.5t-10.5 -18.5t-13 -20t-10 -15.5l-4 -4q-143 -152 -348 -238 q-47 -18 -92 -18q-66 0 -108 37.5t-46 101.5q-11 79 -8 182q0 32 4 86q11 118 66 563q6 35 14 101q-50 21 -47 88q1 45 57.5 94.5t157.5 95.5q159 72 340 125l-6 17q-1 1 -2 3t-1.5 3.5t-1.5 3.5l-2 4q-8 14 -29.5 44t-29.5 44q-1 2 -3 4t-3 4l-135 -151q-31 -40 -69 -65.5 t-70 -25.5q-36 0 -63.5 24t-27.5 56q0 27 27.5 66.5t106.5 130.5q80 90 133 160q52 75 118 75q61 0 105 -71q9 -15 28 -42t27 -40q53 -70 70 -105q35 -57 35 -102v-6z" />
<glyph unicode="&#xcb;" horiz-adv-x="806" d="M807 1489q53 0 82 -26t26 -70q0 -26 -19.5 -50.5t-51.5 -37.5q-28 -10 -80 -27q-43 -13 -57 -16q-118 -38 -189 -66.5t-95.5 -42.5t-68.5 -43q-6 -77 -26 -252q-4 -32 -4 -43q186 70 200 74q13 7 27 10q61 26 111 -1.5t45 -78.5q0 -30 -21 -51q-46 -46 -111 -70 q-231 -87 -282 -125q-19 -116 -25 -239q-6 -62 0 -109q100 44 189 140q13 8 26 24q1 1 9.5 9t10.5 9.5t10 8.5t11.5 9t11 7.5t12.5 7.5t12.5 4.5t14.5 3.5t15 1q42 0 72 -34t28 -77q0 -9 -2.5 -19.5t-9 -22.5t-10.5 -18.5t-13 -20t-10 -15.5l-4 -4q-143 -152 -348 -238 q-47 -18 -92 -18q-66 0 -108 37.5t-46 101.5q-11 79 -8 182q0 32 4 86q11 118 66 563q6 35 14 101q-50 21 -47 88q1 45 57.5 94.5t157.5 95.5q83 37 195 77.5t202 61.5q-58 3 -98.5 40t-40.5 89q0 56 39 95t94 39q57 0 100 -43.5t43 -100.5q0 -72 -65 -104q36 4 47 4z M342 1409q-54 0 -87.5 33t-33.5 86q0 68 38 109.5t99 41.5t107.5 -39t46.5 -90t-55 -96t-115 -45z" />
<glyph unicode="&#xcc;" horiz-adv-x="425" d="M352 1427q-18 2 -88 23q-23 8 -37 10q-12 4 -16 4q-72 17 -96 19q-66 8 -97.5 31t-27.5 65q1 45 45.5 77.5t97.5 29.5q86 -8 264 -76q34 -12 53.5 -35.5t16.5 -52.5q-3 -40 -37.5 -68.5t-77.5 -26.5zM141 16q-40 1 -64 21t-30.5 50.5t-8.5 68.5t1 75q7 155 45.5 485 t75.5 494q19 73 49 113t94 39q44 -2 66.5 -28.5t15.5 -69.5q-2 -21 -31 -213q-57 -384 -73 -564q-18 -177 -19 -202q0 -82 2 -115q0 -4 -1 -11.5t-1 -11.5q0 -3 -1 -9.5t-1 -10.5q-5 -54 -36 -83t-83 -28z" />
<glyph unicode="&#xcd;" horiz-adv-x="425" d="M250 1374q-47 6 -78 40.5t-29 78.5q3 54 64 98q282 180 385 174q43 -5 68 -30.5t22 -63.5q-1 -27 -21.5 -52.5t-50.5 -39.5q-17 -8 -48 -21.5t-36 -15.5q-50 -23 -66 -30.5t-46 -24.5t-46 -33t-30 -37q-30 -46 -88 -43zM141 16q-40 1 -64 21t-30.5 50.5t-8.5 68.5t1 75 q7 155 45.5 485t75.5 494q19 73 49 113t94 39q44 -2 66.5 -28.5t15.5 -69.5q-2 -21 -31 -213q-57 -384 -73 -564q-18 -177 -19 -202q0 -82 2 -115q0 -4 -1 -11.5t-1 -11.5q0 -3 -1 -9.5t-1 -10.5q-5 -54 -36 -83t-83 -28z" />
<glyph unicode="&#xce;" horiz-adv-x="425" d="M549 1372h-6q-56 0 -84 45q-3 5 -15 35l-6 14q-8 14 -29.5 44t-29.5 44q-1 2 -3 4.5t-3 4.5l-135 -152q-31 -40 -69.5 -65t-70.5 -25q-35 0 -62.5 24t-27.5 56q0 27 27 66t106 130q80 90 133 160q53 76 119 76q61 0 105 -72q9 -15 28 -42t27 -40q54 -72 70 -104 q34 -56 34 -102q0 -32 -19.5 -57t-51.5 -36q-13 -8 -37 -8zM141 16q-40 1 -64 21t-30.5 50.5t-8.5 68.5t1 75q7 155 45.5 485t75.5 494q19 73 49 113t94 39q44 -2 66.5 -28.5t15.5 -69.5q-2 -21 -31 -213q-57 -384 -73 -564q-18 -177 -19 -202q0 -82 2 -115q0 -4 -1 -11.5 t-1 -11.5q0 -3 -1 -9.5t-1 -10.5q-5 -54 -36 -83t-83 -28z" />
<glyph unicode="&#xcf;" horiz-adv-x="425" d="M516 1450q-60 0 -103.5 37.5t-43.5 91.5q0 55 38.5 94t94.5 39q57 0 100 -43t43 -100q0 -51 -37 -85t-92 -34zM162 1389q-54 0 -87.5 32.5t-33.5 85.5q0 68 38 110t99 42t107.5 -39t46.5 -90t-55 -96t-115 -45zM141 16q-40 1 -64 21t-30.5 50.5t-8.5 68.5t1 75 q7 155 45.5 485t75.5 494q19 73 49 113t94 39q44 -2 66.5 -28.5t15.5 -69.5q-2 -21 -31 -213q-57 -384 -73 -564q-18 -177 -19 -202q0 -82 2 -115q0 -4 -1 -11.5t-1 -11.5q0 -3 -1 -9.5t-1 -10.5q-5 -54 -36 -83t-83 -28z" />
<glyph unicode="&#xd0;" horiz-adv-x="1009" d="M719 1497q141 -13 221 -107.5t80 -246.5q0 -228 -165 -506.5t-458 -546.5q-120 -104 -202 -98q-38 1 -62 29.5t-24 68.5q0 30 14.5 68t34.5 63q-2 12 -2 45q6 54 8 64q6 56 6 57v2q14 173 20 266q-14 -2 -43 -2q-47 0 -77.5 27t-30.5 70q0 46 32 72t103 38q20 4 31 4 l6 121q6 65 6 125q2 8 2 25q2 25 2 69h-14q-77 6 -90 96q-6 44 41 84t127 66q121 39 211.5 48.5t222.5 -1.5zM809 1143q5 74 -24 102.5t-115 34.5q-109 10 -230 -10q-6 -46 -20 -250l-6 -121q2 0 5 1t5 1q30 6 51 6q82 0 111 -69v-2q4 -12 4 -27q0 -36 -22 -63t-58 -35 l-102 -25q-2 -57 -2 -174q-3 -52 -3 -109q160 166 280 375.5t126 364.5z" />
<glyph unicode="&#xd1;" horiz-adv-x="892" d="M881 1540q47 -30 47 -80q0 -17 -4 -33q-1 -5 -5.5 -14t-5.5 -12q-26 -87 -28 -96q-17 -52 -27 -142l-18 -137q-66 -490 -76 -862q0 -57 -33 -97t-82 -40q-48 0 -80 43q-9 12 -18 27.5t-17.5 35.5t-15 35.5t-15.5 41t-12.5 36t-12 37t-9.5 28.5q-3 15 -10 35 q-50 142 -172 406q-1 -17 -4 -53.5t-4 -55.5q-17 -276 -19 -385q0 -19 2 -31q0 -45 6 -92v-24q0 -53 -51 -95q-27 -30 -74 -30q-29 0 -53.5 18.5t-36.5 50.5q-14 29 -14 95q11 251 47 808q2 51 12.5 123.5t24.5 100.5l2 4q43 65 115 65q34 0 54.5 -15.5t43.5 -53.5l2 -4 q41 -103 100 -238l49 -111q18 -41 91 -219q36 364 94 715q4 26 8 39q-47 -14 -80 -14q-75 0 -192 69l-48 23q-14 0 -45 -31l-12 -12q-3 -3 -9 -10.5t-9 -10.5q-18 -23 -33 -32t-39 -9q-29 0 -54.5 31.5t-25.5 63.5q0 54 82.5 126t144.5 72q29 0 58 -9t42 -16t38 -22 q21 -13 30 -18.5t26 -11t34 -5.5q31 0 46 7.5t30 31.5l14 27q15 31 32 44t44 13q44 0 76.5 -27.5t31.5 -64.5v-2l-6 -27q3 -2 11.5 -5t11.5 -5z" />
<glyph unicode="&#xd2;" horiz-adv-x="950" d="M549 1368q-18 2 -88 23q-23 8 -37 10q-12 4 -16 4q-66 16 -97 18q-66 8 -97.5 31.5t-27.5 65.5q1 45 46 77t98 29q86 -8 264 -76q34 -12 53.5 -35.5t16.5 -52.5q-3 -40 -37.5 -68t-77.5 -26zM387 -29q-102 0 -185 68.5t-126.5 185t-36.5 252.5q10 191 53.5 332.5 t153.5 296.5q84 113 179.5 179.5t176.5 66.5q62 0 95.5 -28.5t33.5 -80.5q174 -165 180 -512q-2 -121 -39.5 -252t-102.5 -245.5t-166 -188.5t-216 -74zM399 170q50 1 109 69.5t105.5 175t60.5 212.5q8 79 8 172q-1 115 -36 198.5t-97 118.5q-145 -115 -215.5 -291.5 t-61.5 -398.5q6 -102 45 -179t82 -77z" />
<glyph unicode="&#xd3;" horiz-adv-x="950" d="M731 1243q174 -165 180 -512q-2 -121 -39.5 -252t-102.5 -245.5t-166 -188.5t-216 -74q-102 0 -185 68.5t-126.5 185t-36.5 252.5q10 191 53.5 332.5t153.5 296.5q115 154 233 211q-10 -2 -33 -2q-47 6 -77.5 40t-28.5 79q3 54 63 98q282 180 385 174q43 -5 68.5 -30.5 t22.5 -63.5q-1 -27 -21.5 -52.5t-50.5 -39.5q-17 -8 -48.5 -21.5t-35.5 -15.5q-50 -23 -66 -30.5t-46 -24.5t-46 -33t-30 -37q-3 -5 -25 -27q50 21 92 21q62 0 95.5 -28.5t33.5 -80.5zM674 627q8 79 8 172q-1 115 -36 198.5t-97 118.5q-145 -115 -215.5 -291.5t-61.5 -398.5 q6 -102 45 -179t82 -77q50 1 109 69.5t105.5 175t60.5 212.5z" />
<glyph unicode="&#xd4;" horiz-adv-x="950" d="M731 1243q174 -165 180 -512q-2 -121 -39.5 -252t-102.5 -245.5t-166 -188.5t-216 -74q-102 0 -185 68.5t-126.5 185t-36.5 252.5q10 191 53.5 332.5t153.5 296.5q84 113 179.5 179.5t176.5 66.5q33 0 66 -11q-9 9 -13 15l-14 35l-6 14q-8 14 -29.5 44t-30.5 44 q-1 2 -3 4t-3 4l-135 -151q-31 -40 -69 -65t-70 -25q-36 0 -63 23.5t-27 55.5q0 27 27.5 67t105.5 130q80 91 133 160q53 76 119 76q60 0 104 -72q9 -15 28 -41.5t28 -40.5q50 -66 69 -105q35 -57 35 -102q0 -32 -19.5 -56.5t-52.5 -35.5q-13 -8 -37 -8h-6q-19 0 -34 6 q26 -26 26 -74zM674 627q8 79 8 172q-1 115 -36 198.5t-97 118.5q-145 -115 -215.5 -291.5t-61.5 -398.5q6 -102 45 -179t82 -77q50 1 109 69.5t105.5 175t60.5 212.5z" />
<glyph unicode="&#xd5;" horiz-adv-x="950" d="M242 1341q-29 0 -54.5 31.5t-25.5 63.5q0 54 82.5 126t144.5 72q29 0 58 -9t41 -15.5t38 -22.5q21 -13 30 -18.5t26 -11t34 -5.5q31 0 46 7.5t30 31.5l15 27q15 32 31.5 44.5t43.5 12.5q44 0 77 -27.5t32 -64.5v-2q-12 -88 -92.5 -157.5t-169.5 -69.5q-76 0 -193 69 l-47 23q-14 0 -45 -31l-12 -12q-3 -3 -9.5 -10.5t-9.5 -10.5q-18 -23 -32.5 -32t-38.5 -9zM387 -29q-102 0 -185 68.5t-126.5 185t-36.5 252.5q10 191 53.5 332.5t153.5 296.5q84 113 179.5 179.5t176.5 66.5q62 0 95.5 -28.5t33.5 -80.5q174 -165 180 -512 q-2 -121 -39.5 -252t-102.5 -245.5t-166 -188.5t-216 -74zM399 170q50 1 109 69.5t105.5 175t60.5 212.5q8 79 8 172q-1 115 -36 198.5t-97 118.5q-145 -115 -215.5 -291.5t-61.5 -398.5q6 -102 45 -179t82 -77z" />
<glyph unicode="&#xd6;" horiz-adv-x="950" d="M713 1389q-60 0 -104 37.5t-44 91.5q0 56 38.5 94.5t94.5 38.5q57 0 100.5 -43.5t43.5 -100.5q0 -51 -36.5 -84.5t-92.5 -33.5zM358 1327q-54 0 -87 33t-33 86q0 68 38 109.5t99 41.5t107 -39t46 -90t-55 -96t-115 -45zM387 -29q-102 0 -185 68.5t-126.5 185t-36.5 252.5 q10 191 53.5 332.5t153.5 296.5q84 113 179.5 179.5t176.5 66.5q62 0 95.5 -28.5t33.5 -80.5q174 -165 180 -512q-2 -121 -39.5 -252t-102.5 -245.5t-166 -188.5t-216 -74zM399 170q50 1 109 69.5t105.5 175t60.5 212.5q8 79 8 172q-1 115 -36 198.5t-97 118.5 q-145 -115 -215.5 -291.5t-61.5 -398.5q6 -102 45 -179t82 -77z" />
<glyph unicode="&#xd7;" horiz-adv-x="790" d="M43 -119h-2q-43 0 -70 24.5t-30 65.5q-3 40 16 72q53 120 127 268q3 6 29.5 57t44.5 87q85 155 86 157l-78 156q-42 82 -50 113q-4 15 -7 34q-5 43 17.5 73.5t63.5 33.5q60 6 105 -64q13 -21 38 -70t36 -69q2 -6 10 -18q89 177 235 395q8 10 29 39q23 35 43 57 q13 18 37 31.5t45 15.5q37 4 69 -23t37 -65v-4q0 -47 -34 -90q-1 -2 -7 -8.5t-8 -11.5l-39 -56q-164 -234 -299 -479q12 -17 27 -43q30 -46 109 -174q63 -88 67 -154q6 -43 -28 -81t-84 -44q-31 -1 -56 19t-33 51q-25 91 -118 227q0 3 -4 7q-49 -86 -124 -229.5t-106 -211.5 q-37 -82 -94 -88z" />
<glyph unicode="&#xd8;" horiz-adv-x="950" d="M772 1264q133 -173 139 -494q-2 -127 -39.5 -265.5t-102.5 -259t-166 -198.5t-216 -78q-26 0 -53 6l-12 -43q-4 -17 -9 -34q-9 -51 -24 -76q-13 -23 -41 -37t-58 -14q-47 0 -74.5 28.5t-27.5 75.5q0 40 29 131l33 92q-58 75 -87.5 180.5t-23.5 223.5q10 201 53.5 350 t153.5 311q84 120 179.5 190t176.5 70h10q23 83 29 115l2 16q6 33 37 55.5t70 22.5q49 0 74.5 -30t25.5 -86q0 -43 -35 -123zM518 1149q-129 -123 -192 -302t-54 -398l211 600q6 16 17.5 49.5t17.5 50.5zM399 178q50 1 109 72.5t105.5 184t60.5 224.5q8 84 8 183 q0 64 -12 123q-47 -141 -109 -314q-10 -30 -82 -239q-40 -114 -80 -234z" />
<glyph unicode="&#xd9;" horiz-adv-x="874" d="M514 1436q-23 3 -88 22q-23 8 -37 10q-15 5 -16 5q-66 16 -97 18q-66 8 -97 31t-27 65q1 45 45.5 77.5t97.5 29.5q86 -8 264 -76q34 -12 53.5 -35.5t16.5 -52.5q-3 -40 -37.5 -68t-77.5 -26zM227 8q-96 0 -144.5 79.5t-43.5 229.5q7 179 45.5 448t79.5 447q12 54 52 82 t93 19q26 -6 48 -30.5t22 -47.5q3 -43 -17 -117q-33 -167 -60.5 -397t-27.5 -371q0 -92 15 -92q35 0 119 77t139 187q15 323 69 789q5 65 34.5 101t80.5 36q45 0 75 -26.5t30 -67.5q0 -37 -7 -60q-15 -98 -31.5 -313t-23.5 -424q-8 -131 -8 -272q0 -51 2 -74v-61 q0 -42 -31 -68.5t-80 -26.5q-56 0 -80.5 32t-37.5 91q-79 -73 -167.5 -121.5t-144.5 -48.5z" />
<glyph unicode="&#xda;" horiz-adv-x="874" d="M412 1382q-47 6 -78 40.5t-29 78.5q3 54 64 98q284 181 385 175q43 -5 68 -31t22 -64q-1 -27 -21.5 -52.5t-50.5 -39.5q-17 -8 -48 -21.5t-36 -15.5q-50 -23 -66 -30.5t-46 -24.5t-46 -33t-30 -37q-30 -46 -88 -43zM227 8q-96 0 -144.5 79.5t-43.5 229.5q7 179 45.5 448 t79.5 447q12 54 52 82t93 19q26 -6 48 -30.5t22 -47.5q3 -43 -17 -117q-33 -167 -60.5 -397t-27.5 -371q0 -92 15 -92q35 0 119 77t139 187q15 323 69 789q5 65 34.5 101t80.5 36q45 0 75 -26.5t30 -67.5q0 -37 -7 -60q-15 -98 -31.5 -313t-23.5 -424q-8 -131 -8 -272 q0 -51 2 -74v-61q0 -42 -31 -68.5t-80 -26.5q-56 0 -80.5 32t-37.5 91q-79 -73 -167.5 -121.5t-144.5 -48.5z" />
<glyph unicode="&#xdb;" horiz-adv-x="874" d="M801 1425q35 -24 35 -71q0 -37 -7 -60q-15 -98 -31.5 -313t-23.5 -424q-8 -131 -8 -272q0 -51 2 -74v-61q0 -42 -31 -68.5t-80 -26.5q-56 0 -80.5 32t-37.5 91q-79 -73 -167.5 -121.5t-144.5 -48.5q-96 0 -144.5 79.5t-43.5 229.5q7 179 45.5 448t79.5 447q12 54 52 82 t93 19q26 -6 48 -30.5t22 -47.5q3 -43 -17 -117q-33 -167 -60.5 -397t-27.5 -371q0 -92 15 -92q35 0 119 77t139 187q15 323 69 789q2 45 25 88q-14 14 -20 24q-3 5 -15 35l-6 15q-8 14 -29.5 44t-29.5 44q-1 2 -3 4t-3 4l-136 -152q-31 -40 -69 -65t-70 -25q-35 0 -62.5 24 t-27.5 56q0 27 27.5 67t105.5 130q86 97 133 159q53 76 119 76q60 0 104 -72q9 -14 28 -40.5t28 -40.5q50 -66 69 -105q35 -57 35 -102q0 -33 -18 -54z" />
<glyph unicode="&#xdc;" horiz-adv-x="874" d="M678 1458q-60 0 -104 37.5t-44 91.5q0 55 39 94t95 39q57 0 100 -43t43 -100q0 -51 -37 -85t-92 -34zM324 1397q-54 0 -87.5 33t-33.5 86q0 68 38 109.5t99 41.5t107.5 -39t46.5 -90t-55 -96t-115 -45zM227 8q-96 0 -144.5 79.5t-43.5 229.5q7 179 45.5 448t79.5 447 q12 54 52 82t93 19q26 -6 48 -30.5t22 -47.5q3 -43 -17 -117q-33 -167 -60.5 -397t-27.5 -371q0 -92 15 -92q35 0 119 77t139 187q15 323 69 789q5 65 34.5 101t80.5 36q45 0 75 -26.5t30 -67.5q0 -37 -7 -60q-15 -98 -31.5 -313t-23.5 -424q-8 -131 -8 -272q0 -51 2 -74 v-61q0 -42 -31 -68.5t-80 -26.5q-56 0 -80.5 32t-37.5 91q-79 -73 -167.5 -121.5t-144.5 -48.5z" />
<glyph unicode="&#xdd;" horiz-adv-x="745" d="M319 1425q-47 6 -77.5 40t-28.5 79q3 54 63 98q284 181 386 175q43 -5 68 -31t22 -64q-1 -27 -21.5 -52.5t-50.5 -39.5q-17 -8 -48 -21.5t-36 -15.5q-50 -23 -66 -30.5t-46 -24.5t-46 -33t-30 -37q-30 -46 -89 -43zM754 1610q43 0 71.5 -23t28.5 -59q0 -26 -18 -68 q-16 -36 -73 -162t-75 -168t-67.5 -154t-71 -166.5t-62 -156.5t-64.5 -173.5t-55.5 -167t-57 -187.5t-48.5 -188q-12 -75 -49 -116.5t-92 -41.5q-50 0 -76.5 24t-26.5 68q0 27 21 92q18 58 78 268q74 271 116 390q-45 89 -98.5 219t-77.5 231q0 1 -1 6t-1 8q-8 46 -8 48 q0 60 24.5 86t78.5 26q40 0 66 -22t32 -60q17 -103 102 -274q7 24 15 35l98 219q25 58 76 172.5t77 171.5q34 66 65.5 94.5t72.5 28.5z" />
<glyph unicode="&#xde;" horiz-adv-x="862" d="M604 1257q115 -7 186.5 -67t69.5 -148q-2 -82 -92 -216t-217.5 -254.5t-233.5 -170.5v-6q0 -3 -2 -10.5t-2 -11.5q-6 -49 -30 -76q-7 -81 -9 -160v-57q-1 -25 -3 -44t-10.5 -43t-22 -38.5t-39 -23.5t-60.5 -7q-44 0 -72 24.5t-28 61.5q6 168 41 486q12 98 29 272 q4 24 16 115l20 145h-28q-70 3 -70 66q3 64 158 116q34 181 67 308q23 75 56 115t96 36q44 -3 65 -32.5t11 -75.5q-5 -38 -43 -222q-1 -6 -17 -84q97 7 164 2zM338 643q98 69 192.5 193.5t98.5 195.5q0 28 -10 39t-39 12q-80 6 -174 -8q-39 -223 -52 -325q-14 -93 -16 -107z " />
<glyph unicode="&#xdf;" horiz-adv-x="1267" d="M1104 586q54 -89 74 -124t50 -95.5t40 -106t10 -96.5q0 -88 -69 -159.5t-167 -86.5q-68 -12 -155 14q-163 57 -264 189q-23 29 -31 72q-16 91 51 149q32 28 70 39q38 3 61 -12q41 -18 51 -68q0 -34 -6 -49l-2 -4q-7 -10 -4 -21q0 -9 29 -32q4 -3 9 -6.5t10.5 -8t8.5 -6.5 q54 -37 84 -47q39 -10 52 -6q26 3 40.5 18.5t12.5 36.5q-6 73 -15.5 99t-48.5 85q-28 37 -90 138q-58 94 -96 143q-56 82 -72 120q-11 26 -18 56q-14 83 39 221q29 67 104 213q96 181 96 226v5.5t0.5 4t-1 2t-4 1.5t-7.5 1q-134 5 -242 -153.5t-159 -434.5q-12 -64 -35 -162 q-13 -64 -14 -71q-28 -169 -28.5 -395.5t28.5 -368.5q15 -60 -23 -111.5t-98 -50.5q-67 6 -88 84q-12 47 -18 96t-7 76t-2 98q0 11 -1 34.5t-1 37.5q-3 110 4 238l10 172l-24 -15q-6 -4 -18.5 -12t-18.5 -12q-8 -6 -21 -19q-14 -13 -21.5 -18.5t-27.5 -12.5t-43 -6 q-35 0 -59.5 27.5t-24.5 65.5q1 45 51 93t173 126q50 31 73 49q68 419 239 638.5t423 207.5q90 -3 144.5 -62.5t51.5 -150.5q-3 -43 -36 -125.5t-68 -147.5q-75 -141 -119 -278q-8 -29 -1 -71t24 -66q80 -111 135 -205z" />
<glyph unicode="&#xe0;" d="M164 1239q-66 8 -97.5 32.5t-27.5 69.5q1 47 45.5 81.5t97.5 29.5q92 -8 264 -80q34 -12 53.5 -37t16.5 -55q-3 -41 -37.5 -70.5t-77.5 -27.5q-23 3 -88 22q-21 10 -37 13q-12 4 -16 4q-66 16 -96 18zM489 1171q81 0 140 -60t59 -142q0 -63 -18 -160q-34 -227 -43 -295 q-2 -16 -8.5 -60.5t-8.5 -66.5q-27 -181 -16 -297v-20q2 -6 2 -23q0 -40 -27.5 -66.5t-70.5 -29.5q-55 0 -84 33t-37 102q-79 -59 -172 -59q-84 0 -137.5 68.5t-53.5 176.5q0 184 189 379q58 64 135 137l84 84q21 20 36 45.5t15 40.5v15q-40 0 -112.5 -61.5t-84.5 -106.5 q-8 -31 -32.5 -48.5t-61.5 -17.5q-44 0 -68 28.5t-24 78.5q0 70 78.5 154t196.5 143q57 28 124 28zM326 324q49 82 76.5 148t41.5 155q-58 -61 -172 -226q-20 -32 -35.5 -72t-15.5 -59l4 -30q19 -2 49 23.5t52 60.5z" />
<glyph unicode="&#xe1;" d="M641 1538q43 -5 68 -32t22 -68q-1 -29 -21.5 -56t-50.5 -41q-17 -8 -84 -38q-59 -28 -85 -42t-55 -37.5t-48 -52.5q-29 -48 -88 -45q-47 6 -77.5 42t-28.5 83q3 59 63 103q284 190 385 184zM489 1171q81 0 140 -60t59 -142q0 -63 -18 -160q-34 -227 -43 -295 q-2 -16 -8.5 -60.5t-8.5 -66.5q-27 -181 -16 -297v-20q2 -6 2 -23q0 -40 -27.5 -66.5t-70.5 -29.5q-55 0 -84 33t-37 102q-79 -59 -172 -59q-84 0 -137.5 68.5t-53.5 176.5q0 184 189 379q58 64 135 137l84 84q21 20 36 45.5t15 40.5v15q-40 0 -112.5 -61.5t-84.5 -106.5 q-8 -31 -32.5 -48.5t-61.5 -17.5q-44 0 -68 28.5t-24 78.5q0 70 78.5 154t196.5 143q57 28 124 28zM326 324q49 82 76.5 148t41.5 155q-58 -61 -172 -226q-20 -32 -35.5 -72t-15.5 -59l4 -30q19 -2 49 23.5t52 60.5z" />
<glyph unicode="&#xe2;" d="M616 1124q72 -65 72 -155q0 -63 -18 -160q-34 -227 -43 -295q-2 -16 -8.5 -60.5t-8.5 -66.5q-27 -181 -16 -297v-20q2 -6 2 -23q0 -40 -27.5 -66.5t-70.5 -29.5q-55 0 -84 33t-37 102q-79 -59 -172 -59q-84 0 -137.5 68.5t-53.5 176.5q0 184 189 379q58 64 135 137l84 84 q21 20 36 45.5t15 40.5v15q-40 0 -112.5 -61.5t-84.5 -106.5q-8 -31 -32.5 -48.5t-61.5 -17.5q-44 0 -68 28.5t-24 78.5q0 70 78.5 154t196.5 143q57 28 124 28h19q-5 9 -14 35l-7 15q-9 17 -31 50l-28 42l-6 10l-135 -160q-31 -43 -69.5 -69.5t-70.5 -26.5q-35 0 -62.5 25 t-27.5 59q0 29 28 72.5t105 136.5q90 106 134 168q54 80 118 80q60 0 105 -76q3 -5 55 -86q53 -74 70 -111q35 -60 35 -108q0 -34 -20 -60t-52 -37q-9 -6 -19 -6zM326 324q49 82 76.5 148t41.5 155q-58 -61 -172 -226q-20 -32 -35.5 -72t-15.5 -59l4 -30q19 -2 49 23.5 t52 60.5z" />
<glyph unicode="&#xe3;" d="M635 1505q44 0 76.5 -29t31.5 -69v-2q-10 -83 -76.5 -152t-148.5 -84q72 -12 121 -69.5t49 -130.5q0 -63 -18 -160q-34 -227 -43 -295q-2 -16 -8.5 -60.5t-8.5 -66.5q-27 -181 -16 -297v-20q2 -6 2 -23q0 -40 -27.5 -66.5t-70.5 -29.5q-55 0 -84 33t-37 102 q-79 -59 -172 -59q-84 0 -137.5 68.5t-53.5 176.5q0 184 189 379q58 64 135 137l84 84q21 20 36 45.5t15 40.5v15q-40 0 -112.5 -61.5t-84.5 -106.5q-8 -31 -32.5 -48.5t-61.5 -17.5q-44 0 -68 28.5t-24 78.5q0 70 78.5 154t196.5 143q38 20 81 26q-69 12 -157 70l-47 25 q-14 0 -45 -33l-13 -12q-15 -20 -18 -23q-18 -24 -33 -33.5t-39 -9.5q-29 0 -54.5 32.5t-25.5 65.5q0 57 83 134t145 77q64 0 137 -51q3 -2 10 -6.5t10 -6.5t9 -5.5t9.5 -5t9 -4.5t10 -4t10 -2.5t11 -2t11.5 -0.5q31 0 46 8.5t30 34.5l14 27q15 33 32 47t44 14zM326 324 q49 82 76.5 148t41.5 155q-58 -61 -172 -226q-20 -32 -35.5 -72t-15.5 -59l4 -30q19 -2 49 23.5t52 60.5z" />
<glyph unicode="&#xe4;" d="M565 1204q-60 0 -103.5 40t-43.5 95q0 59 39 100.5t94 41.5q57 0 100 -46t43 -106q0 -54 -36.5 -89.5t-92.5 -35.5zM211 1141q-54 0 -87.5 34.5t-33.5 90.5q0 70 37.5 113.5t99.5 43.5t108 -40.5t46 -94.5t-54.5 -100.5t-115.5 -46.5zM489 1171q81 0 140 -60t59 -142 q0 -63 -18 -160q-34 -227 -43 -295q-2 -16 -8.5 -60.5t-8.5 -66.5q-27 -181 -16 -297v-20q2 -6 2 -23q0 -40 -27.5 -66.5t-70.5 -29.5q-55 0 -84 33t-37 102q-79 -59 -172 -59q-84 0 -137.5 68.5t-53.5 176.5q0 184 189 379q58 64 135 137l84 84q21 20 36 45.5t15 40.5v15 q-40 0 -112.5 -61.5t-84.5 -106.5q-8 -31 -32.5 -48.5t-61.5 -17.5q-44 0 -68 28.5t-24 78.5q0 70 78.5 154t196.5 143q57 28 124 28zM326 324q49 82 76.5 148t41.5 155q-58 -61 -172 -226q-20 -32 -35.5 -72t-15.5 -59l4 -30q19 -2 49 23.5t52 60.5z" />
<glyph unicode="&#xe5;" d="M520 1169q71 -12 119.5 -69.5t48.5 -130.5q0 -63 -18 -160q-34 -227 -43 -295q-2 -16 -8.5 -60.5t-8.5 -66.5q-27 -181 -16 -297v-20q2 -6 2 -23q0 -40 -27.5 -66.5t-70.5 -29.5q-55 0 -84 33t-37 102q-79 -59 -172 -59q-84 0 -137.5 68.5t-53.5 176.5q0 184 189 379 q58 64 135 137l84 84q21 20 36 45.5t15 40.5v15q-40 0 -112.5 -61.5t-84.5 -106.5q-8 -31 -32.5 -48.5t-61.5 -17.5q-44 0 -68 28.5t-24 78.5q0 62 63.5 137.5t163.5 134.5q-4 -2 -16 -2h-2q-88 0 -139 48t-51 130q0 96 81 162q161 137 355 137q92 0 146 -46t54 -124 q0 -73 -69 -145q-64 -67 -156 -109zM387 1366q-58 -24 -78 -47q6 -2 23 -2q47 0 98.5 23t87.5 59h-8q-12 0 -24 -1.5t-27 -6t-21.5 -6.5t-27 -10t-23.5 -9zM326 324q49 82 76.5 148t41.5 155q-58 -61 -172 -226q-20 -32 -35.5 -72t-15.5 -59l4 -30q19 -2 49 23.5t52 60.5z " />
<glyph unicode="&#xe6;" horiz-adv-x="1392" d="M1130 403q43 0 74 -28t31 -66q0 -57 -80 -119q-63 -50 -183 -92.5t-196 -42.5q-107 0 -182 35v-20q2 -6 2 -23q0 -40 -27.5 -66.5t-70.5 -29.5q-55 0 -84 33t-37 102q-79 -59 -172 -59q-84 0 -137.5 68.5t-53.5 176.5q0 184 189 379q58 64 135 137l84 84q21 20 36 45.5 t15 40.5v15q-40 0 -112.5 -61.5t-84.5 -106.5q-8 -31 -32.5 -48.5t-61.5 -17.5q-44 0 -68 28.5t-24 78.5q0 70 78.5 154t196.5 143q57 28 124 28q76 0 134.5 -54.5t64.5 -131.5q97 78 186 78q90 0 147.5 -43.5t57.5 -112.5q0 -150 -100 -276q-130 -169 -338 -250 q9 -107 133 -107q7 0 47 5q28 3 65.5 17t55.5 23t64 33q85 51 124 51zM858 842q-64 -19 -117.5 -80t-72.5 -135q58 38 111.5 98.5t78.5 116.5zM326 324q49 82 76.5 148t41.5 155q-58 -61 -172 -226q-20 -32 -35.5 -72t-15.5 -59l4 -30q19 -2 49 23.5t52 60.5z" />
<glyph unicode="&#xe7;" horiz-adv-x="759" d="M518 98q93 -17 148 -65t55 -113q0 -72 -109 -170q-72 -59 -183 -108.5t-230 -49.5q-72 0 -128.5 54.5t-56.5 122.5q0 35 27.5 58t71.5 23q27 0 48 -10.5t29.5 -20t20.5 -28.5l8 -12q107 17 202 59.5t95 73.5q0 4 -1 5.5t-7.5 2.5t-20 1.5t-38.5 0.5q-20 0 -66 -12 q-40 -12 -68 -12q-82 0 -82 84q0 2 7 53q2 2 2 6q5 37 16 76q5 10 10 35q-109 60 -175 166t-66 233q0 160 87 307t228 223q110 52 180 52q75 0 123.5 -47.5t48.5 -122.5q0 -81 -45.5 -152.5t-101.5 -71.5q-40 0 -69 27t-29 65q0 19 18 60q6 9 6 10l8 29q-235 -134 -235 -367 q0 -114 62.5 -187.5t168.5 -82.5q11 -3 66 8q39 8 51 8q38 0 66 -25.5t28 -62.5q0 -47 -49.5 -82t-120.5 -41z" />
<glyph unicode="&#xe8;" horiz-adv-x="808" d="M428 1128q-18 2 -88 23q-18 9 -37 12q-12 4 -16 4q-72 17 -97 19q-66 8 -97 32.5t-27 69.5q1 47 45.5 81.5t97.5 29.5q92 -8 264 -80q34 -12 53.5 -37t16.5 -55q-3 -41 -37.5 -71t-77.5 -28zM360 55q-346 0 -346 355q0 208 105 393q60 111 157 185.5t183 74.5 q90 0 147.5 -43.5t57.5 -112.5q0 -148 -101 -276q-130 -169 -338 -250q9 -107 133 -107q8 0 48 5q10 1 20 3t21.5 5.5t19.5 6t22 8.5t19.5 8.5t21.5 10.5t19.5 9.5t21.5 11t19 10.5q85 51 125 51q43 0 73.5 -28t30.5 -66q0 -57 -80 -119q-63 -50 -183 -92.5t-196 -42.5z M252 627q58 38 111.5 98.5t78.5 116.5q-64 -19 -117.5 -80t-72.5 -135z" />
<glyph unicode="&#xe9;" horiz-adv-x="808" d="M326 1073q-47 6 -78 42t-29 83q3 58 64 102q286 191 385 185q43 -5 68 -32.5t22 -68.5q-1 -29 -21.5 -55.5t-50.5 -40.5q-44 -21 -84 -39q-48 -23 -66 -32t-46.5 -26.5t-45 -34t-30.5 -38.5q-29 -48 -88 -45zM360 55q-346 0 -346 355q0 208 105 393q60 111 157 185.5 t183 74.5q90 0 147.5 -43.5t57.5 -112.5q0 -148 -101 -276q-130 -169 -338 -250q9 -107 133 -107q8 0 48 5q10 1 20 3t21.5 5.5t19.5 6t22 8.5t19.5 8.5t21.5 10.5t19.5 9.5t21.5 11t19 10.5q85 51 125 51q43 0 73.5 -28t30.5 -66q0 -57 -80 -119q-63 -50 -183 -92.5 t-196 -42.5zM252 627q58 38 111.5 98.5t78.5 116.5q-64 -19 -117.5 -80t-72.5 -135z" />
<glyph unicode="&#xea;" horiz-adv-x="808" d="M625 1069h-7q-56 0 -83 47q-6 10 -15 37l-6 14q-9 17 -31.5 51.5t-27.5 41.5l-6 10l-136 -160q-31 -43 -69 -69.5t-70 -26.5q-35 0 -62.5 25t-27.5 59q0 29 28 72.5t105 136.5q84 99 133 168q53 79 119 79q60 0 104 -75q9 -17 30.5 -48.5t25.5 -37.5q50 -70 69 -111 q35 -60 35 -108q0 -34 -19.5 -60t-51.5 -37q-13 -8 -37 -8zM360 55q-346 0 -346 355q0 208 105 393q60 111 157 185.5t183 74.5q90 0 147.5 -43.5t57.5 -112.5q0 -148 -101 -276q-130 -169 -338 -250q9 -107 133 -107q8 0 48 5q10 1 20 3t21.5 5.5t19.5 6t22 8.5t19.5 8.5 t21.5 10.5t19.5 9.5t21.5 11t19 10.5q85 51 125 51q43 0 73.5 -28t30.5 -66q0 -57 -80 -119q-63 -50 -183 -92.5t-196 -42.5zM252 627q58 38 111.5 98.5t78.5 116.5q-64 -19 -117.5 -80t-72.5 -135z" />
<glyph unicode="&#xeb;" horiz-adv-x="808" d="M592 1151q-60 0 -104 40t-44 95q0 58 39 99.5t95 41.5q57 0 100 -45.5t43 -105.5q0 -54 -36.5 -89.5t-92.5 -35.5zM238 1087q-54 0 -87.5 34.5t-33.5 90.5q0 71 38 114.5t99 43.5q62 0 108 -40.5t46 -94.5t-55 -101t-115 -47zM360 55q-346 0 -346 355q0 208 105 393 q60 111 157 185.5t183 74.5q90 0 147.5 -43.5t57.5 -112.5q0 -148 -101 -276q-130 -169 -338 -250q9 -107 133 -107q8 0 48 5q10 1 20 3t21.5 5.5t19.5 6t22 8.5t19.5 8.5t21.5 10.5t19.5 9.5t21.5 11t19 10.5q85 51 125 51q43 0 73.5 -28t30.5 -66q0 -57 -80 -119 q-63 -50 -183 -92.5t-196 -42.5zM252 627q58 38 111.5 98.5t78.5 116.5q-64 -19 -117.5 -80t-72.5 -135z" />
<glyph unicode="&#xec;" horiz-adv-x="335" d="M281 983q-18 2 -88 23q-18 9 -37 12q-12 4 -17 4q-66 16 -96 18q-66 8 -97.5 33t-27.5 70q1 47 45.5 81t97.5 29q97 -9 265 -79q34 -12 53 -37.5t16 -55.5q-3 -41 -37 -70.5t-77 -27.5zM162 41q-47 -5 -81 26t-40 83q-5 37 2 102q2 22 5 66.5t5 64.5q7 109 23 305 q0 229 114 238q44 4 75.5 -22.5t31.5 -67.5q0 -52 -12 -129q-22 -241 -23 -261q-2 -70 -2 -213v-12l4 -24l6 -33q2 -53 -27.5 -86.5t-80.5 -36.5z" />
<glyph unicode="&#xed;" horiz-adv-x="335" d="M178 928q-47 6 -77.5 42t-28.5 83q3 58 63 102q284 190 385 184q43 -5 68 -32t22 -68q-1 -29 -21 -55.5t-50 -40.5q-43 -21 -84 -39q-49 -23 -66 -32t-46.5 -26.5t-46 -34t-30.5 -38.5q-29 -48 -88 -45zM162 41q-47 -5 -81 26t-40 83q-5 37 2 102q2 22 5 66.5t5 64.5 q7 109 23 305q0 229 114 238q44 4 75.5 -22.5t31.5 -67.5q0 -52 -12 -129q-22 -241 -23 -261q-2 -70 -2 -213v-12l4 -24l6 -33q2 -53 -27.5 -86.5t-80.5 -36.5z" />
<glyph unicode="&#xee;" horiz-adv-x="335" d="M477 924h-6q-57 0 -84 47q-4 6 -14 37l-6 14q-9 16 -31.5 49t-28.5 43l-6 10l-135 -159q-31 -43 -69 -70t-70 -27q-35 0 -62.5 25t-27.5 59q0 29 28 72.5t105 136.5q84 99 133 168q54 80 119 80q59 0 104 -76q3 -5 55 -86q54 -76 70 -110q35 -60 35 -109q0 -33 -19.5 -59 t-52.5 -37q-13 -8 -37 -8zM162 41q-47 -5 -81 26t-40 83q-5 37 2 102q2 22 5 66.5t5 64.5q7 109 23 305q0 229 114 238q44 4 75.5 -22.5t31.5 -67.5q0 -52 -12 -129q-22 -241 -23 -261q-2 -70 -2 -213v-12l4 -24l6 -33q2 -53 -27.5 -86.5t-80.5 -36.5z" />
<glyph unicode="&#xef;" horiz-adv-x="335" d="M444 1006q-60 0 -103.5 40t-43.5 95q0 59 39 100t94 41q57 0 100 -46t43 -106q0 -54 -36.5 -89t-92.5 -35zM90 942q-54 0 -87.5 34.5t-33.5 90.5q0 71 38 114.5t99 43.5q62 0 108 -40.5t46 -94.5t-55 -101t-115 -47zM162 41q-47 -5 -81 26t-40 83q-5 37 2 102 q2 22 5 66.5t5 64.5q7 109 23 305q0 229 114 238q44 4 75.5 -22.5t31.5 -67.5q0 -52 -12 -129q-22 -241 -23 -261q-2 -70 -2 -213v-12l4 -24l6 -33q2 -53 -27.5 -86.5t-80.5 -36.5z" />
<glyph unicode="&#xf0;" horiz-adv-x="854" d="M938 1362q0 -36 -22 -63t-58 -35q-17 -6 -37 -9q26 -100 37 -192q20 -159 -38.5 -373.5t-168.5 -398.5q-29 -87 -88 -148q-57 -69 -157 -118q-54 -28 -105 -31q-74 -5 -137 30.5t-101 102.5q-35 53 -47 143q-4 39 2 119q31 196 152 350q24 31 29 52q11 59 54 97.5 t101 41.5q35 3 78 -6l4 -2q67 -28 121 -95q51 -64 76 -147q60 193 45 393q-5 71 -25 148q-82 -15 -157 -15q-47 0 -78 27t-31 70q0 46 32 72t103 38l43 6q-9 17 -43 66q-37 54 -70.5 78.5t-76.5 29.5q-56 9 -62 72q-3 40 20.5 73.5t59.5 37.5q24 3 63.5 -16.5t67.5 -39.5 q73 -45 119.5 -96t91.5 -131q7 -17 21 -41q2 0 7.5 1t8.5 1q30 6 51 6q82 0 111 -69v-2q4 -12 4 -27zM315 207q1 1 4.5 2t4.5 2q84 45 114 123q29 93 21 162q-6 80 -62 190l-14 -10q-144 -153 -150 -354v-27q2 -19 13 -51q0 -2 1 -6.5t1 -6.5q17 -33 39 -30q10 0 28 6z" />
<glyph unicode="&#xf1;" horiz-adv-x="724" d="M131 1100q-29 0 -54.5 32.5t-25.5 65.5q0 57 83 134t145 77q64 0 137 -51q3 -2 10 -6.5t10 -6.5t9 -5.5t9.5 -5t9 -4.5t10 -4t10 -2.5t11 -2t11.5 -0.5q31 0 46 8.5t30 34.5l14 27q15 33 32 47t44 14q44 0 76.5 -29t31.5 -69v-2q-12 -92 -92.5 -166t-169.5 -74 q-75 0 -192 74l-47 24q-16 0 -46 -32l-12 -13q-12 -16 -18 -22q-18 -24 -33 -33.5t-39 -9.5zM154 31q-46 -5 -80.5 23t-34.5 71v18v15q0 43 2 53q46 503 72 754q4 52 37 82.5t81 27.5h2q36 -6 57 -30t21 -60q0 -37 -4 -115v-4q14 16 82 84q30 33 44.5 47.5t44.5 32.5t61 21 h2q64 0 102 -45t43 -127q0 -36 -4 -56l-18 -108q-2 -12 -7.5 -50t-7.5 -51.5t-6 -46.5l-6 -49.5t-5 -46t-4 -51t-2 -48.5t-1 -53q0 -65 4 -106v-2q0 -50 -27 -81.5t-70 -31.5q-73 0 -104 58q-20 44 -20 108q0 223 43 457q-28 -24 -52 -49t-35 -38.5t-40 -49.5 q-42 -53 -50 -109q-5 -99 -16 -264l-6 -66v-6q-16 -61 -35 -84t-63 -24z" />
<glyph unicode="&#xf2;" horiz-adv-x="714" d="M184 1110q-66 8 -97.5 32.5t-27.5 69.5q1 47 46 81.5t98 29.5q92 -8 264 -80q34 -12 53.5 -37t16.5 -55q-3 -41 -37.5 -70.5t-77.5 -27.5q-23 3 -88 22q-18 9 -37 12q-15 5 -16 5q-66 16 -97 18zM674 580q21 -225 -111 -369q-59 -71 -157 -119q-54 -28 -105 -31 q-74 -5 -137 31t-101 103q-35 53 -47 143q-4 39 2 119q31 196 152 350q25 32 29 51q11 59 54 97.5t101 41.5q35 3 78 -6l4 -2q68 -29 121 -94q90 -116 117 -315zM438 401q29 93 21 162q-6 81 -62 191l-14 -11q-144 -153 -150 -354v-27q2 -19 13 -51q0 -2 1 -6t1 -6 q18 -34 39 -31q10 0 28 6q1 1 4.5 2.5t4.5 2.5q84 46 114 122z" />
<glyph unicode="&#xf3;" horiz-adv-x="714" d="M662 1409q43 -5 68 -32t22 -68q-1 -29 -21.5 -56t-50.5 -41q-17 -8 -84 -38q-59 -28 -85 -42t-55 -37.5t-48 -52.5q-29 -48 -89 -45q-47 6 -77.5 42t-28.5 83q3 59 63 103q284 190 386 184zM557 895q90 -116 117 -315q21 -225 -111 -369q-59 -71 -157 -119 q-54 -28 -105 -31q-74 -5 -137 31t-101 103q-35 53 -47 143q-4 39 2 119q31 196 152 350q25 32 29 51q11 59 54 97.5t101 41.5q35 3 78 -6l4 -2q68 -29 121 -94zM438 401q29 93 21 162q-6 81 -62 191l-14 -11q-144 -153 -150 -354v-27q2 -19 13 -51q0 -2 1 -6t1 -6 q18 -34 39 -31q10 0 28 6q1 1 4.5 2.5t4.5 2.5q84 46 114 122z" />
<glyph unicode="&#xf4;" horiz-adv-x="714" d="M692 1206q35 -60 35 -108q0 -34 -20 -60t-52 -37q-13 -8 -37 -8h-6q-57 0 -84 47q-4 6 -14 37l-6 15q-9 17 -31 50l-28 42l-7 10l-135 -160q-31 -43 -69 -69.5t-70 -26.5q-35 0 -62.5 25t-27.5 59q0 29 28 72.5t105 136.5q84 99 133 168q54 80 119 80q59 0 104 -76 q9 -17 30.5 -48.5t25.5 -37.5q50 -70 69 -111zM557 895q90 -116 117 -315q21 -225 -111 -369q-59 -71 -157 -119q-54 -28 -105 -31q-74 -5 -137 31t-101 103q-35 53 -47 143q-4 39 2 119q31 196 152 350q25 32 29 51q11 59 54 97.5t101 41.5q35 3 78 -6l4 -2q68 -29 121 -94 zM438 401q29 93 21 162q-6 81 -62 191l-14 -11q-144 -153 -150 -354v-27q2 -19 13 -51q0 -2 1 -6t1 -6q18 -34 39 -31q10 0 28 6q1 1 4.5 2.5t4.5 2.5q84 46 114 122z" />
<glyph unicode="&#xf5;" horiz-adv-x="714" d="M655 1376q45 0 77.5 -29.5t31.5 -68.5v-2q-12 -92 -92.5 -166t-169.5 -74q-76 0 -193 74l-47 25q-14 0 -45 -33l-12 -12q-12 -16 -19 -23q-18 -24 -32.5 -33.5t-38.5 -9.5q-29 0 -54.5 32.5t-25.5 65.5q0 57 83 134t144 77q64 0 137 -51q3 -2 10 -6.5t10 -6.5t9 -5.5 t9.5 -5t9 -4.5t10 -4t10 -2.5t11 -2t11.5 -0.5q31 0 46 8.5t30 34.5l15 27q16 33 32 47t43 14zM557 895q90 -116 117 -315q21 -225 -111 -369q-59 -71 -157 -119q-54 -28 -105 -31q-74 -5 -137 31t-101 103q-35 53 -47 143q-4 39 2 119q31 196 152 350q25 32 29 51 q11 59 54 97.5t101 41.5q35 3 78 -6l4 -2q68 -29 121 -94zM438 401q29 93 21 162q-6 81 -62 191l-14 -11q-144 -153 -150 -354v-27q2 -19 13 -51q0 -2 1 -6t1 -6q18 -34 39 -31q10 0 28 6q1 1 4.5 2.5t4.5 2.5q84 46 114 122z" />
<glyph unicode="&#xf6;" horiz-adv-x="714" d="M571 1352q57 0 100.5 -46t43.5 -106q0 -54 -36.5 -89.5t-92.5 -35.5q-60 0 -104 40t-44 95q0 59 39 100.5t94 41.5zM231 1012q-54 0 -87 34.5t-33 90.5q0 70 37.5 113.5t99.5 43.5q61 0 107 -40.5t46 -94.5t-54.5 -100.5t-115.5 -46.5zM557 895q90 -116 117 -315 q21 -225 -111 -369q-59 -71 -157 -119q-54 -28 -105 -31q-74 -5 -137 31t-101 103q-35 53 -47 143q-4 39 2 119q31 196 152 350q25 32 29 51q11 59 54 97.5t101 41.5q35 3 78 -6l4 -2q68 -29 121 -94zM438 401q29 93 21 162q-6 81 -62 191l-14 -11q-144 -153 -150 -354v-27 q2 -19 13 -51q0 -2 1 -6t1 -6q18 -34 39 -31q10 0 28 6q1 1 4.5 2.5t4.5 2.5q84 46 114 122z" />
<glyph unicode="&#xf7;" horiz-adv-x="798" d="M440 811q-68 -12 -123 49q-32 35 -32 78q0 28 16 57q22 40 64.5 63t97.5 23q43 0 73.5 -33.5t30.5 -80.5t-41.5 -97.5t-85.5 -58.5zM158 479q-80 -3 -107 56q-12 18 -12 45q0 51 55 84q48 21 82 26q26 3 172 27q178 29 254 37h6q16 4 29 4q90 6 115 -66q2 -2 2 -4 q6 -18 6 -29q0 -29 -21 -54.5t-55 -39.5q-35 -13 -109 -26q-64 -7 -194 -29q-173 -27 -223 -31zM393 113q-68 -12 -123 49q-32 35 -32 78q0 28 16 57q22 40 64.5 63t97.5 23q43 0 73.5 -34t30.5 -81t-41.5 -97t-85.5 -58z" />
<glyph unicode="&#xf8;" horiz-adv-x="714" d="M674 580q21 -225 -111 -369q-59 -71 -157 -119q-54 -28 -105 -31h-27q-16 -44 -32 -100l-6 -24q-11 -45 -21 -58q-24 -39 -76 -39q-37 0 -58.5 21.5t-21.5 58.5q0 28 23 96l39 107q-35 31 -58 72q-35 53 -47 143q-4 39 2 119q31 196 152 350q25 32 29 51q11 59 54 97.5 t101 41.5q35 3 78 -6l4 -2h2q37 100 49 170l2 12q4 25 28 41.5t54 16.5q78 0 78 -86q0 -36 -26 -92q-9 -27 -29 -82.5t-29 -83.5q81 -114 109 -305zM238 440l79 222q-64 -102 -79 -222zM438 401q29 93 21 162q0 13 -2 19l-31 -84q-12 -35 -35 -98.5t-29 -80.5q-1 -4 -4 -11 t-4 -11q60 42 84 104z" />
<glyph unicode="&#xf9;" horiz-adv-x="741" d="M446 1128q-18 2 -88 23q-18 9 -36 12q-12 4 -17 4q-72 17 -96 19q-66 8 -97.5 32.5t-27.5 69.5q1 47 45.5 81.5t97.5 29.5q94 -8 265 -80q34 -12 53 -37t16 -55q-3 -41 -37.5 -71t-77.5 -28zM539 23h-4q-90 -2 -115 102q-78 -47 -139 -53q-72 -9 -127 24.5t-86 104.5 q-32 106 -29 194q-2 138 70 459q6 39 33.5 71.5t60.5 35.5q42 7 77.5 -21.5t41.5 -71.5q6 -29 -7 -67q-24 -49 -42 -144t-23 -170q-1 -66 2 -115t8 -70t10 -21q39 -2 84 58t54 128q12 139 71 473q20 152 117 154q45 0 73.5 -20.5t32.5 -57.5q0 -25 -4 -41q-71 -248 -84 -692 q0 -5 3 -22.5t4 -27.5q8 -38 12 -90q0 -51 -25.5 -83t-68.5 -37z" />
<glyph unicode="&#xfa;" horiz-adv-x="741" d="M344 1073q-47 6 -77.5 42t-28.5 83q3 58 63 102q286 191 385 185q43 -5 68 -32.5t22 -68.5q-1 -29 -21 -55.5t-50 -40.5q-43 -21 -84 -39q-49 -23 -66 -32t-46.5 -26.5t-46 -34t-30.5 -38.5q-29 -48 -88 -45zM539 23h-4q-90 -2 -115 102q-78 -47 -139 -53 q-72 -9 -127 24.5t-86 104.5q-32 106 -29 194q-2 138 70 459q6 39 33.5 71.5t60.5 35.5q42 7 77.5 -21.5t41.5 -71.5q6 -29 -7 -67q-24 -49 -42 -144t-23 -170q-1 -66 2 -115t8 -70t10 -21q39 -2 84 58t54 128q12 139 71 473q20 152 117 154q45 0 73.5 -20.5t32.5 -57.5 q0 -25 -4 -41q-71 -248 -84 -692q0 -5 3 -22.5t4 -27.5q8 -38 12 -90q0 -51 -25.5 -83t-68.5 -37z" />
<glyph unicode="&#xfb;" horiz-adv-x="741" d="M752 1174q0 -34 -20 -60t-52 -37q-8 -4 -10 -4q29 -23 32 -57q0 -25 -4 -41q-71 -248 -84 -692q0 -5 3 -22.5t4 -27.5q8 -38 12 -90q0 -51 -25.5 -83t-68.5 -37h-4q-90 -2 -115 102q-78 -47 -139 -53q-72 -9 -127 24.5t-86 104.5q-32 106 -29 194q-2 138 70 459 q6 39 33.5 71.5t60.5 35.5q42 7 77.5 -21.5t41.5 -71.5q6 -29 -7 -67q-24 -49 -42 -144t-23 -170q-1 -66 2 -115t8 -70t10 -21q39 -2 84 58t54 128q12 139 71 473q20 136 94 152q-10 8 -20 24q-4 6 -14 37l-7 14q-9 17 -31.5 51.5t-27.5 41.5l-6 10l-135 -160 q-31 -43 -69 -69.5t-70 -26.5q-36 0 -63.5 25.5t-27.5 58.5q0 29 28 72t106 137q84 99 133 168q53 79 118 79q61 0 105 -75q3 -5 55 -86q53 -74 70 -111q35 -60 35 -108z" />
<glyph unicode="&#xfc;" horiz-adv-x="741" d="M610 1151q-60 0 -103.5 40t-43.5 95q0 59 39 100t94 41q57 0 100 -45.5t43 -105.5q0 -54 -36.5 -89.5t-92.5 -35.5zM256 1087q-54 0 -87.5 34.5t-33.5 90.5q0 71 38 114.5t99 43.5q62 0 108 -40.5t46 -94.5t-55 -101t-115 -47zM539 23h-4q-90 -2 -115 102 q-78 -47 -139 -53q-72 -9 -127 24.5t-86 104.5q-32 106 -29 194q-2 138 70 459q6 39 33.5 71.5t60.5 35.5q42 7 77.5 -21.5t41.5 -71.5q6 -29 -7 -67q-24 -49 -42 -144t-23 -170q-1 -66 2 -115t8 -70t10 -21q39 -2 84 58t54 128q12 139 71 473q20 152 117 154 q45 0 73.5 -20.5t32.5 -57.5q0 -25 -4 -41q-71 -248 -84 -692q0 -5 3 -22.5t4 -27.5q8 -38 12 -90q0 -51 -25.5 -83t-68.5 -37z" />
<glyph unicode="&#xfd;" horiz-adv-x="798" d="M737 1544q43 -5 68 -32t22 -68q-1 -29 -21 -55.5t-50 -40.5q-44 -21 -84 -39q-49 -23 -66 -32t-46.5 -26.5t-46 -34t-30.5 -38.5q-29 -48 -88 -45q-47 6 -77.5 41.5t-28.5 82.5q3 59 63 103q284 190 385 184zM643 1106q56 0 89.5 -42t27.5 -103q-9 -122 -15 -242 q-16 -338 -51 -535q-56 -290 -224 -457t-409 -167q-154 0 -256 85.5t-102 215.5q0 70 30.5 108.5t86.5 38.5q50 0 78 -30t28 -84q0 -60 39.5 -91.5t114.5 -31.5q118 0 213.5 85.5t153.5 239t69 350.5q-71 -88 -138 -138t-140 -50q-98 0 -148.5 79t-50.5 230q3 97 20.5 186 t57.5 218q17 52 42.5 82t78.5 34h2q45 0 75.5 -25t30.5 -63q0 -33 -12 -61q-32 -76 -53 -192t-21 -216q0 -24 2 -36q52 35 109 124q59 89 90.5 158.5t60.5 167.5q1 6 4 18.5t4 18.5q18 68 42 96.5t71 28.5z" />
<glyph unicode="&#xfe;" horiz-adv-x="780" d="M739 764q12 -117 -75 -256q-89 -158 -269 -309q-59 -54 -114 -62q-3 -23 -13 -43q-13 -156 -8 -276v-11q0 -31 -6 -47q-22 -48 -88 -51q-45 -2 -75.5 14t-37.5 46q-10 24 -14 65v10v29q3 57 10 164.5t10 157.5q0 12 1 33.5t1 31.5q0 4 5 49q0 7 1 20.5t1 20.5l36 330v10 q-2 11 -8 17q-45 36 -47 63q-2 29 35 72q27 21 33 55q6 27 26 41q29 196 64 348q10 37 20 61t26.5 49t41.5 36.5t59 9.5q44 -2 66.5 -31.5t13.5 -75.5q-3 -22 -8 -54t-14 -82t-15 -85q-14 -90 -20 -123q24 6 49 6q127 6 214.5 -59.5t98.5 -173.5zM498 643q24 59 18 137 q-6 51 -88 45q-54 -3 -82 -20q-34 -258 -37 -283q-12 -84 -18 -160q77 75 128 141t79 140z" />
<glyph unicode="&#xff;" horiz-adv-x="798" d="M662 1210q-60 0 -104 40.5t-44 95.5q0 59 39 100t94 41q57 0 100.5 -46t43.5 -106q0 -54 -36.5 -89.5t-92.5 -35.5zM307 1147q-54 0 -87.5 34.5t-33.5 90.5q0 70 38 114t100 44q61 0 107 -41t46 -95t-54.5 -100.5t-115.5 -46.5zM643 1106q56 0 89.5 -42t27.5 -103 q-9 -122 -15 -242q-16 -338 -51 -535q-56 -290 -224 -457t-409 -167q-154 0 -256 85.5t-102 215.5q0 70 30.5 108.5t86.5 38.5q50 0 78 -30t28 -84q0 -60 39.5 -91.5t114.5 -31.5q118 0 213.5 85.5t153.5 239t69 350.5q-71 -88 -138 -138t-140 -50q-98 0 -148.5 79 t-50.5 230q3 97 20.5 186t57.5 218q17 52 42.5 82t78.5 34h2q45 0 75.5 -25t30.5 -63q0 -33 -12 -61q-32 -76 -53 -192t-21 -216q0 -24 2 -36q52 35 109 124q59 89 90.5 158.5t60.5 167.5q1 6 4 18.5t4 18.5q18 68 42 96.5t71 28.5z" />
<glyph unicode="&#x152;" horiz-adv-x="1421" d="M1421 1567q52 0 82 -27.5t27 -73.5q0 -28 -20 -53.5t-52 -40.5q-8 -3 -80 -26l-57 -19q-119 -40 -188.5 -69.5t-95 -44.5t-68.5 -46q-4 -56 -27 -264q-4 -32 -4 -45q147 59 201 78q14 7 26 10q62 27 111.5 -1.5t44.5 -82.5q0 -32 -21 -53q-47 -51 -110 -74 q-84 -33 -120 -48t-87 -39.5t-76 -43.5q-17 -113 -24 -252q-6 -66 0 -114q100 47 188 145q15 12 27 27q21 21 31 30t31.5 20t43.5 11q42 0 72.5 -35t28.5 -80q0 -10 -3 -21t-9 -23l-10 -20t-12.5 -21t-10.5 -17l-5 -4q-143 -159 -348 -250q-47 -18 -92 -18q-60 0 -99.5 31.5 t-49.5 88.5q-127 -133 -279 -133q-102 0 -185 72t-126.5 194.5t-36.5 266.5q10 201 53.5 350t153.5 311q84 120 179.5 190t176.5 70q62 0 95.5 -29.5t33.5 -84.5l12 -13q60 57 162 105q118 57 277 111.5t239 54.5zM399 178q50 1 109 72.5t105.5 184t60.5 224.5q8 84 8 183 q-1 120 -36 208t-97 126q-144 -121 -215 -308t-62 -419q6 -108 45 -189.5t82 -81.5z" />
<glyph unicode="&#x153;" horiz-adv-x="1157" d="M1165 403q43 0 74 -28t31 -66q0 -57 -80 -119q-63 -50 -183 -92.5t-196 -42.5q-199 0 -285 117q-50 -44 -120 -80q-54 -28 -105 -31q-74 -5 -137 31t-101 103q-35 53 -47 143q-4 39 2 119q31 196 152 350q25 32 29 51q11 59 54 97.5t101 41.5q35 3 78 -6l4 -2 q68 -29 121 -94q21 -29 35 -53q64 97 152 159t165 62q90 0 147.5 -43.5t57.5 -112.5q0 -150 -100 -276q-130 -169 -338 -250q9 -107 133 -107q7 0 47 5q10 1 20 3t21.5 5.5t19.5 6t22 8.5t19.5 8.5t21.5 10.5t19.5 9.5t21.5 11t19 10.5q85 51 125 51zM893 842 q-64 -19 -118 -80t-73 -135q59 38 112.5 99t78.5 116zM438 401q29 93 21 162q-6 81 -62 191l-14 -11q-144 -153 -150 -354v-27q2 -19 13 -51q0 -2 1 -6t1 -6q18 -34 39 -31q10 0 28 6q1 1 4.5 2.5t4.5 2.5q84 46 114 122z" />
<glyph unicode="&#x178;" horiz-adv-x="745" d="M754 1610q43 0 71.5 -23t28.5 -59q0 -26 -18 -68q-16 -36 -73 -162t-75 -168t-67.5 -154t-71 -166.5t-62 -156.5t-64.5 -173.5t-55.5 -167t-57 -187.5t-48.5 -188q-12 -75 -49 -116.5t-92 -41.5q-50 0 -76.5 24t-26.5 68q0 27 21 92q18 58 78 268q74 271 116 390 q-45 89 -98.5 219t-77.5 231q0 1 -1 6t-1 8q-8 46 -8 48q0 60 24.5 86t78.5 26q40 0 66 -22t32 -60q17 -103 102 -274q7 24 15 35l98 219q25 58 76 172.5t77 171.5q2 3 5.5 10t5.5 10q-18 -6 -41 -6q-60 0 -104 37.5t-44 91.5q0 56 39 94.5t94 38.5q57 0 100.5 -43 t43.5 -100q0 -12 -2 -18q16 8 41 8zM231 1440q-54 0 -87 33t-33 86q0 68 38 109.5t99 41.5t107 -39t46 -90t-55 -96t-115 -45z" />
<glyph unicode="&#x2c6;" horiz-adv-x="714" d="M553 1104h-6q-57 0 -84 47q-4 6 -14 37l-7 14q-9 17 -31 50l-28 42l-6 11l-135 -160q-31 -43 -69.5 -69.5t-70.5 -26.5q-35 0 -62.5 25t-27.5 59q0 29 27.5 71.5t105.5 136.5q90 106 134 168q54 80 118 80q60 0 105 -76q3 -5 55 -86q54 -76 70 -110q35 -60 35 -109 q0 -33 -19.5 -59t-52.5 -37q-13 -8 -37 -8z" />
<glyph unicode="&#x2dc;" horiz-adv-x="1021" d="M203 1192q-29 0 -54.5 32.5t-25.5 65.5q0 57 83 134t144 77q64 0 137 -51q2 -1 9 -5.5t9 -6t8 -5.5t8.5 -5t8.5 -4t9 -4t8.5 -3t10 -2.5t10 -1t10.5 -0.5q31 0 45.5 8.5t29.5 34.5l15 27q16 33 32 47t43 14q45 0 77.5 -29.5t31.5 -68.5v-2q-12 -92 -92.5 -166t-169.5 -74 q-76 0 -193 74l-47 25q-14 0 -45 -33l-12 -13q-9 -12 -19 -22q-18 -24 -32.5 -33.5t-38.5 -9.5z" />
<glyph unicode="&#x2000;" horiz-adv-x="971" />
<glyph unicode="&#x2001;" horiz-adv-x="1942" />
<glyph unicode="&#x2002;" horiz-adv-x="971" />
<glyph unicode="&#x2003;" horiz-adv-x="1942" />
<glyph unicode="&#x2004;" horiz-adv-x="647" />
<glyph unicode="&#x2005;" horiz-adv-x="485" />
<glyph unicode="&#x2006;" horiz-adv-x="323" />
<glyph unicode="&#x2007;" horiz-adv-x="323" />
<glyph unicode="&#x2008;" horiz-adv-x="242" />
<glyph unicode="&#x2009;" horiz-adv-x="388" />
<glyph unicode="&#x200a;" horiz-adv-x="107" />
<glyph unicode="&#x2010;" horiz-adv-x="628" d="M147 580q-47 0 -77.5 26.5t-30.5 69.5q0 46 32 72t103 38q40 6 250 41q35 7 51 7q81 0 111 -70v-2q4 -12 4 -27q0 -36 -22 -63t-58 -35q-223 -57 -363 -57z" />
<glyph unicode="&#x2011;" horiz-adv-x="628" d="M147 580q-47 0 -77.5 26.5t-30.5 69.5q0 46 32 72t103 38q40 6 250 41q35 7 51 7q81 0 111 -70v-2q4 -12 4 -27q0 -36 -22 -63t-58 -35q-223 -57 -363 -57z" />
<glyph unicode="&#x2012;" horiz-adv-x="628" d="M147 580q-47 0 -77.5 26.5t-30.5 69.5q0 46 32 72t103 38q40 6 250 41q35 7 51 7q81 0 111 -70v-2q4 -12 4 -27q0 -36 -22 -63t-58 -35q-223 -57 -363 -57z" />
<glyph unicode="&#x2013;" horiz-adv-x="798" d="M158 479q-80 -3 -107 56q-12 18 -12 45q0 51 55 84q48 21 82 26q26 3 172 27q178 29 254 37h6q16 4 29 4q90 6 115 -66q2 -2 2 -4q6 -18 6 -29q0 -29 -21 -54.5t-55 -39.5q-35 -13 -109 -26q-64 -7 -194 -29q-173 -27 -223 -31z" />
<glyph unicode="&#x2014;" horiz-adv-x="1282" d="M156 479q-51 0 -84 28t-33 71q0 35 27 61t71 37q27 6 53 6q6 2 17 2q192 15 428 45q265 31 407 43q58 4 84 4q56 0 86.5 -27.5t30.5 -78.5q0 -35 -19.5 -60.5t-54.5 -34.5q-77 -17 -108 -20q-33 -3 -82.5 -8.5t-69.5 -7.5q-106 -15 -194 -21q-143 -10 -211 -16l-166 -15 q-22 0 -72 -4q-74 -4 -110 -4z" />
<glyph unicode="&#x2018;" horiz-adv-x="446" d="M328 950q-26 0 -41 6q-22 8 -38.5 23.5t-23 26t-14.5 28.5q-1 3 -4 8.5t-4 8.5l-2 2q-10 24 -86 229l-37 104q-6 18 -6 33q0 34 20.5 63t52.5 38q18 6 35 6q30 0 56 -17.5t38 -46.5q9 -14 29 -73q0 -7 4 -19q39 -87 66 -158l37 -90q1 -4 2.5 -7.5t3.5 -8t4 -8.5 q12 -24 12 -39q0 -47 -29 -78t-75 -31z" />
<glyph unicode="&#x2019;" horiz-adv-x="407" d="M162 1049q-17 0 -43 16q-54 28 -45 92q0 13 12 37q38 81 74 141l37 72q39 73 55 98q20 40 54 60t71 14q6 0 24 -6q34 -15 48.5 -45t7.5 -68q-6 -21 -15 -39q-6 -23 -22 -49q-8 -18 -27.5 -56.5t-23.5 -47.5q-9 -20 -28 -57t-26 -52q-32 -45 -63 -78q-36 -39 -90 -32z" />
<glyph unicode="&#x201a;" horiz-adv-x="440" d="M80 -213q-17 0 -43 16q-55 28 -45 93q0 12 12 36q40 86 74 142l37 71q43 80 55 99q20 40 54 59.5t71 13.5q6 0 24 -6q34 -15 48.5 -44.5t7.5 -67.5q-6 -21 -15 -39q-6 -23 -22 -49q-1 -2 -51 -105q-9 -20 -28 -56.5t-26 -51.5q-32 -45 -63 -78q-36 -40 -90 -33z" />
<glyph unicode="&#x201c;" horiz-adv-x="724" d="M311 1415l111 -280q1 -3 4.5 -10.5t5.5 -12.5q19 -34 19 -51q0 -54 -26.5 -85.5t-72.5 -31.5q-25 0 -45 10q-21 8 -37 20.5t-27 32t-14.5 26.5t-11.5 28q-32 74 -141 377v8q-4 20 -4 24q0 38 22 70t56 41q15 6 34 6q52 0 90 -69q10 -17 23 -62zM709 1163l2 -16 q0 -23 -15 -46t-37 -34q-25 -14 -51 -14q-49 0 -82 30l-2 4q-136 190 -180 349q-4 8 -4 28q0 52 32.5 86.5t82.5 34.5q66 0 98 -82q10 -26 32 -72t29 -61l50 -102q1 -3 6 -12t6 -11q28 -47 33 -82z" />
<glyph unicode="&#x201d;" horiz-adv-x="663" d="M143 1012q-77 25 -71 108q3 34 24 86q11 24 37 85.5t41 94.5l49 117q20 46 56 66t79 8h2q35 -12 53 -41t15 -66q0 -20 -6 -32q-3 -10 -41 -117q-13 -30 -21 -53q-2 -5 -30 -74q-35 -90 -51 -121q-15 -38 -54 -55.5t-82 -5.5zM420 1020q-31 0 -55 18q-30 23 -33 60 q-8 34 28 104l13 25q6 11 41 69q53 89 94 166q41 86 113 80q46 -3 72 -39t22 -90q-3 -45 -29 -86q-40 -74 -129 -219q-66 -97 -137 -88z" />
<glyph unicode="&#x201e;" horiz-adv-x="696" d="M61 -250q-37 12 -55.5 40.5t-15.5 68.5q3 34 24 86q11 24 37 85.5t41 94.5l49 117q20 46 56 65.5t79 7.5h3q35 -12 52.5 -40.5t14.5 -65.5q0 -21 -6 -33q-2 -10 -41 -117q-9 -21 -20 -53q-8 -18 -31 -74q-34 -86 -51 -120q-15 -38 -54 -56t-82 -6zM338 -242q-30 0 -55 19 q-30 23 -33 59q-8 33 29 105l12 24q10 18 41 70q53 89 94 166q41 86 113 80q46 -3 72 -39t22 -90q-3 -45 -29 -86q-44 -82 -129 -220q-66 -97 -137 -88z" />
<glyph unicode="&#x2022;" horiz-adv-x="471" d="M258 518q-101 -18 -184 74q-49 52 -49 117q0 45 24 86q33 61 96 95t146 34q65 0 111.5 -50t46.5 -122q0 -70 -62.5 -146t-128.5 -88z" />
<glyph unicode="&#x202f;" horiz-adv-x="388" />
<glyph unicode="&#x2039;" horiz-adv-x="868" d="M745 1303q55 0 88 -28t19 -63q-12 -46 -59 -96q-8 -6 -48 -41q-139 -135 -215 -201q-8 -7 -131 -108q-80 -64 -118 -96l22 -23q67 -68 82 -80q19 -19 111 -106q46 -41 108 -103q50 -44 68 -78.5t14 -74.5q-5 -32 -33 -52t-71 -20q-83 0 -101 66q-2 12 -11 26.5 t-24.5 31.5t-30.5 31.5t-39.5 35.5t-40.5 34.5t-45 36t-42 33.5q-44 35 -71 59t-60 59.5t-54 69.5q-24 34 -24 68q0 52 57 100q332 269 404 330q15 13 39.5 37t33.5 33q28 31 58 55q48 64 114 64z" />
<glyph unicode="&#x203a;" horiz-adv-x="843" d="M98 133q-55 0 -87.5 27.5t-18.5 62.5q12 46 59 96q1 1 47 41q139 135 215 201q34 29 131 109q95 76 119 96l-22 22q-68 67 -82 80q-37 37 -111 107q-56 49 -108 102q-49 44 -68 79t-14 75q5 32 33 52t71 20q82 0 100 -66q2 -12 11 -26.5t24.5 -31.5t31 -32t39.5 -35.5 t41 -34t45 -36t42 -33.5q134 -109 184 -189q25 -36 25 -67q0 -53 -57 -101q-359 -291 -404 -329q-15 -13 -40.5 -37.5t-33.5 -32.5q-30 -34 -57 -55q-48 -64 -115 -64z" />
<glyph unicode="&#x205f;" horiz-adv-x="485" />
<glyph unicode="&#x20ac;" horiz-adv-x="1019" d="M748 1522q71 0 149.5 -36.5t130 -91.5t51.5 -106q0 -47 -33.5 -79.5t-80.5 -32.5q-43 0 -80 43q-6 9 -13 16q-6 5 -23 20.5t-23 20.5t-19.5 15.5t-21.5 14.5t-19 7.5t-21 3.5q-66 0 -129 -78t-108 -209q108 16 119 17h6q16 4 29 4q89 6 114 -66q2 -2 2 -4q6 -18 6 -29 q0 -29 -20.5 -54.5t-54.5 -39.5q-40 -15 -109 -27q-35 -3 -147 -20q-15 -90 -17 -149q109 15 166 22h6q16 4 29 4q91 6 115 -65q2 -3 2 -5q6 -18 6 -28q0 -29 -21 -54.5t-55 -39.5q-40 -15 -109 -27q-64 -6 -133 -18q20 -150 80.5 -241t141.5 -91q37 0 92 41q61 45 100 45 q34 0 58 -25t24 -61q0 -47 -46.5 -98t-115.5 -85t-131 -34q-160 0 -273 141t-149 375q-20 -4 -65 -8q-80 -3 -107 55q-12 18 -12 45q0 51 55 84q51 23 82 27l35 4q3 75 12 151q-7 -1 -21 -2t-20 -2q-79 -3 -106 55q-13 19 -13 45q0 50 56 84q51 23 82 27q14 1 69 10 q32 109 79 202.5t106.5 167.5t135 116.5t157.5 42.5z" />
<glyph unicode="&#x2122;" horiz-adv-x="1175" d="M545 1454q-20 0 -37 10q-48 -3 -111 -34q-57 -377 -57 -556v-43q0 -44 -19.5 -69t-54.5 -25q-29 0 -47 14t-18 37q-1 8 -1 17t0.5 19.5t0.5 15.5q9 85 14 121l43 419q-45 -15 -49 -16l-53 -18q-32 -13 -50 -13q-22 0 -38.5 15t-16.5 34q0 37 72 66l373 125q38 14 69 14 q29 0 50.5 -17t21.5 -42q0 -26 -29 -50t-63 -24zM1100 1047q0 -62 -2 -91q-1 -20 8 -100q6 -48 6 -51t1 -8.5t1 -8.5q4 -8 4 -16v-2q-10 -59 -61 -59q-81 0 -84 106q-7 145 0 316q-38 -87 -72 -201l-33 -121q-1 -4 -4 -11.5t-4 -11.5q-9 -20 -31 -32.5t-47 -12.5 q-45 0 -63 35q-13 21 -17 64q0 20 -2 30q-3 18 -30 181q-2 10 -5.5 31.5t-5.5 31.5q-10 -37 -28 -123q-8 -41 -10 -57q-10 -31 -17 -82l-6 -49q-4 -14 -8 -23.5t-12 -21.5t-22.5 -18.5t-33.5 -6.5q-21 0 -34 13t-15 32q-4 13 4 72q18 142 53 248q23 77 23 78q3 7 7 21.5 t7 21.5q0 1 11 28q27 83 51 148q18 63 82 63q37 0 56.5 -22t18.5 -62q-8 -142 15 -334q82 237 145 367q8 13 15 31q8 19 12.5 27.5t14 21t23 17.5t31.5 5q38 0 61 -27.5t21 -70.5q-2 -47 -10 -117q-8 -71 -10 -116q-4 -82 -4 -133z" />
<glyph unicode="&#x25fc;" horiz-adv-x="1341" d="M0 1341h1341v-1341h-1341v1341z" />
<glyph horiz-adv-x="745" d="M670 444q12 -196 12 -294q0 -33 -0.5 -49.5t-2.5 -44.5t-6 -43t-12 -34.5t-20 -29t-30 -16.5t-42 -7q-52 0 -87.5 43.5t-35.5 106.5q0 70 3 117v116q0 47 -3 82q-121 -40 -231 -121v-24v-25q0 -43 -4 -55q-6 -43 -34.5 -66.5t-72.5 -23.5q-52 1 -83 42t-31 107q0 15 4 43 q142 726 309 1143q42 100 87.5 146.5t105.5 46.5q24 0 42 -7t30 -24t19.5 -31t12 -43.5t6.5 -45.5t4.5 -52t3.5 -49q1 -21 23 -369q27 -405 33 -539zM358 582q43 16 86 39q-6 69 -18 251q-12 152 -16 218q-85 -286 -129 -545z" />
<glyph horiz-adv-x="952" d="M745 1503q83 -7 128.5 -52.5t39.5 -113.5q-2 -4 -2 -14q-12 -43 -20 -59q-32 -64 -129 -187q-27 -34 -109 -116q139 -23 200.5 -93t49.5 -194q-12 -167 -135 -314q-114 -134 -307 -267.5t-305 -129.5q-52 4 -85.5 39.5t-31.5 83.5q0 19 16 59q26 70 29 111q4 36 4 55 q0 5 1 14.5t1 14.5q24 300 51 782q-38 35 -41 95q-1 23 19.5 53t50.5 51q258 206 575 182zM334 940q88 74 187 184t141 179q-77 -5 -163.5 -35.5t-131.5 -69.5q-16 -64 -29 -149q-4 -70 -4 -109zM676 688q3 28 -10.5 41.5t-47.5 18.5q-54 1 -80 -4t-114 -35l-84 -27 q-28 -250 -33 -438q81 45 148 98q113 94 161 169.5t60 176.5z" />
<glyph horiz-adv-x="948" d="M537 -31q-88 -2 -175 39.5t-151 114.5q-172 202 -172 559q0 197 65 389q59 174 205.5 302t288.5 128q135 0 216.5 -100t94.5 -283q1 -46 -33.5 -81.5t-80.5 -35.5q-32 0 -57 20.5t-31 51.5q-19 111 -46 156t-75 45q-74 0 -141.5 -54.5t-114.5 -152.5q-34 -74 -54 -181.5 t-20 -217.5q0 -222 82 -346q81 -132 176 -132q19 0 35 6.5t23 13t24 23.5q47 50 88 50q34 0 62 -27.5t28 -62.5q0 -49 -36 -101t-92 -87t-109 -36z" />
<glyph horiz-adv-x="989" d="M547 1432q188 -17 295.5 -127.5t107.5 -288.5q0 -81 -33.5 -193.5t-89.5 -230t-133.5 -232.5t-161 -203t-177.5 -139.5t-177 -44.5q-42 3 -66 25t-24 61q0 7 2 20.5t10 37t21 39.5q4 58 4 82q1 16 2 47t2 47q4 41 11.5 131t11.5 137q17 190 38 475q0 7 1.5 22.5t1.5 22.5 q-32 -16 -74 -16h-4q-35 5 -55.5 28t-20.5 60q0 65 49 108q75 68 203.5 105t255.5 27zM350 281q151 159 258 349t107 351q0 113 -47 169t-146 64q-50 3 -106 -4q-7 -149 -37 -530q-25 -332 -29 -399z" />
<glyph horiz-adv-x="806" d="M809 1569q43 0 74.5 -31t31.5 -72q0 -51 -37 -86.5t-120 -64.5q-73 -28 -202.5 -98t-209.5 -132q-28 -81 -43 -292l229 141q39 22 76 22q43 0 74.5 -28.5t32.5 -69.5q1 -29 -11 -52.5t-24 -34t-33 -23.5q-9 -5 -31 -23l-2 -2q-132 -78 -317 -199q-19 -94 -23 -297 q2 2 7.5 5.5t7.5 5.5q32 25 164 133q34 30 51 43q12 8 16 12q39 35 82 35q40 0 76.5 -31.5t36.5 -69.5q1 -24 -18.5 -60.5t-49.5 -68.5q-108 -101 -245.5 -196.5t-211.5 -95.5q-68 0 -109 49.5t-42 134.5v45v2q49 661 90 1059q12 106 102 106q26 0 68 -10q146 94 302 169 t208 75z" />
<glyph horiz-adv-x="786" d="M150 -66q-51 0 -82.5 46.5t-28.5 115.5q15 407 86 1059q-41 8 -62.5 37t-17.5 72q3 32 35.5 66.5t103.5 82.5q133 92 229.5 144.5t221.5 87.5q110 30 184 24q58 -4 100 -45t42 -94v-2q-5 -41 -34.5 -69t-66.5 -25q-25 0 -67 18q-15 10 -25 10q-56 0 -178 -61.5 t-230 -145.5q-27 -133 -55 -424q0 -4 -1 -11t-1 -11q89 40 184.5 71t133.5 31q41 1 66.5 -26.5t19.5 -65.5q-3 -32 -26 -58.5t-60 -41.5q-200 -82 -340 -178q-21 -214 -21 -396q0 -6 8 -26q15 -45 15 -70q0 -46 -39 -80.5t-94 -34.5z" />
<glyph horiz-adv-x="978" d="M311 -45q-118 0 -190.5 94t-81.5 258q-6 461 260 850q119 170 230 264t198 97q69 2 108 -25t39 -78q0 -37 -20.5 -66.5t-54.5 -43.5q-48 -18 -76 -30t-59.5 -32.5t-49.5 -44.5q-333 -394 -354 -850q-4 -78 15 -126t51 -42q31 5 47 12t49 31q114 91 203.5 222t89.5 206v13 q-43 -22 -73 -57.5t-64 -92.5q-4 -6 -11 -20q-18 -36 -30 -54q-15 -21 -42 -34t-55 -13q-49 0 -76.5 31.5t-27.5 87.5q0 19 4 51l2 8q46 116 160 218.5t200 103.5l15 2q24 4 28 4q87 0 141 -63.5t54 -165.5q0 -146 -117 -333t-280 -304q-53 -35 -116.5 -56.5t-115.5 -21.5z " />
<glyph horiz-adv-x="927" d="M803 1645q64 0 89 -46.5t19 -144.5q-7 -57 -18 -165t-12 -120l-31 -282q-6 -49 -18.5 -148.5t-18.5 -148.5q-41 -323 -51 -420q-6 -18 -6 -43q-1 -6 -2 -18t-2 -17l-2 -6q-19 -49 -54 -79t-73 -30q-118 0 -103 148l60 518q2 16 2 49q-165 -73 -277 -170q-9 -6 -16 -61 q-14 -241 -17 -307q-3 -40 -9 -66.5t-18.5 -53t-35.5 -39.5t-57 -13q-54 0 -83.5 35.5t-29.5 101.5q22 565 86 995q9 78 43 121t88 43q46 0 73 -27t27 -71q0 -25 -2 -33q-45 -179 -49 -363l82 43q128 67 238 119q34 168 69 559l6 51q8 42 35 65.5t68 23.5z" />
<glyph horiz-adv-x="380" d="M131 -29q-43 0 -67.5 36.5t-24.5 96.5q0 25 4.5 88.5t13 179.5t13.5 185q34 402 34 496q0 63 5 94q8 82 44 118.5t97 24.5q46 -4 72 -47.5t20 -103.5q-30 -230 -50 -513t-20 -464q0 -102 -32.5 -146.5t-108.5 -44.5z" />
<glyph horiz-adv-x="892" d="M315 -207q-150 0 -237.5 116t-87.5 310q0 196 123 385q46 72 102 72q37 0 66.5 -26.5t29.5 -61.5q0 -39 -26 -84q-43 -82 -65.5 -148t-22.5 -135q0 -101 29 -164t75 -63q115 0 185.5 127.5t107.5 402.5q12 93 24 480q7 278 19 409q3 57 46.5 95.5t94.5 29.5 q29 -4 52.5 -35.5t23.5 -64.5q0 -21 -4 -45q-15 -75 -23 -165.5t-9 -149t-1 -165.5q0 -165 -2 -245q-28 -439 -151.5 -657t-348.5 -218z" />
<glyph horiz-adv-x="897" d="M1006 1458q0 -19 -17 -54t-39 -63q-97 -116 -241.5 -314t-235.5 -343q115 -161 236 -287q23 -22 38 -56.5t15 -66.5q0 -39 -25 -66.5t-61 -27.5q-30 0 -67 21.5t-64 54.5q-42 52 -76 86q-54 62 -78 92q-3 4 -14.5 21t-18.5 26l-24 37q-33 -33 -53 -67q-21 -112 -21 -291 q-4 -137 -12 -187q-18 -79 -103 -79q-55 3 -82.5 47t-21.5 114q18 242 57 621q12 168 41 428q3 33 10.5 101t10.5 104q11 85 35 122t73 37q45 0 72 -24.5t27 -65.5q0 -19 -7 -47q-4 -45 -16 -176q-28 -321 -29 -330l23 31q121 169 129 180q114 154 158 217l147 203 q28 43 65.5 70t69.5 26q39 -5 69 -32.5t30 -61.5z" />
<glyph horiz-adv-x="763" d="M190 6q-54 0 -91 31t-50 88q-10 44 -10 168q0 125 20 379q29 435 93 725q12 65 50 105t87 40q50 0 86.5 -31.5t36.5 -74.5t-35 -93q-21 -38 -23 -49q-64 -354 -82 -624q-14 -191 -14 -269q0 -71 4 -106l19 18q65 63 178 168l30 31q54 57 101 57q41 0 75.5 -32t34.5 -70 q0 -22 -23.5 -65.5t-49.5 -67.5q-143 -135 -213 -199q-14 -12 -39 -34.5t-39 -34.5q-30 -27 -70 -43.5t-76 -16.5z" />
<glyph horiz-adv-x="1075" d="M920 1597q34 0 57 -11.5t34.5 -25.5t17.5 -43.5t6.5 -47.5t0.5 -56q0 -19 -10 -90l-6 -63v-3q-28 -303 -42.5 -613t-14.5 -425q0 -34 4 -104q6 -56 6 -113v-14q0 -144 -119 -144q-34 0 -57.5 14.5t-35.5 41t-17.5 54t-8.5 64.5q-5 60 4 218q1 25 5 84t6 88q21 285 28 469 l-65 -187q-75 -232 -113 -430q-25 -119 -52.5 -163t-80.5 -44q-47 0 -71.5 27t-33.5 86l-6 57q-12 140 -12 142q-5 76 -47 378q-5 -29 -15.5 -82.5t-11.5 -60.5l-20 -117q-12 -74 -19 -188q-9 -134 -16 -193q-7 -52 -36.5 -80t-76.5 -28q-37 0 -61.5 15.5t-34.5 43.5t-13 50 t-3 53q0 62 8 98q2 18 15.5 117t17 125t16 113t19 124.5t20 113.5t25 126.5t27.5 117t34 128.5q19 76 56 116.5t89 40.5q61 0 104.5 -49.5t43.5 -118.5q0 -183 39 -471q80 265 135.5 424t120.5 289q12 20 24 47q16 27 23 38.5t24 29.5t38.5 25t50.5 7z" />
<glyph horiz-adv-x="913" d="M768 1526q57 0 84 -40t22 -114q-17 -225 -45 -518q-35 -406 -43 -518q-7 -57 -30 -152q-12 -51 -49.5 -80.5t-88.5 -29.5q-34 0 -62.5 18.5t-43.5 50.5l-201 377l-24 41q-4 -70 -4 -74q-23 -220 -23 -417l6 -35q10 -44 10 -66q0 -57 -30 -83.5t-94 -26.5q-47 1 -80 45 t-33 104q0 56 16 326q20 390 21 450q0 47 8 129l6 76q6 62 44 106t87 44q32 0 57.5 -20t32.5 -52q39 -112 116.5 -286.5t143.5 -291.5q0 4 1 11.5t1 11.5q18 155 19 190q12 203 35 463q15 215 16 226q0 25 6 43q9 43 41 67.5t78 24.5z" />
<glyph horiz-adv-x="968" d="M408 94q-73 0 -141.5 36.5t-121.5 102.5q-116 161 -104 379q30 449 389 826q64 61 137 61q75 0 131 -53q72 -64 123 -154q109 -186 109 -489q0 -249 -131 -455q-81 -126 -209 -203q-89 -51 -182 -51zM408 303q34 0 63 19q133 84 191 253q43 125 43 254q0 182 -84 361 q-3 8 -13.5 24.5t-13.5 22.5q-5 5 -14 23q-137 -111 -225.5 -308t-88.5 -393q0 -117 53 -205q31 -51 89 -51z" />
<glyph horiz-adv-x="866" d="M166 -29q-52 0 -88.5 36t-38.5 89q0 3 1 11t1 12l2 22q50 451 107 1084q-29 12 -42 42t-6 68q17 82 115 152.5t227 95.5q79 12 146 6q161 -25 227 -98.5t60 -224.5q-3 -101 -93 -236t-216 -249.5t-246 -176.5q-37 -245 -46 -475q-1 -26 -2.5 -43.5t-8 -41.5t-17.5 -38.5 t-32 -25t-50 -9.5zM332 860q109 66 206 183.5t107 224.5q5 47 -18.5 77.5t-69.5 36.5q-28 5 -65 -6t-57 -21t-58 -32q-2 -30 -17 -160q-4 -38 -10 -101.5t-10.5 -112.5t-7.5 -89z" />
<glyph horiz-adv-x="950" d="M756 41l10 -25q12 -24 12 -39q0 -47 -29 -77.5t-75 -30.5q-26 0 -41 6q-22 8 -38.5 23.5t-23 26t-14.5 28.5q-1 3 -4 8t-4 8l-2 2l-12 33q-72 -35 -148 -35q-102 0 -185 72t-126.5 194.5t-36.5 266.5q10 201 53.5 350t153.5 311q84 120 179.5 190t176.5 70 q62 0 95.5 -29.5t33.5 -84.5q174 -174 180 -539q-2 -154 -55.5 -323.5t-146.5 -290.5q2 -4 5 -12.5t5 -12.5zM272 449q6 -108 45 -189.5t82 -81.5q21 0 62 25l-37 102q-6 18 -6 33q0 34 21 62.5t53 37.5q18 6 34 6q49 0 76 -34q58 129 72 249q8 84 8 183q-1 120 -36 208 t-97 126q-144 -121 -215 -308t-62 -419z" />
<glyph horiz-adv-x="856" d="M141 -82q-48 0 -75 44t-27 114q8 231 37 584.5t47 515.5q-45 20 -45 63q3 62 70.5 115t175 83.5t227.5 30.5q155 -3 235 -79.5t80 -219.5q0 -45 -15 -89.5t-47.5 -93.5t-60 -84t-76.5 -93l-18 -21q-113 -135 -276 -274q0 -1 -1 -2t-1 -2l94 -39q260 -113 283 -125 q34 -17 54.5 -45.5t20.5 -58.5q-1 -47 -28.5 -75t-71.5 -28q-31 0 -78 15q-26 10 -86.5 33.5t-91.5 35.5q-160 65 -199 78q-4 -46 -4 -68q0 -15 1 -46t1 -46q4 -84 2 -118v-3q-15 -102 -127 -102zM317 768q99 90 200.5 203t121.5 166q0 2 1 5.5t1 4.5q8 21 8 39 q0 37 -29.5 53t-97.5 16q-92 0 -155 -38q-35 -275 -50 -449z" />
<glyph horiz-adv-x="854" d="M373 29q-106 0 -189 65q-57 46 -90 102.5t-53 143.5q-6 43 14 81.5t56 51.5q2 2 8 2q20 4 26 4q52 0 84 -43q31 -35 45 -88q11 -28 19 -43q13 -25 37 -42t43 -15q57 6 111.5 79t54.5 146q0 92 -95 172q-28 24 -155 107q-52 32 -78 51q-133 105 -133 239q0 64 35 129 q114 261 379 418q29 17 70.5 29t72.5 12q63 0 102.5 -27t59.5 -85q18 -41 18 -103q0 -42 -24 -69t-66 -33h-2q-77 -3 -105 63q-3 5 -18 35q-192 -136 -272 -315q-17 -35 -17 -54q0 -37 51 -73q42 -28 58 -37q151 -100 188 -135q76 -67 117 -155t41 -183q0 -119 -65 -221.5 t-183 -169.5q-67 -39 -145 -39z" />
<glyph horiz-adv-x="839" d="M324 -70q-47 1 -77 34.5t-32 84.5q-6 79 33 529l8 94q19 203 35 352l18 166q-10 -2 -30 -10q-4 -1 -25.5 -8t-30.5 -9q-7 -3 -37 -18q-56 -33 -102 -33q-41 0 -67.5 24t-26.5 60q0 71 97.5 129t332.5 131l88 31q267 92 358 92q43 0 75 -30t32 -70q0 -30 -15.5 -56 t-42.5 -41q-21 -11 -73 -16q-19 0 -43 -4q-161 -52 -269 -96q-64 -462 -77 -1053q-2 -16 2 -59q4 -32 4 -56q-2 -71 -41 -119.5t-94 -48.5z" />
<glyph horiz-adv-x="849" d="M240 -51q-106 0 -152 123q-49 134 -49 358q0 275 76 700q16 76 41 130q15 32 55.5 62t69.5 30q50 0 81.5 -42t16.5 -85q-121 -409 -121 -717q0 -81 3 -148.5t7 -98t6 -30.5q25 0 94 99.5t99 183.5q5 40 12 117.5t10 105.5q33 382 70 516q28 101 44 132q34 65 95 65 q47 0 80 -31.5t33 -77.5q0 -31 -23 -88q-20 -45 -26 -86q-34 -226 -57 -444q57 -28 57 -102q0 -19 -3.5 -40.5t-7 -37.5t-11.5 -41.5t-12 -36.5t-15 -38.5t-13 -33.5q0 -39 7 -104.5t16 -93.5q18 -56 18 -84q0 -41 -31 -70t-75 -29q-81 0 -127 146l-29 -37 q-83 -105 -108 -123q-64 -49 -131 -49z" />
<glyph horiz-adv-x="704" d="M705 1651q47 0 77.5 -28.5t30.5 -72.5q0 -35 -10 -55q-59 -136 -98.5 -278.5t-83.5 -346.5l-37 -155q-30 -131 -44 -197.5t-29 -182.5t-15 -218q0 -99 -33.5 -143.5t-112.5 -45.5q-45 -1 -78.5 18t-52.5 47t-32.5 71t-19 77t-11.5 79q-1 12 -2 18q-33 203 -45 387 q-1 9 -6 61.5t-6.5 66.5t-6 60.5t-7.5 66t-8.5 60t-11 65t-12.5 59.5t-15 64.5t-18 59.5q0 8 -2 12q0 6 -1 14t-1 11q0 67 66 90q15 6 35 6q18 0 33.5 -5t26.5 -10.5t22 -19t16.5 -21t13.5 -26.5t10.5 -25t9 -27.5t7.5 -23.5l2 -2q50 -201 80 -532q0 -3 1 -9.5t1 -9.5 q17 95 31 154q88 363 174 686q55 201 162 201z" />
<glyph horiz-adv-x="1060" d="M1063 1589q43 0 74.5 -28t31.5 -68q0 -34 -26 -78q-17 -29 -32 -58t-28 -65t-21.5 -59t-19.5 -68t-15 -61.5t-15.5 -69.5t-14.5 -65q-33 -151 -127 -650l-30 -159q-14 -99 -46 -142t-94 -43q-55 0 -74.5 35t-35.5 140q-22 150 -74 610v6q-49 -195 -67 -279 q-14 -63 -25 -170q-18 -139 -29 -190q-17 -68 -55.5 -110t-83.5 -42t-77.5 25.5t-41.5 67.5q-2 11 -5.5 32t-4.5 31l-76 844q-9 96 -12 190q0 77 29 118.5t84 41.5q49 0 78.5 -28t27.5 -74q0 -19 -2 -27v-25q0 -217 29 -501q32 120 104 409q23 99 23 101t12 59q4 27 7.5 43 t12 40.5t20.5 38t33.5 24t49.5 10.5q40 0 72.5 -24.5t44.5 -63.5q21 -53 24 -136q12 -171 41 -440l12 68q25 143 31 174q49 253 105 418q31 93 80 145.5t106 52.5z" />
<glyph horiz-adv-x="909" d="M803 1602q99 -9 90 -125q-2 -38 -45 -119q-76 -178 -266 -602q185 -700 180 -742q-5 -43 -37 -73t-70 -27q-106 9 -112 125q0 51 -51 246q-3 15 -11.5 46t-9.5 42q-3 14 -10 43t-10 43q-19 -37 -23 -49q-147 -335 -199 -465q-2 -3 -5.5 -15t-6.5 -18q-14 -52 -31 -74 q-15 -21 -43.5 -33t-58.5 -10q-47 4 -72 35.5t-20 79.5q3 38 39 127l334 737l-86 295q-8 32 -48 170q-19 67 -67 115q-20 13 -30 36t-7 48q4 46 44 74.5t93 23.5q22 -2 40.5 -12.5t30 -21.5t25 -35t18.5 -35t16 -38q3 -8 5 -12q40 -120 99 -317q8 21 34 80q127 273 154 373 l4 16q9 32 41.5 51.5t71.5 16.5z" />
<glyph horiz-adv-x="714" d="M115 -360q-39 0 -68 28t-29 66q0 41 45 184q8 25 30 94t36 115q11 36 90 287q18 56 92 288q-1 2 -92 142q-66 93 -113 172q-47 91 -47 133q0 37 29.5 63.5t69.5 26.5q27 0 50.5 -14.5t33 -27t26.5 -38.5q42 -63 105 -147q8 -9 22.5 -29t18.5 -25q22 57 110 310 q12 31 36.5 100.5t37.5 101.5q3 11 10 29q9 33 19 53q9 29 32 45.5t54 16.5q45 0 77.5 -24.5t32.5 -61.5q0 -38 -22 -119q-36 -105 -107 -289q-72 -187 -112 -305q-9 -28 -27 -80.5t-25 -75.5q-167 -508 -249 -804q-2 -4 -19 -88q0 -5 -1 -11t-1 -8l-2 -2 q-12 -49 -50.5 -77.5t-92.5 -28.5z" />
<glyph horiz-adv-x="940" d="M872 1452q46 0 74.5 -26.5t28.5 -69.5q0 -63 -43 -119q-51 -81 -160 -233q-116 -161 -162 -236q-75 -118 -167.5 -296.5t-135.5 -289.5q21 11 27 15q19 9 88 45q166 80 192 80q39 0 70 -30t31 -67q0 -32 -25 -57.5t-82 -58.5q-72 -40 -366 -203q-96 -49 -140 -49 q-54 0 -82.5 35t-19.5 88q9 96 53 188q49 100 142 275.5t143 261.5q170 281 297 466q-238 -64 -432 -159q-78 -29 -119 -29t-67.5 26t-26.5 66q0 45 55 82q136 81 553 215q97 31 162 55q64 25 112 25z" />
<glyph horiz-adv-x="774" d="M715 991q20 -30 20 -73q0 -7 -1 -14t-4 -14.5t-5 -13t-7.5 -13t-7.5 -11t-9 -11.5t-8.5 -9.5t-8.5 -9.5l-8 -9q-4 -2 -10 -8l-23 -209q-1 -16 -3 -50t-3 -50q-9 -88 -12 -174q0 -46 8 -136q4 -16 4 -28q0 -43 -30.5 -72t-74.5 -29q-67 0 -108 80q-48 -31 -73 -45 t-63 -27.5t-73 -13.5q-82 0 -141.5 57.5t-59.5 135.5q0 270 445 676q3 10 8 38q-81 -13 -176 -108q-28 -42 -45 -55t-51 -13q-41 0 -69 27t-28 68q0 20 11 46.5t26 43.5q79 93 199.5 155t222.5 62q71 0 111.5 -49.5t46.5 -143.5zM408 477q24 87 36 156q-135 -138 -198 -314 q-6 -27 -6 -28q0 -7 0.5 -7.5t5.5 -0.5q42 0 92.5 60t69.5 134z" />
<glyph horiz-adv-x="839" d="M268 1696q33 0 55.5 -10t34.5 -34t15 -35.5t8 -40.5q1 -2 1 -3t0.5 -3t0.5 -3l-31 -6v-5h31q0 -14 -12 -55v-6q-15 -113 -35 -365q-1 -12 -21 -241q122 61 222 61q117 0 190.5 -73t73.5 -189q0 -80 -25 -143q-120 -320 -424 -525q-77 -47 -151 -47t-116.5 36t-45.5 100 q0 57 8 104l27 260q-33 46 -33 98q0 63 41 113q13 49 20 98.5t8.5 81t4.5 101.5q1 28 5 95t5 87q4 45 7.5 126.5t4.5 94.5q3 142 15 217q11 50 43 80.5t73 30.5zM334 647q-34 -31 -39 -69q-6 -63 -13.5 -120t-7.5 -59q-11 -69 -24 -198q150 100 248 234t98 241 q0 29 -21.5 46t-58.5 17q-29 0 -87 -29t-95 -63z" />
<glyph horiz-adv-x="706" d="M508 340q47 9 81.5 -13.5t43.5 -66.5q9 -57 -50 -107.5t-149 -64.5q-90 -13 -181 27.5t-154 118.5t-76 169q-23 99 14 229t120 248.5t187 186.5q50 33 113 49h2q78 11 137.5 -22t69.5 -93q2 -8 2 -40q-4 -47 -18 -100.5t-29 -84.5q-17 -32 -51 -48.5t-68 -10.5l-4 2 q-76 25 -76 104q0 18 8 58q-96 -97 -155 -221t-42 -199q11 -69 54 -121t92 -55q31 0 78 28q31 20 51 27z" />
<glyph horiz-adv-x="872" d="M281 59q-113 0 -190 79t-77 194v20q0 245 149.5 424t401.5 234q8 206 53 454q10 58 54.5 99t97.5 41q36 0 58 -30t22 -75q0 -12 -3.5 -27.5t-6 -24t-10.5 -31t-9 -25.5q-16 -40 -18 -54q-17 -80 -31 -317q86 -34 86 -90q0 -30 -24.5 -65t-55.5 -50q-11 -218 -16 -270 q-10 -110 -10 -299q-2 -31 -2 -66q-12 -104 -99 -104q-45 0 -67 26.5t-31 85.5q-154 -129 -272 -129zM319 283q48 0 104.5 62t95 153.5t38.5 169.5q0 41 4 127q-140 -41 -228 -152t-97 -260q-3 -53 17 -76.5t66 -23.5z" />
<glyph horiz-adv-x="823" d="M379 66q-154 0 -237.5 81t-86.5 232q-41 33 -41 86q0 25 15.5 52t40.5 46q19 116 99 254t175 217q46 37 100 59.5t97 22.5q77 0 120.5 -47.5t43.5 -132.5q0 -92 -35 -185.5t-95 -162.5q-63 -79 -141 -121t-172 -70q9 -110 103 -110q83 0 141 21.5t125 78.5q23 21 34 29.5 t30 17t38 8.5q40 0 70.5 -30t30.5 -68q0 -27 -30 -72.5t-65 -74.5q-166 -131 -360 -131zM311 639q69 29 112.5 86t53.5 135q-57 -38 -100.5 -96.5t-65.5 -124.5z" />
<glyph horiz-adv-x="825" d="M956 1853q74 0 120 -44.5t46 -114.5q0 -43 -21.5 -74t-56.5 -37q-28 -4 -32 -4q-63 0 -94 66q-56 -20 -125 -86q-38 -37 -74.5 -87t-58.5 -88.5t-56 -101.5q-94 -203 -151 -485l65 37q97 55 154 73q123 44 164 -39q24 -43 0.5 -78.5t-91.5 -70.5q-67 -27 -172 -98 q-119 -74 -155 -91q-7 -84 -2 -346q4 -106 4 -147q0 -39 8 -117q11 -86 8 -149q0 -31 -27 -55t-69 -35q-4 0 -13.5 -1.5t-13.5 -1.5q-49 0 -76.5 52.5t-27.5 130.5q-4 117 -4 352q-2 74 -2 180q-4 -4 -6 -4q-49 -41 -86 -41q-39 0 -68 27t-29 63q0 32 21 67.5t55 61.5l45 39 q14 11 44 36.5t46 37.5q41 406 213 741q99 193 234 308q139 124 284 124z" />
<glyph horiz-adv-x="972" d="M254 -389q-89 0 -169 27.5t-132.5 76.5t-61.5 107v2q-10 138 76 287t248 274q34 28 45.5 49.5t7.5 48.5q-14 6 -41 9l-6 2q-67 28 -108 75t-45 103q-12 89 54.5 196.5t196.5 208.5q46 36 114 64t130 37l10 26q32 80 107 140.5t172 85.5q51 17 91 -7t40 -73 q0 -35 -24 -56.5t-103 -66.5q-102 -54 -96 -94q4 -28 33 -54q78 -72 90 -157q6 -76 -35 -148q-106 -193 -367 -274q-4 -8 -4 -25q52 -28 71 -49.5t34 -69.5q62 -7 112 -22q170 -47 185 -197q12 -135 -84 -254q-96 -118 -250.5 -195t-290.5 -77zM365 680q109 20 203 88 t96 127q-6 33 -38.5 59.5t-58.5 20.5l-2 -2q-86 -15 -135 -58l-2 -2q-61 -45 -101 -106t-42 -109q3 -24 80 -18zM240 -180q119 0 221.5 52.5t169.5 147.5q11 18 21 54t12 61q-8 17 -59 28.5t-113 8.5q-42 -3 -101 -27q-39 -22 -69 -24q-46 0 -78 22q-72 -68 -103.5 -131.5 t-31.5 -142.5q0 -18 40 -33.5t91 -15.5z" />
<glyph horiz-adv-x="755" d="M717 885q0 -60 -19 -115q-38 -148 -64 -325.5t-26 -294.5q0 -29 4 -87t4 -81q0 -49 -32.5 -83t-79.5 -34q-36 0 -59.5 16t-34.5 48.5t-15 67t-4 85.5q0 60 27.5 265.5t60.5 397.5q-20 -21 -63.5 -65.5t-61.5 -63.5q-61 -67 -61 -145q-3 -72 -21 -309q-2 -29 -4 -47 t-9 -44t-18.5 -41t-34 -26.5t-52.5 -11.5q-43 0 -77.5 37t-33.5 82v2q12 116 16 170q1 16 4.5 45.5t4.5 44.5q5 19 2 43q-31 31 -31 92q0 77 49 129q33 225 64 475q5 39 16 124.5t16 131.5q1 4 2 13.5t2 13.5q4 49 11 82q5 40 33 65t69 25t67.5 -28t26.5 -71q0 -81 -20 -249 q-1 -11 -4 -34t-4 -34l-19 -137q-5 -34 -14 -115l35 31q12 10 30 28q63 55 92 70q35 19 74 23q61 7 103 -27t47 -94q2 -14 2 -45z" />
<glyph horiz-adv-x="352" d="M217 1055q-44 0 -87 36t-52 80v5q-1 46 31.5 79t78.5 33q49 0 86 -30.5t39 -71.5q6 -56 -21.5 -93.5t-74.5 -37.5zM39 248q0 244 49 581q5 48 34 77.5t73 29.5q46 0 72.5 -27.5t25.5 -74.5q-29 -372 -29 -555q0 -71 -28 -111.5t-80 -40.5q-50 0 -83.5 34.5t-33.5 86.5z " />
<glyph horiz-adv-x="333" d="M184 1274q-58 -9 -100 41q-29 32 -29 63q0 21 15 47q18 33 53 52.5t80 19.5q35 0 60.5 -28t25.5 -66q0 -40 -34 -81.5t-71 -47.5zM-283 -440q-117 0 -204.5 91t-87.5 210q0 85 38 136.5t101 51.5q41 0 66.5 -24t25.5 -64q0 -13 -6 -43q-8 -28 -8 -51q0 -45 28 -86t58 -41 q34 0 94.5 55.5t101.5 124.5q111 173 137 524q13 236 13 336q0 58 -2 78v37q-8 98 23.5 160.5t92.5 62.5q43 0 65.5 -32t22.5 -89q0 -13 -1 -37t-1 -36q-4 -60 -2 -88q2 -29 2 -99q0 -115 -12 -268q-29 -372 -88 -512q-169 -397 -457 -397z" />
<glyph horiz-adv-x="737" d="M821 1176q2 -31 -24 -72l-37 -39q-135 -151 -250 -299q-119 -153 -182 -227l-2 -2q9 -5 94 -54q140 -81 223 -108q19 -4 41 -13q49 -21 55 -73q3 -43 -20 -72.5t-62 -30.5q-68 -3 -120 15q-40 18 -158 80l-49 28q-8 4 -23.5 13.5t-23.5 13.5l-25 16v-4q-9 -77 -20 -201 q0 -2 -1 -5.5t-1 -6.5q-1 -3 -2.5 -12t-2.5 -14q-9 -43 -34.5 -70t-63.5 -31q-47 -4 -78 21t-39 71q-2 8 -2 37q7 71 17 125q0 6 1 17t1 16q2 14 2 39q-8 27 -12 33q-9 18 -9 28q0 3 4 31v4l5 12q17 29 26 69.5t11 66t3 79.5q0 31 3 66q1 10 30 438q6 136 15 244 q3 42 26 102q6 31 32.5 50.5t61.5 21.5q37 5 70 -18.5t37 -59.5q0 -17 -4 -33q-27 -75 -31 -256q0 -40 -4 -98q-4 -82 -4 -123l-6 -166l286 351q40 44 68 63t59 25q40 3 89 -29q24 -34 30 -59z" />
<glyph horiz-adv-x="376" d="M160 61q-53 0 -87 33.5t-34 85.5q0 185 16 324q29 377 90 962q6 58 13 94t20.5 72t37 55.5t58.5 24.5h5q48 0 78 -25.5t30 -66.5q0 -29 -6 -47q-1 -4 -4 -11.5t-4 -11.5q-21 -44 -23 -67q-9 -97 -28 -283q-20 -203 -29.5 -311t-20.5 -287.5t-12 -329.5v-96 q0 -44 -31 -79.5t-69 -35.5z" />
<glyph horiz-adv-x="1021" d="M838 1026q50 -2 85 -38t35 -87q0 -28 -4 -74q0 -13 -1 -36t-1 -35q0 -98 -12 -310q-11 -264 -12 -307q7 -38 4 -69l-2 -9q-30 -100 -115 -100q-48 0 -73 35.5t-25 97.5q0 87 14 295q1 24 4 66.5t5 77.5t3 65l-10 -18q-96 -168 -155 -297q-11 -26 -19.5 -41t-22.5 -32 t-32.5 -24.5t-42.5 -7.5q-52 0 -68.5 44.5t-13.5 144.5v45q0 26 -1 89t-1 99v33q-34 -56 -47 -86q-20 -40 -23 -47q-19 -39 -27.5 -60t-16 -56.5t-7.5 -76.5q0 -53 -39 -94t-90 -41q-55 0 -71.5 37t-16.5 131q4 98 24 272q14 115 17 152q3 25 8 74t8 73v4q-7 60 31.5 102.5 t89.5 39.5h2q43 -6 65.5 -37.5t16.5 -77.5q0 -3 -4 -53q0 -5 -1 -15.5t-1 -15.5q9 18 18 33l2 2q81 125 146 125q47 0 78 -36t36 -95q3 -37 3 -164q6 10 26.5 43.5t30.5 52.5q11 19 43 75t49 85q17 28 47 40.5t64 6.5z" />
<glyph horiz-adv-x="710" d="M492 1026q92 7 136 -27t44 -114q0 -15 -19 -131q-8 -43 -12 -80q-24 -231 -27 -297v-82q0 -7 4 -35q5 -40 5 -55q2 -45 -25.5 -75.5t-71.5 -31.5q-52 -3 -87.5 38t-41.5 110q0 6 1 18t1 15q0 4 2 6q2 33 8.5 104t8.5 90q20 251 22 293q-70 -60 -112 -117t-56 -129 q-24 -109 -24 -256q0 -54 -26 -85t-70 -31q-61 0 -90 44t-23 124l49 571v49q-4 34 -2 51q0 45 25 75t67 34q42 2 72.5 -24t36.5 -68q6 -41 8 -80q124 96 197 96z" />
<glyph horiz-adv-x="751" d="M315 127q-116 0 -199 77.5t-98 198.5q-4 23 -4 70q0 72 25 152q78 227 237 374q56 56 138 82q12 6 45 6q66 0 117 -53t51 -121q0 -27 -4 -41q-2 -6 -2 -12q0 -27 16 -51q76 -121 76 -248q0 -92 -49 -199q-50 -107 -139 -167.5t-210 -67.5zM307 342q87 0 142 68.5 t57 177.5q0 78 -103 190l-30 19q-9 0 -31 -25q-89 -121 -115 -244q-12 -34 -12 -61q0 -31 16 -68v-2q10 -30 27.5 -42.5t48.5 -12.5z" />
<glyph horiz-adv-x="813" d="M774 895q6 -128 -92 -262l-2 -2q-87 -100 -191 -207q-62 -67 -133 -129q-61 -50 -67 -135q-7 -129 -21 -289l-12 -160q-2 -2 -2 -8q1 -47 -30 -79t-81 -38q-40 -3 -71 26.5t-33 70.5q-2 33 2 88q2 8 2 24q2 34 7.5 89.5t6.5 66.5l15 168v8q1 2 1 4q0 -2 1 -4l-2 14 q2 1 -4 11v2q-21 32 -21 61q0 45 27 88q14 18 18 51q33 224 33 428q0 38 -2 52q-7 17 -12 53v2q-3 87 94 133q51 23 86 36.5t87 25.5t101 12q54 0 111 -11q78 -17 127.5 -67.5t56.5 -122.5zM543 870q0 13 -2 17t-16 7t-46 1q-71 -3 -129 -31l-16 -289q140 129 190 234 q13 32 15 41q2 2 2 6q0 8 2 12v2z" />
<glyph horiz-adv-x="729" d="M637 186q37 0 67.5 -24.5t34.5 -59.5q0 -29 -11 -54t-40 -62q-126 -156 -182 -334q-25 -92 -117 -92q-37 0 -65 29.5t-31 70.5v2q0 102 16 236.5t58 408.5q-43 -22 -71.5 -29.5t-66.5 -7.5q-94 0 -154.5 70.5t-60.5 179.5q0 164 119 322.5t311 249.5q77 41 154 41 q43 0 69.5 -24.5t26.5 -64.5q0 -15 -6 -30q-4 -12 -4 -17q-10 -10 -4 -39q2 -10 2 -22q0 -42 -27 -72q-21 -18 -24 -92q-15 -134 -51 -375q-4 -28 -17.5 -121t-19.5 -141q48 51 94 51zM246 483q35 0 81.5 62.5t77.5 149t25 147.5q-91 -47 -142.5 -132t-51.5 -186q0 -9 2 -19 t4.5 -16t3.5 -6z" />
<glyph horiz-adv-x="751" d="M836 1126q3 -53 -56 -96q-59 -42 -114 -90.5t-113.5 -114t-91.5 -105.5t-99 -122l-4 -4q-49 -45 -79.5 -130.5t-30.5 -172.5v-96q2 -33 2 -97q0 -56 -24.5 -90t-67.5 -35q-57 -3 -81.5 30.5t-35.5 119.5q-2 29 -2 94q0 168 20 336.5t58 392.5q2 39 30.5 72t67.5 39h4 q43 0 66.5 -24t23.5 -68q0 -28 -4 -86q-1 -5 -2 -16t-2 -17q112 132 221 237q72 72 154 111q53 35 105.5 8.5t54.5 -76.5z" />
<glyph horiz-adv-x="800" d="M315 -18q-135 0 -230 77t-95 185q0 41 30.5 69.5t73.5 28.5q54 0 99 -51q13 -26 16 -33q12 -24 19.5 -34t32 -20.5t63.5 -10.5q52 0 76 29t24 91q0 19 -12 42.5t-23 37t-37 43.5q-19 22 -47.5 52t-34.5 36q-38 39 -55 59t-34.5 54.5t-26.5 77.5q-4 32 -4 49q0 75 45 158 q65 106 157 175.5t191 86.5h2q85 9 145 -31q121 -71 121 -217q0 -35 -28.5 -60.5t-65.5 -25.5q-24 0 -42 5.5t-31 20t-19 23t-17 31.5t-14 28q-11 28 -29 25h-4q-45 0 -112 -78t-66 -133q1 -44 19 -70t71 -75l53 -49q103 -109 127 -222q2 -18 2 -49q0 -136 -98.5 -230.5 t-241.5 -94.5z" />
<glyph horiz-adv-x="843" d="M834 1225q40 0 67 -26t27 -66q0 -49 -50 -91.5t-130 -62.5q-116 -35 -291 -139q-56 -295 -56 -551q0 -94 7 -129q17 10 43 39q35 53 100 53q38 0 66 -27.5t28 -64.5q0 -73 -86 -147t-170 -74q-61 0 -107.5 31t-68.5 87q-25 71 -25 240q0 147 29 377l6 35 q-77 -43 -117 -43q-41 0 -66.5 27t-25.5 67q0 42 39.5 80.5t143.5 101.5q17 9 46 27.5t33 21.5q32 173 99 422q18 71 22 90q17 74 57 118t91 44q40 0 65 -25t25 -63q0 -19 -21 -74q-54 -140 -108 -401q31 12 147 63q137 60 181 60z" />
<glyph horiz-adv-x="751" d="M563 53q-68 -3 -106 58l-6 10q-19 52 -21 61v17q-6 -2 -25 -9t-30 -10q-102 -39 -152 -41q-86 -4 -134 49t-50 154q-2 74 20 274l7 60q4 39 11.5 79t12 58t17.5 60t14 45q8 38 39 73q29 37 80 37q39 3 77 -27q30 -21 33 -59q4 -22 -20 -72q-27 -36 -31 -45 q-62 -302 -47 -463q106 9 166 72q13 17 16 66l47 379q1 5 13 55l6 22q17 42 41 66q40 35 71 35q13 0 21 -2q35 -6 57.5 -30.5t22.5 -55.5q0 -13 -8 -33q-21 -72 -34 -172.5t-16.5 -157.5t-9.5 -182q0 -43 -4 -117q0 -20 8 -74q8 -50 8 -77q-3 -65 -57 -93q-17 -10 -37 -10z " />
<glyph horiz-adv-x="749" d="M762 1225q54 -28 47 -99q-1 -2 -4 -14l-6 -22q-19 -40 -36 -80.5t-29.5 -71t-28 -77t-23 -68t-23.5 -76.5t-20.5 -71t-22.5 -82t-22 -81q-44 -165 -70 -264l-24 -90q-14 -55 -51 -127q-39 -77 -111 -80q-57 -3 -95.5 24.5t-45.5 78.5q-19 74 -37 178q-5 29 -15 67 q-21 137 -57 340q-2 9 -27 92l-12 37q-8 19 -8 35l-2 8q-6 62 57 88q18 9 35 9q32 1 60 -17t42 -49q33 -76 66 -197q25 -116 37 -194q1 -7 4 -21.5t4 -21.5q28 103 68 231q9 30 94 318q18 68 74 200q13 32 55 74q33 37 70 37q26 3 57 -14zM326 307h-2v-4q0 2 2 4z" />
<glyph horiz-adv-x="972" d="M920 1212q60 -28 63 -82q0 -31 -8 -47q-28 -102 -55 -231.5t-38.5 -194.5t-39.5 -233l-27 -162q-4 -35 -20 -92l-4 -16q-9 -44 -41 -73.5t-78 -35.5h-2q-43 -2 -76.5 17.5t-50.5 56.5q-57 120 -70 178q-14 45 -29 115q-8 31 -14 65l-84 -260l-16 -49q-47 -95 -125 -86 q-71 9 -101 94l-2 2q-34 134 -53 318q-17 184 -2 403q0 31 16 74q12 28 37.5 45.5t53.5 17.5q41 3 73 -22.5t35 -65.5q0 -25 -4 -33q-24 -90 -12 -204l10 -84l61 176q9 29 29 71q28 60 103 70q46 3 79.5 -19t46.5 -65q1 -10 6.5 -29t6.5 -24q2 -8 7 -26t7 -29l37 -213l6 30 q24 108 57 273l46 229q8 32 22 64q12 36 39 58.5t63 25.5q24 3 48 -7z" />
<glyph horiz-adv-x="733" d="M815 1212q3 -6 1.5 -23.5t-5.5 -27.5q-5 -24 -23 -47l-4 -4v-4q-12 -14 -24 -30.5t-21.5 -29t-22.5 -33t-20 -31t-21 -35t-18.5 -32.5t-20 -36.5t-18.5 -34.5t-20.5 -39t-19.5 -37q-82 -156 -123 -225q-13 -29 -13 -47q3 -20 11 -33q36 -55 82 -141l51 -93 q8 -20 16.5 -46t9.5 -27v-6q3 -31 -14 -53.5t-57 -43.5q-5 0 -9 -2q-18 -6 -22 -6h2q-40 -4 -85.5 57t-113.5 195l-12 -21l-166 -354q-29 -59 -86 -65q-23 -3 -41 4q-28 9 -47 31t-20 49q0 25 6 41q1 6 24 71q9 19 11 25q63 132 196 387q13 32 10 55q0 3 -1 8.5t-1 8.5 q-1 2 -2 6.5t-2 7.5q-88 238 -112 309q-7 21 -7 31q0 2 -1 5t-1 5v2q-2 45 21.5 73.5t64.5 31.5q35 6 64.5 -13.5t38.5 -54.5q17 -34 47 -123l20 -63q3 -14 9 -25l8 12q40 66 100 183q68 127 84 155q61 98 90 131q16 25 37 43l6 9l11 6q4 0 8 4q28 12 45 12q33 3 63 -18 q28 -18 37 -54z" />
<glyph horiz-adv-x="849" d="M809 1036q2 -260 -125 -721q-97 -366 -235.5 -558.5t-311.5 -196.5q-80 -2 -135.5 56t-56.5 144q-5 80 24.5 131t83.5 52q45 2 74 -22.5t29 -65.5q1 -23 3.5 -45t3 -27t-0.5 -14q18 9 41 27.5t35 33.5q94 124 145.5 236t83.5 241q-85 -50 -188 -53q-83 -2 -141 47 t-83 143q-13 79 -16 129q-3 118 35 273q8 42 41.5 73.5t72.5 32.5q39 0 69.5 -25.5t31.5 -62.5q0 -22 -8 -41q-34 -93 -31 -211q0 -73 10.5 -113t28.5 -40q55 0 146.5 89t117.5 169q39 123 55 313q9 100 105 100q43 2 69.5 -24t26.5 -70z" />
<glyph horiz-adv-x="800" d="M836 1022q0 -8 -2 -16.5t-4.5 -15.5t-8 -17t-8.5 -15.5t-11 -16t-10 -13.5t-10.5 -13.5t-9.5 -11.5q-213 -279 -438 -631q68 37 158 88q4 1 14 6t16 7q51 22 76 22q37 0 63.5 -25.5t26.5 -60.5q0 -34 -22.5 -58.5t-75.5 -55.5l-471 -281q-5 -3 -19 -8q-30 -17 -59 -17 q-40 0 -70 27.5t-30 65.5q0 33 28 75q1 3 2.5 5.5t3 5.5t2.5 4q183 308 525 798l-10 -12q-66 -23 -293 -113q-27 -8 -52 -8q-35 0 -60.5 26t-25.5 60q0 27 24.5 56.5t57.5 44.5q79 30 101 37q222 86 420 153q23 10 59 10q47 0 80 -29.5t33 -72.5z" />
<glyph horiz-adv-x="706" d="M217 506q-60 5 -84.5 37t-17.5 98q7 62 78 301q10 40 20 70q88 332 240 653q45 95 116 92q46 -2 73 -30t26 -72q0 -19 -21 -43q-7 -14 -8 -15q-121 -329 -197 -559q-91 -286 -96 -362q-6 -82 -40 -126.5t-89 -43.5zM98 -16q-49 0 -81.5 35t-24.5 79q9 68 66.5 128.5 t115.5 60.5q46 0 79.5 -34.5t33.5 -80.5q0 -58 -66 -123t-123 -65z" />
<glyph horiz-adv-x="1032" d="M811 1642q90 0 148.5 -46.5t58.5 -118.5q0 -53 -28 -99.5t-91 -120.5q-25 -27 -70 -83q-77 -99 -342 -457q52 -27 52 -82q0 -52 -73 -107t-138 -55q-49 0 -81 33t-32 84q0 95 74 207q168 233 403 532q13 18 56 68q29 35 32 39l-16 2q-282 -35 -453 -211q-73 -79 -73 -142 l2 -10q8 -24 8 -57q0 -36 -30 -60t-73 -24q-51 0 -78.5 45t-27.5 119q0 58 44 140t112 151q120 116 287.5 184.5t328.5 68.5zM350 309q41 0 72 -30.5t31 -71.5q0 -60 -47 -113t-101 -53q-51 0 -92 37.5t-41 83.5q0 51 59 99t119 48z" />
<glyph horiz-adv-x="569" d="M530 717v-4q4 -44 -17 -74t-64 -41q-54 -14 -164 -31l-4 31h-2l4 -29q-79 -12 -131 -14q-47 0 -78 23t-35 63q-4 41 19.5 70.5t68.5 40.5q203 37 270 43q52 6 88 -15.5t45 -62.5z" />
</font>
</defs>
</svg>
