<?xml version="1.0" standalone="no"?>
<!DOCTYPE svg PUBLIC "-//W3C//DTD SVG 1.1//EN" "http://www.w3.org/Graphics/SVG/1.1/DTD/svg11.dtd" >
<svg xmlns="http://www.w3.org/2000/svg" xmlns:xlink="http://www.w3.org/1999/xlink" version="1.1">
<metadata></metadata>
<defs>
<font id="ccchillsregular" horiz-adv-x="1089" >
<font-face units-per-em="2048" ascent="1638" descent="-410" />
<missing-glyph horiz-adv-x="512" />
<glyph horiz-adv-x="0" />
<glyph horiz-adv-x="682" />
<glyph unicode=" "  horiz-adv-x="512" />
<glyph unicode="&#x09;" horiz-adv-x="512" />
<glyph unicode="&#xa0;" horiz-adv-x="512" />
<glyph unicode="!" horiz-adv-x="614" d="M389 119q0 -17 -16 -37q-10 -13 -19.5 -33t-15.5 -30.5t-22 -18.5t-42 -8q-12 0 -34 5t-35 5q-19 0 -44 -17.5t-40 -17.5q-33 0 -62.5 42t-29.5 77q0 13 8 41q6 19 7 44.5t7.5 43t30.5 37.5q40 35 61 35q9 0 27 -4t27 -4q15 0 45 8t45 8q21 0 30 -22t13.5 -53.5 t11.5 -41.5q2 -3 24.5 -22.5t22.5 -36.5zM590 1583q0 -45 -30 -109.5t-30 -97.5q0 -14 6.5 -43t6.5 -43q0 -30 -13.5 -57t-29.5 -43.5t-29.5 -38t-13.5 -41.5t9 -57t9 -56q0 -27 -24.5 -59.5t-49 -69t-24.5 -71.5q0 -15 9 -45t9 -45q0 -29 -10 -48.5t-21.5 -28t-21.5 -27 t-10 -46.5q0 -21 11 -63t11 -64q0 -16 -4 -24q-30 -19 -53 -19q-15 0 -40 10.5t-38 10.5q-10 0 -31.5 -3.5t-31.5 -3.5q-30 0 -56 13q-4 28 -4 45q0 34 23.5 96t23.5 96q0 23 -10 70t-10 70q0 47 26.5 114t26.5 92q0 34 -22.5 97t-22.5 98q0 41 22.5 120t22.5 120 q0 14 -4 42t-4 42q0 55 39 94q49 0 97.5 -27t74.5 -27q22 0 50.5 23t49.5 23q80 0 111 -19z" />
<glyph unicode="&#x22;" horiz-adv-x="923" d="M451 1268q0 -32 -31.5 -67.5t-36.5 -57.5q-5 -20 -5.5 -58t-6.5 -68.5t-27 -51.5h-4q-8 0 -36 15t-68 15q-14 0 -30.5 -11t-23.5 -11q-6 0 -17.5 9t-25 22.5t-16.5 15.5q-2 4 -2 10q0 15 17.5 42t17.5 46q0 16 -11.5 37t-11.5 27q0 17 12.5 53.5t12.5 56.5q0 47 -22.5 86 t-22.5 64q0 64 20 100q24 -6 27 -6q19 0 38 23.5t46 23.5q14 0 41 -6t41 -6q35 0 75 28q35 -30 35 -90q0 -17 -4 -49t-4 -49q0 -25 11.5 -72t11.5 -71zM862 1540q0 -24 -15.5 -66t-17.5 -63q-3 -30 -30 -83t-27 -85q0 -19 9.5 -58t9.5 -59q0 -24 -29.5 -79.5t-26.5 -67.5 q-6 -1 -33 -7.5t-43 -6.5q-17 0 -27 10.5t-14 23t-17.5 23t-37.5 10.5q-6 0 -18.5 -2t-18.5 -2q-2 6 -2 16q0 16 12.5 45t12.5 44q0 13 -10.5 35.5t-10.5 31.5q0 7 10.5 29.5t10.5 40.5q0 20 -8.5 56t-8.5 56q0 16 9.5 44t9.5 44q0 13 -8 38t-8 40q0 20 8 33q15 6 28 6 q15 0 45 -7t46 -7q27 0 59 17.5t51 17.5q32 0 80 -27q10 -15 10 -41z" />
<glyph unicode="#" horiz-adv-x="1130" d="M625 801q0 8 -4 20q-18 -6 -39 -6q-10 0 -32 3t-32 3q-6 0 -22 -4q1 -7 5.5 -25t4.5 -28q0 -24 -9.5 -73t-9.5 -73q25 5 29 5q10 0 29.5 -3.5t29.5 -3.5q17 0 39 11q4 16 4 24q0 13 -9 36t-9 36q0 16 12.5 40.5t12.5 37.5zM1049 983q0 -17 -11.5 -48.5t-11.5 -49.5 q0 -22 8 -62q-6 -3 -20 -12t-24.5 -13.5t-22.5 -4.5q-10 0 -31 11t-39 11q-23 0 -41 -12q12 -24 12 -51q0 -18 -9 -52t-9 -51v-12q12 0 31 -9.5t26 -9.5q11 0 26.5 14.5t27.5 14.5q11 0 22 -4t24.5 -11.5t20.5 -10.5q-4 -28 -4 -41q0 -16 10 -47t10 -48q0 -13 -9 -37t-9 -38 q0 -22 8 -62q-7 -3 -20.5 -12.5t-24 -14t-22.5 -4.5q-11 0 -34.5 13.5t-43.5 13.5t-41 -6q-6 -18 -6 -39q0 -19 11 -56t11 -57q0 -24 -6 -45q-6 -6 -13 -7.5t-17.5 0t-14.5 1.5q-10 0 -28.5 -9t-28.5 -9q-16 0 -42 15t-42 15q-9 0 -27.5 -5t-28.5 -5v19q0 21 -9.5 56 t-10.5 42q-4 29 0 88q-19 16 -43 16q-9 0 -29.5 -5.5t-31.5 -4.5v-2q0 -28 8 -83.5t8 -82.5q0 -19 -6 -37q-10 -10 -25 -10t-41 11.5t-41 11.5q-11 0 -31 -15.5t-38 -15.5q-28 0 -80 27q2 8 2 26q0 16 -6.5 69t-1.5 81q-3 0 -8.5 2t-8.5 2q-5 0 -17 -8.5t-20 -8.5 q-11 0 -22 4t-24.5 12t-20.5 11q4 24 4 37q0 11 -12.5 28t-12.5 48q0 17 11.5 48t11.5 48q0 21 -8 61q7 3 20.5 12.5t24 14t22.5 4.5q8 0 18 -5t15 -5q6 0 19.5 3.5t21.5 2.5q0 2 -1 7t-1 7q0 21 10 62t10 61q0 9 -4 29q-6 0 -17.5 3t-17.5 3q-10 0 -23.5 -10t-23.5 -10 q-11 0 -22 4t-24.5 11.5t-20.5 10.5q1 5 2.5 14.5t2.5 17.5t1 15q0 14 -8 42.5t-8 43.5q0 12 7 35t7 35q0 29 -10 67q7 3 20.5 12.5t24 14t22.5 4.5q9 0 24.5 -7t24.5 -7q15 0 21 2q8 16 8 39q0 19 -11 46t-11 38q0 13 9 36t9 35q0 20 -12 48q6 6 14.5 7t21 -1t17.5 -2 q10 0 28.5 8t28.5 8q14 0 38.5 -12.5t33.5 -12.5q12 0 29 11.5t28 11.5q9 0 25 -8q-4 -28 -4 -41q0 -17 8 -47t8 -47q0 -53 -14 -125q20 8 35 8q11 0 27 -7t24 -7q2 0 6 1t6 1q16 54 16 82q0 22 -10 65t-10 64q0 18 6 36q11 11 25 11q15 0 41 -11.5t41 -11.5q11 0 31 15.5 t38 15.5q28 0 80 -27q-4 -28 -4 -43q0 -20 6 -58t6 -58q0 -24 -6 -48q4 -3 14.5 -10.5t19 -12.5t15.5 -5q10 0 25 12t25 12q11 0 22 -4t24.5 -11.5t20.5 -10.5q-4 -24 -4 -37q0 -11 12.5 -28t12.5 -48z" />
<glyph unicode="$" horiz-adv-x="923" d="M901 1145q-49 -42 -65 -47.5t-82 -5.5q-15 0 -28 -3.5t-20 -8t-20.5 -13.5t-21.5 -14q-16 4 -22.5 16.5t-5.5 26t-4.5 27t-19.5 18.5q-14 6 -24.5 17t-16 19.5t-18.5 15.5t-35 7q-20 0 -71.5 -48.5t-51.5 -68.5q0 -9 9.5 -29t9.5 -34q0 -21 2 -30.5t11.5 -17t29.5 -7.5 q29 0 68 -22.5t59 -22.5q12 0 34 6t35 6q25 0 42 -18t28.5 -40.5t19.5 -27.5q7 -4 44.5 -12t46.5 -31q3 -9 6 -37t14 -43q27 -31 27 -59q0 -16 -13.5 -43t-13.5 -43q0 -12 21.5 -40.5t21.5 -50.5q0 -27 -30.5 -59.5t-30.5 -44.5q0 -6 1 -18.5t1 -18.5q0 -39 -14 -51t-43 -14 t-44 -11q-8 -4 -10 -15.5t-1.5 -22.5t-9 -23.5t-30.5 -20.5q-32 -13 -65 -10q0 -18 -5.5 -51t-5.5 -51q29 -33 29 -68q0 -8 -4 -20q-15 -11 -29 -11q-18 0 -49 12.5t-49 12.5q-16 0 -42 -16.5t-56 -16.5q-26 0 -74 21q14 55 14 145q0 24 -9 29.5t-36 5.5q-26 0 -41 10.5 t-30 30t-29 29.5q-15 11 -24 22.5t-11.5 19.5t-7 24t-8.5 28q-6 15 -20.5 27t-27.5 19t-23.5 22.5t-10.5 37.5v21q24 2 46.5 24t35.5 23q40 3 64 13.5t32 22.5t26.5 25.5t47.5 20.5q9 -10 17 -16t10.5 -6t5.5 -6t4 -11.5t4 -26.5q4 -26 21.5 -41.5t19.5 -25.5q0 -1 1 -5 l1.5 -6t1 -6t2 -6.5l3 -5t4 -3.5t5.5 -1q7 0 19.5 4t19.5 4q9 0 27.5 -6t27.5 -6q23 0 42.5 21.5t19.5 43.5q0 8 -5.5 23.5t-5.5 23.5q0 9 7.5 27t7.5 27q0 26 -13.5 35.5t-34 16.5t-30.5 21q-24 37 -62 37q-10 0 -30.5 -4t-30.5 -4q-15 0 -37 21t-37 26q-24 8 -36 19.5 t-24 30t-24 30.5q-11 11 -28.5 16.5t-32 7t-26 10t-13.5 25.5q0 3 -1 10.5t-1 10.5q0 10 4 28.5t4 28.5q0 18 -18.5 38t-18.5 36q0 18 18.5 48t18.5 48q0 14 -7 39t-7 39q0 18 10 31t32 28.5t27 20.5q17 17 24.5 46t10.5 50.5t29.5 39t81.5 20.5q2 6 2 20q0 20 -10.5 58 t-10.5 57q0 11 4 31q8 7 19 8t26.5 -1.5t22.5 -2.5q13 0 34 8t34 8q19 0 52 -15.5t52 -15.5q11 0 33 5.5t33 5.5q4 -24 4 -39t-6.5 -46t-6.5 -47q0 -6 4 -22q16 0 37 -6.5t35.5 -13.5t39 -20t32.5 -17q23 -11 32.5 -47.5t18.5 -47.5q3 -4 38.5 -31t35.5 -46q0 -16 14 -74z " />
<glyph unicode="%" horiz-adv-x="1519" d="M1241 383q0 43 -29.5 89t-70.5 46q-17 0 -57 -66.5t-40 -86.5q0 -1 8 -12t16.5 -24t10.5 -20q1 -2 3 -12t3.5 -15t4 -14.5t6 -15t8 -11.5t10 -9t12.5 -3h58q12 0 22 31q2 10 4 21l3 16.5t5 14.5t11 22q12 21 12 49zM446 1225q0 41 -29 85t-67 44q-16 0 -54 -64.5 t-38 -83.5q0 -1 7.5 -10.5t15.5 -22.5t10 -20q1 -2 3.5 -13.5t4 -17t5.5 -15.5t8 -15.5t10.5 -10t13.5 -4.5h55q15 0 21 29q4 12 5.5 25t4.5 22t12 25q12 21 12 47zM1458 350q0 -15 -15.5 -39t-17.5 -28q-8 -22 -8.5 -66.5t-7.5 -64.5q-22 -57 -81 -126t-109 -69 q-15 0 -45 8t-46 8q-14 0 -39 -8t-38 -8q-46 0 -75 46.5t-34 98.5q-48 25 -64 66.5t-16 105.5q0 24 -11 67.5t-11 64.5q0 30 23 73.5t28 63.5q1 8 5 33.5t6.5 39t11 31.5t20.5 29q106 106 135 106q14 0 35.5 -11t40.5 -9q30 -10 39 -10q8 0 21.5 7t21.5 7q31 0 54.5 -14 t35 -31.5t25 -35.5t24.5 -23q50 -22 66 -58.5t16 -99.5q0 -9 -7 -27t-7 -28q0 -18 12 -50.5t12 -48.5zM1315 1563q0 -19 -35.5 -55t-38.5 -40q-12 -18 -16.5 -62t-24.5 -65q-10 -11 -17 -20.5t-11.5 -16t-8 -17.5t-5.5 -17t-5.5 -21t-5.5 -24q-8 -33 -39 -56t-41 -41 q-6 -11 -20.5 -53t-36.5 -65q-72 -77 -88 -125q-26 -84 -31 -119q-6 -44 -20 -66.5t-34.5 -43.5t-33.5 -50q-13 -28 -23 -92.5t-26 -95.5q-8 -17 -36.5 -49t-35.5 -52q-9 -24 -15.5 -74.5t-15.5 -74.5q-35 -93 -90 -148q-21 -6 -45 -6q-12 0 -38 4.5t-38 4.5 q-24 0 -67 -17.5t-66 -17.5q-16 0 -30.5 4.5t-38 16.5t-27.5 14q0 17 7 30.5t21 30.5t19 25q14 22 16 63.5t23 63.5q10 11 17 20.5t11.5 16t8 17.5t5.5 17t5.5 21t5.5 24q8 34 40.5 67.5t41.5 51.5q9 17 15 61t28 68q4 4 18 19.5t22 25t19 24t17.5 27t9.5 23.5q4 13 5 27.5 t0.5 32.5t0.5 28q2 34 15.5 58t31 36t34.5 23.5t28.5 29.5t11.5 45q0 7 -4 21.5t-4 21.5q0 13 3.5 26t7 21.5t13.5 21.5t14 18t17.5 20t16.5 18q33 35 50.5 75t24 76.5t15 73.5t31 80t63.5 84q24 7 45 7q13 0 38 -4.5t38 -4.5q27 0 75 17.5t74 17.5q55 0 109 -26zM653 1192 q0 -13 -15 -36t-17 -28q-7 -20 -7.5 -62t-7.5 -62q-18 -53 -76 -120t-104 -67q-16 0 -44 8.5t-44 8.5q-12 0 -37 -8.5t-37 -8.5q-45 0 -71.5 43.5t-32.5 93.5q-47 25 -62.5 65t-15.5 101q0 23 -10.5 64t-10.5 61q0 29 23 71t27 62q2 8 5 31t6 36.5t10.5 31t19.5 28.5 q4 4 25.5 24t38.5 35t36.5 28.5t28.5 13.5q14 0 35 -10.5t38 -8.5q20 -10 37 -10q8 0 20.5 7t20.5 7q29 0 52 -13.5t34 -30.5t23.5 -34t23.5 -22q47 -22 62.5 -56.5t15.5 -93.5q0 -10 -7 -27.5t-7 -27.5q0 -16 12 -47t12 -47z" />
<glyph unicode="&#x26;" horiz-adv-x="1150" d="M582 444q-1 20 -11 32t-29.5 23t-27.5 19q-10 9 -22.5 48t-30.5 52q-7 -3 -23 -17.5t-35 -14.5q-10 0 -17 -1.5t-11.5 -6.5t-7.5 -8t-4 -12.5t-1 -12v-15v-14.5q0 -15 -9 -40.5t-9 -39.5q0 -23 50 -84t71 -61q27 0 41 14t26 33t29 27q17 7 17 22q0 6 -2.5 17.5t-2.5 17.5 q0 13 9 22zM592 1190q0 8 -8 24q-5 7 -12.5 33t-26.5 35q-37 21 -51 21t-50 -38t-36 -53q0 -11 5 -34.5t5 -36.5q0 -6 1 -9.5t2 -5.5t4.5 -3t4.5 -1h6.5h7.5q11 0 15 -7t3.5 -16.5t4.5 -21.5t18 -20q18 11 29 37t31 36q47 25 47 60zM1141 18v-6q-33 -12 -94 -12q-2 0 -13 -7 t-31 -13.5t-42 -6.5q-15 0 -42 3.5t-42 3.5q-21 0 -35 -11q-20 10 -26 46.5t-13 47.5q-4 6 -22 27.5t-25 34.5q-16 -10 -23 -36t-22 -36q-9 -5 -41 -29t-60.5 -42.5t-38.5 -18.5q-15 0 -42 10.5t-42 10.5q-6 0 -17 -3.5t-17 -3.5q-18 0 -54.5 17.5t-58.5 17.5q-9 0 -26.5 -1 t-26.5 -1q-49 0 -86 47q-16 19 -37 66t-39 67q-3 3 -16.5 17t-21.5 23t-18.5 22.5t-16 25.5t-5.5 21q0 12 15.5 43t15.5 51q0 21 -18.5 58t-18.5 57t18.5 44t18.5 40q0 9 -4 26.5t-4 26.5q0 4 1 12.5t1 12.5q3 28 20.5 43.5t43.5 29t38 29.5q10 12 23 38t27 43.5t36 23.5 q-3 34 -21 56.5t-37.5 31.5t-36.5 24t-20 35v55q0 19 -18 40.5t-18 37.5q0 17 16 46t16 46t-13 42t-13 34q0 13 11.5 28.5t32 35t23.5 22.5q16 16 36 53t34 52q10 12 20 19.5t17.5 11.5t20 5.5t18.5 2t23.5 0t25.5 -0.5q23 0 56 25t52 25q34 0 74.5 -10t63.5 -27 q30 -23 65 -24t47 -7q21 -10 36 -49.5t22 -48.5q3 -4 34 -31.5t31 -46.5q0 -18 2 -53t2 -52q0 -27 -22.5 -63.5t-22.5 -61.5q0 -7 1 -20t1 -20q0 -35 -20 -61t-56 -54q-10 -8 -21.5 -41t-23.5 -45q-4 -4 -26.5 -17t-26.5 -28q10 -6 10 -25q0 -25 6.5 -35t15.5 -10t18 -0.5 t15.5 -12.5t6.5 -40q0 -11 18 -16q35 21 35 57q0 7 -3 20.5t-3 20.5q0 15 18 51q29 16 62 16q34 0 62 -16t40 -20q15 -5 50.5 -7t52.5 -8q-1 -41 -10 -62.5t-25 -42.5t-25 -46q-4 -13 -7 -38t-7 -38q-6 -19 -27.5 -48t-27.5 -44q-5 -12 -8 -47t-23 -56q4 -18 14 -28.5 t21.5 -16t22.5 -13.5t18.5 -28t7.5 -53q0 -27 18 -46t45.5 -36.5t38.5 -32.5q66 -89 66 -125z" />
<glyph unicode="'" horiz-adv-x="522" d="M438 1317q0 -36 -36.5 -90.5t-36.5 -91.5q0 -15 4 -42t4 -42q0 -34 -21 -58h-8q-10 0 -28 12.5t-35 12.5q-25 0 -45.5 -7t-31.5 -13.5t-14 -6.5q-7 0 -19 8t-26.5 20.5t-17.5 14.5q-4 12 -4 19q0 14 9 41t9 43q0 20 -11 40t-11 27q0 15 13 54.5t13 62.5q0 42 -20.5 79.5 t-20.5 63.5q0 27 6 63.5t17 53.5q12 -6 29 -6q20 0 38 18.5t37 18.5q17 0 49 -11.5t50 -11.5q29 0 67 23q33 -30 33 -92q0 -16 -4 -45t-4 -45q0 -20 8 -57t8 -56z" />
<glyph unicode="(" horiz-adv-x="657" d="M625 1348q0 -14 -15 -72q-18 -3 -35 -15t-35.5 -30.5t-29.5 -26.5q-21 -15 -40.5 -54.5t-33.5 -53.5q-14 -19 -14 -25q0 -10 6 -28.5t6 -28.5q0 -29 -22.5 -72.5t-22.5 -62.5q0 -23 12.5 -66t12.5 -65q0 -15 -15.5 -41t-15.5 -43q0 -21 18.5 -62t18.5 -70q0 -10 -1 -30.5 t-1 -30.5q0 -32 10.5 -48.5t38.5 -31.5q24 -13 68.5 -60.5t70.5 -54.5q2 -12 2 -34q0 -33 -14.5 -60t-41.5 -57.5t-38 -48.5q-8 -14 -22.5 -51.5t-28.5 -55.5q-48 3 -77.5 16t-45 32t-27.5 39.5t-35.5 43.5t-58.5 39q-25 11 -37.5 27.5t-14.5 31t-4.5 40t-6.5 41.5 q-5 18 -26 43.5t-21 54.5q0 19 -20.5 60.5t-20.5 68.5q0 20 9 58t9 57q0 18 -20.5 62t-20.5 71q0 15 9 42.5t9 43.5t-8 47t-8 47q0 12 20.5 45t20.5 55q0 20 -12.5 59t-12.5 60t19.5 40t42.5 41t29 48q5 24 34 55t37 68q7 32 25.5 46.5t47.5 25t46 24.5q9 8 26.5 23 t28.5 24.5t27 21t31 19.5q24 -18 33.5 -44t18.5 -48t32 -33q35 -16 59.5 -48t24.5 -68z" />
<glyph unicode=")" horiz-adv-x="657" d="M612 805q0 -15 -9 -43t-9 -43q0 -17 8 -47t8 -47q0 -12 -20.5 -45.5t-20.5 -55.5q0 -20 12.5 -59t12.5 -59q0 -26 -41.5 -62.5t-48.5 -67.5q-4 -21 -18.5 -37t-30.5 -35.5t-23 -49.5q-7 -32 -25.5 -46.5t-47.5 -25.5t-46 -25q-8 -7 -33 -29t-42.5 -35.5t-36.5 -23.5 q-24 18 -33.5 44t-18.5 48t-32 33q-35 16 -59.5 48t-24.5 69q0 18 14 72q18 3 35 15t35.5 30t29.5 26q21 15 40.5 55t33.5 54q1 2 6 7t7 8.5t2 8.5q0 10 -6.5 29t-6.5 29q0 29 22.5 72.5t22.5 62.5q0 22 -12 65t-12 66q0 15 15 41t15 43q0 21 -18 61.5t-18 69.5q0 10 1 30.5 t1 30.5q0 31 -10.5 48t-39.5 32q-24 13 -68.5 60.5t-70.5 54.5q-2 12 -2 35q0 34 14.5 61t41.5 57t38 48q7 13 22.5 50t29.5 56q48 -3 77.5 -16t44.5 -32t27 -39.5t35.5 -43.5t58.5 -39q25 -11 37.5 -27.5t15 -30.5t5 -39.5t6.5 -41.5q5 -18 25 -43.5t20 -54.5 q0 -19 21.5 -60.5t21.5 -68.5q0 -19 -9.5 -57t-9.5 -58q0 -18 20.5 -62t20.5 -71z" />
<glyph unicode="*" horiz-adv-x="944" d="M901 920q-8 -6 -27 -19t-24 -18.5t-12 -20t-9 -35.5t-27.5 -39t-27.5 -36q-10 -2 -31 -2q-27 0 -50 15.5t-36.5 33.5t-34.5 33.5t-44 15.5q-2 0 -5.5 -1t-5.5 -1q8 -21 8 -53q0 -15 -3 -43t-3 -43q0 -23 6 -41q-11 -11 -43 -11q-18 0 -52 -14t-52 -14q-20 0 -35.5 3.5 t-23.5 8t-23.5 14.5t-28.5 17q2 8 2 22q0 16 -7 44t-7 44q0 32 6 62q-12 4 -18 4t-51 -40t-70 -40q-28 0 -43 26t-18.5 57.5t-18 61.5t-41.5 37q1 4 5.5 15t5.5 14t4.5 11.5t5.5 11t6.5 8.5t8 7.5t9.5 5t12.5 4.5t14.5 2t18 1q18 0 29.5 9t25.5 31t17 26q-16 12 -20 23 q-2 4 -4.5 4.5t-22.5 0.5h-29q-27 0 -51 19t-39 47q11 17 20 59.5t23 61.5q11 16 20 23t12.5 5.5t7 4.5t5.5 19.5t6 49.5q28 4 41 4q17 0 31 -4t29.5 -15.5t21.5 -16.5t24.5 -25t20.5 -23q1 10 8 41t7 49q0 15 -12.5 42t-12.5 42q0 17 2.5 27.5t11.5 14.5t12.5 5.5t20.5 0.5 t21 -1q12 0 46 15.5t60 15.5q61 0 90 -39q-1 -4 -4.5 -16t-3.5 -19q0 -17 13.5 -50t13.5 -50q0 -35 -9 -70q8 -4 15 -4q18 0 37 20t34 44.5t41 44.5t56 20h28q5 -27 16 -43t21.5 -22t18.5 -29t8 -65q0 -37 37 -93q-17 -20 -23.5 -27t-22.5 -16t-34 -10q-20 -2 -32 -4 t-26.5 -8t-23.5 -17t-14 -28q6 -22 34.5 -26t36.5 -17q7 -10 13.5 -25.5t10.5 -23t16 -13.5t32 -6q23 0 36 -23.5t13 -47.5z" />
<glyph unicode="+" horiz-adv-x="952" d="M874 827q0 -18 -19 -44t-19 -42q0 -13 14 -35t14 -36q0 -19 -16 -47q-20 4 -29 4q-15 0 -43 -8.5t-43 -8.5q-10 0 -30.5 6.5t-30.5 6.5q-12 0 -21 -9q8 -36 8 -53q0 -15 -5 -41t-5 -41q0 -23 12.5 -66t12.5 -65q0 -25 -6 -37q-17 -10 -33 -10q-19 0 -56 12.5t-57 12.5 q-16 0 -45 -16.5t-53 -16.5q-25 0 -109 29q4 12 4 38q0 20 -8 59t-8 60q0 24 15.5 65t17.5 60q-8 2 -29.5 10.5t-32.5 8.5q-14 0 -35 -14.5t-38 -14.5q-12 0 -26 2.5t-23.5 5.5t-25.5 8.5t-24 7.5q7 21 7 39q0 20 -15.5 58.5t-15.5 60.5q0 16 13 45t13 45q0 26 -10 56 q4 1 23.5 8.5t27.5 10.5t23.5 6t28.5 3t35 -9t34 -9q15 0 41 10t35 12q0 18 -12.5 51t-12.5 50q0 13 7.5 35t7.5 34q0 24 -21 72q9 7 20.5 8t28 -1.5t23.5 -2.5q13 0 37.5 8.5t38.5 8.5q21 0 57 -15.5t57 -15.5q13 0 38 5t38 5q-1 -8 -4.5 -30.5t-3.5 -35.5q0 -14 6 -39 t6 -38q0 -21 -13 -58.5t-15 -54.5q8 2 24 2q15 0 41 -7t41 -7t42.5 5t41.5 5q13 0 33 -4q-4 -16 -4 -23q0 -15 15 -42t15 -42z" />
<glyph unicode="," horiz-adv-x="608" d="M420 264q0 -21 -6 -42.5t-17.5 -48.5t-15.5 -40q-8 -24 -12.5 -81.5t-16.5 -84.5q-8 -19 -45.5 -44t-48.5 -44q-11 -18 -22 -54t-25.5 -63.5t-40.5 -42.5q-12 1 -20.5 12t-14 22.5t-20.5 21.5t-39 10q-9 0 -27.5 -8t-28.5 -8q-3 0 -25 21t-28 24q0 17 10.5 33.5 t22.5 28.5t22.5 35.5t10.5 53.5q0 15 14 33t28.5 51.5t14.5 87.5q0 13 -7 38t-7 38q0 23 17.5 60t35.5 55q22 -13 35 -13q15 0 34 13.5t27 13.5q23 0 61 -19.5t60 -19.5q24 0 60 12q14 -20 14 -51z" />
<glyph unicode="-" horiz-adv-x="692" d="M606 827q0 -18 -20.5 -45t-20.5 -43q0 -13 14.5 -34t14.5 -35q0 -19 -16 -47q-31 10 -74 10t-83.5 -24.5t-60.5 -24.5q-21 0 -55 16t-53 16q-14 0 -35 -11t-33 -11q-13 0 -26.5 4t-30 10.5t-25.5 9.5q7 21 7 39q0 20 -15.5 58.5t-15.5 60.5q0 16 13 45t13 45q0 26 -10 56 q8 3 25 11t31 12.5t28 4.5q12 0 33 -8t33 -8q18 0 52 14.5t52 14.5q22 0 60 -17.5t59 -17.5q13 0 39 5t39 5t33 -4q-5 -15 -5 -21q0 -17 16.5 -43t16.5 -43z" />
<glyph unicode="." horiz-adv-x="444" d="M408 180q0 -12 -9 -43q-6 -19 -7 -44.5t-7.5 -43t-30.5 -37.5q-40 -35 -61 -35q-9 0 -27.5 4.5t-27.5 4.5q-14 0 -43 -7.5t-43 -7.5q-20 0 -29 15q-9 14 -14 49.5t-15 50.5q-2 3 -24.5 22.5t-22.5 36.5q0 22 34 71.5t60 53.5q8 2 23 2q12 0 34 -5t33 -5q19 0 44 18.5 t40 18.5q34 0 63.5 -41.5t29.5 -77.5z" />
<glyph unicode="/" d="M1110 1563q0 -19 -35.5 -55t-38.5 -40q-12 -18 -16.5 -62t-24.5 -65q-10 -11 -17 -20.5t-11.5 -16t-8 -17.5t-5.5 -17t-5.5 -21t-5.5 -24q-8 -33 -39 -56t-41 -41q-6 -11 -20.5 -53t-36.5 -65q-72 -77 -88 -125q-26 -84 -31 -119q-6 -44 -20 -66.5t-34.5 -43.5t-33.5 -50 q-13 -28 -23 -92.5t-26 -95.5q-8 -17 -36.5 -49t-35.5 -52q-9 -24 -15.5 -74.5t-15.5 -74.5q-35 -93 -90 -148q-21 -6 -45 -6q-13 0 -38 4.5t-37 4.5q-24 0 -67 -17.5t-67 -17.5q-16 0 -30.5 4.5t-38 16.5t-27.5 14q0 17 7 30.5t21 30.5t19 25q14 22 16 63.5t23 63.5 q10 11 17 20.5t11.5 16t8 17.5t5.5 17t5.5 21t5.5 24q8 34 40.5 67.5t41.5 51.5q9 17 15 61t28 68q4 4 18 19.5t22 25t19 24t17.5 27t9.5 23.5q4 13 5 27.5t0.5 32.5t0.5 28q2 34 15.5 58t31 36t34.5 23.5t28.5 29.5t11.5 45q0 7 -4 21.5t-4 21.5q0 13 3.5 26t7 21.5 t13.5 21.5t14 18t17.5 20t16.5 18q33 35 50.5 75t24 76.5t15 73.5t31 80t63.5 84q25 7 45 7q12 0 38 -4.5t38 -4.5q26 0 74 17.5t75 17.5q55 0 109 -26z" />
<glyph unicode="0" horiz-adv-x="1001" d="M659 915q0 35 -36.5 103.5t-36.5 83.5q0 16 8 47t8 47q0 44 -39 77.5t-84 33.5q-35 0 -53 -45q4 -12 4 -21q0 -12 -19 -25t-24 -24q-9 -19 -13 -67t-9 -66q-2 -6 -6 -19t-6.5 -20.5t-4.5 -19t-2 -21.5q0 -28 19 -66q11 -21 14 -34t0.5 -35.5t-2.5 -34.5q0 -7 3 -20.5 t3 -20.5q0 -21 -20.5 -54t-20.5 -52q0 -35 34 -103.5t34 -81.5t-7.5 -35t-7.5 -34q0 -15 13.5 -41t15.5 -39q3 -20 5 -28.5t8 -21t17 -17.5t29 -5q43 0 82 33.5t39 75.5q0 11 -5 33t-5 34q0 17 10 34t21.5 30.5t21.5 36.5t10 49t-21.5 64t-21.5 52q0 16 16.5 41t16.5 41 q0 7 -3 20.5t-3 20.5q0 17 9 47t9 47zM1001 557q0 -29 -34.5 -74t-34.5 -75q0 -21 7 -59.5t7 -59.5q0 -29 -16.5 -51t-43.5 -43.5t-38 -36.5q-9 -14 -20 -49t-23 -50q-21 -26 -61 -41.5t-78 -15.5q-20 0 -49 -17.5t-66.5 -35t-77.5 -17.5q-35 0 -60 13t-37.5 29.5t-36 32.5 t-54.5 20q-58 7 -88.5 28.5t-30.5 75.5q0 23 -14.5 43t-31.5 32.5t-31.5 33.5t-14.5 45q0 7 3 22.5t3 22.5q0 16 -13.5 38t-13.5 35q0 19 11.5 56t11.5 57q0 30 -20.5 86t-20.5 86q0 26 17.5 73t17.5 73q0 34 -29 95t-29 95q0 23 12.5 42.5t25.5 47.5t13 72q0 26 18.5 73 t18.5 72q0 20 14.5 37.5t32 27.5t32 25t14.5 31q0 4 -1.5 11.5t-1.5 11.5q0 43 27.5 74.5t69.5 31.5q11 0 32.5 -2t32.5 -2q12 0 26 9t26.5 19.5t40.5 19.5t65 9q28 0 50 -7.5t32 -14t33.5 -27.5t33.5 -29q19 -15 34.5 -19t34.5 -4t36 -5q15 -5 25 -13.5t16.5 -23.5t9.5 -25 t7 -30.5t5 -26.5q4 -23 55 -73.5t56 -88.5q4 -40 4 -59q0 -18 -6 -53t-6 -54q0 -34 25.5 -95t25.5 -95q0 -25 -17.5 -74t-17.5 -74q0 -34 27.5 -93t27.5 -93z" />
<glyph unicode="1" horiz-adv-x="659" d="M594 313q0 -23 -14.5 -64.5t-14.5 -64.5q0 -22 12.5 -65t12.5 -66q0 -25 -6 -37q-17 -10 -33 -10q-19 0 -55 12.5t-56 12.5q-18 0 -47 -16.5t-53 -16.5q-35 0 -109 27q5 15 5 38q0 21 -8.5 60t-8.5 59q0 24 17.5 68t17.5 67q0 27 -28.5 91t-28.5 98q0 36 21.5 102.5 t21.5 102.5q0 26 -18.5 73.5t-18.5 69.5q0 30 21.5 89t21.5 91q0 27 -6 51q-14 2 -45.5 13.5t-49.5 11.5q-9 0 -27 -8t-28 -8q-3 0 -25 21t-28 24q0 17 10 33.5t22.5 28.5t22.5 35.5t10 53.5q0 22 21 43q39 38 56 74.5t16 59.5t3.5 53t22.5 55q7 12 27 12q12 0 35 -3t34 -3 q10 0 30 5t30 5q19 0 56 -14t56 -14q12 0 37 5t39 5v-25q0 -30 14.5 -87t14.5 -87q0 -34 -21.5 -98t-21.5 -98t18.5 -98.5t18.5 -98.5q0 -30 -18.5 -75.5t-18.5 -65.5q0 -35 19.5 -100.5t19.5 -100.5q0 -28 -17.5 -79t-17.5 -77q0 -29 19.5 -85t19.5 -85z" />
<glyph unicode="2" horiz-adv-x="972" d="M924 1081q0 -20 -24 -47.5t-23 -52.5q0 -8 1 -23.5t1 -23.5q0 -39 -15 -55.5t-43.5 -29.5t-44.5 -32q-12 -14 -25 -38t-27.5 -38.5t-39.5 -23.5q-26 -9 -42 -37.5t-46 -38.5q-82 -25 -82 -70q0 -6 3 -17t3 -17q0 -21 -11.5 -38.5t-33.5 -37.5t-29 -29q-13 -18 -13 -43 t-3 -43q2 0 7 -1t7 -1q8 0 24 6t24 6q12 0 25.5 -14t23.5 -14q13 0 35.5 16t37.5 16q18 0 43 -20.5t41 -20.5q14 0 47 18.5t52 18.5q10 0 16 -2q3 -15 4 -60.5t10 -68.5q4 -12 4 -18q0 -23 -17 -62.5t-17 -46.5q0 -12 9.5 -36.5t10.5 -26.5q-17 -35 -53 -35q-22 0 -51 15.5 t-39 15.5q-18 0 -51.5 -19.5t-53.5 -19.5q-21 0 -46.5 20.5t-39.5 20.5q-13 0 -29.5 -10t-23.5 -11q-3 2 -11 9t-14.5 10.5t-13.5 3.5q-13 0 -55.5 -18.5t-71.5 -18.5q-26 0 -45.5 8t-30.5 16.5t-16 8.5q-14 0 -41 -10.5t-41 -10.5q-18 0 -33 6q-2 8 -2 27q0 25 14.5 55 t14.5 45q0 16 -15.5 37t-15.5 33q0 8 5 24.5t5 24.5q0 9 -2 26.5t-2 26.5q0 34 11.5 56.5t31 46t29.5 43.5q7 17 9.5 51t9.5 51q7 16 32.5 30t32.5 23q15 17 20.5 57.5t8.5 49.5q7 21 16.5 30t26.5 16t28 15q9 6 12.5 39t28.5 56q46 43 74 59q10 6 21.5 18t20.5 22t22 18 t26 8q14 0 23.5 4t14 8t7 16.5t2.5 18v22.5q0 15 9.5 40t9.5 40q0 20 -13 36.5t-33 33t-28 28.5q-10 15 -16 22t-19 16t-26 9q-24 0 -39 -8.5t-21 -19.5t-17.5 -24.5t-27.5 -20.5q-19 -8 -22 -33t-7 -48.5t-26 -29.5q-9 6 -24.5 18t-24 17.5t-23 10.5t-31.5 5q-8 0 -25.5 -3 t-25.5 -3q-20 0 -43 14t-33 23t-34 33q16 62 16 92q0 18 15 34.5t37 33.5t30 28q10 13 19 58.5t36 60.5q11 5 45.5 29t65.5 42.5t43 18.5q16 0 45.5 -10t46.5 -10q7 0 20.5 3t20.5 3q20 0 58.5 -17.5t64.5 -17.5q10 0 29.5 1t29.5 1q55 0 96 -47q16 -19 41.5 -66t44.5 -67 l22.5 -22.5t29 -29.5t22 -29t10.5 -28q0 -14 -16 -44t-16 -50q0 -22 20.5 -58t20.5 -57z" />
<glyph unicode="3" horiz-adv-x="919" d="M905 436q0 -33 -12.5 -59.5t-27.5 -42t-31 -37.5t-21 -45q-4 -19 -4 -88q0 -56 -25 -76q-23 -19 -116.5 -59.5t-118.5 -40.5q-7 0 -21.5 2t-21.5 2q-12 0 -35 -4t-35 -4q-29 0 -59 20q-25 16 -59 21t-59.5 5t-49 7t-36.5 33t-13 77q0 26 -37.5 65.5t-42.5 49.5 q-13 22 -14.5 51.5t-5.5 59.5t-25 57q6 8 13 14.5t18 11.5t18 8t22 5.5t19.5 3.5t22 3.5t18.5 2.5q18 3 40 5.5t31.5 4t23.5 6.5t28 14.5t35 27.5q7 -13 10 -23t3.5 -15.5t-0.5 -19t-1 -22.5q0 -25 23.5 -40t23.5 -34q0 -8 -4 -23.5t-4 -23.5t4.5 -13t12 -6.5t14.5 -1.5 t16 1t12 1q9 0 26.5 -4t26.5 -4q35 0 47.5 22.5t16.5 57t14 47.5q21 25 21 43q0 35 -24 106.5t-48 71.5q-10 0 -29.5 -6t-29.5 -6q-31 0 -67 21.5t-46 21.5q-13 0 -34.5 -10.5t-26.5 -11.5q-17 24 -17 51q0 21 14.5 57t14.5 45q0 17 -12.5 49t-12.5 50q0 1 1 4t1 4 q34 24 76 24q14 0 38 -7t38 -7q37 0 58 20.5t26 47t15 58.5t26 48q1 1 6 5t7.5 7t2.5 8q0 3 -10 21t-10 35q0 12 6 37t6 37t-10 19t-21 8.5t-27.5 2.5t-21.5 2q-7 1 -26.5 6t-30.5 5q-25 0 -25 -39q4 -12 4 -21q0 -12 -19 -25t-24 -24q-6 -12 -10 -29.5t-7 -49t-3 -32.5 q-14 2 -36 2t-35 1t-30.5 7.5t-33.5 20.5q-75 62 -164 53q-6 18 -6 37q0 24 19.5 65t19.5 64q0 24 14 40t31 24t31 28t14 52q0 43 27 74.5t69 31.5q12 0 33 -2t32 -2q15 0 25.5 9.5t30.5 19.5t59 10q18 0 43.5 -15.5t36.5 -15.5t33 8.5t35 8.5q41 0 64.5 -13t30 -29 t19.5 -34t33 -25q4 -1 36 -9.5t51.5 -17.5t25.5 -22q26 -54 26 -84q0 -12 -8 -33t-8 -32q0 -22 15.5 -61.5t15.5 -59.5q0 -15 -21 -43.5t-24 -36.5q-9 -23 -12 -80t-11 -74q-6 -14 -44.5 -44t-37.5 -52q121 -55 121 -166q0 -12 -7 -33t-7 -32q0 -38 32.5 -96.5t32.5 -90.5z " />
<glyph unicode="4" horiz-adv-x="1136" d="M569 1139q0 11 -3 22t-8 24t-7 21q-23 -13 -33.5 -27t-12 -25.5t-1.5 -38.5v-11q0 -16 -19.5 -31.5t-23.5 -36.5q-3 -17 -17.5 -27.5t-21.5 -52.5q-2 -10 -13.5 -26.5t-13.5 -26.5h8q7 0 18.5 6t18.5 6q10 0 25 -8t16 -8q12 0 34.5 10t35.5 9q4 14 4 40q0 11 -3 33.5 t-3 34.5q0 20 10 57t10 56zM1083 705q0 -13 -1 -28t-4 -36.5t-10.5 -35t-18.5 -13.5q-8 0 -25 6t-25 6q-21 0 -63 -11t-64 -11q0 -7 4.5 -20.5t4.5 -20.5q0 -19 -14.5 -53t-14.5 -52q0 -20 15.5 -58t15.5 -59t-14.5 -56t-14.5 -50q0 -19 12.5 -57t12.5 -58q0 -7 -2.5 -35.5 t0.5 -35.5q-10 -7 -21 -10t-18.5 -3t-21 1t-21.5 1q-22 0 -45 -18t-41 -18q-20 0 -47 18t-37 18q-11 0 -37 -8t-43 -8q-6 15 -6 33q0 15 9 43t9 43q0 18 -11 41t-11 33q0 17 14 49t14 49q0 25 -19.5 46t-19.5 42q0 26 17.5 56.5t17.5 47.5t-14.5 48.5t-14.5 48.5q-2 0 -5 1 t-5 1q-13 0 -37.5 -7.5t-38.5 -7.5q-10 0 -25 15.5t-40 15.5q-22 0 -56 -23.5t-59 -23.5q-12 0 -26 13.5t-27 13.5q-15 0 -44 -11.5t-44 -11.5q-16 0 -57 23q-11 42 -11 71q0 20 8.5 60t8.5 61q0 20 -8.5 59t-8.5 58q0 11 9 32.5t23.5 50t16.5 34.5q13 26 47 70.5t46 68.5 t23.5 79.5t25.5 80.5q13 24 57 57t51 55q6 18 11.5 54t15 63t29.5 47q16 4 22 4q9 0 26.5 -5t26.5 -5q13 0 33 10t33 10q12 0 46 -16t60 -16q25 0 69 17t69 17t75 -20q7 -14 7 -29q0 -18 -11.5 -49t-11.5 -49t15.5 -48t15.5 -46q0 -7 -15.5 -43.5t-15.5 -59.5 q0 -29 18.5 -83t18.5 -76t-21.5 -70.5t-21.5 -79.5q0 -14 2 -20q69 -19 88 -19q16 0 45.5 8.5t44.5 8.5q18 0 39 -7q2 -6 2 -20q0 -17 -14.5 -45t-14.5 -45q0 -20 21.5 -50t21.5 -48z" />
<glyph unicode="5" horiz-adv-x="972" d="M944 408q0 -26 -17.5 -51.5t-35 -46t-17.5 -34.5q0 -8 1.5 -23.5t1.5 -23.5q0 -47 -16.5 -62.5t-48.5 -18t-46 -11.5q-9 -5 -12 -25.5t-5.5 -40t-28 -35.5t-75.5 -16q-12 0 -31 8.5t-30 8.5q-27 0 -55.5 -24.5t-53.5 -24.5q-40 0 -77.5 20.5t-51.5 20.5t-40 -9.5 t-40 -9.5q-12 0 -29.5 17.5t-36 41t-26.5 29.5q-22 18 -31 32.5t-15 43t-11 41.5q-6 18 -22 33t-30.5 23.5t-26 27.5t-11.5 47v27q17 2 30.5 11t21 19t17 19t19.5 10q47 5 74 18.5t35.5 27.5t29 31.5t53.5 27.5q15 -17 28 -26q8 -5 11 -31q2 -15 4 -25q6 -34 25.5 -53.5 t21.5 -30.5q0 -1 1 -7.5t2 -11t3 -9.5t5 -8t8 -3q7 0 21.5 4t21.5 4q12 0 32.5 -8t32.5 -8q26 0 46 27.5t20 54.5q0 10 -5 29.5t-5 29.5q0 11 7 32t7 33q0 34 -15 46.5t-38 20.5t-33 26q-14 25 -28 36t-40 11q-12 0 -34 -5.5t-33 -5.5q-19 0 -44 30t-53 30q-16 0 -38 -17.5 t-35 -17.5q-10 0 -26.5 11.5t-26.5 11.5q-9 0 -25 -7.5t-25 -7.5q-15 0 -30 19q-17 49 -17 86q0 27 17.5 79t17.5 80q0 35 -22.5 90.5t-22.5 63.5q0 12 16.5 55.5t16.5 71.5q0 31 -25.5 76t-25.5 76q0 25 17 75.5t15 73.5q12 6 41 6q14 0 40 -4t40 -4q23 0 75.5 23.5 t88.5 23.5q29 0 82 -20.5t80 -20.5q35 0 100.5 20.5t100.5 20.5q12 0 53.5 -12t62.5 -4q4 -17 25.5 -48t21.5 -53q0 -20 -23.5 -48.5t-23.5 -57.5q0 -22 15.5 -51t15.5 -47q0 -9 -4 -29q-31 -8 -68 -8q-26 0 -77 15t-78 15q-19 0 -42 -19t-38 -19t-42 7t-42 7q-35 0 -58 -17 q9 -35 9 -71q0 -20 -12.5 -55.5t-12.5 -53.5q0 -20 10 -43q9 -4 19.5 -5.5t18 -1.5t21 0.5t19.5 0.5q33 0 70 -20.5t51 -20.5t40 8.5t40 8.5q17 0 33 -13q18 -15 35.5 -51t25.5 -41q13 -8 36.5 -11.5t40.5 -11.5t25 -30q4 -12 7 -48t16 -55q31 -45 31 -73q0 -19 -15.5 -54 t-15.5 -55q0 -13 24.5 -48t24.5 -62z" />
<glyph unicode="6" horiz-adv-x="1042" d="M694 459q0 25 -10 74t-10 73q0 13 -7 21.5t-21 11t-24 3.5t-28 0t-21 -1q-33 0 -47 8q-5 10 -20 10q-16 0 -37 -7t-48 -19t-36 -15q0 -1 1 -3t1 -3q0 -9 -6 -26.5t-6 -26.5q0 -27 10.5 -49.5t23 -34.5t23 -25t10.5 -24q0 -5 -2 -14.5t-2 -14.5q0 -38 38 -68t77 -30 q23 0 39.5 12t34.5 32.5t30 29.5q37 26 37 86zM1008 573q0 -18 -20.5 -59.5t-20.5 -69.5q0 -18 10 -49t10 -49q0 -23 -13.5 -40t-29.5 -25.5t-29.5 -23t-13.5 -32.5q0 -6 1 -17.5t1 -17.5q0 -32 -21 -55t-56 -44.5t-48 -35.5q-48 -50 -117 -76t-143 -26q-65 0 -96 33 q-29 33 -72.5 39.5t-62.5 21.5q-13 10 -29.5 18.5t-23.5 12.5t-14.5 17.5t-12.5 37.5q-5 26 -17.5 41t-24.5 20.5t-21 22t-9 45.5q0 35 -19 62t-38 47.5t-19 40.5t12.5 60t12.5 60q0 25 -20.5 59.5t-20.5 45.5q0 16 7 47.5t7 48.5q0 19 -11 57t-11 58q0 18 9 53t9 53 q0 20 -9 59t-9 60q0 25 18.5 72t18.5 72q0 18 14.5 47.5t17.5 38.5q3 15 5 35t3 33t6 27.5t17 26.5t33 21q39 18 70.5 56t46.5 50q18 15 60.5 30.5t60.5 29.5q24 16 40 16q24 0 68 -18.5t68 -18.5q12 0 36 6.5t37 6.5q31 0 48 -10.5t33.5 -29.5t35.5 -30q24 -13 32 -21 t15.5 -27t14.5 -32t28.5 -20t40 -18t21.5 -36q3 -17 5.5 -39.5t4 -31t5.5 -23.5t11 -29.5t19 -37.5q0 -13 -8 -33q-6 -5 -14.5 -7t-14.5 -2t-16 0.5t-15 0.5q-16 0 -44.5 -17.5t-49.5 -17.5q-8 0 -22.5 5t-22.5 5q-10 0 -33 -16.5t-41 -16.5q-10 0 -17.5 20t-14 45t-11.5 32 q-1 2 -12.5 19t-18.5 26.5t-18.5 19.5t-20.5 10q-13 0 -39 -4t-40 -4q-41 0 -54.5 -11.5t-13.5 -51.5q0 -21 -9 -33t-19.5 -16t-19.5 -12t-9 -21q0 -17 10 -49t10 -48q0 -25 -17.5 -60t-17.5 -50q0 -7 4 -19q6 -2 21 -2q26 0 54.5 16t51 32t31.5 16q24 0 66 -23.5t65 -23.5 q19 0 57 5t56 5q23 0 39 -17t31 -43t26 -36q9 -9 36.5 -21t47 -25.5t19.5 -31.5q0 -36 23.5 -98t23.5 -93z" />
<glyph unicode="7" horiz-adv-x="872" d="M866 1458q0 -29 -22.5 -79t-22.5 -76q0 -10 2 -31t2 -31q0 -14 -2.5 -26.5t-5 -20.5t-10.5 -18.5t-11.5 -15t-16.5 -17t-17 -17.5q-19 -20 -29 -69t-28 -70q-15 -17 -24.5 -33t-14.5 -27t-7 -29.5t-2.5 -27t0 -34t0.5 -37.5q0 -40 -16.5 -72t-35.5 -50t-35.5 -46.5 t-16.5 -63.5q0 -11 5 -31t5 -32q0 -19 -8 -34t-25.5 -32.5t-23.5 -25.5q-6 -7 -8.5 -19t-2.5 -20.5t0.5 -24.5t0.5 -20q0 -40 -17.5 -73.5t-37 -54.5t-33 -63.5t-7.5 -99.5q-29 -31 -49 -42t-57 -11q-29 0 -53 8t-37 16t-15 8q-22 0 -61.5 -13t-60.5 -13q-18 0 -33 6 q-2 12 -2 35q0 19 9 54t9 54q0 16 12 29.5t26 22.5t26 24.5t12 34.5q0 10 -6 28.5t-6 28.5q0 30 22 62.5t44 59.5t22 44q0 11 -4 34t-4 34q0 23 37.5 65.5t43.5 65.5q2 7 8.5 26t9 28.5t6.5 25t5.5 29t1.5 26.5q0 19 1 31t1.5 19.5t5.5 16.5t7.5 13t13 17.5t16.5 21.5 q14 20 17.5 44t3.5 42.5t19 49t61 64.5q0 72 12 121q-15 6 -33 6t-50 -12t-50 -12q-22 0 -54 16.5t-49 16.5q-19 0 -51.5 -18.5t-54.5 -18.5q-34 0 -55 35q10 20 10 38t-10.5 51t-10.5 50t17.5 46t17.5 46q0 9 -10 28t-10 33q0 17 6 29q12 6 24 6q14 0 43 -8t43 -8 q21 0 54.5 19.5t52.5 19.5q12 0 36 -8.5t38 -8.5q19 0 52.5 12.5t51.5 12.5q19 0 61.5 -24.5t71.5 -24.5q19 0 54 14t55 14q15 0 57.5 -7.5t65.5 -2.5q4 -5 6 -11.5t2.5 -10.5t0 -13t-0.5 -12q0 -15 10 -41.5t10 -40.5z" />
<glyph unicode="8" horiz-adv-x="1079" d="M705 506q0 51 -37 107.5t-86 56.5q-11 0 -43 -10.5t-52 -10.5q-19 0 -26.5 -8t-7.5 -27q0 -32 -8.5 -54t-19.5 -31t-19.5 -26.5t-8.5 -41.5q0 -44 39 -114.5t78 -70.5q14 0 41 6.5t41 6.5q12 0 42 42t30 56q0 6 -1 17.5t-1 17.5q0 21 19.5 44t19.5 40zM672 1194 q0 57 -32 92.5t-91 59.5q-18 6 -21 6q-22 0 -46 -31t-47.5 -73.5t-31.5 -51.5q-10 -15 -10 -18t23 -27t28 -39q1 -3 4.5 -14.5t5.5 -17.5t6.5 -17t8.5 -17t10 -13t13.5 -10t15.5 -3q6 0 18.5 3t18.5 3q7 0 20.5 -2t20.5 -2q22 0 35 35q5 15 7 26.5t2 16.5t5.5 15t17.5 26 q19 25 19 53zM1047 463q0 -49 -43.5 -125.5t-51.5 -108.5q-3 -12 -9 -42.5t-10.5 -49.5t-16.5 -41.5t-29 -34.5q-24 -19 -64.5 -24.5t-56.5 -13.5q-17 -8 -39.5 -29.5t-44 -36t-45.5 -14.5q-17 0 -50 9t-50 9q-15 0 -41.5 -10t-40.5 -10q-9 0 -20 3t-24.5 9t-23 11 t-23.5 12.5t-18 9.5q-20 11 -46.5 49.5t-51.5 48.5q-9 3 -34.5 10.5t-39.5 13t-32 18t-27 28.5q-3 6 -14 24t-17 29.5t-12 27t-6 27.5q0 10 7 28.5t7 28.5q0 28 -18.5 80.5t-18.5 79.5q0 45 9 72.5t20.5 38t28 30.5t26.5 46q7 18 9.5 58.5t10.5 57.5q7 15 57 45.5t48 49.5 q-66 29 -90.5 76t-24.5 124q0 35 -18.5 65.5t-37 56t-18.5 48.5q0 35 16.5 60t37.5 48t28 48q3 11 9 39.5t10.5 44t16.5 35.5t28 32q23 16 61.5 22t53.5 13q12 5 44.5 33.5t59.5 28.5q19 0 54 -13t55 -12q27 -10 53 -10q10 0 29.5 7t29.5 7q41 0 75.5 -16.5t53 -36.5 t37.5 -40t31 -24q5 -2 37 -9t52.5 -16t27.5 -22q26 -50 26 -80q0 -12 -8 -31t-8 -30q0 -22 16.5 -61.5t16.5 -53.5q0 -15 -22 -40.5t-26 -34.5q-9 -20 -11.5 -62.5t-10.5 -58.5q-7 -14 -55 -58.5t-47 -66.5q17 -8 42.5 -17.5t39.5 -15t31 -16.5t25.5 -24t14.5 -35t6 -52 q0 -13 -5 -36t-5 -36q0 -39 32 -100t32 -94z" />
<glyph unicode="9" horiz-adv-x="1042" d="M664 1028q0 31 -17 57.5t-34 44.5t-17 29q0 5 2 14.5t2 14.5q0 53 -65 53q-13 0 -91 -10q-53 -6 -76.5 -30t-23.5 -77q0 -27 6 -51q10 -51 10 -123q0 -18 24.5 -30.5t72.5 -26t57 -16.5l10 -5q24 0 82 65.5t58 90.5zM1004 510q0 -25 -18.5 -70.5t-18.5 -70.5 q0 -18 -15 -47t-18 -39q-3 -15 -5 -35t-3 -33.5t-6 -28.5t-17 -27.5t-33 -21.5q-39 -18 -69.5 -56t-46.5 -50q-18 -15 -60.5 -30.5t-60.5 -29.5q-24 -16 -41 -16q-24 0 -68 18.5t-67 18.5q-13 0 -37 -6t-37 -6q-31 0 -48 10t-33.5 29t-35.5 30q-18 10 -27.5 19t-12.5 14.5 t-8.5 19.5t-12.5 27t-28.5 20.5t-40 18.5t-21.5 35q-3 17 -6.5 45.5t-5.5 39t-10 31t-23 46.5q0 12 8 32q6 5 14.5 7.5t14 2.5t16 -0.5t14.5 -0.5q15 0 44 17t50 17q8 0 22.5 -5t22.5 -5q10 0 33 16.5t41 16.5q10 0 17.5 -19.5t14 -44.5t11.5 -32q3 -4 17.5 -26.5t27.5 -36 t25 -13.5q38 0 90.5 8t52.5 27q0 6 -4 17t-4 17q0 12 10.5 20.5t22.5 13.5t22.5 20t10.5 39q0 15 -4.5 43t-4.5 43q0 13 10.5 37t10.5 38q0 13 -8 29q-45 0 -112 -39t-105 -39q-26 0 -45 13.5t-32 26.5t-26 13q-18 0 -54 9.5t-56 9.5q-15 0 -22.5 11t-8.5 26t-7.5 34.5 t-19.5 32.5q-9 9 -36 20.5t-46.5 25t-19.5 32.5q0 36 -23.5 98t-23.5 93q0 19 20.5 61t20.5 70q0 19 -11.5 54t-11.5 54q0 36 18 60.5t36 41.5t18 35q0 6 -1 17.5t-1 17.5q0 31 21 54t56 45t48 36q18 18 41 26.5t53.5 13.5t46.5 10q66 24 100 24q32 0 68 -18 q26 -14 94.5 -23t91.5 -26q14 -11 29.5 -18.5t22.5 -11.5t14 -16.5t12 -37.5t23.5 -46.5t37.5 -34t33 -29t13 -32.5q0 -4 -1 -13t-1 -13q0 -34 14 -60t28.5 -44.5t14.5 -35.5q0 -21 -12.5 -59t-12.5 -59q0 -25 20.5 -60.5t20.5 -46.5q0 -16 -7 -48t-7 -48q0 -20 11.5 -58 t11.5 -57q0 -17 -9.5 -52t-9.5 -52q0 -21 9.5 -61t9.5 -60z" />
<glyph unicode=":" horiz-adv-x="487" d="M408 180q0 -12 -9 -43q-6 -19 -7 -44.5t-7.5 -43t-30.5 -37.5q-40 -35 -61 -35q-9 0 -27.5 4.5t-27.5 4.5q-14 0 -43 -7.5t-43 -7.5q-20 0 -29 15q-9 14 -14 49.5t-15 50.5q-2 3 -24.5 22.5t-22.5 36.5q0 22 34 71.5t60 53.5q8 2 23 2q12 0 34 -5t33 -5q19 0 44 18.5 t40 18.5q34 0 63.5 -41.5t29.5 -77.5zM416 797q0 -16 -17 -37q-10 -13 -19.5 -33t-15 -30.5t-21.5 -18.5t-42 -8q-12 0 -34.5 5t-35.5 5q-19 0 -44 -17.5t-40 -17.5q-33 0 -62.5 42t-29.5 77q0 13 8 41q6 19 7 44.5t8 43t31 37.5q40 35 61 35q9 0 26.5 -4.5t26.5 -4.5 q15 0 45 8.5t45 8.5q21 0 30 -22t14 -53.5t12 -41.5q2 -3 24.5 -22.5t22.5 -36.5z" />
<glyph unicode=";" horiz-adv-x="608" d="M420 264q0 -21 -6 -42.5t-17.5 -48.5t-15.5 -40q-8 -24 -12.5 -81.5t-16.5 -84.5q-8 -19 -45.5 -44t-48.5 -44q-11 -18 -22 -54t-25.5 -63.5t-40.5 -42.5q-12 1 -20.5 12t-14 22.5t-20.5 21.5t-39 10q-9 0 -27.5 -8t-28.5 -8q-3 0 -25 21t-28 24q0 17 10.5 33.5 t22.5 28.5t22.5 35.5t10.5 53.5q0 15 14 33t28.5 51.5t14.5 87.5q0 13 -7 38t-7 38q0 23 17.5 60t35.5 55q22 -13 35 -13q15 0 34 13.5t27 13.5q23 0 61 -19.5t60 -19.5q24 0 60 12q14 -20 14 -51zM416 797q0 -16 -17 -37q-10 -13 -19.5 -33t-15 -30.5t-21.5 -18.5t-42 -8 q-12 0 -34.5 5t-35.5 5q-19 0 -44 -17.5t-40 -17.5q-33 0 -62.5 42t-29.5 77q0 13 8 41q6 19 7 44.5t8 43t31 37.5q40 35 61 35q9 0 26.5 -4.5t26.5 -4.5q15 0 45 8.5t45 8.5q21 0 30 -22t14 -53.5t12 -41.5q2 -3 24.5 -22.5t22.5 -36.5z" />
<glyph unicode="&#x3c;" horiz-adv-x="798" d="M756 1563q0 -19 -35.5 -55t-38.5 -40q-12 -18 -16.5 -62.5t-24.5 -64.5q-10 -10 -17.5 -20t-11.5 -15.5t-8.5 -18.5t-5.5 -16.5t-5 -22t-5 -23.5q-8 -33 -39.5 -56t-40.5 -41q-7 -15 -9.5 -61t-25.5 -70l-19 -19t-25.5 -25t-24 -26t-23.5 -30t-14.5 -27.5t-6.5 -27.5 q0 -20 32 -60t32 -51q0 -5 -2 -16.5t-2 -16.5q0 -30 14 -49.5t32 -35t23 -31.5q6 -18 12.5 -62.5t16.5 -66.5q11 -25 44.5 -61.5t43.5 -53.5q17 -28 21.5 -66.5t11.5 -52.5q10 -19 34.5 -45t40 -51t15.5 -55q0 -31 12 -48q-10 -10 -22 -10q-11 0 -33 6.5t-33 6.5 q-17 0 -43.5 -21.5t-46.5 -21.5q-23 0 -56 18t-42 18q-2 0 -28 -8t-48 -8q-26 30 -33 66.5t-16 52.5q-8 15 -28 35.5t-27 31.5q-11 16 -14 51t-9 48q-6 14 -46 54t-40 60q0 8 4 22.5t4 22.5q0 25 -13 44t-28 29.5t-28 30t-13 44.5q0 31 -16 61.5t-32.5 51.5t-16.5 30 q0 10 5 31t5 31q0 18 -14.5 51.5t-14.5 52.5q0 44 54 90q37 30 63 91.5t43 84.5q7 10 39 42.5t39 50.5q9 24 15.5 75t15.5 74q35 92 90 147q25 7 45 7q13 0 38.5 -4.5t37.5 -4.5q26 0 74 17.5t75 17.5q55 0 109 -26z" />
<glyph unicode="=" horiz-adv-x="630" d="M545 569q0 -20 -13.5 -38t-13.5 -35q0 -25 10 -52q-8 -3 -25 -11t-31 -12.5t-28 -4.5q-11 0 -30 8t-31 8q-15 0 -42.5 -14.5t-45.5 -14.5q-19 0 -49 17.5t-49 17.5q-11 0 -32 -5t-32 -5q-9 0 -29 4q5 15 5 21q0 13 -15.5 32t-15.5 33q0 18 20.5 45t20.5 43t-15.5 34.5 t-15.5 23.5q0 6 2.5 12t7.5 14.5t6 11.5q33 -10 62 -10q34 0 54 12t33.5 24.5t29.5 12.5q22 0 50.5 -16t41.5 -16t32 11t31 11q13 0 26 -4t29 -10.5t25 -9.5q0 -1 -3 -14.5t-3 -20.5q0 -17 16.5 -47.5t16.5 -55.5zM545 1065q0 -19 -20.5 -45.5t-20.5 -42.5q0 -15 14 -33 t14 -22q0 -9 -16 -41q-33 10 -61 10q-33 0 -53 -12.5t-33 -24.5t-29 -12q-22 0 -50.5 16t-41.5 16q-12 0 -32 -11t-32 -11q-13 0 -26.5 4.5t-30 11t-25.5 9.5q7 21 7 36q0 17 -15.5 47t-15.5 54q0 20 13 38t13 35q0 25 -10 52q8 3 25 11t31 12.5t28 4.5q12 0 31 -8t31 -8 q15 0 42.5 14.5t45.5 14.5t49 -17.5t49 -17.5q10 0 30.5 5t30.5 5q9 0 29 -4q-4 -12 -4 -21q0 -14 16.5 -33t16.5 -32z" />
<glyph unicode="&#x3e;" horiz-adv-x="798" d="M750 702q0 -44 -54 -90q-30 -24 -39.5 -47.5t-14 -52.5t-17.5 -53q-11 -20 -52.5 -72t-52.5 -84q-8 -23 -15 -73.5t-16 -75.5q-43 -99 -92 -148q-21 -6 -45 -6q-12 0 -38 4t-38 4q-26 0 -74.5 -17.5t-74.5 -17.5q-53 0 -109 27q0 19 36 53.5t40 40.5q14 22 16 63.5 t23 63.5q10 10 17.5 19.5t12 16.5t8.5 18.5t5.5 17.5t5.5 21.5t6 23.5q8 33 38.5 55.5t39.5 40.5q9 17 10 61t25 70q48 53 76 125q3 9 22 31.5t19 38.5q0 19 -32 57.5t-32 48.5q0 5 2 16.5t2 16.5q0 39 -30 63t-35 39q-6 15 -17 52.5t-20 56.5q-11 25 -44.5 61.5t-43.5 53.5 q-17 28 -21.5 66t-11.5 52q-10 19 -38 51t-38 52q-8 15 -12.5 48t-13.5 48q10 10 22 10q11 0 33 -6t33 -6q17 0 43 21.5t45 21.5q23 0 58 -18.5t44 -18.5q5 0 30 8.5t44 8.5q25 -31 32.5 -67t16.5 -52q8 -15 29.5 -36t28.5 -32q11 -16 12.5 -50t7.5 -48t46 -54.5t40 -60.5 q0 -8 -4 -22.5t-4 -22.5q0 -25 13 -43.5t28 -29.5t28 -30.5t13 -45.5q0 -29 15 -49t29.5 -31.5t14.5 -18.5q0 -12 -5 -32t-5 -31q0 -19 14.5 -53t14.5 -52z" />
<glyph unicode="?" horiz-adv-x="972" d="M530 180q0 -15 -8 -43q-6 -19 -7 -44.5t-7.5 -43t-30.5 -37.5q-40 -35 -61 -35q-9 0 -28 4.5t-28 4.5q-14 0 -43 -7.5t-43 -7.5q-19 0 -28 15q-9 14 -14 49.5t-15 50.5q-2 3 -24.5 22.5t-22.5 36.5q0 22 34 71.5t60 53.5q8 2 23 2q11 0 33 -5t34 -5q19 0 44 18.5t40 18.5 q34 0 63 -41.5t29 -77.5zM924 1081q0 -20 -21.5 -45t-21.5 -47q0 -12 4 -34t4 -33q0 -38 -19 -53.5t-49.5 -25t-44.5 -26.5q-12 -14 -24.5 -38t-27 -38.5t-40.5 -23.5q-18 -6 -41.5 -32t-42.5 -26q-7 0 -21.5 2.5t-21.5 2.5q-19 0 -37 -9t-18 -26q0 -9 14 -32t14 -36 t-12 -36t-12 -36q0 -5 3 -15t3 -15q0 -7 -4 -19q-24 -12 -53 -12q-20 0 -56.5 13.5t-54.5 13.5t-48 -13.5t-48 -13.5t-35 10q-18 36 -18 66q0 14 8 30.5t8 20.5q0 6 -16.5 25t-16.5 36q0 11 21.5 29t21.5 31q0 9 -14 29t-14 34q0 24 9.5 36t32.5 22t31 16q9 6 12.5 39 t28.5 55q18 16 56.5 30t48.5 19q9 5 31 20t39 21.5t38 6.5q14 0 23.5 4t14 8t7 16.5t2.5 18v22.5q0 15 9.5 40t9.5 40q0 20 -13 36.5t-33 33t-28 28.5q-10 15 -16 22t-19 16t-26 9q-24 0 -39 -8.5t-21 -19.5t-17.5 -24.5t-27.5 -20.5q-19 -8 -22 -33t-7 -48.5t-26 -29.5 q-9 6 -24.5 18t-24 17.5t-23 10.5t-31.5 5q-8 0 -25.5 -3t-25.5 -3q-20 0 -43 14t-33 23t-34 33q16 62 16 92q0 18 15 34.5t37 33.5t30 28q10 13 19 58.5t36 60.5q11 5 45.5 29t65.5 42.5t43 18.5q16 0 45.5 -10t46.5 -10q7 0 20.5 3t20.5 3q20 0 58.5 -17.5t64.5 -17.5 q10 0 29.5 1t29.5 1q55 0 96 -47q16 -19 41.5 -66t44.5 -67l22.5 -22.5t29 -29.5t22 -29t10.5 -28q0 -14 -16 -44t-16 -50q0 -22 20.5 -58t20.5 -57z" />
<glyph unicode="@" horiz-adv-x="1343" d="M772 684q0 22 -14.5 61t-14.5 60q0 23 10.5 69t10.5 70q0 9 -4 25q-1 0 -4 1t-4 1q-6 0 -18.5 -3t-18.5 -3q-7 0 -19.5 4t-19.5 4q-23 0 -35 -21.5t-13 -48.5t-4 -57.5t-10 -42.5q-16 -28 -16 -43q0 -37 22.5 -122t45.5 -85q8 0 24 6t25 6q20 0 33 -8q9 14 16.5 58 t7.5 69zM1290 889q0 -27 -21.5 -74t-21.5 -74q0 -31 9.5 -94t9.5 -94q0 -23 -26 -67t-26 -87q0 -16 -7.5 -24.5t-17.5 -12t-20.5 -15.5t-15.5 -32q-9 -40 -33.5 -74t-58.5 -34q-13 0 -35 14.5t-35 14.5q-15 0 -45 -9.5t-47 -9.5q-37 0 -55.5 11.5t-21.5 29t-2.5 35.5 t-5 35.5t-23.5 25.5q-31 -6 -83 -57t-71 -51q-11 0 -21 4t-19.5 13.5t-15 16t-14.5 20t-12 17.5q-20 27 -45 39t-42 15t-36.5 31t-34.5 87q-8 32 -8 54q0 15 11.5 34t11.5 35q0 31 -23.5 81.5t-23.5 78.5q0 44 31 108t36 95q3 15 4 54.5t5.5 71t17.5 46.5q15 17 49 34.5 t41 22.5q3 2 14 10.5t16.5 12t15.5 7t19 3.5q20 0 59.5 -14.5t59.5 -14.5q22 0 60 19.5t57 19.5q12 0 22.5 -7t15.5 -13t14 -22t11 -19q0 -3 -1 -10.5t-1 -10.5q0 -38 29 -105.5t29 -105.5q0 -28 -15.5 -81t-15.5 -82q0 -38 18.5 -111t18.5 -111q0 -13 -3 -38t-3 -37t39 -43 q6 13 38.5 52t32.5 66q0 19 -17.5 52.5t-17.5 56.5q0 14 9.5 42t9.5 42t-10.5 41t-10.5 41q0 26 12.5 76t12.5 77q0 51 -37 129t-37 131q0 33 -20 48.5t-46.5 17.5t-61.5 12.5t-56 32.5q-54 57 -129 57q-59 0 -90 -45q-17 -27 -54 -42t-71.5 -26t-46.5 -28q-12 -19 -25 -59 t-22 -56q-5 -10 -37.5 -42t-32.5 -52q0 -17 12.5 -47t12.5 -47q0 -21 -14.5 -62t-14.5 -63q0 -10 6 -30.5t6 -30.5q0 -33 -23.5 -94.5t-23.5 -94.5q0 -41 19 -82.5t38 -91.5t19 -113q0 -12 19 -23t42.5 -19t45 -23.5t26.5 -36.5q24 -102 115 -102q38 0 80 35.5t69 35.5 q20 0 29 -12q-1 -26 9.5 -44.5t23.5 -27t23.5 -23.5t10.5 -34q0 -33 -26 -70q-6 0 -19.5 1t-19.5 1q-10 0 -58.5 -25.5t-86.5 -25.5q-45 0 -79 15.5t-51.5 34.5t-46 36.5t-63.5 20.5q-26 3 -36.5 4t-26.5 5t-22 10t-13 16.5t-9 26t-2 38.5q0 18 -19.5 39t-46.5 42.5 t-36 33.5q-15 21 -34 66.5t-32 64.5q-6 9 -6 20q0 19 14.5 56t14.5 57q0 30 -25.5 86t-25.5 86q0 26 21.5 73t21.5 74q0 33 -17.5 95.5t-17.5 95.5q0 26 33 66t33 67q0 5 -1.5 15.5t-1.5 15.5q0 33 25 72t25 63q0 28 88 101t100 91q19 28 36 40t46 12q10 0 30.5 -1t30.5 -1 q17 0 28 11t19 23.5t39.5 23.5t85.5 11q34 0 61 -7t39.5 -14t43 -28t45.5 -31q23 -15 43 -18.5t44.5 -3.5t43.5 -4q68 -16 102 -129q5 -19 20 -35t32 -29t33.5 -29.5t27 -45.5t10.5 -68q0 -20 -9 -57t-9 -56q0 -35 31.5 -94.5t31.5 -93.5z" />
<glyph unicode="A" horiz-adv-x="1093" d="M659 522q-1 8 -10.5 40t-9.5 50q0 12 7 33t7 33q0 20 -22.5 58t-22.5 59q0 16 15.5 40t15.5 39q0 16 -19 52.5t-22 52.5t-5.5 62.5t-10.5 70.5q-20 -24 -31.5 -45t-16 -46.5t-5.5 -38.5t0 -49.5t1 -51.5q0 -24 -29.5 -67.5t-29.5 -70.5q0 -13 6 -37t6 -38 q0 -23 -15 -66.5t-15 -69.5q11 -8 26 -8t41 7.5t41 7.5q16 0 40 -11.5t36 -11.5q13 0 22 6zM1083 -4q-50 -10 -61 -10t-25.5 7t-19.5 7q-6 0 -31 -12.5t-45 -12.5q-15 0 -37 15.5t-35 15.5t-36 -11t-37 -11q-2 0 -7.5 1t-7.5 1v10q0 12 8.5 33t8.5 34q0 14 -25.5 51.5 t-25.5 59.5q0 12 8 31t8 31q0 2 -1 7t-1 7q-15 6 -31 6q-20 0 -54 -17.5t-54 -17.5q-15 0 -35.5 16.5t-32.5 16.5t-29 -14.5t-28 -16.5q-16 13 -35 13q-10 0 -21 -7q7 -24 7 -43q0 -20 -14.5 -55t-14.5 -55q0 -25 6 -49q-34 -21 -51 -21q-12 0 -30 10.5t-30 10.5 q-9 0 -28.5 -10.5t-32.5 -10.5q-15 0 -37 13.5t-35 13.5q-14 0 -38 -15.5t-40 -15.5q-8 0 -20 4v14q0 16 10 44.5t10 44.5q0 11 -4 34t-4 35q0 36 10.5 60.5t23.5 35.5t23.5 27.5t10.5 38.5q0 20 -11.5 58t-11.5 59q0 28 20.5 50.5t20.5 41.5q0 15 -2 42t-2 42q0 51 4 76 q3 19 25 52.5t22 61.5q0 19 -4 56t-4 55q0 24 19.5 48t19.5 48q0 18 -11 49t-11 49q0 26 39.5 76t39.5 82q0 16 -8 46t-8 46q0 26 21.5 58t21.5 49q0 10 -3 30.5t-3 30.5q0 16 6 31h10q12 0 32 -7t30 -7q19 0 45.5 19.5t42.5 19.5q15 0 57 -18.5t66 -18.5t67 14t66 14 q17 0 53.5 -5.5t56.5 -4.5q5 -10 5 -24q0 -13 -5.5 -39t-5.5 -39q0 -17 23.5 -63t23.5 -83q0 -17 -10 -50t-10 -50t18.5 -60t18.5 -73t24.5 -87t24.5 -87q0 -18 -11.5 -52t-11.5 -51q0 -29 33 -86t33 -82q0 -17 -7 -49t-7 -49q0 -28 28.5 -77t28.5 -79q0 -19 -10.5 -52 t-10.5 -52q0 -17 15 -39q14 -17 21 -37t8 -29.5t0 -40t-1 -38.5q0 -15 19.5 -51.5t19.5 -67.5z" />
<glyph unicode="B" horiz-adv-x="919" d="M586 479q0 44 -24 98t-62 54q-12 0 -37 -7.5t-37 -7.5q-22 0 -43 9q-25 -25 -25 -70q0 -21 18.5 -60t18.5 -61q0 -16 -11 -48t-11 -48q0 -9 4 -25q2 0 5 -1t5 -1q8 0 24.5 3t24.5 3q9 0 25.5 -4t25.5 -4q28 0 42 15.5t16 34.5t6.5 42.5t13.5 34.5q21 25 21 43zM565 1169 q0 26 -20 76q-11 24 -20 31t-25.5 8.5t-30.5 7.5q-5 2 -16.5 7.5t-17.5 8t-15.5 5t-18.5 2.5q-10 0 -26 -4q2 -13 7 -37t8 -43.5t3 -36.5q0 -20 -13 -58t-13 -59q0 -17 11 -52t7 -60h12q21 0 33 0.5t30.5 4.5t28.5 11t17.5 21t7.5 34q0 32 25.5 67.5t25.5 65.5zM907 453 q0 -46 -44 -125.5t-52 -110.5q-2 -10 -8 -39.5t-10 -47t-15 -39.5t-26 -34q-21 -16 -58 -23t-51 -14q-8 -4 -22.5 -11t-23.5 -10.5t-22 -7t-26 -3.5q-29 0 -88 14t-88 14t-84 -19.5t-84 -19.5q-28 0 -78 19.5t-70 38.5q9 52 9 69q0 28 -16.5 83t-16.5 83q0 27 22.5 78.5 t22.5 85.5q0 39 -26.5 110.5t-26.5 110.5q0 40 26.5 115t26.5 115q0 27 -14.5 77t-14.5 76q0 35 21.5 101.5t21.5 101.5q0 23 -20.5 63.5t-20.5 67.5q0 22 7.5 67t7.5 68q0 35 -15 70q49 18 86 18q17 0 50 -10t51 -10q17 0 56 18.5t71 18.5q23 0 67.5 -14.5t67.5 -14.5 q14 0 40 10.5t42 10.5q33 0 54.5 -8t31 -20.5t16.5 -26t17.5 -26.5t27.5 -20q4 -1 36 -9.5t51.5 -17.5t25.5 -22q26 -54 26 -84q0 -12 -8 -33t-8 -32q0 -22 15.5 -61.5t15.5 -59.5q0 -15 -21 -43.5t-24 -36.5q-8 -19 -10.5 -62.5t-10.5 -62.5q-6 -14 -45.5 -46t-38.5 -50 q61 -28 92 -67.5t31 -102.5q0 -15 -8 -45t-8 -45q0 -43 33.5 -93t33.5 -77z" />
<glyph unicode="C" horiz-adv-x="997" d="M969 399q0 -20 -18.5 -57t-18.5 -61q0 -7 3 -20.5t3 -20.5q0 -20 -14.5 -33.5t-31.5 -20t-31.5 -26t-14.5 -49.5q0 -43 -27.5 -77t-70.5 -34q-10 0 -32 2t-32 2q-14 0 -31 -14t-47.5 -28.5t-77.5 -14.5q-28 0 -50 7.5t-33 15.5t-33.5 27.5t-34.5 29.5q-25 20 -58.5 21 t-46.5 5q-15 5 -25 13.5t-16.5 23.5t-9.5 25t-7 30.5t-5 26.5q-4 20 -30.5 46t-52.5 56t-30 60q-4 36 -4 55t7 56t7 57q0 34 -25.5 94t-25.5 94q0 26 17.5 74t17.5 74q0 34 -27.5 94t-27.5 94q0 30 34.5 74t34.5 74q0 20 -7 59t-7 59q0 29 16.5 51t43.5 44.5t38 37.5 q9 14 18.5 47.5t22.5 51.5q20 26 60.5 40.5t79.5 14.5q20 0 48.5 17.5t65.5 35t78 17.5q34 0 59.5 -13t39 -29t37.5 -31.5t55 -19.5q57 -7 74.5 -33t17.5 -87q0 -25 37 -63.5t43 -49.5q13 -22 14.5 -51.5t5.5 -60t25 -58.5q-6 -8 -13 -14.5t-18 -11.5t-18 -8t-22 -5.5 t-19.5 -3.5t-22 -3.5t-18.5 -2.5q-19 -3 -40.5 -4.5t-31 -3t-23.5 -6t-28 -14t-35 -27.5q-7 13 -10 22.5t-3.5 14.5t0.5 18t1 22q0 21 -28 56t-28 73q0 72 -57 72q-42 0 -82.5 -33.5t-40.5 -74.5q0 -11 5 -34t5 -34q0 -25 -30.5 -64.5t-30.5 -68.5q0 -32 34 -84.5t34 -67.5 q0 -14 -19.5 -33t-19.5 -34q0 -5 2 -14.5t2 -14.5q0 -20 -18.5 -53t-18.5 -51q0 -35 37 -103.5t37 -83.5q0 -17 -8.5 -49t-8.5 -49q0 -53 49 -75.5t109 -22.5q11 0 15.5 6t4 13t-2 17.5t-1.5 14.5q0 17 17.5 32t21.5 25q8 16 11 53.5t12 55.5q15 -2 37 -2t34.5 -1t29.5 -7.5 t34 -20.5q76 -60 162 -51q2 -6 2 -19z" />
<glyph unicode="D" horiz-adv-x="1019" d="M662 897q0 19 -18.5 59.5t-18.5 69.5q0 10 1 30.5t1 30.5q0 32 -10.5 48.5t-38.5 31.5q-22 12 -32 29t-12 29t-21 21t-60 9q-6 0 -18.5 4.5t-18.5 4.5q-29 0 -29 -25q0 -14 26.5 -74t26.5 -90q0 -35 -21.5 -101.5t-21.5 -101.5q0 -30 20.5 -82t20.5 -71 q0 -36 -26.5 -100.5t-26.5 -100.5t19.5 -104.5t19.5 -104.5q12 -4 22 -4q26 0 42.5 10.5t33 30t31.5 29.5q19 13 31.5 44.5t23.5 43.5q1 2 6 7t7 8.5t2 8.5q0 10 -6.5 29t-6.5 29q0 29 22.5 72.5t22.5 62.5q0 22 -12 65t-12 66q0 17 15.5 42t15.5 44zM999 805q0 -15 -9 -43 t-9 -43q0 -17 8 -47t8 -47q0 -11 -20.5 -45t-20.5 -58q0 -20 12.5 -58t12.5 -58q0 -16 -38 -70t-44 -84q-4 -21 -21.5 -38t-36.5 -38.5t-26 -52.5q-7 -30 -25 -43t-48 -21t-46 -20q-23 -16 -88 -23.5t-92 -21.5q-34 -17 -51 -17q-18 0 -56.5 16.5t-64.5 16.5q-17 0 -47 -8 t-45 -8q-16 0 -45 7t-45 7t-44 -9t-40 -11q0 38 -19.5 110t-19.5 109q0 34 21.5 97t21.5 97t-18.5 99.5t-18.5 99.5q0 27 18.5 73t18.5 70q0 34 -19.5 99.5t-19.5 99.5q0 28 17.5 79t17.5 77q0 30 -19.5 85t-19.5 85q0 22 14.5 63t14.5 64t-12.5 67t-12.5 66q0 25 6 37 q17 10 33 10q20 0 56 -12.5t55 -12.5q16 0 54 17.5t68 17.5q15 0 46 -4t47 -4q22 0 64 12.5t63 12.5q32 0 59 -21q18 -13 59.5 -28t59.5 -29q16 -13 45.5 -50t68.5 -55q25 -12 37.5 -28.5t14.5 -30.5t4 -39t6 -41q4 -20 25.5 -44t21.5 -52q0 -20 20.5 -62t20.5 -69 q0 -19 -9.5 -57t-9.5 -58q0 -18 20.5 -62t20.5 -71z" />
<glyph unicode="E" horiz-adv-x="874" d="M834 1389q0 -15 -10.5 -44t-10.5 -45q0 -17 10 -34q-21 -35 -55 -35q-22 0 -54.5 18.5t-51.5 18.5q-20 0 -46 -22.5t-49 -22.5q-17 0 -50 9t-50 9t-41 -8q4 -16 4 -25q0 -20 -15.5 -47t-15.5 -37q0 -15 15.5 -42t15.5 -40q0 -12 -10 -34.5t-10 -36.5q17 -10 32 -10 q9 0 28 3t28 3q14 0 42 -9.5t42 -9.5t41 8.5t41 8.5q8 0 24 -4q2 -8 2 -23q0 -18 -14 -46.5t-14 -43.5q0 -19 21.5 -49.5t21.5 -50.5q0 -2 0.5 -19.5t0 -29t-2 -27t-7 -23.5t-14.5 -8q-12 0 -35 8t-35 8q-29 0 -50.5 -17t-47.5 -17q-12 0 -36 4t-36 4q-20 0 -36 -13 q0 -2 -1.5 -7t-1.5 -7q0 -22 18.5 -58t18.5 -52q0 -20 -13 -57t-13 -56t6 -37q2 0 7 -1t7 -1q9 0 27.5 6t27.5 6q12 0 27 -13t25 -13q13 0 35.5 16t37.5 16q16 0 42 -20.5t42 -20.5q14 0 47 18.5t52 18.5q10 0 16 -2q3 -15 4 -60.5t10 -68.5q4 -12 4 -18q0 -23 -17 -62.5 t-17 -46.5q0 -14 9.5 -37.5t10.5 -25.5q-17 -35 -53 -35q-22 0 -51 15.5t-39 15.5q-18 0 -51 -19.5t-54 -19.5q-19 0 -45 20.5t-41 20.5q-24 0 -53 -21q-3 2 -11 9t-14.5 10.5t-13.5 3.5q-13 0 -55.5 -18.5t-71.5 -18.5q-26 0 -45.5 8t-30.5 16.5t-16 8.5q-13 0 -39 -11.5 t-41 -11.5q-17 0 -29 6q-2 10 -2 29q0 17 11.5 50t11.5 50q0 19 -19.5 48.5t-19.5 46.5q0 14 26.5 67t26.5 84q0 21 -17.5 60t-17.5 61q0 5 12.5 23t12.5 40q0 19 -11 54t-11 53q0 30 14 87t14 87q0 23 -15.5 63.5t-15.5 55.5q0 12 11.5 32.5t11.5 32.5q0 21 -13.5 63.5 t-13.5 65.5q0 29 26 77t26 75q0 25 -24 64.5t-24 56.5q0 8 6.5 34t6.5 52q0 14 8 22q6 -2 16 -2q14 0 42 10.5t42 10.5q17 0 49.5 -14.5t51.5 -14.5q29 0 71.5 24.5t61.5 24.5q18 0 51.5 -12t52.5 -12q14 0 41 9t41 9q18 0 49 -11t49 -11q16 0 45 9t44 9q13 0 22 -6 q6 -12 6 -29q0 -12 -10 -32t-10 -33q0 -16 17.5 -43t17.5 -45z" />
<glyph unicode="F" horiz-adv-x="800" d="M782 1466q0 -20 -22.5 -48.5t-22.5 -57.5q0 -20 8.5 -58t8.5 -57q0 -14 -2 -22q-4 -2 -15 -2q-21 0 -62 12t-63 12q-19 0 -41.5 -18.5t-38.5 -18.5t-44 9.5t-44 9.5q-22 0 -41 -13q9 -35 9 -71q0 -21 -13.5 -62t-13.5 -63q0 -24 10 -51q23 -9 31 -9t32.5 11.5t45.5 11.5 t54 -16.5t52 -16.5q10 0 31 5t31 5q8 0 28 -4q-4 -12 -4 -20q0 -17 16.5 -43.5t16.5 -42.5q0 -18 -20.5 -45t-20.5 -43q0 -14 14.5 -35t14.5 -35q0 -17 -17 -47q-33 10 -61 10q-34 0 -53.5 -12.5t-32.5 -24.5t-29 -12q-17 0 -46 12.5t-44 12.5t-39 -8q-4 -12 -4 -19 q0 -12 5 -35t5 -35q0 -29 -22.5 -75.5t-22.5 -73.5q0 -20 14.5 -53t14.5 -51q0 -17 -11.5 -49t-11.5 -48q0 -18 13.5 -51t13.5 -51q0 -19 -12 -43q-18 8 -60 8q-29 0 -85 -11t-85 -11q-37 0 -77 16q14 54 14 94q0 21 -11.5 62t-11.5 63q0 16 11.5 42t11.5 42t-5 49t-5 49 q0 20 8 61t8 62q0 37 -18.5 107.5t-18.5 107.5q0 30 17.5 89t17.5 89q0 34 -22.5 89t-22.5 63q0 20 16.5 62.5t16.5 66.5q0 31 -25.5 76t-25.5 76q0 25 17 75.5t15 73.5q12 6 41 6q14 0 40 -4t40 -4q24 0 76.5 23.5t87.5 23.5q29 0 82 -20.5t80 -20.5q28 0 84 16.5t84 16.5 q19 0 65 -8q0 -21 22.5 -51t22.5 -50z" />
<glyph unicode="G" horiz-adv-x="1007" d="M971 598q0 -26 -30 -79t-30 -87q0 -18 11.5 -54t11.5 -54q0 -28 -11 -50.5t-25 -34t-25 -25.5t-11 -28q0 -6 1 -17t1 -17q0 -33 -21.5 -55.5t-56.5 -44t-49 -36.5q-18 -19 -27.5 -25t-28 -9.5t-32.5 -8.5q-66 -24 -100 -24q-32 0 -68 18q-25 12 -93 21.5t-91 27.5 q-16 12 -36.5 21t-29 20t-14.5 43q-6 30 -33 55.5t-50.5 46t-22.5 40.5q0 4 1 13t1 13q0 34 -14.5 60t-29 45t-14.5 35q0 20 13.5 58t13.5 58q0 26 -21.5 62t-21.5 47q0 17 8 49t8 49q0 19 -12 57t-12 58q0 18 9 52t9 52q0 20 -8 59t-8 60q0 25 17.5 71t17.5 70 q0 17 14.5 45t17.5 41q4 16 6 42.5t4.5 42t15.5 33t38 28.5q39 18 70.5 56t46.5 50q18 15 60 30.5t60 29.5q28 22 60 22q23 0 66 -14t67 -14q16 0 46 5t46 5q30 0 46.5 -9.5t35 -28.5t35.5 -30q24 -14 24 -49q0 -7 -1 -22.5t-1 -22.5q0 -30 34.5 -64.5t37.5 -64.5 q4 -39 2 -57t4 -38t27 -55q0 -12 -8 -32q-6 -5 -14 -7.5t-13 -2.5t-16 0.5t-15 0.5q-17 0 -46 -18t-50 -18q-7 0 -21.5 5t-21.5 5q-10 0 -34 -15.5t-42 -15.5q-6 0 -9.5 6t-4 16t0.5 19.5t2 19.5t1 13q0 11 -17.5 55.5t-21.5 44.5q-5 0 -14.5 -3t-14.5 -3q-11 0 -29 13.5 t-32 13.5q-23 0 -35 -9.5t-15 -22.5t-13 -29.5t-29 -26.5q-22 -11 -31.5 -23.5t-9.5 -34.5q0 -14 4 -44t4 -44q0 -30 -18.5 -72t-18.5 -63q0 -18 15.5 -43t15.5 -39q0 -23 -13.5 -69t-13.5 -70q0 -14 24.5 -72.5t24.5 -107.5q0 -24 19.5 -43.5t19.5 -34.5q0 -5 -2 -14.5 t-2 -14.5q0 -22 13 -39.5t34 -17.5q65 0 111.5 24t46.5 82q0 13 -4 37.5t-4 36.5q0 45 31 88q-7 9 -15.5 15t-20.5 8t-19.5 2.5t-23 0t-20.5 -0.5q-23 0 -39 8q-10 27 -10 51q0 19 12.5 54t12.5 53q0 13 -6.5 37t-6.5 36q0 9 4 25q16 4 27 4q17 0 49 -12.5t49 -12.5t50 13.5 t51 13.5q16 0 37 -13.5t34 -13.5t39 9.5t39 9.5q11 0 56 -15q6 -15 6 -34q0 -22 -16.5 -64t-16.5 -65q0 -21 17.5 -57t17.5 -56z" />
<glyph unicode="H" horiz-adv-x="1105" d="M1036 592q0 -26 -19.5 -77t-19.5 -79q0 -20 15.5 -58t15.5 -59t-14.5 -56t-14.5 -50q0 -19 12.5 -57t12.5 -58q0 -7 -2.5 -35.5t0.5 -35.5q-10 -7 -21 -10t-18 -3t-21 1t-22 1q-23 0 -45 -18t-41 -18q-20 0 -47 18t-37 18t-37 -8t-43 -8q-6 15 -6 33q0 15 9 43t9 43 q0 20 -11 43t-11 33q0 17 14.5 48t14.5 48q0 25 -19.5 66.5t-19.5 64.5q0 27 17.5 57.5t17.5 48.5q0 20 -14.5 58t-14.5 59q-28 8 -45 8q-19 0 -53 -16t-54 -16q-14 0 -43 3t-43 3q-2 -23 -18.5 -68.5t-16.5 -71.5q0 -29 19.5 -85t19.5 -85q0 -23 -14 -65t-14 -64t12 -65 t12 -66q0 -25 -6 -37q-17 -10 -33 -10q-19 0 -57 12.5t-57 12.5q-16 0 -48.5 -16.5t-56.5 -16.5q-7 0 -24.5 5.5t-39.5 14t-26 9.5q4 14 4 43q0 20 -7 56t-7 56q0 24 17.5 68t17.5 68q0 27 -29 90.5t-29 97.5q0 35 21.5 101.5t21.5 101.5q0 31 -20.5 83t-20.5 70 q0 35 27 99.5t27 99.5q0 34 -20.5 97.5t-20.5 97.5q0 36 18.5 104t18.5 104q0 30 -23 82q15 13 43 13q17 0 49 14t49 14q16 0 44.5 -7t43.5 -7q13 0 40 7t40 7t25 -6q-2 -12 -2 -39q0 -28 12 -84t12 -84q0 -34 -21.5 -98t-21.5 -98t21 -109t14 -117q2 0 7.5 -1t7.5 -1 q10 0 28.5 4.5t28.5 4.5q16 0 47 -9.5t47 -9.5q15 0 45.5 9.5t48.5 7.5q4 20 4 28q0 21 -12 59t-12 58q0 22 12 62t12 61q0 34 -17 97t-17 97q0 21 9.5 65.5t8.5 67.5q14 7 41 7q13 0 40 -4.5t40 -4.5q27 0 75 21.5t74 21.5q24 0 70 -16q6 -12 6 -29q0 -18 -11 -49.5 t-11 -48.5q0 -18 15 -48t15 -46q0 -8 -9 -28.5t-9 -35.5q0 -16 9 -45t9 -45q0 -13 -9 -33t-9 -28q0 -6 9 -22.5t9 -30.5q0 -24 -25.5 -74.5t-25.5 -79.5q0 -16 21.5 -66t21.5 -81q0 -15 -8 -46t-8 -47q0 -18 12 -53t12 -53z" />
<glyph unicode="I" horiz-adv-x="485" d="M440 313q0 -23 -14 -64t-14 -63t12 -65t12 -66q0 -27 -6 -39q-17 -10 -33 -10q-19 0 -55 12.5t-55 12.5t-48 -16.5t-53 -16.5q-38 0 -108 27q4 14 4 43q0 20 -8 58t-8 58q0 24 17 67t17 66q0 29 -28.5 92t-28.5 97q0 35 21.5 101.5t21.5 101.5q0 30 -20.5 81.5 t-20.5 71.5q0 36 27.5 100t27.5 99q0 34 -20.5 97t-20.5 97q0 37 18.5 109t18.5 109q0 49 -22 98q9 7 20 8t27.5 -1.5t23.5 -2.5q13 0 38 8t38 8q21 0 59 -14t58 -14q12 0 37 5t37 5q-2 -8 -2 -25q0 -30 15 -87t15 -87q0 -34 -21.5 -98t-21.5 -98t18.5 -98.5t18.5 -98.5 q0 -26 -18.5 -73t-18.5 -72q0 -34 19.5 -99.5t19.5 -99.5q0 -27 -17.5 -77t-17.5 -77q0 -29 19.5 -85t19.5 -85z" />
<glyph unicode="J" horiz-adv-x="972" d="M924 573q0 -25 -23.5 -70t-23.5 -71q0 -21 7 -61.5t7 -61.5q0 -29 -16.5 -51t-43.5 -44.5t-38 -37.5q-9 -14 -18.5 -47t-22.5 -51q-20 -26 -61 -40.5t-79 -14.5q-20 0 -48.5 -17.5t-66 -35t-77.5 -17.5q-34 0 -60 13t-39.5 28.5t-37.5 31t-54 19.5q-57 7 -74.5 33.5 t-17.5 87.5q0 25 -37 63.5t-43 49.5q-13 22 -14.5 51.5t-5.5 60t-25 58.5q6 8 13 14.5t18 11.5t18 8t22 5.5t19.5 3.5t22 3.5t18.5 2.5q19 3 40.5 5.5t31 4t23.5 6t28 14.5t35 27q6 -10 9 -17.5t4.5 -15t1.5 -12t-0.5 -15t-0.5 -18.5q0 -22 28 -57.5t28 -73.5q0 -72 55 -72 q43 0 84 35.5t41 77.5q0 11 -5 33t-5 33q0 23 31.5 63.5t31.5 79.5q0 29 -27.5 74t-27.5 71q0 13 5 37t5 37q0 6 -2 18.5t-2 18.5q0 20 19.5 54t19.5 55q0 30 -25.5 85t-25.5 87q0 21 6 61t6 61q0 23 -17.5 68t-17.5 68q0 26 9 89t6 99h8q15 0 43 -4t43 -4q21 0 60 16.5 t61 16.5q12 0 34 -7.5t35 -7.5q8 0 24.5 3t24.5 3q17 0 25 -8q-21 -54 -21 -94q0 -29 16.5 -85t16.5 -85q0 -17 -8 -53q-23 -79 -23 -176q0 -33 19.5 -93.5t19.5 -93.5q0 -25 -11 -72t-11 -71q0 -33 16.5 -95.5t16.5 -95.5z" />
<glyph unicode="K" d="M1085 1583q0 -17 -12 -37.5t-31.5 -44t-25.5 -33.5q-12 -18 -16.5 -62.5t-24.5 -64.5q-12 -13 -19.5 -23t-13 -22t-7.5 -18.5t-6.5 -25t-6.5 -27.5q-8 -32 -39 -55.5t-41 -41.5q-7 -12 -22.5 -54.5t-35.5 -63.5q-8 -8 -31 -29.5t-33 -33t-20 -33.5t-10 -46q0 -31 35 -79 t35 -78q0 -41 28.5 -76t34.5 -53t12.5 -62.5t16.5 -66.5q11 -25 44.5 -61.5t43.5 -53.5q17 -28 21.5 -66.5t11.5 -52.5q10 -19 34.5 -45t40 -51t15.5 -55q0 -31 12 -48q-8 -10 -19.5 -12.5t-30.5 0t-24 2.5q-19 0 -50 -15t-50 -15q-24 0 -58.5 18t-43.5 18q-2 0 -28.5 -8 t-47.5 -8q-26 30 -33 66.5t-16 52.5q-8 15 -28.5 35.5t-27.5 31.5q-11 16 -13.5 51t-8.5 48q-10 22 -43 67.5t-43 75.5q-10 31 -9.5 69t-10 66t-52.5 64q-6 -71 -6 -140q0 -29 19.5 -85t19.5 -85q0 -23 -14.5 -65t-14.5 -64t12.5 -63.5t12.5 -63.5q0 -25 -8 -41 q-17 -10 -33 -10q-19 0 -55 12.5t-56 12.5q-19 0 -50 -16.5t-56 -16.5q-36 0 -111 29q4 14 4 43q0 20 -7 57t-7 57q0 22 16.5 64t16.5 65q0 34 -29 96.5t-29 96.5q0 36 21.5 102.5t21.5 102.5q0 27 -19 76.5t-19 74.5q0 35 26.5 99.5t26.5 99.5q0 34 -20.5 97.5t-20.5 97.5 q0 36 18.5 104t18.5 104q0 30 -23 82q15 13 53 13q19 0 54 14t55 14q16 0 46 -7t46 -7t44 9t40 11v-20q0 -34 19.5 -99.5t19.5 -99.5q0 -37 -21.5 -105.5t-21.5 -105.5q0 -23 4 -70t4 -71q13 22 78.5 113.5t75.5 120.5q8 23 15 73.5t16 75.5q35 92 90 147q24 7 45 7 q12 0 37 -4.5t38 -4.5q33 0 93.5 22.5t93.5 22.5q35 0 67 -16z" />
<glyph unicode="L" horiz-adv-x="831" d="M786 227q0 -13 -17 -41t-17 -47q0 -10 7 -29.5t7 -29.5q0 -15 -6 -27q-13 -3 -26 -3.5t-31.5 0.5t-26.5 1q-39 0 -109.5 -28.5t-109.5 -28.5q-29 0 -87 16.5t-87 16.5q-17 0 -52.5 -5.5t-52.5 -5.5q-60 0 -100 23q18 70 18 121q0 20 -9 56t-9 56q0 14 10 41t10 41 q0 16 -5 49t-5 50q0 21 9 63t9 64q0 37 -18 107.5t-18 107.5q0 31 16 88t16 88q0 34 -22.5 89t-22.5 62q0 10 16.5 54t16.5 73q0 28 -25.5 76t-25.5 78q0 25 17.5 75.5t15.5 73.5q14 7 41 7q13 0 40 -4.5t40 -4.5q25 0 77.5 22.5t85.5 22.5q36 0 76 -16q6 -12 6 -29 q0 -18 -10 -49t-10 -49q0 -19 15.5 -49.5t15.5 -46.5q0 -6 -16.5 -42.5t-16.5 -62.5q0 -17 5 -48t5 -48q0 -21 -13.5 -61t-13.5 -62q0 -18 11.5 -49t11.5 -49t-11.5 -52t-11.5 -53q0 -23 12.5 -68t12.5 -69q0 -15 -9 -40t-9 -38q0 -12 5 -34t5 -35q0 -27 -22.5 -74 t-22.5 -74q0 -40 20 -69q46 8 68 8q23 0 68 -11.5t69 -11.5q16 0 45 14.5t57 14.5q33 0 68 -14q0 -18 10 -51t10 -50z" />
<glyph unicode="M" horiz-adv-x="1404" d="M1378 49q0 -3 -1 -9t-1 -9q-16 -4 -26 -4q-22 0 -64 13t-63 13q-17 0 -47 -17.5t-48 -17.5q-20 0 -57 9.5t-57 9.5v10q0 29 16.5 84.5t16.5 85.5q0 31 -26 84t-26 84q0 32 23.5 77.5t23.5 61.5q0 22 -15 65t-15 66q0 15 6 45t6 45q0 28 -10 58q-11 -15 -19 -65.5 t-12 -61.5q-5 -14 -31 -44t-26 -50q0 -6 2 -18.5t2 -18.5q0 -33 -18 -61t-36 -54t-18 -53q0 -17 5 -53t5 -54q0 -25 -12 -50.5t-32.5 -55.5t-28.5 -45q-54 -116 -60 -133l-18 4q-28 109 -60 160q-29 48 -37.5 73.5t-11.5 77.5q-3 42 -10 58.5t-27.5 35t-35.5 39.5 q-25 35 -38.5 97.5t-13.5 115.5q0 26 -9.5 52t-19.5 41.5t-30 43.5q-4 -8 -4 -26q0 -26 12 -74t12 -74q0 -15 -16 -52.5t-16 -68.5q0 -29 14 -88t14 -88q0 -23 -16 -64t-16 -63q0 -24 16 -68t16 -67q0 -2 -1 -7t-1 -7q-22 0 -63 -14.5t-64 -14.5q-17 0 -43 13.5t-39 13.5 q-15 0 -45 -10.5t-45 -10.5q-29 0 -53 9v10q0 20 8 60.5t8 60.5q0 18 -11 54t-11 54q0 30 16.5 90t16.5 90q0 34 -16.5 98.5t-16.5 98.5q0 21 11 63t11 64q0 28 -12 84t-12 84t11 84t11 84q0 41 -22.5 118.5t-22.5 118.5q0 15 9.5 44t9.5 44q0 19 -7.5 55t-7.5 54q0 11 4 35 q25 14 50 14q19 0 49 -13t43 -13q19 0 60.5 18t68.5 18q41 0 115 -24q0 -60 38.5 -136.5t38.5 -146.5q0 -32 15 -60t32.5 -45.5t32.5 -44t15 -55.5q0 -17 -6.5 -51t-6.5 -51q0 -19 7.5 -33.5t24 -33t22.5 -27.5q13 -18 26 -98t25 -105q29 31 37.5 70.5t9 89t8.5 78.5 q8 31 33 57.5t45 53.5t20 67q0 18 -5 56t-5 56q0 36 16 72t32 62.5t16 39.5q0 16 -7.5 49t-7.5 50q0 31 5.5 51t13 31.5t26.5 16.5t35.5 6t50.5 1q25 0 70.5 -19.5t73.5 -19.5q16 0 49 6.5t49 6.5q27 0 39 -2q4 -28 4 -41q0 -23 -9 -68.5t-9 -67.5q0 -38 28.5 -108.5 t28.5 -108.5q0 -39 -30 -99t-30 -77q0 -22 28 -82t28 -96q0 -29 -12.5 -85t-12.5 -85t17.5 -83t17.5 -83q0 -25 -13.5 -71t-13.5 -70q0 -18 11.5 -42t11.5 -36q0 -14 -9.5 -41t-9.5 -41q0 -22 17.5 -63t17.5 -66z" />
<glyph unicode="N" horiz-adv-x="1181" d="M1151 1405q0 -23 -19.5 -46t-19.5 -44q0 -25 15.5 -74t15.5 -74q0 -21 -13.5 -59t-13.5 -59q0 -17 8.5 -51t8.5 -52q0 -22 -13.5 -61.5t-13.5 -59.5q0 -21 14.5 -57t14.5 -57q0 -25 -16.5 -73t-16.5 -73q0 -17 8 -49t8 -49q0 -24 -12 -52.5t-12 -35.5q0 -9 15 -39t15 -51 q0 -27 -16 -61.5t-16 -47.5q0 -24 11 -70t11 -69q0 -17 -2 -25q-24 -14 -49 -14q-15 0 -41 11.5t-41 11.5q-17 0 -45 -19.5t-49 -19.5q-11 0 -25 11t-28 11q-18 0 -54 -9t-55 -9q-7 18 -40.5 60.5t-33.5 78.5q0 9 3 27.5t3 27.5q0 30 -38.5 72t-38.5 72v45q0 33 -7 54.5 t-17 30.5t-22.5 17.5t-22.5 16t-17 26t-7 47.5q0 46 -36 109q-25 -38 -25 -64q0 -12 5 -32t5 -31t-7 -33t-7 -33q0 -8 4 -23.5t4 -23.5q0 -16 -10 -44t-10 -42q0 -15 13 -43t13 -45q0 -24 -16.5 -68t-16.5 -67q0 -19 10.5 -55t10.5 -54q-20 -8 -35 -8q-12 0 -32.5 10.5 t-28.5 10.5q-9 0 -22.5 -17.5t-29.5 -17.5q-19 0 -46 16.5t-44 16.5q-18 0 -47 -17.5t-47 -17.5q-6 0 -18 4v14q0 22 12 51t12 43q0 13 -16 43.5t-16 51.5t18 58.5t18 53.5q0 8 -12 35t-12 45q0 15 8 46t8 46q0 27 -13 81t-13 81q0 35 18 102.5t18 102.5q0 22 -9 67t-9 68 q0 11 6 33t6 33q0 8 -2 25.5t-2 25.5q0 16 12.5 46t12.5 46q0 18 -12.5 52t-12.5 52q0 85 21 136q6 15 6 28q0 16 -8.5 49t-8.5 50q0 7 5 22h4q14 0 35.5 -15.5t33.5 -15.5q13 0 41 19.5t49 19.5q26 0 53 -19.5t37 -19.5q8 0 39.5 14.5t49.5 14.5q14 0 20 -2q6 -19 6 -72 q0 -25 33 -54t33 -56q0 -19 -8.5 -54t-8.5 -53q0 -20 34 -67t40 -68q4 -14 5 -28.5t0 -38t-1 -29.5q0 -20 7.5 -31t18 -18.5t21 -18.5t18 -38.5t7.5 -71.5q11 -26 44.5 -94t41.5 -78q10 23 10 47q0 12 -4 36t-4 37q0 18 12 48t12 45q0 19 -17 54t-17 56q0 26 23.5 62.5 t23.5 52.5q0 15 -18.5 61t-18.5 74q0 25 20.5 64.5t20.5 62.5q0 19 -11.5 55t-11.5 54q0 25 15 51q6 2 16 2q15 0 42 -9.5t42 -9.5q20 0 40.5 19.5t31.5 19.5t40 -14t46 -14q11 0 32 5t33 5q9 0 29 -4q2 -6 2 -21q0 -13 -9 -29.5t-9 -27.5q0 -15 9 -43t9 -43z" />
<glyph unicode="O" horiz-adv-x="1030" d="M682 920q0 34 -35 103t-35 81t7.5 35t7.5 35q0 17 -13.5 42.5t-15.5 38.5q0 3 -2 13.5t-2.5 13.5t-2.5 11.5t-4.5 11.5t-6.5 8.5t-9 7.5t-12 4t-16 2q-42 0 -83.5 -34.5t-41.5 -75.5q0 -11 5 -34t5 -34q0 -21 -16 -42t-31.5 -47.5t-15.5 -58.5q0 -26 22.5 -64t22.5 -54 q0 -15 -16.5 -41t-16.5 -41q0 -7 3 -20.5t3 -20.5q0 -16 -9 -47t-9 -47q0 -35 35.5 -103.5t35.5 -83.5q0 -17 -8 -47t-8 -47q0 -44 40 -76.5t85 -32.5q36 0 53 43q-4 12 -4 21q0 13 18.5 28t22.5 23q9 19 13 66t9 65q2 7 6.5 20t7 21.5t5 20.5t2.5 22q0 26 -19 64 q-8 15 -11.5 28t-4 20.5t0.5 24t1 27.5q0 7 -3 21.5t-3 21.5q0 21 21.5 54t21.5 53zM1010 557q0 -25 -27 -65t-27 -66q0 -5 1 -15.5t1 -15.5q0 -25 -17 -71t-17 -72q0 -20 -15 -37t-32.5 -27t-32.5 -25t-15 -32q0 -4 1 -12.5t1 -12.5q0 -43 -27 -74.5t-69 -31.5 q-10 0 -31.5 2t-31.5 2q-14 0 -32 -14t-49 -28.5t-77 -14.5q-28 0 -49.5 7.5t-32.5 15.5t-32.5 27.5t-34.5 29.5q-26 20 -60 21t-47 5q-15 5 -25 14t-16 23t-9 25t-6 30t-5 27q-4 20 -30.5 46t-52.5 56t-30 60q-4 36 -4 55t7 56t7 57q0 34 -25.5 94t-25.5 94q0 26 17.5 74 t17.5 74q0 34 -29 94t-29 94q0 30 36 74t36 74q0 20 -7 59t-7 59q0 29 15.5 51t42.5 44.5t38 37.5q9 14 20 49t23 50q20 26 60 40.5t79 14.5q20 0 49 17.5t66.5 35t77.5 17.5q34 0 59.5 -13t39 -29t37.5 -31.5t54 -19.5q61 -9 90 -31t29 -79q0 -20 14 -38.5t31 -31.5 t31 -34.5t14 -45.5q0 -7 -3 -21.5t-3 -21.5q0 -16 13.5 -38t13.5 -35q0 -20 -11.5 -57t-11.5 -56q0 -31 21.5 -86t21.5 -86q0 -25 -17.5 -73t-17.5 -74q0 -34 28 -95.5t28 -95.5z" />
<glyph unicode="P" horiz-adv-x="942" d="M604 1102q0 14 -22 45q-9 11 -13.5 34.5t-6.5 42.5t-16 34.5t-42 15.5q-9 0 -25.5 -4t-25.5 -4q-8 0 -23.5 3t-23.5 3q-2 0 -5.5 -1t-5.5 -1q-4 -8 -4 -25t11.5 -49t11.5 -49q0 -20 -18.5 -58.5t-18.5 -60.5q0 -48 22 -70q21 9 43 9q12 0 37 -7.5t37 -7.5q27 0 48.5 28.5 t30.5 61.5t9 60zM924 1133q0 -27 -34 -78t-34 -94q0 -15 8 -45t8 -46q0 -25 -16 -71q-19 -50 -43.5 -71.5t-46.5 -21.5t-55 -9t-60 -35q-31 -29 -56.5 -44.5t-57.5 -15.5q-13 0 -39 5t-39 5q-35 0 -49 -16q0 -2 1 -6t1 -6q0 -18 -14.5 -49t-14.5 -43q0 -20 13.5 -57 t13.5 -58q0 -25 -13.5 -71t-13.5 -70q0 -17 13.5 -45.5t13.5 -43.5t-1 -45t-1 -45q0 -31 2 -45q-50 -16 -74 -16q-23 0 -49 13.5t-33 13.5q-10 0 -39.5 -16.5t-54.5 -16.5q-55 0 -88 24q12 27 12 62q0 22 -8 67t-8 68q0 27 20.5 67.5t20.5 63.5q0 35 -21.5 101.5 t-21.5 101.5q0 27 14 77t14 76q0 40 -26.5 115t-26.5 115q0 39 26.5 110.5t26.5 110.5q0 34 -22.5 85.5t-22.5 78.5q0 29 16.5 83t16.5 83q0 23 -8 69q20 19 70.5 38.5t76.5 19.5q29 0 85 -19.5t85 -19.5t87 14t87 14q13 0 26.5 -3.5t22 -7t24 -11t21.5 -10.5 q14 -7 51.5 -14t59.5 -23q15 -12 26 -34t15 -39.5t10 -47t8 -39.5q7 -31 51 -109t44 -124z" />
<glyph unicode="Q" horiz-adv-x="1050" d="M672 918q0 35 -37 103.5t-37 82.5q0 16 8 47t8 47q0 44 -39 77.5t-83 33.5q-36 0 -54 -45q4 -12 4 -21q0 -12 -19 -25t-24 -24q-41 -209 -41 -213q0 -28 19 -66q11 -21 14 -34t0.5 -35.5t-2.5 -34.5q0 -7 3 -20.5t3 -20.5q0 -20 -21.5 -53t-21.5 -53q0 -34 35 -102.5 t35 -82.5q0 -13 -7 -35t-7 -34q0 -15 13 -41t15 -39q3 -19 5.5 -28.5t8.5 -21.5t17 -17t29 -5q43 0 81.5 33.5t38.5 75.5q0 13 -5 35t-5 34q0 23 32 65.5t32 82.5q0 26 -22.5 63t-22.5 53q0 17 17 44t17 42q0 6 -3 19.5t-3 19.5q0 16 9.5 46t9.5 47zM1026 -45 q-45 -9 -65.5 -23.5t-38.5 -54.5q-11 -23 -54.5 -53.5t-56.5 -50.5q-23 8 -32.5 25t-9.5 34.5t-11.5 37.5t-36.5 32q-21 10 -32.5 25.5t-21 37.5t-18.5 35q-21 -9 -48.5 -27t-51.5 -27t-60 -9q-34 0 -59.5 12.5t-39.5 28t-38.5 31t-54.5 20.5q-55 7 -73.5 31.5t-18.5 82.5 q0 23 -14 43t-31 33.5t-31 34.5t-14 45q0 7 2 20.5t2 20.5q0 16 -15.5 43t-15.5 43q0 12 5 36t5 36q0 34 -25.5 96t-25.5 96q0 26 17.5 74t17.5 74q0 34 -28.5 94t-28.5 94q0 23 12.5 43t25.5 48.5t13 72.5q0 26 18.5 71.5t18.5 71.5q0 20 14.5 37.5t31.5 27.5t31.5 25 t14.5 31q0 4 -1 12.5t-1 12.5q0 42 26.5 73t67.5 31q11 0 34 -2t34 -2q14 0 30.5 14.5t46.5 29.5t78 15q28 0 50.5 -7.5t33 -14.5t34 -27.5t34.5 -29.5q20 -15 35 -19t33.5 -4.5t35.5 -5.5q15 -5 25 -13.5t17 -24t10 -24.5t7 -30.5t5 -26.5q4 -20 29.5 -45.5t51 -55 t29.5 -59.5q4 -40 4 -61q0 -18 -6 -53t-6 -54q0 -34 25.5 -95t25.5 -95q0 -25 -17.5 -72t-17.5 -73q0 -34 28 -94.5t28 -94.5q0 -29 -35 -74.5t-35 -74.5q0 -20 7 -59t7 -58q0 -27 -14.5 -48t-44 -46.5t-37.5 -34.5l17.5 -17.5t13 -14t8 -10t7 -13t4.5 -16t6 -25.5 q6 -27 24 -42t36 -19t32.5 -16.5t15.5 -35.5z" />
<glyph unicode="R" horiz-adv-x="960" d="M610 1110q0 14 -22 45q-9 11 -13.5 34.5t-6.5 42.5t-16 34.5t-42 15.5q-9 0 -25.5 -4t-25.5 -4q-8 0 -23.5 3t-23.5 3q-2 0 -5.5 -1t-5.5 -1q-4 -8 -4 -25t11.5 -49t11.5 -49q0 -20 -18.5 -58.5t-18.5 -60.5q0 -46 23 -69q19 8 43 8q13 0 37 -7t36 -7q27 0 48.5 28 t30.5 61.5t9 59.5zM930 1141q0 -27 -34 -78t-34 -94q0 -15 8.5 -44.5t8.5 -45.5q0 -63 -38 -113t-98 -78q-2 -8 -2 -26q0 -47 9.5 -76t29.5 -62.5t31 -62.5q8 -21 9.5 -44.5t-1 -55.5t-2.5 -44q0 -24 38 -77t38 -86q0 -14 -4 -39t-4 -39q28 -58 33 -74q-13 -16 -33 -16 q-10 0 -31 4t-31 4q-16 0 -50 -13.5t-54 -13.5q-22 0 -35 8q-19 9 -53 13t-43 6q4 24 4 37q0 27 -24.5 71.5t-24.5 73.5q0 12 4 38t4 38q0 49 -20 93.5t-40 92t-20 105.5q0 34 -11 47.5t-44 13.5q0 -2 1 -6t1 -6q0 -18 -14.5 -49t-14.5 -43q0 -20 13.5 -57t13.5 -58 q0 -25 -13.5 -71t-13.5 -70q0 -17 13.5 -45t13.5 -43t-1 -44.5t-1 -45.5q0 -32 2 -46q-50 -16 -74 -16q-23 0 -49 13.5t-33 13.5q-8 0 -54 -23.5t-75 -23.5q-31 0 -57 16q14 35 14 76q0 25 -7 71.5t-7 71.5q0 27 20.5 67.5t20.5 63.5q0 35 -21.5 101.5t-21.5 101.5 q0 27 14 77t14 77q0 40 -26.5 114.5t-26.5 114.5q0 39 26.5 110.5t26.5 110.5q0 34 -22.5 85.5t-22.5 78.5q0 29 16.5 83t16.5 83q0 23 -8 69q18 18 69 38t78 20q29 0 84.5 -19.5t85.5 -19.5q29 0 87 14.5t87 14.5q13 0 26.5 -3.5t22.5 -7.5t24 -11.5t22 -10.5q14 -7 51 -14 t59 -23q15 -12 26 -34t15.5 -39.5t10.5 -47.5t8 -39q7 -31 50.5 -109t43.5 -124z" />
<glyph unicode="S" horiz-adv-x="972" d="M948 1229q-70 -70 -112 -70q-8 0 -26 3t-26 3q-17 0 -31.5 -5t-22.5 -10.5t-23.5 -17.5t-24.5 -18q-22 6 -26 28.5t-7 48t-22 34.5q-16 7 -27.5 20.5t-17.5 24.5t-21 19.5t-39 8.5q-13 0 -26 -9t-19 -16t-16 -22q-8 -12 -28 -28.5t-33 -33t-13 -36.5q0 -15 9.5 -40 t9.5 -40v-22.5t2.5 -18t7 -16.5t14 -8t23.5 -4q33 0 76.5 -28t66.5 -28q14 0 38 6.5t38 6.5q29 0 47.5 -22.5t30 -50t20.5 -32.5q13 -8 36.5 -11.5t40.5 -11.5t25 -30q4 -12 6.5 -48t16.5 -55q31 -45 31 -73q0 -19 -15.5 -54t-15.5 -55q0 -13 24.5 -48t24.5 -62 q0 -26 -17.5 -51.5t-35 -46t-17.5 -34.5q0 -8 1.5 -23.5t1.5 -23.5q0 -37 -11.5 -55t-26.5 -20.5t-37.5 -5.5t-35.5 -11q-9 -5 -12 -25.5t-5.5 -40t-28 -35.5t-75.5 -16q-12 0 -31 8.5t-30 8.5q-27 0 -55.5 -24.5t-53.5 -24.5q-40 0 -77.5 20.5t-51.5 20.5t-40 -9.5 t-40 -9.5q-12 0 -29.5 17.5t-36 41t-26.5 29.5q-22 18 -31 32.5t-15 43t-11 41.5q-6 18 -21.5 33t-30.5 24t-26.5 28t-11.5 46v27q17 2 30.5 11t21 19t17 19t19.5 10q47 5 74 18.5t35.5 27.5t29 31.5t53.5 27.5q15 -17 28 -26q8 -5 11 -31q2 -15 4 -25q6 -34 25.5 -53.5 t21.5 -30.5q0 -1 1 -7.5t2 -11t3 -9.5t5 -8t8 -3q8 0 22.5 4t22.5 4q12 0 31.5 -8t29.5 -8q26 0 47 27.5t21 54.5q0 10 -5 29.5t-5 29.5q0 11 7 32t7 33q0 34 -15 46.5t-38 20.5t-33 26q-14 25 -28 36t-40 11q-12 0 -34 -5.5t-33 -5.5q-16 0 -40.5 26t-41.5 32 q-27 10 -41.5 24.5t-27.5 38t-25 37.5q-13 15 -37.5 23t-44 10.5t-34.5 16t-15 40.5q0 17 11 49t11 48t-19.5 37.5t-19.5 41.5q0 22 20.5 57.5t20.5 55.5t-16.5 51t-16.5 43q0 9 6 21t18 25.5t21.5 23t23.5 23t17 16.5q19 20 43 67t41 66q15 17 28.5 27t30.5 14t26 5t34.5 0 t36.5 -1q26 0 65 17.5t58 17.5q7 0 20.5 -3t20.5 -3q17 0 47 10t47 10q13 0 43 -18t65 -42.5t44 -29.5q26 -15 35 -60t20 -59q8 -11 30 -28t37 -33.5t15 -34.5q0 -22 18 -92z" />
<glyph unicode="T" horiz-adv-x="923" d="M905 1421q0 -11 -16.5 -35.5t-16.5 -39.5q0 -8 6.5 -24t6.5 -24q0 -18 -13 -53q-16 -4 -24 -4q-12 0 -32 8t-32 8q-13 0 -29.5 -18t-31.5 -18q-11 0 -30 7t-31 7h-17q-22 -55 -22 -72q0 -12 12 -31.5t12 -35.5q0 -24 -25.5 -74t-25.5 -80q0 -16 21.5 -66t21.5 -81 q0 -17 -9 -47t-9 -46q0 -19 13 -53.5t13 -52.5q0 -26 -19.5 -77t-19.5 -79q0 -21 14.5 -59.5t14.5 -58.5q0 -22 -13.5 -56t-13.5 -49q0 -19 12.5 -56.5t12.5 -56.5q0 -6 -2.5 -36t0.5 -37q-10 -7 -21 -10t-18 -3t-21 1t-22 1q-23 0 -46 -18t-38 -18q-24 0 -51.5 18t-32.5 18 q-9 0 -29.5 -8t-34.5 -8q-3 0 -9 1t-9 1q-6 15 -6 33q0 14 9 41t9 41q0 24 -12 45.5t-12 30.5q0 17 15 49t15 49q0 25 -19 66.5t-19 64.5q0 27 17 59t17 50q0 21 -14 59t-14 59q0 25 16 57t16 46q0 6 -22.5 40t-22.5 62q0 24 17.5 68t17.5 67q0 21 -12 59t-12 58q0 18 10 53 t10 54v18q-9 6 -22 6q-14 0 -38.5 -12t-35.5 -12q-9 0 -24 10t-25 10q-14 0 -38.5 -9t-37.5 -9t-33 8q-2 6 -2 18q0 15 11.5 43t11.5 43q0 19 -16.5 43t-16.5 35q0 15 11 41.5t11 40.5q0 7 -5 21.5t-5 21.5q0 11 8 31q12 -6 27 -6q13 0 39.5 7t40.5 7q16 0 47 -10.5 t47 -10.5t45 16.5t45 16.5q12 0 35 -8t35 -8q10 0 26.5 9t26.5 9q17 0 46 -9t46 -9q13 0 35 8t35 8q19 0 45.5 -13t36.5 -13q25 0 46.5 15t31.5 15q12 0 39.5 -10t54.5 -2q2 -6 2 -16q0 -12 -11.5 -32t-11.5 -34q0 -17 18.5 -39t18.5 -35z" />
<glyph unicode="U" horiz-adv-x="1122" d="M1069 1370q0 -7 -15.5 -41.5t-15.5 -58.5q0 -9 4.5 -28t4.5 -28q0 -13 -8.5 -33t-8.5 -28q0 -6 8.5 -22t8.5 -29q0 -24 -25 -73t-25 -79q0 -17 20.5 -66.5t20.5 -80.5q0 -18 -6 -53t-6 -52q0 -16 14.5 -52t14.5 -60t-19.5 -67t-19.5 -68q0 -7 1 -20.5t1 -20.5 q0 -24 -13.5 -72t-13.5 -72q0 -23 -15 -40t-37.5 -33.5t-31.5 -30.5q-9 -13 -15.5 -50.5t-21.5 -52.5q-12 -12 -25 -20t-21.5 -12.5t-25.5 -6.5t-23 -2.5t-29 0t-29 0.5q-13 0 -31 -14t-50 -28.5t-79 -14.5q-52 0 -93 19.5t-91 58.5q-20 15 -35.5 19t-34 4.5t-35.5 5.5 q-15 5 -25 13.5t-16.5 23.5t-9.5 24.5t-7 30t-5 26.5q-4 20 -30.5 46t-52.5 56t-30 60q-4 36 -4 55t7 58t7 59q0 24 -10 71.5t-10 70.5q0 10 4 29.5t4 29.5q0 31 -20.5 83t-20.5 70q0 36 26.5 100.5t26.5 100.5q0 33 -19.5 96.5t-19.5 96.5q0 36 17.5 105.5t17.5 105.5 q0 33 -22 82q14 12 59 12q19 0 52 13t51 13q16 0 46 -7t46 -7t44 9.5t40 11.5q0 -38 19.5 -110.5t19.5 -109.5q0 -34 -21.5 -98t-21.5 -98q0 -26 16 -73t16 -73q0 -20 -17 -54t-17 -54q0 -24 12 -69t12 -68t-12 -67t-12 -66q0 -43 16 -83.5t32.5 -68.5t16.5 -39 q0 -13 -5 -35t-5 -34q0 -42 33.5 -81.5t74.5 -39.5q42 0 58 53q0 2 -1 7t-1 7q0 12 9 21t20.5 13.5t20.5 15t9 26.5q0 14 -5 39t-5 39q0 25 20.5 67.5t20.5 65.5q0 15 -12 43q-8 16 -12 29.5t-4.5 20t0.5 24t1 28.5q0 7 -3 20.5t-3 20.5q0 19 21.5 54.5t21.5 62.5 q0 30 -21.5 84t-21.5 84q0 22 12.5 64t12.5 63q0 34 -16.5 98.5t-16.5 98.5q0 21 8.5 64t7.5 67q14 6 43 6q13 0 40 -4t40 -4q24 0 77.5 22.5t86.5 22.5t76 -17q6 -12 6 -26q0 -17 -11.5 -49t-11.5 -50q0 -19 15.5 -49.5t15.5 -46.5z" />
<glyph unicode="V" horiz-adv-x="1044" d="M1049 1552v-10q0 -31 -39 -89t-39 -85q0 -22 10 -67t10 -68q0 -43 -55 -122.5t-62 -121.5q-3 -17 -3.5 -35t0.5 -42.5t1 -34.5q0 -58 -26.5 -119t-53 -118.5t-26.5 -104.5q0 -23 4 -67.5t4 -66.5q0 -34 -10 -61.5t-22.5 -44t-28 -42t-23.5 -50.5t-8.5 -97t-22.5 -106 q-8 -2 -22 -2q-26 0 -41 16.5t-25 16.5q-27 0 -75 -20.5t-74 -20.5q-18 0 -53.5 21.5t-65.5 11.5q-14 35 -14 77q0 20 8 58t8 57q0 43 -34.5 119.5t-34.5 118.5q0 25 9 75t9 76q0 37 -16 67.5t-35 50.5t-35 62.5t-16 100.5q0 19 5 54t5 54q0 22 -7.5 43.5t-14 33t-24.5 36 t-24 33.5q-11 17 -16 42.5t-5 44t1.5 50t1.5 43.5q0 19 -18.5 53t-38 76.5t-21.5 81.5q4 3 17 11l19.5 12t18 8t21.5 4q15 0 49.5 -16.5t58.5 -16.5q28 0 72.5 20.5t64.5 20.5q18 0 45 -15t37 -18q11 -37 11 -65q0 -23 -12.5 -68t-12.5 -68q0 -21 20 -59t23 -57 q3 -1 1.5 -42t-1.5 -42q0 -34 27.5 -93.5t27.5 -93.5q0 -16 -8 -46t-8 -46q0 -60 43 -137q12 35 21 100.5t12 79.5q7 35 16.5 58t14 45t4.5 75q0 34 14.5 64t32.5 49.5t32.5 52.5t14.5 74q0 19 -6.5 57t-6.5 58q0 64 17 116q8 1 36 8t44 7q8 0 40 -14.5t58 -14.5 q27 0 63.5 16.5t53.5 16.5q19 0 78 -19z" />
<glyph unicode="W" horiz-adv-x="1421" d="M1450 1556q-2 -45 -36.5 -123.5t-33.5 -105.5q0 -13 2 -39t2 -39q0 -42 -14 -77.5t-30 -56t-30 -51t-14 -63.5q0 -17 5.5 -50t5.5 -50q0 -39 -16.5 -72t-36 -54.5t-36 -61t-16.5 -88.5q0 -29 9.5 -86t9.5 -86q0 -42 -31 -119t-31 -119q0 -19 8.5 -58.5t8.5 -58.5 q0 -43 -15 -80q-39 -30 -61 -30q-24 0 -67 20.5t-62 20.5q-15 0 -41 -13.5t-41 -13.5q-11 0 -34 3t-34 3v21q0 34 -24.5 95.5t-24.5 94.5q0 22 10.5 65.5t10.5 65.5q0 26 -27 76t-27 84q0 10 2 29.5t2 29.5q0 35 -30 86q-14 -25 -22 -52.5t-10.5 -45t-6.5 -55.5 q-3 -28 -21 -55.5t-37.5 -45.5t-35 -45t-15.5 -57q0 -31 19.5 -90t19.5 -90q0 -45 -47 -121q-36 -16 -57 -16q-33 0 -67 20.5t-58 20.5q-27 0 -56 -18.5t-57 -18.5q-4 0 -12 1t-12 1q-15 30 -15 67q0 18 3 51.5t3 51.5q0 39 -33.5 104.5t-33.5 104.5q0 31 10 90t10 90 q0 41 -39 133.5t-39 146.5q0 23 5.5 70t5.5 70q0 40 -23 85t-46 86t-23 70q0 26 15 78t15 78t-28.5 83.5t-28.5 86.5q0 12 2 18q32 20 52.5 27.5t53.5 7.5q22 0 59 -17.5t52 -17.5q6 0 36.5 16.5t53.5 16.5q9 0 72 -10q10 -41 10 -100q0 -29 -12.5 -86t-12.5 -86 q0 -33 11.5 -62t25.5 -46.5t25.5 -43.5t11.5 -55q0 -18 -5 -53t-5 -52q0 -18 6 -37.5t12 -31.5t19.5 -35t17.5 -31q2 37 26.5 101t29.5 87q24 101 24 181q0 29 18.5 64.5t18.5 49.5q0 13 -6 38t-6 38q0 45 32 131q27 10 87 10q19 0 53 -9t51 -9q27 0 53 16q25 -22 25 -55 q0 -25 -15.5 -72t-15.5 -73q0 -28 34 -98t34 -111q0 -25 -7.5 -72t-7.5 -72q0 -77 37 -122q8 42 45 108t47 96q9 27 10.5 80.5t2.5 65.5q3 20 22 59t19 60q0 28 -14.5 80t-14.5 79q0 35 8 62q54 16 82 16q32 0 80 -18.5t65 -18.5q15 0 46 13.5t49 13.5q27 0 57 -19z" />
<glyph unicode="X" d="M1110 1563q0 -19 -35.5 -55t-38.5 -40q-14 -21 -17 -63t-24 -64q-10 -10 -17.5 -20t-11.5 -15.5t-8.5 -18.5t-5.5 -16.5t-5 -22t-5 -23.5q-8 -33 -39.5 -56t-40.5 -41q-9 -17 -13.5 -63t-27.5 -70q-38 -40 -52 -59t-13.5 -27t-3 -32.5t-17.5 -61.5q6 -11 16 -26t15.5 -23 t9.5 -22.5t4 -32.5q0 -41 29 -76t35 -53q6 -19 12 -63t16 -66q11 -25 45 -61.5t44 -53.5q17 -28 21 -66.5t11 -52.5q10 -19 34.5 -45t40 -51t15.5 -55t13 -48q-10 -10 -23 -10q-11 0 -32.5 6.5t-32.5 6.5q-17 0 -43.5 -21.5t-46.5 -21.5q-22 0 -56 18t-43 18q-2 0 -28 -8 t-48 -8q-25 31 -32.5 67t-16.5 52q-7 14 -27.5 34.5t-27.5 32.5q-5 9 -6.5 19t-0.5 27.5t1 21.5q0 32 -19 49q-25 22 -36.5 60.5t-28.5 54.5q-5 -6 -19 -22.5t-22 -27t-17.5 -25t-13.5 -26.5q-9 -24 -15.5 -74.5t-15.5 -74.5q-35 -93 -90 -148q-21 -6 -45 -6q-13 0 -38 4.5 t-37 4.5q-24 0 -67 -17.5t-67 -17.5q-16 0 -30.5 4.5t-38 16.5t-27.5 14q0 17 7 30.5t21 30.5t19 25q12 19 16 63t23 64q10 10 17.5 20t11.5 15.5t8.5 18.5t5.5 16.5t5 22t5 23.5q8 33 40.5 66t41.5 53q9 17 15 61t28 68q90 95 90 158q0 28 -32.5 72t-32.5 75q0 33 -17.5 58 t-35 53.5t-17.5 68.5q0 27 -17 54t-44 55.5t-37 44.5q-17 28 -21.5 66.5t-11.5 52.5q-10 19 -34.5 45t-40 51t-15.5 55t-12 47q8 11 26 11q11 0 32.5 -4t33.5 -4q18 0 42 19t42 19q23 0 58 -18t44 -18q5 0 30 8t44 8q25 -31 32.5 -67t16.5 -52q8 -14 29.5 -35t28.5 -32 q11 -16 12.5 -50.5t7.5 -48.5q8 -18 44.5 -61t41.5 -62q27 36 42.5 76.5t23 77t16.5 74t31.5 79t60.5 80.5q25 7 45 7q12 0 38 -4.5t38 -4.5q26 0 74 17.5t75 17.5q55 0 109 -26z" />
<glyph unicode="Y" d="M1110 1556q-9 -15 -14 -48t-13 -48q-10 -20 -37.5 -51t-37.5 -51q-7 -15 -12.5 -53t-22.5 -66q-12 -20 -31.5 -42.5t-31.5 -36t-21.5 -38.5t-9.5 -57q0 -22 -11.5 -41t-24.5 -32.5t-24.5 -39.5t-11.5 -59q0 -11 -22.5 -39t-45 -66.5t-22.5 -74.5t21.5 -103.5t21.5 -103.5 q0 -35 -29 -96.5t-29 -96.5q0 -23 16.5 -65t16.5 -64q0 -20 -5.5 -53t-8 -53t3.5 -53q-79 -27 -111 -27q-25 0 -53 16.5t-45 16.5q-20 0 -55 -12.5t-55 -12.5q-16 0 -33 10q-8 16 -8 41q0 23 13 65t13 64t-14.5 63t-14.5 64q0 29 18.5 85t18.5 85q0 18 -16 48t-16 57 q0 30 14 81.5t16 75.5q11 18 11 37q0 21 -15.5 53.5t-17.5 38.5q-27 82 -78 136q-22 23 -36.5 65t-20.5 53q-10 19 -41 42.5t-39 54.5q-1 5 -4 18t-4 17l-3.5 14t-4.5 14l-6 12t-8 13.5t-10 12.5t-14 15q-21 22 -23.5 64t-16.5 63q-4 7 -34 33.5t-30 44.5q5 2 18.5 9 t19.5 10t18.5 8t21 7.5t20 4.5t21.5 2q23 0 65 -16.5t64 -16.5q12 0 38 4.5t38 4.5q20 0 45 -7q55 -55 90 -147q9 -25 16 -75.5t15 -73.5q4 -12 12.5 -26t14 -21.5t19.5 -24.5t17 -21q3 31 13 50.5t20 26.5t23 19.5t20 28.5q6 14 7.5 48.5t12.5 50.5q7 11 28.5 32t29.5 35 q9 16 16 52t33 67h16q19 0 36 -8t19 -8q11 0 46 18t57 18q18 0 43 -19t43 -19q12 0 33 4t32 4q19 0 27 -11z" />
<glyph unicode="Z" horiz-adv-x="872" d="M831 207q0 -23 -17 -62.5t-17 -46.5q0 -14 9.5 -37.5t10.5 -25.5q-17 -35 -53 -35q-22 0 -51 15.5t-39 15.5q-18 0 -51.5 -19.5t-53.5 -19.5q-21 0 -46.5 20.5t-39.5 20.5q-24 0 -53 -21q-3 2 -11 9t-14.5 10.5t-13.5 3.5q-13 0 -55.5 -18.5t-71.5 -18.5q-26 0 -45.5 8 t-30.5 16.5t-16 8.5q-14 0 -41 -10.5t-41 -10.5q-18 0 -33 6q-2 8 -2 27q0 25 14.5 55t14.5 45q0 16 -15.5 37t-15.5 33q0 8 5 24.5t5 24.5q0 9 -2 26.5t-2 26.5q0 39 15.5 63t40 47t35.5 46q9 17 15 61.5t28 67.5q96 99 96 225q0 32 6 49t13.5 20.5t21 11.5t22.5 20 q14 18 17.5 42t3.5 43t19 50t61 65q0 7 -1 20.5t-1 20.5q0 33 10 66q-15 6 -33 6t-50 -12.5t-50 -12.5q-22 0 -54 16.5t-49 16.5q-19 0 -52.5 -17.5t-55.5 -17.5q-32 0 -54 33q11 18 11 35q0 16 -10.5 44t-10.5 44q0 18 17.5 46t17.5 46q0 9 -10 28.5t-10 35.5q0 2 6 26 q12 6 24 6q14 0 43 -8t43 -8q21 0 54.5 19.5t52.5 19.5q12 0 36 -8t38 -8q18 0 51.5 12t52.5 12t61.5 -24.5t71.5 -24.5q19 0 52.5 14.5t50.5 14.5q15 0 43.5 -11t54.5 -8q4 -5 6 -11.5t2.5 -10.5t0 -13t-0.5 -12q0 -14 10 -40.5t10 -41.5q0 -24 -17 -65.5t-17 -61.5 q0 -14 8 -43t8 -43q0 -28 -15.5 -54.5t-37.5 -51t-43.5 -53.5t-37 -75t-15.5 -102q0 -61 -17.5 -110t-38 -74t-38 -57t-17.5 -62q0 -9 4 -27.5t4 -27.5q0 -18 -59 -74.5t-72 -91.5q2 0 7 -1t7 -1q8 0 24 6t24 6q12 0 25.5 -14t23.5 -14q13 0 35.5 16t37.5 16q16 0 42 -20.5 t42 -20.5q14 0 47 18.5t52 18.5q10 0 16 -2q3 -15 4 -60.5t10 -68.5q4 -12 4 -18z" />
<glyph unicode="[" horiz-adv-x="823" d="M772 1505q0 -17 -10 -38t-10 -25q0 -7 10 -27q-22 -33 -53 -33q-25 0 -50.5 17.5t-40.5 17.5q-23 0 -37 -21.5t-34 -21.5q-15 0 -42 9.5t-42 9.5q-10 0 -37 -9q4 -16 4 -26q0 -22 -15.5 -65t-15.5 -66q0 -27 15.5 -82t15.5 -82q0 -25 -10 -74t-10 -74q0 -26 19.5 -70 t19.5 -67q0 -32 -21.5 -91t-21.5 -89q0 -36 18 -103.5t18 -103.5q0 -27 -14 -79t-14 -79q0 -17 6 -32q2 0 6 -1t6 -1q8 0 22 6t19 6q10 0 23 -13.5t22 -13.5t25.5 16.5t29.5 16.5q17 0 35 -20.5t29 -20.5q12 0 45 18.5t53 18.5q11 0 17 -2q2 -8 4.5 -39.5t9.5 -48.5 q4 -12 4 -17q0 -18 -17.5 -48t-17.5 -38q0 -7 10 -25t11 -22q-17 -34 -54 -34q-22 0 -52 15t-38 15q-15 0 -40.5 -19.5t-43.5 -19.5q-22 0 -37.5 20.5t-27.5 20.5q-18 0 -53 -20q-3 1 -16 11.5t-21 10.5t-45 -18t-66 -18q-26 0 -45 8t-29.5 16t-15.5 8q-13 0 -39 -11 t-41 -11q-17 0 -29 6q-2 10 -2 29q0 18 11.5 50t11.5 50q0 19 -19.5 48t-19.5 46q0 13 26.5 75t26.5 97q0 21 -17.5 60t-17.5 61q0 2 12.5 26.5t12.5 49.5q0 19 -11 57t-11 57q0 29 14 88t14 89q0 24 -15.5 68t-15.5 67q0 15 11.5 44t11.5 44q0 24 -13.5 72.5t-13.5 74.5 q0 33 26 93.5t26 93.5q0 27 -24 66.5t-24 56.5q0 9 6.5 35t6.5 51q0 14 8 22q6 -2 16 -2q15 0 42.5 10t41.5 10q17 0 49.5 -14t51.5 -14q29 0 71.5 24.5t61.5 24.5q16 0 46 -12.5t46 -12.5q14 0 36.5 9.5t31.5 9.5q6 0 25 -11.5t38 -11.5q15 0 44 9.5t44 9.5q14 0 23 -6 q6 -24 6 -27q0 -10 -10.5 -22.5t-10.5 -22.5q0 -17 17.5 -36t17.5 -34z" />
<glyph unicode="\" d="M1110 8q-54 -26 -109 -26q-27 0 -76 18t-75 18q-12 0 -36.5 -4t-37.5 -4q-24 0 -45 6q-56 56 -90 146q-10 25 -16 76.5t-15 74.5q-10 29 -63 90q-4 4 -14 15.5t-15 16.5t-13 15.5t-12 18t-9 17.5t-7 20.5t-2 21.5q0 7 4 21.5t4 21.5q0 27 -11.5 45t-28.5 29.5t-34.5 24 t-31 36.5t-15.5 58q-1 10 -0.5 28t-0.5 32.5t-5 27.5q-3 11 -9.5 23.5t-17.5 27t-19 24t-22 25t-18 19.5q-22 24 -28 68t-15 61q-9 18 -41.5 51.5t-40.5 67.5q-1 5 -4 18.5t-4 17t-3.5 13.5t-4.5 14t-5.5 11.5t-7.5 13t-10 13t-14 15.5q-21 22 -23 64.5t-16 64.5 q-5 7 -19 23.5t-21 30t-7 30.5q7 3 23 11t25 12t23.5 8t26.5 4q23 0 66.5 -17.5t67.5 -17.5q12 0 36 4t37 4q24 0 45 -6q57 -57 90 -145q10 -25 16 -76.5t15 -75.5q7 -19 35.5 -51t36.5 -49q16 -31 26 -95.5t23 -92.5q13 -29 33.5 -50t34.5 -43.5t20 -66.5q5 -35 31 -119 q15 -45 88 -123q22 -23 36.5 -65.5t20.5 -53.5q10 -18 41 -40.5t39 -55.5q2 -9 6.5 -28.5t6.5 -25t7.5 -18.5t13 -22.5t19.5 -22.5q20 -21 24.5 -66t16.5 -63q3 -5 38.5 -40t35.5 -54z" />
<glyph unicode="]" horiz-adv-x="823" d="M772 1417q0 -13 -26.5 -75t-26.5 -97q0 -22 18.5 -62.5t18.5 -58.5q0 -1 -12.5 -27t-12.5 -50q0 -19 10.5 -56.5t10.5 -56.5q0 -31 -14.5 -90t-14.5 -88q0 -24 15.5 -67t15.5 -66q0 -15 -11.5 -44t-11.5 -44q0 -24 13.5 -73t13.5 -75q0 -33 -25.5 -93t-25.5 -93 q0 -29 24.5 -69t24.5 -56q0 -9 -10 -57.5t-13 -51.5q-6 2 -16 2q-15 0 -41 -9t-41 -9q-19 0 -52 14.5t-51 14.5q-29 0 -71.5 -25t-61.5 -25q-17 0 -46 12.5t-46 12.5q-14 0 -37 -10.5t-32 -10.5q-6 0 -24.5 11.5t-37.5 11.5q-14 0 -43 -8t-43 -8q-12 0 -24 6q0 1 -3.5 11 t-3.5 15q0 10 10.5 22.5t10.5 22.5q0 17 -17.5 36t-17.5 34q0 17 10.5 38.5t10.5 25.5t-11 26q22 33 54 33q25 0 50 -17.5t40 -17.5q23 0 37 21.5t34 21.5q14 0 42 -9t42 -9q13 0 37 8q-4 16 -4 27q0 22 15.5 65t15.5 66q0 27 -15.5 81t-15.5 82q0 24 10.5 74t10.5 74 q0 26 -19.5 70t-19.5 67q0 32 21.5 91t21.5 89q0 36 -18.5 103.5t-18.5 103.5q0 26 14 79t14 79q0 18 -6 33q-2 0 -6 1t-6 1q-9 0 -22 -6.5t-19 -6.5q-10 0 -23 13.5t-22 13.5t-25.5 -16.5t-29.5 -16.5q-18 0 -35 20.5t-29 20.5t-45 -18.5t-53 -18.5q-10 0 -16 2 q-1 7 -4.5 39t-10.5 49q-4 12 -4 17q0 18 17.5 48t17.5 38q0 7 -10 25t-11 22q17 35 54 35q22 0 52 -15.5t38 -15.5q14 0 40 18.5t44 18.5q21 0 37.5 -19.5t27.5 -19.5q19 0 54 20q3 -2 10 -8t13.5 -10t12.5 -4q8 0 45 18.5t66 18.5q26 0 45 -8.5t29.5 -16.5t15.5 -8 q13 0 39 11.5t41 11.5t29 -7q2 -10 2 -28q0 -17 -11.5 -50t-11.5 -51q0 -19 19.5 -48t19.5 -46z" />
<glyph unicode="^" d="M1096 795q-11 -11 -23 -11q-11 0 -32.5 6.5t-32.5 6.5q-17 0 -43.5 -21.5t-46.5 -21.5q-22 0 -57 18.5t-44 18.5q-1 0 -27 -8.5t-47 -8.5q-26 31 -33 67t-16 52q-8 15 -28 36t-27 32q-5 9 -6.5 19t-0.5 27t1 21q0 32 -19 49q-26 22 -37 60.5t-28 54.5q-2 -3 -23.5 -28 t-32.5 -41t-16 -31q-9 -24 -15.5 -75t-15.5 -75q-44 -101 -90 -147q-25 -7 -45 -7q-13 0 -38 4.5t-37 4.5q-24 0 -67 -17.5t-67 -17.5q-16 0 -30.5 4.5t-38 16.5t-27.5 14q0 17 7 30.5t21 30.5t19 25q12 19 16 63t23 64q7 8 13 15t10 12.5t8 14t6 12.5t4.5 14l3.5 14t4 16.5 t4 17.5q8 33 40.5 67t41.5 52q9 17 15 61.5t28 67.5q90 95 90 158q0 15 -12 39q6 4 23 4q13 0 40 -5t40 -5q27 0 61 21.5t51 21.5q22 0 44 -26t46 -26q18 0 46 15.5t36 17.5q6 -11 16 -26t15.5 -23t9.5 -22.5t4 -32.5q0 -41 29 -76t35 -53q6 -19 12 -63t16 -66 q11 -25 45 -61.5t44 -53.5q17 -28 21 -66.5t11 -52.5q12 -22 36.5 -47.5t39 -50.5t14.5 -61q0 -20 13 -39z" />
<glyph unicode="_" horiz-adv-x="1181" d="M1098 102q0 -31 -27 -110q-14 4 -45 4q-133 0 -199 -12q-8 -2 -22 -2q-29 0 -83 16t-83 16q-26 0 -71.5 -19.5t-71.5 -19.5q-20 0 -58 1t-57 1q-30 0 -84 19.5t-82 19.5q-55 0 -123 -28q-7 10 -8 22t1.5 28t2.5 23q0 13 -8 38t-8 38q0 21 15 58t15 57q0 12 -5 37t-5 37 h23q29 0 87 14t87 14q30 0 85.5 -22.5t84.5 -22.5q33 0 93 21.5t93 21.5q27 0 80.5 -13t81.5 -13q37 0 109.5 13t109.5 13t53 -8q11 -14 11 -35q0 -19 -11.5 -56t-11.5 -56q0 -14 15.5 -42.5t15.5 -52.5z" />
<glyph unicode="`" horiz-adv-x="878" d="M721 1575v-4q-7 -2 -30 -13.5t-29 -11.5t-31 12.5t-45 12.5q-24 0 -43 -17.5t-31 -17.5h-4q-24 16 -35.5 39t-19 53t-17.5 47q-9 17 -43.5 42t-40.5 42q-14 35 -14 66q0 18 6 24q30 -10 59 -10q21 0 60 15.5t61 15.5q8 0 28.5 -10.5t33.5 -10.5q20 0 35 9 q23 -17 34.5 -48t13 -52.5t1.5 -60.5v-3.5v-3.5v-4q0 -30 25.5 -62t25.5 -49z" />
<glyph unicode="a" horiz-adv-x="985" d="M594 471q-2 10 -10.5 37t-8.5 43q0 10 6.5 29.5t6.5 29.5q0 18 -20.5 52t-20.5 53q0 13 14 35t14 36q0 15 -17 47.5t-19 47.5q-1 10 -4.5 53.5t-10.5 66.5q-18 -22 -28.5 -40.5t-14.5 -42t-5 -34.5t0 -44.5t1 -46.5q0 -21 -26.5 -59.5t-26.5 -63.5q0 -12 5 -35t5 -35 q0 -20 -13 -59t-13 -62q8 -8 24 -8q12 0 36 7t38 7t35 -10t32 -10q12 0 21 6zM975 -4q-36 -8 -55 -8q-10 0 -23 6t-18 6t-27.5 -11.5t-40.5 -11.5q-13 0 -32.5 14.5t-30.5 14.5q-12 0 -34 -10t-34 -10q-8 0 -12 2v8q0 11 7 30.5t7 30.5q0 12 -22.5 46t-22.5 55q0 9 7 27 t7 28q0 2 -1 6t-1 6q-2 0 -12 3t-16 3q-17 0 -48 -16t-49 -16q-14 0 -32 15t-29 15t-27 -13t-24 -15q-20 12 -33 12q-10 0 -19 -6q7 -21 7 -39t-12.5 -50t-12.5 -50q0 -29 4 -43q-33 -19 -45 -19q-10 0 -27 9.5t-26 9.5t-27 -9.5t-28 -9.5q-14 0 -34 11.5t-32 11.5 t-34 -13.5t-36 -13.5q-6 0 -18 4v12q0 14 9 40t9 40q0 10 -4 31t-4 31q0 41 15.5 64.5t31 40t15.5 40.5q0 19 -10.5 54t-10.5 53q0 25 18.5 45.5t18.5 36.5q0 14 -2 38.5t-2 36.5q0 45 4 68q3 18 23 48.5t20 55.5q0 17 -4 50t-4 49q0 22 17.5 44t17.5 44q0 16 -10.5 44.5 t-10.5 43.5q0 22 37 67t37 74q0 15 -8.5 42t-8.5 42q0 23 19.5 51t19.5 45q0 9 -2 27.5t-2 28.5q0 18 4 26h11q9 0 27 -6t28 -6q17 0 40.5 17.5t37.5 17.5t51.5 -16.5t58.5 -16.5q22 0 61.5 12.5t59.5 12.5q15 0 48.5 -5t52.5 -4q2 -8 2 -22q0 -13 -4.5 -36t-4.5 -34 q0 -17 21.5 -58t21.5 -73q0 -16 -9 -45t-9 -45t16.5 -55t16.5 -66t21.5 -77t21.5 -78q0 -17 -10.5 -47.5t-10.5 -45.5q0 -27 30 -78t30 -73q0 -16 -6.5 -45t-6.5 -43q0 -26 26 -71t26 -71q0 -16 -9.5 -47t-9.5 -47q0 -20 12 -35q11 -13 17 -25t8.5 -26t3 -23t-0.5 -28 t-1 -29q0 -13 17.5 -45t17.5 -61z" />
<glyph unicode="b" horiz-adv-x="827" d="M526 430q0 39 -20.5 87t-54.5 48q-13 0 -35 -6t-33 -6q-23 0 -39 8q-20 -23 -20 -63q0 -20 16 -55t16 -54q0 -16 -10 -44t-10 -42q0 -16 4 -22q2 -2 8 -2q7 0 22 3t23 3q7 0 22.5 -4.5t22.5 -4.5q33 0 44.5 20.5t14 52t11.5 42.5q18 18 18 39zM508 1051q0 29 -19 67 q-9 22 -16 28.5t-22.5 8t-28.5 6.5q-47 21 -62 21q-10 0 -22 -4q1 -12 8.5 -48.5t7.5 -56.5q0 -19 -12 -53t-12 -53q0 -14 9.5 -47t6.5 -54h12q31 0 50 2.5t37 18t18 43.5q0 29 22.5 61.5t22.5 59.5zM817 406q0 -41 -40.5 -113t-47.5 -100q-2 -8 -6.5 -35.5t-8.5 -43 t-14 -35t-24 -30.5q-19 -15 -51.5 -21t-44.5 -12q-58 -28 -86 -28q-26 0 -78.5 12t-79.5 12q-26 0 -76 -17.5t-76 -17.5q-25 0 -69.5 17.5t-63.5 34.5q8 40 8 63q0 26 -15 75t-15 75q0 24 20.5 70.5t20.5 76.5q0 35 -23.5 99.5t-23.5 99.5q0 36 23.5 103.5t23.5 103.5 q0 23 -12.5 68t-12.5 69q0 32 19.5 91t19.5 91q0 22 -18.5 58.5t-18.5 60.5q0 21 6 61t6 60q0 33 -12 63q39 17 76 17q17 0 46 -9.5t44 -9.5t50.5 16.5t64.5 16.5q22 0 62 -12.5t61 -12.5q12 0 35.5 9.5t37.5 9.5q36 0 56.5 -11.5t26.5 -26t18 -30.5t30 -22q6 -2 33 -9 t45.5 -15.5t24.5 -20.5q24 -55 24 -76q0 -10 -8 -30t-8 -30q0 -18 14.5 -53t14.5 -55q0 -14 -19 -39.5t-22 -32.5q-7 -17 -9 -56t-10 -56q-5 -12 -41 -41t-35 -45q56 -26 83.5 -61.5t27.5 -92.5q0 -13 -7 -40t-7 -40q0 -40 30.5 -84.5t30.5 -68.5z" />
<glyph unicode="c" horiz-adv-x="897" d="M872 358q0 -19 -16 -52.5t-16 -55.5q0 -6 2 -18.5t2 -18.5q0 -18 -13 -30t-28 -18t-28 -23t-13 -44q0 -39 -25.5 -69.5t-62.5 -30.5q-10 0 -29.5 2t-28.5 2q-13 0 -28.5 -12.5t-43 -25.5t-69.5 -13q-25 0 -45 7t-29.5 13.5t-29.5 24.5t-31 27q-24 18 -53 18t-41 4 q-11 3 -20 10.5t-14 14t-9.5 20.5t-6 20t-4.5 23.5t-4 20.5q-4 20 -50.5 65.5t-51.5 79.5q-2 16 -2 49q0 18 6 52t6 51q0 29 -23.5 83t-23.5 84q0 23 16.5 66.5t16.5 67.5q0 30 -25.5 85t-25.5 85q0 26 31.5 66t31.5 67q0 17 -6 52t-6 54q0 26 14 45.5t39 39.5t35 34 q8 13 16.5 43t20.5 47q19 23 55 36t70 13q19 0 72.5 32t101.5 32q31 0 53.5 -11.5t34.5 -26t33 -28.5t49 -18q53 -7 68.5 -30.5t15.5 -78.5q0 -23 33 -58t38 -44q12 -21 14 -71t27 -81q-5 -7 -12 -13t-16 -10.5t-16 -7t-19.5 -5t-18 -3.5t-19.5 -3.5t-17 -2.5 q-19 -3 -43.5 -5t-33.5 -4t-26 -11.5t-39 -28.5q-7 11 -9.5 20t-3 13.5t0 17t0.5 19.5q0 19 -24.5 51t-24.5 65q0 64 -51 64q-38 0 -74.5 -30t-36.5 -66q0 -12 4 -32t4 -30q0 -22 -27.5 -58.5t-27.5 -62.5q0 -29 30.5 -75.5t30.5 -59.5q0 -14 -17 -31.5t-17 -29.5 q0 -4 2 -13t2 -14q0 -18 -16.5 -47t-16.5 -45q0 -32 33 -93t33 -75q0 -16 -7.5 -45t-7.5 -45q0 -25 14 -43t36.5 -27.5t45 -13.5t45.5 -4q12 0 15.5 6.5t1.5 23.5l-2 17q0 15 15.5 28.5t19.5 22.5q7 15 9.5 49t10.5 50q12 -1 40.5 -1.5t45.5 -6t37 -21.5q67 -54 145 -45 q0 -3 1 -9t1 -8z" />
<glyph unicode="d" horiz-adv-x="917" d="M596 805q0 18 -17 54.5t-16 62.5v55q0 29 -9 43.5t-34 28.5q-19 10 -28 25.5t-11 26.5t-19 19t-54 8q-6 0 -17 3.5t-16 3.5q-27 0 -27 -21q0 -13 24.5 -66.5t24.5 -80.5q0 -32 -19.5 -93t-19.5 -92q0 -27 18.5 -73.5t18.5 -63.5q0 -31 -24.5 -90t-24.5 -90 q0 -33 17.5 -95.5t17.5 -93.5q12 -4 20 -4q25 0 39.5 9.5t29.5 27.5t28 27q17 11 27.5 39t21.5 39q2 2 6 6.5t6 7.5t2 8q0 9 -6 26t-6 25q0 27 20.5 66.5t20.5 56.5q0 21 -11.5 59.5t-11.5 57.5q0 15 14.5 38t14.5 40zM899 723q0 -13 -8 -39t-8 -39q0 -15 7 -42t7 -42 q0 -11 -18.5 -41.5t-18.5 -50.5q0 -19 11.5 -54t11.5 -53q0 -14 -34.5 -62t-39.5 -75q-3 -19 -18.5 -35t-33 -35t-24.5 -46q-6 -27 -22 -38.5t-42.5 -19t-41.5 -18.5q-21 -15 -79.5 -22t-82.5 -19q-35 -15 -47 -15q-16 0 -51 15.5t-58 15.5q-15 0 -41 -8t-41 -8t-41 7t-41 7 q-14 0 -38 -8.5t-37 -9.5q0 34 -17.5 98t-17.5 98q0 31 19.5 88t19.5 86q0 30 -16.5 90t-16.5 91q0 24 16.5 65.5t16.5 63.5q0 30 -17.5 89t-17.5 89q0 25 15.5 70.5t15.5 68.5q0 27 -17.5 77t-17.5 77q0 21 13 57t13 57t-11 60t-11 59q0 23 6 35q11 8 29 8t50 -11t50 -11 q14 0 48.5 16t62.5 16q13 0 41 -4t41 -4q19 0 56.5 11.5t57.5 11.5q29 0 54 -19q16 -12 53 -25t53 -26q15 -12 42 -45.5t62 -48.5q22 -10 33.5 -25t13 -28t3.5 -35t6 -37q4 -17 22.5 -39.5t18.5 -48.5q0 -19 18.5 -56.5t18.5 -60.5q0 -19 -8.5 -53t-8.5 -51q0 -16 18.5 -55 t18.5 -64z" />
<glyph unicode="e" horiz-adv-x="786" d="M750 1249q0 -13 -9.5 -39t-9.5 -39q0 -15 10 -32q-23 -31 -49 -31q-20 0 -49.5 16.5t-46.5 16.5q-19 0 -42 -20.5t-44 -20.5q-15 0 -44.5 8t-45.5 8q-19 0 -37 -6q4 -16 4 -23q0 -18 -13.5 -42.5t-13.5 -32.5q0 -14 13.5 -38.5t13.5 -35.5q0 -12 -9 -32t-9 -32 q13 -10 28 -10q9 0 26.5 3t25.5 3q13 0 37 -8t38 -8q12 0 36 7t38 7q8 0 20 -4q3 -9 3 -20q0 -16 -12.5 -41.5t-12.5 -38.5q0 -19 19.5 -46.5t19.5 -43.5q0 -2 0.5 -17t0.5 -26t-2 -24.5t-7 -21t-13 -7.5q-12 0 -32 7t-31 7q-26 0 -45.5 -15.5t-42.5 -15.5q-11 0 -33 3 t-33 3q-15 0 -32 -10q0 -2 -1.5 -6t-1.5 -6q0 -21 17.5 -54.5t17.5 -46.5q0 -17 -12 -50t-12 -52q0 -18 6 -33q2 0 6 -1t6 -1q8 0 24.5 6t24.5 6q10 0 23.5 -12t23.5 -12q11 0 31.5 14.5t34.5 14.5q15 0 38 -18.5t38 -18.5q13 0 42 17.5t46 17.5q3 0 7.5 -1.5t6.5 -1.5 q3 -14 4 -54.5t10 -61.5q3 -9 3 -17q0 -21 -15.5 -56t-15.5 -42q0 -10 8.5 -30.5t9.5 -26.5q-19 -31 -47 -31q-19 0 -46.5 14.5t-35.5 14.5q-16 0 -45.5 -18.5t-48.5 -18.5q-17 0 -40.5 18.5t-37.5 18.5q-24 0 -47 -19q-3 2 -8 6.5t-8.5 7t-8.5 5t-10 2.5q-12 0 -50 -16.5 t-64 -16.5q-32 0 -56.5 15.5t-25.5 15.5q-12 0 -36 -10.5t-36 -10.5q-11 0 -27 4q-2 8 -2 27q0 15 10.5 44.5t10.5 45.5q0 17 -17.5 43t-17.5 41q0 13 23.5 61t23.5 76q0 20 -15.5 55t-15.5 54q0 4 11.5 20.5t11.5 36.5q0 16 -10.5 48t-10.5 48q0 27 12.5 79t12.5 77 q0 22 -13.5 58.5t-13.5 50.5q0 10 10.5 28.5t10.5 28.5q0 20 -12.5 58t-12.5 59q0 27 23.5 69.5t23.5 67.5q0 21 -21.5 56t-21.5 52q0 7 5.5 30.5t5.5 47.5q0 11 8 19h14q14 0 38 9t38 9q16 0 45 -13.5t45 -13.5q26 0 65 23t56 23q16 0 46 -11.5t48 -11.5q12 0 36 8t38 8 q15 0 44 -10t44 -10q13 0 39 8t39 8q11 0 20 -6q6 -12 6 -24t-9 -31t-9 -29q0 -14 15.5 -38.5t15.5 -41.5z" />
<glyph unicode="f" horiz-adv-x="720" d="M705 1317q0 -17 -20.5 -42.5t-20.5 -51.5q0 -19 7 -53.5t7 -51.5q0 -12 -2 -20q-2 0 -6 -1t-6 -1q-20 0 -57 11t-56 11q-17 0 -37.5 -16.5t-34.5 -16.5q-13 0 -39 8.5t-41 8.5q-17 0 -37 -10q9 -35 9 -66q0 -20 -12.5 -57t-12.5 -56q0 -22 10 -45q16 -8 27 -8 q7 0 29.5 10.5t40.5 10.5q19 0 49 -14.5t47 -14.5q9 0 27.5 4t27.5 4q11 0 27 -4q-4 -8 -4 -18q0 -14 14 -38t14 -38q0 -17 -18.5 -41.5t-18.5 -38.5q0 -12 13.5 -32t13.5 -32t-14 -40q-24 8 -56 8q-30 0 -48 -11t-29.5 -21.5t-26.5 -10.5q-14 0 -39.5 10t-40.5 10 q-20 0 -35 -6q-4 -12 -4 -16q0 -12 4 -33t4 -31q0 -25 -19 -67t-19 -68q0 -16 12 -46t12 -48q0 -14 -10 -42t-10 -44t12 -46t12 -46q0 -19 -10 -39q-24 8 -53 8q-27 0 -78 -10.5t-76 -10.5q-40 0 -70 15q13 63 13 86q0 19 -10.5 55t-10.5 55q0 15 10.5 39t10.5 37 q0 15 -5 45t-5 45q0 18 8 54.5t8 56.5q0 33 -17.5 96t-17.5 96q0 28 16.5 80.5t16.5 79.5q0 32 -20.5 81.5t-20.5 55.5q0 18 14.5 56.5t14.5 60.5q0 27 -22.5 66.5t-22.5 68.5q0 23 15 68.5t13 66.5q21 7 37 7q12 0 36 -4.5t36 -4.5q22 0 69 21.5t78 21.5q27 0 74.5 -18.5 t71.5 -18.5q27 0 76.5 14.5t74.5 14.5q33 0 60 -6q0 -19 20.5 -46t20.5 -46z" />
<glyph unicode="g" horiz-adv-x="907" d="M874 537q0 -23 -26.5 -72t-26.5 -78q0 -17 9.5 -49t9.5 -49q0 -25 -10 -45t-22 -30t-22 -22.5t-10 -25.5q0 -5 1 -15.5t1 -15.5q0 -30 -19.5 -50.5t-51 -39.5t-43.5 -33q-16 -17 -25 -22.5t-25 -8.5t-30 -8q-64 -22 -90 -22q-28 0 -60 18q-23 12 -84.5 20t-81.5 23 q-14 11 -33 19.5t-26.5 18.5t-13.5 38q-5 28 -30 50.5t-46 40t-19 36.5q0 4 1 12.5t1 12.5q0 24 -8.5 44.5t-18 31.5t-18 24t-8.5 25q0 19 12.5 53t12.5 51q0 24 -19.5 56t-19.5 42q0 16 7 45t7 43q0 19 -10 53t-10 52q0 15 8 46t8 48t-8 52.5t-8 54.5q0 23 16 63t16 63 q0 16 13.5 41.5t15.5 36.5q3 14 5 38t4.5 37.5t14 29.5t33.5 26q34 16 63.5 50.5t41.5 44.5q17 13 54 27t54 28q24 18 56 18q20 0 59 -12t60 -12q15 0 42 4t41 4q26 0 41.5 -8t31.5 -25t32 -26q22 -17 22 -46q0 -7 -1 -20t-1 -20q0 -27 30.5 -58t33.5 -57q2 -21 2.5 -41 t1 -28.5t6.5 -24.5t21 -41q-3 -17 -9 -31q-6 -5 -13.5 -6.5t-21 -0.5t-16.5 1q-16 0 -42 -16.5t-44 -16.5q-7 0 -20 4t-19 4q-9 0 -31 -13t-38 -13q-5 0 -8 5.5t-3 14v17t1 17.5t1 11q0 9 -15.5 49.5t-18.5 40.5q-5 0 -14 -3t-13 -3q-9 0 -25.5 12.5t-29.5 12.5 q-20 0 -30.5 -8.5t-13.5 -20t-12 -27t-26 -24.5q-20 -10 -28.5 -20t-8.5 -31q0 -14 3 -39t3 -39q0 -27 -16.5 -65.5t-16.5 -57.5q0 -16 14.5 -38.5t14.5 -35.5q0 -21 -12.5 -62t-12.5 -63q0 -12 21.5 -65.5t21.5 -96.5q0 -22 18.5 -39t18.5 -30q0 -5 -2 -14t-2 -13 q0 -20 11.5 -35.5t29.5 -15.5q36 0 66 7t54 30t24 59q0 10 -4.5 32t-4.5 34q0 40 29 80q-8 10 -20.5 15t-20 6t-26 0t-23.5 -1q-19 0 -35 8q-8 19 -8 47q0 16 11 47t11 48q0 11 -6 33t-6 34q0 7 4 23q8 2 25 2q16 0 44 -10.5t44 -10.5t45 11.5t45 11.5q14 0 33 -11.5 t33 -11.5q11 0 33.5 8.5t35.5 8.5q9 0 49 -15q6 -15 6 -30q0 -20 -15 -58t-15 -59q0 -19 16 -50t16 -50z" />
<glyph unicode="h" horiz-adv-x="1003" d="M932 530q0 -23 -17.5 -68.5t-17.5 -70.5q0 -18 14.5 -52t14.5 -54q0 -19 -13.5 -50t-13.5 -45q0 -18 11.5 -52t11.5 -52q0 -5 -2.5 -31.5t0.5 -31.5q-10 -7 -19.5 -10t-16 -3t-19 1t-19.5 1q-21 0 -41 -16t-37 -16q-18 0 -43 16t-33 16q-9 0 -32 -7t-39 -7q-5 25 -5 29 q0 15 8.5 39.5t8.5 37.5q0 18 -10.5 39t-10.5 31q0 15 12.5 42.5t12.5 43.5q0 22 -17.5 59t-17.5 58q0 25 16.5 52.5t16.5 43.5q0 19 -13.5 54t-13.5 53q-18 6 -41 6q-17 0 -47 -14.5t-49 -14.5q-13 0 -38 2t-38 2q-2 -19 -17.5 -60t-15.5 -65q0 -26 17.5 -75t17.5 -76 q0 -21 -12 -59t-12 -58t11 -59t11 -60q0 -18 -6 -33q-11 -8 -29 -8t-52 10.5t-52 10.5q-14 0 -43 -14.5t-51 -14.5q-10 0 -38 10t-42 17q2 12 2 36q0 17 -6 51t-6 52q0 21 15 60.5t15 60.5q0 26 -25.5 83t-25.5 87q0 31 19.5 91t19.5 91q0 29 -18.5 76t-18.5 63 q0 32 24.5 89t24.5 89q0 31 -18 88.5t-18 88.5t16 93t16 93q0 28 -20 74q14 12 39 12q15 0 43 12.5t45 12.5q13 0 39 -6.5t41 -6.5q13 0 36 6.5t35 6.5q3 0 23 -5q-2 -12 -2 -34q0 -27 10 -77t10 -75q0 -31 -18.5 -89t-18.5 -89q0 -28 19 -95.5t12 -107.5q2 0 6 -1t6 -1 q9 0 26.5 4t25.5 4q16 0 43.5 -8t42.5 -8q13 0 40.5 8t43.5 6q4 16 4 27q0 17 -11.5 51t-11.5 53q0 20 11.5 55.5t11.5 55.5q0 29 -15.5 87t-15.5 89q0 18 8.5 57.5t7.5 61.5q15 6 37 6q13 0 36 -4t36 -4q23 0 66.5 19.5t68.5 19.5q24 0 62 -15q6 -12 6 -26q0 -15 -10.5 -44 t-10.5 -44q0 -17 13.5 -43.5t13.5 -40.5q0 -8 -8.5 -27t-8.5 -31q0 -15 8.5 -41t8.5 -41q0 -12 -8.5 -30t-8.5 -25q0 -5 8.5 -20.5t8.5 -26.5q0 -21 -22.5 -66t-22.5 -73q0 -14 19.5 -59t19.5 -74q0 -13 -7.5 -40t-7.5 -42q0 -17 10.5 -49t10.5 -48z" />
<glyph unicode="i" horiz-adv-x="436" d="M397 283q0 -21 -13 -58.5t-13 -56.5q0 -20 11 -59t11 -60q0 -17 -6 -35q-11 -8 -29 -8t-50 11.5t-50 11.5q-17 0 -43 -15.5t-47 -15.5q-26 0 -98 25q4 12 4 38q0 17 -7.5 52t-7.5 53q0 22 15.5 61t15.5 60q0 26 -25.5 82t-25.5 86q0 32 19.5 92t19.5 90q0 28 -18.5 74.5 t-18.5 64.5q0 32 24.5 89t24.5 89q0 30 -18.5 88t-18.5 88q0 33 16.5 97.5t16.5 97.5q0 43 -20 88q9 6 20 7t25.5 -1t19.5 -2q11 0 34 7.5t34 7.5q19 0 53 -12.5t53 -12.5q10 0 32 4t34 4q-2 -6 -2 -22q0 -27 14 -78t14 -78q0 -31 -19.5 -89t-19.5 -87q0 -31 16.5 -89.5 t16.5 -88.5q0 -23 -16.5 -65t-16.5 -66q0 -30 17.5 -89t17.5 -90q0 -25 -16.5 -70t-16.5 -69q0 -26 18.5 -75t18.5 -76z" />
<glyph unicode="j" horiz-adv-x="874" d="M831 514q0 -24 -21.5 -64t-21.5 -63q0 -19 7.5 -56t7.5 -55q0 -26 -15 -45.5t-39.5 -39.5t-35.5 -35q-8 -12 -16.5 -41.5t-20.5 -46.5q-19 -23 -55.5 -36.5t-69.5 -13.5q-18 0 -71.5 -31.5t-100.5 -31.5q-32 0 -55 11.5t-35 26t-33 28.5t-49 18q-52 7 -68 30.5t-16 77.5 q0 23 -33.5 57.5t-38.5 43.5q-12 22 -14 72t-27 81q5 7 12 13t16.5 10.5t16.5 7t19.5 5t18 4t19.5 3.5t17 2q16 3 36.5 5t28.5 3.5t21 6t25 13t30 24.5q5 -8 7.5 -14t4.5 -10t2.5 -10.5t0.5 -9v-12.5v-14q0 -20 24.5 -53t24.5 -66q0 -63 49 -63q38 0 75.5 31.5t37.5 68.5 q0 10 -4.5 30t-4.5 30q0 20 29 57.5t29 71.5q0 26 -25.5 67t-25.5 64q0 12 5 33t5 32q0 6 -2 17t-2 16q0 18 17.5 49t17.5 49q0 27 -23 77t-23 79q0 18 5.5 55t5.5 55q0 22 -15.5 61t-15.5 60q0 23 7.5 80t4.5 90h8q13 0 38 -4t38 -4q20 0 55.5 15.5t53.5 15.5q12 0 32 -7.5 t31 -7.5q7 0 22 3.5t23 3.5q10 0 21 -7q-19 -55 -19 -86q0 -27 15.5 -77t15.5 -76q0 -15 -8 -47q-21 -73 -21 -158q0 -30 17.5 -85t17.5 -83q0 -23 -9 -65.5t-9 -63.5q0 -30 14 -86t14 -86z" />
<glyph unicode="k" horiz-adv-x="980" d="M977 1423q0 -16 -11.5 -34.5t-29 -39t-23.5 -30.5q-10 -16 -14 -55.5t-22 -57.5q-11 -11 -18 -20t-12 -21.5t-6.5 -16t-6 -23.5t-5.5 -25q-5 -22 -18.5 -34.5t-29 -24t-23.5 -27.5q-5 -10 -19 -49t-32 -58q-5 -5 -28 -26.5t-31 -31t-17.5 -29t-9.5 -40.5q0 -28 31.5 -71 t31.5 -72q0 -36 26 -67.5t31 -47.5t10.5 -56t14.5 -60q10 -23 40.5 -55.5t39.5 -47.5q16 -26 19.5 -60t11.5 -48q9 -17 30.5 -40.5t35 -46t13.5 -49.5t13 -43q-8 -9 -18.5 -11t-27.5 0.5t-22 2.5q-17 0 -45 -14t-45 -14q-22 0 -53 16t-39 16q-2 0 -26 -7t-42 -7 q-23 28 -30 59.5t-15 46.5q-7 14 -25 33t-24 29q-10 15 -12.5 45.5t-7.5 42.5q-9 21 -39 62t-39 67q-10 29 -9 63t-8.5 59t-46.5 56q-6 -61 -6 -125q0 -26 17.5 -75t17.5 -76q0 -21 -13.5 -59t-13.5 -58t11.5 -58t11.5 -57t-6 -37q-13 -8 -31 -8q-17 0 -49 10.5t-49 10.5 q-18 0 -47 -14.5t-50 -14.5q-27 0 -100 27q4 12 4 36q0 17 -6 52t-6 53q0 20 14.5 58t14.5 59q0 29 -26 85t-26 87t19.5 92t19.5 92q0 25 -17.5 69.5t-17.5 67.5q0 32 24 89.5t24 88.5q0 30 -18.5 88t-18.5 89t16 93t16 93q0 36 -20 74q14 12 49 12q17 0 49 12.5t49 12.5 q13 0 40 -6.5t42 -6.5q14 0 38.5 9t37.5 10v-19q0 -31 17.5 -89t17.5 -89q0 -33 -19.5 -95t-19.5 -95q0 -21 4 -63t4 -64q11 20 69.5 102t67.5 109q8 20 14 65.5t15 67.5q31 84 80 133q21 6 41 6q12 0 34 -4t34 -4q30 0 84 20.5t83 20.5q28 0 62 -15z" />
<glyph unicode="l" horiz-adv-x="747" d="M709 203q0 -13 -16.5 -37t-16.5 -43q0 -9 7 -26.5t7 -26.5q0 -1 -6 -25q-11 -2 -24 -2t-28.5 1t-23.5 1q-35 0 -98.5 -26.5t-97.5 -26.5q-26 0 -78 15.5t-80 15.5q-15 0 -46 -5.5t-48 -5.5q-52 0 -90 21q16 56 16 108q0 17 -8 51t-8 52q0 12 9 35.5t9 37.5t-4 43.5 t-4 45.5q0 20 8 57t8 57q0 33 -16.5 96.5t-16.5 96.5q0 27 14.5 79t14.5 80q0 31 -20.5 80.5t-20.5 55.5q0 10 15.5 49t15.5 65t-23.5 70t-23.5 70q0 22 16 67t15 66q15 6 36 6q11 0 35 -4t37 -4q22 0 70 20.5t78 20.5q24 0 67 -15q6 -12 6 -26q0 -15 -9 -44t-9 -44 q0 -17 13 -44.5t13 -41.5q0 -5 -14 -38t-14 -57q0 -14 4 -43t4 -43q0 -20 -11.5 -56t-11.5 -54q0 -17 9.5 -46t9.5 -44q0 -17 -9.5 -47.5t-9.5 -45.5q0 -21 10.5 -62t10.5 -62q0 -13 -8 -35t-8 -35q0 -10 5 -31t5 -33q0 -25 -20.5 -66t-20.5 -65q0 -36 18 -63q40 8 62 8 q20 0 60.5 -10t62.5 -10q15 0 41 12t51 12q31 0 61 -12q0 -15 9.5 -45t9.5 -45z" />
<glyph unicode="m" horiz-adv-x="1263" d="M1241 43q0 -3 -1 -8.5t-1 -7.5q-8 -4 -25 -4q-19 0 -56 11t-58 11q-16 0 -42 -15.5t-42 -15.5q-18 0 -52 8.5t-51 8.5v10q0 27 14.5 77t14.5 75q0 28 -23.5 76.5t-23.5 74.5q0 29 21.5 70t21.5 55q0 22 -13.5 60.5t-13.5 58.5q0 13 5.5 40t5.5 42t-9 51 q-10 -15 -17.5 -60.5t-10.5 -54.5q-4 -14 -27.5 -40t-23.5 -44q0 -6 2 -17.5t2 -17.5q0 -35 -33 -78.5t-33 -70.5q0 -16 5 -48t5 -48q0 -23 -10.5 -46t-30 -51.5t-26.5 -40.5q-49 -106 -53 -118l-17 2q-22 93 -53 145q-25 39 -32.5 63t-12.5 72q-3 38 -9 53.5t-25 32 t-32 35.5q-23 31 -35 87t-12 104q0 35 -13 62t-40 63q-2 -4 -2 -25q0 -22 10 -66t10 -67q0 -13 -14 -46.5t-14 -62.5q0 -26 13 -78t13 -79q0 -21 -15 -58t-15 -57q0 -22 15 -61.5t15 -59.5q0 -3 -1 -7.5t-1 -6.5q-21 0 -58 -12.5t-56 -12.5q-17 0 -40 11.5t-34 11.5 q-14 0 -40.5 -9.5t-41.5 -9.5q-19 0 -47 8v9q0 20 7 56t7 54q0 17 -10 48.5t-10 47.5q0 27 15 81t15 81q0 31 -15 89t-15 89q0 19 10 56.5t10 58.5q0 26 -11 75t-11 75t10 76t10 75q0 37 -20.5 107.5t-20.5 107.5q0 14 8.5 39t8.5 39q0 16 -6.5 48.5t-6.5 49.5q0 11 4 31 q21 14 45 14q17 0 43 -12t39 -12q17 0 54.5 16.5t62.5 16.5q26 0 102 -23q0 -54 35 -122.5t35 -131.5q0 -29 13.5 -54t29.5 -40.5t29.5 -39t13.5 -50.5q0 -15 -6 -46t-6 -46q0 -18 7 -31t21.5 -29t20.5 -24q10 -16 23 -88.5t22 -94.5q26 27 34 62t9 80t8 71q7 28 29.5 52 t40.5 48.5t18 59.5q0 17 -5 51t-5 52q0 42 28.5 93.5t28.5 61.5q0 15 -6 45t-6 45q0 35 5.5 54.5t23 28.5t34 10.5t54.5 1.5q24 0 65 -17.5t64 -17.5q15 0 45 6t45 6q5 0 17 -1t18 -1q4 -24 4 -37q0 -20 -9.5 -61t-9.5 -62q0 -34 27 -96.5t27 -97.5q0 -33 -27 -88t-27 -70 q0 -21 25 -75t25 -87q0 -25 -11.5 -75t-11.5 -76q0 -27 15.5 -76t15.5 -74q0 -23 -11.5 -64.5t-11.5 -62.5q0 -17 10.5 -39t10.5 -33q0 -12 -9.5 -35.5t-9.5 -37.5q0 -19 16.5 -56t16.5 -59z" />
<glyph unicode="n" horiz-adv-x="1062" d="M1036 1262q0 -20 -17.5 -41t-17.5 -39q0 -24 13.5 -67.5t13.5 -65.5q0 -19 -11 -54t-11 -53q0 -17 7 -47t7 -45q0 -20 -12.5 -55.5t-12.5 -53.5q0 -19 13.5 -52t13.5 -52q0 -22 -15.5 -64.5t-15.5 -66.5q0 -14 7.5 -43t7.5 -45q0 -21 -10.5 -47t-10.5 -31 q0 -10 13.5 -36.5t13.5 -45.5q0 -24 -14.5 -55t-14.5 -43q0 -22 10.5 -63t10.5 -62q0 -4 -1.5 -11.5t-1.5 -11.5q-28 -12 -45 -12q-14 0 -37 10t-36 10q-15 0 -40 -17t-44 -17q-9 0 -22.5 10t-26.5 10q-17 0 -49.5 -8.5t-47.5 -9.5q-6 17 -36.5 56t-30.5 71q0 8 3 24.5 t3 24.5q0 28 -35 65t-35 64v41q0 34 -8.5 54.5t-21 28.5l-25 16t-21 25.5t-8.5 47.5q0 43 -32 98q-23 -31 -23 -57q0 -9 5 -28.5t5 -29.5t-7 -28.5t-7 -28.5q0 -8 4 -22t4 -21q0 -15 -9 -40t-9 -38q0 -14 12 -39t12 -41q0 -20 -15.5 -59t-15.5 -61q0 -16 9.5 -48.5 t9.5 -50.5q-12 -6 -31 -6q-10 0 -28 9.5t-27 9.5q-8 0 -20 -16.5t-25 -16.5q-18 0 -42.5 15.5t-39.5 15.5q-16 0 -42 -16.5t-42 -16.5q-6 0 -18 4v14q0 18 11 44t11 40q0 13 -14.5 40t-14.5 44q0 20 16.5 54.5t16.5 48.5q0 8 -11 31.5t-11 39.5q0 14 7 41t7 41 q0 26 -11.5 74t-11.5 74q0 30 16.5 91t16.5 93q0 20 -8 60t-8 61q0 10 5 29.5t5 29.5q0 7 -2 22.5t-2 22.5q0 16 11 42.5t11 41.5q0 17 -11 47t-11 47q0 73 18 121q7 14 7 27q0 14 -7.5 43t-7.5 45q0 8 4 20h4q12 0 31 -14t31 -14t37 17.5t45 17.5q24 0 48.5 -17.5 t31.5 -17.5q8 0 36 13t44 13q3 0 9 -1t9 -1q6 -20 6 -65q0 -22 29.5 -48.5t29.5 -50.5q0 -17 -8 -48t-8 -48q0 -18 31.5 -61t36.5 -60q4 -13 5 -26.5t0 -35t-1 -26.5q0 -21 10 -33t21.5 -18t21.5 -33t10 -75q71 -148 78 -156q8 28 8 43q0 12 -3 34t-3 33q0 15 11.5 42 t11.5 40q0 17 -16.5 49.5t-16.5 51.5q0 23 21.5 55t21.5 47q0 14 -16.5 55.5t-16.5 65.5q0 23 18.5 59t18.5 56q0 18 -10 49t-10 49q0 27 12 45q4 2 14 2q13 0 38 -8t38 -8q18 0 36.5 17.5t28.5 17.5q9 0 35 -12.5t43 -12.5q9 0 28.5 4t29.5 4q18 0 26 -4q2 -6 2 -18 q0 -10 -8 -26t-8 -26q0 -13 8 -37.5t8 -39.5z" />
<glyph unicode="o" horiz-adv-x="927" d="M614 827q0 31 -31.5 93t-31.5 73q0 12 6 32.5t6 31.5q0 15 -11 38t-13 35q0 3 -1.5 11t-2 10.5t-2.5 9.5t-3.5 9.5t-4 7.5t-6 7t-7.5 4.5t-10 3.5t-13 1q-38 0 -75 -30.5t-37 -67.5q0 -12 4 -32t4 -30q0 -21 -28.5 -58.5t-28.5 -74.5q0 -24 20.5 -58t20.5 -48 q0 -15 -14.5 -38t-14.5 -36q0 -6 2 -18.5t2 -18.5q0 -14 -8 -42t-8 -42q0 -33 32.5 -94t32.5 -74q0 -16 -7 -44t-7 -42q0 -40 35 -68t75 -28q35 0 50 37q-4 12 -4 18q0 11 16.5 25.5t19.5 21.5q7 16 11 59t10 60q18 56 18 74q0 25 -16 57q-7 14 -10 25.5t-3.5 18t0.5 21.5 t1 25q0 7 -3.5 20t-3.5 19q0 19 19.5 49t19.5 47zM909 502q0 -22 -24.5 -59t-24.5 -60q0 -4 1 -13.5t1 -13.5q0 -22 -15.5 -64t-15.5 -65q0 -19 -13 -34.5t-28.5 -24t-28.5 -21.5t-13 -28v-23q0 -38 -24.5 -67t-61.5 -29q-9 0 -28.5 2t-29.5 2q-13 0 -28.5 -12.5t-43 -25.5 t-69.5 -13q-26 0 -45.5 6.5t-29.5 13.5t-29.5 25t-30.5 27q-23 18 -54 18t-43 4q-16 5 -26.5 19t-14 25t-8 34.5t-6.5 30.5q-3 17 -26.5 40.5t-47 50.5t-26.5 54q-4 32 -4 49q0 18 6 52t6 51q0 29 -22.5 84t-22.5 84q0 23 15.5 66t15.5 67q0 30 -26 85t-26 85q0 26 33 66 t33 67q0 17 -7 52t-7 54q0 25 14 44.5t39 40t35 34.5q9 13 18 44.5t19 45.5q19 23 55.5 36t71.5 13q18 0 43 16t58.5 32t70.5 16q31 0 54 -11.5t35 -26t33.5 -28.5t49.5 -18q55 -7 80.5 -27.5t25.5 -73.5q0 -22 20.5 -42t41 -42t20.5 -49q0 -7 -3 -20t-3 -19q0 -14 12 -34.5 t12 -32.5q0 -17 -10 -50t-10 -50q0 -27 19.5 -78t19.5 -78q0 -23 -16.5 -66t-16.5 -65q0 -30 25.5 -86t25.5 -86z" />
<glyph unicode="p" horiz-adv-x="847" d="M545 989q0 6 -2.5 12t-5 10t-7 10.5t-6.5 8.5q-10 11 -13 42t-14 52t-44 21q-7 0 -22 -4t-23 -4q-7 0 -21.5 3t-21.5 3q-1 0 -4.5 -1t-4.5 -1q-4 -6 -4 -23q0 -16 10.5 -44t10.5 -44q0 -18 -16.5 -52t-16.5 -54q0 -46 20 -64q13 8 37 8q13 0 35 -6t33 -6q24 0 43.5 25.5 t28 55t8.5 52.5zM831 1018q0 -25 -30.5 -71.5t-30.5 -84.5q0 -14 7 -40t7 -40q0 -30 -14 -65q-17 -45 -39 -64.5t-41.5 -19.5t-49 -8t-54.5 -31q-53 -53 -103 -53q-13 0 -35.5 4t-33.5 4q-33 0 -45 -14q0 -2 1 -6t1 -5q0 -18 -13.5 -45t-13.5 -39q0 -19 12.5 -52t12.5 -50 q0 -23 -12.5 -64.5t-12.5 -62.5q0 -16 12.5 -41t12.5 -39q0 -13 -1 -41t-1 -41q0 -27 2 -41q-47 -14 -66 -14q-21 0 -44 12t-30 12q-9 0 -36 -15t-50 -15q-45 0 -77 22q10 30 10 56q0 20 -7.5 61t-7.5 61q0 24 18.5 60t18.5 57q0 32 -19.5 92t-19.5 90q0 25 12.5 71t12.5 69 q0 36 -23.5 103t-23.5 104q0 35 23.5 99t23.5 99q0 30 -19.5 77t-19.5 71q0 26 14.5 75t14.5 74q0 22 -8 62q19 17 63.5 35t69.5 18q27 0 77 -17.5t76 -17.5t78 12.5t78 12.5q15 0 28 -4t32.5 -13.5t25.5 -11.5q13 -6 46 -12.5t52 -20.5q14 -11 24.5 -30.5t14.5 -36t9 -42.5 t8 -36q6 -28 44.5 -98.5t38.5 -110.5z" />
<glyph unicode="q" horiz-adv-x="946" d="M604 823q0 32 -32.5 94t-32.5 74q0 14 7 42t7 44q0 39 -35.5 69t-75.5 30q-33 0 -47 -41q2 -6 2 -19q0 -11 -16.5 -22.5t-20.5 -20.5q-1 0 -18.5 -94t-17.5 -98q0 -31 16 -60q7 -15 10 -26.5t2.5 -19t-1.5 -22t-1 -26.5q0 -6 3 -18t3 -19q0 -18 -19.5 -47t-19.5 -47 q0 -30 31 -92t31 -74t-6 -32t-6 -31q0 -15 12 -38t14 -34q3 -21 4.5 -27t7 -18.5t15.5 -16.5t26 -4q38 0 73.5 31t35.5 68q0 10 -5 30.5t-5 32.5q0 20 28.5 58t28.5 75q0 23 -19.5 57t-19.5 48q0 15 15.5 39t15.5 39q0 5 -3 16.5t-3 17.5q0 15 8 41t8 41zM924 -43 q-42 -10 -60 -22.5t-35 -47.5q-10 -21 -49 -48.5t-51 -45.5q-20 7 -28.5 22.5t-9 31t-10 34t-32.5 29.5q-19 8 -29 22t-18.5 34t-17.5 32q-19 -8 -44 -24.5t-46.5 -24.5t-53.5 -8q-25 0 -44 7.5t-32 18.5t-25.5 23t-30.5 22t-40 13q-51 7 -67.5 29t-16.5 73q0 20 -13 38.5 t-28 30.5t-28 30.5t-13 39.5q0 6 2 18.5t2 18.5q0 16 -13 40t-13 38q0 11 4 32t4 33q0 30 -22.5 86t-22.5 86q0 24 15.5 67t15.5 67q0 30 -25.5 85t-25.5 85q0 20 11 38t22.5 44t11.5 65q0 23 17 65t17 64q0 18 13 33.5t28 24.5t28 22.5t13 28.5q0 4 -1 11t-1 11 q0 37 24.5 65.5t61.5 28.5q9 0 29.5 -2t30.5 -2q12 0 24 8.5t22.5 18.5t35.5 18.5t59 8.5q25 0 45 -7t29.5 -13.5t29.5 -24.5t31 -27q18 -14 31.5 -17.5t30.5 -4.5t32 -5q11 -3 20 -10.5t14 -14t9.5 -19.5t6 -19.5t4.5 -22.5t4 -20q4 -20 49.5 -65t50.5 -79q2 -18 2 -55 q0 -17 -5 -48t-5 -48q0 -31 23.5 -86t23.5 -86q0 -23 -16.5 -65t-16.5 -64q0 -31 25.5 -86t25.5 -84q0 -26 -31.5 -67t-31.5 -68q0 -17 6 -52t6 -53q0 -25 -13 -44.5t-39 -41.5t-34 -31l15.5 -15.5t12 -12.5t7 -9t6 -12t3.5 -14.5t5 -22.5q5 -25 21.5 -39t33 -17t30 -14 t14.5 -32z" />
<glyph unicode="r" horiz-adv-x="864" d="M549 997q0 16 -21 41q-9 11 -11.5 41.5t-13.5 51t-44 20.5q-8 0 -23 -3t-22 -3t-21.5 3t-21.5 3q-2 0 -5.5 -1t-5.5 -1q-2 -8 -2 -23q0 -16 10.5 -44t10.5 -44q0 -19 -17.5 -53t-17.5 -55q0 -41 21 -62q18 6 38 6q11 0 33 -6t35 -6q34 0 56 47t22 88zM838 1024 q0 -24 -31 -70t-31 -84q0 -14 7.5 -41t7.5 -41q0 -56 -33.5 -101t-87.5 -71q-2 -6 -2 -22q0 -43 8 -69t25.5 -55.5t27.5 -55.5q7 -19 8.5 -39.5t-0.5 -49.5t-2 -40q0 -23 34 -71.5t34 -76.5q0 -12 -3 -35.5t-3 -35.5q17 -33 28 -66q-8 -14 -28 -14q-9 0 -28 3t-28 3 q-15 0 -45.5 -11.5t-48.5 -11.5q-16 0 -31 6q-18 8 -47.5 11t-40.5 6q4 24 4 35q0 23 -21.5 63t-21.5 66q0 12 3.5 34t3.5 35q0 51 -36 124t-36 138q0 30 -10 43t-39 13q0 -2 1 -6.5t1 -6.5q0 -16 -13.5 -43t-13.5 -38q0 -19 12.5 -53t12.5 -52q0 -22 -12.5 -63.5 t-12.5 -63.5q0 -15 12.5 -40t12.5 -40q0 -13 -1 -40t-1 -40q0 -27 2 -41q-40 -14 -68 -14q-21 0 -43.5 12.5t-30.5 12.5q-7 0 -47.5 -21.5t-66.5 -21.5q-31 0 -53 14q14 28 14 68q0 22 -7 65t-7 64q0 24 18 60.5t18 57.5q0 31 -18 91t-18 92q0 23 12 68.5t12 70.5 q0 36 -23.5 102.5t-23.5 102.5q0 35 23.5 99.5t23.5 100.5q0 30 -20.5 76t-20.5 72t15.5 74t15.5 73q0 24 -8 64q17 17 62.5 34t70.5 17q27 0 77 -17.5t76 -17.5t78 13.5t78 13.5q12 0 24.5 -3.5t19.5 -6.5t22 -10.5t20 -10.5q12 -6 45 -12t53 -21q14 -11 24 -31t13.5 -33.5 t9.5 -43.5l7 -35q7 -28 46.5 -99t39.5 -112z" />
<glyph unicode="s" horiz-adv-x="874" d="M854 1104q-64 -64 -102 -64q-7 0 -22.5 3.5t-22.5 3.5q-19 0 -33.5 -6t-32.5 -20.5t-27 -19.5q-21 5 -24.5 25.5t-6 43t-20.5 30.5q-16 7 -36.5 37t-55.5 30q-12 0 -24 -8t-17 -15t-14 -20q-7 -9 -26.5 -25t-30.5 -31t-11 -32q0 -14 8.5 -36.5t8.5 -34.5v-21t2 -16 t6.5 -15t13 -8t21.5 -4q30 0 69 -24.5t60 -24.5q11 0 33 5t34 5q26 0 42.5 -19.5t27 -44.5t18.5 -30q12 -7 33.5 -10t36.5 -10t22 -27q5 -12 7.5 -44t13.5 -48q29 -41 29 -68q0 -17 -14.5 -48t-14.5 -48q0 -13 22.5 -44t22.5 -56q0 -24 -16 -46.5t-32 -40.5t-16 -30 q0 -7 1 -21.5t1 -21.5q0 -43 -14.5 -57.5t-43 -16.5t-40.5 -10q-9 -5 -11.5 -23t-4.5 -35.5t-25 -32t-67 -14.5q-10 0 -28.5 7.5t-27.5 7.5q-25 0 -50 -21.5t-48 -21.5q-37 0 -71 18.5t-46 18.5q-13 0 -36 -8.5t-35 -8.5q-11 0 -26.5 15.5t-32 36t-23.5 26.5 q-17 12 -26.5 25t-12 22.5t-7 28t-8.5 31.5q-6 20 -26.5 35t-36.5 32.5t-16 48.5v25q19 2 32 14t23 24.5t22 14.5q35 4 57.5 12.5t33 19t18.5 21.5t24 22.5t41 18.5q14 -16 24.5 -23.5t10 -9.5t4.5 -40q5 -31 23 -49t20 -27q0 -35 17 -35q6 0 20 3t21 3q9 0 27 -7t28 -7 q23 0 41 24t18 49q0 9 -4 27t-4 27q0 10 6.5 29.5t6.5 29.5q0 31 -13.5 42t-34 18t-30.5 24q-12 21 -24.5 31t-35.5 10q-12 0 -31.5 -4t-29.5 -4q-15 0 -37 23t-37 28q-25 9 -37.5 22t-24.5 34t-24 34q-12 14 -33.5 21t-39 9.5t-31 15t-13.5 36.5q0 15 10.5 43t10.5 43 q0 14 -17.5 34t-17.5 38q0 20 18.5 52t18.5 50q0 17 -15.5 45t-15.5 39q0 14 14 32t37 39.5t27 26.5q17 17 38 59t38 60q14 15 25.5 24.5t27 13t23 4.5t31 0t32.5 -1q22 0 57.5 15.5t53.5 15.5q6 0 18.5 -2t18.5 -2q16 0 43 9t43 9q11 0 37.5 -16.5t57 -38.5t40.5 -27 q24 -14 32 -53.5t19 -52.5q5 -7 39.5 -36.5t34.5 -49.5q0 -30 16 -84z" />
<glyph unicode="t" horiz-adv-x="831" d="M815 1278q0 -9 -15.5 -32.5t-15.5 -37.5q0 -7 6.5 -20.5t6.5 -20.5q0 -14 -13 -49q-12 -4 -20 -4q-10 0 -29 8t-28 8q-12 0 -27 -17t-29 -17q-10 0 -28 7t-27 7h-14q-21 -52 -21 -66q0 -11 10.5 -28t10.5 -31q0 -22 -22.5 -67.5t-22.5 -71.5q0 -14 19 -59t19 -74 q0 -15 -8 -41t-8 -41q0 -18 11.5 -49t11.5 -47q0 -24 -17.5 -69.5t-17.5 -70.5q0 -19 13 -54t13 -54t-12 -49t-12 -45q0 -17 11 -50t11 -51q0 -6 -2.5 -33.5t0.5 -31.5q-10 -7 -19.5 -10t-16 -3t-18.5 1t-19 1q-20 0 -41 -16t-35 -16q-21 0 -46 16t-30 16q-8 0 -26 -7 t-31 -7q-11 0 -17 2q-4 16 -4 29q0 14 8.5 37.5t8.5 35.5q0 22 -11.5 41t-11.5 27q0 16 13.5 45t13.5 45q0 22 -17.5 59t-17.5 58q0 25 16.5 53.5t16.5 44.5q0 18 -13.5 53.5t-13.5 53.5q0 24 14.5 52t14.5 40q0 6 -19.5 36t-19.5 56q0 22 15.5 62t15.5 61q0 17 -11.5 51 t-11.5 53q0 16 9 47.5t9 49.5v16q-12 4 -20 4q-13 0 -35 -10t-31 -10q-8 0 -21 9t-24 9t-32.5 -8t-34.5 -8q-17 0 -29 6q-2 6 -2 16q0 15 10.5 40t10.5 38q0 16 -15.5 38t-15.5 32q0 14 10 37t10 36q0 7 -4 19.5t-4 19.5q0 14 6 29q12 -6 25 -6q12 0 36 6t36 6q14 0 41 -9 t42 -9t41 15t41 15q11 0 31.5 -8t32.5 -8q8 0 23 9t24 9q14 0 40.5 -9t41.5 -9q12 0 32 8t31 8q17 0 41 -12t33 -12q23 0 42 13t28 13q11 0 36 -8.5t50 -1.5q0 -2 1 -7t1 -7q0 -11 -10.5 -30t-10.5 -30q0 -17 16.5 -36t16.5 -29z" />
<glyph unicode="u" horiz-adv-x="1009" d="M963 1233q0 -6 -14.5 -37t-14.5 -53q0 -8 4 -24.5t4 -24.5q0 -12 -7 -30.5t-7 -25.5q0 -5 7 -20.5t7 -26.5q0 -21 -22.5 -65t-22.5 -70q0 -16 18.5 -61t18.5 -72q0 -17 -5 -48t-5 -46q0 -14 13 -47.5t13 -55.5t-18.5 -60t-18.5 -60q2 -12 2 -37q0 -23 -11 -65t-11 -64 q0 -28 -35 -56t-41 -39q-8 -13 -14.5 -46t-18.5 -46q-9 -9 -18 -15.5t-20 -10.5t-17 -6.5t-20 -3.5t-19 -1h-22.5h-22.5q-13 0 -29 -12.5t-44 -25.5t-70 -13q-48 0 -85 17.5t-81 52.5q-18 14 -31.5 17.5t-30.5 4t-32 4.5q-11 3 -20 10.5t-14 14.5t-9.5 20t-6 19.5t-4.5 22.5 t-4 20q-4 19 -50 65t-50 80q-4 16 -4 49q0 18 6 53t6 54q0 21 -9 63t-9 64q0 9 4 26.5t4 26.5q0 28 -18.5 75t-18.5 62q0 31 23.5 90.5t23.5 92.5q0 30 -17.5 86.5t-17.5 85.5q0 33 15.5 96t15.5 94q0 32 -20 74q13 10 53 10q17 0 46.5 12.5t45.5 12.5q15 0 42.5 -6.5 t41.5 -6.5q15 0 40 8.5t36 10.5q0 -35 17.5 -100t17.5 -99q0 -31 -19.5 -88t-19.5 -88q0 -23 14 -66t14 -65q0 -17 -15 -48t-15 -50q0 -20 11 -60.5t11 -62.5q0 -21 -11 -60t-11 -59q0 -39 14.5 -76t29.5 -61.5t15 -34.5q0 -12 -5 -32t-5 -31q0 -38 30.5 -73.5t67.5 -35.5 q35 0 51 49q0 2 -1 6t-1 6q0 11 8.5 19t19 12t19 13.5t8.5 23.5q0 13 -5 36t-5 34q0 23 18.5 61t18.5 59q0 19 -10 39q-8 15 -11.5 26.5t-4 18t0.5 22t1 26.5q0 6 -2.5 18t-2.5 18q0 17 19.5 48.5t19.5 56.5q0 26 -19.5 75t-19.5 76q0 19 10.5 56.5t10.5 58.5q0 29 -14.5 87 t-14.5 89q0 18 8 57.5t7 61.5q12 4 39 4q12 0 35 -3t36 -3q22 0 70 20.5t78 20.5q32 0 69 -16q4 -12 4 -23q0 -15 -10 -45t-10 -45q0 -16 14.5 -44t14.5 -42z" />
<glyph unicode="v" horiz-adv-x="940" d="M944 1395v-9q0 -28 -35 -80.5t-35 -76.5q0 -21 9.5 -61t9.5 -60q0 -39 -50.5 -110.5t-56.5 -108.5q-2 -17 -2 -103q0 -64 -47 -160.5t-47 -146.5q0 -20 3 -60.5t3 -60.5q0 -38 -13.5 -66t-33 -56.5t-28.5 -55.5q-6 -20 -6.5 -85.5t-20.5 -96.5q-3 0 -10.5 -1t-10.5 -1 q-24 0 -37 15.5t-22 15.5q-23 0 -66.5 -19.5t-68.5 -19.5q-16 0 -48 19.5t-59 10.5q-12 34 -12 70q0 17 7 51.5t7 53.5q0 38 -30.5 106.5t-30.5 106.5q0 22 8 67.5t8 69.5q0 33 -14.5 60t-31.5 45t-31.5 56t-14.5 91q0 16 4 48t4 50q0 19 -6.5 38t-13.5 30t-21 31t-20 30 q-10 16 -15 39t-5 39.5t1 46t1 39.5q0 17 -34 80.5t-36 107.5q4 3 15 10t18 11t17.5 8t19.5 4q13 0 43.5 -15.5t52.5 -15.5q26 0 66.5 18.5t58.5 18.5q15 0 38.5 -13t34.5 -16q9 -27 9 -59q0 -21 -11.5 -61t-11.5 -60q0 -18 18.5 -52.5t20.5 -53.5q2 -11 2 -23.5t-1 -28 t-1 -24.5q0 -30 24.5 -83t24.5 -83q0 -14 -7 -42t-7 -42q0 -51 39 -123q10 29 18 86.5t12 75.5q6 32 14.5 52.5t12.5 40.5t4 67q0 31 13 58t29 44.5t29 48t13 66.5q0 16 -5 50t-5 52q0 66 14 105q7 1 32.5 7.5t39.5 6.5q7 0 36 -13.5t52 -13.5q25 0 58 14.5t48 14.5 q9 0 70 -16z" />
<glyph unicode="w" horiz-adv-x="1280" d="M1305 1399q-1 -41 -32 -111.5t-30 -95.5q0 -12 1 -35t1 -35q0 -48 -19.5 -84.5t-39 -69t-19.5 -69.5q0 -15 4.5 -45t4.5 -45q0 -34 -15 -64t-32.5 -49.5t-32.5 -55t-15 -79.5q0 -27 8.5 -78.5t8.5 -76.5q0 -38 -28 -107t-28 -106q0 -19 8.5 -54t8.5 -53q0 -29 -15 -72 q-35 -26 -55 -26q-23 0 -61 18.5t-54 18.5q-15 0 -37.5 -12.5t-35.5 -12.5q-10 0 -31 3t-31 3v19q0 30 -22.5 86t-22.5 84q0 21 9.5 59t9.5 59q0 23 -23.5 69t-23.5 75q0 9 2 26.5t2 26.5q0 30 -29 78q-12 -22 -19 -47t-9.5 -40.5t-6.5 -49.5q-2 -21 -13 -41t-25 -35.5 t-27.5 -31t-23 -35.5t-9.5 -42q0 -27 18.5 -80t18.5 -82q0 -37 -43 -108q-28 -14 -51 -14q-30 0 -61 18t-52 18q-24 0 -50 -16t-52 -16q-15 0 -23 2q-12 27 -12 59q0 15 3 46t3 46q0 36 -31 95t-31 94q0 28 9.5 81.5t9.5 79.5q0 37 -35 121t-35 133q0 20 4 61.5t4 63.5 q0 45 -41 116.5t-41 100.5q0 25 13.5 71t13.5 69q0 24 -25.5 75.5t-25.5 77.5q0 13 2 17q28 19 47 25.5t49 6.5q19 0 52.5 -16t48.5 -16q4 0 31 15t48 15q8 0 66 -10q8 -39 8 -90q0 -27 -11 -78t-11 -78q0 -47 33.5 -97.5t33.5 -86.5q0 -17 -5 -48t-5 -46q0 -13 2.5 -26 t9.5 -27.5t10.5 -22t14.5 -25t14 -22.5q2 34 23.5 94t25.5 76q23 102 23 162q0 26 16.5 58t16.5 46q0 12 -6.5 34t-6.5 34q0 33 31 119q25 8 78 8q15 0 46 -8.5t48 -8.5q21 0 47 15q23 -20 23 -49q0 -22 -14.5 -65t-14.5 -66q0 -26 30.5 -89t30.5 -100q0 -22 -6 -65t-6 -64 q0 -70 33 -111q7 38 40.5 98.5t41.5 86.5q8 25 9 71.5t3 59.5q2 18 19.5 53t17.5 53q0 24 -13.5 72t-13.5 72q0 31 9 55q50 16 73 16q29 0 72.5 -17t58.5 -17q13 0 40 12t44 12q30 0 52 -16z" />
<glyph unicode="x" horiz-adv-x="980" d="M999 1405q0 -18 -32 -49.5t-35 -36.5q-12 -18 -14.5 -56t-22.5 -57q-11 -11 -18 -20t-11.5 -20.5t-6 -17t-5.5 -23t-6 -25.5q-4 -18 -13.5 -30.5t-19.5 -18t-21.5 -15t-17.5 -22.5q-7 -15 -11.5 -57t-25.5 -64q-35 -35 -47 -52.5t-12 -24.5t-2.5 -29.5t-15.5 -55.5 q5 -10 18 -28t17.5 -31.5t4.5 -34.5q0 -36 26.5 -67.5t31.5 -47.5q5 -17 10 -56.5t14 -59.5q10 -23 40.5 -55.5t39.5 -47.5q16 -26 19.5 -60t11.5 -48q9 -17 30.5 -40.5t35.5 -46t14 -49.5q0 -29 12 -43q-8 -8 -20 -8q-10 0 -30 5t-30 5q-16 0 -40 -19t-42 -19 q-19 0 -49.5 16t-38.5 16q-2 0 -25.5 -7t-41.5 -7q-23 28 -30 59.5t-15 46.5q-6 13 -25 32.5t-25 29.5q-5 8 -6.5 17.5t-0.5 25t1 18.5q0 29 -16 43q-23 20 -33.5 55t-25.5 50q-6 -8 -22 -27t-27 -34.5t-15 -28.5q-8 -21 -14 -67t-15 -68q-32 -87 -79 -134q-21 -6 -41 -6 q-11 0 -34 4t-34 4q-21 0 -60 -15t-61 -15q-28 0 -86 30q0 15 6 27.5t18 27.5t17 23q11 17 15 56.5t22 58.5q10 11 17 19.5t11.5 20.5t6.5 16.5t6.5 23.5t5.5 24q7 29 36.5 59.5t37.5 47.5q7 14 12.5 54.5t26.5 62.5q80 85 80 141q0 26 -29 65t-29 68q0 30 -16 52.5 t-31.5 48t-15.5 61.5q0 24 -15.5 48t-39.5 50t-33 41q-16 25 -20 59t-11 48q-9 17 -30.5 40t-35.5 45.5t-14 49.5q0 29 -12 43q10 10 24 10q10 0 30 -4t30 -4q16 0 38 17.5t38 17.5q21 0 52.5 -16.5t39.5 -16.5q4 0 26 7t39 7q23 -28 30 -59.5t15 -46.5q6 -13 26 -32.5 t26 -29.5q10 -15 11.5 -45.5t6.5 -42.5q7 -16 40 -54.5t38 -55.5q29 38 44.5 86t20.5 85.5t26.5 86t63.5 90.5q21 6 41 6q11 0 33.5 -4t34.5 -4q24 0 68 15t67 15q49 0 98 -22z" />
<glyph unicode="y" horiz-adv-x="1003" d="M999 1399q-10 -14 -14 -44t-10 -42q-9 -18 -34 -47t-34 -45q-6 -13 -10.5 -47.5t-19.5 -59.5q-12 -19 -37.5 -46t-37 -50.5t-11.5 -61.5q0 -23 -16 -43t-32 -47t-16 -65q0 -10 -20.5 -35.5t-41 -60t-20.5 -66.5q0 -31 19.5 -92t19.5 -94q0 -31 -25.5 -86t-25.5 -86 q0 -21 14.5 -59t14.5 -58q0 -17 -5.5 -47.5t-7.5 -48.5t4 -48q-62 -24 -100 -24q-21 0 -46.5 15.5t-41.5 15.5q-17 0 -49.5 -11.5t-50.5 -11.5t-29 8q-8 16 -8 37t12 59t12 58q0 19 -13 56.5t-13 58.5q0 27 17 76t17 75q0 18 -15 44t-15 50q0 27 13 76t15 68q9 22 9 32 q0 18 -13.5 47t-15.5 35q-21 68 -70 123q-16 16 -24 33t-15 38.5t-14 35.5q-8 16 -36 37t-36 49q-2 8 -5 21.5t-4.5 19.5t-4.5 15.5t-7 16t-10.5 15t-15.5 18.5q-19 19 -22 56.5t-15 56.5q-4 6 -30.5 30.5t-26.5 41.5l16 8t18.5 9t16.5 7t19 6.5t17.5 3.5t19.5 2 q20 0 57.5 -15t58.5 -15q11 0 34 4t34 4q23 0 41 -6q47 -47 82 -133q8 -22 13 -67t13 -66q4 -15 13.5 -28.5t24 -31t20.5 -24.5q4 36 16 53.5t28 29.5t23 29q5 12 7 42.5t12 45.5q6 9 25 28.5t26 33.5q8 15 15 46.5t30 59.5h14q17 0 33 -7t19 -7q8 0 39.5 16.5t52.5 16.5 q16 0 37 -17.5t38 -17.5q10 0 30 4t30 4q14 0 24 -10z" />
<glyph unicode="z" horiz-adv-x="784" d="M748 184q0 -21 -15.5 -56t-15.5 -42q0 -10 8.5 -30.5t9.5 -26.5q-19 -31 -47 -31q-19 0 -46.5 14.5t-35.5 14.5q-16 0 -45.5 -18.5t-48.5 -18.5q-18 0 -41 18.5t-37 18.5q-24 0 -47 -19q-2 2 -7.5 6.5t-8.5 7t-8.5 5t-10.5 2.5q-12 0 -50 -16.5t-64 -16.5 q-32 0 -56.5 15.5t-25.5 15.5q-14 0 -38 -9.5t-36 -9.5q-21 0 -31 4q0 4 -1 12.5t-1 12.5q0 22 13.5 49.5t13.5 40.5q0 15 -14.5 33t-14.5 30q0 7 5 21.5t5 21.5q0 8 -2 25t-2 25q0 27 9 47t21 30.5t27.5 27t24.5 34.5q5 12 11.5 54t27.5 63q86 89 86 202q0 37 7 49.5 t23.5 19.5t26.5 21q13 17 16 38t3 38.5t17 45.5t55 59q0 6 -1 18.5t-1 18.5q0 26 10 59q-30 6 -31 6q-15 0 -44 -11t-46 -11q-20 0 -48 14t-44 14q-17 0 -48 -15t-51 -15q-30 0 -47 28q9 15 9 33q0 13 -9.5 39t-9.5 39q0 15 16.5 41t16.5 43q0 8 -9.5 25t-9.5 32q0 8 5 23 q12 6 22 6q13 0 38.5 -7.5t39.5 -7.5q19 0 49 17.5t47 17.5q12 0 33 -7t33 -7q16 0 46.5 11t47.5 11t55.5 -22.5t65.5 -22.5q17 0 46 13.5t46 13.5q14 0 39.5 -10.5t48.5 -7.5q4 -4 5.5 -9.5t1.5 -9.5t-0.5 -11.5t-0.5 -10.5q0 -14 9.5 -38t9.5 -36q0 -22 -15.5 -59.5 t-15.5 -55.5q0 -13 7 -39t7 -39q0 -30 -21 -61t-45.5 -56t-45.5 -73.5t-21 -110.5q0 -55 -15.5 -99.5t-34.5 -67t-34.5 -51t-15.5 -56.5q0 -8 4 -24.5t4 -24.5q0 -14 -25 -38t-55.5 -55t-38.5 -57q2 0 6 -1t6 -1q8 0 22 6t21 6q9 0 22 -13t23 -13q11 0 31.5 14.5t34.5 14.5 q15 0 38 -18.5t38 -18.5q13 0 42 17t46 17q3 0 7.5 -1t6.5 -1q3 -14 4 -54.5t10 -61.5q3 -9 3 -17z" />
<glyph unicode="{" horiz-adv-x="745" d="M731 4q0 -32 -16 -61q-12 2 -42.5 10t-47.5 8t-47 -11t-46 -11q-36 0 -86 28q-18 10 -29.5 30.5t-25.5 39.5t-41 29q-2 1 -19 7.5t-27 10t-27 11t-27.5 13.5t-20.5 13.5t-14 13.5q-3 6 -14 23.5t-17 29t-12 27t-6 27.5q0 18 13.5 53t13.5 55q0 14 -6.5 40t-6.5 40 q0 24 18.5 68t18.5 69q0 35 -26.5 56t-70.5 37.5t-59 27.5v8q0 19 7.5 54.5t7.5 54.5q0 15 -9.5 42t-9.5 42q0 11 4.5 22t13 24.5t11.5 18.5q44 -1 90.5 48t46.5 94q0 32 -34.5 77.5t-34.5 73.5q0 36 15.5 60.5t36 47.5t27.5 48q3 11 9 38.5t10.5 44t16.5 36.5t28 32 q23 16 61.5 22t53.5 13q12 5 44.5 33.5t59.5 28.5q22 0 69.5 -10.5t73.5 -8.5q9 -11 9 -35q0 -15 -4.5 -46t-4.5 -46q0 -21 14.5 -61t14.5 -62q0 -39 -12 -63q-32 12 -49 12q-31 0 -52 -14.5t-30.5 -32.5t-23.5 -45t-27 -43q-15 -15 -15 -31t15.5 -50t15.5 -52 q0 -22 -26.5 -48t-26.5 -40q0 -10 6 -28.5t6 -28.5q0 -33 -22 -57.5t-56 -37.5q67 -30 111.5 -78t44.5 -112q0 -43 -31 -94t-31 -78q0 -45 39.5 -115t79.5 -70q12 0 36 6.5t38 6.5h10q21 -29 21 -84q0 -17 -8.5 -50t-8.5 -51q0 -20 19.5 -46t19.5 -54z" />
<glyph unicode="|" horiz-adv-x="956" d="M915 180q0 -17 -13 -45.5t-13 -44.5q0 -25 10 -55q-7 -3 -24 -9.5t-26.5 -10t-24 -6.5t-27.5 -3q-21 0 -61.5 16.5t-63.5 16.5q-20 0 -66.5 -23.5t-95.5 -23.5q-35 0 -95 21.5t-91 21.5q-24 0 -68 -18.5t-68 -18.5q-18 0 -46 11.5t-38 13.5q5 20 5 22q0 15 -15.5 41.5 t-15.5 42.5q0 19 20.5 45.5t20.5 42.5q0 15 -15.5 37t-15.5 35q0 17 16 45q20 -4 29 -4q17 0 46 9t46 9q14 0 40.5 -5t39.5 -5q15 0 39 8q-4 13 -28.5 71t-24.5 89q0 36 21.5 102.5t21.5 102.5q0 28 -19.5 77t-19.5 74q0 35 26.5 99.5t26.5 99.5q0 36 -21 106.5t-20 108.5 h-4q-29 0 -57.5 -15.5t-42.5 -15.5q-12 0 -26.5 2.5t-24.5 6t-26 9t-24 7.5q7 21 7 39q0 20 -15.5 58t-15.5 60q0 17 13 46t13 45q0 25 -10 55q6 2 23.5 9t27 10.5t24.5 6.5t28 3q21 0 61.5 -16.5t63.5 -16.5q20 0 66 23.5t95 23.5q35 0 95.5 -21.5t91.5 -21.5q24 0 68 18.5 t67 18.5q18 0 46 -11.5t38 -13.5q-4 -16 -4 -22q0 -15 15 -42t15 -42q0 -18 -19 -44t-19 -42q0 -13 14 -36t14 -36q0 -19 -16 -47q-20 4 -29 4q-18 0 -54 -10.5t-54 -10.5q-34 0 -84 11q-2 -9 -9 -27.5t-10.5 -33.5t-3.5 -29q0 -34 18.5 -98.5t18.5 -98.5q0 -30 -18.5 -75.5 t-18.5 -65.5q0 -35 19.5 -100.5t19.5 -100.5q0 -28 -17.5 -79t-17.5 -77q0 -23 6.5 -48.5t16.5 -55t14 -47.5h4q29 0 58 15t43 15q12 0 26.5 -2.5t23.5 -5.5t26 -8.5t24 -7.5q-6 -18 -6 -39q0 -20 15 -58.5t15 -60.5z" />
<glyph unicode="}" horiz-adv-x="745" d="M731 891q0 -16 -9 -43.5t-9 -42.5q0 -17 7 -50t7 -50v-17q-15 -11 -59 -27.5t-70.5 -37.5t-26.5 -56q0 -25 18.5 -69t18.5 -68q0 -14 -6 -40t-6 -40q0 -20 13.5 -55t13.5 -53q0 -11 -6 -27t-11.5 -26.5t-17 -30t-13.5 -23.5q-4 -6 -14 -13.5t-20.5 -13.5t-27.5 -13.5 t-27 -11t-27 -10t-19 -7.5q-27 -10 -41 -29t-25.5 -39.5t-29.5 -30.5q-50 -28 -86 -28q-17 0 -46.5 11t-45.5 11q-17 0 -47.5 -8t-42.5 -10q-19 38 -19 63t20.5 51t20.5 47q0 18 -9 52t-9 51q0 51 20 82h11q14 0 37.5 -6.5t35.5 -6.5q27 0 56.5 36t47 79t17.5 70t-30.5 79 t-30.5 95q0 63 43.5 110.5t109.5 77.5q-34 13 -56 37.5t-22 57.5q0 10 6.5 28.5t6.5 28.5q0 13 -25.5 39.5t-25.5 48.5q0 18 15 52t15 50q0 17 -14 31q-13 16 -27 43t-23.5 45t-30.5 32.5t-52 14.5q-17 0 -49 -12q-13 26 -13 63q0 22 14.5 62t14.5 61q0 15 -4 46t-4 46 q0 25 8 35h29q20 0 56 9.5t56 9.5q27 0 61.5 -28.5t45.5 -33.5q15 -7 53.5 -13t61.5 -22q21 -15 32 -38t19 -64t10 -49q7 -25 28 -48t37.5 -48t16.5 -60q0 -28 -35 -73.5t-35 -77.5q0 -43 47.5 -94t90.5 -48q3 -5 8.5 -14.5t8.5 -15.5t6 -15t3 -18z" />
<glyph unicode="~" horiz-adv-x="1208" d="M1167 930q-2 -10 -7.5 -42t-9 -47t-14 -37t-26.5 -38q-19 -18 -66.5 -29t-64.5 -32q-10 -13 -20.5 -43.5t-20.5 -43.5q-21 -27 -62 -45t-77 -18q-34 0 -79.5 32.5t-81.5 71t-75 71t-63 32.5q-20 0 -38.5 -10.5t-43.5 -33t-31 -26.5q-29 -21 -38.5 -43.5t-6.5 -58.5 q-10 -2 -33 -2q-21 0 -38.5 6t-27 12.5t-30.5 24.5q-16 13 -73 22.5t-70 28.5q9 24 15 73t7 56q5 27 20 41t38 26t36 25q11 12 28.5 47t39.5 51q27 19 72 19q17 0 50.5 -3t49.5 -3q20 0 62.5 17.5t72.5 17.5q26 0 46.5 -17t34 -41l27 -48t32 -41t42.5 -17q40 0 89.5 45.5 t58.5 85.5q10 2 29 2q17 0 33.5 -6t23.5 -10t27 -19l24 -18q22 -16 71 -21.5t68 -13.5z" />
<glyph unicode="&#xa1;" horiz-adv-x="614" d="M522 1057q0 -34 -23.5 -96.5t-23.5 -96.5q0 -24 10.5 -70t10.5 -69q0 -47 -27 -114.5t-27 -92.5q0 -34 22.5 -96.5t22.5 -97.5q0 -41 -22.5 -120t-22.5 -120q0 -14 4.5 -41.5t4.5 -42.5q0 -55 -39 -94q-49 0 -97.5 26.5t-74.5 26.5q-22 0 -51 -22.5t-50 -22.5h-12h-13 h-12.5t-13 0.5t-11.5 1.5t-13 2.5t-11.5 3t-12.5 4.5t-11 6q0 45 29.5 109.5t29.5 97.5q0 14 -6 42.5t-6 43.5q0 37 21.5 69.5t43 59.5t21.5 52q0 20 -9.5 56t-9.5 56q0 22 15.5 47.5t34 46t34 50t15.5 57.5q0 15 -9.5 45t-9.5 45q0 45 32 76t32 73q0 22 -11.5 64t-11.5 63 q0 17 4 25q29 18 54 18q15 0 39.5 -10t37.5 -10q10 0 32 3t32 3q31 0 55 -12q4 -28 4 -45zM590 1430q0 -13 -8 -41q-6 -19 -7 -44.5t-7.5 -43t-30.5 -37.5q-40 -35 -62 -35q-9 0 -26.5 4t-26.5 4q-16 0 -45 -8t-45 -8q-21 0 -30 22t-14 53t-12 41q-2 3 -24.5 23t-22.5 37 q0 16 17 37q10 13 19.5 33t15 30.5t21.5 18.5t42 8q12 0 35 -5.5t35 -5.5q19 0 44 17.5t40 17.5q33 0 62.5 -41.5t29.5 -76.5z" />
<glyph unicode="&#xa2;" horiz-adv-x="997" d="M891 477q0 -17 -16.5 -47t-16.5 -49q0 -6 3 -17t3 -16q0 -16 -13 -26.5t-29 -16t-29 -21t-13 -40.5q0 -35 -25.5 -61.5t-64.5 -26.5h-28q2 -4 2 -17q0 -23 -37 -57t-37 -57q0 -9 4 -27.5t4 -26.5q0 -23 -20 -37h-9q-11 0 -29 7.5t-34 7.5q-25 0 -45 -4.5t-31 -8.5t-14 -4 q-7 0 -19.5 5t-26.5 12.5t-18 9.5q-4 8 -4 12q0 9 9.5 27t9.5 27q0 13 -11.5 26.5t-11.5 16.5q0 9 13.5 34t13.5 41q0 9 -4 21q-2 2 -7.5 6t-7.5 6q-24 17 -54 18.5t-42 4.5q-11 3 -20 9t-14 12.5t-9 17.5t-6 17.5t-4.5 20t-3.5 17.5q-4 18 -52 59t-53 72q-2 14 -2 45 q0 16 6 45.5t6 44.5q0 27 -23.5 76t-23.5 76q0 21 16.5 59t16.5 59q0 28 -25.5 77t-25.5 75q0 23 31.5 59t31.5 60q0 16 -6 48t-6 48q0 24 15 41.5t40 35t35 30.5q8 11 15.5 37.5t21.5 41.5q35 41 119 45q14 28 14 43q0 27 -20.5 52t-20.5 43q0 17 6 40.5t17 34.5 q16 -4 28 -4q20 0 38 12.5t38 12.5q18 0 50 -7t49 -7q32 0 67 14q33 -18 33 -62q0 -9 -4 -28.5t-4 -28.5q0 -14 8 -38t8 -36q0 -14 -12 -34q23 -20 63 -25q52 -7 68 -28t16 -70q0 -20 33.5 -51t38.5 -39q14 -20 16 -65t25 -73q-11 -14 -35.5 -23t-38 -11t-45.5 -5 q-18 -2 -43 -4t-34 -4t-26 -10.5t-40 -26.5q-7 11 -10.5 19t-3.5 12t0.5 15t0.5 18q0 16 -24.5 44t-24.5 58q0 26 -13 43t-40 17q-38 0 -75.5 -27.5t-37.5 -60.5q0 -9 5.5 -28t5.5 -28q0 -20 -29 -51.5t-29 -54.5q0 -26 32 -68.5t32 -54.5q0 -11 -18.5 -26.5t-18.5 -26.5 q0 -4 2 -12.5t2 -12.5q0 -16 -16.5 -42t-16.5 -42q0 -27 33 -81.5t33 -67.5t-7.5 -39t-7.5 -41q0 -22 14.5 -38.5t37.5 -24.5t46 -11.5t46 -3.5q10 0 14.5 5t4.5 10t-1.5 14t-1.5 12q0 14 16 26.5t19 18.5q7 14 9.5 44t10.5 44q12 -1 33 -1.5t32 -1t27 -6t31 -16.5 q64 -46 148 -40q2 -4 2 -15z" />
<glyph unicode="&#xa3;" horiz-adv-x="1064" d="M1012 1153q-12 -25 -45.5 -36t-69 -12t-77.5 -14t-68 -42q-8 13 -12 22.5t-4.5 15t-1 17.5t-1.5 22q-2 23 -20 64.5t-21 64.5q-9 72 -57 72q-36 0 -65 -32t-29 -68q0 -15 8 -41t8 -41q0 -22 -20.5 -58.5t-20.5 -62.5q0 -32 33 -96q21 -3 72.5 -19t80.5 -16q24 0 69 16.5 t69 16.5q18 0 47.5 -10.5t38.5 -12.5q-4 -12 -4 -20q0 -15 15 -38.5t15 -37.5q0 -17 -19.5 -39.5t-19.5 -36.5q0 -13 14.5 -33t14.5 -32q0 -19 -16 -43q-20 4 -31 4q-19 0 -56 -17.5t-57 -17.5q-18 0 -55 12t-55 12q-20 0 -60 -10t-63 -10q-8 -27 -8 -86q0 -32 -12 -49.5 t-28 -24.5t-36.5 -29.5t-34.5 -60.5q13 0 40.5 -1t41.5 -1q10 0 28.5 6t28.5 6q13 0 31 -14t31 -14q16 0 44 16t46 16q19 0 51 -20.5t51 -20.5q16 0 56.5 18.5t64.5 18.5q15 0 21 -2q4 -15 5.5 -60.5t12.5 -68.5q4 -12 4 -18q0 -23 -21.5 -62.5t-21.5 -46.5 q0 -11 12.5 -33.5t14.5 -29.5q-21 -35 -66 -35q-26 0 -62 15.5t-48 15.5q-22 0 -63.5 -19.5t-65.5 -19.5t-56 20.5t-51 20.5q-13 0 -33.5 -10t-31.5 -11q-5 3 -14.5 9.5t-17.5 10t-16 3.5q-30 0 -90 -18.5t-92 -18.5q-26 0 -45.5 8t-30.5 16.5t-16 8.5q-14 0 -41 -10.5 t-41 -10.5q-18 0 -33 6q-2 8 -2 27q0 25 14.5 55t14.5 45q0 16 -15.5 37t-15.5 33q0 8 5 24.5t5 24.5q0 7 -3 21.5t-3 21.5q0 2 1 5t1 5q5 25 31 51.5t57 54t43 50.5q7 15 14 60.5t27 66.5q-14 0 -29 2.5t-25 5t-28 8t-26 7.5q6 18 6 34q0 19 -15.5 53t-15.5 54 q0 14 13.5 40t13.5 40q0 24 -10 51q81 31 125 22l-7.5 15t-9 17.5t-8 16t-7.5 18t-5.5 16.5t-4.5 18.5t-1 17.5q0 24 22.5 65t22.5 66q0 23 -12.5 67t-12.5 66q0 28 17 48.5t41.5 40.5t33.5 38q8 15 12 48.5t13 50.5q14 26 47.5 40.5t67.5 14.5q18 0 40.5 17.5t52.5 35 t66 17.5q30 0 53.5 -13t36.5 -29t35 -31.5t49 -19.5q52 -8 68.5 -34.5t23.5 -85.5q3 -27 38.5 -64.5t41.5 -48.5q14 -23 22.5 -79.5t35.5 -90.5z" />
<glyph unicode="&#xa5;" d="M1110 1556q-9 -15 -14 -48t-13 -48q-10 -20 -37.5 -51t-37.5 -51q-7 -15 -12.5 -53t-22.5 -66q-12 -20 -31.5 -42.5t-31.5 -36t-21.5 -38.5t-9.5 -57q0 -23 -17 -47q13 -2 35 -11.5t33 -11.5q-4 -16 -4 -22q0 -15 15 -42t15 -42q0 -18 -19 -44t-19 -42q0 -13 14 -36 t14 -36q0 -19 -16 -47q-20 4 -29 4q-17 0 -46 -9t-46 -9q-13 0 -40 5t-40 5h-10q4 -24 18.5 -69.5t18.5 -67.5q9 3 28 10.5t33 11.5t29 4q18 0 46 -11t38 -13q-4 -16 -4 -23q0 -15 15 -41.5t15 -42.5q0 -18 -19 -44t-19 -42q0 -14 14 -36t14 -35q0 -20 -16 -48q-25 5 -29 5 q-17 0 -46 -9.5t-46 -9.5q-13 0 -40 5t-40 5h-2q8 -28 8 -45q0 -20 -5.5 -53t-8 -53t3.5 -53q-79 -27 -111 -27q-25 0 -53 16.5t-45 16.5q-20 0 -55 -12.5t-55 -12.5q-16 0 -33 10q-8 16 -8 41q0 23 13 65t13 64q0 17 -8 45q-35 5 -41 5q-28 0 -56 -15.5t-42 -15.5 q-12 0 -26.5 2.5t-24 5.5t-26.5 8.5t-24 7.5q7 21 7 39q0 22 -15.5 60t-15.5 59q0 17 13 45.5t13 44.5q0 25 -10 55q6 2 23.5 9t27 10.5t24.5 6.5t28 3q21 0 61 -16.5t63 -16.5q4 0 11 1t10 1q-16 32 -16 58q0 24 18 94q-28 4 -43 4q-28 0 -56 -15.5t-42 -15.5 q-12 0 -26.5 2.5t-24.5 6t-26 9t-24 7.5q7 21 7 39q0 21 -15.5 59t-15.5 60q0 16 13 45t13 45q0 25 -10 55q6 2 23.5 9t27 10.5t24.5 6.5t28 3q12 0 23 -2.5t31 -11t23 -9.5q-3 3 -9 10.5t-9 10.5q-22 23 -36.5 65t-20.5 53q-10 19 -41 42.5t-39 54.5q-1 5 -4 18t-4 17 l-3.5 14t-4.5 14l-6 12t-8 13.5t-10 12.5t-14 15q-21 22 -23.5 64t-16.5 63q-4 7 -34 33.5t-30 44.5q5 2 18.5 9t19.5 10t18.5 8t21 7.5t20 4.5t21.5 2q23 0 65 -16.5t64 -16.5q12 0 38 4.5t38 4.5q20 0 45 -7q55 -55 90 -147q9 -25 16 -75.5t15 -73.5q4 -12 12.5 -26 t14 -21.5t19.5 -24.5t17 -21q3 31 13 50.5t20 26.5t23 19.5t20 28.5q6 14 7.5 48.5t12.5 50.5q7 11 28.5 32t29.5 35q9 16 16 52t33 67h16q19 0 36 -8t19 -8q11 0 46 18t57 18q18 0 43 -19t43 -19q12 0 33 4t32 4q19 0 27 -11z" />
<glyph unicode="&#xa7;" horiz-adv-x="976" d="M616 852v2q-3 3 -12 6q-16 5 -37 28t-55 23q-28 0 -55 -32q-4 -4 -31 -23.5t-33 -32.5l4 -24q5 -23 23 -37t20 -21q0 -26 17 -26q6 0 20 3t21 3q9 0 27 -6t28 -6q24 0 41.5 18.5t17.5 38.5q0 7 -4 20.5t-4 20.5t6 22t6 23zM936 1335q-61 -49 -102 -49q-7 0 -23 2t-23 2 q-19 0 -33 -4.5t-32.5 -15.5t-26.5 -15q-16 3 -22.5 14t-5.5 22.5t-4 23t-19 16.5q-17 6 -28 19.5t-24 22.5t-40 9q-28 0 -55 -32q-8 -8 -26.5 -20t-30 -23t-11.5 -25q0 -9 8 -27.5t8 -27.5q0 -14 0.5 -19t4 -13.5t13 -11.5t25.5 -3q30 0 69 -19.5t60 -19.5q12 0 34 4t34 4 q26 0 42.5 -15.5t27 -34.5t18.5 -22q8 -4 45.5 -10.5t46.5 -26.5q5 -10 7.5 -34t13.5 -37q28 -28 28 -51q0 -8 -3 -16.5t-10 -20.5t-9 -15l2 -4l-4 -2q-4 -12 -4 -16q0 -10 22.5 -34.5t22.5 -43.5q0 -18 -16 -35t-32 -31t-16 -24q0 -5 1 -16t1 -17q0 -19 -4.5 -30.5 t-15.5 -16.5t-18 -6t-25 -2q12 -6 18 -21q5 -9 7.5 -32.5t13.5 -36.5q28 -32 28 -52q0 -14 -14 -38t-14 -37q0 -8 22.5 -32.5t22.5 -43.5q0 -18 -16 -35.5t-32 -31t-16 -23.5q0 -6 1 -17t1 -16q0 -33 -14.5 -44t-43 -12t-40.5 -7q-9 -4 -11.5 -18t-4.5 -27.5t-25 -25 t-67 -11.5q-10 0 -28.5 6t-27.5 6q-25 0 -50 -17.5t-48 -17.5q-37 0 -71 14.5t-46 14.5t-35 -6.5t-36 -6.5q-11 0 -26.5 12t-32.5 28.5t-23 21.5q-22 12 -30 21.5t-14.5 30.5t-9.5 28q-5 13 -19 23.5t-27 16.5t-23 18.5t-10 31.5v18q24 2 44 21t33 20q43 3 68 12.5 t32.5 19.5t25.5 22.5t48 19.5q14 -12 26 -19q7 -4 10 -22q2 -10 3 -16q5 -25 23 -38t20 -20q0 -28 17 -28q6 0 20 3t21 3q9 0 27 -5t28 -5q23 0 41 18t18 37q0 7 -4 20.5t-4 20.5q0 8 6 23t6 22q0 24 -13.5 32.5t-33.5 14t-30 18.5q-24 31 -60 31q-12 0 -31.5 -3t-29.5 -3 q-16 0 -45 25q-4 -2 -10 -2q-15 0 -41 26q-27 15 -37 33l-4 2q-26 14 -37 35q-13 6 -42.5 10.5t-45 13t-15.5 29.5q0 9 8 26t9 23q-11 15 -11 35v4q-20 16 -20 33q0 14 18.5 39t18.5 39q0 15 -15.5 36t-15.5 29t10 20t20.5 20.5t27.5 21t20 14.5q18 13 37.5 43t28.5 39 q-11 4 -39.5 8t-42 12.5t-13.5 28.5q0 11 10.5 33t10.5 35q0 9 -17.5 24t-17.5 29q0 16 18.5 40.5t18.5 37.5q0 15 -15.5 36t-15.5 29t10 20t20.5 20.5t27.5 21t20 14.5q17 14 38.5 46t37.5 46q14 12 25.5 19t26.5 9.5t23 3t30.5 0t33.5 -0.5q22 0 57.5 12t53.5 12 q6 0 18 -2t18 -2q15 0 43 7.5t43 7.5q11 0 38 -13t57.5 -30t40.5 -21q24 -10 32.5 -41t18.5 -41q7 -7 26.5 -18.5t33.5 -23t14 -23.5q0 -24 16 -64z" />
<glyph unicode="&#xa8;" horiz-adv-x="966" d="M535 1694q0 -16 -15 -35q-9 -12 -19 -37.5t-22.5 -36t-40.5 -10.5q-10 0 -29.5 5t-29.5 5q-16 0 -37.5 -16.5t-34.5 -16.5q-30 0 -54 39.5t-24 71.5q0 12 9 39q6 18 6 40t5 39t25 36q37 32 54 32q8 0 22.5 -4t22.5 -4q13 0 38 8.5t38 8.5q17 0 24.5 -21t11 -50t9.5 -38 q4 -6 15 -15t18.5 -18.5t7.5 -21.5zM915 1757q0 -15 -8 -39q-6 -18 -6 -41t-5.5 -40t-25.5 -35q-36 -31 -53 -31q-7 0 -22.5 3t-22.5 3q-14 0 -38 -7t-38 -7q-17 0 -24.5 21t-11 49.5t-9.5 37.5q-4 6 -15 15t-18.5 18.5t-7.5 21.5q0 8 15 33q9 12 19 37.5t22.5 36t40.5 10.5 q10 0 29.5 -4t29.5 -4q16 0 38 15.5t34 15.5q30 0 53.5 -38.5t23.5 -70.5z" />
<glyph unicode="&#xa9;" horiz-adv-x="1343" d="M948 520q0 -14 -12 -39t-12 -39q0 -17 -13.5 -28t-27 -23.5t-13.5 -34.5q0 -11 -1.5 -20t-5.5 -15t-6.5 -11t-10 -7.5t-11 -4.5t-14 -2.5t-14.5 -0.5h-17h-16q-8 0 -18 -8.5t-28.5 -17.5t-47.5 -9q-16 0 -29.5 4.5t-20 9t-21.5 16.5t-21 17q-11 9 -20 11.5t-20.5 2.5 t-21.5 3q-9 3 -15 8t-10.5 14.5t-6 13.5t-4.5 19t-3 16q-3 14 -32.5 44t-32.5 53q-2 12 -2 36q0 12 4 33t4 33q0 20 -16.5 56t-16.5 57q0 15 11.5 44t11.5 44q0 21 -17.5 56t-17.5 56q0 17 21.5 44t21.5 44q0 13 -4 36t-4 36q0 23 27.5 50t29.5 30q6 8 12 28.5t13 30.5 q26 33 84 33q12 0 45.5 21.5t66.5 21.5q35 0 63 -26.5t54 -30.5q33 -4 44 -19t11 -49q0 -19 23.5 -42.5t26.5 -29.5q8 -14 9 -47t17 -53q-12 -17 -44 -23t-70 -13t-60 -27q-6 9 -7 14.5t0 16t1 16.5q0 13 -17.5 33t-17.5 42q0 43 -35 43q-26 0 -48.5 -20t-22.5 -45 q0 -7 3 -20.5t3 -20.5q0 -15 -18.5 -39t-18.5 -41q0 -19 20.5 -50.5t20.5 -39.5q0 -6 -10.5 -19t-10.5 -36q0 -12 -12 -32t-12 -32q0 -20 22.5 -60.5t22.5 -51.5q0 -10 -5 -29t-5 -29q0 -32 28.5 -46.5t63.5 -14.5q5 0 8 2.5t4 7t1 8.5t-0.5 9.5t-0.5 7.5q0 7 11.5 16 t13.5 14q6 12 12 66q9 -1 22 -1.5t20.5 -1t18.5 -4.5t21 -12q42 -33 98 -30q4 -16 4 -23zM1081 563q0 20 -18.5 56t-18.5 59q0 14 9.5 42t9.5 42t-10.5 41t-10.5 41q0 26 12.5 76t12.5 77q0 51 -37 129t-37 131q0 33 -20 48.5t-46.5 17.5t-61.5 12.5t-56 32.5 q-54 57 -129 57q-59 0 -90 -45q-18 -27 -55 -42t-71 -26t-46 -28q-12 -19 -25 -59t-22 -56q-5 -10 -37.5 -42t-32.5 -52q0 -17 12.5 -47t12.5 -47q0 -21 -14.5 -62t-14.5 -63q0 -10 6 -30.5t6 -30.5q0 -33 -23.5 -94.5t-23.5 -94.5q0 -42 21.5 -87t46.5 -96t30 -101 q3 -33 23 -48.5t42.5 -17t43 -9.5t25.5 -28q25 -104 114 -104q33 0 67.5 26.5t74.5 26.5t69 -10q30 5 44.5 25.5t26.5 48.5t28 42q11 9 50.5 28t53.5 40q11 16 14.5 37.5t2 39t1.5 40.5q3 17 22 50.5t19 53.5zM1290 889q0 -27 -21.5 -74t-21.5 -74q0 -33 10.5 -97t10.5 -97 q0 -24 -15.5 -71.5t-15.5 -74.5q0 -24 -27.5 -55t-33.5 -59q-19 -91 -43 -135q-15 -13 -32 -22.5t-26 -13t-33 -10.5t-32 -10q-24 -8 -38.5 -26.5t-20.5 -35t-22 -29.5t-42 -13q-62 0 -104.5 -16t-74 -32t-65.5 -16q-45 0 -79 15.5t-51.5 34.5t-46 36.5t-63.5 20.5 q-27 2 -37.5 3.5t-28 7t-24 13.5t-12.5 23.5t-6 38.5v10q0 24 -18 44t-45.5 40t-38.5 35q-19 24 -57 80.5t-38 68.5q0 19 14.5 56t14.5 57q0 30 -25.5 86t-25.5 86q0 26 21.5 73t21.5 74q0 33 -17.5 95.5t-17.5 95.5q0 26 33 66t33 67q0 5 -1.5 15.5t-1.5 15.5q0 33 25 72 t25 63q0 28 88 101t100 91q19 28 36 40t46 12q10 0 30.5 -1t30.5 -1q17 0 28 11t19 23.5t39.5 23.5t85.5 11q34 0 61 -7.5t40 -14.5t43 -27.5t45 -30.5q23 -15 45.5 -19.5t39.5 -2.5t46 -4q69 -16 102 -129q5 -19 20 -35t32 -29t33.5 -29.5t27 -45.5t10.5 -68q0 -20 -9 -57 t-9 -56q0 -35 31.5 -94.5t31.5 -93.5z" />
<glyph unicode="&#xaa;" horiz-adv-x="737" d="M463 1018q0 22 -14.5 61t-14.5 60q0 23 10.5 68t10.5 69q0 8 -4 24q-1 0 -4.5 1.5t-4.5 1.5q-6 0 -18 -3.5t-18 -3.5q-7 0 -19.5 4.5t-19.5 4.5q-23 0 -35 -21t-13 -47.5t-4 -57t-10 -42.5q-16 -28 -16 -43q0 -37 22 -122t45 -85q8 0 24.5 6t25.5 6q19 0 32 -8 q10 14 17.5 58.5t7.5 68.5zM647 317q0 -18 -20.5 -45t-20.5 -43q0 -13 14.5 -34t14.5 -35q0 -17 -17 -47q-31 10 -73 10q-43 0 -83.5 -24.5t-60.5 -24.5q-21 0 -55 16t-53 16q-14 0 -35 -11t-33 -11q-13 0 -26.5 4.5t-30 11t-25.5 9.5q7 25 7 38q0 22 -15.5 60.5t-15.5 58.5 q0 16 13 45t13 45q0 29 -10 56q4 2 19 9t22 10t19.5 6t23.5 3t33 -8t33 -8q19 0 52 14.5t52 14.5q21 0 59 -17.5t60 -17.5q14 0 39 5t39 5q12 0 32 -4q-4 -12 -4 -21q0 -15 16.5 -42t16.5 -44zM696 774q0 -19 -13 -30t-29.5 -25t-22.5 -39q-6 -27 -19 -39t-39 -12 q-13 0 -35.5 3.5t-27.5 4.5q-11 39 -29 51q-31 -6 -82.5 -57t-70.5 -51q-11 0 -21 4t-19.5 13.5t-15 16t-14.5 20t-12 17.5q-17 23 -36 34t-34 15t-30.5 12.5t-30 35.5t-27.5 75q-8 32 -8 54q0 15 11 34t11 35q0 31 -23.5 81.5t-23.5 78.5q0 44 31.5 107.5t36.5 93.5 q3 15 4 54.5t5.5 71t17.5 46.5q15 16 49 34t41 23q3 2 14 10.5t16.5 12t15.5 7t19 3.5q21 0 60 -14.5t59 -14.5q22 0 60 19.5t57 19.5q12 0 22.5 -7t15.5 -13t14 -22t11 -19q0 -3 -1 -10.5t-1 -10.5q0 -38 28.5 -105.5t28.5 -105.5q0 -28 -15 -81t-15 -81q0 -38 18.5 -110.5 t18.5 -110.5q0 -13 -3.5 -38t-3.5 -38q0 -16 37 -53z" />
<glyph unicode="&#xab;" horiz-adv-x="1372" d="M756 1368q0 -11 -14 -24t-34 -26.5t-26 -19.5q-12 -14 -16.5 -47t-24.5 -49q-9 -7 -15.5 -12.5t-11 -12t-7.5 -10t-6 -11.5t-4 -11.5t-4.5 -14.5t-4.5 -16q-8 -24 -39.5 -41.5t-40.5 -30.5q-7 -12 -9.5 -45.5t-25.5 -52.5q-3 -2 -19.5 -14t-25 -19t-23.5 -20t-23.5 -22.5 t-15 -21t-6.5 -20.5q0 -16 32 -46t32 -36q0 -5 -2 -12.5t-2 -11.5q0 -23 14 -37.5t32 -26t23 -24.5q6 -14 12.5 -46.5t16.5 -49.5q11 -19 44.5 -46t43.5 -40q17 -22 21.5 -51t11.5 -40q6 -9 48 -46t42 -66q0 -23 12 -37q-9 -6 -22 -6q-11 0 -33 4t-33 4q-17 0 -43.5 -16.5 t-46.5 -16.5q-23 0 -56 14.5t-42 14.5q-2 0 -28 -6t-48 -6q-26 23 -33 49.5t-16 38.5q-8 11 -28 27.5t-27 23.5q-11 12 -14 38t-9 36q-6 11 -46 41t-40 45q0 6 4 17t4 17q0 18 -13 32t-28 22t-28 23t-13 34q0 23 -16 46t-32.5 38.5t-16.5 22.5q0 8 5 23.5t5 23.5 q0 13 -14.5 37.5t-14.5 39.5q0 36 54 68q37 23 62.5 68.5t43.5 62.5q8 9 39.5 32.5t38.5 37.5q9 19 15.5 56t15.5 56q36 70 90 111q14 4 45 4q12 0 38 -3t38 -3q26 0 74 13.5t75 13.5q51 0 109 -21zM1309 1368q0 -11 -14 -24t-34 -26.5t-26 -19.5q-12 -14 -16.5 -47 t-24.5 -49q-9 -7 -15.5 -12.5t-11 -12t-7.5 -10t-6 -11.5t-4 -11.5t-4.5 -14.5t-4.5 -16q-8 -24 -39.5 -41.5t-40.5 -30.5q-7 -12 -9.5 -45.5t-25.5 -52.5q-3 -2 -19.5 -14t-25 -19t-23.5 -20t-23.5 -22.5t-15 -21t-6.5 -20.5q0 -16 32 -46t32 -36q0 -5 -2 -12.5t-2 -11.5 q0 -23 14 -37.5t32 -26t23 -24.5q6 -14 12.5 -46.5t16.5 -49.5q11 -19 44.5 -46t43.5 -40q17 -22 21.5 -51t11.5 -40q6 -9 48 -46t42 -66q0 -23 12 -37q-9 -6 -22 -6q-12 0 -33 4t-33 4q-17 0 -43.5 -16.5t-46.5 -16.5q-23 0 -56 14.5t-42 14.5q-2 0 -28 -6t-48 -6 q-26 23 -33 49.5t-16 38.5q-8 11 -28 27.5t-27 23.5q-11 12 -14 38t-9 36q-6 11 -46 41t-40 45q0 6 4 17t4 17q0 18 -13 32t-28 22t-28 23t-13 34q0 23 -16.5 46t-32.5 38.5t-16 22.5q0 8 5 23.5t5 23.5q0 13 -14.5 37.5t-14.5 39.5q0 36 54 68q37 23 62.5 68.5t43.5 62.5 q8 9 39.5 32.5t38.5 37.5q9 19 15.5 56t15.5 56q36 70 90 111q14 4 45 4q13 0 38 -3t38 -3q27 0 75 13.5t74 13.5q51 0 109 -21z" />
<glyph unicode="&#xac;" horiz-adv-x="1609" d="M1544 610q0 -34 -25.5 -97.5t-25.5 -98.5q0 -64 -2 -76q-16 -4 -25 -4t-26 6t-27 6q-17 0 -42 -15.5t-36 -15.5q-17 0 -47 9t-45 10q-12 36 -12 59q0 27 13 52t13 40q0 21 -10 62t-10 63l6 60q-24 18 -61 18q-24 0 -65.5 -20.5t-67.5 -20.5q-10 0 -31 5t-33 5 q-11 0 -34 -8t-36 -8q-20 0 -60 11.5t-62 11.5q-17 0 -48 -10.5t-47 -10.5t-44 10.5t-44 10.5q-20 0 -55 -12.5t-55 -12.5q-15 0 -43.5 4t-42.5 4q-25 0 -57.5 -14.5t-37.5 -14.5q-14 0 -42.5 14.5t-45.5 14.5q-15 0 -44 -9t-44 -9q-18 0 -24 4q-17 39 -17 69q0 28 20.5 76 t20.5 72q0 11 -3 35t-3 37q0 24 4 36q21 -2 66.5 13.5t68.5 15.5q27 0 70 -22.5t68 -22.5q26 0 65 14.5t49 14.5q6 0 56 -20.5t82 -20.5q26 0 78 15.5t79 15.5q34 0 97.5 -17.5t97.5 -17.5q20 0 58 8t57 8q14 0 43 -4t45 -4q12 0 35.5 9t37.5 9q18 0 51 -8t50 -8 q38 0 108 16q21 -35 21 -90q0 -17 -4 -48t-4 -46q0 -28 14 -80t14 -78z" />
<glyph unicode="&#xad;" horiz-adv-x="692" d="M606 827q0 -18 -20.5 -45t-20.5 -43q0 -13 14.5 -34t14.5 -35q0 -19 -16 -47q-31 10 -74 10t-83.5 -24.5t-60.5 -24.5q-21 0 -55 16t-53 16q-14 0 -35 -11t-33 -11q-13 0 -26.5 4t-30 10.5t-25.5 9.5q7 21 7 39q0 20 -15.5 58.5t-15.5 60.5q0 16 13 45t13 45q0 26 -10 56 q8 3 25 11t31 12.5t28 4.5q12 0 33 -8t33 -8q18 0 52 14.5t52 14.5q22 0 60 -17.5t59 -17.5q13 0 39 5t39 5t33 -4q-5 -15 -5 -21q0 -17 16.5 -43t16.5 -43z" />
<glyph unicode="&#xae;" horiz-adv-x="1343" d="M774 981q0 9 -12 25q-7 9 -8.5 30t-9 34t-29.5 13q-5 0 -16 -3t-17 -3q-4 0 -13.5 2t-13.5 2q-1 0 -3 -1t-3 -1q-2 -6 -2 -16t6 -29.5t6 -29.5q0 -11 -11 -33.5t-11 -36.5q0 -29 14 -41q12 6 27 6q7 0 21.5 -4t21.5 -4q22 0 37.5 32t15.5 58zM967 997q0 -17 -20.5 -48 t-20.5 -56q0 -9 5 -26.5t5 -26.5q0 -38 -23 -68.5t-59 -46.5q0 -3 -1 -8t-1 -8q0 -28 6 -45.5t18 -38t19 -37.5q5 -12 5.5 -25t-0.5 -32.5t-1 -26.5q0 -10 6.5 -23t17 -28t13.5 -21q5 -11 6 -23t-0.5 -28t-1.5 -23q0 -23 18 -45q-9 -5 -16.5 -5.5t-18.5 0.5t-16 1 q-11 0 -32.5 -9t-34.5 -9t-38 9t-40 9q2 6 2 21q0 16 -14.5 44t-14.5 44q0 7 2 22.5t2 22.5q0 31 -23.5 86t-23.5 88q0 21 -7.5 29t-27.5 8q0 -15 -8 -34.5t-8 -27.5q0 -12 8 -34t8 -35q0 -15 -8 -43.5t-8 -42.5q0 -9 8 -25.5t8 -25.5v-54v-26q-39 -11 -45 -11 q-14 0 -29.5 8.5t-19.5 8.5q-3 0 -27.5 -11.5t-46.5 -11.5q-12 0 -36 4q8 19 8 45q0 14 -4 43t-4 43t12 39t12 39q0 22 -13 61.5t-13 59.5q0 17 9 47t9 47q0 23 -16.5 67t-16.5 68t16.5 67t16.5 67q0 19 -13.5 51t-13.5 49q0 18 11.5 60t3.5 81q12 12 41 22.5t47 10.5 q17 0 50 -11.5t50 -11.5q19 0 54 9.5t53 9.5q4 0 60.5 -20t61.5 -23q12 -9 18.5 -24t11 -41t5.5 -31q5 -18 31.5 -65.5t26.5 -74.5zM1081 563q0 20 -18.5 56t-18.5 59q0 14 9.5 42t9.5 42t-10.5 41t-10.5 41q0 26 12.5 76t12.5 77q0 51 -37 129t-37 131q0 33 -20 48.5 t-46.5 17.5t-61.5 12.5t-56 32.5q-54 57 -129 57q-59 0 -90 -45q-17 -27 -54 -42t-71.5 -26t-46.5 -28q-12 -19 -25 -59t-22 -56q-5 -10 -37.5 -42t-32.5 -52q0 -16 12.5 -46t12.5 -48q0 -21 -14.5 -62t-14.5 -63q0 -10 6 -30.5t6 -30.5q0 -33 -23.5 -94.5t-23.5 -94.5 q0 -57 31 -108q36 -54 46 -81.5t21 -94.5q5 -28 25 -42.5t42 -17.5t42 -13t25 -30q25 -104 114 -104q33 0 67.5 26.5t74.5 26.5t69 -10q30 5 50 22t39 43t36 39q9 7 28 17t33 20.5t23 24.5q14 22 14 51q0 10 -2 31.5t-2 31.5q0 33 21.5 70t21.5 55zM1290 889 q0 -27 -21.5 -74t-21.5 -74q0 -33 10.5 -97t10.5 -97q0 -24 -15.5 -71.5t-15.5 -74.5q0 -24 -27.5 -55t-33.5 -59q-19 -91 -43 -135q-15 -13 -32 -22.5t-26 -13t-33 -10.5t-32 -10q-24 -8 -38.5 -26.5t-20.5 -35t-22 -29.5t-42 -13q-62 0 -104.5 -16t-74 -32t-65.5 -16 q-45 0 -79 15.5t-51.5 34.5t-46 36.5t-63.5 20.5q-27 2 -37.5 3.5t-28 7t-24 13.5t-12.5 23.5t-6 38.5v10q0 24 -18 44t-45.5 40t-38.5 35q-19 24 -57 80.5t-38 68.5q0 19 14.5 56t14.5 57q0 30 -25.5 86t-25.5 86q0 26 21.5 73t21.5 74q0 33 -17.5 95.5t-17.5 95.5 q0 26 33 66t33 67q0 5 -1.5 15.5t-1.5 15.5q0 33 25 72t25 63q0 28 88 101t100 91q19 28 36 40t46 12q10 0 30.5 -1t30.5 -1q17 0 28 11t19 23.5t39.5 23.5t85.5 11q34 0 61 -7.5t40 -14.5t43 -27.5t45 -30.5q23 -15 45.5 -19.5t39.5 -2.5t46 -4q69 -16 102 -129 q5 -19 20 -35t32 -29t33.5 -29.5t27 -45.5t10.5 -68q0 -20 -9 -57t-9 -56q0 -35 31.5 -94.5t31.5 -93.5z" />
<glyph unicode="&#xaf;" horiz-adv-x="2048" />
<glyph unicode="&#xb0;" horiz-adv-x="737" d="M457 1243q0 39 -27.5 81t-64.5 42q-16 0 -52.5 -61t-36.5 -78q0 -2 7.5 -11.5t15.5 -21.5t10 -18q0 -1 3.5 -15.5t5.5 -20.5t7 -16.5t11.5 -15t15.5 -4.5h51q16 0 21 26q3 11 4.5 23.5t4.5 21t11 23.5q13 23 13 45zM653 1212q0 -13 -14 -34.5t-16 -26.5q-7 -19 -7.5 -59 t-7.5 -60q-18 -51 -72.5 -113.5t-99.5 -62.5q-14 0 -41 7t-41 7q-12 0 -35 -7t-36 -7q-41 0 -67 42t-32 89q-44 24 -58.5 62t-14.5 96q0 22 -10.5 61t-10.5 58q0 27 21.5 67t25.5 58q2 8 5 30t6 34.5t10 29t18 26.5q4 4 24.5 23t36.5 33.5t34.5 27.5t27.5 13q14 0 34 -10 t36 -9q20 -8 34 -8q7 0 19.5 6t19.5 6q28 0 49.5 -13t32.5 -28.5t23 -32t22 -20.5q46 -20 60 -53t14 -90q0 -9 -6 -25.5t-6 -25.5q0 -17 11 -46.5t11 -44.5z" />
<glyph unicode="&#xb1;" horiz-adv-x="952" d="M895 213q0 -18 -19.5 -44t-19.5 -42q0 -13 14.5 -36t14.5 -36q0 -17 -17 -47q-20 4 -28 4q-16 0 -46 -9t-46 -9q-14 0 -40 5t-40 5q-20 0 -74.5 -24.5t-91.5 -24.5q-27 0 -71 23.5t-62 23.5q-15 0 -44 4t-44 4q-28 0 -56.5 -15t-42.5 -15q-12 0 -26.5 2.5t-23.5 5.5 t-26 8.5t-24 7.5q6 18 6 39t-15.5 59t-15.5 60q0 16 13.5 45t13.5 45q0 25 -10 55q7 3 24 9.5t26.5 10t24 6.5t27.5 3q21 0 61.5 -16.5t63.5 -16.5q20 0 66.5 23.5t95.5 23.5q35 0 95 -21.5t91 -21.5q23 0 67 18.5t68 18.5q18 0 46 -11.5t38 -13.5q-4 -16 -4 -22 q0 -15 15.5 -42t15.5 -42zM874 1032q0 -18 -19 -44t-19 -42q0 -13 14 -35.5t14 -36.5q0 -19 -16 -47q-20 4 -29 4q-15 0 -43 -8t-43 -8q-10 0 -30.5 6t-30.5 6q-13 0 -21 -8q8 -36 8 -53q0 -14 -5 -41t-5 -41q0 -22 12.5 -65t12.5 -66q0 -25 -6 -37q-17 -10 -33 -10 q-19 0 -56 12t-57 12q-16 0 -45 -16t-53 -16q-28 0 -109 28q4 12 4 39q0 21 -8 60t-8 59q0 24 15.5 65t17.5 60q-7 1 -29 9.5t-33 8.5q-14 0 -35 -14t-38 -14q-12 0 -26 2.5t-23.5 5.5t-25.5 8.5t-24 7.5q7 21 7 39q0 20 -15.5 58.5t-15.5 60.5q0 17 13 45t13 45 q0 25 -10 55q6 2 23.5 9t27 10.5t24.5 6.5t28 3t35 -9t34 -9q15 0 41 10t35 12q0 17 -12.5 50t-12.5 51q0 12 7.5 34t7.5 35q0 24 -21 72q9 7 20.5 8t28 -1.5t23.5 -2.5q13 0 37.5 8t38.5 8q21 0 57 -15t57 -15q13 0 38 5t38 5q-1 -8 -4.5 -30.5t-3.5 -35.5t6 -39t6 -39 q0 -21 -13 -57.5t-15 -54.5q8 2 24 2q15 0 41 -7t41 -7t42.5 5t41.5 5q13 0 33 -4q-4 -16 -4 -23q0 -16 15 -42t15 -42z" />
<glyph unicode="&#xb4;" horiz-adv-x="878" d="M817 1825q0 -31 -14 -66q-6 -17 -40.5 -42t-43.5 -42q-11 -18 -18.5 -47.5t-18.5 -52.5t-35 -39h-4q-11 0 -31 17.5t-43 17.5q-21 0 -45.5 -12.5t-29.5 -12.5q-6 0 -29.5 11.5t-30.5 13.5v4q0 14 8 25.5t17.5 21t17.5 33.5t8 59q0 108 50 144q15 -9 34 -9q13 0 33.5 10.5 t28.5 10.5q21 0 60 -15.5t61 -15.5q29 0 59 10q6 -6 6 -24z" />
<glyph unicode="&#xb5;" horiz-adv-x="1122" d="M1069 1403q0 -6 -15.5 -34t-15.5 -48q0 -7 4.5 -22t4.5 -23q0 -10 -8.5 -26t-8.5 -23q0 -5 8.5 -18t8.5 -23q0 -18 -25 -58t-25 -65q0 -13 20.5 -53t20.5 -66q0 -15 -6 -43t-6 -41q0 -14 14.5 -43t14.5 -49t-19.5 -55t-19.5 -54q0 -6 1 -16.5t1 -15.5q0 -21 -13.5 -59 t-13.5 -58q0 -19 -15 -32.5t-37.5 -27t-31.5 -24.5t-15.5 -41.5t-21.5 -42.5q-12 -10 -25 -16t-21 -9.5t-26 -5.5t-23 -2h-29.5h-28.5q-12 0 -25.5 -7t-27 -15.5t-42 -15.5t-65.5 -7q-67 0 -127 29q-4 -10 -37 -61t-33 -87q0 -16 4.5 -45.5t4.5 -44.5q0 -35 -21 -59h-10 q-12 0 -30 12t-36 12q-27 0 -48 -6.5t-32.5 -13t-15.5 -6.5q-7 0 -20 8.5t-27.5 21t-19.5 15.5q-5 15 -5 18q0 15 10.5 44t10.5 46q0 21 -12.5 42.5t-12.5 29.5q0 15 14.5 56.5t14.5 66.5q0 44 -21.5 84t-21.5 68q0 39 8 75q-2 2 -2 6q-4 32 -4 46q0 17 7 48t7 46 q0 19 -10 57t-10 57q0 8 4 24t4 24q0 25 -20.5 67t-20.5 57q0 29 26.5 81t26.5 81q0 27 -19.5 78t-19.5 78q0 30 17.5 86t17.5 84q0 30 -22 67q18 11 59 11q19 0 52 10t51 10q16 0 46 -6t46 -6q15 0 43 7.5t41 8.5q0 -31 19.5 -88t19.5 -88q0 -27 -21.5 -80t-21.5 -80 q0 -21 16 -58t16 -58q0 -15 -17 -43t-17 -45q0 -18 12 -54.5t12 -56.5q0 -19 -12 -53.5t-12 -52.5q0 -35 16 -68.5t32.5 -56t16.5 -31.5t-5 -27.5t-5 -27.5q0 -34 33.5 -66.5t74.5 -32.5t58 43q0 2 -1 6.5t-1 6.5q0 12 14.5 19.5t29.5 16.5t15 25q0 10 -5 31t-5 33 q0 19 20.5 53t20.5 53q0 15 -12 35q-8 13 -12 24t-4.5 16.5t0.5 19.5t1 22q0 6 -3 17.5t-3 17.5q0 15 21.5 43t21.5 51t-21.5 67t-21.5 68q0 18 12.5 51t12.5 51q0 28 -16.5 80t-16.5 80q0 16 8.5 51.5t7.5 53.5q21 6 43 6q13 0 39.5 -3t40.5 -3q24 0 77.5 17t86.5 17 q39 0 76 -12q6 -9 6 -22t-11.5 -39t-11.5 -39q0 -16 15.5 -41t15.5 -37z" />
<glyph unicode="&#xb6;" horiz-adv-x="1540" d="M590 1028q0 22 -18.5 60.5t-18.5 58.5q0 17 11 49t11 49t-4 25q-2 0 -5 1t-5 1q-8 0 -23.5 -3t-23.5 -3q-9 0 -25.5 4t-25.5 4q-28 0 -42 -15.5t-16 -34.5t-6.5 -42.5t-13.5 -34.5q-23 -32 -23 -45q0 -26 9.5 -59.5t31 -62t48.5 -28.5q13 0 37 7.5t36 7.5q22 0 43 -9 q23 23 23 70zM1464 313q0 -23 -14 -64t-14 -63t12 -65t12 -66q0 -27 -6 -39q-17 -10 -33 -10q-19 0 -55 12.5t-55 12.5t-48 -16.5t-53 -16.5q-38 0 -108 27q4 14 4 43q0 20 -8 58t-8 58q0 24 17 67t17 66q0 29 -28.5 92t-28.5 97q0 35 21.5 101.5t21.5 101.5 q0 30 -20.5 81.5t-20.5 71.5q0 36 27.5 100t27.5 99q0 34 -20 95t-21 93q-6 -3 -20 -12t-24.5 -13.5t-22.5 -4.5q-20 0 -56 16t-57 16q-2 -5 -8 -19l-9 -21t-7 -18.5t-5.5 -22t-1.5 -21.5q0 -39 27 -110.5t27 -110.5q0 -40 -27 -115t-27 -115q0 -26 14.5 -76t14.5 -77 q0 -35 -21.5 -101.5t-21.5 -101.5q0 -23 20.5 -63.5t20.5 -67.5q0 -23 -8 -68t-8 -67q0 -35 12 -62q-33 -24 -88 -24q-25 0 -54.5 16.5t-39.5 16.5q-7 0 -33 -13.5t-49 -13.5q-24 0 -74 16q2 14 2 45q0 15 -1 45t-1 45t13.5 43.5t13.5 45.5q0 24 -13.5 70t-13.5 71 q0 21 13.5 58t13.5 57q0 12 -16.5 47t-10.5 57q-14 16 -49 16q-14 0 -39.5 -5t-38.5 -5q-51 0 -115 60q-27 26 -59.5 35t-54.5 9t-46.5 21.5t-43.5 71.5q-17 49 -17 71q0 16 8.5 46t8.5 45q0 43 -34 94t-34 78q0 46 43.5 124t50.5 109q2 9 8 40t10.5 47.5t15.5 38.5t26 34 q22 16 59 23t51 14q6 3 21.5 10.5t24 11t22 7t26.5 3.5q29 0 87 -14t87 -14t85 19.5t85 19.5q27 0 77 -18.5t77 -18.5q19 0 53 14t52 14q28 0 83 -11t82 -11q13 0 38 8t38 8q21 0 59 -14t58 -14q12 0 37 5t37 5q-4 -20 -4 -33q0 -28 16 -83t16 -83q0 -34 -21.5 -98 t-21.5 -98t18.5 -98.5t18.5 -98.5q0 -26 -18.5 -73t-18.5 -72q0 -34 19.5 -99.5t19.5 -99.5q0 -27 -17.5 -77t-17.5 -77q0 -29 19.5 -85t19.5 -85z" />
<glyph unicode="&#xb7;" horiz-adv-x="444" d="M408 795q0 -11 -9 -43q-6 -19 -7 -44.5t-7.5 -43t-30.5 -37.5q-40 -35 -61 -35q-9 0 -27.5 4t-27.5 4q-14 0 -43 -7t-43 -7q-21 0 -29 14q-9 14 -14 49.5t-15 50.5q-2 3 -24.5 23t-22.5 37q0 22 34 71.5t60 53.5q8 2 23 2q12 0 34 -5t33 -5q19 0 44 18t40 18 q34 0 63.5 -41t29.5 -77z" />
<glyph unicode="&#xb8;" horiz-adv-x="745" d="M678 -147q0 -22 -45 -58t-70 -41q-33 -6 -44 -28t-30 -27q-53 -16 -106 -16q-15 0 -45 7t-45 7q-14 0 -39 -4.5t-35 -5.5q-22 18 -22 41q0 10 17 22t17 21q0 11 -13 31t-13 38q0 26 16 39h8q13 0 40 -4t40 -4q33 0 77 17t44 44q0 40 -14.5 99.5t-32.5 97.5h23q16 0 46 2 t46 2q17 0 45 -4q7 -1 28.5 -2.5t37 -4t29 -11t13.5 -23.5q0 -18 6.5 -55t6.5 -56q0 -8 -6.5 -22.5t-6.5 -22.5q0 -14 13.5 -42t13.5 -37z" />
<glyph unicode="&#xba;" horiz-adv-x="737" d="M457 1079q0 46 -27.5 95t-64.5 49q-16 0 -52.5 -70.5t-36.5 -91.5q0 -1 7.5 -12.5t15.5 -25.5t10 -22q1 -2 4 -17t5 -23t7 -19t11.5 -16.5t15.5 -5.5h51q16 0 21 30q3 12 4.5 26.5t4.5 24.5t11 27q13 26 13 51zM647 336q0 -18 -20.5 -45t-20.5 -43q0 -14 14.5 -35 t14.5 -35q0 -17 -17 -47q-31 10 -73 10q-43 0 -83.5 -24.5t-60.5 -24.5q-21 0 -55 16.5t-53 16.5q-14 0 -35 -11.5t-33 -11.5q-13 0 -26.5 4.5t-30 11t-25.5 9.5q7 21 7 39q0 20 -15.5 58.5t-15.5 60.5q0 17 13 45t13 45q0 25 -10 55q8 3 25 11.5t31 13t28 4.5q11 0 33 -8.5 t33 -8.5q19 0 52 14.5t52 14.5q21 0 59 -17.5t60 -17.5q14 0 39 5t39 5q12 0 32 -4q-4 -12 -4 -20q0 -16 16.5 -43t16.5 -43zM653 1044q0 -14 -13.5 -38.5t-16.5 -32.5q-7 -22 -7.5 -68.5t-7.5 -68.5q-19 -59 -73 -132t-99 -73q-14 0 -41 8t-41 8q-12 0 -35 -8t-36 -8 q-41 0 -67 49t-32 102q-43 28 -58 73t-15 112q0 25 -10.5 69.5t-10.5 67.5q0 32 21.5 78t25.5 67q2 10 5 35t6 40.5t10 34t18 30.5q3 3 12.5 14t17.5 19.5t20 21t21.5 21.5t20 18t18.5 13.5t13 4.5q14 0 34 -11.5t36 -10.5q22 -9 34 -9q7 0 19.5 7.5t19.5 7.5q36 0 60 -23.5 t40 -52.5t27 -35q46 -23 60 -61t14 -105q0 -10 -6 -29.5t-6 -29.5q0 -19 11 -53t11 -52z" />
<glyph unicode="&#xbb;" horiz-adv-x="1372" d="M750 721q0 -36 -54 -68q-30 -18 -39.5 -35.5t-14 -39t-17.5 -39.5q-12 -17 -53 -55t-52 -62q-8 -17 -15 -55.5t-16 -57.5q-43 -73 -92 -110q-14 -4 -45 -4q-12 0 -38 3t-38 3q-26 0 -74 -13.5t-75 -13.5q-51 0 -109 21q0 11 14.5 24t35 26.5t26.5 20.5q14 16 16 47t23 47 q10 8 17.5 15t12 12t8.5 14t5.5 13t5.5 16.5t6 18.5q8 25 38.5 41.5t39.5 29.5t10 45.5t25 52.5q48 40 76 95q3 6 22 22t19 29q0 15 -32 44t-32 36q0 4 2 12t2 12q0 22 -12.5 34t-29.5 21.5t-23 22.5q-6 11 -17 39t-20 43q-11 17 -43.5 44t-44.5 42q-17 21 -21.5 49 t-11.5 39q-10 14 -38 39t-38 39q-8 11 -12.5 35.5t-13.5 36.5q12 8 22 8q11 0 33 -5t33 -5q17 0 43 16t45 16q23 0 58 -14t44 -14q5 0 30 6t44 6q26 -23 33 -49.5t16 -38.5q8 -11 29.5 -27t28.5 -24q11 -12 12.5 -38t7.5 -36q6 -11 46 -41t40 -45q0 -6 -4 -17t-4 -16 q0 -18 13 -32.5t28 -22.5t28 -23t13 -34q0 -22 15 -37.5t29.5 -23.5t14.5 -13q0 -8 -5 -24t-5 -23q0 -15 14.5 -40t14.5 -40zM1303 721q0 -36 -54 -68q-30 -18 -39.5 -35.5t-14 -39t-17.5 -39.5q-12 -17 -53 -55t-52 -62q-8 -17 -15 -55.5t-16 -57.5q-43 -73 -92 -110 q-14 -4 -45 -4q-13 0 -38 3t-38 3q-27 0 -75 -13.5t-74 -13.5q-51 0 -109 21q0 11 14.5 24t35 26.5t26.5 20.5q14 16 16 47t23 47q10 8 17.5 15t12 12t8.5 14t5.5 13t5.5 16.5t6 18.5q8 25 38.5 41.5t39.5 29.5t10 45.5t25 52.5q48 40 76 95q3 6 22 22t19 29q0 15 -32 44 t-32 36q0 4 2 12t2 12q0 22 -12.5 34t-29.5 21.5t-23 22.5q-6 11 -17 39t-20 43q-11 17 -43.5 44t-44.5 42q-17 21 -21.5 49t-11.5 39q-10 14 -38 38.5t-38 39.5q-8 11 -12.5 35.5t-13.5 36.5q12 8 22 8q11 0 32.5 -5t33.5 -5q17 0 43 16t45 16q23 0 58 -14t44 -14q5 0 30 6 t44 6q26 -23 33 -49.5t16 -38.5q8 -11 29 -27t28 -24q11 -12 13 -38t8 -36q6 -11 46 -41t40 -45q0 -6 -4 -17t-4 -16q0 -18 13 -32.5t28 -22.5t28 -23t13 -34q0 -22 14.5 -37.5t29.5 -23.5t15 -13q0 -8 -5 -24t-5 -23q0 -15 14.5 -40t14.5 -40z" />
<glyph unicode="&#xbf;" horiz-adv-x="972" d="M944 307q-16 -62 -16 -92q0 -18 -15 -34.5t-37 -33.5t-30 -28q-10 -13 -19 -58.5t-36 -60.5q-11 -5 -45.5 -29t-65.5 -42.5t-43 -18.5q-17 0 -46 10t-46 10q-7 0 -20.5 -3t-20.5 -3q-20 0 -59 17.5t-64 17.5q-10 0 -29.5 -1t-29.5 -1q-56 0 -97 47q-16 19 -41.5 66 t-44.5 67l-22.5 22.5t-29 29.5t-22 29t-10.5 28q0 14 16.5 44t16.5 50q0 22 -20.5 58t-20.5 57q0 20 21.5 45t21.5 47q0 11 -4 33t-4 34q0 38 19 53.5t49.5 25t44.5 26.5q12 14 24.5 38t27 38.5t40.5 23.5q18 6 41.5 32t42.5 26q7 0 21.5 -2.5t21.5 -2.5q19 0 37 9t18 26 q0 9 -14.5 32t-14.5 36q0 14 12.5 36.5t12.5 35.5q0 5 -3 15t-3 15q0 7 4 19q24 12 53 12q20 0 56.5 -13.5t54.5 -13.5q17 0 48 13.5t48 13.5q18 0 35 -10q18 -36 18 -66q0 -14 -8 -30.5t-8 -20.5q0 -6 16.5 -25t16.5 -36q0 -11 -21.5 -29t-21.5 -31q0 -9 14 -29t14 -34 q0 -24 -9.5 -36t-32.5 -22t-31 -16q-9 -6 -12.5 -39t-28.5 -55q-18 -16 -56.5 -30t-48.5 -19q-9 -5 -31 -20t-39 -21.5t-38 -6.5q-18 0 -28 -4.5t-14.5 -16.5t-5 -20t-0.5 -28q0 -15 -9 -40t-9 -40q0 -20 13 -36.5t33 -33t28 -28.5q10 -15 16 -22t19 -16t26 -9q24 0 39 8.5 t21 19.5t17.5 24.5t27.5 20.5q19 8 22 33t7 48.5t26 29.5q9 -6 24.5 -18t23.5 -17.5t22.5 -10.5t31.5 -5q8 0 26 3t26 3q20 0 43 -14t33 -23t34 -33zM801 1391q0 -22 -34 -71.5t-60 -53.5q-8 -2 -23 -2q-12 0 -34 5t-34 5q-19 0 -44 -18.5t-40 -18.5q-34 0 -63 41.5 t-29 77.5q0 12 9 43q6 19 7 44.5t7.5 43t30.5 37.5q40 35 61 35q9 0 27.5 -4.5t27.5 -4.5q14 0 43 7.5t43 7.5q20 0 29 -15q9 -14 14 -49.5t15 -50.5q2 -3 24.5 -22.5t22.5 -36.5z" />
<glyph unicode="&#xc0;" horiz-adv-x="1093" d="M659 496q-1 6 -10.5 37.5t-9.5 48.5q0 12 7 31.5t7 29.5q0 21 -22.5 57t-22.5 56q0 14 15.5 37t15.5 38t-19 49.5t-22 49.5t-5.5 59.5t-10.5 67.5q-20 -23 -31.5 -43t-16 -44t-5.5 -36.5t0 -47t1 -48.5q0 -23 -29.5 -64t-29.5 -67q0 -13 6 -36t6 -36q0 -22 -15 -63.5 t-15 -65.5q11 -8 26 -8t41 7t41 7q16 0 40 -11.5t36 -11.5q1 0 22 7zM1083 -4q-50 -10 -61 -10t-25.5 7t-19.5 7q-6 0 -31 -11.5t-45 -11.5q-15 0 -37 14.5t-35 14.5t-36 -11t-37 -11q-2 0 -7.5 1t-7.5 1v10q0 12 8.5 32t8.5 31q0 13 -25.5 49t-25.5 58q0 10 8 28.5t8 28.5 q0 2 -1 7.5t-1 7.5q-30 6 -31 6q-20 0 -54 -16.5t-54 -16.5q-15 0 -35.5 15.5t-32.5 15.5t-29 -13.5t-28 -15.5q-17 10 -35 10q-12 0 -21 -6q7 -21 7 -41q0 -18 -14.5 -52t-14.5 -52q0 -23 6 -47q-38 -19 -51 -19q-12 0 -30 9.5t-30 9.5q-9 0 -28.5 -9.5t-32.5 -9.5 q-15 0 -37 12.5t-35 12.5q-14 0 -38 -14.5t-40 -14.5q-8 0 -20 4v14q0 15 10 41.5t10 40.5q0 11 -4 33.5t-4 34.5q0 34 10.5 57.5t23.5 33.5t23.5 26t10.5 37q0 18 -11.5 54t-11.5 56q0 27 20.5 48.5t20.5 39.5q0 14 -2 40t-2 40q0 47 4 72q3 17 25 49t22 59q0 18 -4 53 t-4 52q0 23 19.5 46t19.5 46q0 17 -11 47t-11 45q0 25 39.5 73t39.5 79q0 15 -8 43t-8 43q0 25 21.5 55.5t21.5 46.5q0 9 -3 28.5t-3 28.5q0 16 6 31h10q12 0 32 -7t30 -7q19 0 45.5 18.5t42.5 18.5q15 0 57 -17.5t66 -17.5t67 13t66 13q19 0 55 -5t55 -5q5 -7 5 -22 q0 -13 -5.5 -37t-5.5 -37q0 -16 23.5 -59.5t23.5 -79.5q0 -16 -10 -47t-10 -47t18.5 -57t18.5 -70t24.5 -83t24.5 -83q0 -17 -11.5 -49t-11.5 -48q0 -28 33 -82t33 -77q0 -17 -7 -48t-7 -47q0 -27 28.5 -72.5t28.5 -74.5q0 -18 -10.5 -50t-10.5 -48q0 -18 15 -37 q14 -17 21 -36t8 -28.5t0 -38.5t-1 -36q0 -14 19.5 -48.5t19.5 -64.5zM680 1616v-4q-7 -2 -30 -13.5t-29 -11.5t-31 12.5t-45 12.5q-23 0 -42.5 -17.5t-31.5 -17.5h-4q-24 16 -35.5 39t-19 53t-17.5 47q-9 17 -43.5 42t-40.5 42q-14 35 -14 66q0 18 6 24q30 -10 59 -10 q22 0 61 15.5t60 15.5q8 0 28.5 -10.5t33.5 -10.5q22 0 35 8q23 -17 34.5 -48t13 -52.5t1.5 -60.5v-3.5v-3.5v-4q0 -30 25.5 -61t25.5 -49z" />
<glyph unicode="&#xc1;" horiz-adv-x="1093" d="M659 496q-1 6 -10.5 37.5t-9.5 48.5q0 12 7 31.5t7 29.5q0 21 -22.5 57t-22.5 56q0 14 15.5 37t15.5 38t-19 49.5t-22 49.5t-5.5 59.5t-10.5 67.5q-20 -23 -31.5 -43t-16 -44t-5.5 -36.5t0 -47t1 -48.5q0 -23 -29.5 -64t-29.5 -67q0 -13 6 -36t6 -36q0 -22 -15 -63.5 t-15 -65.5q11 -8 26 -8t41 7t41 7q16 0 40 -11.5t36 -11.5q1 0 22 7zM1083 -4q-50 -10 -61 -10t-25.5 7t-19.5 7q-6 0 -31 -11.5t-45 -11.5q-15 0 -37 14.5t-35 14.5t-36 -11t-37 -11q-2 0 -7.5 1t-7.5 1v10q0 12 8.5 32t8.5 31q0 13 -25.5 49t-25.5 58q0 10 8 28.5t8 28.5 q0 2 -1 7.5t-1 7.5q-30 6 -31 6q-20 0 -54 -16.5t-54 -16.5q-15 0 -35.5 15.5t-32.5 15.5t-29 -13.5t-28 -15.5q-17 10 -35 10q-12 0 -21 -6q7 -21 7 -41q0 -18 -14.5 -52t-14.5 -52q0 -23 6 -47q-38 -19 -51 -19q-12 0 -30 9.5t-30 9.5q-9 0 -28.5 -9.5t-32.5 -9.5 q-15 0 -37 12.5t-35 12.5q-14 0 -38 -14.5t-40 -14.5q-8 0 -20 4v14q0 15 10 41.5t10 40.5q0 11 -4 33.5t-4 34.5q0 34 10.5 57.5t23.5 33.5t23.5 26t10.5 37q0 18 -11.5 54t-11.5 56q0 27 20.5 48.5t20.5 39.5q0 14 -2 40t-2 40q0 47 4 72q3 17 25 49t22 59q0 18 -4 53 t-4 52q0 23 19.5 46t19.5 46q0 17 -11 47t-11 45q0 25 39.5 73t39.5 79q0 15 -8 43t-8 43q0 25 21.5 55.5t21.5 46.5q0 9 -3 28.5t-3 28.5q0 16 6 31h10q12 0 32 -7t30 -7q19 0 45.5 18.5t42.5 18.5q15 0 57 -17.5t66 -17.5t67 13t66 13q19 0 55 -5t55 -5q5 -7 5 -22 q0 -13 -5.5 -37t-5.5 -37q0 -16 23.5 -59.5t23.5 -79.5q0 -16 -10 -47t-10 -47t18.5 -57t18.5 -70t24.5 -83t24.5 -83q0 -17 -11.5 -49t-11.5 -48q0 -28 33 -82t33 -77q0 -17 -7 -48t-7 -47q0 -27 28.5 -72.5t28.5 -74.5q0 -18 -10.5 -50t-10.5 -48q0 -18 15 -37 q14 -17 21 -36t8 -28.5t0 -38.5t-1 -36q0 -14 19.5 -48.5t19.5 -64.5zM838 1845q0 -27 -15 -65q-6 -17 -40.5 -42t-43.5 -42q-11 -18 -18 -47.5t-18 -53t-35 -39.5h-4q-12 0 -31 17.5t-43 17.5q-21 0 -46 -12t-30 -12q-7 0 -29.5 11t-29.5 13v4q0 16 12.5 30t25.5 39.5 t13 70.5q0 108 49 143q13 -8 35 -8q13 0 33 10t28 10q21 0 60 -15t61 -15q29 0 59 10q7 -7 7 -25z" />
<glyph unicode="&#xc2;" horiz-adv-x="1093" d="M659 496q-1 6 -10.5 37.5t-9.5 48.5q0 12 7 31.5t7 29.5q0 21 -22.5 57t-22.5 56q0 14 15.5 37t15.5 38t-19 49.5t-22 49.5t-5.5 59.5t-10.5 67.5q-20 -23 -31.5 -43t-16 -44t-5.5 -36.5t0 -47t1 -48.5q0 -23 -29.5 -64t-29.5 -67q0 -13 6 -36t6 -36q0 -22 -15 -63.5 t-15 -65.5q11 -8 26 -8t41 7t41 7q16 0 40 -11.5t36 -11.5q1 0 22 7zM1083 -4q-50 -10 -61 -10t-25.5 7t-19.5 7q-6 0 -31 -11.5t-45 -11.5q-15 0 -37 14.5t-35 14.5t-36 -11t-37 -11q-2 0 -7.5 1t-7.5 1v10q0 12 8.5 32t8.5 31q0 13 -25.5 49t-25.5 58q0 10 8 28.5t8 28.5 q0 2 -1 7.5t-1 7.5q-30 6 -31 6q-20 0 -54 -16.5t-54 -16.5q-15 0 -35.5 15.5t-32.5 15.5t-29 -13.5t-28 -15.5q-17 10 -35 10q-12 0 -21 -6q7 -21 7 -41q0 -18 -14.5 -52t-14.5 -52q0 -23 6 -47q-38 -19 -51 -19q-12 0 -30 9.5t-30 9.5q-9 0 -28.5 -9.5t-32.5 -9.5 q-15 0 -37 12.5t-35 12.5q-14 0 -38 -14.5t-40 -14.5q-8 0 -20 4v14q0 15 10 41.5t10 40.5q0 11 -4 33.5t-4 34.5q0 34 10.5 57.5t23.5 33.5t23.5 26t10.5 37q0 18 -11.5 54t-11.5 56q0 27 20.5 48.5t20.5 39.5q0 14 -2 40t-2 40q0 47 4 72q3 17 25 49t22 59q0 18 -4 53 t-4 52q0 23 19.5 46t19.5 46q0 17 -11 47t-11 45q0 25 39.5 73t39.5 79q0 15 -8 43t-8 43q0 25 21.5 55.5t21.5 46.5q0 9 -3 28.5t-3 28.5q0 16 6 31h10q12 0 32 -7t30 -7q19 0 45.5 18.5t42.5 18.5q15 0 57 -17.5t66 -17.5t67 13t66 13q19 0 55 -5t55 -5q5 -7 5 -22 q0 -13 -5.5 -37t-5.5 -37q0 -16 23.5 -59.5t23.5 -79.5q0 -16 -10 -47t-10 -47t18.5 -57t18.5 -70t24.5 -83t24.5 -83q0 -17 -11.5 -49t-11.5 -48q0 -28 33 -82t33 -77q0 -17 -7 -48t-7 -47q0 -27 28.5 -72.5t28.5 -74.5q0 -18 -10.5 -50t-10.5 -48q0 -18 15 -37 q14 -17 21 -36t8 -28.5t0 -38.5t-1 -36q0 -14 19.5 -48.5t19.5 -64.5zM891 1556q-11 -4 -20 -5.5t-14 -1.5t-16.5 0.5t-19.5 0.5q-9 0 -25.5 -6t-25.5 -6q-10 0 -28.5 5t-28.5 5q-7 0 -21.5 -2t-21.5 -2q-21 15 -47.5 43.5t-26.5 46.5q-5 3 -16.5 9.5t-16.5 9.5 q-18 -12 -37.5 -40.5t-40 -47.5t-51.5 -19q-8 0 -24.5 2t-24.5 2q-13 0 -37.5 -5t-36.5 -5q-18 0 -65 14q0 26 10.5 41.5t34.5 30.5q8 5 12.5 14t8 21.5t5.5 17.5q7 15 29 20.5t27 10.5q4 5 10.5 24.5t11.5 26.5q23 33 49 56q11 1 33 -0.5t29 -1.5q12 0 32 6t31 6 q10 0 26.5 -7.5t25.5 -7.5t25.5 5t23.5 6q27 -17 41.5 -37.5t24 -45t18.5 -36.5q9 -13 31.5 -26t35.5 -48q7 -6 29 -20q11 -8 23 -28t18 -26z" />
<glyph unicode="&#xc3;" horiz-adv-x="1093" d="M659 496q-1 6 -10.5 37.5t-9.5 48.5q0 12 7 31.5t7 29.5q0 21 -22.5 57t-22.5 56q0 14 15.5 37t15.5 38t-19 49.5t-22 49.5t-5.5 59.5t-10.5 67.5q-20 -23 -31.5 -43t-16 -44t-5.5 -36.5t0 -47t1 -48.5q0 -23 -29.5 -64t-29.5 -67q0 -13 6 -36t6 -36q0 -22 -15 -63.5 t-15 -65.5q11 -8 26 -8t41 7t41 7q16 0 40 -11.5t36 -11.5q1 0 22 7zM1083 -4q-50 -10 -61 -10t-25.5 7t-19.5 7q-6 0 -31 -11.5t-45 -11.5q-15 0 -37 14.5t-35 14.5t-36 -11t-37 -11q-2 0 -7.5 1t-7.5 1v10q0 12 8.5 32t8.5 31q0 13 -25.5 49t-25.5 58q0 10 8 28.5t8 28.5 q0 2 -1 7.5t-1 7.5q-30 6 -31 6q-20 0 -54 -16.5t-54 -16.5q-15 0 -35.5 15.5t-32.5 15.5t-29 -13.5t-28 -15.5q-17 10 -35 10q-12 0 -21 -6q7 -21 7 -41q0 -18 -14.5 -52t-14.5 -52q0 -23 6 -47q-38 -19 -51 -19q-12 0 -30 9.5t-30 9.5q-9 0 -28.5 -9.5t-32.5 -9.5 q-15 0 -37 12.5t-35 12.5q-14 0 -38 -14.5t-40 -14.5q-8 0 -20 4v14q0 15 10 41.5t10 40.5q0 11 -4 33.5t-4 34.5q0 34 10.5 57.5t23.5 33.5t23.5 26t10.5 37q0 18 -11.5 54t-11.5 56q0 27 20.5 48.5t20.5 39.5q0 14 -2 40t-2 40q0 47 4 72q3 17 25 49t22 59q0 18 -4 53 t-4 52q0 23 19.5 46t19.5 46q0 17 -11 47t-11 45q0 25 39.5 73t39.5 79q0 15 -8 43t-8 43q0 25 21.5 55.5t21.5 46.5q0 9 -3 28.5t-3 28.5q0 16 6 31h10q12 0 32 -7t30 -7q19 0 45.5 18.5t42.5 18.5q15 0 57 -17.5t66 -17.5t67 13t66 13q19 0 55 -5t55 -5q5 -7 5 -22 q0 -13 -5.5 -37t-5.5 -37q0 -16 23.5 -59.5t23.5 -79.5q0 -16 -10 -47t-10 -47t18.5 -57t18.5 -70t24.5 -83t24.5 -83q0 -17 -11.5 -49t-11.5 -48q0 -28 33 -82t33 -77q0 -17 -7 -48t-7 -47q0 -27 28.5 -72.5t28.5 -74.5q0 -18 -10.5 -50t-10.5 -48q0 -18 15 -37 q14 -17 21 -36t8 -28.5t0 -38.5t-1 -36q0 -14 19.5 -48.5t19.5 -64.5zM969 1841q-2 -11 -5.5 -32t-6.5 -34t-11 -30t-20 -29q-14 -14 -50 -21.5t-49 -23.5q-8 -9 -15 -32.5t-15 -32.5q-17 -21 -48 -34t-59 -13q-26 0 -59.5 24t-61 53.5t-57 53.5t-47.5 24q-16 0 -30.5 -8.5 t-31 -24t-24.5 -20.5q-22 -16 -28.5 -32.5t-4.5 -45.5h-8h-16q-22 0 -36.5 7.5t-37.5 25.5q-13 11 -56.5 17t-52.5 20q7 18 11.5 56t5.5 42q4 20 15.5 30.5t28.5 19.5t27 20q9 10 22.5 35t29.5 38q16 11 37 14t54 0t40 -3q15 0 46.5 13t55.5 13t42.5 -19.5t28.5 -43t27 -43 t39 -19.5q31 0 67 35t44 66h8q11 0 19 -0.5t16 -2.5l12 -3t11.5 -5.5t10 -6.5t13 -10t14.5 -11q17 -13 54.5 -17.5t50.5 -9.5z" />
<glyph unicode="&#xc4;" horiz-adv-x="1093" d="M659 496q-1 6 -10.5 37.5t-9.5 48.5q0 12 7 31.5t7 29.5q0 21 -22.5 57t-22.5 56q0 14 15.5 37t15.5 38t-19 49.5t-22 49.5t-5.5 59.5t-10.5 67.5q-20 -23 -31.5 -43t-16 -44t-5.5 -36.5t0 -47t1 -48.5q0 -23 -29.5 -64t-29.5 -67q0 -13 6 -36t6 -36q0 -22 -15 -63.5 t-15 -65.5q11 -8 26 -8t41 7t41 7q16 0 40 -11.5t36 -11.5q1 0 22 7zM1083 -4q-50 -10 -61 -10t-25.5 7t-19.5 7q-6 0 -31 -11.5t-45 -11.5q-15 0 -37 14.5t-35 14.5t-36 -11t-37 -11q-2 0 -7.5 1t-7.5 1v10q0 12 8.5 32t8.5 31q0 13 -25.5 49t-25.5 58q0 10 8 28.5t8 28.5 q0 2 -1 7.5t-1 7.5q-30 6 -31 6q-20 0 -54 -16.5t-54 -16.5q-15 0 -35.5 15.5t-32.5 15.5t-29 -13.5t-28 -15.5q-17 10 -35 10q-12 0 -21 -6q7 -21 7 -41q0 -18 -14.5 -52t-14.5 -52q0 -23 6 -47q-38 -19 -51 -19q-12 0 -30 9.5t-30 9.5q-9 0 -28.5 -9.5t-32.5 -9.5 q-15 0 -37 12.5t-35 12.5q-14 0 -38 -14.5t-40 -14.5q-8 0 -20 4v14q0 15 10 41.5t10 40.5q0 11 -4 33.5t-4 34.5q0 34 10.5 57.5t23.5 33.5t23.5 26t10.5 37q0 18 -11.5 54t-11.5 56q0 27 20.5 48.5t20.5 39.5q0 14 -2 40t-2 40q0 47 4 72q3 17 25 49t22 59q0 18 -4 53 t-4 52q0 23 19.5 46t19.5 46q0 17 -11 47t-11 45q0 25 39.5 73t39.5 79q0 15 -8 43t-8 43q0 25 21.5 55.5t21.5 46.5q0 9 -3 28.5t-3 28.5q0 16 6 31h10q12 0 32 -7t30 -7q19 0 45.5 18.5t42.5 18.5q15 0 57 -17.5t66 -17.5t67 13t66 13q19 0 55 -5t55 -5q5 -7 5 -22 q0 -13 -5.5 -37t-5.5 -37q0 -16 23.5 -59.5t23.5 -79.5q0 -16 -10 -47t-10 -47t18.5 -57t18.5 -70t24.5 -83t24.5 -83q0 -17 -11.5 -49t-11.5 -48q0 -28 33 -82t33 -77q0 -17 -7 -48t-7 -47q0 -27 28.5 -72.5t28.5 -74.5q0 -18 -10.5 -50t-10.5 -48q0 -18 15 -37 q14 -17 21 -36t8 -28.5t0 -38.5t-1 -36q0 -14 19.5 -48.5t19.5 -64.5zM535 1694q0 -16 -15 -35q-9 -12 -19 -37.5t-22.5 -36t-40.5 -10.5q-10 0 -29.5 5t-29.5 5q-16 0 -37.5 -16.5t-34.5 -16.5q-30 0 -54 39.5t-24 71.5q0 12 9 39q6 18 6 40t5 39t25 36q37 32 54 32 q8 0 22.5 -4t22.5 -4q13 0 38 8.5t38 8.5q17 0 24.5 -21t11 -50t9.5 -38q4 -6 15 -15t18.5 -18.5t7.5 -21.5zM915 1757q0 -15 -8 -39q-6 -18 -6 -41t-5.5 -40t-25.5 -35q-36 -31 -53 -31q-7 0 -22.5 3t-22.5 3q-14 0 -38 -7t-38 -7q-17 0 -24.5 21t-11 49.5t-9.5 37.5 q-4 6 -15 15t-18.5 18.5t-7.5 21.5q0 8 15 33q9 12 19 37.5t22.5 36t40.5 10.5q10 0 29.5 -4t29.5 -4q16 0 38 15.5t34 15.5q30 0 53.5 -38.5t23.5 -70.5z" />
<glyph unicode="&#xc5;" horiz-adv-x="1093" d="M659 496q-1 6 -10.5 37.5t-9.5 48.5q0 12 7 31.5t7 29.5q0 21 -22.5 57t-22.5 56q0 14 15.5 37t15.5 38t-19 49.5t-22 49.5t-5.5 59.5t-10.5 67.5q-20 -23 -31.5 -43t-16 -44t-5.5 -36.5t0 -47t1 -48.5q0 -23 -29.5 -64t-29.5 -67q0 -13 6 -36t6 -36q0 -22 -15 -63.5 t-15 -65.5q11 -8 26 -8t41 7t41 7q16 0 40 -11.5t36 -11.5q1 0 22 7zM653 1688q0 29 -36 49t-68 20q-14 0 -55.5 -32.5t-44.5 -45.5q14 -7 40 -38t46 -31h57q16 0 24 14q4 8 5 14t4 10.5t14 14.5q14 10 14 25zM1083 -4q-50 -10 -61 -10t-25.5 7t-19.5 7q-6 0 -31 -11.5 t-45 -11.5q-15 0 -37 14.5t-35 14.5t-36 -11t-37 -11q-2 0 -7.5 1t-7.5 1v10q0 12 8.5 32t8.5 31q0 13 -25.5 49t-25.5 58q0 10 8 28.5t8 28.5q0 2 -1 7.5t-1 7.5q-30 6 -31 6q-20 0 -54 -16.5t-54 -16.5q-15 0 -35.5 15.5t-32.5 15.5t-29 -13.5t-28 -15.5q-17 10 -35 10 q-12 0 -21 -6q7 -21 7 -41q0 -18 -14.5 -52t-14.5 -52q0 -23 6 -47q-38 -19 -51 -19q-12 0 -30 9.5t-30 9.5q-9 0 -28.5 -9.5t-32.5 -9.5q-15 0 -37 12.5t-35 12.5q-14 0 -38 -14.5t-40 -14.5q-8 0 -20 4v14q0 15 10 41.5t10 40.5q0 11 -4 33.5t-4 34.5q0 34 10.5 57.5 t23.5 33.5t23.5 26t10.5 37q0 18 -11.5 54t-11.5 56q0 27 20.5 48.5t20.5 39.5q0 14 -2 40t-2 40q0 47 4 72q3 17 25 49t22 59q0 18 -4 53t-4 52q0 23 19.5 46t19.5 46q0 17 -11 47t-11 45q0 25 39.5 73t39.5 79q0 15 -8 43t-8 43q0 25 21.5 55.5t21.5 46.5q0 9 -3 28.5 t-3 28.5q0 16 6 31h10q12 0 32 -7t30 -7t16 2q-39 20 -47 57q-42 10 -63 29t-21 59q0 19 -23.5 39.5t-23.5 28.5q0 18 24.5 45.5t28.5 36.5q3 6 7.5 20t7.5 20t10.5 14t19.5 13q15 7 45 10.5t41 6.5q6 2 32 14t44 12q20 0 59.5 -7t59.5 -7q7 0 22.5 3t22.5 3q42 0 66 -11 t41 -24.5t36 -17.5l24 -4t29.5 -5.5t25.5 -8t21 -15.5t7 -24q0 -6 -6.5 -15t-6.5 -14q0 -10 12.5 -25.5t12.5 -25.5q0 -5 -7 -11.5t-16 -13t-12 -10.5q-7 -9 -8 -32.5t-8 -33.5q-21 -34 -107 -80q73 -10 88 -10q5 -7 5 -22q0 -13 -5.5 -37t-5.5 -37q0 -16 23.5 -59.5 t23.5 -79.5q0 -16 -10 -47t-10 -47t18.5 -57t18.5 -70t24.5 -83t24.5 -83q0 -17 -11.5 -49t-11.5 -48q0 -28 33 -82t33 -77q0 -17 -7 -48t-7 -47q0 -27 28.5 -72.5t28.5 -74.5q0 -18 -10.5 -50t-10.5 -48q0 -18 15 -37q14 -17 21 -36t8 -28.5t0 -38.5t-1 -36 q0 -14 19.5 -48.5t19.5 -64.5z" />
<glyph unicode="&#xc6;" horiz-adv-x="1693" d="M913 854q0 23 -15 63.5t-15 55.5q0 13 11 33t11 32q0 21 -11 58.5t-13 54.5q-9 -7 -19 -23q-6 -11 -20.5 -53t-36.5 -65q-72 -77 -88 -125q-26 -84 -31 -119q-4 -28 -11.5 -47.5t-13.5 -27.5t-19 -22t-19 -22q12 2 41.5 14.5t48.5 12.5q21 0 59 -17.5t59 -17.5 q13 0 58 10q-4 20 -4 31q0 30 14 87t14 87zM1653 1389q0 -15 -10.5 -44t-10.5 -45q0 -17 10 -34q-21 -35 -55 -35q-22 0 -54.5 18.5t-51.5 18.5q-20 0 -46 -22.5t-49 -22.5q-18 0 -50 9t-50 9q-17 0 -41 -8q4 -16 4 -25q0 -20 -15 -47t-15 -37q0 -15 15 -42t15 -40 q0 -12 -10 -34.5t-10 -36.5q17 -10 33 -10q9 0 27.5 3t27.5 3q15 0 42 -9.5t42 -9.5t41 8.5t41 8.5q8 0 24 -4q2 -8 2 -23q0 -18 -14 -46.5t-14 -43.5q0 -19 21.5 -49.5t21.5 -50.5q0 -2 0.5 -19.5t0 -29t-2 -27t-7 -23.5t-14.5 -8q-13 0 -35 8t-34 8q-29 0 -51 -17t-48 -17 q-13 0 -36 4t-35 4q-21 0 -37 -13q0 -2 -1 -7t-1 -7q0 -22 18.5 -58t18.5 -52q0 -19 -13.5 -56t-13.5 -57q0 -19 6 -37q2 0 7 -1t7 -1q9 0 28 6t28 6q12 0 26.5 -13t24.5 -13q13 0 36 16t38 16q17 0 42.5 -20.5t41.5 -20.5q14 0 46 18.5t52 18.5q10 0 16 -2q3 -15 4.5 -60.5 t10.5 -68.5q4 -12 4 -18q0 -23 -17.5 -62.5t-17.5 -46.5q0 -14 9.5 -37.5t10.5 -25.5q-18 -35 -53 -35q-21 0 -51 15.5t-39 15.5q-18 0 -50.5 -19.5t-53.5 -19.5q-19 0 -45 20.5t-41 20.5q-25 0 -54 -21q-3 2 -11 9t-14.5 10.5t-13.5 3.5q-13 0 -55.5 -18.5t-71.5 -18.5 q-26 0 -45.5 8t-30.5 16.5t-16 8.5q-13 0 -39 -11.5t-41 -11.5q-16 0 -28 6q-2 10 -2 29q0 17 11 50t11 50q0 19 -19.5 48.5t-19.5 46.5q0 14 19 51t24 53q-12 2 -39 2q-43 0 -83 -24.5t-60 -24.5q-19 0 -54 16.5t-55 16.5q-14 0 -34 -11.5t-33 -11.5q-11 0 -22 3t-25.5 9.5 t-20.5 8.5q-1 -1 -2 -4.5t-2 -4.5q-9 -24 -15.5 -74.5t-15.5 -74.5q-35 -93 -90 -148q-21 -6 -45 -6q-13 0 -38 4.5t-37 4.5q-24 0 -67 -17.5t-67 -17.5q-16 0 -30.5 4.5t-38 16.5t-27.5 14q0 17 7 30.5t21 30.5t19 25q14 22 16 63.5t23 63.5q10 11 17 20.5t11.5 16t8 17.5 t5.5 17t5.5 21t5.5 24q8 34 40.5 67.5t41.5 51.5q9 17 15 61t28 68q4 4 18 19.5t22 25t19 24t17.5 27t9.5 23.5q4 13 5 27.5t0.5 32.5t0.5 28q2 34 15.5 58t31 36t34.5 23.5t28.5 29.5t11.5 45q0 7 -4 21.5t-4 21.5q0 13 3.5 26t7 21.5t13.5 21.5t14 18t17.5 20t16.5 18 q33 35 50.5 75t24 76.5t15 73.5t31 80t63.5 84q25 7 45 7q12 0 38 -4.5t38 -4.5q26 0 74 17.5t75 17.5q55 0 109 -26q0 -9 -8 -25h2q30 -1 72.5 24t60.5 25q19 0 52 -12t52 -12q15 0 41 9t41 9q17 0 49 -11t50 -11q16 0 44 9t44 9q13 0 22 -6q6 -12 6 -29q0 -12 -10 -32 t-10 -33q0 -16 17.5 -43t17.5 -45z" />
<glyph unicode="&#xc7;" horiz-adv-x="997" d="M969 399q0 -20 -18.5 -57t-18.5 -61q0 -7 3 -20.5t3 -20.5q0 -20 -14.5 -33.5t-31.5 -20t-31.5 -26t-14.5 -49.5q0 -43 -27.5 -77t-70.5 -34q-10 0 -32 2t-32 2t-22 -6q2 -6 2 -21q0 -8 -6.5 -22.5t-6.5 -22.5q0 -14 13.5 -42t13.5 -37q0 -22 -45 -58t-70 -41 q-33 -6 -44 -28t-30 -27q-53 -16 -106 -16q-15 0 -45 7t-45 7q-14 0 -39 -4.5t-35 -5.5q-22 18 -22 41q0 10 17 22t17 21q0 11 -13 31t-13 38q0 26 16 39h8q13 0 40 -4t40 -4q33 0 77 17t44 44q0 14 -4 54q-36 31 -49 41q-25 20 -58.5 21t-46.5 5q-15 5 -25 13.5t-16.5 23.5 t-9.5 25t-7 30.5t-5 26.5q-4 20 -30.5 46t-52.5 56t-30 60q-4 36 -4 55t7 56t7 57q0 34 -25.5 94t-25.5 94q0 26 17.5 74t17.5 74q0 34 -27.5 94t-27.5 94q0 30 34.5 74t34.5 74q0 20 -7 59t-7 59q0 29 16.5 51t43.5 44.5t38 37.5q9 14 18.5 47.5t22.5 51.5q20 26 60.5 40.5 t79.5 14.5q20 0 48.5 17.5t65.5 35t78 17.5q34 0 59.5 -13t39 -29t37.5 -31.5t55 -19.5q57 -7 74.5 -33t17.5 -87q0 -25 37 -63.5t43 -49.5q13 -22 14.5 -51.5t5.5 -60t25 -58.5q-6 -8 -13 -14.5t-18 -11.5t-18 -8t-22 -5.5t-19.5 -3.5t-22 -3.5t-18.5 -2.5 q-19 -3 -40.5 -4.5t-31 -3t-23.5 -6t-28 -14t-35 -27.5q-7 13 -10 22.5t-3.5 14.5t0.5 18t1 22q0 21 -28 56t-28 73q0 72 -57 72q-42 0 -82.5 -33.5t-40.5 -74.5q0 -11 5 -34t5 -34q0 -25 -30.5 -64.5t-30.5 -68.5q0 -32 34 -84.5t34 -67.5q0 -14 -19.5 -33t-19.5 -34 q0 -5 2 -14.5t2 -14.5q0 -20 -18.5 -53t-18.5 -51q0 -35 37 -103.5t37 -83.5q0 -17 -8.5 -49t-8.5 -49q0 -53 49 -75.5t109 -22.5q11 0 15.5 6t4 13t-2 17.5t-1.5 14.5q0 17 17.5 32t21.5 25q8 16 11 53.5t12 55.5q15 -2 37 -2t34.5 -1t29.5 -7.5t34 -20.5q76 -60 162 -51 q2 -6 2 -19z" />
<glyph unicode="&#xc8;" horiz-adv-x="874" d="M834 1319q0 -14 -10.5 -41t-10.5 -43t10 -33q-22 -33 -55 -33q-22 0 -54.5 17.5t-51.5 17.5q-20 0 -46 -21.5t-49 -21.5q-17 0 -50 9.5t-50 9.5q-14 0 -41 -9q4 -16 4 -22q0 -21 -15.5 -46.5t-15.5 -33.5q0 -15 15.5 -41t15.5 -37q0 -13 -10 -35t-10 -34q15 -9 32 -9 q9 0 28 2.5t28 2.5q14 0 42 -8.5t42 -8.5t41 7t41 7q16 0 24 -2q2 -8 2 -22q0 -17 -14 -44t-14 -42q0 -19 21.5 -47t21.5 -47q0 -1 0.5 -17.5t0 -28t-2 -26.5t-7 -23t-14.5 -8q-12 0 -35 8.5t-35 8.5q-29 0 -50.5 -16.5t-47.5 -16.5q-12 0 -36 4t-36 4q-16 0 -36 -12 q0 -2 -1.5 -7.5t-1.5 -7.5q0 -21 18.5 -55t18.5 -49q0 -19 -13 -54t-13 -53q0 -19 6 -34q4 -2 14 -2q9 0 27.5 5t27.5 5q12 0 27 -12.5t25 -12.5q13 0 35.5 15.5t37.5 15.5q16 0 42 -19.5t42 -19.5q14 0 47 17.5t52 17.5q10 0 16 -2q3 -14 4 -57t10 -64q4 -12 4 -18 q0 -22 -17 -59.5t-17 -43.5q0 -14 9.5 -36t10.5 -25q-18 -33 -53 -33q-22 0 -51 14.5t-39 14.5q-18 0 -51 -18.5t-54 -18.5q-19 0 -45 19.5t-41 19.5q-20 0 -53 -19q-1 0 -15 10.5t-24 10.5q-13 0 -55.5 -17.5t-71.5 -17.5q-35 0 -63 15.5t-29 15.5q-13 0 -39 -10.5 t-41 -10.5q-17 0 -29 6q-2 8 -2 27q0 16 11.5 47t11.5 49q0 17 -19.5 44t-19.5 44q0 13 26.5 64t26.5 82q0 19 -17.5 56t-17.5 58q0 4 12.5 21.5t12.5 38.5q0 17 -11 50t-11 50q0 29 14 84t14 82q0 22 -15.5 60.5t-15.5 52.5q0 11 11.5 30.5t11.5 32.5q0 20 -13.5 60.5 t-13.5 62.5q0 28 26 72.5t26 70.5q0 23 -24 61t-24 54q0 7 6.5 31.5t6.5 50.5q0 12 8 20q3 0 8 -1t8 -1q14 0 42 10.5t42 10.5q17 0 49.5 -14.5t51.5 -14.5q29 0 71.5 23.5t61.5 23.5q18 0 52 -11t52 -11q14 0 41 8t41 8q18 0 49 -10t49 -10q16 0 45 9t44 9q13 0 22 -6 q6 -15 6 -29q0 -12 -10 -31t-10 -30q0 -15 17.5 -41t17.5 -43zM537 1575v-4q-7 -2 -30 -13.5t-30 -11.5q-6 0 -31 12.5t-45 12.5q-23 0 -42 -17.5t-31 -17.5h-4q-24 16 -35.5 39t-19 53t-17.5 47q-9 17 -43.5 42t-40.5 42q-14 35 -14 66q0 18 6 24q30 -10 59 -10 q21 0 60 15.5t61 15.5q8 0 28 -10.5t33 -10.5q20 0 35 9q23 -17 34.5 -48t13 -52.5t1.5 -60.5v-3.5v-3.5v-4q0 -30 26 -62t26 -49z" />
<glyph unicode="&#xc9;" horiz-adv-x="874" d="M834 1319q0 -14 -10.5 -41t-10.5 -43t10 -33q-22 -33 -55 -33q-22 0 -54.5 17.5t-51.5 17.5q-20 0 -46 -21.5t-49 -21.5q-17 0 -50 9.5t-50 9.5q-14 0 -41 -9q4 -16 4 -22q0 -21 -15.5 -46.5t-15.5 -33.5q0 -15 15.5 -41t15.5 -37q0 -13 -10 -35t-10 -34q15 -9 32 -9 q9 0 28 2.5t28 2.5q14 0 42 -8.5t42 -8.5t41 7t41 7q16 0 24 -2q2 -8 2 -22q0 -17 -14 -44t-14 -42q0 -19 21.5 -47t21.5 -47q0 -1 0.5 -17.5t0 -28t-2 -26.5t-7 -23t-14.5 -8q-12 0 -35 8.5t-35 8.5q-29 0 -50.5 -16.5t-47.5 -16.5q-12 0 -36 4t-36 4q-16 0 -36 -12 q0 -2 -1.5 -7.5t-1.5 -7.5q0 -21 18.5 -55t18.5 -49q0 -19 -13 -54t-13 -53q0 -19 6 -34q4 -2 14 -2q9 0 27.5 5t27.5 5q12 0 27 -12.5t25 -12.5q13 0 35.5 15.5t37.5 15.5q16 0 42 -19.5t42 -19.5q14 0 47 17.5t52 17.5q10 0 16 -2q3 -14 4 -57t10 -64q4 -12 4 -18 q0 -22 -17 -59.5t-17 -43.5q0 -14 9.5 -36t10.5 -25q-18 -33 -53 -33q-22 0 -51 14.5t-39 14.5q-18 0 -51 -18.5t-54 -18.5q-19 0 -45 19.5t-41 19.5q-20 0 -53 -19q-1 0 -15 10.5t-24 10.5q-13 0 -55.5 -17.5t-71.5 -17.5q-35 0 -63 15.5t-29 15.5q-13 0 -39 -10.5 t-41 -10.5q-17 0 -29 6q-2 8 -2 27q0 16 11.5 47t11.5 49q0 17 -19.5 44t-19.5 44q0 13 26.5 64t26.5 82q0 19 -17.5 56t-17.5 58q0 4 12.5 21.5t12.5 38.5q0 17 -11 50t-11 50q0 29 14 84t14 82q0 22 -15.5 60.5t-15.5 52.5q0 11 11.5 30.5t11.5 32.5q0 20 -13.5 60.5 t-13.5 62.5q0 28 26 72.5t26 70.5q0 23 -24 61t-24 54q0 7 6.5 31.5t6.5 50.5q0 12 8 20q3 0 8 -1t8 -1q14 0 42 10.5t42 10.5q17 0 49.5 -14.5t51.5 -14.5q29 0 71.5 23.5t61.5 23.5q18 0 52 -11t52 -11q14 0 41 8t41 8q18 0 49 -10t49 -10q16 0 45 9t44 9q13 0 22 -6 q6 -15 6 -29q0 -12 -10 -31t-10 -30q0 -15 17.5 -41t17.5 -43zM735 1866q0 -31 -14 -66q-6 -17 -40.5 -42t-43.5 -42q-11 -18 -18.5 -47.5t-18.5 -52.5t-35 -39h-4q-11 0 -31 17.5t-43 17.5q-21 0 -45.5 -12.5t-29.5 -12.5q-6 0 -29.5 11.5t-30.5 13.5v4q0 14 8 25.5 t17.5 21t17.5 33.5t8 59q0 107 50 143q13 -8 34 -8q13 0 33.5 10.5t28.5 10.5q21 0 60 -15.5t61 -15.5q29 0 59 10q6 -6 6 -24z" />
<glyph unicode="&#xca;" horiz-adv-x="874" d="M834 1319q0 -14 -10.5 -41t-10.5 -43t10 -33q-22 -33 -55 -33q-22 0 -54.5 17.5t-51.5 17.5q-20 0 -46 -21.5t-49 -21.5q-17 0 -50 9.5t-50 9.5q-14 0 -41 -9q4 -16 4 -22q0 -21 -15.5 -46.5t-15.5 -33.5q0 -15 15.5 -41t15.5 -37q0 -13 -10 -35t-10 -34q15 -9 32 -9 q9 0 28 2.5t28 2.5q14 0 42 -8.5t42 -8.5t41 7t41 7q16 0 24 -2q2 -8 2 -22q0 -17 -14 -44t-14 -42q0 -19 21.5 -47t21.5 -47q0 -1 0.5 -17.5t0 -28t-2 -26.5t-7 -23t-14.5 -8q-12 0 -35 8.5t-35 8.5q-29 0 -50.5 -16.5t-47.5 -16.5q-12 0 -36 4t-36 4q-16 0 -36 -12 q0 -2 -1.5 -7.5t-1.5 -7.5q0 -21 18.5 -55t18.5 -49q0 -19 -13 -54t-13 -53q0 -19 6 -34q4 -2 14 -2q9 0 27.5 5t27.5 5q12 0 27 -12.5t25 -12.5q13 0 35.5 15.5t37.5 15.5q16 0 42 -19.5t42 -19.5q14 0 47 17.5t52 17.5q10 0 16 -2q3 -14 4 -57t10 -64q4 -12 4 -18 q0 -22 -17 -59.5t-17 -43.5q0 -14 9.5 -36t10.5 -25q-18 -33 -53 -33q-22 0 -51 14.5t-39 14.5q-18 0 -51 -18.5t-54 -18.5q-19 0 -45 19.5t-41 19.5q-20 0 -53 -19q-1 0 -15 10.5t-24 10.5q-13 0 -55.5 -17.5t-71.5 -17.5q-35 0 -63 15.5t-29 15.5q-13 0 -39 -10.5 t-41 -10.5q-17 0 -29 6q-2 8 -2 27q0 16 11.5 47t11.5 49q0 17 -19.5 44t-19.5 44q0 13 26.5 64t26.5 82q0 19 -17.5 56t-17.5 58q0 4 12.5 21.5t12.5 38.5q0 17 -11 50t-11 50q0 29 14 84t14 82q0 22 -15.5 60.5t-15.5 52.5q0 11 11.5 30.5t11.5 32.5q0 20 -13.5 60.5 t-13.5 62.5q0 28 26 72.5t26 70.5q0 23 -24 61t-24 54q0 7 6.5 31.5t6.5 50.5q0 12 8 20q3 0 8 -1t8 -1q14 0 42 10.5t42 10.5q17 0 49.5 -14.5t51.5 -14.5q29 0 71.5 23.5t61.5 23.5q18 0 52 -11t52 -11q14 0 41 8t41 8q18 0 49 -10t49 -10q16 0 45 9t44 9q13 0 22 -6 q6 -15 6 -29q0 -12 -10 -31t-10 -30q0 -15 17.5 -41t17.5 -43zM788 1556q-11 -4 -20 -5.5t-14 -1.5t-16 0.5t-19 0.5q-9 0 -25.5 -6t-25.5 -6q-10 0 -29 5t-29 5q-7 0 -21.5 -2t-21.5 -2q-21 15 -47 43.5t-26 46.5q-5 3 -16.5 9.5t-16.5 9.5q-18 -12 -37.5 -40.5t-40 -47.5 t-51.5 -19q-8 0 -24.5 2t-24.5 2q-13 0 -37 -5t-37 -5q-19 0 -66 14q0 26 10.5 41.5t34.5 30.5q8 5 12.5 13.5t8.5 21.5t6 18q7 15 28.5 20.5t26.5 10.5q4 5 11 24.5t12 26.5q23 33 49 56q11 1 32.5 -0.5t28.5 -1.5q11 0 32 6t32 6q10 0 26 -7.5t25 -7.5t25.5 5t23.5 6 q27 -17 41.5 -37.5t24 -45t18.5 -36.5q9 -13 32 -26t36 -48q6 -6 29 -20q11 -8 22 -27.5t18 -26.5z" />
<glyph unicode="&#xcb;" horiz-adv-x="874" d="M834 1319q0 -14 -10.5 -41t-10.5 -43t10 -33q-22 -33 -55 -33q-22 0 -54.5 17.5t-51.5 17.5q-20 0 -46 -21.5t-49 -21.5q-17 0 -50 9.5t-50 9.5q-14 0 -41 -9q4 -16 4 -22q0 -21 -15.5 -46.5t-15.5 -33.5q0 -15 15.5 -41t15.5 -37q0 -13 -10 -35t-10 -34q15 -9 32 -9 q9 0 28 2.5t28 2.5q14 0 42 -8.5t42 -8.5t41 7t41 7q16 0 24 -2q2 -8 2 -22q0 -17 -14 -44t-14 -42q0 -19 21.5 -47t21.5 -47q0 -1 0.5 -17.5t0 -28t-2 -26.5t-7 -23t-14.5 -8q-12 0 -35 8.5t-35 8.5q-29 0 -50.5 -16.5t-47.5 -16.5q-12 0 -36 4t-36 4q-16 0 -36 -12 q0 -2 -1.5 -7.5t-1.5 -7.5q0 -21 18.5 -55t18.5 -49q0 -19 -13 -54t-13 -53q0 -19 6 -34q4 -2 14 -2q9 0 27.5 5t27.5 5q12 0 27 -12.5t25 -12.5q13 0 35.5 15.5t37.5 15.5q16 0 42 -19.5t42 -19.5q14 0 47 17.5t52 17.5q10 0 16 -2q3 -14 4 -57t10 -64q4 -12 4 -18 q0 -22 -17 -59.5t-17 -43.5q0 -14 9.5 -36t10.5 -25q-18 -33 -53 -33q-22 0 -51 14.5t-39 14.5q-18 0 -51 -18.5t-54 -18.5q-19 0 -45 19.5t-41 19.5q-20 0 -53 -19q-1 0 -15 10.5t-24 10.5q-13 0 -55.5 -17.5t-71.5 -17.5q-35 0 -63 15.5t-29 15.5q-13 0 -39 -10.5 t-41 -10.5q-17 0 -29 6q-2 8 -2 27q0 16 11.5 47t11.5 49q0 17 -19.5 44t-19.5 44q0 13 26.5 64t26.5 82q0 19 -17.5 56t-17.5 58q0 4 12.5 21.5t12.5 38.5q0 17 -11 50t-11 50q0 29 14 84t14 82q0 22 -15.5 60.5t-15.5 52.5q0 11 11.5 30.5t11.5 32.5q0 20 -13.5 60.5 t-13.5 62.5q0 28 26 72.5t26 70.5q0 23 -24 61t-24 54q0 7 6.5 31.5t6.5 50.5q0 12 8 20q3 0 8 -1t8 -1q14 0 42 10.5t42 10.5q17 0 49.5 -14.5t51.5 -14.5q29 0 71.5 23.5t61.5 23.5q18 0 52 -11t52 -11q14 0 41 8t41 8q18 0 49 -10t49 -10q16 0 45 9t44 9q13 0 22 -6 q6 -15 6 -29q0 -12 -10 -31t-10 -30q0 -15 17.5 -41t17.5 -43zM412 1694q0 -16 -15 -35q-9 -12 -19 -37.5t-22.5 -36t-40.5 -10.5q-10 0 -29.5 5t-29.5 5q-16 0 -37.5 -16.5t-34.5 -16.5q-30 0 -54 39.5t-24 71.5q0 12 9 39q6 18 6 40t5.5 39t25.5 36q37 32 53 32 q8 0 22.5 -4t22.5 -4q14 0 38 8.5t38 8.5q17 0 24.5 -21t11 -50t9.5 -38q4 -6 15 -15t18.5 -18.5t7.5 -21.5zM793 1757q0 -12 -9 -39q-6 -18 -6 -41t-5 -40t-25 -35q-36 -31 -54 -31q-7 0 -22.5 3t-22.5 3q-13 0 -38 -7t-38 -7q-17 0 -24.5 21t-11 49.5t-9.5 37.5 q-4 6 -15 15t-18.5 18.5t-7.5 21.5q0 8 15 33q9 12 19 37.5t22.5 36t40.5 10.5q10 0 29.5 -4t29.5 -4q16 0 38 15.5t34 15.5q30 0 54 -38.5t24 -70.5z" />
<glyph unicode="&#xcc;" horiz-adv-x="485" d="M440 297q0 -20 -14 -59.5t-14 -61.5q0 -20 12 -60.5t12 -62.5q0 -27 -6 -37q-12 -10 -33 -10q-19 0 -55 11.5t-55 11.5t-47.5 -15.5t-53.5 -15.5q-30 0 -108 25q4 14 4 40q0 19 -8 56t-8 57q0 21 17 61.5t17 63.5q0 28 -28.5 88t-28.5 92q0 33 21.5 96t21.5 97 q0 28 -20.5 77t-20.5 68q0 34 27.5 94.5t27.5 94.5q0 32 -20.5 92t-20.5 92q0 36 18.5 104t18.5 103q0 45 -22 94q9 6 20 7t27.5 -1t23.5 -2q13 0 38 7t38 7q20 0 58.5 -13t58.5 -13q12 0 37 5t37 5q-2 -8 -2 -25q0 -27 15 -81.5t15 -83.5q0 -31 -21.5 -92.5t-21.5 -94.5 q0 -32 18.5 -93t18.5 -93q0 -25 -18.5 -69.5t-18.5 -67.5q0 -33 19.5 -95.5t19.5 -95.5q0 -24 -17.5 -71.5t-17.5 -73.5q0 -27 19.5 -80t19.5 -82zM373 1575v-4q-7 -2 -30 -13.5t-30 -11.5q-6 0 -30.5 12.5t-44.5 12.5q-24 0 -43 -17.5t-31 -17.5h-4q-24 16 -35.5 39t-19 53 t-17.5 47q-9 17 -43.5 42t-40.5 42q-14 35 -14 66q0 18 6 24q30 -10 59 -10q21 0 60 15.5t61 15.5q8 0 28.5 -10.5t33.5 -10.5q19 0 34 9q19 -14 30 -33t15 -48.5t4.5 -42.5t0.5 -48q0 -30 25.5 -62t25.5 -49z" />
<glyph unicode="&#xcd;" horiz-adv-x="485" d="M440 297q0 -20 -14 -59.5t-14 -61.5q0 -20 12 -60.5t12 -62.5q0 -27 -6 -37q-12 -10 -33 -10q-19 0 -55 11.5t-55 11.5t-47.5 -15.5t-53.5 -15.5q-30 0 -108 25q4 14 4 40q0 19 -8 56t-8 57q0 21 17 61.5t17 63.5q0 28 -28.5 88t-28.5 92q0 33 21.5 96t21.5 97 q0 28 -20.5 77t-20.5 68q0 34 27.5 94.5t27.5 94.5q0 32 -20.5 92t-20.5 92q0 36 18.5 104t18.5 103q0 45 -22 94q9 6 20 7t27.5 -1t23.5 -2q13 0 38 7t38 7q20 0 58.5 -13t58.5 -13q12 0 37 5t37 5q-2 -8 -2 -25q0 -27 15 -81.5t15 -83.5q0 -31 -21.5 -92.5t-21.5 -94.5 q0 -32 18.5 -93t18.5 -93q0 -25 -18.5 -69.5t-18.5 -67.5q0 -33 19.5 -95.5t19.5 -95.5q0 -24 -17.5 -71.5t-17.5 -73.5q0 -27 19.5 -80t19.5 -82zM510 1845q0 -30 -14 -65q-6 -17 -40.5 -42t-43.5 -42q-11 -18 -18 -47.5t-18.5 -53t-35.5 -39.5h-4q-12 0 -31 17.5t-43 17.5 q-21 0 -46 -12t-30 -12q-7 0 -29.5 11t-29.5 13v4q0 16 12.5 30t25.5 39.5t13 70.5q0 108 49 143q13 -8 35 -8q13 0 33.5 10t28.5 10q22 0 60.5 -15t59.5 -15q30 0 60 10q6 -6 6 -25z" />
<glyph unicode="&#xce;" horiz-adv-x="485" d="M440 297q0 -20 -14 -59.5t-14 -61.5q0 -20 12 -60.5t12 -62.5q0 -27 -6 -37q-12 -10 -33 -10q-19 0 -55 11.5t-55 11.5t-47.5 -15.5t-53.5 -15.5q-30 0 -108 25q4 14 4 40q0 19 -8 56t-8 57q0 21 17 61.5t17 63.5q0 28 -28.5 88t-28.5 92q0 33 21.5 96t21.5 97 q0 28 -20.5 77t-20.5 68q0 34 27.5 94.5t27.5 94.5q0 32 -20.5 92t-20.5 92q0 36 18.5 104t18.5 103q0 45 -22 94q9 6 20 7t27.5 -1t23.5 -2q13 0 38 7t38 7q20 0 58.5 -13t58.5 -13q12 0 37 5t37 5q-2 -8 -2 -25q0 -27 15 -81.5t15 -83.5q0 -31 -21.5 -92.5t-21.5 -94.5 q0 -32 18.5 -93t18.5 -93q0 -25 -18.5 -69.5t-18.5 -67.5q0 -33 19.5 -95.5t19.5 -95.5q0 -24 -17.5 -71.5t-17.5 -73.5q0 -27 19.5 -80t19.5 -82zM559 1556q-10 -4 -18 -5.5t-13 -1.5t-15 0.5t-17 0.5q-8 0 -23.5 -6t-23.5 -6q-9 0 -27 5t-27 5q-6 0 -19 -2t-20 -2 q-19 15 -43 43.5t-24 46.5q-18 11 -29 19q-17 -12 -35 -40.5t-37 -47.5t-47 -19q-8 0 -23 2t-22 2q-12 0 -34 -5t-33 -5q-18 0 -60 14q-1 26 8.5 42t32.5 30q7 5 11.5 14t7.5 21t6 18q6 15 25.5 20.5t23.5 10.5t10 25t10 26q23 33 46 56q12 1 31.5 -0.5t25.5 -1.5 q10 0 28.5 6t28.5 6t25 -7.5t22 -7.5q9 0 24.5 5t20.5 6q25 -17 38.5 -37.5t22.5 -45t17 -36.5q8 -13 29.5 -26t32.5 -48q11 -11 26 -20q10 -7 20 -27t17 -27z" />
<glyph unicode="&#xcf;" horiz-adv-x="485" d="M440 297q0 -20 -14 -59.5t-14 -61.5q0 -20 12 -60.5t12 -62.5q0 -27 -6 -37q-12 -10 -33 -10q-19 0 -55 11.5t-55 11.5t-47.5 -15.5t-53.5 -15.5q-30 0 -108 25q4 14 4 40q0 19 -8 56t-8 57q0 21 17 61.5t17 63.5q0 28 -28.5 88t-28.5 92q0 33 21.5 96t21.5 97 q0 28 -20.5 77t-20.5 68q0 34 27.5 94.5t27.5 94.5q0 32 -20.5 92t-20.5 92q0 36 18.5 104t18.5 103q0 45 -22 94q9 6 20 7t27.5 -1t23.5 -2q13 0 38 7t38 7q20 0 58.5 -13t58.5 -13q12 0 37 5t37 5q-2 -8 -2 -25q0 -27 15 -81.5t15 -83.5q0 -31 -21.5 -92.5t-21.5 -94.5 q0 -32 18.5 -93t18.5 -93q0 -25 -18.5 -69.5t-18.5 -67.5q0 -33 19.5 -95.5t19.5 -95.5q0 -24 -17.5 -71.5t-17.5 -73.5q0 -27 19.5 -80t19.5 -82zM236 1714q0 -13 -13 -35q-8 -12 -16.5 -37.5t-19 -36t-33.5 -10.5q-9 0 -26.5 5.5t-25.5 5.5q-14 0 -32 -16.5t-29 -16.5 q-26 0 -46 39t-20 71q0 18 7 39q5 18 5 40t4.5 39t20.5 36l7.5 7.5l9.5 9.5t9 7.5t11 6.5t10 2q6 0 18.5 -4t18.5 -4q12 0 33 8t33 8q14 0 20.5 -21t10 -50t8.5 -38q2 -3 18.5 -21t16.5 -34zM559 1778q0 -3 -6 -39q-5 -18 -5.5 -41t-5.5 -40.5t-22 -35.5q-26 -31 -45 -31 q-6 0 -19 3t-20 3q-10 0 -30.5 -7t-32.5 -7q-14 0 -20.5 21t-10 50t-8.5 38q-2 3 -18.5 21t-16.5 34q0 13 12 33q8 12 16.5 37.5t19 36t34.5 10.5q8 0 25 -4.5t26 -4.5q14 0 32.5 15.5t29.5 15.5q24 0 44.5 -38.5t20.5 -69.5z" />
<glyph unicode="&#xd1;" horiz-adv-x="1181" d="M1151 1335q0 -22 -19.5 -44t-19.5 -42q0 -25 15.5 -70.5t15.5 -68.5q0 -20 -13.5 -57t-13.5 -58q0 -17 8.5 -48t8.5 -48q0 -21 -13.5 -58.5t-13.5 -56.5q0 -20 14.5 -55t14.5 -53q0 -24 -16.5 -69t-16.5 -70q0 -15 8 -46t8 -47q0 -23 -12 -50.5t-12 -33.5q0 -10 15 -38 t15 -48q0 -26 -16 -58t-16 -44q0 -22 11 -66t11 -67q0 -17 -2 -23q-24 -14 -49 -14q-15 0 -41 10.5t-41 10.5q-17 0 -45 -18.5t-49 -18.5q-11 0 -25 11t-28 11q-18 0 -54 -9t-55 -9q-8 20 -27.5 41.5t-33 43t-13.5 48.5q0 8 3 26t3 27q0 28 -38.5 66.5t-38.5 68.5v43 q0 31 -7 51.5t-17 29t-22.5 17t-22.5 15.5t-17 25t-7 45q0 45 -36 104q-25 -37 -25 -61q0 -10 5 -30t5 -30q0 -12 -7 -32t-7 -31q0 -7 4 -22t4 -23q0 -15 -10 -41t-10 -39q0 -16 13 -42t13 -42q0 -22 -16.5 -64t-16.5 -65q0 -17 10.5 -51t10.5 -52q-13 -8 -35 -8 q-12 0 -32.5 9.5t-28.5 9.5q-9 0 -22.5 -16.5t-29.5 -16.5q-19 0 -46 15.5t-44 15.5q-18 0 -47 -16.5t-47 -16.5q-6 0 -18 4v14q0 21 12 48t12 40q0 14 -16 43t-16 47q0 22 18 57.5t18 49.5q0 9 -12 34t-12 42q0 16 8 45t8 43q0 27 -13 77.5t-13 75.5q0 34 18 98t18 97 q0 23 -9 65.5t-9 63.5q0 10 6 30.5t6 30.5q0 8 -2 25t-2 25q0 15 12.5 44t12.5 44q0 17 -12.5 49t-12.5 49q0 80 21 129q6 12 6 27q0 17 -8.5 47t-8.5 47q0 5 5 20h4q14 0 35.5 -14t33.5 -14q13 0 41 18t49 18q26 0 53 -18t37 -18q8 0 39.5 13t49.5 13q14 0 20 -2 q6 -15 6 -67q0 -23 33 -51t33 -54q0 -18 -8.5 -51t-8.5 -49q0 -20 34.5 -65.5t39.5 -63.5q4 -14 5 -28t0 -36.5t-1 -27.5q0 -19 7.5 -30t18 -18t21 -17t18 -36t7.5 -67q10 -25 44 -90.5t42 -73.5q10 23 10 45q0 11 -4 33.5t-4 35.5q0 17 12 45.5t12 43.5q0 17 -17 50.5 t-17 53.5q0 25 23.5 59.5t23.5 49.5q0 14 -18.5 58t-18.5 71q0 24 20.5 61t20.5 59q0 17 -11.5 51t-11.5 52q0 23 15 49q3 0 8 1t8 1q15 0 42 -9t42 -9q20 0 40.5 18t31.5 18t40 -13t46 -13q11 0 32 5t33 5q9 0 29 -4q2 -6 2 -21q0 -12 -9 -27.5t-9 -25.5q0 -15 9 -41t9 -41 zM1051 1841q-2 -11 -5.5 -32t-6.5 -34t-11 -30t-20 -29q-14 -14 -50 -21.5t-49 -23.5q-8 -9 -15 -32.5t-15 -32.5q-17 -21 -48 -34t-59 -13q-26 0 -59.5 24t-61 53.5t-57 53.5t-47.5 24q-16 0 -30.5 -8.5t-31 -24t-24.5 -20.5q-22 -16 -28.5 -32.5t-4.5 -45.5h-8h-17 q-16 0 -29 5t-20 10t-24 18q-13 11 -56.5 17t-52.5 20q7 18 11.5 56t5.5 42q4 20 15.5 30.5t28.5 19.5t27 20q10 10 22.5 35t28.5 38q16 11 37.5 14t54.5 0t40 -3q15 0 46.5 13t55.5 13t42.5 -19.5t28.5 -43t27 -43t39 -19.5q31 0 67 35t44 66h8q11 0 19 -0.5t16 -2.5l12 -3 t11.5 -5.5t10 -6.5t13 -10t14.5 -11q17 -13 54.5 -17.5t50.5 -9.5z" />
<glyph unicode="&#xd2;" horiz-adv-x="1030" d="M682 874q0 32 -35 98t-35 77t7.5 32t7.5 33q0 16 -13.5 41t-15.5 37q0 3 -1.5 12l-2 12t-2.5 10.5t-3.5 10t-4.5 8t-6.5 7.5t-8.5 5t-11.5 4t-14.5 1q-42 0 -83.5 -33.5t-41.5 -73.5q0 -10 5 -30.5t5 -32.5q0 -22 -31.5 -62t-31.5 -78q0 -26 22.5 -63t22.5 -51t-16.5 -39 t-16.5 -39q0 -6 3 -19t3 -20q0 -15 -9 -44t-9 -44q0 -34 35.5 -99t35.5 -79q0 -15 -8 -44t-8 -44q0 -42 40 -73.5t85 -31.5q35 0 53 41q-4 12 -4 21q0 11 18.5 25.5t22.5 21.5q9 19 13 63.5t9 61.5q2 8 8.5 25t9.5 29.5t3 24.5q0 24 -19 62q-8 15 -11.5 27t-4 18.5t0.5 22 t1 26.5q0 7 -3 20.5t-3 20.5q0 20 21.5 51.5t21.5 50.5zM1010 528q0 -23 -27 -60.5t-27 -61.5q0 -5 1 -15.5t1 -15.5q0 -23 -17 -67t-17 -68q0 -20 -15 -36.5t-32.5 -25.5t-32.5 -23t-15 -30q0 -4 1 -12.5t1 -12.5q0 -40 -27.5 -70t-68.5 -30q-10 0 -31.5 2t-31.5 2 q-12 0 -26.5 -8.5t-27.5 -19t-40.5 -19t-63.5 -8.5q-28 0 -49.5 7t-32.5 14.5t-32.5 26t-34.5 28.5q-26 19 -59.5 20.5t-47.5 5.5q-18 5 -30 19.5t-15.5 25t-9 37.5t-6.5 31q-4 21 -56 69t-57 84q-4 32 -4 54q0 17 7 52t7 54q0 31 -25.5 89t-25.5 89q0 25 17.5 71.5 t17.5 70.5q0 31 -29 88t-29 90q0 27 36 69t36 70q0 20 -7 57.5t-7 55.5q0 27 15.5 48t42.5 43t38 36q9 13 20 46t23 48q20 25 60 38t79 13q20 0 49 17t66.5 34t77.5 17q34 0 59.5 -12t39 -27.5t37.5 -30t54 -18.5q61 -9 90 -30t29 -75q0 -19 14 -37t31 -30.5t31 -32.5 t14 -43q0 -6 -3 -20t-3 -21q0 -14 13.5 -35t13.5 -35q0 -18 -11.5 -53t-11.5 -53q0 -28 21.5 -82t21.5 -82q0 -24 -17.5 -69t-17.5 -70q0 -33 28 -91.5t28 -91.5zM659 1636v-4q-7 -2 -29.5 -13t-29.5 -11q-6 0 -31 12t-45 12q-24 0 -43 -17.5t-30 -17.5h-5 q-24 16 -35.5 39.5t-18.5 53.5t-17 47q-9 17 -43.5 42t-40.5 42q-15 38 -15 65q0 18 7 25q30 -10 59 -10q22 0 61 15t60 15q8 0 28 -10t33 -10q22 0 35 8q23 -17 34.5 -48t13 -52.5t1.5 -60.5v-3.5v-3.5v-4q0 -29 25.5 -61t25.5 -50z" />
<glyph unicode="&#xd3;" horiz-adv-x="1030" d="M682 874q0 32 -35 98t-35 77t7.5 32t7.5 33q0 16 -13.5 41t-15.5 37q0 3 -1.5 12l-2 12t-2.5 10.5t-3.5 10t-4.5 8t-6.5 7.5t-8.5 5t-11.5 4t-14.5 1q-42 0 -83.5 -33.5t-41.5 -73.5q0 -10 5 -30.5t5 -32.5q0 -22 -31.5 -62t-31.5 -78q0 -26 22.5 -63t22.5 -51t-16.5 -39 t-16.5 -39q0 -6 3 -19t3 -20q0 -15 -9 -44t-9 -44q0 -34 35.5 -99t35.5 -79q0 -15 -8 -44t-8 -44q0 -42 40 -73.5t85 -31.5q35 0 53 41q-4 12 -4 21q0 11 18.5 25.5t22.5 21.5q9 19 13 63.5t9 61.5q2 8 8.5 25t9.5 29.5t3 24.5q0 24 -19 62q-8 15 -11.5 27t-4 18.5t0.5 22 t1 26.5q0 7 -3 20.5t-3 20.5q0 20 21.5 51.5t21.5 50.5zM1010 528q0 -23 -27 -60.5t-27 -61.5q0 -5 1 -15.5t1 -15.5q0 -23 -17 -67t-17 -68q0 -20 -15 -36.5t-32.5 -25.5t-32.5 -23t-15 -30q0 -4 1 -12.5t1 -12.5q0 -40 -27.5 -70t-68.5 -30q-10 0 -31.5 2t-31.5 2 q-12 0 -26.5 -8.5t-27.5 -19t-40.5 -19t-63.5 -8.5q-28 0 -49.5 7t-32.5 14.5t-32.5 26t-34.5 28.5q-26 19 -59.5 20.5t-47.5 5.5q-18 5 -30 19.5t-15.5 25t-9 37.5t-6.5 31q-4 21 -56 69t-57 84q-4 32 -4 54q0 17 7 52t7 54q0 31 -25.5 89t-25.5 89q0 25 17.5 71.5 t17.5 70.5q0 31 -29 88t-29 90q0 27 36 69t36 70q0 20 -7 57.5t-7 55.5q0 27 15.5 48t42.5 43t38 36q9 13 20 46t23 48q20 25 60 38t79 13q20 0 49 17t66.5 34t77.5 17q34 0 59.5 -12t39 -27.5t37.5 -30t54 -18.5q61 -9 90 -30t29 -75q0 -19 14 -37t31 -30.5t31 -32.5 t14 -43q0 -6 -3 -20t-3 -21q0 -14 13.5 -35t13.5 -35q0 -18 -11.5 -53t-11.5 -53q0 -28 21.5 -82t21.5 -82q0 -24 -17.5 -69t-17.5 -70q0 -33 28 -91.5t28 -91.5zM817 1886q0 -30 -14 -65q-6 -17 -40.5 -42t-43.5 -42q-11 -18 -18 -47.5t-18.5 -53t-35.5 -39.5h-4 q-11 0 -31 17.5t-43 17.5q-21 0 -45.5 -12t-29.5 -12q-7 0 -30 11t-30 13v4q0 14 8 26t17.5 21t17.5 33.5t8 59.5q0 107 50 143q13 -8 34 -8q13 0 33.5 10t28.5 10q21 0 60 -15t61 -15q29 0 59 10q6 -6 6 -25z" />
<glyph unicode="&#xd4;" horiz-adv-x="1030" d="M682 874q0 32 -35 98t-35 77t7.5 32t7.5 33q0 16 -13.5 41t-15.5 37q0 3 -1.5 12l-2 12t-2.5 10.5t-3.5 10t-4.5 8t-6.5 7.5t-8.5 5t-11.5 4t-14.5 1q-42 0 -83.5 -33.5t-41.5 -73.5q0 -10 5 -30.5t5 -32.5q0 -22 -31.5 -62t-31.5 -78q0 -26 22.5 -63t22.5 -51t-16.5 -39 t-16.5 -39q0 -6 3 -19t3 -20q0 -15 -9 -44t-9 -44q0 -34 35.5 -99t35.5 -79q0 -15 -8 -44t-8 -44q0 -42 40 -73.5t85 -31.5q35 0 53 41q-4 12 -4 21q0 11 18.5 25.5t22.5 21.5q9 19 13 63.5t9 61.5q2 8 8.5 25t9.5 29.5t3 24.5q0 24 -19 62q-8 15 -11.5 27t-4 18.5t0.5 22 t1 26.5q0 7 -3 20.5t-3 20.5q0 20 21.5 51.5t21.5 50.5zM1010 528q0 -23 -27 -60.5t-27 -61.5q0 -5 1 -15.5t1 -15.5q0 -23 -17 -67t-17 -68q0 -20 -15 -36.5t-32.5 -25.5t-32.5 -23t-15 -30q0 -4 1 -12.5t1 -12.5q0 -40 -27.5 -70t-68.5 -30q-10 0 -31.5 2t-31.5 2 q-12 0 -26.5 -8.5t-27.5 -19t-40.5 -19t-63.5 -8.5q-28 0 -49.5 7t-32.5 14.5t-32.5 26t-34.5 28.5q-26 19 -59.5 20.5t-47.5 5.5q-18 5 -30 19.5t-15.5 25t-9 37.5t-6.5 31q-4 21 -56 69t-57 84q-4 32 -4 54q0 17 7 52t7 54q0 31 -25.5 89t-25.5 89q0 25 17.5 71.5 t17.5 70.5q0 31 -29 88t-29 90q0 27 36 69t36 70q0 20 -7 57.5t-7 55.5q0 27 15.5 48t42.5 43t38 36q9 13 20 46t23 48q20 25 60 38t79 13q20 0 49 17t66.5 34t77.5 17q34 0 59.5 -12t39 -27.5t37.5 -30t54 -18.5q61 -9 90 -30t29 -75q0 -19 14 -37t31 -30.5t31 -32.5 t14 -43q0 -6 -3 -20t-3 -21q0 -14 13.5 -35t13.5 -35q0 -18 -11.5 -53t-11.5 -53q0 -28 21.5 -82t21.5 -82q0 -24 -17.5 -69t-17.5 -70q0 -33 28 -91.5t28 -91.5zM870 1577q-11 -4 -20 -5.5t-14 -1.5t-16 0.5t-19 0.5q-9 0 -25.5 -6t-25.5 -6q-10 0 -29 5t-29 5 q-7 0 -21.5 -2t-21.5 -2q-21 15 -47.5 43.5t-26.5 46.5q-5 3 -16 9t-16 9q-18 -12 -37.5 -40.5t-40 -47t-51.5 -18.5q-8 0 -24.5 2t-24.5 2q-13 0 -37 -5t-37 -5q-19 0 -66 14q0 26 10.5 41.5t34.5 30.5q8 5 12.5 13.5t8.5 21.5t6 18q7 15 28.5 20.5t26.5 10.5q4 5 11 24.5 t12 26.5q21 30 49 55q11 1 32.5 -0.5t28.5 -1.5q11 0 32 6t32 6q10 0 26 -7t25 -7t26 4.5t23 5.5q27 -17 41.5 -37.5t24 -45t18.5 -36.5q9 -13 32 -25.5t36 -47.5q11 -10 28 -21q11 -8 23 -27.5t18 -25.5z" />
<glyph unicode="&#xd5;" horiz-adv-x="1030" d="M682 874q0 32 -35 98t-35 77t7.5 32t7.5 33q0 16 -13.5 41t-15.5 37q0 3 -1.5 12l-2 12t-2.5 10.5t-3.5 10t-4.5 8t-6.5 7.5t-8.5 5t-11.5 4t-14.5 1q-42 0 -83.5 -33.5t-41.5 -73.5q0 -10 5 -30.5t5 -32.5q0 -22 -31.5 -62t-31.5 -78q0 -26 22.5 -63t22.5 -51t-16.5 -39 t-16.5 -39q0 -6 3 -19t3 -20q0 -15 -9 -44t-9 -44q0 -34 35.5 -99t35.5 -79q0 -15 -8 -44t-8 -44q0 -42 40 -73.5t85 -31.5q35 0 53 41q-4 12 -4 21q0 11 18.5 25.5t22.5 21.5q9 19 13 63.5t9 61.5q2 8 8.5 25t9.5 29.5t3 24.5q0 24 -19 62q-8 15 -11.5 27t-4 18.5t0.5 22 t1 26.5q0 7 -3 20.5t-3 20.5q0 20 21.5 51.5t21.5 50.5zM1010 528q0 -23 -27 -60.5t-27 -61.5q0 -5 1 -15.5t1 -15.5q0 -23 -17 -67t-17 -68q0 -20 -15 -36.5t-32.5 -25.5t-32.5 -23t-15 -30q0 -4 1 -12.5t1 -12.5q0 -40 -27.5 -70t-68.5 -30q-10 0 -31.5 2t-31.5 2 q-12 0 -26.5 -8.5t-27.5 -19t-40.5 -19t-63.5 -8.5q-28 0 -49.5 7t-32.5 14.5t-32.5 26t-34.5 28.5q-26 19 -59.5 20.5t-47.5 5.5q-18 5 -30 19.5t-15.5 25t-9 37.5t-6.5 31q-4 21 -56 69t-57 84q-4 32 -4 54q0 17 7 52t7 54q0 31 -25.5 89t-25.5 89q0 25 17.5 71.5 t17.5 70.5q0 31 -29 88t-29 90q0 27 36 69t36 70q0 20 -7 57.5t-7 55.5q0 27 15.5 48t42.5 43t38 36q9 13 20 46t23 48q20 25 60 38t79 13q20 0 49 17t66.5 34t77.5 17q34 0 59.5 -12t39 -27.5t37.5 -30t54 -18.5q61 -9 90 -30t29 -75q0 -19 14 -37t31 -30.5t31 -32.5 t14 -43q0 -6 -3 -20t-3 -21q0 -14 13.5 -35t13.5 -35q0 -18 -11.5 -53t-11.5 -53q0 -28 21.5 -82t21.5 -82q0 -24 -17.5 -69t-17.5 -70q0 -33 28 -91.5t28 -91.5zM969 1841q-2 -11 -5.5 -32t-6.5 -34t-11 -30t-20 -29q-14 -14 -50 -21.5t-49 -23.5q-8 -9 -15 -32.5 t-15 -32.5q-17 -21 -48 -34t-59 -13q-26 0 -59.5 24t-61 53.5t-57 53.5t-47.5 24q-16 0 -30.5 -8.5t-31 -24t-24.5 -20.5q-22 -16 -28.5 -32.5t-4.5 -45.5h-8h-16q-22 0 -36.5 7.5t-37.5 25.5q-13 11 -56.5 17t-52.5 20q7 18 11.5 56t5.5 42q4 20 15.5 30.5t28.5 19.5t27 20 q9 10 22.5 35t29.5 38q16 11 37 14t54 0t40 -3q15 0 46.5 13t55.5 13t42.5 -19.5t28.5 -43t27 -43t39 -19.5q31 0 67 35t44 66h8q11 0 19 -0.5t16 -2.5l12 -3t11.5 -5.5t10 -6.5t13 -10t14.5 -11q17 -13 54.5 -17.5t50.5 -9.5z" />
<glyph unicode="&#xd6;" horiz-adv-x="1030" d="M682 874q0 32 -35 98t-35 77t7.5 32t7.5 33q0 16 -13.5 41t-15.5 37q0 3 -1.5 12l-2 12t-2.5 10.5t-3.5 10t-4.5 8t-6.5 7.5t-8.5 5t-11.5 4t-14.5 1q-42 0 -83.5 -33.5t-41.5 -73.5q0 -10 5 -30.5t5 -32.5q0 -22 -31.5 -62t-31.5 -78q0 -26 22.5 -63t22.5 -51t-16.5 -39 t-16.5 -39q0 -6 3 -19t3 -20q0 -15 -9 -44t-9 -44q0 -34 35.5 -99t35.5 -79q0 -15 -8 -44t-8 -44q0 -42 40 -73.5t85 -31.5q35 0 53 41q-4 12 -4 21q0 11 18.5 25.5t22.5 21.5q9 19 13 63.5t9 61.5q2 8 8.5 25t9.5 29.5t3 24.5q0 24 -19 62q-8 15 -11.5 27t-4 18.5t0.5 22 t1 26.5q0 7 -3 20.5t-3 20.5q0 20 21.5 51.5t21.5 50.5zM1010 528q0 -23 -27 -60.5t-27 -61.5q0 -5 1 -15.5t1 -15.5q0 -23 -17 -67t-17 -68q0 -20 -15 -36.5t-32.5 -25.5t-32.5 -23t-15 -30q0 -4 1 -12.5t1 -12.5q0 -40 -27.5 -70t-68.5 -30q-10 0 -31.5 2t-31.5 2 q-12 0 -26.5 -8.5t-27.5 -19t-40.5 -19t-63.5 -8.5q-28 0 -49.5 7t-32.5 14.5t-32.5 26t-34.5 28.5q-26 19 -59.5 20.5t-47.5 5.5q-18 5 -30 19.5t-15.5 25t-9 37.5t-6.5 31q-4 21 -56 69t-57 84q-4 32 -4 54q0 17 7 52t7 54q0 31 -25.5 89t-25.5 89q0 25 17.5 71.5 t17.5 70.5q0 31 -29 88t-29 90q0 27 36 69t36 70q0 20 -7 57.5t-7 55.5q0 27 15.5 48t42.5 43t38 36q9 13 20 46t23 48q20 25 60 38t79 13q20 0 49 17t66.5 34t77.5 17q34 0 59.5 -12t39 -27.5t37.5 -30t54 -18.5q61 -9 90 -30t29 -75q0 -19 14 -37t31 -30.5t31 -32.5 t14 -43q0 -6 -3 -20t-3 -21q0 -14 13.5 -35t13.5 -35q0 -18 -11.5 -53t-11.5 -53q0 -28 21.5 -82t21.5 -82q0 -24 -17.5 -69t-17.5 -70q0 -33 28 -91.5t28 -91.5zM514 1694q0 -18 -14 -35q-9 -12 -19 -37.5t-22.5 -36t-40.5 -10.5q-10 0 -30 5t-30 5q-16 0 -37 -16.5 t-34 -16.5q-30 0 -54 39.5t-24 71.5q0 15 8 39q6 18 6 40t5.5 39t25.5 36q37 32 53 32q8 0 22.5 -4t22.5 -4q13 0 37.5 8.5t38.5 8.5q17 0 24.5 -21t11 -50t9.5 -38q4 -6 15 -15t18.5 -18.5t7.5 -21.5zM895 1757q0 -15 -8 -39q-6 -18 -6 -41t-5.5 -40t-25.5 -35 q-36 -31 -53 -31q-7 0 -22.5 3t-22.5 3q-14 0 -38 -7t-38 -7q-17 0 -24.5 21t-11 49.5t-9.5 37.5q-4 6 -15 15t-18.5 18.5t-7.5 21.5q0 10 14 33q9 12 19 37.5t22.5 36t40.5 10.5q10 0 29.5 -4t29.5 -4q16 0 38 15.5t34 15.5q30 0 54 -38.5t24 -70.5z" />
<glyph unicode="&#xd8;" horiz-adv-x="1030" d="M682 920q0 34 -35 103t-35 81t7.5 35t7.5 35q0 17 -13.5 42.5t-15.5 38.5q0 3 -2 13.5t-2.5 13.5t-2.5 11.5t-4.5 11.5t-6.5 8.5t-9 7.5t-12 4t-16 2q-42 0 -83.5 -34.5t-41.5 -75.5q0 -11 5 -34t5 -34q0 -21 -16 -42t-31.5 -47.5t-15.5 -58.5q0 -26 22.5 -64t22.5 -54 q0 -15 -16.5 -41t-16.5 -41q0 -7 3 -20.5t3 -20.5q0 -16 -9 -47t-9 -47q0 -35 35.5 -103.5t35.5 -83.5q0 -17 -8 -47t-8 -47q0 -44 40 -76.5t85 -32.5q36 0 53 43q-4 12 -4 21q0 13 18.5 28t22.5 23q9 19 13 66t9 65q2 7 6.5 20t7 21.5t5 20.5t2.5 22q0 26 -19 64 q-8 15 -11.5 28t-4 20.5t0.5 24t1 27.5q0 7 -3 21.5t-3 21.5q0 21 21.5 54t21.5 53zM1010 557q0 -25 -27 -65t-27 -66q0 -5 1 -15.5t1 -15.5q0 -25 -17 -71t-17 -72q0 -20 -15 -37t-32.5 -27t-32.5 -25t-15 -32q0 -4 1 -12.5t1 -12.5q0 -43 -27 -74.5t-69 -31.5 q-10 0 -31.5 2t-31.5 2q-14 0 -32 -14t-49 -28.5t-77 -14.5q-19 0 -43 4q-8 -17 -15.5 -46.5t-19 -51t-35.5 -37.5h-4q-11 0 -30 17t-43 17q-21 0 -46 -12t-30 -12q-7 0 -30 11t-30 13v5q0 14 8 25.5t18 21t18 33.5t8 59q0 30 6 65q-11 6 -19 15t-13 23t-7.5 23.5t-5.5 27.5 l-4 24q-4 20 -30.5 46t-52.5 56t-30 60q-4 36 -4 55t7 56t7 57q0 34 -25.5 94t-25.5 94q0 26 17.5 74t17.5 74q0 34 -29 94t-29 94q0 30 36 74t36 74q0 20 -7 59t-7 59q0 29 15.5 51t42.5 44.5t38 37.5q9 14 20 49t23 50q20 26 60 40.5t79 14.5q20 0 49 17.5t66.5 35 t77.5 17.5q19 0 39 -4q4 98 49 131q15 -9 35 -9q13 0 33 10.5t28 10.5q21 0 60 -15.5t61 -15.5q29 0 59 10q7 -7 7 -24q0 -29 -15 -66q-6 -17 -40.5 -42t-43.5 -42q-9 -14 -18 -51q55 -22 55 -96q0 -20 14 -38.5t31 -31.5t31 -34.5t14 -45.5q0 -7 -3 -21.5t-3 -21.5 q0 -16 13.5 -38t13.5 -35q0 -20 -11.5 -57t-11.5 -56q0 -31 21.5 -86t21.5 -86q0 -25 -17.5 -73t-17.5 -74q0 -34 28 -95.5t28 -95.5z" />
<glyph unicode="&#xd9;" horiz-adv-x="1122" d="M1069 1303q0 -7 -15.5 -40.5t-15.5 -56.5q0 -9 4.5 -26.5t4.5 -26.5q0 -12 -8.5 -30.5t-8.5 -26.5q0 -6 8.5 -21t8.5 -28q0 -21 -25 -68t-25 -76q0 -16 20.5 -63.5t20.5 -77.5q0 -16 -6 -49t-6 -49t14.5 -51t14.5 -56q0 -23 -19.5 -64t-19.5 -65q0 -6 1 -19.5t1 -19.5 q0 -24 -13.5 -68.5t-13.5 -66.5q0 -30 -39 -60t-45 -40q-9 -13 -15.5 -48t-21.5 -49q-12 -11 -25 -19t-21.5 -12t-25.5 -6t-23.5 -2.5t-28.5 0t-29 0.5q-12 0 -25.5 -8.5t-27 -19t-42 -19t-65.5 -8.5q-52 0 -93.5 18.5t-90.5 55.5q-20 15 -35.5 18.5t-34.5 3.5t-35 4 q-15 5 -25 13.5t-16.5 22.5t-9.5 23.5t-7 28.5t-5 25q-4 22 -56 70.5t-57 85.5q-4 32 -4 51t7 56t7 55q0 24 -10 68.5t-10 66.5q0 9 4 27.5t4 27.5q0 30 -20.5 80t-20.5 67q0 34 26.5 95.5t26.5 95.5q0 32 -19.5 91t-19.5 91q0 35 17.5 101t17.5 100q0 32 -22 78 q14 12 59 12q19 0 52 12.5t51 12.5q16 0 46.5 -7.5t45.5 -7.5q16 0 44 9.5t40 11.5q0 -37 19.5 -105t19.5 -104q0 -33 -21.5 -93.5t-21.5 -93.5q0 -25 16 -69.5t16 -67.5q0 -20 -17 -53t-17 -51q0 -23 12 -65.5t12 -63.5q0 -23 -12 -64.5t-12 -62.5q0 -41 16 -80t32.5 -65.5 t16.5 -36.5q0 -11 -5 -33t-5 -33q0 -40 33.5 -77.5t74.5 -37.5t58 52q0 2 -1 6t-1 6q0 12 9 20.5t20.5 13t20.5 15t9 25.5q0 12 -5 35.5t-5 37.5q0 24 20.5 63.5t20.5 61.5q0 17 -12 41q-8 15 -12 28t-4.5 19.5t0.5 23.5t1 27q0 6 -3 19t-3 20q0 18 21.5 51.5t21.5 59.5 q0 27 -21.5 79t-21.5 81q0 21 12.5 61t12.5 60q0 32 -16.5 93t-16.5 93q0 20 8.5 61.5t7.5 63.5q21 6 43 6q13 0 40 -4t40 -4q24 0 77.5 21.5t86.5 21.5t76 -17q6 -12 6 -24q0 -16 -11.5 -46.5t-11.5 -47.5t15.5 -46t15.5 -44zM659 1595v-4q-7 -2 -29.5 -13t-29.5 -11 q-6 0 -31 12t-45 12q-24 0 -43 -17.5t-30 -17.5h-5q-24 16 -35.5 39.5t-18.5 53.5t-17 47q-9 17 -43.5 42t-40.5 42q-15 38 -15 65q0 18 7 25q30 -10 59 -10q22 0 61 15t60 15q8 0 28 -10t33 -10q22 0 35 8q23 -17 34.5 -48t13 -52.5t1.5 -60.5v-3.5v-3.5v-4q0 -30 25.5 -62 t25.5 -49z" />
<glyph unicode="&#xda;" horiz-adv-x="1122" d="M1069 1303q0 -7 -15.5 -40.5t-15.5 -56.5q0 -9 4.5 -26.5t4.5 -26.5q0 -12 -8.5 -30.5t-8.5 -26.5q0 -6 8.5 -21t8.5 -28q0 -21 -25 -68t-25 -76q0 -16 20.5 -63.5t20.5 -77.5q0 -16 -6 -49t-6 -49t14.5 -51t14.5 -56q0 -23 -19.5 -64t-19.5 -65q0 -6 1 -19.5t1 -19.5 q0 -24 -13.5 -68.5t-13.5 -66.5q0 -30 -39 -60t-45 -40q-9 -13 -15.5 -48t-21.5 -49q-12 -11 -25 -19t-21.5 -12t-25.5 -6t-23.5 -2.5t-28.5 0t-29 0.5q-12 0 -25.5 -8.5t-27 -19t-42 -19t-65.5 -8.5q-52 0 -93.5 18.5t-90.5 55.5q-20 15 -35.5 18.5t-34.5 3.5t-35 4 q-15 5 -25 13.5t-16.5 22.5t-9.5 23.5t-7 28.5t-5 25q-4 22 -56 70.5t-57 85.5q-4 32 -4 51t7 56t7 55q0 24 -10 68.5t-10 66.5q0 9 4 27.5t4 27.5q0 30 -20.5 80t-20.5 67q0 34 26.5 95.5t26.5 95.5q0 32 -19.5 91t-19.5 91q0 35 17.5 101t17.5 100q0 32 -22 78 q14 12 59 12q19 0 52 12.5t51 12.5q16 0 46.5 -7.5t45.5 -7.5q16 0 44 9.5t40 11.5q0 -37 19.5 -105t19.5 -104q0 -33 -21.5 -93.5t-21.5 -93.5q0 -25 16 -69.5t16 -67.5q0 -20 -17 -53t-17 -51q0 -23 12 -65.5t12 -63.5q0 -23 -12 -64.5t-12 -62.5q0 -41 16 -80t32.5 -65.5 t16.5 -36.5q0 -11 -5 -33t-5 -33q0 -40 33.5 -77.5t74.5 -37.5t58 52q0 2 -1 6t-1 6q0 12 9 20.5t20.5 13t20.5 15t9 25.5q0 12 -5 35.5t-5 37.5q0 24 20.5 63.5t20.5 61.5q0 17 -12 41q-8 15 -12 28t-4.5 19.5t0.5 23.5t1 27q0 6 -3 19t-3 20q0 18 21.5 51.5t21.5 59.5 q0 27 -21.5 79t-21.5 81q0 21 12.5 61t12.5 60q0 32 -16.5 93t-16.5 93q0 20 8.5 61.5t7.5 63.5q21 6 43 6q13 0 40 -4t40 -4q24 0 77.5 21.5t86.5 21.5t76 -17q6 -12 6 -24q0 -16 -11.5 -46.5t-11.5 -47.5t15.5 -46t15.5 -44zM838 1866q0 -28 -15 -66q-6 -17 -40.5 -42 t-43.5 -42q-11 -18 -18 -47.5t-18 -52.5t-35 -39h-4q-12 0 -31 17.5t-43 17.5q-21 0 -46 -12.5t-30 -12.5q-6 0 -29 11.5t-30 13.5v4q0 14 8 25.5t17.5 21t17.5 33.5t8 59q0 108 49 143q13 -8 35 -8q13 0 33 10.5t28 10.5q21 0 60 -15.5t61 -15.5q29 0 59 10q7 -7 7 -24z " />
<glyph unicode="&#xdb;" horiz-adv-x="1122" d="M1069 1303q0 -7 -15.5 -40.5t-15.5 -56.5q0 -9 4.5 -26.5t4.5 -26.5q0 -12 -8.5 -30.5t-8.5 -26.5q0 -6 8.5 -21t8.5 -28q0 -21 -25 -68t-25 -76q0 -16 20.5 -63.5t20.5 -77.5q0 -16 -6 -49t-6 -49t14.5 -51t14.5 -56q0 -23 -19.5 -64t-19.5 -65q0 -6 1 -19.5t1 -19.5 q0 -24 -13.5 -68.5t-13.5 -66.5q0 -30 -39 -60t-45 -40q-9 -13 -15.5 -48t-21.5 -49q-12 -11 -25 -19t-21.5 -12t-25.5 -6t-23.5 -2.5t-28.5 0t-29 0.5q-12 0 -25.5 -8.5t-27 -19t-42 -19t-65.5 -8.5q-52 0 -93.5 18.5t-90.5 55.5q-20 15 -35.5 18.5t-34.5 3.5t-35 4 q-15 5 -25 13.5t-16.5 22.5t-9.5 23.5t-7 28.5t-5 25q-4 22 -56 70.5t-57 85.5q-4 32 -4 51t7 56t7 55q0 24 -10 68.5t-10 66.5q0 9 4 27.5t4 27.5q0 30 -20.5 80t-20.5 67q0 34 26.5 95.5t26.5 95.5q0 32 -19.5 91t-19.5 91q0 35 17.5 101t17.5 100q0 32 -22 78 q14 12 59 12q19 0 52 12.5t51 12.5q16 0 46.5 -7.5t45.5 -7.5q16 0 44 9.5t40 11.5q0 -37 19.5 -105t19.5 -104q0 -33 -21.5 -93.5t-21.5 -93.5q0 -25 16 -69.5t16 -67.5q0 -20 -17 -53t-17 -51q0 -23 12 -65.5t12 -63.5q0 -23 -12 -64.5t-12 -62.5q0 -41 16 -80t32.5 -65.5 t16.5 -36.5q0 -11 -5 -33t-5 -33q0 -40 33.5 -77.5t74.5 -37.5t58 52q0 2 -1 6t-1 6q0 12 9 20.5t20.5 13t20.5 15t9 25.5q0 12 -5 35.5t-5 37.5q0 24 20.5 63.5t20.5 61.5q0 17 -12 41q-8 15 -12 28t-4.5 19.5t0.5 23.5t1 27q0 6 -3 19t-3 20q0 18 21.5 51.5t21.5 59.5 q0 27 -21.5 79t-21.5 81q0 21 12.5 61t12.5 60q0 32 -16.5 93t-16.5 93q0 20 8.5 61.5t7.5 63.5q21 6 43 6q13 0 40 -4t40 -4q24 0 77.5 21.5t86.5 21.5t76 -17q6 -12 6 -24q0 -16 -11.5 -46.5t-11.5 -47.5t15.5 -46t15.5 -44zM891 1577q-11 -4 -20 -5.5t-14 -1.5t-16.5 0.5 t-19.5 0.5q-9 0 -25.5 -6t-25.5 -6q-10 0 -28.5 5t-28.5 5q-7 0 -21.5 -2t-21.5 -2q-21 15 -47.5 43.5t-26.5 46.5q-5 3 -16.5 9t-16.5 9q-18 -12 -37.5 -40.5t-40 -47t-51.5 -18.5q-8 0 -24.5 2t-24.5 2q-13 0 -37.5 -5t-36.5 -5q-18 0 -65 14q0 26 10.5 41.5t34.5 30.5 q8 5 12.5 14t8 21.5t5.5 17.5q7 15 29 20.5t27 10.5q4 5 10.5 24.5t11.5 26.5q21 30 49 55q11 1 33 -0.5t29 -1.5q12 0 32 6t31 6q10 0 26.5 -7t25.5 -7t26 4.5t23 5.5q27 -17 41.5 -37.5t24 -45t18.5 -36.5q9 -13 31.5 -25.5t35.5 -47.5q9 -9 29 -21q11 -8 23 -27.5 t18 -25.5z" />
<glyph unicode="&#xdc;" horiz-adv-x="1122" d="M1069 1303q0 -7 -15.5 -40.5t-15.5 -56.5q0 -9 4.5 -26.5t4.5 -26.5q0 -12 -8.5 -30.5t-8.5 -26.5q0 -6 8.5 -21t8.5 -28q0 -21 -25 -68t-25 -76q0 -16 20.5 -63.5t20.5 -77.5q0 -16 -6 -49t-6 -49t14.5 -51t14.5 -56q0 -23 -19.5 -64t-19.5 -65q0 -6 1 -19.5t1 -19.5 q0 -24 -13.5 -68.5t-13.5 -66.5q0 -30 -39 -60t-45 -40q-9 -13 -15.5 -48t-21.5 -49q-12 -11 -25 -19t-21.5 -12t-25.5 -6t-23.5 -2.5t-28.5 0t-29 0.5q-12 0 -25.5 -8.5t-27 -19t-42 -19t-65.5 -8.5q-52 0 -93.5 18.5t-90.5 55.5q-20 15 -35.5 18.5t-34.5 3.5t-35 4 q-15 5 -25 13.5t-16.5 22.5t-9.5 23.5t-7 28.5t-5 25q-4 22 -56 70.5t-57 85.5q-4 32 -4 51t7 56t7 55q0 24 -10 68.5t-10 66.5q0 9 4 27.5t4 27.5q0 30 -20.5 80t-20.5 67q0 34 26.5 95.5t26.5 95.5q0 32 -19.5 91t-19.5 91q0 35 17.5 101t17.5 100q0 32 -22 78 q14 12 59 12q19 0 52 12.5t51 12.5q16 0 46.5 -7.5t45.5 -7.5q16 0 44 9.5t40 11.5q0 -37 19.5 -105t19.5 -104q0 -33 -21.5 -93.5t-21.5 -93.5q0 -25 16 -69.5t16 -67.5q0 -20 -17 -53t-17 -51q0 -23 12 -65.5t12 -63.5q0 -23 -12 -64.5t-12 -62.5q0 -41 16 -80t32.5 -65.5 t16.5 -36.5q0 -11 -5 -33t-5 -33q0 -40 33.5 -77.5t74.5 -37.5t58 52q0 2 -1 6t-1 6q0 12 9 20.5t20.5 13t20.5 15t9 25.5q0 12 -5 35.5t-5 37.5q0 24 20.5 63.5t20.5 61.5q0 17 -12 41q-8 15 -12 28t-4.5 19.5t0.5 23.5t1 27q0 6 -3 19t-3 20q0 18 21.5 51.5t21.5 59.5 q0 27 -21.5 79t-21.5 81q0 21 12.5 61t12.5 60q0 32 -16.5 93t-16.5 93q0 20 8.5 61.5t7.5 63.5q21 6 43 6q13 0 40 -4t40 -4q24 0 77.5 21.5t86.5 21.5t76 -17q6 -12 6 -24q0 -16 -11.5 -46.5t-11.5 -47.5t15.5 -46t15.5 -44zM535 1724q0 -15 -15 -34q-9 -12 -19 -37.5 t-22.5 -36t-40.5 -10.5q-10 0 -29.5 5t-29.5 5q-16 0 -37.5 -16.5t-34.5 -16.5q-30 0 -54 39.5t-24 71.5q0 12 9 39q6 18 6 40t5 38.5t25 35.5q1 1 8.5 7.5t11 9.5t10.5 7.5t12.5 6.5t11.5 2q8 0 22.5 -4t22.5 -4q13 0 38 8t38 8q17 0 24.5 -21t11 -49.5t9.5 -37.5 q1 -2 21 -21t20 -35zM915 1788q0 -15 -8 -39q-6 -18 -6 -41t-5.5 -40.5t-25.5 -35.5q-35 -30 -53 -30q-7 0 -22.5 3t-22.5 3q-14 0 -38 -7.5t-38 -7.5q-17 0 -24.5 21t-11 50t-9.5 38q-4 6 -15 15t-18.5 18.5t-7.5 21.5q0 8 15 33q9 12 19 37.5t22.5 36t40.5 10.5 q10 0 29.5 -4t29.5 -4q16 0 38 15t34 15q30 0 53.5 -38t23.5 -70z" />
<glyph unicode="&#xdd;" d="M1110 1479q-9 -14 -14 -46.5t-13 -46.5q-10 -18 -37.5 -48.5t-37.5 -47.5q-7 -14 -12.5 -50t-22.5 -62q-14 -22 -40.5 -49.5t-40 -52.5t-13.5 -64q0 -20 -11.5 -38.5t-24.5 -31t-24.5 -37.5t-11.5 -57q0 -11 -22.5 -38t-45 -63t-22.5 -69q0 -34 21.5 -98.5t21.5 -98.5 q0 -33 -29 -92t-29 -92q0 -20 16.5 -59.5t16.5 -61.5q0 -19 -5.5 -51t-8 -51t3.5 -51q-73 -25 -111 -25q-25 0 -53 15.5t-45 15.5q-20 0 -55.5 -11.5t-54.5 -11.5q-20 0 -33 10q-8 16 -8 39q0 21 13 61t13 60q0 22 -14.5 61.5t-14.5 59.5q0 29 18.5 82t18.5 80q0 18 -16 46 t-16 54q0 27 14 77t16 73q11 18 11 34q0 19 -15.5 49.5t-17.5 38.5q-27 78 -78 127q-22 23 -36.5 62.5t-20.5 50.5q-10 18 -41 40t-39 52q-1 5 -4 17.5t-4 16t-3.5 13.5t-4.5 13.5t-6 11.5t-8 13t-10 12t-14 14q-21 21 -23.5 61t-16.5 60q-4 6 -34 31t-30 42q80 39 119 39 q23 0 65 -15t64 -15q12 0 38 4t38 4q24 0 45 -6q54 -51 90 -140q9 -25 16 -73t15 -70q4 -12 12 -24.5t14.5 -20t19.5 -22t17 -19.5q3 29 13 47t20 25t23 18.5t20 26.5q6 14 7.5 46t12.5 48q7 10 28.5 30t29.5 33q9 16 16 50.5t33 64.5h16q19 0 36 -8t19 -8q11 0 46 17.5 t57 17.5q18 0 43 -18.5t43 -18.5q12 0 33 4t32 4q19 0 27 -10zM817 1784q0 -31 -14 -66q-6 -17 -40.5 -42t-43.5 -42q-11 -18 -18.5 -47.5t-18.5 -52.5t-35 -39h-4q-11 0 -31 17.5t-43 17.5q-21 0 -45.5 -12.5t-29.5 -12.5q-6 0 -29.5 11.5t-30.5 13.5v4q0 14 8 25.5 t17.5 21t17.5 33.5t8 59q0 108 50 144q15 -9 34 -9q13 0 33.5 10.5t28.5 10.5q21 0 60 -15.5t61 -15.5q29 0 59 10q6 -6 6 -24z" />
</font>
</defs>
</svg>
